<?xml version="1.0" encoding="UTF-8"?>
<svg version="1.1" viewBox="0 0 30 30" xmlns="http://www.w3.org/2000/svg" xmlns:xlink="http://www.w3.org/1999/xlink">
    <path d="M16.4748,17.6613c-0.0005591,-1.66089 0.759519,-2.88272 2.50145,-4.70736c0.0916962,-0.0960502 0.199531,-0.208352 0.39864,-0.415649c1.92244,-2.00479 2.61557,-3.14435 2.61557,-4.93747c0,-4.37886 -2.80563,-6.59274 -7.4905,-6.59274c-2.76122,4.44089e-16 -5.31559,1.18711 -7.28282,3.25401l3.08524,2.81865c1.24517,-1.09903 2.07084,-1.5162 3.30922,-1.5162c1.62939,0 2.76603,0.885874 2.76603,2.52016c0,0.310716 -0.0641955,0.620317 -0.187228,0.933326c-0.193512,0.49232 -0.521829,0.979932 -1.02739,1.57562c-0.277385,0.326838 -1.34856,1.49356 -1.41549,1.56855c-1.75776,1.96931 -2.5343,3.51981 -2.35469,5.49911h5.08195Zm-6.02716,0.580674c-0.393393,-2.55342 0.483369,-4.43933 2.54629,-6.75052c0.0784903,-0.0879368 1.13669,-1.24054 1.39896,-1.54956c0.440016,-0.518463 0.713125,-0.924082 0.857814,-1.29219c0.0788451,-0.200592 0.117435,-0.386701 0.117435,-0.565014c0,-1.0152 -0.637555,-1.5121 -1.75653,-1.5121c-1.02535,0 -1.69514,0.38587 -2.9688,1.55988c-0.192719,0.177641 -0.48957,0.178298 -0.683076,0.00151309l-3.79572,-3.46774c-0.202461,-0.184966 -0.21985,-0.497565 -0.0391501,-0.703785c2.19181,-2.50136 5.1514,-3.96245 8.37511,-3.96245c5.19716,0 8.5,2.60622 8.5,7.60081c0,2.12996 -0.806197,3.4554 -2.89595,5.63466c-0.199997,0.208223 -0.306581,0.319223 -0.397091,0.41403c-1.74319,1.82596 -2.34469,2.88877 -2.20072,4.47019c0.0268718,0.29517 -0.205869,0.549665 -0.502678,0.549665h-6.05701c-0.24913,0 -0.460999,-0.181508 -0.498881,-0.427391Zm3.487,10.75c2.02567,0 3.53325,-1.59025 3.53325,-3.68952c0,-2.09927 -1.50758,-3.68952 -3.53325,-3.68952c-2.02568,0 -3.53325,1.59025 -3.53325,3.68952c0,2.09927 1.50758,3.68952 3.53325,3.68952Zm0,1.00806c-2.59595,0 -4.54275,-2.05355 -4.54275,-4.69758c0,-2.64403 1.9468,-4.69758 4.54275,-4.69758c2.59595,0 4.54275,2.05355 4.54275,4.69758c0,2.64403 -1.9468,4.69758 -4.54275,4.69758Z" fill="#000" stroke="none"></path>
</svg>