<?xml version="1.0" encoding="UTF-8"?>
<svg viewBox="0 0 30 30" version="1.1" xmlns="http://www.w3.org/2000/svg" xmlns:xlink="http://www.w3.org/1999/xlink">
    <g id="Page-1" stroke="none" stroke-width="1" fill="none" fill-rule="evenodd">
        <g id="Outlines_black-Copy" transform="translate(0.000000, -114.000000)">
            <g id="Group-3" transform="translate(3.000000, 114.000000)" fill="#000000" fill-rule="nonzero">
                <path d="M9.29728713,15.1771006 C9.58444739,14.0641624 9.88248267,12.7683234 10.2439457,11.0927116 C10.3460769,10.6192684 10.4494557,10.1337324 10.5837252,9.49848109 C10.5729738,9.54934738 10.8375813,8.29570673 10.9088958,7.95950973 C10.9662659,7.68905078 11.205044,7.49560976 11.4815207,7.49560976 L11.6220085,7.49560976 C11.8914049,7.49560976 12.1260166,7.67947412 12.1904075,7.94106202 C12.4032046,8.80555029 12.5729397,9.54540404 12.9545319,11.2464126 C13.4153415,13.3005455 13.6199838,14.1829625 13.876486,15.1771006 L14.2628274,16.7575884 C14.3529547,17.1262909 14.0737618,17.4819512 13.6942036,17.4819512 L9.47956947,17.4819512 C9.10001131,17.4819512 8.82081841,17.1262909 8.91094567,16.7575884 L9.29728713,15.1771006 Z M10.2252597,16.3112195 L12.9485361,16.3112195 L12.7410657,15.4623676 C12.4821292,14.4589887 12.2758825,13.5696537 11.8121916,11.502677 C11.7233469,11.1066374 11.6460571,10.7630174 11.5770871,10.458033 C11.5097067,10.774828 11.4488291,11.0592359 11.3883526,11.3395831 C11.0239353,13.0288898 10.7228402,14.3380517 10.4339556,15.4574637 L10.2252597,16.3112195 Z M6.80172613,25.8292683 L7.82055326,21.4355763 C7.88207396,21.1702683 8.11844152,20.982439 8.39078899,20.982439 L14.7829841,20.982439 C15.0553316,20.982439 15.2916991,21.1702683 15.3532198,21.4355763 L16.372047,25.8292683 L21.5088485,25.8292683 L14.9113251,4.17073171 L8.47317972,4.17073171 L1.87565627,25.8292683 L6.80172613,25.8292683 Z M7.83712228,26.5468627 C7.77560158,26.8121707 7.53923402,27 7.26688655,27 L1.08542313,27 C0.692274518,27 0.410898783,26.6201479 0.52546066,26.244061 L7.479607,3.41479267 C7.55466679,3.16838426 7.78198245,3 8.03956947,3 L15.3449353,3 C15.6025224,3 15.829838,3.16838426 15.9048978,3.41479267 L22.8590441,26.244061 C22.973606,26.6201479 22.6922303,27 22.2990817,27 L15.9068865,27 C15.6345391,27 15.3981715,26.8121707 15.3366508,26.5468627 L14.3178237,22.1531707 L8.85594941,22.1531707 L7.83712228,26.5468627 Z" id="A-Copy-2"></path>
            </g>
            <g id="Slices" transform="translate(0.000000, 114.000000)"></g>
        </g>
    </g>
</svg>