<?xml version="1.0" encoding="UTF-8"?><svg version="1.1" viewBox="0 0 30 30" xmlns="http://www.w3.org/2000/svg" xmlns:xlink="http://www.w3.org/1999/xlink"><path d="M23.489,13.006c-0.276,0 -0.5,0.224 -0.5,0.5c0,0.276 0.224,0.5 0.5,0.5c0.607,0 1.274,0.122 1.506,1.579c0.04,0.246 0.252,0.421 0.493,0.421c0.026,0 0.053,-0.002 0.08,-0.007c0.272,-0.043 0.458,-0.3 0.415,-0.572c-0.26,-1.629 -1.076,-2.421 -2.494,-2.421Zm5.779,-2.742c-0.121,-0.312 -0.232,-0.612 -0.337,-0.9c-0.601,-1.626 -1.078,-2.913 -2.308,-3.875c0.107,-0.113 0.214,-0.222 0.323,-0.332c0.49,-0.497 0.99,-0.971 1.421,-1.365c0.431,-0.395 0.772,-0.706 0.992,-0.952c1.061,-1.183 0.444,-2.004 0.229,-2.227c-0.777,-0.809 -2.44,-0.803 -3.419,0.008c-0.642,0.53 -0.888,1.268 -1.085,1.861c-0.115,0.347 -0.225,0.675 -0.374,0.833c-0.045,0.048 -0.065,0.067 -0.085,0.087c-0.011,0.01 -0.022,0.021 -0.03,0.028c-1.188,-1.269 -2.969,-1.965 -4.854,-2.692c-2.789,-1.075 -5.931,-0.982 -8.841,0.261c-0.769,0.328 -1.335,0.975 -1.554,1.777c-0.174,0.645 -0.077,1.301 0.229,1.847c-1.02,0.754 -2.246,1.799 -3.485,3.08c-3.017,2.967 -6.102,7.379 -6.102,12.345c0,2.478 0.219,3.458 0.546,4.167c0.303,0.654 0.576,1.67 0.455,2.434l-0.001,0.356c0,0.611 0.281,1.228 0.732,1.611c0.388,0.327 0.871,0.461 1.269,0.389l0.436,-0.008c0.688,-0.111 1.7,0.16 2.354,0.462c0.177,0.082 0.372,0.157 0.602,0.224c0.691,0.2 1.706,0.322 3.564,0.322c0,0 0,0 0.001,0c4.972,0 9.384,-3.078 12.35,-6.091c1.284,-1.24 2.331,-2.468 3.085,-3.488c0.358,0.2 0.752,0.323 1.166,0.323c0.226,0 0.455,-0.03 0.683,-0.093c0.8,-0.219 1.448,-0.785 1.776,-1.553c1.244,-2.909 1.336,-6.049 0.262,-8.839Zm-3.828,-6.262c0.3,-0.319 0.443,-0.748 0.595,-1.203c0.172,-0.521 0.352,-1.059 0.772,-1.407c0.649,-0.536 1.729,-0.434 2.061,-0.086c0.226,0.234 -0.013,0.6 -0.251,0.867c-0.195,0.218 -0.527,0.52 -0.923,0.881c-0.528,0.482 -1.162,1.063 -1.762,1.695l-0.618,-0.619c0.036,-0.035 0.077,-0.077 0.126,-0.128Zm-3.754,19.115c-2.992,2.922 -7.274,5.889 -11.742,5.889c-2.294,0 -3.156,-0.182 -3.746,-0.454c-0.175,-0.081 -0.377,-0.159 -0.591,-0.234c-0.066,-0.023 -0.134,-0.041 -0.202,-0.063c-0.154,-0.049 -0.308,-0.093 -0.471,-0.132c-0.09,-0.022 -0.176,-0.038 -0.266,-0.055c-0.149,-0.029 -0.294,-0.05 -0.441,-0.066c-0.094,-0.01 -0.183,-0.018 -0.275,-0.022c-0.049,-0.002 -0.101,-0.012 -0.149,-0.012c-0.16,0 -0.315,0.011 -0.46,0.036l-0.436,0.008c-0.2,0.033 -0.376,-0.022 -0.539,-0.159c-0.231,-0.195 -0.379,-0.528 -0.379,-0.846l-0.006,-0.274c0.04,-0.24 0.048,-0.496 0.032,-0.757c-0.048,-0.784 -0.31,-1.614 -0.572,-2.181c-0.102,-0.221 -0.191,-0.481 -0.263,-0.84c-0.12,-0.599 -0.191,-1.473 -0.191,-2.907c0,-4.465 2.976,-8.747 5.904,-11.739c1.193,-1.157 2.371,-2.084 3.317,-2.705l2.327,3.4c1.141,1.667 2.423,3.212 3.837,4.626c1.414,1.414 2.959,2.697 4.627,3.838l3.399,2.327c-0.624,0.947 -1.554,2.127 -2.714,3.322Zm6.402,-4.403c-0.207,0.486 -0.615,0.843 -1.12,0.981c-0.451,0.122 -0.908,0.044 -1.262,-0.215c-0.004,-0.004 -0.009,-0.007 -0.014,-0.01l-0.165,-0.113l-0.86,-0.589l-3.103,-2.124c-3.23,-2.212 -5.99,-4.972 -8.202,-8.202l-2.835,-4.141c-0.259,-0.352 -0.337,-0.812 -0.215,-1.261c0.137,-0.505 0.496,-0.914 0.981,-1.121c1.44,-0.615 2.939,-0.924 4.415,-0.924c1.26,0 2.503,0.225 3.679,0.679c2.013,0.775 3.751,1.445 4.794,2.793l1.748,1.742c1.08,0.831 1.493,1.952 2.064,3.502c0.108,0.292 0.22,0.597 0.342,0.914c0.982,2.545 0.894,5.418 -0.247,8.089Zm-22.012,-6.49c-0.928,1.36 -3.087,4.889 -3.087,8.282c0,0.276 0.224,0.5 0.5,0.5c0.276,0 0.5,-0.223 0.5,-0.5c0,-3.114 2.037,-6.435 2.913,-7.718c0.155,-0.228 0.097,-0.539 -0.131,-0.695c-0.228,-0.154 -0.539,-0.098 -0.695,0.131Zm8.413,-9.218c-0.276,0 -0.5,0.224 -0.5,0.5c0,0.276 0.224,0.5 0.5,0.5c0.607,0 1.274,0.122 1.506,1.579c0.04,0.246 0.252,0.421 0.493,0.421c0.026,0 0.053,-0.002 0.08,-0.007c0.272,-0.043 0.458,-0.3 0.415,-0.572c-0.26,-1.629 -1.076,-2.421 -2.494,-2.421Zm6,4c-0.276,0 -0.5,0.224 -0.5,0.5c0,0.276 0.224,0.5 0.5,0.5c0.607,0 1.274,0.122 1.506,1.579c0.04,0.246 0.252,0.421 0.493,0.421c0.026,0 0.053,-0.002 0.08,-0.007c0.272,-0.043 0.458,-0.3 0.415,-0.572c-0.26,-1.629 -1.076,-2.421 -2.494,-2.421Z" fill="#000"></path></svg>