<svg viewBox="0 0 30 30" xmlns="http://www.w3.org/2000/svg">
    <path d="M22.2 16l-13.9 0 -0.1-1.3c-0.1-0.7 0.4-1.4 1.1-1.7l1.6-0.6c1.9-0.8 2.8-2.8 2.8-5.6v-0.5l3 0v0.5c0 2.8 0.9 4.8 2.8 5.6l1.6 0.6c0.7 0.3 1.1 1 1.1 1.7L22.2 16zM21.8 24.4l-13.2 0 -0.3-7.6 13.8-0.1L21.8 24.4zM21.6 28.1c0 0.4-0.4 0.7-0.8 0.7h-11.3c-0.4 0-0.8-0.3-0.8-0.7l-0.1-2.8 13.1-0.1L21.6 28.1zM12.8 3.3c0-0.1 0.1-0.2 0.2-0.2h4.5c0.1 0 0.2 0.1 0.2 0.2v1.9c0 0.1-0.1 0.2-0.2 0.2H13c-0.1 0-0.2-0.1-0.2-0.2V3.3zM13.7 1.1l3 0 0 1.1 -3.1 0.1V1.1zM21.5 12.1l-1.6-0.6c-1.5-0.6-2.2-2.4-2.2-4.7l0-0.5c0.5-0.1 0.9-0.5 0.9-1.1v-1.9c0-0.5-0.4-1-0.9-1v-1.6c0-0.3-0.2-0.5-0.5-0.5h-4c-0.3 0-0.5 0.2-0.5 0.5l0 1.5c-0.5 0.1-0.9 0.5-0.9 1.1v1.9c0 0.5 0.4 1 0.9 1v0.6c0 2.3-0.7 4.1-2.2 4.7l-1.6 0.6c-1.1 0.4-1.7 1.5-1.6 2.6l0.6 13.4c0.1 0.9 0.8 1.6 1.7 1.6h11.3c0.9 0 1.6-0.7 1.7-1.6l0.6-13.4C23.2 13.6 22.5 12.6 21.5 12.1z" />
</svg>