<?xml version="1.0" encoding="UTF-8"?>
<svg version="1.1" viewBox="0 0 17 30" xmlns="http://www.w3.org/2000/svg" xmlns:xlink="http://www.w3.org/1999/xlink">
    <!--Generated by IJSVG (https://github.com/curthard89/IJSVG)-->
    <path d="M233.685,105.921l-13.908,0.048l-0.055,-1.327c-0.05,-0.741 0.378,-1.423 1.064,-1.697l1.604,-0.642c1.882,-0.754 2.796,-2.461 2.796,-5.22v-0.492l3.041,-0.049v0.541c-0.001,2.758 0.913,4.465 2.795,5.22l1.604,0.642c0.685,0.273 1.113,0.959 1.065,1.708l-0.006,1.268Zm-0.362,8.45l-13.186,0.048l-0.323,-7.583l13.786,-0.052l-0.277,7.587Zm-0.206,3.694c-0.027,0.416 -0.372,0.742 -0.786,0.742h-11.251c-0.414,0 -0.76,-0.323 -0.787,-0.733l-0.119,-2.788l13.064,-0.052l-0.121,2.831Zm-8.818,-24.451c0,-0.089 0.073,-0.162 0.162,-0.162h4.489c0.089,0 0.162,0.073 0.162,0.162v1.899c0,0.089 -0.073,0.162 -0.162,0.162h-4.492c-0.087,0 -0.159,-0.073 -0.159,-0.162v-1.899Zm0.886,-2.145l3.041,-0.049l0.05,1.117l-3.091,0.05v-1.118Zm7.783,10.625l-1.604,-0.642c-1.495,-0.598 -2.221,-2.028 -2.221,-4.369l-0.045,-0.506c0.53,-0.075 0.929,-0.531 0.929,-1.063v-1.9c0,-0.531 -0.399,-0.988 -0.886,-1.013v-1.59c0,-0.252 -0.205,-0.457 -0.457,-0.457h-3.957c-0.252,0 -0.458,0.205 -0.458,0.457l0.043,1.541c-0.529,0.074 -0.928,0.531 -0.928,1.062v1.899c0,0.531 0.399,0.988 0.885,1.012v0.558c0,2.341 -0.726,3.77 -2.221,4.369l-1.603,0.642c-1.055,0.422 -1.714,1.466 -1.639,2.597l0.572,13.432c0.059,0.897 0.807,1.599 1.702,1.599h11.251c0.894,0 1.641,-0.706 1.702,-1.609l0.571,-13.411c0.075,-1.138 -0.583,-2.186 -1.636,-2.608Z" transform="matrix(1,0,0,1,-218,-90)" fill-rule="evenodd" fill="#000" stroke="none"></path>
</svg>