<?xml version="1.0" encoding="utf-8"?>
<!-- Generator: Adobe Illustrator 23.0.1, SVG Export Plug-In . SVG Version: 6.00 Build 0)  -->
<svg version="1.1" id="Ebene_1" xmlns="http://www.w3.org/2000/svg" xmlns:xlink="http://www.w3.org/1999/xlink" x="0px" y="0px"
	 viewBox="0 0 30 30" style="enable-background:new 0 0 30 30;" xml:space="preserve">
<style type="text/css">
	.st0{fill-rule:evenodd;clip-rule:evenodd;}
</style>
<title>Fill 1</title>
<desc>Created with Sketch.</desc>
<g id="Page-1">
	<g id="Artboard" transform="translate(-218.000000, -90.000000)">
		<path id="Fill-1" class="st0" d="M240.2,106l-13.9,0l-0.1-1.3c-0.1-0.7,0.4-1.4,1.1-1.7l1.6-0.6c1.9-0.8,2.8-2.8,2.8-5.6v-0.5l3,0
			v0.5c0,2.8,0.9,4.8,2.8,5.6l1.6,0.6c0.7,0.3,1.1,1,1.1,1.7L240.2,106z M239.8,114.4l-13.2,0l-0.3-7.6l13.8-0.1L239.8,114.4z
			 M239.6,118.1c0,0.4-0.4,0.7-0.8,0.7h-11.3c-0.4,0-0.8-0.3-0.8-0.7l-0.1-2.8l13.1-0.1L239.6,118.1z M230.8,93.3
			c0-0.1,0.1-0.2,0.2-0.2h4.5c0.1,0,0.2,0.1,0.2,0.2v1.9c0,0.1-0.1,0.2-0.2,0.2H231c-0.1,0-0.2-0.1-0.2-0.2V93.3z M231.7,91.1l3,0
			l0,1.1l-3.1,0.1V91.1z M239.5,102.1l-1.6-0.6c-1.5-0.6-2.2-2.4-2.2-4.7l0-0.5c0.5-0.1,0.9-0.5,0.9-1.1v-1.9c0-0.5-0.4-1-0.9-1
			v-1.6c0-0.3-0.2-0.5-0.5-0.5h-4c-0.3,0-0.5,0.2-0.5,0.5l0,1.5c-0.5,0.1-0.9,0.5-0.9,1.1v1.9c0,0.5,0.4,1,0.9,1v0.6
			c0,2.3-0.7,4.1-2.2,4.7l-1.6,0.6c-1.1,0.4-1.7,1.5-1.6,2.6l0.6,13.4c0.1,0.9,0.8,1.6,1.7,1.6h11.3c0.9,0,1.6-0.7,1.7-1.6l0.6-13.4
			C241.2,103.6,240.5,102.6,239.5,102.1z"/>
	</g>
</g>
</svg>
