<svg id="Layer_1" data-name="Layer 1" xmlns="http://www.w3.org/2000/svg" viewBox="0 0 30 30"><title>Zeichenfläche 1</title><path d="M24.41,5h-.05a10.18,10.18,0,0,0-5.11,2.47,2.6,2.6,0,0,0-.94,1.77,1,1,0,0,0,.29.7c.6.6,2,.59,4.13.58H26c1.24,0,2.1-.08,2.56-.53a1.06,1.06,0,0,0,.32-.77C28.87,7.2,25.59,5.05,24.41,5ZM27.85,9.3c-.28.29-1.7.26-2.94.24H22.73c-1.35,0-3.19,0-3.42-.28A1.75,1.75,0,0,1,20,8.2,9.35,9.35,0,0,1,24.35,6h0c.81,0,3.49,1.86,3.49,3.24Z"/><path d="M24.59,6.65a.51.51,0,0,0-.69.16.49.49,0,0,0,.16.69A4.93,4.93,0,0,1,25.56,9a.49.49,0,0,0,.44.26.46.46,0,0,0,.23-.06.5.5,0,0,0,.21-.68A6.16,6.16,0,0,0,24.59,6.65Z"/><path d="M6.55,8.6c-1-.29-2.62.82-3.08,1.17s-2.34,1.87-2.34,3.34a1.17,1.17,0,0,0,.31.84c.46.45,1.27.45,2.9.44H7.8c1.87,0,3.07-.11,3.6-.63a.9.9,0,0,0,.29-.67C11.69,10.09,7.82,9,6.55,8.6Zm0,4.8H4.33a6.49,6.49,0,0,1-2.18-.15.26.26,0,0,1,0-.13c0-.64.8-1.68,1.94-2.54a3.73,3.73,0,0,1,2.2-1c3,.85,4.4,2,4.42,3.51C10.33,13.45,8,13.42,6.52,13.4Z"/><path d="M6.55,10a.5.5,0,0,0-.28,1,5.46,5.46,0,0,1,2.54,1.45.47.47,0,0,0,.42.24.49.49,0,0,0,.43-.75C9,10.72,6.79,10.07,6.55,10Z"/><path d="M12.5,16.27a.48.48,0,0,0-.68.17A6.77,6.77,0,0,0,11.14,18a.49.49,0,0,0,.35.61l.13,0a.5.5,0,0,0,.48-.37A6.27,6.27,0,0,1,12.67,17,.48.48,0,0,0,12.5,16.27Z"/><path d="M19.59,20.37c-.42.26-1.82,1.2-2.06,1.93a.5.5,0,0,0,.32.64A.39.39,0,0,0,18,23a.5.5,0,0,0,.48-.34,5.66,5.66,0,0,1,1.65-1.41.5.5,0,1,0-.54-.84Z"/><path d="M25.57,18.73c0-1.45-1.65-2.13-3.1-2.72-.61-.25-1.63-.66-1.69-.93a1,1,0,0,0-1.18-.64,7.22,7.22,0,0,0-3.36,2,8.47,8.47,0,0,0-3.07-2.18c-.81-.26-1.19.06-1.33.27a6.66,6.66,0,0,1-1.65,1.11C8.68,16.49,7,17.46,7,18.84a1.11,1.11,0,0,0,.31.83c.46.46,1.27.46,2.89.44h2.18l1.29,0A13.32,13.32,0,0,0,16.29,20h0a6.21,6.21,0,0,0,1.05.12c-1.34.9-2.76,2.05-2.76,3.52a1.07,1.07,0,0,0,.32.77C15.52,25,17,25,19,25h2.15l1.08,0a3.74,3.74,0,0,0,2.56-.56,1.13,1.13,0,0,0,.35-.84c0-1.13-1.1-2.47-2.34-3.46a3.87,3.87,0,0,0,2.43-.55A1.17,1.17,0,0,0,25.57,18.73Zm-13.21.39H10.17A6.29,6.29,0,0,1,8,19a.45.45,0,0,1,0-.12c0-.8,1.57-1.69,2.71-2.34a5.79,5.79,0,0,0,1.9-1.35,3.79,3.79,0,0,1,1.89,1c1.17.93,2,2,2,2.66C16.16,19.18,13.79,19.14,12.36,19.12Zm4.88.39a1,1,0,0,0,.16-.24A.78.78,0,0,1,17.24,19.51Zm-.43.27.06,0Zm7.33,3.81a.16.16,0,0,1-.05.13c-.31.3-1.63.28-2.92.25H19c-1.44,0-3.07,0-3.42-.37,0-1.21,1.85-2.4,3.08-3.18a10.56,10.56,0,0,0,1.05-.73c.08,0,.56,0,1.57.58C22.83,21.22,24.14,22.74,24.14,23.59Zm.39-4.73c-.31.31-1.64.29-2.92.26h-.34l-.2-.11c-.9-.42-1.57-.45-2-.1-.07.06-.18.13-.28.2-.46,0-.91,0-1.32,0a1,1,0,0,0,0-.24,3,3,0,0,0-.64-1.63h0a7,7,0,0,1,1-.85,4.16,4.16,0,0,1,2-.94c.25.69,1.18,1.07,2.26,1.51s2.48,1,2.48,1.8C24.57,18.82,24.55,18.85,24.53,18.86Z"/></svg>