<?xml version="1.0" encoding="UTF-8"?><svg version="1.1" viewBox="0 0 30 30" xmlns="http://www.w3.org/2000/svg" xmlns:xlink="http://www.w3.org/1999/xlink"><path d="M26.828,9.107c-1.702,-1.478 -4.098,-1.483 -6.505,-1.224c0.803,-1.168 2.777,-2.445 4.324,-2.92c0.231,-0.071 0.379,-0.298 0.35,-0.538c-0.029,-0.24 -0.226,-0.425 -0.468,-0.439c-0.484,-0.027 -0.928,-0.06 -1.338,-0.089c-1.94,-0.141 -3.257,-0.236 -4.34,0.55c-0.274,-0.9 -0.882,-1.549 -1.475,-2.181c-0.537,-0.572 -1.093,-1.165 -1.411,-1.965c-0.152,-0.381 -0.779,-0.381 -0.93,0c-0.318,0.8 -0.874,1.392 -1.411,1.965c-0.594,0.632 -1.202,1.281 -1.475,2.181c-1.083,-0.786 -2.401,-0.691 -4.34,-0.55c-0.41,0.029 -0.854,0.061 -1.338,0.089c-0.241,0.014 -0.439,0.199 -0.468,0.439c-0.029,0.24 0.119,0.467 0.35,0.538c1.549,0.475 3.525,1.755 4.326,2.924c-3.672,-0.371 -6.134,0.028 -7.507,1.22c-0.144,0.125 -0.205,0.321 -0.156,0.506c0.049,0.184 0.199,0.325 0.386,0.362c0.383,0.076 1.126,0.143 2.065,0.227c1.478,0.133 3.417,0.308 4.749,0.6c-0.599,0.447 -1.168,0.946 -1.669,1.542c-1.278,1.52 -2.112,3.403 -2.413,5.446v0.001c-0.09,0.611 -0.134,1.166 -0.134,1.694c0,0.337 0.017,0.67 0.045,1c0,0.002 0.002,0.003 0.002,0.004c0.181,2.102 0.922,4.076 2.147,5.704c1.198,1.593 2.777,2.75 4.568,3.344c0.001,0 0.001,0.001 0.002,0.001c0.893,0.297 1.814,0.447 2.736,0.447c0.835,0 1.686,-0.13 2.53,-0.387c0.002,-0.001 0.004,-0.003 0.006,-0.004c1.809,-0.553 3.415,-1.676 4.645,-3.25c0.002,-0.003 0.006,-0.004 0.008,-0.007c1.244,-1.594 2.019,-3.536 2.24,-5.618c0,0 0,0 0,-0.001c0.043,-0.404 0.071,-0.815 0.071,-1.233c0,-0.622 -0.056,-1.27 -0.166,-1.924c0,-0.002 -0.002,-0.003 -0.002,-0.005c-0.339,-2.021 -1.203,-3.872 -2.499,-5.356c-0.495,-0.568 -1.04,-1.066 -1.624,-1.492c1.24,-0.24 2.787,-0.392 3.997,-0.51c0.847,-0.083 1.516,-0.148 1.892,-0.223c0.187,-0.037 0.337,-0.178 0.386,-0.362c0.049,-0.185 -0.012,-0.381 -0.156,-0.506Zm-13.473,1.191l1.312,1.312l-3.043,3.043l-2.009,-2.009c1.054,-1.133 2.335,-1.937 3.74,-2.346Zm2.02,9.519l3.043,3.043l-3.043,3.043l-3.043,-3.043l3.043,-3.043Zm-3.75,2.335l-3.043,-3.043l3.042,-3.042l3.043,3.043l-3.042,3.042Zm4.457,-3.042l3.042,-3.042l3.043,3.043l-3.043,3.043l-3.042,-3.044Zm-0.707,-0.707l-3.043,-3.043l3.042,-3.042l3.043,3.043l-3.042,3.042Zm-0.852,-8.352c0.589,-0.078 1.16,-0.085 1.732,-0.028l-0.88,0.88l-0.852,-0.852Zm-5.55,3.365l1.945,1.944l-3.043,3.043l-0.712,-0.712c0.27,-1.579 0.89,-3.042 1.81,-4.275Zm-0.314,11.703c-0.873,-1.32 -1.42,-2.858 -1.595,-4.49l0.81,-0.812l3.043,3.043l-2.258,2.259Zm0.602,0.813l2.364,-2.364l3.042,3.042l-1.877,1.877c-1.35,-0.507 -2.559,-1.383 -3.529,-2.555Zm4.623,2.877l1.491,-1.491l1.53,1.53c-1.023,0.197 -2.03,0.178 -3.021,-0.039Zm4.136,-0.261l-1.938,-1.938l3.042,-3.042l2.495,2.495c-0.995,1.158 -2.228,2.01 -3.599,2.485Zm4.216,-3.284l-2.404,-2.404l3.042,-3.042l1.031,1.031c-0.206,1.612 -0.779,3.123 -1.669,4.415Zm1.764,-5.779v0.043l-0.418,-0.418l0.388,-0.388c0.02,0.258 0.03,0.513 0.03,0.763Zm-2.079,-6.214c0.936,1.206 1.581,2.646 1.881,4.204l-0.927,0.928l-3.043,-3.043l2.089,-2.089Zm-0.656,-0.758l-2.14,2.14l-3.042,-3.042l1.372,-1.372c1.423,0.374 2.728,1.153 3.81,2.274Zm3.343,-3.31c-1.577,0.154 -3.71,0.365 -5.102,0.764c-0.664,-0.343 -1.365,-0.602 -2.092,-0.766c-0.002,0 -0.003,-0.002 -0.005,-0.003c-1.307,-0.294 -2.655,-0.287 -4.026,0.057c-0.001,0 -0.002,0.001 -0.003,0.002c-0.724,0.182 -1.409,0.482 -2.066,0.84c-0.049,-0.04 -0.104,-0.072 -0.168,-0.091c-1.378,-0.424 -3.813,-0.642 -5.591,-0.801c-0.153,-0.014 -0.302,-0.027 -0.446,-0.04c1.42,-0.479 3.538,-0.542 6.327,-0.185c0.165,0.02 0.324,-0.038 0.433,-0.159c0.11,-0.121 0.154,-0.287 0.118,-0.446c-0.296,-1.324 -1.864,-2.652 -3.434,-3.529c1.828,-0.119 2.748,-0.074 3.554,0.948c0.133,0.168 0.356,0.234 0.557,0.163c0.201,-0.07 0.336,-0.259 0.336,-0.472c0,-1.091 0.598,-1.729 1.354,-2.535c0.381,-0.407 0.796,-0.849 1.146,-1.388c0.35,0.539 0.765,0.982 1.146,1.388c0.756,0.806 1.354,1.444 1.354,2.535c0,0.213 0.135,0.402 0.335,0.473c0.201,0.07 0.425,0.004 0.557,-0.163c0.807,-1.023 1.726,-1.068 3.554,-0.948c-1.57,0.877 -3.138,2.204 -3.434,3.529c-0.036,0.159 0.008,0.326 0.118,0.446c0.11,0.12 0.268,0.179 0.433,0.159c1.929,-0.247 3.904,-0.418 5.438,0.183c-0.127,0.013 -0.258,0.026 -0.393,0.039Z" fill="#000"></path></svg>