<svg id="Layer_1" data-name="Layer 1" xmlns="http://www.w3.org/2000/svg" viewBox="0 0 30 30"><title>Zeichenfläche 1</title><path d="M28.18,15.46l1-.46-1-.46a18.19,18.19,0,0,0-6.69-1.33,17.6,17.6,0,0,0-2.73.23,17,17,0,0,0,2.1-1.76A18.07,18.07,0,0,0,24.65,6l.4-1L24,5.35a18.07,18.07,0,0,0-5.68,3.79,17,17,0,0,0-1.76,2.1,17.6,17.6,0,0,0,.23-2.73,18.19,18.19,0,0,0-1.33-6.69L15,.79l-.46,1a18.19,18.19,0,0,0-1.33,6.69,17.6,17.6,0,0,0,.23,2.73,17,17,0,0,0-1.76-2.1A18.07,18.07,0,0,0,6,5.35L5,5l.4,1a18.07,18.07,0,0,0,3.79,5.68,17,17,0,0,0,2.1,1.76,17.6,17.6,0,0,0-2.73-.23,18.19,18.19,0,0,0-6.69,1.33L.79,15l1,.46a18.19,18.19,0,0,0,6.69,1.33,17.6,17.6,0,0,0,2.73-.23,17,17,0,0,0-2.1,1.76A18.07,18.07,0,0,0,5.35,24L5,25.05l1-.4a18.07,18.07,0,0,0,5.68-3.79,17,17,0,0,0,1.76-2.1,17.6,17.6,0,0,0-.23,2.73,18.19,18.19,0,0,0,1.33,6.69l.46,1,.46-1a18.19,18.19,0,0,0,1.33-6.69,17.6,17.6,0,0,0-.23-2.73,17,17,0,0,0,1.76,2.1A18.07,18.07,0,0,0,24,24.65l1.05.4L24.65,24a18.07,18.07,0,0,0-3.79-5.68,17,17,0,0,0-2.1-1.76,17.6,17.6,0,0,0,2.73.23A18.19,18.19,0,0,0,28.18,15.46ZM26.5,15a17.19,17.19,0,0,1-5,.79,17.25,17.25,0,0,1-5-.79,17.25,17.25,0,0,1,5-.79A17.25,17.25,0,0,1,26.5,15ZM19,9.85a17.37,17.37,0,0,1,4.1-3,17.37,17.37,0,0,1-3,4.1,17.37,17.37,0,0,1-4.1,3A17.37,17.37,0,0,1,19,9.85ZM15,3.5a17.19,17.19,0,0,1,.79,5,17.25,17.25,0,0,1-.79,5,17.19,17.19,0,0,1-.79-5A17.25,17.25,0,0,1,15,3.5ZM6.87,6.87a17.37,17.37,0,0,1,4.1,3A17.37,17.37,0,0,1,14,14a17.37,17.37,0,0,1-4.1-3A17.37,17.37,0,0,1,6.87,6.87ZM3.5,15a17.19,17.19,0,0,1,5-.79,17.25,17.25,0,0,1,5,.79,17.19,17.19,0,0,1-5,.79A17.25,17.25,0,0,1,3.5,15ZM11,20.15a17.37,17.37,0,0,1-4.1,3,17.37,17.37,0,0,1,3-4.1,17.37,17.37,0,0,1,4.1-3A17.37,17.37,0,0,1,11,20.15Zm4,6.35a17.19,17.19,0,0,1-.79-5,17.25,17.25,0,0,1,.79-5,17.25,17.25,0,0,1,.79,5A17.25,17.25,0,0,1,15,26.5Zm8.13-3.37a17.37,17.37,0,0,1-4.1-3,17.37,17.37,0,0,1-3-4.1,17.37,17.37,0,0,1,4.1,3A17.37,17.37,0,0,1,23.13,23.13Z"/></svg>