<?xml version="1.0" encoding="UTF-8"?><svg version="1.1" viewBox="0 0 30 30" xmlns="http://www.w3.org/2000/svg" xmlns:xlink="http://www.w3.org/1999/xlink"><path d="M20.5,7.5c-0.674,0 -1.358,0.095 -2.025,0.223c2.015,-1.364 3.525,-3.738 3.525,-6.723c0,-0.276 -0.224,-0.5 -0.5,-0.5c-2.72,0 -5.585,1.814 -6.842,4.744c-0.366,-1.594 -0.972,-2.826 -1.737,-4.014c-0.148,-0.232 -0.459,-0.298 -0.691,-0.15c-0.233,0.149 -0.299,0.459 -0.15,0.691c1.078,1.677 1.819,3.455 1.936,6.411c-0.003,0.092 -0.013,0.18 -0.014,0.273c-0.419,-0.067 -0.843,-0.204 -1.313,-0.36c-0.845,-0.279 -1.803,-0.595 -3.061,-0.595c-4.088,0 -6.628,3.449 -6.628,9c0,5.301 3.506,13 9,13c0.967,0 1.386,-0.175 1.722,-0.315c0.238,-0.1 0.41,-0.172 0.76,-0.186c0.4,0.015 0.629,0.094 0.921,0.195c0.415,0.143 0.885,0.306 1.839,0.306c5.164,0 9.758,-7.27 9.758,-13c3.55271e-15,-5.636 -2.43,-9 -6.5,-9Zm0.481,-5.973c-0.26,3.616 -3.168,6.161 -5.962,6.446c0.26,-3.616 3.168,-6.161 5.962,-6.446Zm-3.738,26.973c-0.786,0 -1.139,-0.122 -1.513,-0.251c-0.327,-0.113 -0.664,-0.229 -1.248,-0.249c-0.567,0.021 -0.875,0.149 -1.145,0.262c-0.293,0.122 -0.57,0.238 -1.336,0.238c-4.809,0 -8,-7.223 -8,-12c0,-5.009 2.104,-8 5.628,-8c1.097,0 1.936,0.277 2.747,0.545c0.708,0.234 1.376,0.455 2.125,0.455h0.04c0.727,0 1.614,-0.215 2.553,-0.444c1.073,-0.261 2.289,-0.556 3.407,-0.556c3.444,0 5.5,2.991 5.5,8c0,5.24 -4.247,12 -8.758,12Zm-7.743,-19c-2.923,0 -4.5,3.864 -4.5,7.5c0,0.276 0.224,0.5 0.5,0.5c0.276,0 0.5,-0.224 0.5,-0.5c0,-3.126 1.338,-6.5 3.5,-6.5c0.276,0 0.5,-0.224 0.5,-0.5c0,-0.276 -0.224,-0.5 -0.5,-0.5Z" fill="#000"></path></svg>