<?xml version="1.0" encoding="UTF-8"?><svg version="1.1" viewBox="0 0 30 30" xmlns="http://www.w3.org/2000/svg" xmlns:xlink="http://www.w3.org/1999/xlink"><g fill="#000"><path d="M18.5,29.5c-0.5,0 -0.9,-0.2 -1.3,-0.4c-0.6,-0.3 -1.2,-0.6 -2.2,-0.6c-1,0 -1.6,0.3 -2.2,0.6c-0.4,0.2 -0.8,0.4 -1.3,0.4c-1,0 -3.2,-0.5 -4.9,-2.1l-0.1,-0.1c-1.6,-1.7 -5.5,-5.6 -5.5,-13.3c0,-4.9 4.4,-7.5 7.5,-7.5c4.1,0 6.2,1.2 7,1.8c0.8,-0.6 2.8,-1.8 6.5,-1.8c2.8,0 7,2.4 7,7.5c0,8 -3.4,11.2 -5.2,12.9c-0.2,0.2 -0.3,0.3 -0.5,0.5c-1.6,1.6 -3.8,2.1 -4.8,2.1Zm-3.5,-2c1.2,0 2.1,0.4 2.6,0.7c0.3,0.2 0.6,0.3 0.9,0.3c0.8,0 2.7,-0.4 4.1,-1.9c0.2,-0.2 0.3,-0.3 0.5,-0.5c1.9,-1.7 4.9,-4.5 4.9,-12.1c0,-4.4 -3.6,-6.5 -6,-6.5c-4.3,0 -6.1,1.8 -6.1,1.8c-0.1,0.1 -0.2,0.2 -0.4,0.2v0c-0.1,0 -0.3,-0.1 -0.4,-0.2c0,0 -1.9,-1.8 -6.6,-1.8c-2.3,-8.88178e-16 -6.5,1.9 -6.5,6.5c0,7.3 3.5,10.8 5.2,12.5l0.1,0.1c1.5,1.5 3.4,1.9 4.1,1.9c0.2,0 0.5,-0.1 0.9,-0.3c0.6,-0.3 1.5,-0.7 2.7,-0.7Z"></path><path d="M8.3,25.9c-0.1,0 -0.3,0 -0.4,-0.1c-1.6,-1.6 -4.9,-4.9 -4.9,-11.8c0,-0.3 0.2,-0.5 0.5,-0.5c0.3,0 0.5,0.2 0.5,0.5c0,6.5 3.1,9.6 4.6,11.1c0.2,0.2 0.2,0.5 0,0.7c-0.1,0.1 -0.2,0.1 -0.3,0.1Z"></path><path d="M15.5,9.5c-0.3,0 -0.5,-0.2 -0.5,-0.5c0,-5.5 2.8,-8.5 5.5,-8.5c0.3,0 0.5,0.2 0.5,0.5c0,0.3 -0.2,0.5 -0.5,0.5c-2.2,0 -4.5,2.6 -4.5,7.5c0,0.3 -0.2,0.5 -0.5,0.5Z"></path></g></svg>