<?xml version="1.0" encoding="UTF-8"?><svg version="1.1" viewBox="0 0 30 30" xmlns="http://www.w3.org/2000/svg" xmlns:xlink="http://www.w3.org/1999/xlink"><path d="M22.96,9.305c-0.067,-0.158 -0.21,-0.27 -0.379,-0.298c-0.12,-0.018 -0.229,0.018 -0.328,0.076c-0.906,-2.583 -3.71,-6.668 -3.843,-6.859c-0.099,-0.146 -0.267,-0.225 -0.447,-0.214c-0.177,0.012 -0.334,0.118 -0.412,0.277c-0.005,0.01 -0.049,0.098 -0.115,0.229c-1.005,-1.394 -2.051,-2.342 -2.102,-2.388c-0.189,-0.171 -0.479,-0.171 -0.668,0c-0.051,0.045 -1.093,0.99 -2.096,2.379c-0.078,-0.146 -0.127,-0.238 -0.13,-0.243c-0.083,-0.154 -0.239,-0.253 -0.413,-0.262c-0.175,-0.01 -0.34,0.072 -0.438,0.215c-0.133,0.192 -2.94,4.28 -3.844,6.863c-0.098,-0.058 -0.206,-0.095 -0.325,-0.073c-0.169,0.027 -0.313,0.14 -0.38,0.298c-0.103,0.243 -2.54,5.993 -2.54,8.848c0,3.17 2.519,5.848 5.5,5.848c1.115,0 2.013,-0.098 2.768,-0.578c0,0 0.001,-0.001 0.001,-0.001c0.234,0.127 0.479,0.23 0.731,0.317v4.762c0,0.967 0.532,1.5 1.5,1.5c0.968,0 1.5,-0.533 1.5,-1.5v-4.736c0.269,-0.084 0.53,-0.192 0.781,-0.318c0.745,0.455 1.627,0.554 2.719,0.554c2.981,0 5.5,-2.678 5.5,-5.848c0,-2.855 -2.436,-8.605 -2.54,-8.848Zm-3.524,9.486c-0.027,0.184 -0.059,0.367 -0.103,0.548c-0.522,2.049 -2.315,3.661 -4.333,3.661c-2.541,0 -4.445,-2.648 -4.495,-5.055c0.025,-0.921 0.697,-2.309 1.428,-3.679c0,0 0,0 0,0c0,0 0,-0.001 0,-0.001c0.001,-0.001 0.001,-0.002 0.002,-0.003c0,0 0,-0.001 0,-0.001c0.013,-0.025 0.024,-0.051 0.033,-0.078c1.047,-1.991 2.373,-3.915 3.027,-4.828c1.535,2.19 4.439,6.733 4.5,8.731c-0.002,0.116 -0.013,0.234 -0.023,0.351c-0.008,0.119 -0.02,0.237 -0.036,0.354Zm2.02,-8.929l-2.858,3.267c-1.179,-2.13 -2.543,-4.037 -3.023,-4.692c0.017,-0.039 0.035,-0.078 0.052,-0.116c0.723,-1.142 1.834,-3.465 2.452,-4.8c0.939,1.427 2.928,4.584 3.377,6.341Zm-6.456,-8.668c0.433,0.435 1.217,1.275 1.908,2.313c-0.553,0.924 -1.283,2.415 -1.897,3.751c-0.598,-1.293 -1.3,-2.694 -1.842,-3.615c-0.025,-0.048 -0.049,-0.095 -0.073,-0.141c0.69,-1.035 1.471,-1.874 1.904,-2.308Zm-3.049,2.279c0.028,0.054 0.063,0.12 0.094,0.178c0.013,0.04 0.012,0.083 0.035,0.119c0.06,0.094 0.127,0.206 0.194,0.318c0.619,1.186 1.512,2.936 2.15,4.349c-0.488,0.655 -1.89,2.586 -3.081,4.651l-2.8,-3.225c0.454,-1.776 2.483,-4.986 3.408,-6.39Zm-1.951,19.529c-2.397,0 -4.5,-2.265 -4.5,-4.848c0,-2.082 1.501,-6.071 2.158,-7.718l3.168,3.589c-0.756,1.428 -1.326,2.831 -1.326,3.824c0,0.036 0.005,0.072 0.005,0.108c0,0.014 -0.005,0.03 -0.005,0.044c0,1.579 0.697,3.65 2.005,4.875c-0.421,0.1 -0.915,0.126 -1.505,0.126Zm5.5,5.499c0,0.416 -0.084,0.5 -0.5,0.5c-0.416,0 -0.5,-0.084 -0.5,-0.5v-4.532c0.165,0.018 0.331,0.032 0.5,0.032c0.168,0 0.335,-0.011 0.5,-0.028v4.528Zm4.5,-5.5c-0.59,0 -1.084,-0.026 -1.505,-0.126c0.664,-0.622 1.169,-1.462 1.507,-2.345c0.316,-0.731 0.498,-1.535 0.498,-2.376c0,-0.015 -0.004,-0.034 -0.005,-0.05c0.001,-0.034 0.006,-0.071 0.006,-0.104c0,-1.025 -0.552,-2.317 -1.396,-3.927l0.023,-0.027l3.212,-3.614c0.656,1.645 2.159,5.638 2.159,7.721c0.001,2.583 -2.102,4.848 -4.499,4.848Z" fill="#000"></path></svg>