<?xml version="1.0" encoding="UTF-8"?><svg version="1.1" viewBox="0 0 30 30" xmlns="http://www.w3.org/2000/svg" xmlns:xlink="http://www.w3.org/1999/xlink"><path d="M19.237,0.633c-0.559,-0.818 -1.915,-0.818 -2.476,0c-0.39,0.571 -1.078,1.607 -1.759,2.754c-0.565,-0.95 -1.181,-1.901 -1.764,-2.753c-0.559,-0.818 -1.915,-0.818 -2.476,0c-1.716,2.513 -3.762,5.871 -3.762,7.6c0,2.072 1.216,3.911 3,4.604v15.142c0,1.103 0.897,2 2,2c1.103,0 2,-0.897 2.001,-2v-15.142c0.365,-0.142 0.699,-0.342 1.012,-0.573c0.315,0.233 0.642,0.436 0.99,0.573l-0.003,15.142c0,1.103 0.897,2 2,2c1.103,0 2,-0.897 2,-2v-15l0.001,-0.143c1.783,-0.694 2.999,-2.532 2.999,-4.604c0,-1.728 -2.046,-5.087 -3.763,-7.6Zm-3.59,9.27c-0.229,0.52 -0.562,0.987 -0.979,1.357c-0.001,0.001 -0.001,0.002 -0.002,0.003c-0.378,0.334 -0.815,0.595 -1.306,0.738c-0.212,0.062 -0.358,0.255 -0.36,0.476v15.503c0,0.551 -0.448,1 -1,1c-0.552,0 -1,-0.449 -1,-1v-15l0.001,-0.212l-0.001,-0.291c-0.002,-0.221 -0.148,-0.414 -0.36,-0.476c-1.555,-0.452 -2.64,-2 -2.64,-3.767c0,-1.117 1.341,-3.747 3.587,-7.036c0.096,-0.138 0.246,-0.218 0.413,-0.218c0.167,0 0.317,0.08 0.412,0.217c0.858,1.255 1.581,2.413 2.15,3.429c0.001,0.002 0.001,0.005 0.002,0.007c0.075,0.133 0.136,0.25 0.203,0.374c0.075,0.139 0.154,0.281 0.223,0.414c0.055,0.107 0.101,0.202 0.151,0.302c0.092,0.185 0.179,0.365 0.256,0.536c0.03,0.065 0.06,0.132 0.087,0.193c0.1,0.229 0.189,0.447 0.26,0.647c0.01,0.027 0.016,0.05 0.025,0.077c0.068,0.198 0.123,0.381 0.161,0.546c0.002,0.01 0.006,0.022 0.008,0.031c0.041,0.181 0.062,0.343 0.062,0.48c0,0 0,0 0,0v0c0,0.271 -0.032,0.54 -0.085,0.803c-0.008,0.043 -0.02,0.085 -0.03,0.128c-0.059,0.254 -0.134,0.503 -0.238,0.739c0,0 0,0 0,0Zm3.713,2.097c-0.217,0.063 -0.366,0.265 -0.36,0.493c0.004,0.129 0.003,0.184 0.002,0.264l-0.002,15.223c0,0.551 -0.448,1 -1,1c-0.552,0 -1,-0.449 -1,-1v-15l0.004,-0.19c0.004,-0.094 0.007,-0.161 -0.005,-0.341c-0.012,-0.211 -0.157,-0.39 -0.359,-0.449c-0.305,-0.089 -0.599,-0.227 -0.879,-0.412c0.19,-0.217 0.355,-0.457 0.505,-0.708c0.017,-0.028 0.032,-0.058 0.048,-0.087c0.12,-0.21 0.225,-0.429 0.315,-0.657c0.025,-0.064 0.05,-0.128 0.073,-0.193c0.073,-0.209 0.13,-0.424 0.176,-0.644c0.014,-0.067 0.033,-0.132 0.044,-0.199c0.048,-0.283 0.078,-0.572 0.078,-0.867c0,-0.083 -0.026,-0.186 -0.035,-0.276c-0.014,-0.143 -0.019,-0.278 -0.056,-0.442c-0.06,-0.267 -0.15,-0.555 -0.261,-0.859c-0.009,-0.024 -0.023,-0.053 -0.032,-0.077c-0.116,-0.309 -0.256,-0.634 -0.415,-0.971c0,-0.001 -0.001,-0.002 -0.001,-0.003c-0.186,-0.394 -0.398,-0.802 -0.626,-1.218c0.753,-1.312 1.575,-2.549 2.013,-3.191c0.191,-0.276 0.636,-0.275 0.825,0c2.247,3.29 3.588,5.921 3.588,7.037c0,1.767 -1.085,3.316 -2.64,3.767Zm-6.86,-8.02c-0.827,0 -1.5,0.673 -1.5,1.5c0,0.276 0.224,0.5 0.5,0.5c0.276,0 0.5,-0.224 0.5,-0.5c0,-0.276 0.225,-0.5 0.5,-0.5c0.275,0 0.5,0.224 0.5,0.5c0,0.276 0.224,0.5 0.5,0.5c0.276,0 0.5,-0.224 0.5,-0.5c0,-0.827 -0.673,-1.5 -1.5,-1.5Zm-1,5c-0.827,0 -1.5,0.673 -1.5,1.5c0,0.276 0.224,0.5 0.5,0.5c0.276,0 0.5,-0.224 0.5,-0.5c0,-0.276 0.225,-0.5 0.5,-0.5c0.275,0 0.5,0.224 0.5,0.5c0,0.276 0.224,0.5 0.5,0.5c0.276,0 0.5,-0.224 0.5,-0.5c0,-0.827 -0.673,-1.5 -1.5,-1.5Zm7,-5c-0.827,0 -1.5,0.673 -1.5,1.5c0,0.276 0.224,0.5 0.5,0.5c0.276,0 0.5,-0.224 0.5,-0.5c0,-0.276 0.225,-0.5 0.5,-0.5c0.275,0 0.5,0.224 0.5,0.5c0,0.276 0.224,0.5 0.5,0.5c0.276,0 0.5,-0.224 0.5,-0.5c0,-0.827 -0.673,-1.5 -1.5,-1.5Zm-1,5c-0.276,0 -0.5,0.224 -0.5,0.5c0,0.276 0.224,0.5 0.5,0.5c0.275,0 0.5,0.224 0.5,0.5c0,0.276 0.224,0.5 0.5,0.5c0.276,0 0.5,-0.224 0.5,-0.5c0,-0.827 -0.673,-1.5 -1.5,-1.5Z" fill="#000"></path></svg>