<?xml version="1.0" encoding="UTF-8"?>
<svg xmlns:xlink="http://www.w3.org/1999/xlink" version="1.1" viewBox="0 0 30 30"
    xmlns="http://www.w3.org/2000/svg">
    <path
        d="M15,14c-2.313,0 -4.5,2.916 -4.5,6c0,3.248 2.318,5 4.5,5c2.182,0 4.5,-1.752 4.5,-5c0,-3.083 -2.187,-6 -4.5,-6Zm0,10c-1.696,0 -3.5,-1.402 -3.5,-4c0,-2.523 1.733,-5 3.5,-5c1.767,0 3.5,2.477 3.5,5c0,2.599 -1.804,4 -3.5,4Zm8.353,-10.693c-0.556,-1.131 -1.131,-2.3 -1.64,-3.541c-0.486,-1.183 -0.793,-2.404 -1.091,-3.586c-0.801,-3.178 -1.557,-6.18 -5.622,-6.18c-4.023,0 -4.795,3.013 -5.612,6.202c-0.302,1.179 -0.614,2.397 -1.1,3.563c-0.512,1.231 -1.078,2.376 -1.625,3.484c-1.16,2.35 -2.163,4.381 -2.163,6.251c0,5.791 4.71,10.5 10.5,10.5c5.79,0 10.5,-4.71 10.5,-10.5c0,-1.827 -0.995,-3.85 -2.147,-6.193Zm-8.354,15.693c-5.238,0 -9.5,-4.262 -9.5,-9.5c0,-1.637 0.955,-3.57 2.06,-5.809c0.554,-1.122 1.127,-2.282 1.652,-3.542c0.513,-1.233 0.834,-2.487 1.145,-3.699c0.811,-3.164 1.397,-5.45 4.644,-5.45c3.286,0 3.859,2.275 4.651,5.424c0.306,1.216 0.622,2.473 1.135,3.722c0.522,1.272 1.105,2.457 1.668,3.602c1.098,2.231 2.045,4.158 2.045,5.752c-3.55271e-15,5.239 -4.262,9.5 -9.5,9.5Z"
        fill="#000"></path>
</svg>