<?xml version="1.0" encoding="UTF-8"?>
<svg viewBox="0 0 30 30" version="1.1" xmlns="http://www.w3.org/2000/svg" xmlns:xlink="http://www.w3.org/1999/xlink">
    <g id="Page-1" stroke="none" stroke-width="1" fill="none" fill-rule="evenodd">
        <g id="Outlines_black-Copy" transform="translate(-30.000000, -114.000000)">
            <g id="Group-3" transform="translate(3.000000, 114.000000)" fill="#000000" fill-rule="nonzero">
                <path d="M42.5063415,25.8292683 C47.6594003,25.8292683 50.9121951,23.6432503 50.9121951,19.6712195 C50.9121951,17.1614301 49.5914304,15.5308563 47.4006965,14.8948368 C47.1505923,14.8222259 46.9785366,14.5931142 46.9785366,14.3326829 L46.9785366,14.1921951 C46.9785366,13.9528363 47.124264,13.7375922 47.346503,13.6486966 C48.7746217,13.0774491 49.8585366,11.1378119 49.8585366,9.27512195 C49.8585366,5.66336854 47.1474207,4.17073171 41.8039024,4.17073171 L34.1707317,4.17073171 L34.1707317,25.8292683 L42.5063415,25.8292683 Z M52.0829268,19.6712195 C52.0829268,24.4109433 48.2304105,27 42.5063415,27 L33.5853659,27 C33.2620772,27 33,26.7379228 33,26.4146341 L33,3.58536585 C33,3.26207722 33.2620772,3 33.5853659,3 L41.8039024,3 C47.7080099,3 51.0292683,4.82855801 51.0292683,9.27512195 C51.0292683,11.160137 50.1389812,13.0984667 48.7697204,14.1624321 C50.831499,15.1345634 52.0829268,17.0403098 52.0829268,19.6712195 Z M39.6263415,13.0917073 C39.3030528,13.0917073 39.0409756,12.8296301 39.0409756,12.5063415 L39.0409756,8.22146341 C39.0409756,7.89817478 39.3030528,7.63609756 39.6263415,7.63609756 L41.6634146,7.63609756 C43.950459,7.63609756 45.1287805,8.4216452 45.1287805,10.1882927 C45.1287805,12.00678 43.8551702,13.0917073 41.6634146,13.0917073 L39.6263415,13.0917073 Z M41.6634146,11.9209756 C43.2465053,11.9209756 43.9580488,11.314846 43.9580488,10.1882927 C43.9580488,9.19201334 43.3802727,8.80682927 41.6634146,8.80682927 L40.2117073,8.80682927 L40.2117073,11.9209756 L41.6634146,11.9209756 Z M39.6263415,22.3639024 C39.3030528,22.3639024 39.0409756,22.1018252 39.0409756,21.7785366 L39.0409756,16.9317073 C39.0409756,16.6084187 39.3030528,16.3463415 39.6263415,16.3463415 L42.084878,16.3463415 C44.8214249,16.3463415 46.182439,17.2124413 46.182439,19.2497561 C46.182439,21.3192174 44.7459971,22.3639024 42.084878,22.3639024 L39.6263415,22.3639024 Z M42.084878,21.1931707 C44.1652224,21.1931707 45.0117073,20.5775453 45.0117073,19.2497561 C45.0117073,17.9983791 44.2553695,17.5170732 42.084878,17.5170732 L40.2117073,17.5170732 L40.2117073,21.1931707 L42.084878,21.1931707 Z" id="B-Copy-2"></path>
            </g>
            <g id="Slices" transform="translate(0.000000, 114.000000)"></g>
        </g>
    </g>
</svg>