<svg xmlns="http://www.w3.org/2000/svg" viewBox="0 0 30 30"><path d="M28.76 7.814l-.24-.29c-.603-.732-.956-1.626-1.05-2.554.866-.146 1.53-.895 1.532-1.802A3.17 3.17 0 0 0 25.835 0H15.168a3.17 3.17 0 0 0-3.167 3.167 1.83 1.83 0 0 0 1.53 1.802 4.77 4.77 0 0 1-1.049 2.553l-.24.29c-.8.972-1.24 2.194-1.24 3.44V27c0 1.654 1.378 3 3.07 3H26.93c1.693 0 3.07-1.346 3.07-3V11.255a5.43 5.43 0 0 0-1.241-3.441zM13 3.167A2.17 2.17 0 0 1 15.167 1h10.665a2.17 2.17 0 0 1 2.167 2.167c0 .46-.374.833-.833.833H13.833c-.46 0-.833-.374-.833-.833zM29 27c0 1.103-.93 2-2.07 2H14.07C12.93 29 12 28.103 12 27V11.255c0-1.015.36-2.012 1.013-2.806l.24-.292A5.79 5.79 0 0 0 14.549 5H26.45c.102 1.148.553 2.254 1.296 3.157l.24.29C28.64 9.242 29 10.24 29 11.254V27zm-2.5-14h-12a.5.5 0 0 0-.5.5v8a.5.5 0 0 0 .5.5h12a.5.5 0 0 0 .5-.5v-8a.5.5 0 0 0-.5-.5zm-.5 8H15v-7h11v7zM5 2.5c-2.89 0-5 5.15-5 7.833 0 2.144 1.27 3.985 3.074 4.766L2.5 27.652C2.5 28.947 3.622 30 5 30s2.5-1.053 2.5-2.37L6.925 15.1C8.73 14.318 10 12.477 10 10.333 10 7.652 7.89 2.5 5 2.5zM5 29c-.827 0-1.5-.605-1.5-1.325l.562-12.272c.305.06.617.098.94.098s.634-.038.938-.098l.56 12.25C6.5 28.395 5.826 29 5 29zM5 14.5c-2.206 0-4-1.87-4-4.167C1 7.824 2.977 3.5 5 3.5s4 4.324 4 6.833C9 12.63 7.206 14.5 5 14.5z"/></svg>