<svg xmlns="http://www.w3.org/2000/svg" viewBox="0 0 30 30"><path d="M9 17l4 3.9a1.09 1.09 0 0 1 0 1.5l-1.2 1.3a1.09 1.09 0 0 1-1.5 0l-4-3.9a1.09 1.09 0 0 1 0-1.5L7.5 17c.4-.4 1-.4 1.5 0zm1.9 5.9l1.3-1.3-4-4h-.1L6.9 19l4 3.9z"/><path d="M20.9.6l8.2 8.1a1.09 1.09 0 0 1 0 1.5l-11.8 12-4.5-.2-5-5-.3-4.5L19.4.6c.4-.5 1.1-.5 1.5 0zm-4 20.6L28.5 9.5l-8.2-8.2h-.1L8.6 13l.2 3.6 4.5 4.4 3.6.2zm2.2-4.7c.2.2.2.5 0 .7l-2.5 2.5c-.2.2-.6.4-.9.3l-1.4-.2c-.3 0-.5-.3-.4-.6 0-.3.3-.5.6-.4l1.4.2 2.6-2.6c.1-.1.4-.1.6.1z"/><circle cx="5.1" cy="22.7" r=".6"/><circle cx="8.2" cy="24.4" r=".6"/><circle cx="5.4" cy="25.9" r=".6"/><circle cx="5" cy="28.3" r=".6"/><circle cx="2" cy="25.1" r=".6"/><circle cx="1.1" cy="28.9" r=".6"/><circle cx="8.2" cy="28" r=".6"/></svg>