<?xml version="1.0" encoding="utf-8"?>
<!-- Generator: Adobe Illustrator 23.0.1, SVG Export Plug-In . SVG Version: 6.00 Build 0)  -->
<svg version="1.1" id="Layer_1" xmlns="http://www.w3.org/2000/svg" xmlns:xlink="http://www.w3.org/1999/xlink" x="0px" y="0px"
	 viewBox="0 0 30 30" style="enable-background:new 0 0 30 30;" xml:space="preserve">
<style type="text/css">
	.st0{fill:none;stroke:#000000;stroke-miterlimit:10;}
</style>
<path d="M19.4,28.2l-6.7,1.2c-0.6,0.1-1.1-0.3-1.2-0.9L10,25c-0.3-0.7-0.3-1.4-0.2-2.1l0.7-3.6c0.1-0.6,0-1.3-0.3-1.8l-2-3.9
	c-0.4-0.8-0.5-1.6-0.4-2.5l0.6-3.4c0.1-0.6,0-1.2-0.2-1.7l-1.3-3C6.8,2.3,7.2,1.7,7.8,1.6l6.7-1.2c0.6-0.1,1.1,0.3,1.2,0.8L16.9,4
	c0.3,0.7,0.4,1.5,0.3,2.3l-0.6,3.6c-0.1,0.6,0,1.2,0.3,1.8l2.1,4c0.4,0.8,0.5,1.6,0.4,2.5l-0.7,3.5c-0.1,0.5,0,1.1,0.2,1.6l1.5,3.7
	C20.3,27.5,19.9,28.1,19.4,28.2z M7.9,2.7l1.3,2.9c0.3,0.7,0.4,1.5,0.3,2.3l-0.6,3.4c-0.1,0.6,0,1.3,0.3,1.8l2,3.9
	c0.4,0.8,0.5,1.6,0.4,2.5L10.8,23c-0.1,0.5,0,1.1,0.2,1.6l1.5,3.7c0,0.1,0.1,0.1,0.1,0.1l6.7-1.2c0,0,0,0,0-0.1l-1.4-3.5
	c-0.3-0.7-0.4-1.4-0.2-2.2l0.7-3.5c0.1-0.6,0-1.3-0.3-1.8l-2.1-4c-0.4-0.7-0.5-1.6-0.4-2.4L16.2,6c0.1-0.6,0-1.2-0.2-1.7l-1.3-2.8
	c0-0.1-0.1-0.1-0.1-0.1L7.9,2.7C7.9,2.6,7.9,2.6,7.9,2.7z"/>
<path class="st0" d="M16,28.3c-0.3,0.1-0.6-0.2-0.7-0.5l-1.4-3.6c-0.2-0.6-0.3-1.2-0.2-1.8l0.7-3.6c0.1-0.7,0-1.5-0.3-2.1l-2-3.9
	c-0.3-0.7-0.5-1.4-0.3-2.2l0.6-3.4c0.1-0.7,0-1.3-0.2-2l-1.3-2.9c-0.1-0.3,0.1-0.7,0.5-0.7"/>
<path class="st0" d="M17.6,28c-0.3,0.1-0.6-0.2-0.7-0.5l-1.4-3.6c-0.2-0.6-0.3-1.2-0.2-1.8l0.7-3.6c0.1-0.7,0-1.5-0.3-2.1l-2-3.9
	c-0.3-0.7-0.5-1.4-0.3-2.2L14,6.9c0.1-0.7,0-1.3-0.2-2L12.5,2c-0.1-0.3,0.1-0.7,0.5-0.7"/>
</svg>
