<?xml version="1.0" encoding="UTF-8"?><svg version="1.1" viewBox="0 0 30 30" xmlns="http://www.w3.org/2000/svg" xmlns:xlink="http://www.w3.org/1999/xlink"><g fill="#000"><path d="M4.96,30.004c-1.475,0 -2.678,-0.463 -3.593,-1.388c-2.126,-2.148 -1.745,-5.99 1.074,-10.818c4.449,-7.62 14.585,-16.82 21.492,-17.726c1.977,-0.26 3.558,0.179 4.693,1.305v0c1.379,1.368 1.725,3.385 1.028,5.995c-2.153,8.066 -14.234,20.147 -22.287,22.286c-0.868,0.231 -1.672,0.346 -2.407,0.346Zm20.025,-29.004c-0.293,0 -0.601,0.021 -0.922,0.063c-6.522,0.856 -16.514,9.97 -20.758,17.239c-1.488,2.549 -3.626,7.187 -1.227,9.611c1.1,1.111 2.792,1.372 5.032,0.778c7.797,-2.071 19.494,-13.768 21.578,-21.577c0.598,-2.239 0.34,-3.93 -0.766,-5.027c-0.729,-0.723 -1.714,-1.087 -2.937,-1.087Z"></path><path d="M10.573,19.92c-0.274,0 -0.498,-0.222 -0.5,-0.496c-0.011,-1.443 -1.664,-2.662 -3.609,-2.662c-1.297,0 -2.502,0.581 -3.144,1.516c-0.155,0.228 -0.466,0.286 -0.695,0.129c-0.228,-0.156 -0.285,-0.468 -0.129,-0.695c0.826,-1.202 2.346,-1.949 3.968,-1.949c2.526,0 4.594,1.64 4.609,3.654c0.002,0.276 -0.22,0.502 -0.496,0.504c-0.001,-0.001 -0.003,-0.001 -0.004,-0.001Z"></path><path d="M22.031,8.549c-0.274,0 -0.498,-0.222 -0.5,-0.497c-0.01,-1.418 -1.872,-2.662 -3.984,-2.662c-1.636,0 -2.792,0.307 -3.637,0.965c-0.218,0.168 -0.532,0.13 -0.702,-0.087c-0.17,-0.217 -0.13,-0.532 0.087,-0.702c1.03,-0.802 2.381,-1.176 4.251,-1.176c2.688,0 4.97,1.674 4.984,3.655c0.002,0.276 -0.22,0.501 -0.497,0.503c0.001,0.001 -0.001,0.001 -0.002,0.001Z"></path><path d="M16.895,13.603c-0.274,0 -0.498,-0.221 -0.5,-0.496c-0.011,-1.418 -1.888,-2.663 -4.018,-2.663c-1.95,0 -3.236,0.371 -4.045,1.167l-0.086,0.089c-0.189,0.201 -0.507,0.21 -0.707,0.021c-0.201,-0.189 -0.21,-0.506 -0.021,-0.707l0.112,-0.115c1.009,-0.993 2.518,-1.455 4.747,-1.455c2.705,0 5.003,1.674 5.018,3.655c0.002,0.276 -0.22,0.502 -0.496,0.504c-0.002,1.77636e-15 -0.003,1.77636e-15 -0.004,1.77636e-15Z"></path></g></svg>