<?xml version="1.0" encoding="UTF-8"?>
<svg viewBox="0 0 30 30" version="1.1" xmlns="http://www.w3.org/2000/svg" xmlns:xlink="http://www.w3.org/1999/xlink">
    <g id="Page-1" stroke="none" stroke-width="1" fill="none" fill-rule="evenodd">
        <g id="Artboard" transform="translate(-450.000000, -60.000000)" fill="#000000" fill-rule="nonzero">
            <g id="np_baking_1053796_000000" transform="translate(450.000000, 60.000000)">
                <path d="M1.92555556,28.9625926 C2.40733333,28.9625926 2.88911111,28.7774074 3.25948148,28.407037 L5.99962963,25.6668889 L6.22242963,25.8896889 C6.51901481,26.1862741 6.92554074,26.333837 7.33354074,26.333837 C7.74154074,26.333837 8.14805926,26.1862667 8.44465185,25.8896889 L25.7046519,8.62968889 C26.001237,8.3331037 26.1488,7.92657778 26.1488,7.51857778 C26.1488,7.11057778 26.0012296,6.70405926 25.7046519,6.40746667 L25.4818519,6.18466667 L28.222,3.44451852 C28.9627407,2.70377778 28.9627407,1.51888889 28.222,0.778148148 C27.4812593,0.0374074074 26.2963704,0.0374074074 25.5556296,0.778148148 L22.8154815,3.5182963 L22.5926815,3.2954963 C22.2960963,2.99891111 21.8895704,2.85134815 21.4815704,2.85134815 C21.0735704,2.85134815 20.6670519,2.99891852 20.3704593,3.2954963 L3.14823704,20.5177185 C2.85165185,20.8143037 2.70408889,21.2208296 2.70408889,21.6288296 C2.70408889,22.0368296 2.85165926,22.4433481 3.14823704,22.7399407 L3.37103704,22.9627407 L0.630888889,25.7028889 C0.260518519,26.0732593 0.0753333333,26.5174074 0.0753333333,27.0368148 C0.0753333333,27.5547407 0.260518519,28.0003704 0.630888889,28.3707407 C0.963644444,28.7772963 1.44396296,28.9624815 1.92574074,28.9624815 L1.92555556,28.9625926 Z M26.1111111,1.25851852 C26.5552593,0.81437037 27.296,0.81437037 27.7401481,1.25851852 C28.1842963,1.70266667 28.1842963,2.44340741 27.7401481,2.88755556 L25,5.6277037 L23.370963,3.99866667 L26.1111111,1.25851852 Z M3.66592593,21.0733333 L20.9259259,3.81333333 C21.0734963,3.66576296 21.2962963,3.55436296 21.5191111,3.55436296 C21.7419111,3.55436296 21.9632593,3.62814815 22.1122963,3.81333333 L25.2228148,6.92385185 C25.5555704,7.25660741 25.5555704,7.776 25.2228148,8.10874074 L7.92540741,25.3324444 C7.59265185,25.6652 7.07325926,25.6652 6.74051852,25.3324444 L3.66614815,22.2219259 C3.33339259,21.9253407 3.33339259,21.3697778 3.66614815,21.0731852 L3.66592593,21.0733333 Z M1.11096296,26.2585185 L3.85111111,23.5183704 L5.48014815,25.1474074 L2.74,27.8875556 C2.29585185,28.3317037 1.55511111,28.3317037 1.11096296,27.8875556 C0.888162963,27.6647556 0.778207407,27.3696296 0.778207407,27.073037 C0.778207407,26.7778963 0.888162963,26.4812963 1.11096296,26.2585185 Z" id="Shape"></path>
                <path d="M9.48222222,9.59185185 C9.85259259,9.70325185 10.222963,9.73942222 10.5557037,9.73942222 C11.185037,9.73942222 11.8143704,9.55423704 12.3699259,9.2214963 C13.2958519,8.62831111 13.998963,7.59245926 14.406963,6.18475556 C14.7773333,4.99986667 14.7397185,3.66594074 14.3693481,2.55482963 C13.9613481,1.33231111 13.1844593,0.480162963 12.2585333,0.185051852 C11.2949778,-0.111533333 10.2214963,0.185051852 9.22179259,0.963422222 C8.3334963,1.70416296 7.59275556,2.81527407 7.22238519,4.00016296 C6.77823704,5.44401481 6.77823704,6.66653333 7.22238519,7.66623704 C7.66653333,8.62979259 8.4449037,9.25912593 9.48223704,9.59186667 L9.48222222,9.59185185 Z M7.96311111,4.22148148 C8.29586667,3.18414815 8.92666667,2.18444444 9.70355556,1.55511111 C10.2967407,1.07333333 10.9260741,0.81437037 11.5177778,0.81437037 C11.702963,0.81437037 11.8881481,0.851985185 12.0733333,0.888155556 C12.7764444,1.11095556 13.3696296,1.77645185 13.7023704,2.77763704 C14.0351259,3.77734074 14.0351259,4.92608148 13.7023704,5.96341481 C13.332,7.18593333 12.7388148,8.07422963 11.9619259,8.59363704 C11.294963,9.03778519 10.4804444,9.11156296 9.66592593,8.89022222 C8.85140741,8.63125185 8.22207407,8.11185185 7.92548148,7.40874074 C7.59272593,6.55514815 7.59272593,5.48166667 7.9630963,4.22151852 L7.96311111,4.22148148 Z" id="Shape"></path>
                <path d="M4.18555556,16.0733333 C4.55592593,16.0733333 4.96392593,15.9995481 5.3342963,15.8881481 C7.51888889,15.2211852 8.33488889,12.998963 7.48274074,10.2948148 C7.11237037,9.10992593 6.37162963,8.03496296 5.40807407,7.29422222 C4.40837037,6.51585185 3.25962963,6.25688889 2.3337037,6.55348148 C1.37014815,6.85006667 0.629407407,7.70222222 0.296666667,8.92325926 C-0.0360888889,10.0343704 8.14814815e-05,11.3682963 0.370451852,12.5531852 C1.14882222,15.1848519 2.74022963,16.0731481 4.18563704,16.0731481 L4.18555556,16.0733333 Z M0.999777778,9.14777778 C1.29636296,8.18422222 1.85192593,7.51874074 2.55503704,7.29592593 C3.25814815,7.07312593 4.14792593,7.29592593 4.96244444,7.92525926 C5.77696296,8.55459259 6.44392593,9.51814815 6.77666667,10.5554815 C7.51740741,12.8891111 6.85045185,14.6673333 5.11,15.2228889 C3.33192593,15.7784444 1.8142963,14.704963 1.0737037,12.3713333 C0.703333333,11.2964074 0.703333333,10.1476667 0.999918519,9.14796296 L0.999777778,9.14777778 Z" id="Shape"></path>
                <path d="M22.8514815,15.9637037 C19.0740741,15.9637037 15.9618519,19.0380741 15.9618519,22.8533333 C15.9618519,26.6685926 19.0362222,29.742963 22.8514815,29.742963 C26.6667407,29.742963 29.7411111,26.6685926 29.7411111,22.8533333 C29.7411111,19.0366667 26.6291481,15.9637037 22.8514815,15.9637037 Z M22.8514815,28.962963 C19.4805185,28.962963 16.7025926,26.2228148 16.7025926,22.8140741 C16.7025926,19.406963 19.4427407,16.6651852 22.8514815,16.6651852 C26.2585926,16.6651852 29.0003704,19.4053333 29.0003704,22.8140741 C29.0003704,26.2228148 26.2225926,28.962963 22.8514815,28.962963 Z" id="Shape"></path>
                <path d="M22.8514815,17.5548148 C19.9261481,17.5548148 17.5548148,19.9245926 17.5548148,22.8514815 C17.5548148,25.7768148 19.9245926,28.1481481 22.8514815,28.1481481 C25.7782593,28.1481481 28.1481481,25.7783704 28.1481481,22.8514815 C28.1481481,19.9261481 25.7783704,17.5548148 22.8514815,17.5548148 Z M22.8514815,27.4074074 C20.3326667,27.4074074 18.2955556,25.3703704 18.2955556,22.8514815 C18.2955556,20.3325926 20.3325926,18.2955556 22.8514815,18.2955556 C25.3703704,18.2955556 27.4074074,20.3325926 27.4074074,22.8514815 C27.4074074,25.3703704 25.3703704,27.4074074 22.8514815,27.4074074 Z" id="Shape"></path>
            </g>
        </g>
    </g>
</svg>