<svg xmlns="http://www.w3.org/2000/svg" viewBox="0 0 30 30"><path d="M1.926 28.963a1.88 1.88 0 0 0 1.334-.556L6 25.667l.223.223c.297.297.703.444 1.1.444s.815-.148 1.1-.444l17.26-17.26c.297-.297.444-.703.444-1.1s-.148-.815-.444-1.1l-.223-.223 2.74-2.74a1.88 1.88 0 0 0 0-2.666 1.88 1.88 0 0 0-2.666 0l-2.74 2.74-.223-.223c-.297-.297-.703-.444-1.1-.444s-.815.148-1.1.444l-17.223 17.2c-.297.297-.444.703-.444 1.1s.148.815.444 1.1l.223.223L.63 25.7a1.82 1.82 0 0 0-.556 1.334 1.82 1.82 0 0 0 .556 1.334c.333.407.813.592 1.295.592zM26.1 1.26c.444-.444 1.185-.444 1.63 0s.444 1.185 0 1.63L25 5.628 23.37 4l2.74-2.74zM3.666 21.073l17.26-17.26c.148-.148.37-.26.593-.26s.444.074.593.26l3.1 3.1c.333.333.333.852 0 1.185L7.925 25.332c-.333.333-.852.333-1.185 0l-3.074-3.1a.79.79 0 0 1 0-1.149zM1.1 26.258l2.74-2.74 1.63 1.63-2.74 2.74c-.444.444-1.185.444-1.63 0-.223-.223-.333-.518-.333-.815a1.15 1.15 0 0 1 .333-.815zM9.482 9.592c.37.1.74.148 1.073.148.63 0 1.26-.185 1.814-.518.926-.593 1.63-1.63 2.037-3.037a6.06 6.06 0 0 0-.038-3.63C13.96 1.332 13.184.48 12.26.185c-.964-.297-2.037 0-3.037.778-.888.74-1.63 1.852-2 3.037-.444 1.444-.444 2.666 0 3.666.444.964 1.223 1.593 2.26 1.926zm-1.52-5.37c.333-1.037.964-2.037 1.74-2.666.593-.482 1.223-.74 1.814-.74.185 0 .37.038.556.074.703.223 1.296.888 1.63 1.9s.333 2.148 0 3.186c-.37 1.223-.964 2.1-1.74 2.63-.667.444-1.48.518-2.296.297-.815-.26-1.444-.778-1.74-1.48-.333-.854-.333-1.927.038-3.187zm-3.776 11.85c.37 0 .778-.074 1.15-.185 2.185-.667 3-2.9 2.148-5.593a6.13 6.13 0 0 0-2.075-3.001c-1-.778-2.148-1.037-3.074-.74C1.37 6.85.63 7.702.297 8.923c-.333 1.1-.297 2.445.074 3.63.778 2.632 2.37 3.52 3.815 3.52zM1 9.148c.297-.964.852-1.63 1.555-1.852s1.593 0 2.407.63 1.48 1.593 1.814 2.63c.74 2.334.074 4.112-1.667 4.667-1.778.556-3.296-.518-4.036-2.852a5.34 5.34 0 0 1-.074-3.223zm21.852 6.816c-3.777 0-6.9 3.074-6.9 6.9a6.88 6.88 0 0 0 6.9 6.9 6.88 6.88 0 0 0 6.9-6.9c0-3.826-3.112-6.9-6.9-6.9zm0 13a6.16 6.16 0 0 1-6.149-6.149c0-3.407 2.74-6.15 6.15-6.15s6.15 2.74 6.15 6.15a6.16 6.16 0 0 1-6.149 6.149zm0-11.41a5.3 5.3 0 0 0-5.297 5.297c0 2.927 2.37 5.297 5.297 5.297s5.297-2.37 5.297-5.297-2.37-5.297-5.297-5.297zm0 9.853c-2.52 0-4.556-2.037-4.556-4.556s2.037-4.556 4.556-4.556 4.556 2.037 4.556 4.556-2.037 4.556-4.556 4.556z"/></svg>