<svg xmlns="http://www.w3.org/2000/svg" viewBox="0 0 30 30"><path d="M11.213 18.652h-1.26c-.173 0-.334-.1-.426-.237a.5.5 0 0 1-.021-.486l.63-1.26a.5.5 0 0 1 .894 0l.63 1.26a.5.5 0 0 1-.447.723z"/><path d="M10.583 30a.5.5 0 0 1-.5-.5V18.152a.5.5 0 1 1 1 0V29.5a.5.5 0 0 1-.5.5zm5.604-11.356c-.73 0-1.327-.12-1.697-.36-1.674-1.093-2.935-7.452-.524-11.145 2.26-3.46 5.977-4.35 9.246-2.216s3.95 5.896 1.7 9.356c-1.88 2.876-6.136 4.365-8.716 4.365zM19.56 4.77c-1.802 0-3.508 1.002-4.758 2.917-2.1 3.234-.926 9.003.233 9.76s6.917-.48 9.028-3.714c1.962-3.006 1.412-6.135-1.4-7.972-1.02-.666-2.078-1-3.103-1zm4.922 9.236zM16.495 9.3c-.095 0-.2-.026-.273-.082a.5.5 0 0 1-.146-.692c1.46-2.23 3.723-2.8 5.757-1.483a.5.5 0 0 1 .146.692.5.5 0 0 1-.692.145c-1.593-1.04-3.202-.597-4.372 1.193-.098.147-.257.227-.42.227zM6.8 8.025a.5.5 0 0 1-.5-.5c0-3.086 1.64-5.003 4.282-5.003a.5.5 0 1 1 0 1C8.496 3.522 7.3 4.98 7.3 7.525a.5.5 0 0 1-.5.5z"/><path d="M10.583 17.392c-2.083 0-6.805-5.056-6.805-9.867C3.778 3.024 6.513 0 10.583 0c3.165 0 5.645 1.946 6.472 5.078a.5.5 0 0 1-.355.611.5.5 0 0 1-.611-.356C15.37 2.62 13.313 1 10.583 1 7.1 1 4.778 3.622 4.778 7.525c0 4.257 4.352 8.867 5.805 8.867.436 0 1.37-.52 2.482-1.685a.5.5 0 0 1 .707-.017.5.5 0 0 1 .016.707c-.572.6-2.03 1.995-3.205 1.995zm3.782 2.52a.51.51 0 0 1-.224-.053l-1.26-.63a.5.5 0 0 1-.047-.867l1.534-1a.5.5 0 0 1 .765.503l-.273 1.62a.5.5 0 0 1-.494.417z"/><path d="M10.583 30a.49.49 0 0 1-.141-.021.5.5 0 0 1-.339-.62l3.152-10.718c.077-.266.36-.413.62-.34a.5.5 0 0 1 .339.62L11.062 29.64a.5.5 0 0 1-.479.36z"/></svg>