<?xml version="1.0" encoding="UTF-8"?><svg version="1.1" viewBox="0 0 30 30" xmlns="http://www.w3.org/2000/svg" xmlns:xlink="http://www.w3.org/1999/xlink"><path d="M29.677,4.045c-0.193,-0.071 -0.413,-0.019 -0.552,0.137c-0.203,0.231 -0.404,0.347 -0.599,0.347c-0.001,0 -0.001,0 -0.002,0c-0.287,-0.001 -0.562,-0.246 -0.641,-0.337c-0.147,-0.175 -0.394,-0.227 -0.601,-0.127c-0.205,0.1 -0.317,0.328 -0.271,0.552c0.004,0.019 0.364,1.885 -0.925,4.112c-0.342,0.048 -0.656,0.18 -0.917,0.409l-0.155,0.136c-1.574,1.385 -6.364,5.599 -9.739,7.293c-1.639,0.823 -4.412,1.385 -7.095,1.928c-3.142,0.637 -5.856,1.186 -6.986,2.123c-0.199,0.154 -1.194,0.966 -1.194,1.851c0,0.869 0.978,1.755 1.174,1.924c0.023,0.02 0.052,0.03 0.078,0.045c0.023,0.014 0.043,0.03 0.069,0.04c0.006,0.002 0.01,0.007 0.016,0.009c3.025,1.047 5.925,1.5 8.645,1.5c9.607,0 16.949,-5.657 19.467,-10.752c0.241,-0.487 0.372,-0.964 0.449,-1.432c0.06,-0.083 0.102,-0.179 0.102,-0.289v-9c0,-0.208 -0.128,-0.394 -0.323,-0.469Zm-27.986,19.461c-0.325,-0.314 -0.691,-0.778 -0.691,-1.036c0,-0.137 0.113,-0.33 0.266,-0.522c0.071,0.039 0.148,0.066 0.235,0.066c0.229,0 1.375,0.036 1.375,0.75c-0.001,0.593 -0.787,0.717 -1.185,0.742Zm26.861,-8.714c-2.95,5.968 -12.898,12.727 -25.314,9.238c0.328,-0.245 0.534,-0.577 0.605,-0.971c0.072,0.01 0.141,0.019 0.225,0.03c1.312,0.181 2.588,0.271 3.83,0.271c7.77,0 14.155,-3.541 19.014,-10.561c0.158,-0.227 0.101,-0.539 -0.126,-0.696c-0.228,-0.159 -0.539,-0.101 -0.696,0.126c-5.403,7.806 -12.762,11.13 -21.885,9.869c-0.204,-0.029 -0.365,-0.05 -0.504,-0.065c-0.244,-0.467 -0.741,-0.79 -1.41,-0.933c1.23,-0.639 3.693,-1.139 6.088,-1.624c2.746,-0.556 5.587,-1.132 7.344,-2.014c3.491,-1.752 8.185,-5.881 9.952,-7.436l0.155,-0.136c0.379,-0.332 1.088,-0.206 1.764,0.314c1.164,0.893 1.911,2.658 0.958,4.588Zm0.448,-4.563c-0.241,-0.313 -0.506,-0.596 -0.798,-0.82c-0.343,-0.264 -0.697,-0.446 -1.044,-0.562c0.701,-1.36 0.885,-2.575 0.904,-3.388c0.137,0.042 0.286,0.068 0.446,0.07c0.141,0.005 0.307,-0.015 0.492,-0.076v4.776Z" fill="#000"></path></svg>