<?xml version="1.0" encoding="utf-8"?>
<!-- Generator: Adobe Illustrator 23.0.1, SVG Export Plug-In . SVG Version: 6.00 Build 0)  -->
<svg version="1.1" id="Layer_1" xmlns="http://www.w3.org/2000/svg" xmlns:xlink="http://www.w3.org/1999/xlink" x="0px" y="0px"
	 viewBox="0 0 30 30" style="enable-background:new 0 0 30 30;" xml:space="preserve">
<g>
	<path d="M8.2,29.3L1,22.4c-0.3-0.3-0.3-0.8,0-1.1L20.7,0.7c0.3-0.3,0.8-0.3,1.1,0L29,7.6c0.3,0.3,0.3,0.8,0,1.1L9.3,29.3
		C9,29.6,8.5,29.6,8.2,29.3z M2,21.8l6.7,6.5L28,8.2l-6.7-6.5L2,21.8z"/>
	<rect x="11.3" y="12.9" transform="matrix(0.6936 -0.7203 0.7203 0.6936 -9.5181 14.1002)" width="1" height="10.7"/>
	<rect x="18.3" y="5.6" transform="matrix(0.6936 -0.7203 0.7203 0.6936 -2.2043 16.8898)" width="1" height="10.8"/>
	<g>
		<g>
			<circle cx="15.1" cy="12" r="0.7"/>
			<circle cx="17.9" cy="14.7" r="0.7"/>
		</g>
		<g>
			<circle cx="12.6" cy="14.6" r="0.7"/>
			<circle cx="15.4" cy="17.3" r="0.7"/>
		</g>
	</g>
</g>
</svg>
