<?xml version="1.0" encoding="UTF-8"?><svg version="1.1" viewBox="0 0 30 30" xmlns="http://www.w3.org/2000/svg" xmlns:xlink="http://www.w3.org/1999/xlink"><g fill="#000"><path d="M22,8.5c-0.1,0 -0.3,0 -0.4,-0.1c-0.2,-0.2 -0.2,-0.5 0,-0.7l3.1,-3.1c0.2,-0.2 0.5,-0.2 0.7,0c0.8,0.8 2.1,0.7 2.9,-0.1c0.5,-0.5 0.7,-1 0.7,-1.5c0,-0.5 -0.2,-1 -0.6,-1.4c-0.8,-0.8 -2,-0.8 -2.8,0c-0.2,0.2 -0.5,0.2 -0.7,0c-0.2,-0.2 -0.2,-0.5 0,-0.7c1.2,-1.2 3.1,-1.2 4.2,0c0.6,0.5 0.9,1.3 0.9,2.1c0,0.8 -0.3,1.6 -0.9,2.1c-1.1,1.1 -2.8,1.2 -4,0.4l-2.8,2.8c0,0.2 -0.2,0.2 -0.3,0.2Z"></path><path d="M17.5,18c-0.1,0 -0.1,0 -0.2,0l-3.6,-1.4c-0.2,-0.1 -0.3,-0.2 -0.3,-0.4l-0.9,-4.1c0,-0.2 0,-0.4 0.2,-0.5c0.1,-0.1 0.3,-0.1 0.5,-0.1l3.5,1.5c0.1,0.1 0.3,0.2 0.3,0.3l1,4c0,0.2 0,0.4 -0.2,0.5c-0.1,0.2 -0.2,0.2 -0.3,0.2Zm-3.2,-2.2l2.5,0.9l-0.7,-2.8l-2.4,-1l0.6,2.9Z"></path><path d="M23.5,12c-0.1,0 -0.1,0 -0.2,0l-3.6,-1.4c-0.2,-0.1 -0.3,-0.2 -0.3,-0.4l-0.9,-4.1c0,-0.2 0,-0.4 0.2,-0.5c0.2,-0.1 0.3,-0.1 0.5,-0.1l3.5,1.5c0.1,0.1 0.3,0.2 0.3,0.3l1,4c0,0.2 0,0.4 -0.2,0.5c-0.1,0.2 -0.2,0.2 -0.3,0.2Zm-3.2,-2.2l2.5,0.9l-0.7,-2.8l-2.4,-1l0.6,2.9Z"></path><path d="M0.5,30c-0.1,0 -0.3,0 -0.4,-0.1c-0.2,-0.2 -0.2,-0.5 0,-0.7l4,-4c0.2,-0.2 0.5,-0.2 0.7,0c0.2,0.2 0.2,0.5 0,0.7l-4,4c2.22045e-16,0.1 -0.2,0.1 -0.3,0.1Z"></path><path d="M15.5,15c-0.1,0 -0.3,0 -0.4,-0.1c-0.2,-0.2 -0.2,-0.5 0,-0.7l1.5,-1.5c0.2,-0.2 0.5,-0.2 0.7,0c0.2,0.2 0.2,0.5 0,0.7l-1.5,1.5c0,0.1 -0.2,0.1 -0.3,0.1Z"></path><path d="M18,15c-1.7,0 -3,-1.3 -3,-3c0,-1.7 1.3,-3 3,-3c1.7,0 3,1.3 3,3c0,1.7 -1.3,3 -3,3Zm0,-5c-1.1,0 -2,0.9 -2,2c0,1.1 0.9,2 2,2c1.1,0 2,-0.9 2,-2c0,-1.1 -0.9,-2 -2,-2Z"></path><path d="M11.5,24c-0.1,0 -0.1,0 -0.2,0l-3.6,-1.4c-0.2,-0.1 -0.3,-0.2 -0.3,-0.4l-0.9,-4.1c0,-0.2 0,-0.4 0.2,-0.5c0.2,-0.1 0.3,-0.1 0.5,-0.1l3.5,1.5c0.1,0.1 0.3,0.2 0.3,0.3l1,4c0,0.2 0,0.4 -0.2,0.5c-0.1,0.2 -0.2,0.2 -0.3,0.2Zm-3.2,-2.2l2.5,0.9l-0.7,-2.8l-2.4,-1l0.6,2.9Z"></path><path d="M9.5,21c-0.1,0 -0.3,0 -0.4,-0.1c-0.2,-0.2 -0.2,-0.5 0,-0.7l1.5,-1.5c0.2,-0.2 0.5,-0.2 0.7,0c0.2,0.2 0.2,0.5 0,0.7l-1.5,1.5c1.77636e-15,0.1 -0.2,0.1 -0.3,0.1Z"></path><path d="M12,21c-1.7,0 -3,-1.3 -3,-3c0,-1.7 1.3,-3 3,-3c1.7,0 3,1.3 3,3c0,1.7 -1.3,3 -3,3Zm0,-5c-1.1,0 -2,0.9 -2,2c0,1.1 0.9,2 2,2c1.1,0 2,-0.9 2,-2c0,-1.1 -0.9,-2 -2,-2Z"></path><path d="M6,27c-1.7,0 -3,-1.3 -3,-3c0,-1.7 1.3,-3 3,-3c1.7,0 3,1.3 3,3c0,1.7 -1.3,3 -3,3Zm0,-5c-1.1,0 -2,0.9 -2,2c0,1.1 0.9,2 2,2c1.1,0 2,-0.9 2,-2c0,-1.1 -0.9,-2 -2,-2Z"></path></g></svg>