<svg xmlns="http://www.w3.org/2000/svg" viewBox="0 0 30 30"><circle cx="23.2" cy="3" r=".6"/><path d="M9.7 29.9c-.8 0-1.6-.2-2.4-.7-2-1.2-2.8-3.7-1.7-5.6L13.3 11c.5-.9 1.8-1.3 3.8-1.3.1-.2.1-.4.2-.6.4-1.1.8-2.4 1.1-4 .3-1.9 1.6-3.6 3.4-4.4 1.2-.5 2.3-.6 3-.2S26 2 26 3.3a5.99 5.99 0 0 1-2.4 5.1c-1.3 1-2.3 2-3 2.8l-.5.5c.7 1.3 1.2 2.8.6 3.9l-7.6 12.7c-.5.9-1.4 1.5-2.5 1.7-.4-.1-.6-.1-.9-.1zm7.2-19.3c-1.5 0-2.5.3-2.8.8L6.5 24.1c-.8 1.4-.2 3.3 1.3 4.2.8.5 1.6.6 2.5.5.8-.2 1.5-.6 1.9-1.2l7.6-12.7c.4-.6.1-1.8-.8-3.3l-.2-.3.3-.3c.2-.2.4-.5.7-.7.8-.8 1.8-1.9 3.2-2.9 1.3-1 2-2.6 2-4.2-.1-1-.4-1.8-.7-2s-1.2-.2-2.1.3c-1.5.7-2.6 2.1-2.8 3.7-.3 1.7-.7 3.1-1.1 4.2l-.3.9-.1.4h-.4c-.2 0-.4-.1-.6-.1zM9.8 28.1c-.4 0-.9-.1-1.3-.4l-.4-.2c-1.2-.7-1.6-2.2-.8-3.4l5.4-8.9c.3-.6.9-1 1.5-1.1.6-.2 1.3-.1 1.9.3l.4.2c1.2.7 1.6 2.2.8 3.4l-5.4 8.9c-.5.8-1.3 1.2-2.1 1.2zm5-13.1h-.4a1.27 1.27 0 0 0-.9.7l-5.4 8.9c-.4.7-.2 1.6.5 2l.4.3c.7.4 1.6.2 2-.5l5.4-8.9c.4-.7.2-1.6-.5-2l-.4-.2a1.08 1.08 0 0 0-.7-.3zM9.9 25.5c-.1 0-.2 0-.3-.1-.2-.1-.3-.5-.2-.7l4.4-7.3c.1-.2.4-.3.7-.2.2.1.3.5.2.7l-4.4 7.3c-.1.2-.2.3-.4.3z"/><circle cx="9.8" cy="25.1" r="1"/></svg>