<svg xmlns="http://www.w3.org/2000/svg" viewBox="0 0 30 30"><path d="M20.5 28.5h-11c-1.7 0-3-1.3-3-3v-18c0-1.7 1.3-3 3-3h2V2a.47.47 0 0 1 .5-.5h6a.47.47 0 0 1 .5.5v2.5h2c1.7 0 3 1.3 3 3v18c0 1.7-1.3 3-3 3zm-11-23c-1.1 0-2 .9-2 2v18c0 1.1.9 2 2 2h11c1.1 0 2-.9 2-2v-18c0-1.1-.9-2-2-2H18a.47.47 0 0 1-.5-.5V2.5h-5V5a.47.47 0 0 1-.5.5H9.5zm5.5 19h-.1c-.2 0-.4-.3-.4-.5v-5.5H11c-.2 0-.3-.1-.4-.2s-.1-.3-.1-.5l4-10c.1-.2.3-.3.6-.3.2 0 .4.3.4.5v6.5H19c.2 0 .3.1.4.2s.1.3 0 .5l-4 9c0 .2-.2.3-.4.3zm-3.3-7H15a.47.47 0 0 1 .5.5v3.6l2.7-6.1H15a.47.47 0 0 1-.5-.5v-4.4l-2.8 6.9z"/></svg>