<?xml version="1.0" encoding="utf-8"?>
<!-- Generator: Adobe Illustrator 23.0.1, SVG Export Plug-In . SVG Version: 6.00 Build 0)  -->
<svg version="1.1" id="Layer_1" xmlns="http://www.w3.org/2000/svg" xmlns:xlink="http://www.w3.org/1999/xlink" x="0px" y="0px"
	 viewBox="0 0 30 30" style="enable-background:new 0 0 30 30;" xml:space="preserve">

<path d="M14.6,12.6v-4c0-2-1.7-3.7-3.7-3.7c-2,0-3.7,1.7-3.7,3.7v4.1C5.9,13.2,5,14.4,5,15.8v13.7C5,29.8,5.2,30,5.4,30
	c0,0,0,0,0.1,0h11c0.3,0,0.5-0.2,0.5-0.4c0,0,0,0,0-0.1V15.8C17,14.3,16,13,14.6,12.6z M10.9,5.9c1.5,0,2.7,1.2,2.7,2.7v3.8H13v0H9
	v0H8.1V8.6C8.1,7.1,9.4,5.9,10.9,5.9z M16,15.8V29H6V15.8c0-1.4,1.1-2.5,2.5-2.5c0,0,0,0,0,0h5C14.8,13.3,16,14.4,16,15.8
	C16,15.8,16,15.8,16,15.8z"/>
<circle cx="11.9" cy="8.3" r="0.9"/>
<path d="M19.5,11.3c-0.1,0-0.2,0-0.3-0.1L15.8,9c-0.2-0.1-0.3-0.3-0.3-0.6c0-0.2,0.1-0.5,0.3-0.6l6.4-4.4c0.2-0.2,0.5-0.1,0.7,0.1
	C23,3.8,23,4.1,22.7,4.3l-6,4.1l3,1.9c0.2,0.1,0.3,0.5,0.2,0.7C19.8,11.2,19.6,11.3,19.5,11.3z"/>
<circle cx="17.6" cy="4.2" r="0.6"/>
<circle cx="22.1" cy="14.2" r="0.6"/>
<circle cx="24.5" cy="2.5" r="0.6"/>
<circle cx="20.5" cy="0.8" r="0.6"/>
<circle cx="21.6" cy="10.5" r="0.6"/>
<path d="M7.5,26.6c-0.3,0-0.5-0.2-0.5-0.5v-9.7c0-0.3,0.2-0.5,0.5-0.5S8,16.2,8,16.4v9.7C8,26.4,7.8,26.6,7.5,26.6z"/>
</svg>
