<?xml version="1.0" encoding="utf-8"?>
<!-- Generator: Adobe Illustrator 23.0.1, SVG Export Plug-In . SVG Version: 6.00 Build 0)  -->
<svg version="1.1" id="Layer_1" xmlns="http://www.w3.org/2000/svg" xmlns:xlink="http://www.w3.org/1999/xlink" x="0px" y="0px"
	 viewBox="0 0 30 30" style="enable-background:new 0 0 30 30;" xml:space="preserve">
<g>
	<path d="M19.5,25.5H8.8l-2-24.7c0-0.2,0.1-0.4,0.2-0.5c0.1-0.1,0.3-0.2,0.5-0.2h13.4c0.2,0,0.4,0.1,0.5,0.2
		c0.1,0.1,0.2,0.3,0.2,0.5L19.5,25.5z M9.7,24.5h8.9l1.9-23.4H7.8L9.7,24.5z M20.6,0.8C20.6,0.8,20.6,0.8,20.6,0.8L20.6,0.8z"/>
	<path d="M19.6,29.9H8.8v-5.3h10.7V29.9z M9.8,28.9h8.7v-3.3H9.8V28.9z"/>
</g>
<path d="M14.2,12.2c-1.3,0-2.3-1-2.3-2.3s1-2.3,2.3-2.3c1.3,0,2.3,1,2.3,2.3S15.5,12.2,14.2,12.2z M14.2,8.6c-0.7,0-1.3,0.6-1.3,1.3
	s0.6,1.3,1.3,1.3c0.7,0,1.3-0.6,1.3-1.3S14.9,8.6,14.2,8.6z"/>
<g>
	<g>
		<path d="M11.9,9.4h-1.6c-0.3,0-0.5,0.2-0.5,0.5s0.2,0.5,0.5,0.5h1.6c0.3,0,0.5-0.2,0.5-0.5S12.2,9.4,11.9,9.4z"/>
		<path d="M18,9.4h-1.6c-0.3,0-0.5,0.2-0.5,0.5s0.2,0.5,0.5,0.5H18c0.3,0,0.5-0.2,0.5-0.5S18.3,9.4,18,9.4z"/>
	</g>
	<g>
		<path d="M13.7,12.1v1.6c0,0.3,0.2,0.5,0.5,0.5s0.5-0.2,0.5-0.5v-1.6c0-0.3-0.2-0.5-0.5-0.5S13.7,11.9,13.7,12.1z"/>
		<path d="M13.7,6v1.6c0,0.3,0.2,0.5,0.5,0.5s0.5-0.2,0.5-0.5V6c0-0.3-0.2-0.5-0.5-0.5S13.7,5.7,13.7,6z"/>
	</g>
	<g>
		<path d="M12.2,11.1l-1.1,1.1c-0.2,0.2-0.2,0.5,0,0.7s0.5,0.2,0.7,0l1.1-1.1c0.2-0.2,0.2-0.5,0-0.7C12.7,10.9,12.4,10.9,12.2,11.1z
			"/>
		<path d="M16.5,6.8l-1.1,1.1c-0.2,0.2-0.2,0.5,0,0.7c0.2,0.2,0.5,0.2,0.7,0l1.1-1.1c0.2-0.2,0.2-0.5,0-0.7
			C17.1,6.6,16.7,6.6,16.5,6.8z"/>
	</g>
	<g>
		<path d="M15.4,11.8l1.1,1.1c0.2,0.2,0.5,0.2,0.7,0s0.2-0.5,0-0.7l-1.1-1.1c-0.2-0.2-0.5-0.2-0.7,0C15.2,11.3,15.2,11.6,15.4,11.8z
			"/>
		<path d="M11.1,7.5l1.1,1.1c0.2,0.2,0.5,0.2,0.7,0s0.2-0.5,0-0.7l-1.1-1.1c-0.2-0.2-0.5-0.2-0.7,0C10.9,7,10.9,7.3,11.1,7.5z"/>
	</g>
</g>
</svg>
