<?xml version="1.0" encoding="utf-8"?>
<!-- Generator: Adobe Illustrator 23.0.1, SVG Export Plug-In . SVG Version: 6.00 Build 0)  -->
<svg version="1.1" id="Layer_1" xmlns="http://www.w3.org/2000/svg" xmlns:xlink="http://www.w3.org/1999/xlink" x="0px" y="0px"
	 viewBox="0 0 30 30" style="enable-background:new 0 0 30 30;" xml:space="preserve">
<path d="M26.2,13.1H3.8c-1.4,0-2.5-1.1-2.5-2.5V7.9c0-2.5,2-4.5,4.5-4.5h18.3c2.5,0,4.5,2,4.5,4.5v2.7C28.7,12,27.5,13.1,26.2,13.1z
	 M5.8,4.4c-1.9,0-3.5,1.6-3.5,3.5v2.7c0,0.8,0.7,1.5,1.5,1.5h22.3c0.8,0,1.5-0.7,1.5-1.5V7.9c0-1.9-1.6-3.5-3.5-3.5H5.8z"/>
<path d="M27.2,29.5H2.8c-1.4,0-2.5-1.1-2.5-2.5l0.9-12.5c0.1-1.3,1.2-2.3,2.5-2.3h22.6c1.3,0,2.4,1,2.5,2.3l0.9,12.5
	C29.7,28.4,28.5,29.5,27.2,29.5z M3.7,13.1c-0.8,0-1.4,0.6-1.5,1.4L1.3,27c0,0.8,0.7,1.5,1.5,1.5h24.3c0.8,0,1.5-0.7,1.5-1.5
	l-0.9-12.5c-0.1-0.8-0.7-1.4-1.5-1.4H3.7z"/>
<path d="M18.1,22.9c-0.1,0-0.1,0-0.2-0.1c-0.1-0.1-0.1-0.3,0-0.4l5.8-5.8c0.1-0.1,0.3-0.1,0.4,0s0.1,0.3,0,0.4l-5.8,5.8
	C18.2,22.9,18.2,22.9,18.1,22.9z"/>
<path d="M17.8,25.2c-0.1,0-0.1,0-0.2-0.1c-0.1-0.1-0.1-0.3,0-0.4l4-4c0.1-0.1,0.3-0.1,0.4,0s0.1,0.3,0,0.4l-4,4
	C17.9,25.1,17.9,25.2,17.8,25.2z"/>
</svg>
