<?xml version="1.0" encoding="utf-8"?>
<!-- Generator: Adobe Illustrator 23.0.1, SVG Export Plug-In . SVG Version: 6.00 Build 0)  -->
<svg version="1.1" id="Layer_1" xmlns="http://www.w3.org/2000/svg" xmlns:xlink="http://www.w3.org/1999/xlink" x="0px" y="0px"
	 viewBox="0 0 30 30" style="enable-background:new 0 0 30 30;" xml:space="preserve">
<g>
	<path d="M19.3,29.9h-8.6c-1.4,0-2.5-1.1-2.5-2.5V15.7c0-2.3,1.2-4.5,3.2-5.8l0.1-0.1h7l0.1,0.1c2,1.3,3.2,3.4,3.2,5.8v11.7
		C21.8,28.8,20.7,29.9,19.3,29.9z M11.8,10.8c-1.6,1.1-2.6,2.9-2.6,4.8v11.7c0,0.8,0.7,1.5,1.5,1.5h8.6c0.8,0,1.5-0.7,1.5-1.5V15.7
		c0-2-1-3.7-2.6-4.8H11.8z"/>
	<path d="M18.1,10.8h-6.2c-0.4,0-0.7-0.3-0.7-0.7V7.3c0-0.4,0.3-0.7,0.7-0.7h6.2c0.4,0,0.7,0.3,0.7,0.7v2.8
		C18.8,10.5,18.5,10.8,18.1,10.8z M12.2,9.8h5.6V7.6h-5.6V9.8z"/>
	<path d="M17.1,7.5h-4.2V2.2c0-1.2,0.9-2.1,2.1-2.1c1.2,0,2.1,0.9,2.1,2.1V7.5z M13.9,6.5h2.2V2.2c0-0.6-0.5-1.1-1.1-1.1
		s-1.1,0.5-1.1,1.1V6.5z"/>
	<path d="M15,20.8c-0.4,0-1.9-0.2-1.9-2.4V9.8h3.7v8.6C16.9,20.6,15.4,20.8,15,20.8z M14.1,10.8v7.6c0,1.4,0.6,1.4,0.9,1.4
		s0.9,0,0.9-1.4v-7.6H14.1z"/>
	<path d="M16.9,24.2c-0.1,0-0.1,0-0.2-0.1c-0.1-0.1-0.1-0.2,0-0.4l2.2-2.6c0.1-0.1,0.2-0.1,0.4,0c0.1,0.1,0.1,0.2,0,0.4l-2.2,2.6
		C17.1,24.2,17,24.2,16.9,24.2z"/>
	<path d="M14,25.9c-0.1,0-0.1,0-0.2-0.1c-0.1-0.1-0.1-0.2,0-0.4l3.3-4c0.1-0.1,0.2-0.1,0.4,0c0.1,0.1,0.1,0.2,0,0.4l-3.3,4
		C14.1,25.8,14.1,25.9,14,25.9z"/>
</g>
</svg>
