<?xml version="1.0" encoding="utf-8"?>
<!-- Generator: Adobe Illustrator 23.0.1, SVG Export Plug-In . SVG Version: 6.00 Build 0)  -->
<svg version="1.1" id="Layer_1" xmlns="http://www.w3.org/2000/svg" xmlns:xlink="http://www.w3.org/1999/xlink" x="0px" y="0px"
	 viewBox="0 0 30 30" style="enable-background:new 0 0 30 30;" xml:space="preserve">
<g>
	<path d="M20.4,25.5H9.6l-2-24.7c0-0.2,0.1-0.4,0.2-0.5c0.1-0.1,0.3-0.2,0.5-0.2h13.4c0.2,0,0.4,0.1,0.5,0.2
		c0.1,0.1,0.2,0.3,0.2,0.5L20.4,25.5z M10.6,24.5h8.9l1.9-23.4H8.6L10.6,24.5z M21.4,0.8C21.4,0.8,21.4,0.8,21.4,0.8L21.4,0.8z"/>
	<path d="M20.4,29.9H9.6v-5.3h10.7V29.9z M10.6,28.9h8.7v-3.3h-8.7V28.9z"/>
	<g>
		<rect x="11.1" y="25.4" width="1" height="3.9"/>
		<rect x="14.5" y="25.4" width="1" height="3.9"/>
		<rect x="16.2" y="25.4" width="1" height="3.9"/>
		<rect x="12.8" y="25.4" width="1" height="3.9"/>
		<rect x="17.9" y="25.3" width="1" height="3.9"/>
	</g>
	<path d="M12.1,19.6c-0.3,0-0.5-0.2-0.5-0.5L10.3,4c0-0.4,0.1-0.8,0.4-1.1s0.7-0.5,1.1-0.5H14c0.3,0,0.5,0.2,0.5,0.5
		S14.3,3.4,14,3.4h-2.2c-0.1,0-0.3,0.1-0.4,0.2c-0.1,0.1-0.1,0.2-0.1,0.4L12.6,19C12.6,19.3,12.4,19.6,12.1,19.6
		C12.1,19.6,12.1,19.6,12.1,19.6z"/>
</g>
</svg>
