<?xml version="1.0" encoding="utf-8"?>
<!-- Generator: Adobe Illustrator 23.0.1, SVG Export Plug-In . SVG Version: 6.00 Build 0)  -->
<svg version="1.1" id="Layer_1" xmlns="http://www.w3.org/2000/svg" xmlns:xlink="http://www.w3.org/1999/xlink" x="0px" y="0px"
	 viewBox="0 0 30 30" style="enable-background:new 0 0 30 30;" xml:space="preserve">
<path d="M17.8,4.4h-5.6c-0.6,0-1.1-0.5-1.1-1.1V1.6c0-0.6,0.5-1.1,1.1-1.1h5.6c0.6,0,1.1,0.5,1.1,1.1v1.8
	C18.8,3.9,18.4,4.4,17.8,4.4z M12.2,1.5l-0.1,1.8l5.6,0.1c0,0,0.1,0,0.1-0.1V1.6L12.2,1.5z"/>
<path d="M20.8,29.5H9.2c-0.6,0-1.1-0.5-1.1-1.1V6.5l3.3-3h7.1l3.3,3v21.9C21.8,29,21.4,29.5,20.8,29.5z M9.2,6.9v21.5l11.6,0.1
	c0,0,0.1,0,0.1-0.1V6.9l-2.7-2.4h-6.3L9.2,6.9z"/>
<path d="M10.8,11.9c-0.3,0-0.5-0.2-0.5-0.5V7.8c0-0.3,0.2-0.7,0.4-0.9l1.1-0.9c0.2-0.2,0.5-0.1,0.7,0.1c0.2,0.2,0.1,0.5-0.1,0.7
	l-1.1,0.9l0,3.6C11.3,11.6,11.1,11.9,10.8,11.9z"/>
<path d="M20.4,23.5c-1.2,0-2.6-0.7-4.1-1.5c-0.5-0.3-1.1-0.5-1.6-0.8c-2-0.9-5.9-0.1-5.9-0.1l-0.2-1c0.2,0,4.3-0.9,6.5,0.2
	c0.5,0.2,1.1,0.5,1.6,0.8c1.7,0.9,3.3,1.7,4.4,1.2l0.5,0.9C21.2,23.4,20.8,23.5,20.4,23.5z"/>
<path d="M14.8,14c-0.4,0-0.7-0.1-1-0.3c-0.3-0.3-0.6-0.6-0.6-1.1s0.1-0.9,0.3-1.2c0.3-0.3,0.6-0.6,1.1-0.6c0.4-0.1,0.9,0.1,1.2,0.3
	c0.3,0.3,0.6,0.6,0.6,1.1c0.1,0.4-0.1,0.9-0.3,1.2c-0.3,0.3-0.6,0.6-1.1,0.6C14.9,14,14.8,14,14.8,14z M14.8,11.7
	C14.7,11.7,14.7,11.7,14.8,11.7c-0.4,0.1-0.7,0.4-0.6,0.7c0,0.2,0.1,0.3,0.2,0.4s0.3,0.1,0.5,0.1c0.2,0,0.3-0.1,0.4-0.2
	c0.1-0.1,0.1-0.3,0.1-0.5l0,0c0-0.2-0.1-0.3-0.2-0.4C15,11.8,14.9,11.7,14.8,11.7z"/>
<path d="M18.3,14.6C18.3,14.6,18.3,14.6,18.3,14.6c-0.4,0-0.7-0.2-0.9-0.4s-0.3-0.5-0.3-0.9c0-0.3,0.2-0.6,0.4-0.8
	c0.2-0.2,0.5-0.3,0.9-0.3c0.3,0,0.6,0.2,0.8,0.4s0.3,0.5,0.3,0.9l0,0c0,0.3-0.2,0.6-0.4,0.8C18.9,14.5,18.6,14.6,18.3,14.6z
	 M18.3,13.2c-0.1,0-0.2,0.1-0.2,0.2c0,0.1,0.1,0.2,0.2,0.2c0.1,0,0.2-0.1,0.2-0.2v0c0-0.1,0-0.1-0.1-0.1
	C18.4,13.2,18.4,13.2,18.3,13.2C18.3,13.2,18.3,13.2,18.3,13.2z"/>
<path d="M17.6,20.1c-1.2,0-2.2-1-2.2-2.2s1-2.2,2.2-2.2c1.2,0,2.2,1,2.2,2.2S18.8,20.1,17.6,20.1z M17.6,16.7
	c-0.7,0-1.2,0.5-1.2,1.2c0,0.7,0.5,1.2,1.2,1.2s1.2-0.5,1.2-1.2C18.8,17.2,18.2,16.7,17.6,16.7z"/>
</svg>
