<svg id="Ebene_1" data-name="Ebene 1" xmlns="http://www.w3.org/2000/svg" viewBox="0 0 30 30"><title>Zeichenfläche 1</title><path d="M23.66,6.42C17.1,3.1,7.17,4.14,2.8,6.12,1.58,6.68.88,7.29.71,7.93a2.59,2.59,0,0,0-.06.87h0v5.87h0A2.29,2.29,0,0,0,1,16c1,1.59,4,2.39,7.09,3,1.5.31,2.09.7,4.42,3.88,1.54,2.1,4.34,2.84,7.11,2.84a14.45,14.45,0,0,0,7-1.64,6.1,6.1,0,0,0,2.65-3.8h0l.06-6.6a4.78,4.78,0,0,0,0-.76C29.28,11.24,28.22,8.74,23.66,6.42Zm4.61,13.81h0a5.13,5.13,0,0,1-2.19,3C23.69,24.76,16,26,13.31,22.3c-2.35-3.21-3.15-3.89-5-4.27-2.74-.56-5.64-1.31-6.44-2.59a1.28,1.28,0,0,1-.21-.78h0V10.5C3,11.64,5.48,12.3,8.08,12.84c1.5.31,2.09.7,4.42,3.88,1.54,2.1,4.34,2.83,7.11,2.83a14.61,14.61,0,0,0,7-1.63,6.24,6.24,0,0,0,1.71-1.66Zm.07-6.63h0v.05a5.06,5.06,0,0,1-2.27,3.43c-2.37,1.51-10,2.77-12.75-.95-2.35-3.21-3.15-3.89-5-4.27-2.74-.57-5.64-1.31-6.44-2.59a1.35,1.35,0,0,1-.16-1.1c0-.08.2-.52,1.54-1.14,4.18-1.9,13.7-2.89,20,.29C26.48,9,28.26,10.93,28.36,13A4.28,4.28,0,0,1,28.34,13.6Z"/><path d="M25.39,9.48A16.3,16.3,0,0,0,21,7a.51.51,0,0,0-.65.29.5.5,0,0,0,.29.65,15.45,15.45,0,0,1,4.11,2.32c1.32,1.05,1.95,2.11,1.84,3.08a3.08,3.08,0,0,1-2,2.23.5.5,0,0,0,.21.95.59.59,0,0,0,.22-.05,4,4,0,0,0,2.54-3C27.71,12.52,27.41,11.08,25.39,9.48Z"/><path d="M10.63,10.65c-.37-.16-1.13-.37-2.1-.64A24.14,24.14,0,0,1,4.22,8.55,5.67,5.67,0,0,1,6.3,7.76a.5.5,0,1,0-.25-1c-1.71.45-2.86.92-2.89,1.77S4.4,9.9,8.26,11c.85.24,1.66.47,2,.6a4.26,4.26,0,0,1,1.62,1.25.5.5,0,0,0,.7,0,.51.51,0,0,0,0-.71A5.29,5.29,0,0,0,10.63,10.65Z"/><path d="M22,11.6c-1.43,0-2.56.8-2.56,1.83s1.13,1.82,2.56,1.82,2.56-.8,2.56-1.82S23.47,11.6,22,11.6Zm0,2.65c-.89,0-1.56-.43-1.56-.82s.67-.83,1.56-.83,1.56.44,1.56.83S22.93,14.25,22,14.25Z"/></svg>