<svg id="Ebene_1" data-name="Ebene 1" xmlns="http://www.w3.org/2000/svg" viewBox="0 0 30 30"><title>Zeichenfläche 1</title><path d="M29.33,13.69a4.78,4.78,0,0,0,0-.76c-.08-1.69-1.14-4.19-5.7-6.51C17.1,3.1,7.17,4.14,2.8,6.12,1.58,6.68.88,7.29.71,7.93a2.59,2.59,0,0,0-.06.87h0v5.87h0A2.29,2.29,0,0,0,1,16c1,1.59,4,2.39,7.09,3,1.5.31,2.09.7,4.42,3.88,1.54,2.1,4.34,2.84,7.11,2.84a14.45,14.45,0,0,0,7-1.64,6.1,6.1,0,0,0,2.65-3.8h0ZM1.68,8.17c0-.08.2-.52,1.54-1.14,4.18-1.9,13.7-2.89,20,.29C26.48,9,28.26,10.93,28.36,13a4.28,4.28,0,0,1,0,.62h0v.05a5.06,5.06,0,0,1-2.27,3.43c-2.37,1.51-10,2.77-12.75-.95-2.35-3.21-3.15-3.89-5-4.27-2.74-.57-5.64-1.31-6.44-2.59A1.35,1.35,0,0,1,1.68,8.17ZM26.06,23.25C23.69,24.76,16,26,13.31,22.3c-2.35-3.21-3.15-3.89-5-4.27-2.74-.56-5.64-1.31-6.44-2.59a1.28,1.28,0,0,1-.21-.78h0V10.5C3,11.64,5.48,12.3,8.08,12.84c1.5.31,2.09.7,4.42,3.88,1.54,2.1,4.34,2.83,7.11,2.83a14.61,14.61,0,0,0,7-1.63,6.24,6.24,0,0,0,1.71-1.66l0,4h0A5.13,5.13,0,0,1,26.06,23.25Z"/><path d="M6.42,10a.52.52,0,0,0,.43.24.5.5,0,0,0,.26-.08l4.52-2.74a.49.49,0,0,0,.17-.68.5.5,0,0,0-.69-.17L6.59,9.35A.5.5,0,0,0,6.42,10Z"/><path d="M9.21,10.85a.5.5,0,0,0,.41.22A.47.47,0,0,0,9.9,11l5.38-3.64a.5.5,0,0,0,.14-.69.51.51,0,0,0-.7-.14L9.34,10.16A.51.51,0,0,0,9.21,10.85Z"/><path d="M20.57,17.24a.48.48,0,0,0,.39.19.5.5,0,0,0,.31-.1L26.76,13a.5.5,0,0,0,.08-.7.5.5,0,0,0-.7-.09l-5.49,4.33A.5.5,0,0,0,20.57,17.24Z"/><path d="M11.36,12.21a.49.49,0,0,0,.41.21.52.52,0,0,0,.29-.09l6.71-4.79a.51.51,0,0,0-.59-.82l-6.7,4.79A.5.5,0,0,0,11.36,12.21Z"/><path d="M13.26,13.94a.48.48,0,0,0,.39.19A.5.5,0,0,0,14,14l7.5-5.81a.5.5,0,1,0-.61-.79l-7.5,5.81A.5.5,0,0,0,13.26,13.94Z"/><path d="M14.7,16a.48.48,0,0,0,.39.19.51.51,0,0,0,.31-.11l8.4-6.71a.49.49,0,0,0,.08-.7.5.5,0,0,0-.7-.08l-8.4,6.71A.5.5,0,0,0,14.7,16Z"/><path d="M17.07,17.07a.5.5,0,0,0,.4.19.52.52,0,0,0,.31-.1l8-6.35a.5.5,0,0,0,.09-.7.51.51,0,0,0-.71-.08l-8,6.34A.5.5,0,0,0,17.07,17.07Z"/><path d="M5.19,8.91a.52.52,0,0,0,.27-.07L7.17,7.76a.49.49,0,0,0,.16-.69.5.5,0,0,0-.69-.15L4.93,8a.5.5,0,0,0,.26.92Z"/></svg>