<svg xmlns="http://www.w3.org/2000/svg" viewBox="0 0 26 28">
    <g fill-rule="evenodd" transform="matrix(-1 0 0 1 26 -1)">
        <path d="M13.814 12.7a.59.59 0 1 0-1.181 0 .59.59 0 1 0 1.181 0m-10.15 7.094c.04-.282-.156-.544-.438-.584a.48.48 0 0 0-.075-.005c-.254 0-.473.2-.508.443a.51.51 0 0 0 .096.382.52.52 0 0 0 .34.202c.025.003.05.005.074.005a.52.52 0 0 0 .51-.443"/>
        <path fill="#000"
              d="M25.536 15.3a15.66 15.66 0 0 0-.31-3.102.49.49 0 0 0-.48-.395.55.55 0 0 0-.08.007 3.04 3.04 0 0 1-.464.035c-.29 0-.584-.04-.87-.12a.25.25 0 0 1-.169-.158c-.027-.08-.014-.165.035-.232.402-.542.693-1.02.917-1.51.486-1.062.74-2.173.758-3.302a.49.49 0 0 0-.327-.472c-.57-.2-1.157-.298-1.757-.298-1.442 0-2.887.564-4.18 1.63-.23.206-.252.507-.077.712.09.105.222.166.36.166a.49.49 0 0 0 .29-.094c1.115-.934 2.374-1.434 3.598-1.434a4.45 4.45 0 0 1 .879.088.25.25 0 0 1 .199.269c-.08.796-.293 1.578-.636 2.325-.337.74-.78 1.404-1.315 1.978a.49.49 0 0 0 .022.693.92.92 0 0 0 .217.137c.1.106.154.152.214.18a4.08 4.08 0 0 0 1.775.423.25.25 0 0 1 .245.212 14.73 14.73 0 0 1 .175 2.259c0 4.075-1.722 7.995-4.723 10.756a14.92 14.92 0 0 1-1.208.997.57.57 0 0 1-.34.111 1.31 1.31 0 0 1-.141-.017c-.174-.04-.323-.16-.403-.328-.714-1.473-1.88-3.337-3.37-3.843-.057-.028-.093-.042-.13-.052-.57-.15-1.133-.27-1.676-.36a17.79 17.79 0 0 0-2.83-.227 17.48 17.48 0 0 0-3.847.426 18.16 18.16 0 0 0-1.354.364 3.07 3.07 0 0 1-.919.14 3.11 3.11 0 0 1-2.564-1.329c-.046-.062-.072-.157-.072-.265v-2.88c0-.054.007-.19.074-.272.325-.45.835-.818 1.43-1.03.402-.143.785-.308 1.17-.505.002-.002.092-.06.168-.06 1.424.065 2.682.893 3.3 2.163a.5.5 0 0 0 .444.278c.07 0 .144-.018.21-.05a.49.49 0 0 0 .23-.655c-.54-1.122-1.496-1.983-2.695-2.424a.25.25 0 0 1-.087-.415l.11-.098c.045-.037.08-.067.113-.102 2.58-2.693 2.72-2.97 2.894-3.32C8.97 11 9.97 9.94 11.22 9.2a.49.49 0 0 0 .227-.551c-.06-.213-.254-.363-.475-.363h-.352c-2.472 0-4.663-1.832-5.58-4.668a.25.25 0 0 1 .1-.285c.04-.027.088-.042.138-.042.06 0 .118.022.164.06 1.32 1.14 3.01 1.72 5.027 1.72h4.357c1.03 0 1.988.413 2.696 1.163.094.1.22.155.356.155a.49.49 0 0 0 .491-.478.49.49 0 0 0-.134-.35c-.882-.935-2.124-1.47-3.408-1.47H10.47c-1.687 0-4.013-.483-5.512-2.783A.71.71 0 0 0 4.365 1a.72.72 0 0 0-.23.038.7.7 0 0 0-.469.711c.327 3.608 2.51 6.547 5.432 7.327.086.023.154.092.178.18s-.006.184-.072.246a8.3 8.3 0 0 0-1.75 2.368c-.112.222-.25.495-2.723 3.076-.496.517-1.015.914-1.54 1.178-.325.165-.673.315-1.034.444-.8.284-1.446.762-1.898 1.385-.17.232-.258.524-.258.842v2.88c0 .306.084.59.243.82.758 1.098 2.02 1.754 3.38 1.754a4.04 4.04 0 0 0 1.205-.183c.437-.136.867-.25 1.278-.344 1.177-.266 2.4-.4 3.63-.4a16.73 16.73 0 0 1 2.676.215c.445.072.873.16 1.31.27.06.026.092.04.202.063.915.2 2.01 1.474 2.936 3.38a1.59 1.59 0 0 0 1.054.85c.12.03.246.046.374.046.33 0 .66-.11.923-.306a15.19 15.19 0 0 0 1.288-1.065c3.202-2.942 5.04-7.124 5.04-11.475z"/>
    </g>
</svg>