<svg id="Layer_1" data-name="Layer 1" xmlns="http://www.w3.org/2000/svg" viewBox="0 0 30 30"><title>Zeichenfläche 1</title><path d="M19,11.36s0-.09,0-.13a4.62,4.62,0,0,0-1.34-3.31V4.28a.24.24,0,0,0,0-.08.49.49,0,0,0,.45-.49.5.5,0,0,0-.5-.5h-5.1a.5.5,0,0,0-.5.5.49.49,0,0,0,.45.49.24.24,0,0,0,0,.08V7.89A4.65,4.65,0,0,0,11,11.23s0,.1,0,.15a3.44,3.44,0,0,0-2,3.11v11.8a.47.47,0,0,0,.5.5h11a.47.47,0,0,0,.5-.5V14.49A3.34,3.34,0,0,0,19,11.36ZM20,25.79H10V14.49A2.46,2.46,0,0,1,12.1,12h0a4.16,4.16,0,0,1-.09-.79,3.56,3.56,0,0,1,1.35-2.87v0h0l0-3.52.09,0A.5.5,0,0,0,14,4.39a.49.49,0,0,0,1,0,.49.49,0,0,0,1,0,.5.5,0,0,0,.49.45l.15,0V7.19h0V8.36A3.56,3.56,0,0,1,18,11.23a3.48,3.48,0,0,1-.09.79h0A2.46,2.46,0,0,1,20,14.49Z"/><path d="M15.12,13.69h-.24A3.88,3.88,0,0,0,11,17.57v3.24a3.88,3.88,0,0,0,3.88,3.88h.24A3.88,3.88,0,0,0,19,20.81V17.57A3.88,3.88,0,0,0,15.12,13.69ZM18,20.81a2.88,2.88,0,0,1-2.88,2.88h-.24A2.88,2.88,0,0,1,12,20.81V17.57a2.88,2.88,0,0,1,2.88-2.88h.24A2.88,2.88,0,0,1,18,17.57Z"/></svg>