<svg data-name="Layer 1" id="Layer_1" viewBox="0 0 30 30" xmlns="http://www.w3.org/2000/svg">
    <path class="cls-1"
        d="M24.5,10H23.3a3,3,0,0,0,.2-1,3,3,0,0,0-2.1-2.8A6,6,0,0,0,9.7,5.4,3.29,3.29,0,0,0,8,5,4.48,4.48,0,0,0,3.5,9.5a4.32,4.32,0,0,0,3,4.2L5.5,24H5.1a2.5,2.5,0,0,0-2.6,2.5A2.56,2.56,0,0,0,5.1,29H22.9a2.59,2.59,0,0,0,2.7-2.5A2.56,2.56,0,0,0,23,24h-.5l-.1-1c2.4-.2,5.1-2.3,5.1-5V13.5C27.5,11.9,26.2,10,24.5,10Zm-20-.5A3.54,3.54,0,0,1,8,6a3,3,0,0,1,1.8.6.45.45,0,0,0,.5,0c.2-.1.3-.2.3-.4A5,5,0,0,1,15.5,2a5,5,0,0,1,5,4.6.43.43,0,0,0,.4.4,2,2,0,0,1,1.6,2,2,2,0,0,1-3.1,1.7c-.2-.2-.4-.1-.6,0A5.07,5.07,0,0,1,15.5,12a4.94,4.94,0,0,1-3.4-1.4.9.9,0,0,0-.5-.1c-.2,0-.3.1-.4.3A3.48,3.48,0,0,1,8,13,3.54,3.54,0,0,1,4.5,9.5ZM9.5,22a.47.47,0,0,0,.5-.5l.5-8.3a4.66,4.66,0,0,0,1.4-1.4,4.81,4.81,0,0,0,1.6.8v8.9a.5.5,0,0,0,1,0V12.9a5.19,5.19,0,0,0,3-.3l.5,8.9a.47.47,0,0,0,.5.5.54.54,0,0,0,.5-.5l-.5-9a.37.37,0,0,0-.1-.3c.3-.2.5-.3.8-.5a3.08,3.08,0,0,0,1.3.3l1,12H6.5l1-10.1A.75.75,0,0,0,8,14a4,4,0,0,0,1.5-.3L9,21.5A.54.54,0,0,0,9.5,22ZM23,25a1.5,1.5,0,1,1,0,3H5.1a1.5,1.5,0,1,1,0-3Zm3.5-7c0,2.1-2.3,3.8-4.2,4l-.8-10v-.2a3,3,0,0,0,1.3-.9h1.7c1.1,0,2,1.4,2,2.5Z" />
</svg>