<?xml version="1.0" encoding="utf-8"?>
<!-- Generator: Adobe Illustrator 23.0.1, SVG Export Plug-In . SVG Version: 6.00 Build 0)  -->
<svg version="1.1" id="Layer_1" xmlns="http://www.w3.org/2000/svg" xmlns:xlink="http://www.w3.org/1999/xlink" x="0px" y="0px"
	 viewBox="0 0 30 30" style="enable-background:new 0 0 30 30;" xml:space="preserve">
<g>
	<path d="M15,29.9C7.9,29.9,2.1,23.7,2.1,16C2.1,8.4,11.5,2.1,15,2.1c3.5,0,12.9,6.3,12.9,13.9C27.9,23.7,22.1,29.9,15,29.9z
		 M15,3.1C12.1,3.1,3.1,8.9,3.1,16c0,7.1,5.3,12.9,11.9,12.9c6.5,0,11.9-5.8,11.9-12.9C26.9,8.9,17.9,3.1,15,3.1z"/>
	<path d="M15,15.3c-3.4,0-6.2-3-6.2-6.6c0-3.6,4.5-6.6,6.2-6.6c1.7,0,6.2,3,6.2,6.6C21.2,12.4,18.4,15.3,15,15.3z M15,3.1
		c-1.2,0-5.2,2.6-5.2,5.6c0,3.1,2.3,5.6,5.2,5.6s5.2-2.5,5.2-5.6C20.2,5.7,16.2,3.1,15,3.1z"/>
	<path d="M15.1,3C15,3,14.9,3,14.8,3c-0.5-0.2-2.2-1-3.3-1.4c-0.7-0.3-1.1-0.3-1.5-0.3c-0.3,0-0.7,0-1.3-0.2C8.4,1,8.2,0.7,8.3,0.4
		C8.3,0.2,8.6,0,8.9,0.1C9.3,0.2,9.6,0.2,10,0.2c0.5,0,1,0.1,1.8,0.4C12.9,1,14.4,1.7,15,2c0.6-0.4,1.8-1,2.9-1
		c1.1,0,1.6-0.2,2.7-0.7l0.4-0.2c0.3-0.1,0.5,0,0.6,0.3c0.1,0.3,0,0.5-0.3,0.6L21,1.2C19.8,1.7,19.1,2,17.9,2
		c-0.8,0-1.8,0.5-2.4,0.9C15.3,3,15.2,3,15.1,3z"/>
	<path d="M15,25.7l-0.3-0.3c-0.3-0.3-3.3-2.7-3.3-4.6c0-1.2,1-2.1,2.1-2.1c0.6,0,1.1,0.2,1.5,0.6c0.4-0.3,0.9-0.5,1.4-0.5
		c1.2,0,2.1,1,2.1,2.1c0,1.9-2.9,4.3-3.3,4.6L15,25.7z M13.6,19.7c-0.6,0-1.1,0.5-1.1,1.1c0,1,1.5,2.6,2.6,3.6
		c1.1-1,2.6-2.6,2.6-3.6c0-0.6-0.5-1.1-1.1-1.1c-0.4,0-0.8,0.2-1,0.6c-0.1,0.2-0.4,0.3-0.7,0.2c-0.1-0.1-0.2-0.2-0.3-0.3
		C14.3,19.9,14,19.7,13.6,19.7z"/>
</g>
</svg>
