<svg id="Layer_1" data-name="Layer 1" xmlns="http://www.w3.org/2000/svg" viewBox="0 0 30 30"><title>Zeichenfläche 1</title><path d="M8.27,25.12,6.53,8.69A1.5,1.5,0,0,0,4.88,7.36l-2.19.23A1.49,1.49,0,0,0,1.36,9.24L3.1,25.66A1.5,1.5,0,0,0,4.75,27l2.18-.23A1.52,1.52,0,0,0,8.27,25.12Zm-1.44.65L4.64,26a.5.5,0,0,1-.55-.44L2.35,9.13a.51.51,0,0,1,.45-.55L5,8.35a.49.49,0,0,1,.55.45L7.27,25.22A.5.5,0,0,1,6.83,25.77Z"/><path d="M5.06,20.45a17.3,17.3,0,0,1,.26-2.55,16.63,16.63,0,0,0,.28-3.57,3,3,0,0,0-.15-.68C5.18,13,4.83,12,4.52,11.18S4,9.71,3.87,9.45A.5.5,0,0,0,3,9.86c.11.25.35.91.63,1.66s.67,1.84.94,2.51a10.86,10.86,0,0,1-.19,3.73,17.63,17.63,0,0,0-.27,2.74,20,20,0,0,0,1.09,4.43.49.49,0,0,0,.64.3.5.5,0,0,0,.3-.64A19,19,0,0,1,5.06,20.45Z"/><path d="M22.3,10.44,9.82,24.12a1.51,1.51,0,0,0,.1,2.12l2.36,2.15a1.5,1.5,0,0,0,2.12-.09L26.88,14.61a1.5,1.5,0,0,0-.1-2.12l-2.36-2.15A1.5,1.5,0,0,0,22.3,10.44Zm3.81,2.79a.5.5,0,0,1,0,.71L13.66,27.62a.49.49,0,0,1-.7,0L10.6,25.5a.49.49,0,0,1,0-.7L23,11.11a.5.5,0,0,1,.71,0Z"/><path d="M24,13.9a6.54,6.54,0,0,1-3.34,2.92,24.61,24.61,0,0,1,2-3,.5.5,0,0,0-.74-.68,32.83,32.83,0,0,0-3.4,5.5c-1.09,1.21-2.23,2.71-2.71,3.35a21,21,0,0,1-3.11,2.88.49.49,0,0,0-.1.7.5.5,0,0,0,.7.1,21.81,21.81,0,0,0,3.31-3.08c1.09-1.46,2-2.51,2.65-3.26l0,0a.25.25,0,0,1,0-.07,6.73,6.73,0,0,1,1.51-1.39,7.06,7.06,0,0,0,2.94-2,6.88,6.88,0,0,0,1.08-1.51.5.5,0,0,0-.25-.66A.49.49,0,0,0,24,13.9Z"/><path d="M11.8,16.93,29,5.7a1.49,1.49,0,0,0,.43-2.07L28.2,1.79a1.49,1.49,0,0,0-2.07-.44L9,12.58a1.51,1.51,0,0,0-.43,2.08l1.2,1.84A1.5,1.5,0,0,0,11.8,16.93ZM9.36,14.11a.49.49,0,0,1,.14-.69L26.67,2.19a.5.5,0,0,1,.69.14l1.21,1.84a.51.51,0,0,1-.15.7L11.25,16.1a.5.5,0,0,1-.69-.15Z"/><path d="M11.32,14.45c.37-.2,1.64-.67,2.1-.83a.5.5,0,0,0-.34-.94c-.17.06-1.73.62-2.24.89l0,0a.5.5,0,0,0,.51.86Z"/><path d="M15.05,12.3a18.57,18.57,0,0,1,2.94-2l.52-.3L20,9.17c3.64-2.11,5.66-3.3,5.92-3.53a11.27,11.27,0,0,0,1.24-1.56A.49.49,0,0,0,27,3.39a.48.48,0,0,0-.55,0,.38.38,0,0,0-.14.14,11.15,11.15,0,0,1-1.07,1.36c-.33.26-4,2.4-5.77,3.42L18,9.17l-.49.29a18.78,18.78,0,0,0-3.1,2.08.49.49,0,0,0-.06.7A.52.52,0,0,0,15.05,12.3Z"/></svg>