<svg xmlns="http://www.w3.org/2000/svg" viewBox="0 0 30 30"><path d="M29.5 30h-17a.5.5 0 0 1-.5-.5v-23a.5.5 0 0 1 .5-.5h17a.5.5 0 0 1 .5.5v23a.5.5 0 0 1-.5.5zM13 29h16V7H13v22zm11.375-4h-6.25C17.188 25 16 24.117 16 23.125V22a.5.5 0 1 1 1 0v1.125c0 .36.663.875 1.125.875h6.25c.386 0 .625-.454.625-.875V22a.5.5 0 1 1 1 0v1.125c0 .922-.608 1.875-1.625 1.875z"/><path d="M21 14.25a1 1 0 0 1-1-1c0-.357.32-.896.6-1.284a.52.52 0 0 1 .822 0c.27.388.6.927.6 1.284a1 1 0 0 1-1 1zm3.813 8.125c-.73 0-1.372-.34-1.786-.88-.423.54-1.077.88-1.823.88-.76 0-1.436-.365-1.866-.932-.448.563-1.145.932-1.9.932C16.1 22.375 15 21.287 15 20v-.625c0-.413.183-1.375 1.875-1.375h8.75c.964 0 1.375.4 1.375 1.375V20c0 1.376-.92 2.375-2.187 2.375zM23.53 20c0 .784.55 1.375 1.28 1.375.82 0 1.188-.7 1.188-1.375v-.625c0-.262-.032-.338-.04-.35.002.012-.077-.024-.336-.024h-8.75c-.58 0-.875.126-.875.375V20c0 .745.653 1.375 1.426 1.375s1.426-.63 1.426-1.375a.5.5 0 1 1 1 0c0 .77.594 1.375 1.352 1.375.745 0 1.328-.604 1.328-1.375a.5.5 0 0 1 .5-.5.5.5 0 0 1 .499.5z"/><path d="M21.5 19h-1a.5.5 0 0 1-.5-.5v-3a.5.5 0 0 1 .5-.5h1a.5.5 0 0 1 .5.5v3a.5.5 0 0 1-.5.5zm-.5-1v-2 2zm-8.5 12a.5.5 0 0 1-.232-.058l-12-6.305A.5.5 0 0 1 0 23.195V.5C0 .327.1.166.237.074A.5.5 0 0 1 .723.053l12 6A.5.5 0 0 1 13 6.5v23a.5.5 0 0 1-.5.5zM1 22.894l11 5.78V6.8L1 1.3v21.585z"/></svg>