<svg xmlns="http://www.w3.org/2000/svg" viewBox="0 0 30 30"><path d="M15 13.5C5.893 13.5.978 11.05.773 10.945a.5.5 0 0 1-.218-.672.5.5 0 0 1 .672-.219C1.275 10.08 6.155 12.5 15 12.5c8.87 0 13.725-2.42 13.773-2.445a.5.5 0 0 1 .672.218.5.5 0 0 1-.218.672C29.022 11.05 24.107 13.5 15 13.5z"/><path d="M15 21a.5.5 0 0 1-.46-.305l-3.182-7.5a.5.5 0 0 1 .921-.391L15 19.22l2.72-6.415a.5.5 0 0 1 .921.391l-3.182 7.5A.5.5 0 0 1 15 21zm11.455-1.25a.5.5 0 0 1-.388-.185l-5.1-6.25a.5.5 0 1 1 .776-.632l4.203 5.16V11.75a.5.5 0 1 1 1 0v7.5a.5.5 0 0 1-.333.471.51.51 0 0 1-.167.029zm-22.9 0c-.056 0-.113-.01-.167-.03a.5.5 0 0 1-.333-.471v-7.5a.5.5 0 1 1 1 0v6.095l4.203-5.16a.5.5 0 1 1 .776.632l-5.1 6.25a.5.5 0 0 1-.388.184z"/></svg>