<?xml version="1.0" encoding="UTF-8"?><svg version="1.1" viewBox="0 0 30 30" xmlns="http://www.w3.org/2000/svg" xmlns:xlink="http://www.w3.org/1999/xlink"><path d="M22.617,18.837l0.384,-1.2c0.063,-0.197 -0.003,-0.414 -0.165,-0.543c-0.164,-0.131 -0.389,-0.145 -0.565,-0.04l-1.086,0.641l-0.848,-0.676c-0.164,-0.13 -0.388,-0.145 -0.568,-0.038c-0.178,0.107 -0.272,0.313 -0.235,0.518l0.209,1.152l-1.082,0.639c-0.189,0.111 -0.283,0.334 -0.232,0.547c0.052,0.213 0.236,0.368 0.455,0.382l1.391,0.087l0.396,1.337c0.063,0.21 0.255,0.356 0.474,0.358h0.006c0.218,0 0.411,-0.141 0.474,-0.347l0.382,-1.198l1.169,-0.053c0.208,-0.01 0.388,-0.147 0.453,-0.345c0.065,-0.198 -0.001,-0.415 -0.164,-0.545l-0.848,-0.676Zm-1.001,0.634c-0.202,0.01 -0.378,0.14 -0.447,0.328l-0.033,-0.113c-0.059,-0.201 -0.238,-0.344 -0.448,-0.357l-0.117,-0.007c0.168,-0.109 0.256,-0.309 0.22,-0.508l-0.033,-0.185l0.076,0.061c0.162,0.13 0.388,0.144 0.565,0.04l0.252,-0.149l-0.089,0.278c-0.063,0.197 0.003,0.414 0.165,0.543l0.076,0.061l-0.187,0.008Zm-8.431,-0.246c-0.119,-0.171 -0.331,-0.252 -0.533,-0.199l-1.05,0.267l-0.726,-1.032c-0.121,-0.171 -0.332,-0.251 -0.532,-0.197c-0.201,0.051 -0.35,0.221 -0.374,0.427l-0.145,1.253l-1.05,0.267c-0.202,0.051 -0.351,0.222 -0.374,0.429c-0.022,0.207 0.085,0.407 0.271,0.501l1.043,0.53l-0.145,1.249c-0.024,0.219 0.095,0.428 0.296,0.516c0.065,0.028 0.134,0.042 0.201,0.042c0.143,0 0.282,-0.061 0.38,-0.175l0.91,-1.056l1.304,0.494c0.204,0.077 0.436,0.012 0.572,-0.161c0.134,-0.174 0.14,-0.414 0.014,-0.594l-0.724,-1.028l0.664,-0.964c0.118,-0.172 0.117,-0.398 -0.002,-0.569Zm-1.684,1.253c-0.114,0.166 -0.117,0.384 -0.01,0.552l-0.108,-0.041c-0.196,-0.072 -0.419,-0.018 -0.556,0.142l-0.076,0.089c0.014,-0.2 -0.092,-0.391 -0.272,-0.482l-0.168,-0.085l0.094,-0.024c0.201,-0.051 0.35,-0.221 0.374,-0.427l0.033,-0.292l0.169,0.24c0.12,0.17 0.329,0.249 0.532,0.197l0.094,-0.024l-0.106,0.155Zm12.3,-5.516c3.615,-2.856 5.969,-8.088 5.101,-11.582c-0.067,-0.267 -0.333,-0.433 -0.604,-0.365c-6.811,1.665 -11.323,6.061 -12.586,10.211c-1.705,-3.944 -6.535,-7.226 -14.295,-7.226c-0.276,0 -0.5,0.224 -0.5,0.5c0,3.202 1.695,5.727 5.001,7.532c-1.802,1.157 -3.001,3.174 -3.001,5.469c0,3.584 2.916,6.5 6.5,6.5c2.064,0 3.975,-0.978 5.192,-2.598c1.069,2.13 3.267,3.598 5.808,3.598c3.584,0 6.5,-2.916 6.5,-6.5c0,-2.344 -1.251,-4.395 -3.116,-5.539Zm4.228,-10.845c0.478,3.265 -1.846,7.913 -5.225,10.344c-0.74,-0.294 -1.544,-0.46 -2.387,-0.46c-1.539,0 -2.953,0.54 -4.068,1.438c0.065,-4.112 4.516,-9.382 11.68,-11.322Zm-13.507,13.664c-0.06,0.13 -0.116,0.261 -0.167,0.395c-0.031,0.08 -0.061,0.159 -0.088,0.24c-0.052,0.152 -0.096,0.307 -0.136,0.464c-0.018,0.069 -0.038,0.138 -0.054,0.208c-0.039,0.174 -0.068,0.351 -0.092,0.53c-0.008,0.057 -0.02,0.113 -0.026,0.171c-0.026,0.234 -0.041,0.472 -0.041,0.713c0,0.276 0.023,0.546 0.056,0.813c0.009,0.067 0.02,0.134 0.031,0.2c0.036,0.225 0.082,0.446 0.14,0.663c0.009,0.033 0.012,0.066 0.021,0.099c-0.986,1.686 -2.787,2.725 -4.748,2.725c-3.032,0 -5.5,-2.467 -5.5,-5.5c0,-3.033 2.468,-5.5 5.5,-5.5c2.331,0 4.383,1.449 5.17,3.625c-0.026,0.049 -0.043,0.103 -0.066,0.154Zm-5.105,-4.78c-0.858,0 -1.675,0.171 -2.425,0.474c-3.217,-1.567 -4.882,-3.686 -5.059,-6.469c8.238,0.163 12.813,4.232 13.411,8.528c0.001,0.282 0.029,0.557 0.063,0.831c-0.063,0.076 -0.118,0.158 -0.178,0.237c-1.085,-2.188 -3.311,-3.601 -5.812,-3.601Zm11,13c-2.447,0 -4.524,-1.607 -5.236,-3.821c-0.08,-0.249 -0.137,-0.504 -0.181,-0.759c-0.008,-0.05 -0.016,-0.1 -0.023,-0.15c-0.036,-0.255 -0.06,-0.512 -0.06,-0.769c0,0 0,0 0,0c0,-0.211 0.015,-0.422 0.039,-0.631c0.006,-0.056 0.017,-0.111 0.025,-0.166c0.023,-0.154 0.05,-0.306 0.085,-0.457c0.015,-0.063 0.032,-0.126 0.049,-0.188c0.038,-0.142 0.083,-0.281 0.133,-0.419c0.023,-0.063 0.044,-0.126 0.069,-0.188c0.06,-0.15 0.129,-0.297 0.202,-0.441c0.911,-1.783 2.762,-3.009 4.897,-3.009c3.032,0 5.5,2.467 5.5,5.5c0.001,3.031 -2.467,5.498 -5.499,5.498Z" fill="#000"></path></svg>