<svg xmlns="http://www.w3.org/2000/svg" viewBox="0 0 30 30"><path d="M22.617 18.837l.384-1.2a.5.5 0 0 0-.165-.543c-.164-.13-.39-.145-.565-.04l-1.086.64-.848-.676a.5.5 0 0 0-.803.48l.21 1.152-1.082.64a.5.5 0 0 0 .223.929l1.39.087.396 1.337a.5.5 0 0 0 .474.358h.006c.218 0 .41-.14.474-.347l.382-1.198 1.17-.053a.5.5 0 0 0 .289-.89l-.848-.676zm-1 .634c-.202.01-.378.14-.447.328l-.033-.113a.5.5 0 0 0-.448-.357l-.117-.007a.5.5 0 0 0 .22-.508l-.033-.185.076.06a.5.5 0 0 0 .565.04l.252-.15-.09.278a.5.5 0 0 0 .165.543l.076.06-.187.008zm-8.43-.246c-.12-.17-.33-.252-.533-.2l-1.05.267-.726-1.032c-.12-.17-.332-.25-.532-.197a.5.5 0 0 0-.374.427l-.145 1.253-1.05.267a.5.5 0 0 0-.103.93l1.043.53-.145 1.25a.5.5 0 0 0 .296.516.51.51 0 0 0 .201.042.5.5 0 0 0 .38-.175l.9-1.056 1.304.494c.204.077.436.012.572-.16a.5.5 0 0 0 .014-.594l-.724-1.028.664-.964a.5.5 0 0 0-.002-.569zM11.5 20.478a.5.5 0 0 0-.01.552l-.108-.04c-.196-.072-.42-.018-.556.142l-.076.09a.5.5 0 0 0-.272-.482l-.168-.085.094-.024a.5.5 0 0 0 .374-.427l.033-.292.17.24c.12.17.33.25.532.197l.094-.024-.106.155zm12.3-5.516c3.615-2.856 5.97-8.088 5.1-11.582-.067-.267-.333-.433-.604-.365-6.81 1.665-11.323 6.06-12.586 10.21C14.007 9.282 9.177 6 1.417 6a.5.5 0 0 0-.5.5c0 3.202 1.695 5.727 5 7.532-1.802 1.157-3 3.174-3 5.47a6.51 6.51 0 0 0 6.5 6.5 6.49 6.49 0 0 0 5.192-2.598c1.07 2.13 3.267 3.598 5.808 3.598a6.51 6.51 0 0 0 6.5-6.5c0-2.344-1.25-4.395-3.116-5.54zM28.03 4.117c.478 3.265-1.846 7.913-5.225 10.344a6.45 6.45 0 0 0-2.387-.46c-1.54 0-2.953.54-4.068 1.438.065-4.112 4.516-9.382 11.68-11.322zM14.522 17.78c-.06.13-.116.26-.167.395-.03.08-.06.16-.088.24-.052.152-.096.307-.136.464l-.054.208c-.04.174-.068.35-.092.53-.008.057-.02.113-.026.17-.026.234-.04.472-.04.713 0 .276.023.546.056.813a6.41 6.41 0 0 0 .031.2 6.61 6.61 0 0 0 .14.663c.01.033.012.066.02.1-.986 1.686-2.787 2.725-4.748 2.725a5.51 5.51 0 0 1-5.5-5.5 5.51 5.51 0 0 1 5.5-5.5 5.48 5.48 0 0 1 5.17 3.625c-.026.05-.043.103-.066.154zM9.417 13c-.858 0-1.675.17-2.425.474-3.217-1.567-4.882-3.686-5.06-6.47 8.238.163 12.813 4.232 13.41 8.528.001.282.03.557.063.83-.063.076-.118.158-.178.237a6.47 6.47 0 0 0-5.812-3.601zm11 13a5.51 5.51 0 0 1-5.236-3.821 5.58 5.58 0 0 1-.181-.759l-.023-.15a5.51 5.51 0 0 1-.06-.769c0-.21.015-.422.04-.63.006-.056.017-.11.025-.166.023-.154.05-.306.085-.457a5.75 5.75 0 0 1 .049-.188c.038-.142.083-.28.133-.42.023-.063.044-.126.07-.188a5.48 5.48 0 0 1 .202-.441c.91-1.783 2.762-3.01 4.897-3.01a5.51 5.51 0 0 1 5.5 5.5c.001 3.03-2.467 5.498-5.5 5.498z"/></svg>