<?xml version="1.0" encoding="UTF-8"?><svg version="1.1" viewBox="0 0 30 30" xmlns="http://www.w3.org/2000/svg" xmlns:xlink="http://www.w3.org/1999/xlink"><g fill="#000"><path d="M23.5,17c-0.3,0 -0.5,-0.2 -0.5,-0.5v-2c0,-4.2 -3.9,-13.5 -8,-13.5c-4.1,0 -8,9.3 -8,13.5v2c0,0.3 -0.2,0.5 -0.5,0.5c-0.3,0 -0.5,-0.2 -0.5,-0.5v-2c0,-4.8 4.2,-14.5 9,-14.5c4.8,0 9,9.7 9,14.5v2c0,0.3 -0.2,0.5 -0.5,0.5Z"></path><path d="M18.5,30h-7.1c-0.8,0 -1.6,-0.4 -2.1,-1.1c-0.5,-0.7 -0.6,-1.6 -0.3,-2.3c0.2,-0.5 0.5,-1 0.9,-1.4c-2.9,-1.8 -4.9,-5.1 -4.9,-8.7c0,-0.3 0.2,-0.5 0.5,-0.5h19c0.3,0 0.5,0.2 0.5,0.5c0,3.6 -2,6.9 -5.1,8.7c0.4,0.4 0.7,0.9 0.9,1.4c0.3,0.8 0.2,1.6 -0.3,2.3c-0.3,0.7 -1.1,1.1 -2,1.1Zm-12.5,-13c0.2,3.3 2.2,6.2 5.2,7.6c0.2,0.1 0.3,0.2 0.3,0.4c0,0.2 -0.1,0.4 -0.2,0.5c-0.5,0.4 -0.9,0.8 -1.2,1.4c-0.2,0.5 -0.1,1 0.2,1.4c0.3,0.4 0.7,0.7 1.2,0.7h7.1c0.5,0 1,-0.2 1.2,-0.7c0.3,-0.4 0.3,-0.9 0.2,-1.4c-0.2,-0.6 -0.6,-1.1 -1.2,-1.4c-0.2,-0.1 -0.2,-0.3 -0.2,-0.5c0,-0.2 0.1,-0.3 0.3,-0.4c3,-1.4 5,-4.4 5.2,-7.6h-18.1Z"></path><path d="M11.8,23.8c-0.1,0 -0.1,0 -0.2,0c-2.1,-1 -3.7,-2.8 -4.3,-5.1c-0.1,-0.3 0.1,-0.5 0.3,-0.6c0.3,-0.1 0.5,0.1 0.6,0.3c0.6,2 1.9,3.6 3.8,4.5c0.3,0.1 0.4,0.4 0.2,0.7c0,0.1 -0.2,0.2 -0.4,0.2Z"></path></g></svg>