<svg id="Layer_1" data-name="Layer 1" xmlns="http://www.w3.org/2000/svg" viewBox="0 0 30 30"><title>Zeichenfläche 1</title><path d="M25.5,3.8a1.61,1.61,0,0,0-1.1-.5c-1.3,0-3,1.8-3.8,2.7C19.5,4.4,17,3.5,14.3,3.9S9.5,6.1,9,8C7.8,7.4,5.7,6.4,4.4,6.8a1.08,1.08,0,0,0-.8.9,6.62,6.62,0,0,0,.8,5.4,1,1,0,0,0,.67.56.94.94,0,0,0,.63,0c1.3-.3,2.9-2,3.7-2.9,1.1,1.7,3.7,2.7,6.4,2.2s4.9-2.3,5.3-4.2c1.1.6,3.1,1.6,4.4,1.4a.37.37,0,0,0,.3-.1,1.42,1.42,0,0,0,.8-.9A6.74,6.74,0,0,0,25.5,3.8ZM5.8,12.6a.46.46,0,0,1-.6-.2A5.44,5.44,0,0,1,4.5,8a.42.42,0,0,1,.4-.3c.9-.2,2.8.7,3.9,1.4a1.37,1.37,0,0,0,.1.6A10.16,10.16,0,0,1,5.8,12.6ZM9.9,9.4C9.6,7.7,11,6,13.2,5.2L11.4,7.8a.62.62,0,0,0,.1.7c.1.1.2.1.4.1s.2-.1.3-.2l2.4-3.5a8.09,8.09,0,0,1,2.2,0l-4.7,6.8A3.34,3.34,0,0,1,9.9,9.4Zm6.9,2.3,1.8-2.5a.5.5,0,1,0-.8-.6L15.3,12a8.09,8.09,0,0,1-2.2,0l4.7-6.8a3.5,3.5,0,0,1,2.3,2.3C20.4,9.2,19,10.9,16.8,11.7Zm8.8-2.9c0,.3-.3.4-.5.4a9.48,9.48,0,0,1-3.9-1.6c0-.1-.1-.5-.1-.6.9-1.1,2.3-2.5,3.2-2.7,0,0,.37-.16.5.1A6.4,6.4,0,0,1,25.6,8.8Z"/><path d="M23.29,12.25a1.58,1.58,0,0,0-1.2-.12c-1.24.41-2.27,2.66-2.74,3.77-1.56-1.17-4.21-1.23-6.64,0S8.86,19.53,9,21.49c-1.33-.19-3.64-.46-4.74.33a1.06,1.06,0,0,0-.47,1.11,6.61,6.61,0,0,0,2.48,4.86,1,1,0,0,0,.81.32A1,1,0,0,0,7.68,28c1.14-.7,2.11-2.82,2.58-3.93,1.59,1.26,4.37,1.38,6.77,0s3.91-3.74,3.68-5.67c1.24.22,3.45.53,4.62-.08a.35.35,0,0,0,.25-.19,1.36,1.36,0,0,0,.47-1.1A6.7,6.7,0,0,0,23.29,12.25ZM7.42,26.87a.46.46,0,0,1-.63,0,5.45,5.45,0,0,1-2.07-3.94A.44.44,0,0,1,5,22.51c.79-.47,2.87-.23,4.14.09a1.22,1.22,0,0,0,.29.53A10,10,0,0,1,7.42,26.87Zm2.87-4.34c-.83-1.52,0-3.57,1.79-5l-.88,3a.61.61,0,0,0,.32.63c.12.06.22,0,.41,0s.16-.15.22-.28l1.16-4.08a7.73,7.73,0,0,1,2.08-.7L13.11,24A3.35,3.35,0,0,1,10.29,22.53Zm7.27,0,.91-2.94c.13-.26-.06-.51-.32-.63s-.5.06-.63.31l-1.28,4a7.79,7.79,0,0,1-2.09.7L16.44,16a3.49,3.49,0,0,1,2.91,1.45C20.18,19,19.39,21.05,17.56,22.51ZM25,17c.09.28-.16.47-.35.53a9.38,9.38,0,0,1-4.21-.27c0-.09-.25-.44-.28-.54.5-1.33,1.38-3.1,2.17-3.58,0,0,.3-.27.51-.06A6.43,6.43,0,0,1,25,17Z"/></svg>