<svg xmlns="http://www.w3.org/2000/svg" viewBox="0 0 30 30"><path d="M14.5 30c-1.41 0-3.5-.84-3.5-2l.02-.264c.326-4.432.636-8.617-.396-12.36a15.94 15.94 0 0 0-2.31-4.896c-.52-.747-.813-1.4-.873-1.94l-.414-3.784A4.33 4.33 0 0 1 8.1 1.399C8.896.5 10.033 0 11.218 0h6.564c1.185 0 2.32.5 3.118 1.4.815.91 1.207 2.133 1.073 3.355l-.413 3.783c-.06.542-.354 1.195-.874 1.94-1.054 1.51-1.83 3.157-2.308 4.894-1.033 3.745-.724 7.932-.396 12.364l.017.226C18 29.16 15.91 30 14.5 30zM11.218 1c-.914 0-1.757.38-2.374 1.066a3.33 3.33 0 0 0-.823 2.58l.413 3.783c.028.257.172.72.7 1.478 1.12 1.604 1.944 3.354 2.454 5.203 1.077 3.91.762 8.18.43 12.7l-.017.228c.048.233 1.23.962 2.5.962s2.453-.73 2.5-1.005l-.016-.184c-.333-4.52-.648-8.793.43-12.704.51-1.846 1.333-3.596 2.452-5.2.412-.6.66-1.115.7-1.48l.413-3.783c.103-.94-.197-1.88-.823-2.58C19.54 1.38 18.696 1 17.782 1h-6.564z"/><circle cx="14.5" cy="26.5" r=".5"/><path d="M16.86 10H15.5a.5.5 0 0 1-.5-.5V9h-1v.5a.5.5 0 0 1-.5.5h-1.36c-1.188 0-2.22-.845-2.45-2L9 4.598C9 3.12 10.12 2 11.5 2h6C18.88 2 20 3.12 20 4.5L19.312 8c-.233 1.165-1.264 2-2.452 2zM16 9h.86c.713 0 1.33-.507 1.47-1.205L19 4.402C19 3.673 18.327 3 17.5 3h-6A1.5 1.5 0 0 0 10 4.5l.67 3.295c.14.698.758 1.205 1.47 1.205H13v-.5a.5.5 0 0 1 .5-.5h2a.5.5 0 0 1 .5.5V9z"/></svg>