<svg xmlns="http://www.w3.org/2000/svg" viewBox="0 0 30 30"><path d="M18 29.8h-6a3.01 3.01 0 0 1-3-3l1-9.5c0-.7.2-1.4.5-2.1.2-.3.1-.7 0-1a5.53 5.53 0 0 1-.9-3V9.7c0-2.2 1.8-4.1 4.1-4.1h2.9c2.2 0 4.1 1.8 4.1 4.1v1.5a5.29 5.29 0 0 1-.9 3c-.2.3-.2.6 0 1 .3.7.5 1.4.5 2.2l1 9.4c-.2 1.7-1.6 3-3.3 3zM13.5 6.6a3.12 3.12 0 0 0-3.1 3.1v1.5c0 .9.3 1.7.8 2.5.4.6.4 1.3.1 2a3.53 3.53 0 0 0-.4 1.7l-1 9.5c0 1.1.9 2 2 2H18c1.1 0 2-.9 2-2l-1-9.4c0-.7-.1-1.2-.4-1.8s-.3-1.4.1-2c.5-.7.8-1.6.8-2.5V9.7a3.12 3.12 0 0 0-3.1-3.1h-2.9z"/><path d="M12.9 2.5h4.4V6h-4.4z" fill="#fff"/><path d="M17.8 6.5h-5.4V2h5.4v4.5zm-4.4-1h3.4V3h-3.4v2.5z"/><path d="M15.1 2.9a.47.47 0 0 1-.5-.5V.7a.47.47 0 0 1 .5-.5.47.47 0 0 1 .5.5v1.7a.47.47 0 0 1-.5.5zm-4.7 13.9h8.7v1h-8.7zm-1 9.5h11v1h-11z"/></svg>