<svg id="Ebene_1" data-name="Ebene 1" xmlns="http://www.w3.org/2000/svg" viewBox="0 0 30 30"><title>Zeichenfläche 1</title><path d="M27.57,13.13a2,2,0,0,0,.15-.68,1.63,1.63,0,0,0-.19-.74,2.57,2.57,0,0,0-2.22-3.86,2.47,2.47,0,0,0-1.22.32,4.39,4.39,0,0,0-6.16-.78,2.62,2.62,0,0,0-3,.14,2.53,2.53,0,0,0-1.22-.22,2.57,2.57,0,0,0-4.81.6,2.52,2.52,0,0,0-1.52,1,1.69,1.69,0,0,0-3,.5,4.45,4.45,0,0,0-2.31,3.73h-2v.51A13.42,13.42,0,0,0,5,24l.14.11h19.7L25,24a13.39,13.39,0,0,0,4.93-10.37v-.51ZM5,10.19l.24-.12,0-.26a.7.7,0,0,1,1.34-.19l.11.25.27,0a2.86,2.86,0,0,1,.42.1l.41.12L8,9.75a1.53,1.53,0,0,1,1.34-.89l.46,0,0-.46a1.57,1.57,0,0,1,1.56-1.5A1.55,1.55,0,0,1,12.9,8l.14.46.46-.12a1.46,1.46,0,0,1,1.23.21l.35.23.28-.31a1.6,1.6,0,0,1,2.23-.08l.35.33.34-.33a3.4,3.4,0,0,1,5.25.72l.31.51.45-.39a1.53,1.53,0,0,1,1-.39,1.57,1.57,0,0,1,1.57,1.57,1.59,1.59,0,0,1-.34,1l-.25.31.25.32a.65.65,0,0,1,.18.43c0,.2-.14.66-.48.68H3.06A3.41,3.41,0,0,1,5,10.19ZM24.49,23.12h-19a12.42,12.42,0,0,1-4.42-9H28.91A12.38,12.38,0,0,1,24.49,23.12Z"/><circle cx="6.87" cy="11.52" r="0.5"/><circle cx="12.28" cy="9.26" r="0.5"/><circle cx="17.98" cy="11.58" r="0.5"/><circle cx="21.07" cy="8.66" r="0.5"/><circle cx="21.76" cy="9.86" r="0.5"/><circle cx="25.18" cy="10.58" r="0.5"/><circle cx="12.4" cy="12.03" r="0.5"/><circle cx="5.17" cy="12.17" r="0.5"/></svg>