<svg xmlns="http://www.w3.org/2000/svg" viewBox="0 0 28 27"><path d="M10.51 17.5a.5.5 0 1 1-1 0v-17a.5.5 0 0 1 .5-.5h16.5a.5.5 0 0 1 .5.5v22a.5.5 0 0 1-.5.5h-10a.5.5 0 0 1 0-1h9.5V1h-15.5v16.5z"/><path d="M10.276 26.243c-4.424 0-8-3.772-8-8.413a.5.5 0 0 1 .5-.5h15a.5.5 0 0 1 .5.5c0 4.64-3.576 8.413-8 8.413zm0-1c3.702 0 6.74-3.047 6.984-6.913H3.292c.243 3.866 3.283 6.913 6.984 6.913zM13.1 4.23h10.23a.34.34 0 0 0 .341-.341v-1.705a.34.34 0 0 0-.341-.341H13.1a.34.34 0 0 0-.341.341v1.706a.34.34 0 0 0 .341.341zm.34-1.705H23v1.023h-9.55V2.525zm4.993 6.515c-.13-.116-.325-.116-.456 0-.03.025-.702.637-.702 1.43s.673 1.404.702 1.43c.065.057.147.087.228.087s.163-.03.228-.087c.03-.025.7-.637.7-1.43s-.67-1.404-.7-1.43zm-.228 2.085c-.12-.17-.248-.408-.248-.657s.125-.486.246-.657c.12.17.246.408.246.657s-.124.486-.245.657zm-2.727.695c-.003.04-.047.946.514 1.507.466.466 1.184.517 1.47.517l.077-.001c.18-.01.322-.16.322-.34 0-.037-.004-.935-.557-1.488-.466-.466-1.156-.517-1.432-.517l-.075.001a.34.34 0 0 0-.32.32zm1.345.675c.177.177.266.43.3.638-.216-.035-.485-.113-.66-.3s-.254-.432-.3-.638c.206.036.464.115.64.3zM20.6 11.5h-.075c-.276 0-.967.05-1.432.517-.553.552-.557 1.45-.557 1.487.001.18.143.33.322.34l.077.001c.286 0 1.004-.05 1.47-.517.56-.56.518-1.468.517-1.505-.01-.172-.15-.3-.324-.32zm-.677 1.345c-.176.176-.444.254-.66.3.045-.208.135-.46.312-.638s.433-.253.638-.3c-.035.206-.113.462-.3.638zm-4.045 1.297l-.077.001a.34.34 0 0 0-.322.321c-.003.04-.047.946.514 1.507.466.466 1.184.517 1.47.517l.076-.001c.173-.01.313-.15.322-.322.003-.04.045-.946-.514-1.507-.465-.465-1.182-.516-1.47-.516zm.598 1.348c-.177-.177-.256-.434-.3-.64.218.033.5.1.68.292s.256.434.3.64c-.22-.033-.5-.1-.68-.292zm4.124-1.346l-.077-.001c-.288 0-1.004.05-1.47.517-.56.56-.517 1.468-.516 1.507a.34.34 0 0 0 .322.321l.076.001c.286 0 1.004-.05 1.47-.517.56-.56.518-1.468.517-1.505-.01-.173-.15-.312-.322-.322zm-.677 1.347c-.18.18-.46.258-.68.292.035-.206.113-.464.3-.64s.46-.258.68-.292c-.036.206-.115.464-.292.64zm-3.763-5.12a.34.34 0 0 0 .341-.341v-3.07a.34.34 0 0 0-.682 0v3.07a.34.34 0 0 0 .341.341zm2.045-2.05a.34.34 0 0 0 .341-.341V5.594a.34.34 0 1 0-.682 0V7.98a.34.34 0 0 0 .341.341zm2.387 1.705v-3.07a.34.34 0 1 0-.682 0v3.07a.34.34 0 1 0 .682 0zM2.42 5.53l-.344 6.94c0 .452.35.702.783.702s.783-.25.783-.682l-.344-6.96c.918-.27 1.607-1.36 1.607-2.663C4.905 1.363 3.987.14 2.86.14S.812 1.362.812 2.866c0 1.303.7 2.394 1.607 2.663zm.44-4.7c.74 0 1.364.937 1.364 2.046S3.6 4.912 2.86 4.912s-1.364-.937-1.364-2.046S2.12.82 2.858.82z"/></svg>