<svg id="Ebene_1" data-name="Ebene 1" xmlns="http://www.w3.org/2000/svg" viewBox="0 0 30 30"><title>Zeichenfläche 1</title><g id="Page-1"><g id="Artboard"><g id="Group-9"><path id="Path-10" d="M10.87,19.38a.5.5,0,0,1-1,0v-17a.5.5,0,0,1,.5-.5h16.5a.5.5,0,0,1,.5.5v22a.5.5,0,0,1-.5.5h-10a.5.5,0,0,1-.5-.5.5.5,0,0,1,.5-.5h9.5v-21H10.87Z"/><path id="Oval-4" d="M10.64,28.12a8.21,8.21,0,0,1-8-8.41.5.5,0,0,1,.5-.5h15a.5.5,0,0,1,.5.5A8.21,8.21,0,0,1,10.64,28.12Zm0-1a7.18,7.18,0,0,0,7-6.91h-14A7.2,7.2,0,0,0,10.64,27.12Z"/><path id="Shape" d="M13.45,6.11H23.68A.34.34,0,0,0,24,5.77V4.06a.34.34,0,0,0-.34-.34H13.45a.34.34,0,0,0-.34.34V5.77A.34.34,0,0,0,13.45,6.11Zm.34-1.71h9.55v1H13.79Z"/><path d="M18.79,10.92a.33.33,0,0,0-.45,0,2.13,2.13,0,0,0-.7,1.43,2.19,2.19,0,0,0,.7,1.43.36.36,0,0,0,.23.08.35.35,0,0,0,.22-.08,2.19,2.19,0,0,0,.7-1.43,2.13,2.13,0,0,0-.7-1.43ZM18.57,13a1.1,1.1,0,0,1-.25-.65,1.2,1.2,0,0,1,.24-.66,1.13,1.13,0,0,1,.25.66,1.17,1.17,0,0,1-.24.65Z"/><path d="M15.84,13.7a2.18,2.18,0,0,0,.51,1.51,2.19,2.19,0,0,0,1.47.51h.08a.34.34,0,0,0,.32-.34,2.32,2.32,0,0,0-.55-1.49,2.12,2.12,0,0,0-1.44-.51h-.07a.34.34,0,0,0-.32.32Zm1.34.67a1.27,1.27,0,0,1,.31.64,1.13,1.13,0,0,1-.65-.29,1.1,1.1,0,0,1-.29-.63A1.16,1.16,0,0,1,17.18,14.37Z"/><path d="M21,13.38H20.9a2.12,2.12,0,0,0-1.44.51,2.32,2.32,0,0,0-.55,1.49.34.34,0,0,0,.32.34h.08a2.15,2.15,0,0,0,1.47-.52,2.1,2.1,0,0,0,.51-1.5.34.34,0,0,0-.32-.32Zm-.68,1.34a1.13,1.13,0,0,1-.66.29,1.34,1.34,0,0,1,.32-.64,1.16,1.16,0,0,1,.63-.28A1.1,1.1,0,0,1,20.29,14.72Z"/><path d="M16.24,16h-.08a.34.34,0,0,0-.32.32,2.18,2.18,0,0,0,.51,1.51,2.15,2.15,0,0,0,1.47.52h.08a.35.35,0,0,0,.32-.33,2.16,2.16,0,0,0-.51-1.5A2.14,2.14,0,0,0,16.24,16Zm.6,1.35a1.13,1.13,0,0,1-.29-.64,1.24,1.24,0,0,1,.68.29,1.28,1.28,0,0,1,.29.64A1.21,1.21,0,0,1,16.84,17.37Z"/><path d="M21,16h-.08a2.15,2.15,0,0,0-1.47.52,2.17,2.17,0,0,0-.51,1.5.35.35,0,0,0,.32.33h.08a2.15,2.15,0,0,0,1.47-.52,2.18,2.18,0,0,0,.51-1.51A.34.34,0,0,0,21,16Zm-.68,1.35a1.21,1.21,0,0,1-.68.29,1,1,0,0,1,1-.93,1.22,1.22,0,0,1-.3.64Z"/><path d="M16.52,12.25a.34.34,0,0,0,.34-.34V8.84a.34.34,0,0,0-.68,0v3.07A.34.34,0,0,0,16.52,12.25Z"/><path d="M18.57,10.2a.34.34,0,0,0,.34-.34V7.47a.34.34,0,0,0-.34-.34.35.35,0,0,0-.35.34V9.86A.35.35,0,0,0,18.57,10.2Z"/><path d="M21,11.91V8.84a.34.34,0,0,0-.68,0v3.07a.34.34,0,0,0,.68,0Z"/><path d="M4.24,8.56l-.35,7h0v0a.71.71,0,0,0,.79.68.7.7,0,0,0,.78-.68v0h0L5.12,8.56A2.67,2.67,0,0,0,6.72,5.9c0-1.5-.92-2.73-2-2.73s-2,1.23-2,2.73A2.66,2.66,0,0,0,4.24,8.56Zm.44-4.7c.74,0,1.36.93,1.36,2S5.42,8,4.68,8,3.31,7,3.31,5.9,3.94,3.86,4.68,3.86Z"/></g></g></g></svg>