<svg id="Layer_1" data-name="Layer 1" xmlns="http://www.w3.org/2000/svg" viewBox="0 0 30 30"><path d="M15.41,19.48a.42.42,0,0,0,0,.84.42.42,0,0,0,0-.84Z"/><path d="M17.51,19.78a.42.42,0,1,0,.42.42A.42.42,0,0,0,17.51,19.78Z"/><path d="M23.3,9.3a5.89,5.89,0,0,0-6.2-1.8A5.71,5.71,0,0,0,15,8.8a5,5,0,0,0-2.1-1.3A5.89,5.89,0,0,0,6.7,9.3a6.54,6.54,0,0,0-1.2,6.6,10.64,10.64,0,0,0,8,6.7c.1,0,.93.11,1.53.1a8.65,8.65,0,0,0,1.37-.1,10.46,10.46,0,0,0,8-6.7A6.55,6.55,0,0,0,23.3,9.3Zm-7.5.4a1.69,1.69,0,0,1,.8-.3,4.4,4.4,0,0,1,4.3,1.9,3.35,3.35,0,0,1,.1,3.6,5.8,5.8,0,0,1-1.3,1.5A6.6,6.6,0,0,1,15.5,15a4.61,4.61,0,0,0,.9-3.3A5.16,5.16,0,0,0,15.8,9.7Zm2.7,7.7a7.76,7.76,0,0,1-3.5,1h-.1a8.51,8.51,0,0,1-3.5-1,7.2,7.2,0,0,0,3.5-1.5A8,8,0,0,0,18.5,17.4ZM15,10.5a3.33,3.33,0,0,1,.4,1.3,4.62,4.62,0,0,1-.4,2.4,5.51,5.51,0,0,1-.4-2.4A3,3,0,0,1,15,10.5Zm-1.6-1a1.9,1.9,0,0,1,.8.3,6.51,6.51,0,0,0-.3.6,5.25,5.25,0,0,0-.3,1.4,5.4,5.4,0,0,0,.8,3.4,6.29,6.29,0,0,1-4.2,1.4,4.71,4.71,0,0,1-1.3-1.5A3.35,3.35,0,0,1,9,11.5,4.53,4.53,0,0,1,13.4,9.5Zm10.1,6.1a9.37,9.37,0,0,1-6.33,5.78.47.47,0,0,0,0-.17.45.45,0,0,0-.88-.16.29.29,0,0,0,0,.16h0a.45.45,0,0,0,.12.3h-.08a8.7,8.7,0,0,1-1.22.08,10.53,10.53,0,0,1-1.2-.1,9.35,9.35,0,0,1-6.3-4.3h.1a.4.4,0,1,0,0-.8c-.2,0-.3.1-.4.3a6.39,6.39,0,0,1-.6-1.2,5.58,5.58,0,0,1,1-5.6,4.65,4.65,0,0,1,5.1-1.5A6.13,6.13,0,0,0,9.12,9.88a.49.49,0,0,0-.18-.2h0a.47.47,0,0,0-.26-.08.5.5,0,0,0-.5.5.51.51,0,0,0,.25.44,4,4,0,0,0-.22.37A4.48,4.48,0,0,0,8,15.5a6.34,6.34,0,0,0,1.49,1.76.92.92,0,0,0,.22.18A9.15,9.15,0,0,0,14.9,19.3H15a9.12,9.12,0,0,0,5.19-1.84,1.46,1.46,0,0,1,.21-.16,5.17,5.17,0,0,0,1.5-1.8,4.18,4.18,0,0,0,.4-1h0l.14.08h0l.12,0a.41.41,0,0,0,.38-.26.3.3,0,0,0,0-.3.41.41,0,0,0-.38-.26H22.5a4.48,4.48,0,0,0-.7-2.9,5.26,5.26,0,0,0-4.4-2.4A4.77,4.77,0,0,1,22.5,10a5.45,5.45,0,0,1,1.2,2.4h-.08a.43.43,0,0,0-.39.26.4.4,0,0,0,0,.15.2.2,0,0,0,0,.11.4.4,0,0,0,.39.31.39.39,0,0,0,.18-.06A5.39,5.39,0,0,1,23.5,15.6Z"/><circle cx="9.63" cy="18.19" r="0.41"/><circle cx="10.63" cy="19.19" r="0.41"/><path d="M20.4,18.11a.41.41,0,1,0,.41.41A.42.42,0,0,0,20.4,18.11Z"/></svg>