<svg xmlns="http://www.w3.org/2000/svg" viewBox="0 0 30 30"><circle cx="7.5" cy="5.4" r=".7"/><circle cx="1.5" cy="15.2" r=".7"/><circle cx="3.9" cy="17.2" r=".7"/><circle cx="4.8" cy="19.6" r=".7"/><circle cx="12.3" cy="22.5" r=".7"/><circle cx="13.4" cy="25.4" r=".7"/><circle cx="14.8" cy="24.1" r=".7"/><circle cx="19.9" cy="23.1" r=".7"/><circle cx="25.6" cy="17.9" r=".7"/><circle cx="27.7" cy="15.1" r=".7"/><path d="M26.4 7.7c-2-1.7-4.9-2.3-7.3-1.5-.8.3-1.6.7-2.2 1.2-.2-.8-.6-1.6-1.2-2.3-1.6-2-4.3-3.1-6.9-2.8C4.9 2.7 2 5 .9 8.6c-1 3.1-.9 6.7.2 9.7 1.5 4.1 4.8 7 9.7 8.5 0 0 .2.1.3.1 1.8.5 3.5.8 5.1.8 2.9 0 5.5-.8 7.7-2.5 2.5-1.8 4.6-4.8 5.6-7.9 1-3.6-.1-7.1-3.1-9.6zM12.9 20.2c-2-.6-3.7-1.5-5-2.5 1.2.2 2.7.2 4.2-.4a12.81 12.81 0 0 0 2-1.1c.2.7.6 1.4 1 2.1.9 1.2 2.1 2.1 3.3 2.6-1.6.1-3.5-.1-5.5-.7zm2.7-8c0 .1 0 .1 0 0-.2.6-.5 1.2-.8 1.7 0-.6.1-1.2.3-1.8.2-.5.4-.9.7-1.3 0 .5 0 1-.2 1.4zm-1.4-.4c0 .1 0 .1 0 0 0 .1 0 .1 0 0-.3 1.1-.4 2.2-.3 3.2-.6.6-1.3 1-2.1 1.3-2.2.8-4.6.3-5.4-.2-.6-.8-1.1-1.6-1.4-2.5-.6-2 0-4.2 1.7-6.1 1.8-2 4.5-1.9 6.4-.8A5.44 5.44 0 0 1 15.3 9c-.5.9-.9 1.8-1.1 2.8zm1.8 5.9c-.5-.7-.8-1.5-1-2.3.7-.8 1.2-1.7 1.6-2.8v-.1c.3-1 .5-1.9.5-2.8 1-.6 2.2-.8 3.2-.7 2.2.2 4.5 1.6 4.8 4.2.3 2.5-.4 4.7-2 6-.7.6-1.6 1-2.5 1.3-1 0-3.3-.9-4.6-2.8zm12.4-.7c-.3 1.1-1.7 4.9-5.2 7.4-3.3 2.4-7.3 2.9-11.9 1.5-.1 0-.2-.1-.3-.1C.7 22.7.4 13.7 1.9 8.9c1-3.2 3.5-5.2 7-5.5 2.3-.2 4.6.7 6 2.5.4.6.9 1.3 1.1 2.3-.5-.9-1.3-1.6-2.4-2.2C11.4 4.7 8.1 4.5 6 7c-1.9 2.2-2.6 4.7-1.9 7 .3 1 .8 2 1.6 2.9 1.5 1.8 3.9 3.3 6.9 4.2 1.8.5 3.5.8 5 .8 1.1 0 2.2-.1 3.1-.4 1.1-.3 2.1-.8 2.9-1.5 1.9-1.6 2.7-4.1 2.3-6.9-.4-3.2-3.2-4.9-5.7-5.1-1.2-.1-2.3.1-3.2.5.7-.7 1.6-1.1 2.3-1.4 2.2-.6 4.7-.1 6.4 1.4 2.7 2.2 3.7 5.3 2.7 8.5z"/></svg>