<?xml version="1.0" encoding="UTF-8"?><svg version="1.1" viewBox="0 0 30 30" xmlns="http://www.w3.org/2000/svg" xmlns:xlink="http://www.w3.org/1999/xlink"><path d="M12,7c0.276,0 0.5,-0.224 0.5,-0.5c0,-0.276 -0.224,-0.5 -0.5,-0.5c-0.827,0 -1.5,0.673 -1.5,1.5c0,0.276 0.224,0.5 0.5,0.5c0.276,0 0.5,-0.224 0.5,-0.5c0,-0.276 0.225,-0.5 0.5,-0.5Zm6,1c-0.276,0 -0.5,0.224 -0.5,0.5c0,0.276 0.224,0.5 0.5,0.5c0.827,0 1.5,0.673 1.5,1.5c0,0.276 0.224,0.5 0.5,0.5c0.276,0 0.5,-0.224 0.5,-0.5c0,-1.378 -1.121,-2.5 -2.5,-2.5Zm3.5,-4.5c-0.319,0 -0.649,0.039 -0.998,0.117c-0.944,-2.181 -3.1,-3.617 -5.502,-3.617c-2.402,0 -4.558,1.436 -5.502,3.617c-0.349,-0.078 -0.679,-0.117 -0.998,-0.117c-2.757,0 -5,2.243 -5,5c0,1.818 0.974,3.459 2.561,4.346c0.319,2.282 1.89,4.098 3.976,4.815c0.012,0.035 0.018,0.071 0.038,0.103c2.337,3.769 2.075,5.418 1.713,7.699c-0.177,1.117 -0.378,2.384 -0.287,4.064c0.014,0.266 0.234,0.473 0.499,0.473c0.009,0 0.018,0 0.027,-0.001c0.276,-0.015 0.488,-0.25 0.472,-0.526c-0.085,-1.574 0.099,-2.733 0.277,-3.854c0.343,-2.168 0.642,-4.06 -1.433,-7.679c0.218,0.024 0.433,0.06 0.657,0.06c0.382,0 0.757,-0.036 1.123,-0.105c0.684,1.529 1.062,3.086 1.363,4.346c0.41,1.72 0.659,2.759 1.514,2.759c0.771,0 1.044,-1.019 1.642,-3.528c0.39,-1.63 0.975,-4.08 1.617,-4.537c0.53,-0.081 1.03,-0.249 1.494,-0.484c-4.069,9.04 -1.289,13.158 -1.161,13.339c0.097,0.137 0.252,0.21 0.408,0.21c0.101,0 0.201,-0.03 0.29,-0.093c0.225,-0.16 0.278,-0.472 0.119,-0.697c-0.03,-0.042 -2.913,-4.302 2.037,-13.983c0.042,-0.082 0.051,-0.168 0.046,-0.254c0.401,-0.543 0.71,-1.162 0.868,-1.853c1.89,-0.759 3.14,-2.58 3.14,-4.62c3.55271e-15,-2.757 -2.243,-5 -5,-5Zm-4.83,17.74c-0.211,0.885 -0.486,2.037 -0.709,2.566c-0.165,-0.384 -0.348,-1.152 -0.502,-1.797c-0.301,-1.266 -0.685,-2.823 -1.37,-4.392c0.736,-0.274 1.417,-0.684 2.005,-1.237c0.591,0.327 1.24,0.522 1.911,0.589c-0.505,0.935 -0.893,2.418 -1.335,4.271Zm6.096,-8.967c-0.175,0.059 -0.303,0.209 -0.334,0.391c-0.326,1.933 -1.98,3.335 -3.932,3.335c-0.786,0 -1.549,-0.23 -2.207,-0.667c-0.203,-0.136 -0.475,-0.103 -0.642,0.075c-0.959,1.027 -2.255,1.592 -3.651,1.592c-2.592,0 -4.732,-1.943 -4.976,-4.521c-0.016,-0.172 -0.122,-0.324 -0.277,-0.401c-1.386,-0.681 -2.247,-2.052 -2.247,-3.577c0,-2.206 1.794,-4 4,-4c0.358,0 0.726,0.061 1.157,0.192c0.258,0.079 0.531,-0.062 0.618,-0.316c0.695,-2.02 2.593,-3.377 4.725,-3.377c2.132,-1.11022e-16 4.031,1.357 4.725,3.377c0.088,0.254 0.364,0.394 0.618,0.316c0.431,-0.132 0.799,-0.193 1.157,-0.193c2.206,0 4,1.794 4,4c0,1.708 -1.098,3.225 -2.734,3.774Zm-8.766,-2.273c-1.379,0 -2.5,1.122 -2.5,2.5c0,0.276 0.224,0.5 0.5,0.5c0.276,0 0.5,-0.224 0.5,-0.5c0,-0.827 0.673,-1.5 1.5,-1.5c0.276,0 0.5,-0.224 0.5,-0.5c0,-0.276 -0.224,-0.5 -0.5,-0.5Z" fill="#000"></path></svg>