<?xml version="1.0" encoding="utf-8"?>
<!-- Generator: Adobe Illustrator 23.0.1, SVG Export Plug-In . SVG Version: 6.00 Build 0)  -->
<svg version="1.1" id="Layer_1" xmlns="http://www.w3.org/2000/svg" xmlns:xlink="http://www.w3.org/1999/xlink" x="0px" y="0px"
	 viewBox="0 0 30 30" style="enable-background:new 0 0 30 30;" xml:space="preserve">
<g>
	<path d="M15.9,15.7c-0.1,0-0.2,0-0.3-0.1c-0.2-0.1-0.3-0.5-0.2-0.7l9-14.5c0.1-0.2,0.5-0.3,0.7-0.2c0.2,0.1,0.3,0.5,0.2,0.7
		l-9,14.5C16.2,15.6,16.1,15.7,15.9,15.7z"/>
	<path d="M6.6,26.4c-0.1,0-0.2,0-0.3-0.1c-0.2-0.2-0.2-0.5,0-0.7c0.8-0.8,3-3.2,3.4-4.2c0.1-0.3,0.4-0.4,0.7-0.2
		c0.3,0.1,0.4,0.4,0.2,0.7C10,23.1,7.3,25.9,7,26.3C6.9,26.4,6.7,26.4,6.6,26.4z"/>
	<path d="M8.8,27.6C8.8,27.6,8.8,27.6,8.8,27.6c-0.3,0-0.5-0.3-0.5-0.6c0-0.1,0-0.4,1.5-3.2c0.1-0.2,0.4-0.3,0.7-0.2
		c0.2,0.1,0.3,0.4,0.2,0.7C10,25.5,9.4,27,9.3,27.2C9.3,27.5,9.1,27.6,8.8,27.6z"/>
	<path d="M11.5,29.1C11.5,29.1,11.5,29.1,11.5,29.1c-0.4,0-0.5-0.3-0.5-0.6c0.4-2.3,2.1-4,2.2-4.1c0.2-0.2,0.5-0.2,0.7,0
		c0.2,0.2,0.2,0.5,0,0.7c0,0-1.6,1.6-1.9,3.6C12,28.9,11.8,29.1,11.5,29.1z"/>
	<path d="M16.4,22.9c-0.1,0-0.2,0-0.2-0.1l-7.5-4.1c-0.2-0.1-0.3-0.4-0.2-0.7c0.1-0.2,0.4-0.3,0.7-0.2l7.5,4.1
		c0.2,0.1,0.3,0.4,0.2,0.7C16.7,22.8,16.6,22.9,16.4,22.9z"/>
	<path d="M12.7,29.8c-0.1,0-0.3,0-0.4-0.1l-7.3-3.8c-0.4-0.2-0.6-0.7-0.4-1.2l3.2-6c1-2,3.3-3,5.4-2.5l0.6-0.9
		c0.5-0.7,1.5-1,2.2-0.5c0.7,0.5,1,1.5,0.5,2.2l-0.5,0.9c1.3,1.5,1.5,3.7,0.5,5.5l-3.2,6C13.3,29.7,13,29.8,12.7,29.8z M5.7,25.1
		l7,3.7l3.1-5.9c0.8-1.5,0.6-3.4-0.6-4.6L14.9,18l0.9-1.6c0.2-0.3,0.1-0.7-0.2-0.8c-0.3-0.2-0.7-0.1-0.8,0.2l-1.1,1.5l-0.3-0.1
		c-1.8-0.5-3.7,0.3-4.6,2L5.7,25.1z"/>
</g>
</svg>
