<svg xmlns="http://www.w3.org/2000/svg" viewBox="0 0 24 24"><path d="M9.002 17.5c-.13 0-.26-.05-.358-.15a.5.5 0 0 1 .01-.708L22.167 3.468c.447-.448.447-1.185-.005-1.638-.44-.438-1.203-.438-1.643 0L7.36 15.34a.5.5 0 0 1-.717-.698L19.808 1.128c.826-.825 2.245-.82 3.062-.004.843.842.843 2.213 0 3.057L9.35 17.348c-.097.095-.223.142-.35.142z"/><path d="M1.73 23.5c-.368 0-.887-.05-1.125-.47-.286-.507.05-1.067.517-1.842.51-.848 1.146-1.903 1.146-3.076a3.62 3.62 0 0 1 3.617-3.612 3.62 3.62 0 0 1 3.618 3.612c0 2.025-2.31 4.377-4.847 4.934-1.433.314-2.336.454-2.926.454zm-.188-1.008a1.83 1.83 0 0 0 .188.008c.5 0 1.388-.14 2.71-.43 2.25-.494 4.062-2.568 4.062-3.957a2.62 2.62 0 0 0-2.618-2.612 2.62 2.62 0 0 0-2.617 2.612c0 1.45-.745 2.688-1.288 3.59l-.438.79z"/><path d="M7.502 21.5c-1.918 0-2.496-1.037-2.96-1.87-.38-.68-.63-1.13-1.54-1.13a.5.5 0 1 1 0-1c1.496 0 2.004.912 2.413 1.644.422.758.756 1.356 2.087 1.356a.5.5 0 1 1 0 1zm6-8.5a.5.5 0 0 1-.354-.146l-2-2a.5.5 0 0 1 .707-.707l2 2a.5.5 0 0 1-.353.853z"/></svg>