<svg xmlns="http://www.w3.org/2000/svg" viewBox="0 0 30 30"><path d="M26.98 12.086C26.777 5.386 21.713 0 15.5 0 9.314 0 4.267 5.34 4.023 12H3.5a1.5 1.5 0 1 0 0 3h1.102l3.172 13.598A1.77 1.77 0 0 0 9.5 30h11.764c.83 0 1.556-.59 1.72-1.383L26.4 15h.1a1.5 1.5 0 0 0 1.5-1.5c0-.658-.43-1.212-1.02-1.414zM15.5 1c5.636 0 10.235 4.892 10.477 11H5.023C5.265 5.892 9.864 1 15.5 1zm6.51 27.394c-.073.35-.388.606-.747.606H9.5a.77.77 0 0 1-.749-.618L5.63 15h19.73l-3.35 13.394zM26.5 14h-23a.5.5 0 1 1 0-1h23a.5.5 0 1 1 0 1z"/></svg>