<svg id="Layer_1" data-name="Layer 1" xmlns="http://www.w3.org/2000/svg" viewBox="0 0 30 30"><title>Zeichenfläche 1</title><path d="M17.91,13.23a6.07,6.07,0,0,0,.6-2.63c0-3.87-3.69-7-8.22-7s-8.23,3.15-8.23,7c0,3.38,2.83,6.21,6.58,6.86a5.25,5.25,0,0,0-.83,2.78c0,3.87,4.52,7,10.09,7S28,24.11,28,20.24,23.47,13.23,17.91,13.23ZM3.06,10.6c0-3.32,3.25-6,7.23-6s7.22,2.7,7.22,6a5.24,5.24,0,0,1-.76,2.68,11.12,11.12,0,0,0-7.42,3.27C5.8,16.16,3.06,13.64,3.06,10.6ZM17.9,26.26c-5,0-9.09-2.7-9.09-6s4.08-6,9.09-6,9.09,2.69,9.09,6S22.91,26.26,17.9,26.26Z"/><path d="M11.51,13.06c.15.36.37.44.53.44l.16,0c.47-.14.57-.17-.1-3.73a14.34,14.34,0,0,1,3.69-1.36c.53-.1.51-.5.5-.58-.06-.5-.06-.5-2.39-.42-1.17.05-2.63.1-3.13.05-.09,0-.35-.35-.5-.56s-.36-.47-.59-.73S9.1,5.5,8.62,5.77c-.23.14-.61.35,0,2.42a10.71,10.71,0,0,1-2.25,1c-.49.18-1,.4-1.72.67l-.46.19.12.43c.11.44.43.4,1.26.29a15.87,15.87,0,0,1,4.3-.18A11.29,11.29,0,0,1,11.51,13.06ZM8.76,9.51H8.29a5.36,5.36,0,0,0,1.26-.77l.26-.22L9.7,8.21c-.07-.23-.15-.47-.21-.69.36.47.67.87,1.19.92.35,0,1,0,1.81,0-.71.32-1.16.59-1.2.61L11,9.23l.07.35.21,1.15c-.38-.51-.69-.86-.72-.89l-.08-.1-.13,0A5.11,5.11,0,0,0,8.76,9.51Z"/><path d="M25.76,21a.49.49,0,0,0-.7,0A9.68,9.68,0,0,1,16,24.16a.49.49,0,0,0-.57.41.5.5,0,0,0,.41.58,13.34,13.34,0,0,0,2,.17,10.59,10.59,0,0,0,8-3.63A.51.51,0,0,0,25.76,21Z"/><path d="M22.53,19c2.74.22,3,.24,3-.33S25.25,18,23,17.4c-5.18-1.25-6.4-.86-7.8-.41l-.65.19c-1.39.22-4.08,1.54-4.27,2.1l-.09.31.22.22a.52.52,0,0,0,.37.15,1.06,1.06,0,0,0,.31-.06,24.13,24.13,0,0,1,7-1.17C19.36,18.71,21.11,18.85,22.53,19Zm-6.9-1.07a6,6,0,0,1,2-.33,14.27,14.27,0,0,1,2.23.21c-.64,0-1.26-.05-1.79,0A23.65,23.65,0,0,0,15.63,17.89Z"/></svg>