<?xml version="1.0" encoding="UTF-8"?><svg version="1.1" viewBox="0 0 30 30" xmlns="http://www.w3.org/2000/svg" xmlns:xlink="http://www.w3.org/1999/xlink"><g fill="#000"><path d="M14.369,26.478c-0.17,0 -0.337,-0.087 -0.431,-0.245l-0.256,-0.421c-0.528,-0.857 -1.074,-1.743 -1.074,-2.986c0.011,-2.037 1.675,-3.652 3.709,-3.652h1.835c0.276,0 0.5,0.224 0.5,0.5c0,0.276 -0.224,0.5 -0.5,0.5h-1.835c-1.485,0 -2.701,1.17 -2.709,2.608c0,1.004 0.429,1.7 0.926,2.505l0.266,0.436c0.141,0.238 0.062,0.544 -0.176,0.685c-0.08,0.048 -0.168,0.07 -0.255,0.07Z"></path><path d="M24.18,29h-16.745c-0.276,0 -0.5,-0.224 -0.5,-0.5c0,-1.667 1.355,-3.022 3.021,-3.022h4.413c0.276,0 0.5,0.224 0.5,0.5c0,0.276 -0.224,0.5 -0.5,0.5h-4.413c-0.942,0 -1.736,0.648 -1.959,1.522h16.183c0.229,0 0.443,-0.102 0.588,-0.279c0.146,-0.177 0.203,-0.407 0.158,-0.631l-0.353,-1.757c-0.055,-0.271 0.121,-0.534 0.392,-0.588c0.266,-0.053 0.534,0.12 0.589,0.392l0.353,1.757c0.104,0.519 -0.029,1.052 -0.365,1.461c-0.336,0.41 -0.833,0.645 -1.362,0.645Z"></path><path d="M7.435,29h-3.153c-0.264,0 -0.482,-0.205 -0.499,-0.468c-0.121,-1.872 0.517,-2.296 1.298,-2.624c0.699,-0.293 1.569,-0.658 0.699,-6.212c-0.043,-0.273 0.144,-0.529 0.417,-0.572c0.269,-0.041 0.528,0.143 0.571,0.417c0.918,5.862 -0.002,6.744 -1.301,7.289c-0.43,0.181 -0.693,0.291 -0.701,1.17h2.669c0.276,0 0.5,0.224 0.5,0.5c0,0.276 -0.224,0.5 -0.5,0.5Z"></path><path d="M9.767,26.481c-0.076,0 -0.153,-0.017 -0.226,-0.054c-0.246,-0.125 -0.345,-0.425 -0.221,-0.671c0.383,-0.758 0.335,-2.682 -0.141,-5.717c-0.043,-0.28 -0.18,-0.89 -0.266,-1.188c-0.076,-0.265 0.077,-0.542 0.342,-0.619c0.269,-0.078 0.542,0.077 0.619,0.342c0.098,0.339 0.243,0.988 0.293,1.31c0.68,4.336 0.381,5.656 0.045,6.322c-0.087,0.174 -0.263,0.275 -0.445,0.275Z"></path><path d="M25.028,25.707c-0.11,0 -0.222,-0.036 -0.313,-0.111c-0.215,-0.173 -0.249,-0.488 -0.076,-0.703c1.187,-1.471 1.84,-3.325 1.84,-5.219c0,-3.389 -2.024,-6.464 -5.037,-7.651l-0.144,-0.057c-0.257,-0.102 -0.382,-0.393 -0.28,-0.649c0.103,-0.257 0.395,-0.383 0.649,-0.279l0.139,0.054c3.395,1.338 5.673,4.787 5.673,8.583c0,2.122 -0.731,4.198 -2.061,5.847c-0.1,0.122 -0.244,0.185 -0.39,0.185Z"></path><path d="M16.152,10.389c-0.028,0 -0.058,-0.002 -0.086,-0.007c-0.648,-0.112 -1.318,-0.193 -1.99,-0.241c-0.275,-0.019 -0.483,-0.258 -0.464,-0.534c0.02,-0.276 0.288,-0.485 0.534,-0.463c0.705,0.05 1.408,0.135 2.09,0.252c0.272,0.047 0.455,0.306 0.408,0.578c-0.042,0.243 -0.253,0.415 -0.492,0.415Z"></path><path d="M10.041,23.543c-0.073,0 -0.146,-0.016 -0.216,-0.049l-0.706,-0.338c-2.518,-1.282 -4.075,-3.822 -4.075,-6.634c0,-0.954 0.182,-1.885 0.539,-2.765c0.103,-0.256 0.392,-0.379 0.651,-0.275c0.256,0.104 0.379,0.396 0.274,0.651c-0.309,0.761 -0.465,1.564 -0.465,2.389c0,2.434 1.348,4.632 3.518,5.738l0.695,0.333c0.249,0.119 0.354,0.418 0.235,0.667c-0.085,0.179 -0.263,0.283 -0.45,0.283Z"></path><path d="M27.608,23.326c-0.496,0 -0.972,-0.15 -1.376,-0.436c-0.226,-0.159 -0.279,-0.471 -0.121,-0.697c0.16,-0.227 0.472,-0.279 0.697,-0.121c0.234,0.166 0.512,0.253 0.8,0.253c0.768,0 1.392,-0.625 1.392,-1.392c0,-0.767 -0.624,-1.391 -1.392,-1.391c-0.163,0 -0.323,0.028 -0.475,0.083c-0.261,0.094 -0.546,-0.04 -0.641,-0.299c-0.095,-0.259 0.039,-0.546 0.299,-0.641c0.262,-0.095 0.536,-0.144 0.816,-0.144c1.318,0 2.392,1.073 2.392,2.391c0.001,1.321 -1.072,2.394 -2.391,2.394Z"></path><path d="M6.818,14.707c-0.048,0 -0.098,-0.007 -0.146,-0.022c-2.682,-0.818 -6.672,-3.064 -6.672,-5.894c0,-3.418 5.965,-7.269 9.144,-7.269c0.508,0 1.014,0.064 1.502,0.19c1.271,0.329 2.093,1.238 2.891,2.221c0.175,0.214 0.142,0.529 -0.072,0.704c-0.215,0.173 -0.53,0.141 -0.703,-0.073c-0.716,-0.881 -1.388,-1.63 -2.365,-1.884c-0.409,-0.105 -0.83,-0.158 -1.253,-0.158c-2.876,0 -8.144,3.686 -8.144,6.269c0,1.952 3.032,4.043 5.964,4.938c0.265,0.081 0.413,0.36 0.333,0.624c-0.067,0.215 -0.265,0.354 -0.479,0.354Z"></path><path d="M13.728,11.312c-0.063,0 -0.126,-0.012 -0.188,-0.037c-0.256,-0.104 -0.38,-0.396 -0.275,-0.651c0.37,-0.914 0.585,-1.907 0.604,-2.798c0.006,-0.272 0.229,-0.489 0.5,-0.489c0.003,0 0.007,0 0.011,0c0.276,0.006 0.495,0.234 0.489,0.511c-0.022,1.023 -0.257,2.113 -0.679,3.152c-0.078,0.194 -0.265,0.312 -0.462,0.312Z"></path><path d="M19.911,18.41c-0.521,0 -1.042,-0.142 -1.507,-0.421c-0.739,-0.443 -1.24,-1.178 -1.376,-2.018l-0.734,-4.196c-0.134,-0.829 -0.553,-1.817 -1.067,-2.524c-0.689,-0.945 -2.174,-1.686 -3.379,-1.686c-0.276,0 -0.5,-0.224 -0.5,-0.5c0,-0.276 0.224,-0.5 0.5,-0.5c1.515,0 3.314,0.901 4.188,2.096c0.6,0.825 1.089,1.981 1.244,2.947l0.734,4.196c0.09,0.554 0.419,1.035 0.904,1.326c0.491,0.293 1.072,0.358 1.594,0.178c0.763,-0.261 0.923,-1.202 0.923,-1.945v-0.104c0,-2.458 -0.534,-4.575 -1.786,-7.079c-0.532,-1.066 -1.474,-2.015 -1.482,-2.024c-1.444,-1.596 -3.18,-2.123 -4.776,-1.467l-2.633,0.953c-0.256,0.095 -0.547,-0.04 -0.64,-0.3c-0.095,-0.259 0.04,-0.546 0.3,-0.64l2.612,-0.945c1.961,-0.807 4.16,-0.17 5.861,1.71c0.025,0.025 1.046,1.052 1.652,2.267c1.309,2.616 1.892,4.937 1.892,7.525v0.104c0,1.511 -0.567,2.538 -1.599,2.891c-0.301,0.105 -0.613,0.156 -0.925,0.156Z"></path><path d="M8.51048,6.61952c0.24603,0.24603 0.24603,0.644924 0,0.890955c-0.24603,0.24603 -0.644924,0.24603 -0.890955,0c-0.24603,-0.24603 -0.24603,-0.644924 0,-0.890955c0.24603,-0.24603 0.644924,-0.24603 0.890955,0"></path><path d="M1.131,10.087c-0.189,0 -0.362,-0.107 -0.447,-0.276l-0.631,-1.261c-0.077,-0.155 -0.069,-0.339 0.021,-0.486c0.092,-0.148 0.253,-0.238 0.426,-0.238h1.261c0.173,0 0.334,0.09 0.425,0.237c0.092,0.147 0.1,0.331 0.022,0.486l-0.63,1.261c-0.085,0.17 -0.258,0.277 -0.447,0.277Z"></path></g></svg>