<?xml version="1.0" encoding="utf-8"?>
<!-- Generator: Adobe Illustrator 23.0.1, SVG Export Plug-In . SVG Version: 6.00 Build 0)  -->
<svg version="1.1" id="Ebene_1" xmlns="http://www.w3.org/2000/svg" xmlns:xlink="http://www.w3.org/1999/xlink" x="0px" y="0px"
	 viewBox="0 0 30 30" style="enable-background:new 0 0 30 30;" xml:space="preserve">
<title>np_butcher-knife_1800824_000000</title>
<desc>Created with Sketch.</desc>
<g id="Page-1">
	<g id="Artboard" transform="translate(-452.000000, -91.000000)">
		<g id="np_butcher-knife_1800824_000000" transform="translate(452.673981, 91.099175)">
			<path id="Shape" d="M10.3,28.8c-0.1,0-0.2,0-0.3-0.1l-7.1-7.1c-0.1-0.1-0.1-0.2-0.1-0.4c0-0.1,0.1-0.3,0.2-0.3
				c2.3-1.7,4.6-3.7,6.9-5.9c2.2-2.2,4.1-4.5,5.9-6.9c0.1-0.1,0.2-0.2,0.3-0.2c0.1,0,0.3,0,0.4,0.1l7.1,7.1c0.2,0.2,0.2,0.4,0,0.6
				c-1.8,2.4-3.8,4.8-6,7c-2.2,2.2-4.6,4.3-7,6C10.5,28.7,10.4,28.8,10.3,28.8L10.3,28.8z M4,21.3l6.4,6.4c2.2-1.6,4.4-3.5,6.5-5.6
				c2.1-2.1,4-4.3,5.6-6.5l-6.4-6.4c-1.7,2.3-3.6,4.5-5.6,6.5C8.4,17.7,6.2,19.6,4,21.3L4,21.3z"/>
			<path d="M9.1,27.5c-0.1,0-0.3-0.1-0.4-0.2c-0.2-0.2-0.1-0.5,0.1-0.7c2.3-1.7,4.7-3.7,6.9-5.9c0.2-0.2,0.5-0.2,0.7,0
				c0.2,0.2,0.2,0.5,0,0.7c-2.2,2.2-4.6,4.3-7,6C9.3,27.5,9.2,27.5,9.1,27.5L9.1,27.5z"/>
			<path d="M7,23c-0.4,0-0.8-0.2-1.1-0.4c-0.3-0.3-0.4-0.7-0.4-1.1c0-0.4,0.2-0.8,0.4-1.1c0.6-0.6,1.6-0.6,2.1,0
				c0.3,0.3,0.5,0.7,0.5,1.1c0,0.4-0.2,0.8-0.5,1.1C7.7,22.8,7.4,23,7,23L7,23z M7,20.9c-0.2,0-0.3,0.1-0.4,0.2
				c-0.1,0.1-0.2,0.3-0.2,0.4c0,0.2,0.1,0.3,0.2,0.4c0.2,0.2,0.6,0.2,0.8,0c0.1-0.1,0.2-0.3,0.2-0.4c0-0.2-0.1-0.3-0.2-0.4
				C7.3,20.9,7.1,20.9,7,20.9L7,20.9z"/>
			<path d="M18.6,11.3C18.5,11.3,18.5,11.3,18.6,11.3c-0.3,0-0.5-0.3-0.5-0.5c0.3-2.2,2.5-3.7,4.3-4.8c1.1-0.7,2.1-1.4,2.4-2
				c0.4-0.9-0.2-1.5-0.5-1.7c-0.5-0.4-1-0.4-1.2-0.2l-2.2,2.2c-1.5,1.5-3,3-4.4,4.4c-0.2,0.2-0.5,0.2-0.7,0c-0.2-0.2-0.2-0.5,0-0.7
				c1.5-1.5,3-3,4.4-4.4l2.2-2.2C23,0.8,24.1,1,24.8,1.5c1,0.7,1.3,1.8,0.8,2.8c-0.4,0.9-1.5,1.6-2.7,2.4c-1.7,1.1-3.7,2.4-3.9,4.2
				C19,11.1,18.8,11.3,18.6,11.3L18.6,11.3z"/>
			<path d="M23.3,4.1c-0.1,0-0.2,0-0.3-0.1c-0.2-0.2-0.2-0.5,0-0.7l0.4-0.4c0.2-0.2,0.5-0.2,0.7,0c0.2,0.2,0.2,0.5,0,0.7l-0.4,0.4
				C23.5,4,23.4,4.1,23.3,4.1L23.3,4.1z"/>
		</g>
	</g>
</g>
</svg>
