<svg xmlns="http://www.w3.org/2000/svg" viewBox="0 0 24 29"><path d="M8.323 28.1c-.12 0-.24-.047-.33-.138L.938 20.89c-.096-.097-.146-.23-.134-.367s.08-.26.192-.34c2.333-1.682 4.645-3.656 6.872-5.868 2.17-2.186 4.14-4.497 5.85-6.87.08-.1.205-.18.34-.192s.27.04.367.135l7.07 7.07c.162.16.183.417.05.603a57.43 57.43 0 0 1-5.965 6.985c-2.248 2.247-4.6 4.255-6.987 5.965a.46.46 0 0 1-.271.088zm-6.34-7.48l6.388 6.403c2.237-1.63 4.44-3.524 6.55-5.634 2.075-2.075 3.97-4.278 5.633-6.55L14.15 8.436c-1.662 2.256-3.552 4.454-5.625 6.54-2.124 2.108-4.322 4.003-6.543 5.642z"/><path d="M7.1 26.866a.47.47 0 0 1-.38-.195c-.15-.2-.102-.5.107-.65 2.347-1.68 4.658-3.654 6.87-5.866.182-.182.476-.182.66 0s.182.478-.001.66c-2.248 2.248-4.6 4.255-6.986 5.965a.45.45 0 0 1-.27.088zm-2.136-4.55a1.51 1.51 0 0 1-1.073-.445 1.51 1.51 0 0 1-.446-1.073c0-.405.158-.786.446-1.073.574-.574 1.572-.574 2.146 0 .292.282.457.665.457 1.073a1.49 1.49 0 0 1-.463 1.08c-.28.28-.662.44-1.067.44zm0-2.103a.58.58 0 0 0-.414.172.61.61 0 0 0-.172.414.58.58 0 0 0 .172.414c.222.222.605.222.826 0a.57.57 0 0 0 .184-.414.56.56 0 0 0-.178-.407.58.58 0 0 0-.419-.179zM16.55 10.62a.47.47 0 0 1-.053-.003.45.45 0 0 1-.4-.517c.254-2.228 2.496-3.67 4.297-4.83 1.082-.697 2.105-1.356 2.386-1.97.416-.884-.218-1.462-.5-1.67-.5-.363-1.028-.382-1.175-.24L18.86 3.618l-4.435 4.43c-.183.182-.478.18-.66-.002s-.18-.48.003-.66l6.66-6.66c.6-.587 1.646-.374 2.372.142.976.693 1.296 1.8.817 2.822-.392.858-1.475 1.555-2.728 2.362-1.72 1.108-3.67 2.364-3.875 4.152a.47.47 0 0 1-.465.414zm4.7-7.196c-.12 0-.238-.045-.33-.136-.183-.182-.183-.478-.001-.66l.395-.395c.182-.183.478-.183.66-.001s.183.478.001.66l-.395.395a.46.46 0 0 1-.33.138z"/></svg>