<svg viewBox="0 0 30 30" xmlns="http://www.w3.org/2000/svg">
    <path
        d="M11 28.9c-0.1 0-0.2 0-0.3-0.1l-7.1-7.1c-0.1-0.1-0.1-0.2-0.1-0.4 0-0.1 0.1-0.3 0.2-0.3 2.3-1.7 4.6-3.7 6.9-5.9 2.2-2.2 4.1-4.5 5.9-6.9 0.1-0.1 0.2-0.2 0.3-0.2 0.1 0 0.3 0 0.4 0.1l7.1 7.1c0.2 0.2 0.2 0.4 0 0.6 -1.8 2.4-3.8 4.8-6 7 -2.2 2.2-4.6 4.3-7 6C11.2 28.8 11.1 28.9 11 28.9L11 28.9zM4.7 21.4l6.4 6.4c2.2-1.6 4.4-3.5 6.5-5.6 2.1-2.1 4-4.3 5.6-6.5l-6.4-6.4c-1.7 2.3-3.6 4.5-5.6 6.5C9.1 17.8 6.9 19.7 4.7 21.4L4.7 21.4z" />
    <path
        d="M9.8 27.6c-0.1 0-0.3-0.1-0.4-0.2 -0.2-0.2-0.1-0.5 0.1-0.7 2.3-1.7 4.7-3.7 6.9-5.9 0.2-0.2 0.5-0.2 0.7 0 0.2 0.2 0.2 0.5 0 0.7 -2.2 2.2-4.6 4.3-7 6C10 27.6 9.9 27.6 9.8 27.6L9.8 27.6z" />
    <path
        d="M7.7 23.1c-0.4 0-0.8-0.2-1.1-0.4 -0.3-0.3-0.4-0.7-0.4-1.1 0-0.4 0.2-0.8 0.4-1.1 0.6-0.6 1.6-0.6 2.1 0 0.3 0.3 0.5 0.7 0.5 1.1 0 0.4-0.2 0.8-0.5 1.1C8.4 22.9 8.1 23.1 7.7 23.1L7.7 23.1zM7.7 21c-0.2 0-0.3 0.1-0.4 0.2 -0.1 0.1-0.2 0.3-0.2 0.4 0 0.2 0.1 0.3 0.2 0.4 0.2 0.2 0.6 0.2 0.8 0 0.1-0.1 0.2-0.3 0.2-0.4 0-0.2-0.1-0.3-0.2-0.4C8 21 7.8 21 7.7 21L7.7 21z" />
    <path
        d="M19.3 11.4C19.2 11.4 19.2 11.4 19.3 11.4c-0.3 0-0.5-0.3-0.5-0.5 0.3-2.2 2.5-3.7 4.3-4.8 1.1-0.7 2.1-1.4 2.4-2 0.4-0.9-0.2-1.5-0.5-1.7 -0.5-0.4-1-0.4-1.2-0.2l-2.2 2.2c-1.5 1.5-3 3-4.4 4.4 -0.2 0.2-0.5 0.2-0.7 0 -0.2-0.2-0.2-0.5 0-0.7 1.5-1.5 3-3 4.4-4.4l2.2-2.2C23.7 0.9 24.8 1.1 25.5 1.6c1 0.7 1.3 1.8 0.8 2.8 -0.4 0.9-1.5 1.6-2.7 2.4 -1.7 1.1-3.7 2.4-3.9 4.2C19.7 11.2 19.5 11.4 19.3 11.4L19.3 11.4z" />
    <path
        d="M24 4.2c-0.1 0-0.2 0-0.3-0.1 -0.2-0.2-0.2-0.5 0-0.7l0.4-0.4c0.2-0.2 0.5-0.2 0.7 0 0.2 0.2 0.2 0.5 0 0.7l-0.4 0.4C24.2 4.1 24.1 4.2 24 4.2L24 4.2z" />
</svg>
