<?xml version="1.0" encoding="UTF-8"?><svg version="1.1" viewBox="0 0 28 24" xmlns="http://www.w3.org/2000/svg" xmlns:xlink="http://www.w3.org/1999/xlink"><!--Generated by IJSVG (https://github.com/curthard89/IJSVG)--><g transform="matrix(1,0,0,1,-181,-2)"><path fill="#000" stroke="none" d="M27.6514,1.47409l-0.38143,-0.684703c-0.194142,-0.349844 -0.525,-0.594864 -0.95431,-0.706483c-0.63847,-0.167437 -1.43143,-0.014974 -2.12051,0.40703l-9.43775,5.78415c-0.0191404,0.0108902 -0.035546,0.024503 -0.0546875,0.0367547l-5.49605,3.2017h-4.5528c-2.47187,0 -4.48175,2.00243 -4.48175,4.46235v4.54668c1.11022e-16,2.46117 2.01113,4.46235 4.48175,4.46235h15.1211c2.47188,0 4.48175,-2.00243 4.48175,-4.46235l0.0027342,-4.54668c0,-2.46117 -2.01113,-4.46235 -4.48175,-4.46235h-0.747845c-0.035546,-0.336232 -0.142187,-0.662923 -0.319921,-0.96377l-0.267967,-0.456027l7.83405,-3.8633c0.724605,-0.356639 1.27421,-0.944708 1.47109,-1.57362c0.132618,-0.423339 0.0984375,-0.83037 -0.095704,-1.18157l5.53e-05,-0.00016379Zm-9.8273,7.58895c0.190039,0.32262 0.241993,0.699688 0.146289,1.06044c-0.0943355,0.362111 -0.325391,0.664282 -0.649425,0.853509l-1.85118,1.07814c-0.721875,-1.50284 -2.26408,-2.54422 -4.04565,-2.54422h-0.185937l5.1037,-2.97299l1.48221,2.52512Zm5.40995,9.45823c0,1.8976 -1.55039,3.44129 -3.45625,3.44129h-8.14555c0.99533,-0.819497 1.63243,-2.05822 1.63243,-3.44129v-4.54668c0,-1.38031 -0.631645,-2.615 -1.62284,-3.43449c1.80607,0.111623 3.24023,1.60902 3.24023,3.43449v2.4571c0,0.281781 0.229687,0.510461 0.51268,0.510461c0.282993,0 0.51268,-0.228693 0.51268,-0.510461l-0.0013674,-2.4571c0,-0.319899 -0.0341796,-0.631629 -0.0984375,-0.932476l2.03165,-1.18293c0.515445,-0.299481 0.89278,-0.766388 1.0787,-1.32588h0.85995c1.90585,0 3.45625,1.54368 3.45625,3.44129l-0.00012,4.54668Zm-22.0349,-4.54668c-1.33227e-15,-1.8976 1.55039,-3.44129 3.45625,-3.44129h4.12755c1.90586,0 3.45625,1.54368 3.45625,3.44129v4.54668c0,1.8976 -1.55039,3.44129 -3.45625,3.44129h-4.12615c-1.90585,0 -3.45625,-1.54368 -3.45625,-3.44129l-0.0014,-4.54668Zm16.0002,-7.99877l7.53445,-4.61742c0.340431,-0.209635 0.716415,-0.32262 1.03768,-0.32262c0.101171,0 0.196875,0.0108902 0.284375,0.0340316c0.154493,0.0408389 0.261131,0.111623 0.317187,0.213719l0.38143,0.684703c0.056056,0.102096 0.061523,0.230056 0.013672,0.381173c-0.113477,0.362111 -0.47579,0.731017 -0.94745,0.962411l-7.8981,3.89467l-0.723245,-1.23066Z" transform="matrix(1,0,0,1,181,2.5)"></path></g></svg>