<svg viewBox="0 0 30 30" xmlns="http://www.w3.org/2000/svg">
    <path
        d="M29 4.7l-0.4-0.7c-0.2-0.3-0.5-0.6-1-0.7 -0.6-0.2-1.4 0-2.1 0.4L15.4 10c0 0 0 0-0.1 0l-5.5 3.2H5.3c-2.5 0-4.5 2-4.5 4.5v4.5c0 2.5 2 4.5 4.5 4.5h17.3c2.5 0 4.5-2 4.5-4.5l0-4.5c0-2.5-2-4.5-4.5-4.5h-3c0-0.3-0.1-0.7-0.3-1L19 11.9 27.7 7.5c0.7-0.4 1.3-0.9 1.5-1.6C29.3 5.5 29.2 5.1 29 4.7L29 4.7zM18.4 12.8c0.2 0.3 0.2 0.7 0.1 1.1 -0.1 0.4-0.3 0.7-0.6 0.9l-1.9 1.1c-0.7-1.5-2.3-2.5-4-2.5h-0.2l5.1-3L18.4 12.8zM26.1 22.3c0 1.9-1.6 3.4-3.5 3.4H12.2c1-0.8 1.6-2.1 1.6-3.4v-4.5c0-1.4-0.6-2.6-1.6-3.4 1.8 0.1 3.2 1.6 3.2 3.4v2.5c0 0.3 0.2 0.5 0.5 0.5 0.3 0 0.5-0.2 0.5-0.5l0-2.5c0-0.3 0-0.6-0.1-0.9l2-1.2c0.5-0.3 0.9-0.8 1.1-1.3h3.1c1.9 0 3.5 1.5 3.5 3.4L26.1 22.3zM1.8 17.7c0-1.9 1.6-3.4 3.5-3.4h4.1c1.9 0 3.5 1.5 3.5 3.4v4.5c0 1.9-1.6 3.4-3.5 3.4H5.3c-1.9 0-3.5-1.5-3.5-3.4L1.8 17.7zM17.8 9.7l8.3-5.1c0.3-0.2 0.7-0.3 1-0.3 0.1 0 0.2 0 0.3 0 0.2 0 0.3 0.1 0.3 0.2l0.4 0.7c0.1 0.1 0.1 0.2 0 0.4 -0.1 0.4-0.5 0.7-0.9 1l-8.7 4.4L17.8 9.7z" />
</svg>
