<?xml version="1.0" encoding="UTF-8"?>
<svg viewBox="0 0 30 30" version="1.1" xmlns="http://www.w3.org/2000/svg" xmlns:xlink="http://www.w3.org/1999/xlink">
    <g id="Page-1" stroke="none" stroke-width="1" fill="none" fill-rule="evenodd">
        <g id="Outlines_black-Copy" transform="translate(-60.000000, -114.000000)">
            <g id="Group-3" transform="translate(3.000000, 114.000000)" fill="#000000" fill-rule="nonzero">
                <path d="M73.7196041,4.13100848 C68.0177856,4.13100848 63.6310085,8.53669412 63.6310085,15.1696513 C63.6310085,21.8741658 67.734291,25.8689915 73.5838831,25.8689915 C76.1535384,25.8689915 78.4006101,24.9424239 80.0962825,23.1621271 L77.7508707,20.347633 C76.6253151,21.3737668 75.2793171,21.9783223 73.7874647,21.9783223 C70.5122272,21.9783223 68.4717248,19.2923548 68.4717248,14.9660697 C68.4717248,10.8748529 70.7719591,8.02167766 73.8553252,8.02167766 C75.1867318,8.02167766 76.2569323,8.47009894 77.4440947,9.41531763 L79.8034693,6.53163765 C78.1507264,5.03991367 76.025101,4.13100848 73.7196041,4.13100848 Z M73.5838831,27 C67.1163322,27 62.5,22.5056853 62.5,15.1696513 C62.5,7.91314175 67.3920553,3 73.7196041,3 C76.5193469,3 79.0724326,4.1826794 80.9733874,6.08363424 C81.1788222,6.289069 81.1951654,6.61674803 81.0111917,6.84160478 L77.9574688,10.5739328 C77.7550514,10.8213319 77.3879702,10.8519135 77.1474055,10.6414194 C75.9610425,9.60335182 75.0332014,9.15268615 73.8553252,9.15268615 C71.4567194,9.15268615 69.6027333,11.452342 69.6027333,14.9660697 C69.6027333,18.7248796 71.2151252,20.8473139 73.7874647,20.8473139 C75.1398737,20.8473139 76.365987,20.2109766 77.3778198,19.12687 C77.61003,18.8780734 78.0077961,18.8892517 78.2256671,19.1506969 L81.27939,22.8151643 C81.4562264,23.027368 81.4538828,23.336272 81.273847,23.5457682 C79.3270519,25.8111298 76.6428059,27 73.5838831,27 Z" id="C-Copy-2"></path>
            </g>
            <g id="Slices" transform="translate(0.000000, 114.000000)"></g>
        </g>
    </g>
</svg>