<?xml version="1.0" encoding="UTF-8"?><svg version="1.1" viewBox="0 0 30 30" xmlns="http://www.w3.org/2000/svg" xmlns:xlink="http://www.w3.org/1999/xlink"><g fill="#000"><path d="M28.5,21.857c-0.024,0 -0.05,-0.002 -0.075,-0.006c-1.552,-0.232 -2.256,-1.053 -2.877,-1.776c-0.581,-0.676 -1.082,-1.26 -2.266,-1.438c-1.16,-0.172 -1.787,0.309 -2.514,0.867c-0.794,0.608 -1.693,1.304 -3.272,1.062c-1.583,-0.237 -2.286,-1.246 -2.907,-2.137c-0.579,-0.83 -1.079,-1.546 -2.235,-1.721c-1.162,-0.175 -1.788,0.309 -2.514,0.867c-0.792,0.608 -1.69,1.301 -3.272,1.062c-1.552,-0.232 -2.254,-1.035 -2.874,-1.743c-0.58,-0.662 -1.08,-1.234 -2.27,-1.413c-0.273,-0.041 -0.461,-0.295 -0.42,-0.568c0.041,-0.272 0.29,-0.463 0.569,-0.42c1.552,0.232 2.254,1.035 2.874,1.743c0.58,0.662 1.08,1.234 2.27,1.413c1.161,0.173 1.788,-0.308 2.514,-0.866c0.792,-0.609 1.689,-1.302 3.272,-1.063c1.583,0.237 2.286,1.247 2.907,2.137c0.579,0.83 1.079,1.547 2.235,1.721c1.16,0.174 1.787,-0.309 2.515,-0.867c0.793,-0.608 1.695,-1.299 3.271,-1.062c1.552,0.232 2.256,1.053 2.877,1.776c0.581,0.676 1.082,1.26 2.266,1.438c0.273,0.041 0.461,0.295 0.42,0.568c-0.037,0.249 -0.25,0.426 -0.494,0.426Z"></path><path d="M28.5,27c-0.025,0 -0.05,-0.002 -0.075,-0.006l-27,-4.114c-0.244,-0.037 -0.425,-0.247 -0.425,-0.494v-11.315c0,-0.167 0.083,-0.323 0.223,-0.416c0.305,-0.203 0.601,-0.408 0.895,-0.612c1.554,-1.078 3.16,-2.192 5.718,-2.677l0.812,-0.108c0.274,-0.037 0.525,0.156 0.561,0.431c0.036,0.273 -0.156,0.525 -0.43,0.562l-0.785,0.103c-2.322,0.44 -3.771,1.446 -5.306,2.51c-0.228,0.157 -0.456,0.317 -0.688,0.474v10.618l26,3.962v-10.744l-12.495,-7.46l-2.738,0.047c-0.278,0.03 -0.526,-0.152 -0.564,-0.427c-0.038,-0.273 0.153,-0.525 0.426,-0.563l0.373,-0.052l2.641,-0.005c0.09,0 0.179,0.024 0.256,0.07l12.857,7.676c0.151,0.091 0.244,0.254 0.244,0.43v11.61c0,0.146 -0.063,0.284 -0.174,0.379c-0.092,0.079 -0.207,0.121 -0.326,0.121Z"></path><path d="M28.5,15.386c-0.023,0 -0.047,-0.002 -0.07,-0.005l-27,-3.814c-0.273,-0.039 -0.464,-0.292 -0.425,-0.565c0.039,-0.272 0.29,-0.459 0.565,-0.425l27,3.814c0.273,0.039 0.464,0.292 0.425,0.565c-0.035,0.249 -0.249,0.43 -0.495,0.43Z"></path><path d="M10.5,9c-1.693,0 -3.071,-1.378 -3.071,-3.071c0,-4.147 1.487,-4.357 1.786,-4.357c0.275,0 0.498,0.222 0.5,0.496c0.005,0.238 0.091,0.79 0.786,0.79c1.619,0 2.961,1.271 3.056,2.894l0.014,0.143c1.77636e-15,1.727 -1.378,3.105 -3.071,3.105Zm-1.574,-6.064c-0.232,0.408 -0.497,1.254 -0.497,2.993c0,1.142 0.929,2.071 2.071,2.071c1.142,0 2.071,-0.929 2.071,-2.071l-0.011,-0.089c-0.066,-1.125 -0.97,-1.982 -2.06,-1.982c-0.828,-0.001 -1.322,-0.427 -1.574,-0.922Zm0.788,-0.865h0.01h-0.01Z"></path></g></svg>