<?xml version="1.0" encoding="iso-8859-1"?>
<!-- Generator: Adobe Illustrator 19.2.1, SVG Export Plug-In . SVG Version: 6.00 Build 0)  -->
<svg version="1.1" xmlns="http://www.w3.org/2000/svg" xmlns:xlink="http://www.w3.org/1999/xlink" x="0px" y="0px"
	 viewBox="0 0 30 30" style="enable-background:new 0 0 30 30;" xml:space="preserve">
<g id="Flag">
</g>
<g id="Umbrella">
</g>
<g id="Briefcase">
</g>
<g id="Box">
</g>
<g id="Magnet">
</g>
<g id="Percent">
</g>
<g id="Rocket">
</g>
<g id="Share">
</g>
<g id="Transmitter">
</g>
<g id="Record_2">
</g>
<g id="Record_1">
</g>
<g id="Anchor">
</g>
<g id="Airplane">
</g>
<g id="Car">
</g>
<g id="Newsfeed">
</g>
<g id="Wifi_Tethering">
</g>
<g id="No_Wifi_Tethering">
</g>
<g id="Bar_Chart_2">
</g>
<g id="Shop">
</g>
<g id="Alarm">
</g>
<g id="Sim_Card">
</g>
<g id="Radar">
</g>
<g id="Hand_2">
</g>
<g id="Palette">
</g>
<g id="Cake">
	<g>
		<g>
			<path d="M6.057,23.696c-0.444,0-0.892-0.059-1.334-0.178C2.531,22.929,1,20.854,1,18.474V16.5C1,14.57,2.57,13,4.5,13h21
				c1.93,0,3.5,1.57,3.5,3.5v1.975c0,2.401-1.61,4.535-3.829,5.075c-1.521,0.369-3.089,0.03-4.307-0.927
				c-0.594-0.467-1.062-1.047-1.384-1.694c-0.803,1.637-2.495,2.767-4.448,2.767c-1.951,0-3.641-1.135-4.439-2.777
				c-0.332,0.656-0.817,1.244-1.435,1.718C8.249,23.333,7.165,23.696,6.057,23.696z M4.5,14C3.122,14,2,15.121,2,16.5v1.974
				c0,1.93,1.227,3.607,2.982,4.08c1.241,0.331,2.542,0.074,3.567-0.712c0.987-0.757,1.553-1.872,1.553-3.06
				c0-0.276,0.224-0.5,0.5-0.5s0.5,0.224,0.5,0.5c0,2.157,1.763,3.913,3.93,3.913c2.175,0,3.945-1.756,3.945-3.913
				c0-0.276,0.224-0.5,0.5-0.5s0.5,0.224,0.5,0.5c0,1.189,0.548,2.303,1.504,3.055c0.974,0.766,2.231,1.038,3.453,0.74
				C26.711,22.146,28,20.42,28,18.475V16.5c0-1.379-1.122-2.5-2.5-2.5H4.5z"/>
		</g>
		<g>
			<path d="M24.5,30h-19C4.122,30,3,28.879,3,27.5v-5.11c0-0.276,0.224-0.5,0.5-0.5S4,22.113,4,22.39v5.11C4,28.327,4.673,29,5.5,29
				h19c0.827,0,1.5-0.673,1.5-1.5v-5.1c0-0.276,0.224-0.5,0.5-0.5s0.5,0.224,0.5,0.5v5.1C27,28.879,25.878,30,24.5,30z"/>
		</g>
		<g>
			<path d="M16.5,14h-3c-0.276,0-0.5-0.224-0.5-0.5v-6C13,6.673,13.673,6,14.5,6h1C16.327,6,17,6.673,17,7.5v6
				C17,13.776,16.776,14,16.5,14z M14,13h2V7.5C16,7.225,15.776,7,15.5,7h-1C14.224,7,14,7.225,14,7.5V13z"/>
		</g>
		<g>
			<path d="M15,7c-1.103,0-2-1.031-2-2.3c0-0.868,1.285-3.819,1.542-4.402c0.08-0.182,0.256-0.3,0.459-0.298
				c0.199,0.001,0.378,0.118,0.457,0.301C15.82,1.133,17,3.908,17,4.7C17,5.969,16.103,7,15,7z M14.997,1.78
				C14.455,3.092,14,4.356,14,4.7C14,5.417,14.449,6,15,6s1-0.583,1-1.3C16,4.388,15.535,3.1,14.997,1.78z"/>
		</g>
	</g>
</g>
<g id="Blende">
</g>
<g id="Feather_Pen">
</g>
<g id="Ticket">
</g>
<g id="Medal">
</g>
<g id="Mouse_Pointer_1">
</g>
<g id="Mouse_Pointer_2">
</g>
<g id="Fingerprint">
</g>
<g id="Earth">
</g>
</svg>
