<svg viewBox="0 0 30 30" xmlns="http://www.w3.org/2000/svg">
    <path
        d="M6.1 23.7c-0.4 0-0.9-0.1-1.3-0.2C2.5 22.9 1 20.9 1 18.5V16.5C1 14.6 2.6 13 4.5 13h21c1.9 0 3.5 1.6 3.5 3.5v2c0 2.4-1.6 4.5-3.8 5.1 -1.5 0.4-3.1 0-4.3-0.9 -0.6-0.5-1.1-1-1.4-1.7 -0.8 1.6-2.5 2.8-4.4 2.8 -2 0-3.6-1.1-4.4-2.8 -0.3 0.7-0.8 1.2-1.4 1.7C8.2 23.3 7.2 23.7 6.1 23.7zM4.5 14C3.1 14 2 15.1 2 16.5v2c0 1.9 1.2 3.6 3 4.1 1.2 0.3 2.5 0.1 3.6-0.7 1-0.8 1.6-1.9 1.6-3.1 0-0.3 0.2-0.5 0.5-0.5s0.5 0.2 0.5 0.5c0 2.2 1.8 3.9 3.9 3.9 2.2 0 3.9-1.8 3.9-3.9 0-0.3 0.2-0.5 0.5-0.5s0.5 0.2 0.5 0.5c0 1.2 0.5 2.3 1.5 3.1 1 0.8 2.2 1 3.5 0.7C26.7 22.1 28 20.4 28 18.5V16.5c0-1.4-1.1-2.5-2.5-2.5H4.5z" />
    <path
        d="M24.5 30h-19C4.1 30 3 28.9 3 27.5v-5.1c0-0.3 0.2-0.5 0.5-0.5S4 22.1 4 22.4v5.1C4 28.3 4.7 29 5.5 29h19c0.8 0 1.5-0.7 1.5-1.5v-5.1c0-0.3 0.2-0.5 0.5-0.5s0.5 0.2 0.5 0.5v5.1C27 28.9 25.9 30 24.5 30z" />
    <path
        d="M16.5 14h-3c-0.3 0-0.5-0.2-0.5-0.5v-6C13 6.7 13.7 6 14.5 6h1C16.3 6 17 6.7 17 7.5v6C17 13.8 16.8 14 16.5 14zM14 13h2V7.5C16 7.2 15.8 7 15.5 7h-1C14.2 7 14 7.2 14 7.5V13z" />
    <path
        d="M15 7c-1.1 0-2-1-2-2.3 0-0.9 1.3-3.8 1.5-4.4 0.1-0.2 0.3-0.3 0.5-0.3 0.2 0 0.4 0.1 0.5 0.3C15.8 1.1 17 3.9 17 4.7 17 6 16.1 7 15 7zM15 1.8C14.5 3.1 14 4.4 14 4.7 14 5.4 14.4 6 15 6s1-0.6 1-1.3C16 4.4 15.5 3.1 15 1.8z" />
</svg>
