<svg viewBox="0 0 30 30" xmlns="http://www.w3.org/2000/svg">
    <path
        d="M23.66,6.42C17.1,3.1,7.17,4.14,2.8,6.12,1.58,6.68.88,7.29.71,7.93a2.59,2.59,0,0,0-.06.87h0v5.87h0A2.29,2.29,0,0,0,1,16c1,1.59,4,2.39,7.09,3,1.5.31,2.09.7,4.42,3.88,1.54,2.1,4.34,2.84,7.11,2.84a14.45,14.45,0,0,0,7-1.64,6.1,6.1,0,0,0,2.65-3.8h0l.06-6.6a4.78,4.78,0,0,0,0-.76C29.28,11.24,28.22,8.74,23.66,6.42Zm4.61,13.81h0a5.13,5.13,0,0,1-2.19,3C23.69,24.76,16,26,13.31,22.3c-2.35-3.21-3.15-3.89-5-4.27-2.74-.56-5.64-1.31-6.44-2.59a1.28,1.28,0,0,1-.21-.78h0V10.5C3,11.64,5.48,12.3,8.08,12.84c1.5.31,2.09.7,4.42,3.88,1.54,2.1,4.34,2.83,7.11,2.83a14.61,14.61,0,0,0,7-1.63,6.24,6.24,0,0,0,1.71-1.66Zm.07-6.63h0v.05a5.06,5.06,0,0,1-2.27,3.43c-2.37,1.51-10,2.77-12.75-.95-2.35-3.21-3.15-3.89-5-4.27-2.74-.57-5.64-1.31-6.44-2.59a1.35,1.35,0,0,1-.16-1.1c0-.08.2-.52,1.54-1.14,4.18-1.9,13.7-2.89,20,.29C26.48,9,28.26,10.93,28.36,13A4.28,4.28,0,0,1,28.34,13.6Z" />
    <path
        d="M17.78,9.07c-1.31-.59-2.66-.31-3.08.63s.28,2.12,1.59,2.71,2.66.31,3.08-.63S19.09,9.65,17.78,9.07ZM16.7,11.49c-.81-.36-1.24-1-1.09-1.39s.95-.48,1.76-.12,1.25,1,1.09,1.39S17.51,11.86,16.7,11.49Z" />
    <path style="fill:none;stroke:#000;" d="M17.29,9.35s.55-3,1.51-2.82,6.18,1.8,7.91,4.3-7.78.71-7.78.71" />
    <path style="fill:none;stroke:#000;"
        d="M15.17,10.38a54.63,54.63,0,0,0-5.56.07c-1.54.19,1.8,1.11,2.77,2.89s1.44,2,2,1.22a28.83,28.83,0,0,0,1.51-2.89" />
    <path style="fill:none;stroke:#000;"
        d="M16.46,9.13S17,6.74,16,6.37C13.05,5.21,2.78,7.1,4.18,8,6.27,9.35,15.33,9.64,15.33,9.64" />
    <path style="fill:none;stroke:#000;"
        d="M18.19,12.12a24.41,24.41,0,0,0,7.69,1.48c2.28,0-.39,2.5-.39,2.5a9.93,9.93,0,0,1-9,1,1.73,1.73,0,0,1-1-1.42,16.19,16.19,0,0,1,1-3.5" />
</svg>