<svg xmlns="http://www.w3.org/2000/svg" viewBox="0 0 30 30"><path d="M22.8 17.8a.55.55 0 0 1-.5-.3c-.1-.3 0-.5.3-.6 3.8-1.4 6.1-3.8 6.1-6.4 0-4.2-6.1-7.7-13.6-7.7S1.5 6.3 1.5 10.5c0 2.3 1.8 4.5 5 6 .3.1.4.4.2.7-.1.3-.4.4-.7.2C2.4 15.7.4 13.2.4 10.5.4 5.7 7 1.8 15 1.8c8.1 0 14.6 3.9 14.6 8.7 0 3-2.5 5.7-6.7 7.3h-.1zM5.7 26.1C2.3 24.4.4 22 .4 19.4h1c0 2.2 1.7 4.3 4.7 5.8l-.4.9zm9.3 2h-.5v-1h.4c7.5 0 13.6-3.5 13.6-7.7h1c.1 4.8-6.4 8.7-14.5 8.7z"/><path d="M28.6 10.1h1v10.3h-1zm-28.2 0h1v10.3h-1zm14.7 18.1h-1v-9.5l.3-7.2-7.7 5.7v8.5h-1v-9l9.9-7.2-.5 9.2zM7.6 6.5c-.2 0-.5-.2-.5-.4 0-.3.1-.5.4-.6l9.9-1.6c.3 0 .5.1.6.4 0 .3-.1.5-.4.6l-10 1.6zM3 10.6c-.2 0-.4-.2-.5-.4 0-.3.1-.5.4-.6l19.7-3.5c.3 0 .5.1.6.4s-.1.5-.4.5L3 10.6zm14.2 1.7c-.2 0-.4-.2-.5-.4-.1-.3.1-.5.4-.6l9-1.7c.3-.1.5.1.6.4s-.1.5-.4.6l-9.1 1.7zm-.4 4.3c-.2 0-.4-.2-.5-.4-.1-.3.1-.5.4-.6l4.9-1c.3-.1.5.1.6.4s-.1.5-.4.6l-5 1zM4.9 14.3c-.2 0-.4-.2-.5-.4-.1-.3.1-.5.4-.6l2.7-.5c.3-.1.5.1.6.4s-.1.5-.4.6l-2.8.5z"/><path d="M5.9 26.2c-.2 0-.3-.1-.4-.2-.2-.2-.1-.5.1-.7l8.5-6.1c.2-.2.5-.1.7.1s.1.5-.1.7l-8.5 6.1c-.1.1-.2.1-.3.1z"/><path d="M15.2 19.2c-.5 0-.7 0-.8-.1-.3-.1-.4-.4-.3-.6.1-.3.3-.4.6-.3 0 0 .5.1 1.9 0a.47.47 0 0 1 .5.5.47.47 0 0 1-.5.5h-1.4z"/></svg>