<?xml version="1.0" encoding="UTF-8"?><svg version="1.1" viewBox="0 0 30 30" xmlns="http://www.w3.org/2000/svg" xmlns:xlink="http://www.w3.org/1999/xlink"><path d="M22.699,21.092c0.37,-0.975 0.324,-2.063 -0.11,-2.975l4.646,-4.647c0.818,-0.924 0.996,-2.29 0.458,-3.365l-0.628,-1.544c1.031,-1.555 1.182,-3.218 0.421,-4.709c-1.177,-2.304 -4.39,-3.852 -7.997,-3.852c-0.201,0 -0.383,0.121 -0.461,0.306c-0.079,0.185 -0.038,0.399 0.102,0.543c1.442,1.48 2.422,2.737 2.764,3.321c-0.538,0.073 -1.564,0.067 -2.279,-0.243c-0.346,-0.149 -0.562,-0.347 -0.642,-0.585c-0.083,-0.25 -0.347,-0.393 -0.602,-0.325c-0.255,0.067 -0.414,0.321 -0.363,0.58c0.48,2.432 1.894,4.514 3.691,5.432c1.364,0.698 2.921,0.739 4.527,0.128l0.555,1.361c0.373,0.748 0.254,1.669 -0.275,2.268l-4.489,4.488c-0.04,-0.043 -0.07,-0.093 -0.112,-0.134c-0.375,-0.361 -0.912,-0.885 -1.514,-1.475c0.344,-0.273 0.563,-0.694 0.563,-1.165c0,-0.827 -0.673,-1.5 -1.5,-1.5c-0.482,0 -0.91,0.226 -1.183,0.58c-1.101,-1.085 -2.066,-2.04 -2.368,-2.339c-0.198,-0.311 -0.748,-0.288 -0.903,0.049c-0.348,0.345 -1.272,1.259 -2.318,2.291c-0.272,-0.355 -0.7,-0.581 -1.183,-0.581c-0.827,0 -1.5,0.673 -1.5,1.5c0,0.471 0.219,0.892 0.564,1.165c-0.601,0.59 -1.139,1.114 -1.514,1.475c-0.211,0.202 -0.379,0.434 -0.526,0.678l-5.01,-5.009c-0.551,-0.621 -0.67,-1.542 -0.281,-2.325l0.54,-1.326c1.607,0.612 3.161,0.571 4.527,-0.128c1.796,-0.918 3.211,-2.999 3.691,-5.432c0.051,-0.259 -0.108,-0.513 -0.363,-0.58c-0.258,-0.069 -0.519,0.075 -0.602,0.325c-0.08,0.238 -0.296,0.435 -0.642,0.585c-0.714,0.31 -1.739,0.317 -2.279,0.243c0.343,-0.584 1.323,-1.841 2.764,-3.321c0.14,-0.144 0.181,-0.358 0.102,-0.543c-0.078,-0.185 -0.259,-0.306 -0.46,-0.306c-3.607,0 -6.821,1.548 -7.997,3.853c-0.762,1.491 -0.61,3.154 0.421,4.709l-0.613,1.509c-0.553,1.109 -0.375,2.476 0.463,3.421l5.329,5.33c-0.171,0.717 -0.135,1.486 0.122,2.201c-1.113,0.113 -2.583,0.857 -3.78,2.03c-0.917,0.899 -2.456,2.802 -2.456,5.447c0,0.276 0.224,0.5 0.5,0.5c0.276,0 0.5,-0.224 0.5,-0.5c0,-2.279 1.351,-3.944 2.156,-4.732c1.243,-1.22 2.577,-1.769 3.306,-1.769c0.013,-0.001 0.026,0 0.038,0c0.082,0 0.156,-0.025 0.225,-0.06c0.097,0.137 0.189,0.276 0.305,0.401c0.194,0.209 0.427,0.471 0.685,0.771c-1.374,0.302 -3.553,1.267 -4.335,2.886c-0.397,0.822 -0.592,2.149 0.728,3.813c0.099,0.124 0.245,0.189 0.392,0.189c0.109,0 0.219,-0.036 0.311,-0.109c0.217,-0.172 0.253,-0.487 0.081,-0.703c-0.812,-1.023 -1.012,-1.924 -0.611,-2.755c0.751,-1.553 3.394,-2.411 4.186,-2.43c0.293,0.352 0.599,0.725 0.912,1.109c-0.774,0.211 -1.908,0.739 -2.293,1.721c-0.358,0.914 -0.003,1.929 1.056,3.016c0.098,0.101 0.228,0.151 0.358,0.151c0.126,0 0.251,-0.047 0.347,-0.141c0.198,-0.193 0.202,-0.509 0.01,-0.707c-0.523,-0.537 -1.092,-1.312 -0.841,-1.954c0.306,-0.781 1.63,-1.178 2.009,-1.198c0.021,-0.001 0.039,-0.012 0.06,-0.015c1.351,1.679 2.63,3.316 2.942,3.717c0,0.002 0.001,0.004 0.002,0.006c0.084,0.171 0.273,0.28 0.464,0.28c0.191,0 0.365,-0.109 0.449,-0.28c0.007,-0.016 0.014,-0.032 0.02,-0.048c0.362,-0.464 1.607,-2.056 2.918,-3.685c0.031,0.008 0.06,0.022 0.093,0.024c0.379,0.019 1.703,0.417 2.009,1.198c0.252,0.642 -0.318,1.417 -0.841,1.954c-0.192,0.198 -0.188,0.514 0.01,0.707c0.098,0.095 0.223,0.142 0.349,0.142c0.13,0 0.26,-0.051 0.356,-0.152c1.059,-1.087 1.414,-2.102 1.056,-3.016c-0.391,-0.998 -1.553,-1.525 -2.327,-1.729c0.311,-0.382 0.617,-0.754 0.908,-1.104c0.003,0 0.005,0.001 0.007,0.001c0.743,0 3.378,1.042 4.135,2.655c0.384,0.817 0.214,1.643 -0.519,2.526c-0.177,0.212 -0.147,0.528 0.065,0.704c0.093,0.077 0.207,0.115 0.319,0.115c0.143,0 0.286,-0.062 0.385,-0.181c1.236,-1.488 1.038,-2.774 0.655,-3.59c-0.779,-1.658 -2.96,-2.766 -4.307,-3.107c0.261,-0.303 0.497,-0.57 0.693,-0.781c0.097,-0.105 0.172,-0.222 0.255,-0.335c0.771,0.034 1.768,0.618 2.631,1.464c1.391,1.363 2.188,3.197 2.188,5.03c0,0.276 0.224,0.5 0.5,0.5c0.276,0 0.5,-0.224 0.5,-0.5c0,-2.101 -0.907,-4.194 -2.488,-5.744c-0.902,-0.885 -1.9,-1.456 -2.812,-1.664Zm3.47,-12.993c-1.462,0.642 -2.812,0.654 -4.015,0.039c-1.147,-0.586 -2.117,-1.754 -2.708,-3.204c0.209,0.073 0.437,0.132 0.685,0.176c0.742,0.136 2.364,0.187 2.756,-0.296c0.154,-0.19 0.597,-0.736 -2.175,-3.751c2.718,0.287 5.002,1.519 5.882,3.244c0.611,1.198 0.464,2.507 -0.425,3.792Zm-22.766,-3.79c0.88,-1.725 3.164,-2.957 5.882,-3.244c-2.772,3.015 -2.329,3.561 -2.175,3.751c0.392,0.484 2.014,0.43 2.756,0.296c0.248,-0.045 0.477,-0.104 0.685,-0.177c-0.59,1.45 -1.56,2.618 -2.708,3.204c-1.203,0.614 -2.553,0.602 -4.015,-0.039c-0.889,-1.286 -1.036,-2.594 -0.425,-3.791Zm17.792,17.35c-1.4,1.503 -4.578,5.54 -5.717,6.997c-1.139,-1.457 -4.318,-5.495 -5.717,-6.997c-1,-1.073 -1.009,-2.848 -0.02,-3.799c0.487,-0.468 1.246,-1.209 2.064,-2.013c0.142,-0.139 0.188,-0.349 0.117,-0.535c-0.071,-0.186 -0.245,-0.312 -0.444,-0.321c-0.269,-0.012 -0.479,-0.228 -0.479,-0.491c0,-0.276 0.224,-0.5 0.5,-0.5c0.268,0 0.485,0.213 0.496,0.485c0.006,0.198 0.129,0.374 0.314,0.448c0.185,0.075 0.395,0.032 0.537,-0.108c1.073,-1.057 2.102,-2.074 2.633,-2.6c0.531,0.526 1.559,1.543 2.632,2.6c0.143,0.14 0.353,0.183 0.537,0.108c0.185,-0.073 0.308,-0.249 0.314,-0.448c0.01,-0.272 0.226,-0.485 0.495,-0.485c0.276,0 0.5,0.224 0.5,0.5c0,0.262 -0.21,0.478 -0.479,0.491c-0.199,0.009 -0.373,0.135 -0.444,0.321c-0.071,0.185 -0.025,0.395 0.117,0.535c0.818,0.804 1.577,1.546 2.063,2.013c0.989,0.951 0.98,2.726 -0.019,3.799Zm-9.544,-4.261c-0.481,0.47 -0.905,0.883 -1.218,1.183c-0.6,0.577 -0.572,1.719 0.058,2.396c0.215,0.232 0.472,0.521 0.755,0.851c0.099,0.115 0.238,0.174 0.379,0.174c0.116,0 0.231,-0.04 0.326,-0.122c0.209,-0.18 0.233,-0.496 0.053,-0.705c-0.293,-0.34 -0.558,-0.641 -0.781,-0.88c-0.275,-0.295 -0.287,-0.81 -0.097,-0.993c0.314,-0.301 0.74,-0.716 1.223,-1.188c0.198,-0.193 0.202,-0.51 0.009,-0.707c-0.192,-0.198 -0.509,-0.201 -0.707,-0.009Z" fill="#000"></path></svg>