<svg xmlns="http://www.w3.org/2000/svg" viewBox="0 0 30 30"><path d="M20.5 12H16v-1.04c1.28-.188 2.507-1.065 2.872-2.12.192-.56.31-1.658-1.063-2.735-1.695-1.328-1.87-3.76-1.85-4.908L16 .5a.5.5 0 0 0-.996-.065c-.005.042-.037.305-.047.71-.11 1.05-.49 3.147-1.814 4.503-1.428 1.462-1.192 2.747-.924 3.383.43 1.023 1.534 1.77 2.78 1.932V12H9.5A1.5 1.5 0 0 0 8 13.5v15A1.5 1.5 0 0 0 9.5 30h11a1.5 1.5 0 0 0 1.5-1.5v-15a1.5 1.5 0 0 0-1.5-1.5zm-7.36-3.355c-.3-.714-.053-1.508.717-2.296.677-.692 1.14-1.527 1.456-2.347.31 1.04.874 2.104 1.88 2.89.675.53.922 1.076.734 1.622C17.653 9.306 16.52 10 15.5 10c-1.054 0-2.024-.557-2.36-1.355zM21 28.5a.5.5 0 0 1-.5.5h-11a.5.5 0 0 1-.5-.5V15.413c.264.243.505.536.74.83.492.618 1 1.258 1.762 1.258.808 0 1.247-.602 1.568-1.04.097-.133.23-.316.333-.405.123.26.266.83.366 1.23.318 1.273.68 2.715 1.732 2.715.963 0 1.366-1.208 1.756-2.376.18-.54.515-1.543.744-1.624.51 0 1.04.488 1.465.88.392.36.675.62 1.035.62.208 0 .363-.098.5-.227V28.5zm0-13.245c-.158.186-.275.446-.39.725l-.184.42-.285-.255C19.617 15.66 18.898 15 18 15c-.922 0-1.296 1.12-1.692 2.307-.155.463-.565 1.693-.808 1.693-.18 0-.438-.66-.762-1.958C14.452 15.9 14.227 15 13.5 15c-.604 0-.957.482-1.238.87-.287.392-.48.63-.76.63s-.635-.448-.98-.88c-.41-.514-.877-1.072-1.52-1.42v-.7a.5.5 0 0 1 .5-.5h11a.5.5 0 0 1 .5.5v1.755z"/></svg>