<svg xmlns="http://www.w3.org/2000/svg" viewBox="0 0 30 30"><path d="M15 29.9c-4.3 0-7.7-4.1-7.7-9.2 0-4.2 5.1-10.9 6.7-12.9.2-.2.5-.4.8-.4s.6.1.8.4c1.7 2 7.1 8.7 7.1 12.9 0 5-3.4 9.2-7.7 9.2zm-.2-21.5c-1.6 1.9-6.6 8.4-6.6 12.3 0 4.5 3 8.2 6.7 8.2s6.7-3.7 6.7-8.2c.1-3.1-3.4-8.4-6.8-12.3zm-1.3 18h-.2c-1.9-.7-2.9-2-3.1-3.8s.6-4.1.7-4.2c.1-.3.4-.4.6-.3.3.1.4.4.3.6 0 0-.8 2.1-.6 3.7.2 1.4 1 2.4 2.5 2.9.3.1.4.4.3.6-.1.4-.3.5-.5.5zM6.6 14.1a1.54 1.54 0 0 1-1.5-1.5 1.54 1.54 0 0 1 1.5-1.5 1.54 1.54 0 0 1 1.5 1.5 1.54 1.54 0 0 1-1.5 1.5zm0-2a.47.47 0 0 0-.5.5.47.47 0 0 0 .5.5.47.47 0 0 0 .5-.5.47.47 0 0 0-.5-.5zm10.5-7.4a1.54 1.54 0 0 1-1.5-1.5 1.54 1.54 0 0 1 1.5-1.5 1.54 1.54 0 0 1 1.5 1.5 1.54 1.54 0 0 1-1.5 1.5zm0-2a.47.47 0 0 0-.5.5.47.47 0 0 0 .5.5.47.47 0 0 0 .5-.5.47.47 0 0 0-.5-.5zM3.3 7.1A2.65 2.65 0 0 1 .7 4.5a2.65 2.65 0 0 1 2.6-2.6 2.65 2.65 0 0 1 2.6 2.6 2.65 2.65 0 0 1-2.6 2.6zm0-4.2a1.58 1.58 0 0 0-1.6 1.6 1.58 1.58 0 0 0 1.6 1.6 1.58 1.58 0 0 0 1.6-1.6 1.58 1.58 0 0 0-1.6-1.6zM9.1 7c-.7 0-1.3-.6-1.3-1.3s.6-1.3 1.3-1.3 1.3.6 1.3 1.3S9.8 7 9.1 7zm0-1.5c-.1 0-.3.1-.3.3 0 .3.5.3.5 0 .1-.2-.1-.3-.2-.3zm14.8 5.4c-.7 0-1.3-.6-1.3-1.3s.6-1.3 1.3-1.3 1.3.6 1.3 1.3-.6 1.3-1.3 1.3zm0-1.5c-.1 0-.3.1-.3.3 0 .3.5.3.5 0 .1-.2 0-.3-.2-.3zm-3.7.3c-.9 0-1.7-.7-1.7-1.7s.7-1.7 1.7-1.7 1.7.7 1.7 1.7-.8 1.7-1.7 1.7zm0-2.3a.68.68 0 0 0-.7.7.68.68 0 0 0 .7.7.68.68 0 0 0 .7-.7c0-.4-.4-.7-.7-.7zm5-1.7c-.2 0-.5 0-.7-.1-1.4-.4-2.1-1.9-1.7-3.2C23.1 1 24.6.2 26 .6s2.1 1.9 1.7 3.2c-.3 1.1-1.4 1.9-2.5 1.9zm0-4.2c-.3 0-.5.1-.8.2-.4.2-.6.5-.8.9-.2.8.2 1.7 1.1 2 .8.2 1.7-.2 2-1.1.2-.8-.2-1.7-1.1-2h-.4z"/></svg>