<?xml version="1.0" encoding="UTF-8"?><svg version="1.1" viewBox="0 0 30 30" xmlns="http://www.w3.org/2000/svg" xmlns:xlink="http://www.w3.org/1999/xlink"><g fill="#000"><path d="M2.4,30c-1.3,0 -2.4,-1.1 -2.4,-2.3c0,-0.5 0.2,-1.1 0.5,-1.5l17.4,-22.4c0.9,-1.2 2.2,-1.8 3.6,-1.8c1.2,0 2.4,0.5 3.3,1.4l1.8,1.8c0.9,0.8 1.4,2 1.4,3.2c0,1.4 -0.6,2.8 -1.8,3.7l-22.4,17.4c-0.4,0.3 -0.9,0.5 -1.4,0.5Zm19.1,-27c-1.1,0 -2.2,0.5 -2.9,1.4l-17.3,22.4c-0.2,0.2 -0.3,0.5 -0.3,0.8c0,0.8 0.6,1.4 1.3,1.4c0.3,0 0.6,-0.1 0.8,-0.3l22.4,-17.4c0.9,-0.7 1.4,-1.7 1.4,-2.9c0,-1 -0.4,-1.9 -1.1,-2.6l-1.8,-1.8c-0.5,-0.6 -1.5,-1 -2.5,-1Z"></path><path d="M25,5c-0.1,0 -0.1,0 -0.2,0c-0.2,-0.1 -0.4,-0.3 -0.3,-0.6c0.2,-1.1 0.3,-2.8 -0.1,-3.3c0,-0.1 -0.1,-0.1 -0.2,-0.1c-0.3,0 -0.5,-0.2 -0.5,-0.5c0,-0.3 0.3,-0.5 0.5,-0.5c0.4,0 0.7,0.2 1,0.5c0.4,0.5 0.5,1.3 0.5,2.1c2,-2.2 3.9,-1.6 3.9,-1.6c0.3,0.1 0.4,0.4 0.3,0.6c-0.1,0.3 -0.4,0.4 -0.6,0.3c-0.1,0 -2,-0.6 -3.9,2.8c-0.1,0.2 -0.2,0.3 -0.4,0.3Z"></path><path d="M25,5c0,0 -0.1,0 -0.1,0c-0.3,-0.1 -0.4,-0.3 -0.4,-0.6c0.3,-1 0.5,-2.8 0.1,-3.3c0,0 -0.1,-0.1 -0.2,-0.1c-0.2,-4.44089e-16 -0.4,-0.2 -0.4,-0.5c0,-0.3 0.2,-0.5 0.5,-0.5c0.4,0 0.7,0.2 1,0.5c0.8,1 0.2,3.7 0,4.2c-0.1,0.2 -0.3,0.3 -0.5,0.3Z"></path><path d="M29.5,6c-0.3,0 -0.5,-0.2 -0.5,-0.5c0,-0.1 0,-0.1 -0.1,-0.2c-0.5,-0.5 -2.6,-0.5 -3.8,-0.3c-0.3,0 -0.5,-0.2 -0.6,-0.4c0,-0.3 0.2,-0.5 0.4,-0.6c0.6,-0.1 3.6,-0.4 4.6,0.6c0.3,0.2 0.5,0.5 0.5,0.9c0,0.3 -0.2,0.5 -0.5,0.5Z"></path><path d="M19,8c-0.1,0 -0.3,-0.1 -0.4,-0.2c0,0 -0.7,-0.8 -2.1,-0.8c-0.3,0 -0.5,-0.2 -0.5,-0.5c0,-0.3 0.2,-0.5 0.5,-0.5c1.9,0 2.8,1.1 2.9,1.2c0.2,0.2 0.1,0.5 -0.1,0.7c-0.1,0.1 -0.2,0.1 -0.3,0.1Z"></path><path d="M19.5,13.5c-0.3,0 -0.5,-0.2 -0.5,-0.5c0,-0.7 -1.5,-2 -2,-2c-0.3,0 -0.5,-0.2 -0.5,-0.5c0,-0.3 0.2,-0.5 0.5,-0.5c1,0 3,1.6 3,3c0,0.3 -0.2,0.5 -0.5,0.5Z"></path><path d="M16,19.5c-0.2,0 -0.4,-0.1 -0.5,-0.3c-0.5,-1.1 -1.1,-1.2 -1.1,-1.2c-0.3,-0.1 -0.5,-0.3 -0.4,-0.6c0.1,-0.3 0.3,-0.5 0.5,-0.4c0.1,0 1.1,0.2 1.9,1.8c0.1,0.2 0,0.5 -0.2,0.7c-0.1,0 -0.1,0 -0.2,0Z"></path><path d="M8.5,21c-0.1,0 -0.3,-0.1 -0.4,-0.2c-0.5,-0.6 -0.7,-0.8 -1.6,-0.8c-0.3,0 -0.5,-0.2 -0.5,-0.5c0,-0.3 0.2,-0.5 0.5,-0.5c1.4,0 1.8,0.5 2.3,1.1c0.2,0.2 0.2,0.6 0,0.7c-0.1,0.1 -0.2,0.2 -0.3,0.2Z"></path><path d="M14.5,14.5c-0.2,0 -0.4,-0.1 -0.5,-0.3c-0.2,-0.6 -1.2,-1.2 -2,-1.2c-0.3,0 -0.5,-0.2 -0.5,-0.5c0,-0.3 0.2,-0.5 0.5,-0.5c1.1,0 2.6,0.7 3,1.8c0.1,0.3 0,0.5 -0.3,0.6c-0.1,0.1 -0.1,0.1 -0.2,0.1Z"></path></g></svg>