<?xml version="1.0" encoding="UTF-8"?><svg version="1.1" viewBox="0 0 30 30" xmlns="http://www.w3.org/2000/svg" xmlns:xlink="http://www.w3.org/1999/xlink"><path d="M13.473,26c-0.276,0 -0.5,0.224 -0.5,0.5c0,0.276 0.224,0.5 0.5,0.5c9.742,0 13.068,-9.089 13.498,-14.459c0.022,-0.276 -0.183,-0.517 -0.458,-0.539c-0.278,-0.022 -0.517,0.183 -0.539,0.458c-0.402,5.03 -3.488,13.54 -12.501,13.54Zm12.987,-23.974c-1.212,-1.287 -2.5,-2.016 -3.498,-2.026c-1.76,0.035 -2.218,1.216 -2.521,1.998c-0.106,0.274 -0.206,0.532 -0.323,0.649c-0.201,0.202 -0.672,0.355 -1.128,0.502c-0.679,0.221 -1.449,0.47 -1.907,1.037c-0.343,0.426 -0.365,1.294 -0.379,3.061c-0.017,2.242 -0.04,5.312 -1.148,6.977l0.417,0.277l-0.416,-0.276c-0.674,1.011 -3.119,2.022 -5.992,1.285c-3.335,-0.623 -5.588,0.542 -6.893,1.627c-1.772,1.472 -2.699,3.529 -2.699,4.883c0,1.488 -0.001,3.525 1.713,5.183c1.95,1.881 5.641,2.797 11.287,2.797c10.787,0 16.434,-9.917 16.998,-16.961c0.485,-6.057 -2.294,-9.721 -3.511,-11.013Zm2.514,10.935c-0.533,6.659 -5.851,16.039 -16.001,16.039c-5.299,0 -8.863,-0.847 -10.592,-2.518c-1.409,-1.361 -1.408,-3.081 -1.408,-4.547c0,-0.867 0.726,-2.691 2.338,-4.03c0.92,-0.764 2.384,-1.572 4.447,-1.572c0.495,0 1.025,0.046 1.591,0.151c3.155,0.812 6.059,-0.231 7.041,-1.708c1.272,-1.912 1.297,-5.155 1.315,-7.522c0.008,-0.983 0.017,-2.207 0.157,-2.44c0.271,-0.335 0.864,-0.528 1.438,-0.714c0.594,-0.193 1.155,-0.375 1.527,-0.747c0.265,-0.266 0.408,-0.636 0.547,-0.994c0.29,-0.748 0.519,-1.338 1.608,-1.359c0.59,0.014 1.624,0.514 2.75,1.711c1.126,1.198 3.696,4.591 3.242,10.25Z" fill="#000"></path></svg>