<svg xmlns="http://www.w3.org/2000/svg" viewBox="0 0 30 30"><path d="M15 29.2C7.1 29.2.7 22.5.7 14.2c0-2.3 1.2-4.8 1.5-5.4.1-1 .7-6.4 2.6-7.7 1.4-1 2.9.7 4.5 2.5 1 1.1 2 2.3 3.1 2.9.1 0 .5-.1.9-.1.6-.1 1.3-.2 2-.2s1.4.1 2 .2c.5.1 1.2.2 1.3.1 1.1-.7 2.1-1.9 3-3C23 1.7 24.5 0 25.9 1.1c1.8 1.5 2 6.8 2 7.7.2.5 1.3 3.3 1.3 5.3.1 8.4-6.3 15.1-14.2 15.1zM5.7 1.8c-.1 0-.2 0-.3.1C4 2.9 3.3 7.4 3.2 9l-.1.2s-1.4 2.7-1.4 5c0 7.7 6 14 13.3 14s13.3-6.3 13.3-14c0-2-1.3-5-1.3-5V9c0-1.6-.4-6-1.7-7.1-.6-.5-1.5.5-3 2.2-1 1.2-2 2.5-3.2 3.3-.4.3-1 .2-2 0-.6-.1-1.2-.2-1.9-.2-.6 0-1.3.1-1.8.2-.8.1-1.2.2-1.5 0-1.2-.7-2.3-1.9-3.3-3.1-1.1-1.2-2.2-2.5-2.9-2.5z"/><circle cx="10.9" cy="11.6" r=".7"/><circle cx="19.1" cy="11.6" r=".7"/><path d="M5.8 7.3a.47.47 0 0 1-.5-.5s.2-2.9.8-3.3c.2-.2.5-.1.7.1.1.2.1.5-.1.6-.1.4-.4 2.1-.4 2.6 0 .3-.3.5-.5.5zm19 .1a.47.47 0 0 1-.5-.5c0-.5-.3-2.2-.5-2.6a.47.47 0 0 1-.1-.6c.2-.2.5-.3.7-.1.7.4.8 3.3.8 3.3.1.3-.1.5-.4.5zM15 21.9c-.5 0-1-.2-1.4-.6l-.8-.8c-.4-.4-.6-.8-.6-1.3 0-.4.1-.8.4-1.1s.7-.5 1.2-.5h2.4c.7 0 1.3.5 1.4 1.1a2.27 2.27 0 0 1-.5 1.8l-.8.8c-.3.4-.8.6-1.3.6zm-1.1-3.3c-.2 0-.3.1-.5.2-.1.1-.2.2-.2.4a1.08 1.08 0 0 0 .3.7l.8.8c.4.4 1 .4 1.4 0l.8-.8c.2-.2.3-.6.3-.9 0-.2-.2-.3-.5-.3h-2.4zm5.5.8a.55.55 0 0 1-.5-.3c-.1-.3 0-.5.3-.6l5-2c.3-.1.5 0 .6.3s0 .5-.3.6l-5 2h-.1z"/><path d="M24.1 22.2l-5.4-.8c-.3 0-.5-.3-.4-.6 0-.3.3-.5.6-.4l5.3.8c.3 0 .5.3.4.6 0 .2-.3.4-.5.4zm-13.3-2.5h-.1L4.5 18c-.3-.1-.4-.3-.3-.6s.3-.4.6-.3l6.2 1.7c.3.1.4.3.3.6-.1.1-.3.3-.5.3zm-4.6 3.1c-.2 0-.4-.1-.5-.4s.1-.5.4-.6l4.9-1.3c.3-.1.5.1.6.4s-.1.5-.4.6l-4.9 1.3h-.1zm6.8 1.7c-.7 0-1.3-.3-1.4-.3-.2-.1-.3-.4-.2-.7.1-.2.4-.3.7-.2.2.1 1 .4 1.4.1.5-.3.7-1.1.7-1.8a.47.47 0 0 1 .5-.5.47.47 0 0 1 .5.5c-.1 1.3-.5 2.2-1.2 2.6a1.69 1.69 0 0 1-1 .3z"/><path d="M16.9 24.5a1.93 1.93 0 0 1-1-.3c-.7-.4-1.1-1.3-1.2-2.6a.47.47 0 0 1 .5-.5.47.47 0 0 1 .5.5c0 .6.2 1.5.7 1.8s1.2 0 1.4-.1.5 0 .7.2 0 .5-.2.7c-.1 0-.7.3-1.4.3z"/></svg>