<?xml version="1.0" encoding="UTF-8"?>
<svg version="1.1" viewBox="0 0 30 29" xmlns="http://www.w3.org/2000/svg" xmlns:xlink="http://www.w3.org/1999/xlink">
    <!--Generated by IJSVG (https://github.com/curthard89/IJSVG)-->
    <g transform="matrix(1,0,0,1,0,-1)">
        <path fill="#000" fill-rule="evenodd" stroke="none" d="M15.048,14.0994c-0.075,0 -0.145714,-0.0235714 -0.205714,-0.0685714c-0.144643,-0.113571 -0.1725,-0.326786 -0.06,-0.474643c0.366429,-0.474643 0.72,-0.978214 1.05107,-1.49571l0.0396429,-0.0610714l-1.02857,-1.45179c-0.107143,-0.152143 -0.0707143,-0.363214 0.0803571,-0.4725c0.0567857,-0.0396429 0.123214,-0.0610714 0.193929,-0.0610714c0.109286,0 0.213214,0.0535714 0.2775,0.1425l0.859286,1.215l0.0835714,-0.145714c0.45,-0.7875 0.84,-1.59107 1.15821,-2.38821l-0.785357,-1.15286c-0.0535715,-0.0728571 -0.0760715,-0.162857 -0.0621429,-0.251786c0.0139286,-0.0889286 0.0610714,-0.166071 0.133929,-0.219643c0.0589286,-0.0428571 0.1275,-0.0653571 0.200357,-0.0653571c0.108214,0 0.206786,0.0503571 0.272143,0.137143l0.542143,0.740357l0.0653572,-0.199286c0.417857,-1.28357 0.495,-2.07964 0.495,-2.08607c0.015,-0.1725 0.159643,-0.304286 0.335357,-0.304286c0.215357,0.0171429 0.3525,0.181071 0.336429,0.3675c-0.0032143,0.0385714 -0.0921429,0.981429 -0.589286,2.445l-0.0492857,0.143571c0,0 0.694286,-0.0117857 0.694286,-0.0117857c0.193929,0 0.338571,0.148929 0.341786,0.332143c0.0010714,0.09 -0.0321429,0.175714 -0.0953571,0.24c-0.0632143,0.0653571 -0.146786,0.101786 -0.236786,0.102857l-0.958928,0.015l-0.0267857,0.0664286c-0.295714,0.736071 -0.654643,1.48071 -1.065,2.21357l-0.107143,0.192857c0,0 0.833571,-0.130714 0.836786,-0.130714c0.214286,0 0.350357,0.117857 0.376071,0.279643c0.0139286,0.0889286 -0.0075,0.177857 -0.0610714,0.251786c-0.0525,0.0728572 -0.130714,0.121071 -0.219643,0.135l-1.34143,0.212143c-0.428571,0.605357 -0.811071,1.15286 -1.21286,1.67679c-0.0653571,0.0846428 -0.161786,0.131786 -0.267857,0.131786"></path>
        <path fill="#000" fill-rule="evenodd" stroke="none" d="M10.2066,7.91784c-0.283929,0 -0.507857,0.0825 -0.6675,0.245357c-0.319286,0.325714 -0.366429,0.9975 -0.1275,1.84286l0.1875,0.646071c0.137143,0.458571 0.276429,0.934286 0.391071,1.41536c0.151071,0.628929 0.290357,1.24607 0.324643,1.86429c-0.0182142,1.63821 -1.36071,2.895 -2.24893,3.7275c-0.699643,0.654643 -1.42929,1.29429 -2.13643,1.91357c-1.27714,1.1175 -2.56286,2.2425 -3.71036,3.47786c-0.788571,0.849643 -1.27929,1.6725 -1.31036,2.19964c-0.0353571,0.613929 0.5475,1.58357 1.13036,2.1675l0.123214,0.124286c0.548571,0.549643 1.47429,1.1325 2.10643,1.1325c0.593571,-0.0321429 1.39607,-0.51 2.26071,-1.3125c1.24393,-1.15393 2.41607,-2.49536 3.45,-3.67821c0.627857,-0.716786 1.27607,-1.45714 1.9425,-2.16857c0.8175,-0.874286 2.05393,-2.19643 3.63429,-2.24786l0.183214,-0.0075c1.13679,0 2.22321,0.3225 3.27536,0.634286c0.308571,0.0910715 0.568929,0.169286 0.829286,0.24c0.345,0.0953572 0.664286,0.143572 0.950357,0.143572c0.416786,0 0.75,-0.105 0.962143,-0.305357c0.370714,-0.349286 0.319286,-0.902143 0.255,-1.20107c-0.0385715,-0.175714 0.0310714,-0.356786 0.177857,-0.462857c0.0771429,-0.0557142 0.169286,-0.0846428 0.264643,-0.0846428c0.0803571,0 0.160714,0.0214286 0.230357,0.0632143c0.489643,0.290357 1.02214,0.444643 1.53964,0.444643c0.473571,0 0.894643,-0.1275 1.18607,-0.361071c0.363214,-0.290357 0.469286,-0.706071 0.3075,-1.20536c-0.0771429,-0.236786 0.0535714,-0.492857 0.290357,-0.57c0.0396429,-0.0139286 0.0803572,-0.0203572 0.12,-0.0214286c0.2175,-0.0535714 0.765,-0.243214 1.13357,-0.482143c0.771429,-0.504643 1.12607,-1.24071 0.973929,-2.01964c-0.132857,-0.678214 -0.969643,-1.6875 -2.72893,-1.6875c-0.298929,0 -0.617143,0.03 -0.945,0.0867857c-0.0064286,0.0010714 -0.0128572,0.0010714 -0.0203572,0.0010714c-0.27,0 -0.4425,-0.135 -0.495,-0.326786c-0.131786,-0.478929 -0.5325,-0.859286 -0.996429,-0.943929c-0.0664285,-0.0117857 -0.132857,-0.0182143 -0.198214,-0.0182143c-0.347143,0 -0.6825,0.167143 -0.969643,0.483214c-0.0010714,0.268929 0.0032143,0.444643 -0.0107143,0.623571c-0.0653571,0.816429 -0.942857,1.87821 -2.08714,2.5275l-0.186429,0.474643l-0.0707143,0.212143l0.208929,-0.0782143c0.744643,-0.275357 1.49143,-0.511071 2.21786,-0.700714l0.356786,-1.07786c0.0407143,-0.145714 0.173571,-0.2475 0.324643,-0.2475c0.271071,0.0621428 0.376071,0.249643 0.326786,0.429643l-0.197143,0.698571l0.173572,-0.0364285c1.7325,-0.368571 2.80393,-0.371786 2.81464,-0.371786c0.1875,0 0.338572,0.148929 0.340714,0.333214c0.0010714,0.0910715 -0.0332143,0.175714 -0.0964286,0.24c-0.0621428,0.0642858 -0.146786,0.0996429 -0.236786,0.100714c-0.0096428,0 -1.02536,0.0160715 -2.63571,0.354643l-0.175714,0.0364286l0.611786,0.7275c0.0578571,0.0685714 0.0857143,0.155357 0.0782143,0.245357c-0.0075,0.09 -0.0503572,0.1725 -0.118929,0.230357c-0.0610714,0.0525 -0.136071,0.0792858 -0.216429,0.0792858c-0.0996428,0 -0.195,-0.0439286 -0.260357,-0.121071l-0.828214,-0.985714l-0.0664286,0.0171429c-0.807857,0.21 -1.61786,0.468214 -2.40643,0.770357l-0.137143,0.0514286l0.9225,1.15071c0.115714,0.145714 0.0932143,0.358929 -0.0525,0.474643c-0.06,0.0482142 -0.132857,0.0739285 -0.21,0.0739285c-0.103929,0 -0.200357,-0.045 -0.263571,-0.125357l-1.04786,-1.30607l-0.075,0.0321428c-0.357857,0.152143 -0.722143,0.318214 -1.09179,0.500357c-0.0460714,0.0225 -0.0964286,0.0332142 -0.147857,0.0332142c-0.129643,0 -0.246429,-0.0717857 -0.305357,-0.188571c-0.0385714,-0.0803571 -0.045,-0.171429 -0.015,-0.257143c0.0289286,-0.0857143 0.0889286,-0.155357 0.170357,-0.195c0.396428,-0.193929 0.786428,-0.372857 1.16786,-0.535714l0.162857,-0.371786l0.0760715,-0.227143c0,0 -0.789643,0.338571 -1.09179,0.465c-0.986786,0.4125 -2.00786,0.838929 -2.60786,1.26214c-1.08,0.761786 -1.29536,0.931071 -2.20286,1.83964c-0.03,0.0289286 -3.86893,3.87214 -7.125,7.28786c-0.0867857,0.09 -0.203571,0.140357 -0.327857,0.140357c-0.115714,0 -0.227143,-0.045 -0.311786,-0.125357c-0.181071,-0.1725 -0.1875,-0.459643 -0.0160714,-0.639643c3.29571,-3.45536 7.1025,-7.2675 7.14,-7.305c0.945,-0.945 1.21714,-1.15929 2.32179,-1.93929c0.6825,-0.481071 1.74964,-0.926786 2.78143,-1.3575c0.710357,-0.296786 1.38,-0.5775 1.84821,-0.836786c1.03607,-0.575357 1.63179,-1.43357 1.66286,-1.83321c0.06,-0.736071 -0.357857,-1.00714 -0.441429,-1.05429c-0.155357,-0.0846429 -0.251786,-0.257143 -0.242143,-0.428572c0.0107143,-0.177857 0.12,-0.333214 0.278571,-0.3975c0.724286,-0.288214 1.14,-0.818571 1.11321,-1.41857c-0.0235714,-0.4725 -0.327857,-0.861429 -0.774643,-0.992143c-0.126428,-0.0353571 -0.230357,-0.126429 -0.286071,-0.2475c-0.0535714,-0.121071 -0.0525,-0.259286 0.0021429,-0.379286c0.0117857,-0.0225 1.08536,-2.37964 -0.926786,-3.62893c-0.425357,-0.264643 -0.815357,-0.393214 -1.19143,-0.393214c-0.165,0 -0.33,0.0257143 -0.488571,0.0771428c-0.995357,0.3225 -1.56536,1.52786 -1.66929,1.76679c-0.0503571,0.12 -0.144643,0.212143 -0.260357,0.256071c-0.0514286,0.0203571 -0.107143,0.0310714 -0.162857,0.0310714c-0.0675,0 -0.135,-0.015 -0.195,-0.0439286c-0.283928,-0.137143 -0.534643,-0.206786 -0.744643,-0.206786c-0.248571,0 -0.443571,0.0953571 -0.580714,0.281786c-0.369643,0.500357 -0.296786,1.62214 0.350357,2.31857c0.0825,0.0889286 0.126429,0.204643 0.122143,0.325714c-0.0042857,0.121071 -0.0557143,0.2325 -0.144643,0.315c-0.0835714,0.0782143 -0.192857,0.122143 -0.3075,0.122143c-0.118929,0 -0.231428,-0.0460714 -0.316071,-0.129643c-0.148929,-0.0835714 -0.415714,-0.101786 -0.553929,-0.101786c-0.0739285,0 -0.175714,0.00428572 -0.246428,0.0246429c-0.310714,0.0932143 -0.490714,0.440357 -0.588214,0.715714c-0.274286,0.777857 -0.101786,1.67679 0.0814286,2.62929c0.170357,0.8925 0.345,1.80536 0.160714,2.68393c-0.3825,1.82786 -1.87286,3.33857 -3.06964,4.5525l-0.236786,0.24c-0.886071,0.904286 -5.18786,5.11071 -5.36786,5.28536c-0.0846429,0.0835714 -0.197143,0.128571 -0.316071,0.128571c-0.123214,0 -0.237857,-0.0471428 -0.323571,-0.135c-0.174643,-0.178928 -0.171429,-0.467143 0.00642857,-0.640714c0.0439286,-0.0428572 4.45929,-4.35857 5.35393,-5.27143l0.238929,-0.241071c1.17107,-1.18929 2.49964,-2.53714 2.8275,-4.1025c0.147857,-0.701786 -0.0021429,-1.48821 -0.160714,-2.31964c-0.199286,-1.03929 -0.402857,-2.10214 -0.0471429,-3.11036c0.24,-0.676071 0.647143,-1.11857 1.17857,-1.27929c0.0717857,-0.0225 0.181071,-0.0417857 0.301071,-0.0514286l0.135,-0.0117857l-0.0428571,-0.129643c-0.287143,-0.861429 -0.196072,-1.76357 0.236786,-2.35179c0.310714,-0.422143 0.759643,-0.645 1.29964,-0.645c0.206786,0 0.424286,0.0332143 0.648214,0.0985714l0.0814286,0.0225l0.0417857,-0.0728571c0.136071,-0.236786 0.365357,-0.5925 0.685714,-0.9375l0.0482143,-0.0525l-0.03,-0.0642857c-0.433929,-0.9525 -1.28357,-1.12607 -1.53429,-1.15607c-0.0739286,-0.00857143 -0.147857,-0.0128571 -0.220714,-0.0128571c-0.617143,0 -1.15929,0.317143 -1.48607,0.872143c-0.0685714,0.1275 -0.339643,0.807857 -0.407143,1.03821c-0.0064286,0.0728571 -0.0160714,0.121071 -0.0332143,0.167143c-0.0653571,0.174643 -0.235714,0.293571 -0.424286,0.293571c-0.0535714,0 -0.105,-0.00964285 -0.156429,-0.0278571c-0.163929,-0.0610714 -0.319286,-0.0921429 -0.460714,-0.0921429c-0.265714,0 -0.488571,0.105 -0.662143,0.312857c-0.413571,0.496071 -0.514286,1.5975 0.1125,2.66464c0.0932143,0.158571 0.0814285,0.355714 -0.0289286,0.5025c-0.0857143,0.1125 -0.220714,0.18 -0.362143,0.18c-0.0375,0 -0.0760714,-0.00535714 -0.1125,-0.0139286c-0.161786,-0.0417857 -0.317143,-0.0632143 -0.460714,-0.0632143l2.78e-05,6.9e-06Zm-5.93143,21.6568c-1.07143,3.55271e-15 -2.27036,-0.913929 -2.75464,-1.39714l-0.124286,-0.125357c-0.508929,-0.508929 -1.45607,-1.7625 -1.39286,-2.85857c0.0557143,-0.966428 0.873214,-2.03679 1.55036,-2.76536c1.17214,-1.26214 2.47607,-2.40429 3.73821,-3.50786c0.718929,-0.628929 1.455,-1.27393 2.15464,-1.92857c0.8175,-0.766071 1.93714,-1.81393 1.96286,-3.02571c-0.0332143,-0.542143 -0.155357,-1.0875 -0.3,-1.69393c-0.106071,-0.437143 -0.235714,-0.880714 -0.362143,-1.31357l-0.207857,-0.711429c-0.428571,-1.51714 -0.045,-2.31964 0.3525,-2.72464c0.264643,-0.27 0.617143,-0.440357 1.01893,-0.495l0.126429,-0.0171428l-0.0385714,-0.121071c-0.338571,-1.06929 -0.198214,-2.1525 0.365357,-2.82857c0.341786,-0.408214 0.825,-0.634286 1.35964,-0.634286c0.0675,0 0.137143,0.00428571 0.206786,0.0107143l0.0835715,0.00857143l0.0278571,-0.0792857c0.147857,-0.416786 0.351429,-0.820714 0.379286,-0.875357c0.4875,-0.827143 1.33607,-1.32 2.26821,-1.32c0.109286,0 0.219643,0.00642857 0.33,0.0203571c0.895714,0.109286 1.67036,0.638571 2.12679,1.45071l0.0514286,0.0921429l0.0932143,-0.0503571c0.137143,-0.075 0.280714,-0.1425 0.433929,-0.191786c0.251786,-0.0825 0.512143,-0.124286 0.7725,-0.124286c0.541072,0 1.1025,0.178929 1.66929,0.531429c2.1525,1.33607 1.665,3.60536 1.46464,4.26857l-0.0235714,0.0782143l0.0685714,0.0439286c0.541071,0.346071 0.871071,0.9225 0.902143,1.58036c0.0214285,0.451071 -0.116786,0.917143 -0.387857,1.31357l-0.167143,0.244286l0.285,-0.0803571c0.174643,-0.0492857 0.354643,-0.0739286 0.534643,-0.0739286c0.122143,0 0.244286,0.0107143 0.3675,0.0332143c0.643929,0.117857 1.21607,0.546429 1.53214,1.14857l0.0342857,0.0642857l0.0728571,-0.0075c0.228214,-0.0257143 0.448929,-0.0375 0.658929,-0.0375c2.3025,0 3.42214,1.44643 3.61393,2.42036c0.225,1.14643 -0.286071,2.25214 -1.36929,2.95393c-0.0825,0.0535715 -0.545357,0.3075 -0.995357,0.473571l-0.0760714,0.0278571l0.0064286,0.0803571c0.0503571,0.653571 -0.203572,1.23857 -0.7125,1.64571c-0.45,0.358929 -1.06714,0.556072 -1.74,0.556072c-0.385714,0 -0.776786,-0.0632143 -1.1625,-0.186429l-0.118929,-0.0375l-0.0192857,0.123214c-0.0685714,0.437143 -0.260357,0.816429 -0.557143,1.09607c-0.381428,0.36 -0.928929,0.550714 -1.58357,0.550714c-0.368571,0 -0.769286,-0.0589286 -1.19143,-0.174643c-0.274286,-0.0760714 -0.5475,-0.1575 -0.822857,-0.238929c-1.04679,-0.310714 -2.03357,-0.603214 -3.05143,-0.603214c-1.32214,0.0182143 -2.37536,1.14536 -3.14571,1.96821c-0.642857,0.688928 -1.27714,1.41107 -1.89107,2.11071c-1.13571,1.29857 -2.27786,2.60357 -3.54643,3.78107c-0.729643,0.676071 -1.80107,1.49357 -2.76536,1.55036l-0.105,0.0021429l5.6e-06,6.6e-06Z"></path>
    </g>
</svg>