<svg xmlns="http://www.w3.org/2000/svg" viewBox="0 0 30 30"><path d="M29 1.84L28.16 1a3.43 3.43 0 0 0-2.413-1c-.997 0-1.94.434-2.584 1.184l-8.037 8.983a.5.5 0 0 0 .02.687l1.034 1.034-.316.316C14.7 11.4 13.32 11 11.43 11c-2.87 0-5.373 2.36-7.443 4.666C2.062 17.81.001 22.073.001 25c0 2.842.64 3.992.714 4.115a.5.5 0 0 0 .171.171C1.008 29.36 2.158 30 5 30c2.928 0 7.2-2.06 9.334-3.985C16.643 23.943 19 21.44 19 18.57c0-1.892-.4-3.27-1.202-4.433l.316-.316 1.032 1.032a.5.5 0 0 0 .354.146c.12 0 .238-.042.332-.127l8.976-8.03A3.41 3.41 0 0 0 30 4.252c0-.912-.354-1.768-1-2.413zM16.887 12.594l.52.52-5.78 5.78a.37.37 0 0 1-.52 0c-.07-.07-.107-.162-.107-.26s.038-.19.107-.26l5.78-5.78zM18 18.57c0 2.475-2.2 4.776-4.334 6.7C11.702 27.035 7.66 29 5 29c-2.08 0-3.15-.374-3.483-.517C1.373 28.145 1 27.077 1 25c0-2.658 1.966-6.7 3.73-8.666C6.653 14.19 8.953 12 11.43 12c1.932 0 3.017.438 3.732.907l-4.76 4.76a1.36 1.36 0 0 0-.4.967c0 .365.14.708.4.967.267.266.616.4.967.4a1.37 1.37 0 0 0 .967-.397l4.76-4.76c.467.716.905 1.8.905 3.73zM28.15 6.1l-8.63 7.722-3.33-3.33 7.73-8.638c.874-1.02 2.59-1.083 3.537-.136l.84.84a2.4 2.4 0 0 1 .706 1.706c0 .705-.307 1.372-.85 1.838z"/></svg>