<?xml version="1.0" encoding="UTF-8"?><svg version="1.1" viewBox="0 0 30 30" xmlns="http://www.w3.org/2000/svg" xmlns:xlink="http://www.w3.org/1999/xlink"><g fill="#000"><path d="M0.5,13.5c-0.2,0 -0.4,-0.1 -0.5,-0.4c-0.1,-0.3 0.1,-0.5 0.4,-0.6l29,-7.5c0.3,-0.1 0.5,0.1 0.6,0.4c0.1,0.3 -0.1,0.5 -0.4,0.6l-29,7.5c-1.33227e-15,0 -0.1,0 -0.1,0Z"></path><path d="M0.5,30c-0.1,0 -0.2,0 -0.3,-0.1c-0.1,-0.1 -0.2,-0.2 -0.2,-0.4v-6.1c0,-0.2 0.1,-0.3 0.2,-0.4c0.1,-0.1 0.3,-0.1 0.4,-0.1c0.1,0 0.3,0 0.4,0c1.1,0 2,-0.9 2,-2c0,-1.1 -0.9,-2 -2,-2c-0.1,0 -0.3,0 -0.4,0c-0.1,0 -0.3,0 -0.4,-0.1c-0.1,3.55271e-15 -0.2,-0.1 -0.2,-0.2v-5.6c0,-0.2 0.1,-0.3 0.2,-0.4c0.1,-0.1 12.9,-10.2 16,-12.5c0.1,-0.1 0.2,-0.1 0.3,-0.1c11.3,0 13.4,5.1 13.5,5.3c0,0.1 0,0.1 0,0.2v16c0,0.2 -0.2,0.4 -0.4,0.5l-29,8c-1.44329e-15,0 -0.1,0 -0.1,0Zm0.5,-6v4.8l28,-7.7v-15.5c-0.3,-0.6 -2.6,-4.6 -12.3,-4.6c-3.1,2.3 -14.1,11 -15.7,12.2v4.8c1.7,0 3,1.3 3,3c0,1.7 -1.3,3 -3,3Z"></path><path d="M8,20c-1.7,0 -3,-1.3 -3,-3c0,-1.7 1.3,-3 3,-3c1.7,0 3,1.3 3,3c0,1.7 -1.3,3 -3,3Zm0,-5c-1.1,0 -2,0.9 -2,2c0,1.1 0.9,2 2,2c1.1,0 2,-0.9 2,-2c0,-1.1 -0.9,-2 -2,-2Z"></path><path d="M22.5,20c-1.4,0 -2.5,-1.1 -2.5,-2.5c0,-1.4 1.1,-2.5 2.5,-2.5c1.4,0 2.5,1.1 2.5,2.5c0,1.4 -1.1,2.5 -2.5,2.5Zm0,-4c-0.8,0 -1.5,0.7 -1.5,1.5c0,0.8 0.7,1.5 1.5,1.5c0.8,0 1.5,-0.7 1.5,-1.5c0,-0.8 -0.7,-1.5 -1.5,-1.5Z"></path><path d="M14.5,22c-0.8,0 -1.5,-0.7 -1.5,-1.5c0,-0.8 0.7,-1.5 1.5,-1.5c0.8,0 1.5,0.7 1.5,1.5c0,0.8 -0.7,1.5 -1.5,1.5Zm0,-2c-0.3,0 -0.5,0.2 -0.5,0.5c0,0.3 0.2,0.5 0.5,0.5c0.3,0 0.5,-0.2 0.5,-0.5c0,-0.3 -0.2,-0.5 -0.5,-0.5Z"></path><path d="M16.5,14c-0.8,0 -1.5,-0.7 -1.5,-1.5c0,-0.8 0.7,-1.5 1.5,-1.5c0.8,0 1.5,0.7 1.5,1.5c0,0.8 -0.7,1.5 -1.5,1.5Zm0,-2c-0.3,0 -0.5,0.2 -0.5,0.5c0,0.3 0.2,0.5 0.5,0.5c0.3,0 0.5,-0.2 0.5,-0.5c0,-0.3 -0.2,-0.5 -0.5,-0.5Z"></path></g></svg>