<?xml version="1.0" encoding="UTF-8"?><svg version="1.1" viewBox="0 0 30 30" xmlns="http://www.w3.org/2000/svg" xmlns:xlink="http://www.w3.org/1999/xlink"><path d="M6.5,27c-1.799,0 -3.5,-1.701 -3.5,-3.5c0,-0.276 -0.224,-0.5 -0.5,-0.5c-0.276,0 -0.5,0.224 -0.5,0.5c0,2.355 2.145,4.5 4.5,4.5c0.276,0 0.5,-0.224 0.5,-0.5c0,-0.276 -0.224,-0.5 -0.5,-0.5Zm16,0c-1.799,0 -3.5,-1.701 -3.5,-3.5c0,-0.276 -0.224,-0.5 -0.5,-0.5c-0.276,0 -0.5,0.224 -0.5,0.5c0,2.355 2.145,4.5 4.5,4.5c0.276,0 0.5,-0.224 0.5,-0.5c0,-0.276 -0.224,-0.5 -0.5,-0.5Zm2.055,-10.821c-0.27,-0.062 -0.532,0.104 -0.596,0.369c-0.075,0.304 -0.26,0.551 -0.501,0.72c-0.214,-3.782 -1.932,-6.692 -3.479,-9.267c-1.269,-2.115 -2.367,-3.967 -2.466,-5.936l1.763,0.882c0.073,0.036 0.149,0.053 0.224,0.053c0.183,0 0.359,-0.101 0.447,-0.277c0.123,-0.247 0.023,-0.547 -0.224,-0.671l-4,-2c-0.247,-0.121 -0.547,-0.023 -0.671,0.224c-0.123,0.247 -0.023,0.547 0.224,0.671l0.933,0.467c-2.492,1.831 -9.175,9.441 -9.662,15.857c-0.243,-0.169 -0.431,-0.417 -0.506,-0.723c-0.066,-0.265 -0.327,-0.432 -0.596,-0.369c-3.206,0.729 -5.445,3.533 -5.445,6.821c0,3.86 3.141,7 7,7c3.859,0 7,-3.14 7,-7c0,-3.096 -1.987,-5.785 -4.946,-6.692c-0.259,-0.079 -0.538,0.064 -0.622,0.325c-0.137,0.424 -0.482,0.722 -0.897,0.822c0.372,-6.126 6.84,-13.304 8.987,-15.064c0.195,2.117 1.367,4.071 2.6,6.125c1.503,2.503 3.177,5.334 3.346,8.94c-0.415,-0.099 -0.762,-0.398 -0.9,-0.823c-0.084,-0.261 -0.36,-0.405 -0.622,-0.325c-2.959,0.907 -4.946,3.596 -4.946,6.692c0,3.86 3.141,7 7,7c3.859,0 7,-3.14 7,-7c0,-3.288 -2.239,-6.092 -5.445,-6.821Zm-15.383,1.227c2.307,0.89 3.828,3.087 3.828,5.594c0,3.309 -2.691,6 -6,6c-3.309,0 -6,-2.691 -6,-6c0,-2.672 1.726,-4.972 4.247,-5.735c0.302,0.6 0.861,1.019 1.514,1.166c0.072,0.04 0.151,0.069 0.239,0.069c0.036,0 0.069,-0.013 0.103,-0.021c0.05,0.003 0.096,0.021 0.147,0.021c0.802,0 1.524,-0.425 1.922,-1.094Zm13.828,11.594c-3.309,0 -6,-2.691 -6,-6c0,-2.507 1.521,-4.704 3.828,-5.594c0.399,0.67 1.12,1.094 1.922,1.094c0.051,0 0.097,-0.017 0.147,-0.021c0.034,0.008 0.067,0.021 0.103,0.021c0.088,0 0.167,-0.029 0.239,-0.069c0.654,-0.147 1.213,-0.566 1.514,-1.166c2.521,0.764 4.247,3.063 4.247,5.735c0,3.309 -2.691,6 -6,6Z" fill="#000"></path></svg>