<?xml version="1.0" encoding="UTF-8"?><svg version="1.1" viewBox="0 0 30 30" xmlns="http://www.w3.org/2000/svg" xmlns:xlink="http://www.w3.org/1999/xlink"><g fill="#000"><path d="M9,24c-0.8,0 -3,0 -3,-1.5c0,-0.3 0.2,-0.5 0.5,-0.5c0.3,0 0.5,0.2 0.5,0.5c0,0.3 0.8,0.5 2,0.5c0.3,0 0.5,0.2 0.5,0.5c0,0.3 -0.2,0.5 -0.5,0.5Z"></path><path d="M21.5,24c-0.3,0 -0.5,-0.2 -0.5,-0.5c0,-0.3 0.2,-0.5 0.5,-0.5c1.6,0 2.5,-0.8 2.5,-1c0,-0.3 0.2,-0.5 0.5,-0.5c0.3,0 0.5,0.2 0.5,0.5c0,1 -1.4,2 -3.5,2Z"></path><path d="M7.5,23.5c0,0 -0.1,0 -0.1,0c-0.3,-0.1 -0.4,-0.3 -0.4,-0.6c0.7,-2.9 2.2,-6.2 3.7,-9.4c1.7,-3.5 3.3,-6.9 3.3,-9c0,-0.3 0.2,-0.5 0.5,-0.5c0.3,0 0.5,0.2 0.5,0.5c0,0.6 1.1,2.2 2.3,4c2.5,3.7 6.2,9.3 6.2,14.5c0,0.3 -0.2,0.5 -0.5,0.5c-0.3,0 -0.5,-0.2 -0.5,-0.5c0,-5 -3.7,-10.4 -6.1,-14c-0.7,-1.1 -1.3,-1.9 -1.7,-2.6c-0.5,2.2 -1.8,4.8 -3.1,7.6c-1.5,3.1 -3,6.3 -3.7,9.2c8.88178e-16,0.1 -0.2,0.3 -0.4,0.3Z"></path><path d="M14.5,5c-1.2,0 -1.5,-2.7 -1.5,-3c-0.1,-0.6 0.1,-1.2 0.5,-1.6c0.5,-0.6 1.5,-0.6 2,-0.1c0.3,0.5 0.5,1.1 0.5,1.7c0,1 -0.4,3 -1.5,3Zm0,-4c-0.1,0 -0.2,0 -0.3,0.1c-0.2,0.2 -0.2,0.5 -0.2,0.8c0.1,0.9 0.3,1.6 0.5,1.9c0.2,-0.2 0.5,-1 0.5,-1.8c0,-0.4 -0.1,-0.7 -0.3,-0.9c0,-0.1 -0.1,-0.1 -0.2,-0.1Z"></path><path d="M7.5,30c-3,0 -5.5,-2.5 -5.5,-5.5c0,-3 2.5,-5.5 5.5,-5.5c3,0 5.5,2.5 5.5,5.5c0,3 -2.5,5.5 -5.5,5.5Zm0,-10c-2.5,0 -4.5,2 -4.5,4.5c0,2.5 2,4.5 4.5,4.5c2.5,0 4.5,-2 4.5,-4.5c0,-2.5 -2,-4.5 -4.5,-4.5Z"></path><path d="M22.5,30c-3,0 -5.5,-2.5 -5.5,-5.5c0,-3 2.5,-5.5 5.5,-5.5c3,0 5.5,2.5 5.5,5.5c0,3 -2.5,5.5 -5.5,5.5Zm0,-10c-2.5,0 -4.5,2 -4.5,4.5c0,2.5 2,4.5 4.5,4.5c2.5,0 4.5,-2 4.5,-4.5c0,-2.5 -2,-4.5 -4.5,-4.5Z"></path></g></svg>