<?xml version="1.0" encoding="UTF-8"?><svg version="1.1" viewBox="0 0 30 30" xmlns="http://www.w3.org/2000/svg" xmlns:xlink="http://www.w3.org/1999/xlink"><path d="M21.84,14.03c-0.829,-1.306 -4.943,-1.841 -6.34,-1.985v-9.008c1.808,0.158 3.964,0.657 4.958,1.098c-1.699,0.404 -2.958,1.752 -2.958,3.365c0,1.93 1.794,3.5 4,3.5c2.206,0 4,-1.57 4,-3.5c0,-1.828 -1.615,-3.316 -3.66,-3.47c-0.829,-1.306 -4.943,-1.841 -6.34,-1.985v-1.545c0,-0.276 -0.224,-0.5 -0.5,-0.5c-0.276,0 -0.5,0.224 -0.5,0.5v4.545c-1.398,0.143 -5.512,0.678 -6.34,1.985c-2.045,0.154 -3.66,1.642 -3.66,3.47c0,1.93 1.794,3.5 4,3.5c2.206,0 4,-1.57 4,-3.5c0,-1.606 -1.249,-2.948 -2.937,-3.359c1.007,-0.454 3.143,-0.948 4.937,-1.105v9.008c-1.398,0.144 -5.512,0.679 -6.34,1.985c-2.045,0.155 -3.66,1.643 -3.66,3.471c0,1.93 1.794,3.5 4,3.5c2.206,0 4,-1.57 4,-3.5c0,-1.606 -1.249,-2.948 -2.937,-3.359c1.007,-0.454 3.143,-0.948 4.937,-1.105v7.008c-1.968,0.218 -3.5,1.676 -3.5,3.456c0,1.93 1.794,3.5 4,3.5c2.206,0 4,-1.57 4,-3.5c0,-1.78 -1.532,-3.238 -3.5,-3.456v-10.007c1.808,0.158 3.964,0.657 4.958,1.098c-1.699,0.404 -2.958,1.752 -2.958,3.365c0,1.93 1.794,3.5 4,3.5c2.206,0 4,-1.57 4,-3.5c0,-1.828 -1.615,-3.316 -3.66,-3.47Zm2.66,-6.53c0,1.378 -1.346,2.5 -3,2.5c-1.654,0 -3,-1.122 -3,-2.5c0,-1.124 0.902,-2.067 2.13,-2.38l-0.578,1.156c-0.123,0.247 -0.023,0.547 0.224,0.671c0.248,0.122 0.547,0.023 0.671,-0.224l0.553,-1.105l0.552,1.106c0.088,0.175 0.264,0.276 0.448,0.276c0.076,0 0.152,-0.017 0.223,-0.053c0.247,-0.124 0.348,-0.424 0.224,-0.671l-0.578,-1.156c1.229,0.312 2.131,1.255 2.131,2.38Zm-13,3c0,1.378 -1.346,2.5 -3,2.5c-1.654,0 -3,-1.122 -3,-2.5c0,-1.124 0.902,-2.067 2.13,-2.38l-0.578,1.156c-0.123,0.247 -0.023,0.547 0.224,0.671c0.248,0.123 0.547,0.024 0.671,-0.224l0.553,-1.105l0.552,1.106c0.088,0.175 0.264,0.276 0.448,0.276c0.076,0 0.152,-0.017 0.223,-0.053c0.247,-0.124 0.348,-0.424 0.224,-0.671l-0.578,-1.156c1.229,0.312 2.131,1.255 2.131,2.38Zm0,10c0,1.378 -1.346,2.5 -3,2.5c-1.654,0 -3,-1.122 -3,-2.5c0,-1.124 0.902,-2.067 2.13,-2.38l-0.578,1.156c-0.123,0.247 -0.023,0.547 0.224,0.671c0.248,0.122 0.547,0.023 0.671,-0.224l0.553,-1.105l0.552,1.106c0.088,0.175 0.264,0.276 0.448,0.276c0.076,0 0.152,-0.017 0.223,-0.053c0.247,-0.124 0.348,-0.424 0.224,-0.671l-0.578,-1.156c1.229,0.312 2.131,1.255 2.131,2.38Zm6.5,6c0,1.378 -1.346,2.5 -3,2.5c-1.654,0 -3,-1.122 -3,-2.5c0,-1.124 0.902,-2.067 2.129,-2.38l-0.578,1.157c-0.123,0.247 -0.023,0.547 0.224,0.671c0.248,0.123 0.547,0.023 0.671,-0.224l0.553,-1.105l0.553,1.105c0.088,0.175 0.264,0.276 0.448,0.276c0.076,0 0.152,-0.017 0.222,-0.052c0.247,-0.124 0.348,-0.424 0.224,-0.671l-0.579,-1.158c1.23,0.313 2.133,1.256 2.133,2.381Zm3.5,-6.5c-1.654,0 -3,-1.122 -3,-2.5c0,-1.124 0.902,-2.067 2.13,-2.38l-0.578,1.156c-0.123,0.247 -0.023,0.547 0.224,0.671c0.248,0.122 0.547,0.023 0.671,-0.224l0.553,-1.105l0.552,1.106c0.088,0.175 0.264,0.276 0.448,0.276c0.076,0 0.152,-0.017 0.223,-0.053c0.247,-0.124 0.348,-0.424 0.224,-0.671l-0.578,-1.156c1.229,0.313 2.131,1.256 2.131,2.38c0,1.378 -1.346,2.5 -3,2.5Z" fill="#000"></path></svg>