<svg id="Ebene_1" data-name="Ebene 1" xmlns="http://www.w3.org/2000/svg" viewBox="0 0 30 30"><path d="M8.92,14.7a10.66,10.66,0,0,1-1.63-.14A7.18,7.18,0,0,1,3.53,13,3.88,3.88,0,0,1,2.34,9.31c.48-3.07,6.2-5.88,6.45-6l.31-.16.25.25c.2.18,4.76,4.62,4.28,7.69h0a3.93,3.93,0,0,1-2.28,3.14A6,6,0,0,1,8.92,14.7Zm0-10.33c-1.7.89-5.27,3.11-5.58,5.09a2.86,2.86,0,0,0,.87,2.79,6.23,6.23,0,0,0,3.25,1.32,6.25,6.25,0,0,0,3.49-.25,2.87,2.87,0,0,0,1.7-2.38h0C13,9,10.25,5.74,8.91,4.37Z"/><path d="M6,10.77a.49.49,0,0,1-.48-.35c-.67-2.13,2-4.09,2.11-4.17a.5.5,0,1,1,.59.8c-.62.45-2.13,1.88-1.75,3.07a.49.49,0,0,1-.32.63A.39.39,0,0,1,6,10.77Z"/><path d="M21.21,14.74c-2.41,0-4-1.16-4.48-3.34-.66-3,3-6.95,3.14-7.11l.2-.21.29.07c.7.17,6.89,1.8,7.54,4.83h0c.59,2.74-1.1,4.76-4.65,5.52A9.56,9.56,0,0,1,21.21,14.74Zm-.8-9.55c-.73.83-3.17,3.83-2.7,6C18.3,13.94,20.93,14,23,13.53S27.52,12,26.92,9.19h0C26.5,7.24,22.32,5.72,20.41,5.19Z"/><path d="M24.64,10.58h-.06a.5.5,0,0,1-.44-.55c.16-1.38-1.78-2.39-1.8-2.4a.5.5,0,1,1,.44-.89c.11,0,2.6,1.31,2.36,3.4A.51.51,0,0,1,24.64,10.58Z"/><path d="M13.1,27.18c-3.88,0-6-1.65-6-4.64,0-3.32,5.57-6.05,5.8-6.17l.22-.11.22.11c.24.12,5.8,2.85,5.8,6.17C19.12,25.53,17,27.18,13.1,27.18Zm0-9.8c-1.58.81-5,3-5,5.16,0,3,2.73,3.64,5,3.64s5-.63,5-3.64C18.12,20.41,14.68,18.19,13.1,17.38Z"/><path d="M10.15,23.44a.5.5,0,0,1-.5-.5A3.43,3.43,0,0,1,11,20a.5.5,0,1,1,.52.85,2.5,2.5,0,0,0-.91,2.14A.5.5,0,0,1,10.15,23.44Z"/></svg>