<svg viewBox="0 0 30 30" xmlns="http://www.w3.org/2000/svg">
    <path
        d="M6.4 28.3l-6-7.2L16.8 7.4l6 7.2L6.4 28.3zM1.8 21.3l4.7 5.6 14.8-12.4 -4.7-5.6L1.8 21.3z" />
    <path
        d="M21.9 14.8l-5.5-6.1 7.7-7 5.5 6.1L21.9 14.8zM17.7 8.8l4.2 4.6 6.2-5.7L24 3.1 17.7 8.8z" />
    <polygon
        points="20.9 12.6 19.9 12.5 20.2 9.5 22.4 9.8 22.4 7.7 24.7 7.9 24.9 6.1 25.9 6.1 25.7 9 23.4 8.8 23.4 11 21.1 10.7 " />
    <rect height="7.2" transform="matrix(0.7432 -0.6691 0.6691 0.7432 2.4172 18.5012)" width="1" x="24.8"
        y="2.5" />
</svg>