<svg xmlns="http://www.w3.org/2000/svg" viewBox="0 0 30 30"><path d="M15 29.6c-1.7 0-3.2-.7-4.4-2C8.1 25 7 19.7 7.4 13.5c.3-3.4 1.5-6.8 3.4-9.7.7-1.1 1.5-1.8 2.1-2.4l.5-.5c.8-.8 2.2-.8 3 0l.6.6c.5.5 1.1 1 1.6 1.8 1.3 1.8 3.6 5.5 3.9 10.2.4 6.3-.8 11.6-3.2 14.2-1.1 1.3-2.6 1.9-4.3 1.9zm0-28.3c-.3 0-.6.1-.8.3l-.6.6c-.6.6-1.3 1.3-2 2.2-1.9 2.7-3 5.9-3.3 9.2-.3 5.9.8 11 3 13.4 1 1.1 2.3 1.6 3.7 1.6s2.6-.5 3.6-1.6c2.2-2.4 3.3-7.4 2.9-13.4-.3-4.5-2.4-8-3.7-9.7-.5-.7-1.1-1.2-1.5-1.7-.1-.2-.3-.4-.5-.6s-.5-.3-.8-.3z"/><path d="M15.8 16c-2.4-6.1-5-11.3-5-11.4l.9-.4c0 .1 2.6 5.3 5 11.4l-.9.4z"/><path d="M11.2 27.5l-.9-.4c4.3-11 10.1-18.9 10.2-19l.8.6c-.1.1-5.8 7.9-10.1 18.8zm3.4-16.7l-.9-.4c2-4 3.8-6.6 3.9-6.7l.8.6c0-.1-1.8 2.5-3.8 6.5zm-2.1 17.9h4.9v1h-4.9z"/></svg>