<svg id="Ebene_1" data-name="Ebene 1" xmlns="http://www.w3.org/2000/svg" viewBox="0 0 30 30"><title>Zeichenfläche 1</title><path d="M5.15,15.34H4.78c-2.08-.09-2.85-1.14-3.12-2-.62-2,.73-4.72,1.7-5.46.13-.11.15-.12.08-.59a5.18,5.18,0,0,1,.93-3.93c1.2-2,5-2.51,11.34-1.57,7.2,1.07,12.79,4,12.79,5.82,0,1.57-6,6.58-13,6.58a37.24,37.24,0,0,0-6,.65A28.38,28.38,0,0,1,5.15,15.34Zm5.24-13c-2.76,0-4.55.52-5.16,1.54a4.15,4.15,0,0,0-.8,3.25A1.41,1.41,0,0,1,4,8.67c-.64.49-1.84,2.85-1.36,4.36.26.83,1,1.26,2.21,1.31a24.08,24.08,0,0,0,4.49-.49,37.87,37.87,0,0,1,6.14-.66c6.65,0,11.92-4.64,12.05-5.58-.08-.81-4.27-3.69-11.93-4.83A36.6,36.6,0,0,0,10.39,2.34Z"/><path d="M3.66,8.78a.51.51,0,0,1-.27-.93c1.69-1.06,5.55-1.6,11.48-1.6h.48a.5.5,0,0,1,.5.5.5.5,0,0,1-.5.5h-.24C7.82,7.25,5,8,3.93,8.7A.56.56,0,0,1,3.66,8.78Z"/><path d="M21.87,7.68h0l-2.9-.24a.5.5,0,0,1-.46-.54A.5.5,0,0,1,19,6.45l2.9.23a.5.5,0,0,1,0,1Z"/><path d="M19.59,28.2a36.71,36.71,0,0,1-5.3-.45c-7.2-1.07-12.79-4-12.79-5.82,0-1.57,6-6.58,13.05-6.58a37.37,37.37,0,0,0,6-.65,26.72,26.72,0,0,1,4.7-.5c2.08.09,2.85,1.14,3.12,2,.62,2-.73,4.72-1.7,5.46-.13.11-.15.12-.08.59a5.18,5.18,0,0,1-.93,3.93C24.81,27.52,22.79,28.2,19.59,28.2ZM2.5,21.93c.08.81,4.27,3.69,11.93,4.83,5.73.85,9.4.46,10.34-1.1a4.2,4.2,0,0,0,.8-3.25A1.41,1.41,0,0,1,26,20.87c.64-.49,1.84-2.85,1.36-4.36-.26-.83-1-1.26-2.21-1.31a24,24,0,0,0-4.49.49,37.87,37.87,0,0,1-6.14.66C7.9,16.35,2.63,21,2.5,21.93Z"/><path d="M18.14,23.48a.5.5,0,0,1-.5-.5.51.51,0,0,1,.5-.5c3.43,0,6.25-.58,7.93-1.64a.49.49,0,0,1,.69.16.5.5,0,0,1-.15.69C24.25,23.17,20.7,23.48,18.14,23.48Z"/><path d="M15.66,23.48H15.6l-2.4-.25a.5.5,0,0,1-.44-.55.49.49,0,0,1,.55-.45l2.4.26a.5.5,0,0,1,.44.55A.49.49,0,0,1,15.66,23.48Z"/><path d="M5.37,22.54h0l-1.11-.1a.5.5,0,1,1,.1-1l1.11.1a.51.51,0,0,1,.45.55A.5.5,0,0,1,5.37,22.54Z"/></svg>