<?xml version="1.0" encoding="UTF-8"?><svg version="1.1" viewBox="0 0 30 30" xmlns="http://www.w3.org/2000/svg" xmlns:xlink="http://www.w3.org/1999/xlink"><g fill="#000"><path d="M3.5,30c-1.4,0 -2.3,-0.8 -2.5,-2.1c-0.6,-0.3 -1,-1.1 -1,-2.4c0,-1.2 1.2,-1.8 2.4,-1.8c0.4,0 0.9,-0.5 1.5,-1.1c4,-4 6.1,-6.2 6.1,-9c0,-2.7 2.1,-13.6 12,-13.6c4.4,0 8,5.3 8,8c0,9.8 -10.9,11.8 -13.9,11.8c-2.7,0 -4.6,1.9 -8.4,5.7l-0.4,0.4c-1.1,1.1 -1.3,1.4 -1.3,2.1c0,1.2 -1.6,2 -2.5,2Zm-1.5,-2.1c0.1,0.7 0.6,1.1 1.5,1.1c0.5,0 1.5,-0.5 1.5,-1c0,-1.1 0.5,-1.7 1.6,-2.9l0.4,-0.3c4,-4 6,-6 9.1,-6c2.7,0 12.9,-1.9 12.9,-10.8c0,-2.3 -3.2,-7 -7,-7c-9,0 -11,10.1 -11,12.6c0,3.2 -2.2,5.5 -6.4,9.7c-0.9,0.9 -1.5,1.4 -2.2,1.4c-0.1,0 -1.4,0 -1.4,0.8c4.44089e-16,0.9 0.2,1.5 0.5,1.5c0.1,0 0.4,-0.3 0.5,-0.4c0.4,-0.4 1,-1 1.7,-0.5c0.2,0.1 0.3,0.4 0.2,0.7c-0.1,0.2 -0.4,0.3 -0.7,0.2c-0.1,0 -0.3,0.1 -0.5,0.4c-0.2,0.1 -0.4,0.3 -0.7,0.5Z"></path><path d="M12.5,21c0,0 0,0 0,0c-0.3,0 -0.5,-0.3 -0.5,-0.6v0c0,0 0,-0.4 -0.2,-0.7c-0.2,-0.2 -0.4,-0.3 -0.8,-0.3c-0.9,0 -1.4,-0.1 -1.7,-0.4c-0.3,-0.3 -0.3,-0.8 -0.3,-1.2v-0.3c0,-0.3 0.2,-0.5 0.5,-0.5c0.3,0 0.5,0.2 0.5,0.5v0.3c0,0.2 0,0.5 0,0.6c0,0 0.2,0.1 1,0.1c0.7,0 1.2,0.2 1.6,0.6c0.5,0.6 0.5,1.4 0.4,1.5c0,0.2 -0.2,0.4 -0.5,0.4Z"></path></g></svg>