<?xml version="1.0" encoding="UTF-8"?><svg version="1.1" viewBox="0 0 30 30" xmlns="http://www.w3.org/2000/svg" xmlns:xlink="http://www.w3.org/1999/xlink"><g fill="#000"><path d="M20.016,30h-10.032c-1.007,0 -1.729,-1.008 -1.747,-1.913c-0.188,-9.253 -2.44,-16.364 -2.463,-16.435c-0.085,-0.263 0.06,-0.544 0.322,-0.629c0.263,-0.085 0.545,0.06 0.629,0.323c0.023,0.072 2.32,7.322 2.512,16.72c0.009,0.463 0.386,0.934 0.747,0.934h10.031c0.361,0 0.738,-0.471 0.747,-0.933c0.19,-9.42 2.488,-16.649 2.512,-16.721c0.085,-0.263 0.369,-0.405 0.629,-0.323c0.263,0.085 0.407,0.367 0.322,0.629c-0.022,0.071 -2.275,7.168 -2.463,16.434c-0.017,0.906 -0.74,1.914 -1.746,1.914Z"></path><path d="M25.5,12h-21c-0.276,0 -0.5,-0.224 -0.5,-0.5c0,-0.276 0.224,-0.5 0.5,-0.5h21c0.276,0 0.5,0.224 0.5,0.5c0,0.276 -0.224,0.5 -0.5,0.5Z"></path><path d="M21.37,26h-12.74c-0.276,0 -0.5,-0.224 -0.5,-0.5c0,-0.276 0.224,-0.5 0.5,-0.5h12.74c0.276,0 0.5,0.224 0.5,0.5c0,0.276 -0.224,0.5 -0.5,0.5Z"></path><path d="M21.52,24h-13.04c-0.276,0 -0.5,-0.224 -0.5,-0.5c0,-0.276 0.224,-0.5 0.5,-0.5h13.04c0.276,0 0.5,0.224 0.5,0.5c0,0.276 -0.224,0.5 -0.5,0.5Z"></path><path d="M8.759,12c-0.242,0 -0.455,-0.177 -0.493,-0.425c-0.276,-1.809 -0.562,-3.68 -1.755,-6.126l-1.351,-2.781c-0.366,-0.762 -0.057,-1.683 0.687,-2.055l0.924,-0.452c0.355,-0.18 0.769,-0.211 1.155,-0.082c0.393,0.131 0.711,0.408 0.893,0.781l1.36,2.791c1.155,2.38 2.444,3.761 3.69,5.096c0.739,0.792 1.438,1.541 2.089,2.466c0.158,0.226 0.104,0.538 -0.122,0.697c-0.224,0.158 -0.536,0.105 -0.696,-0.122c-0.61,-0.868 -1.286,-1.592 -2.002,-2.359c-1.296,-1.389 -2.637,-2.825 -3.858,-5.34l-1.359,-2.79c-0.064,-0.129 -0.174,-0.226 -0.312,-0.272c-0.13,-0.043 -0.27,-0.034 -0.393,0.028l-0.926,0.454c-0.255,0.128 -0.359,0.453 -0.229,0.724l1.35,2.778c1.259,2.582 1.569,4.617 1.844,6.413c0.042,0.273 -0.146,0.528 -0.419,0.569c-0.026,0.005 -0.052,0.007 -0.077,0.007Z"></path></g></svg>