<?xml version="1.0" encoding="UTF-8"?><svg version="1.1" viewBox="0 0 30 30" xmlns="http://www.w3.org/2000/svg" xmlns:xlink="http://www.w3.org/1999/xlink"><g fill="#000"><path d="M2.6,27.5c-0.1,0 -0.1,0 0,0c-0.7,0 -1.3,-0.3 -1.7,-0.7l-0.2,-0.2c-0.4,-0.4 -0.7,-1 -0.7,-1.6c0,-0.9 0.5,-1.7 1.2,-2.1c0.4,-0.2 0.9,-0.5 1.5,-0.8c2.6,-1.3 6.5,-3.3 10,-6.8c2.2,-2.2 3.6,-4.2 4.8,-6c1.9,-2.8 3.3,-4.9 6,-4.9c3.8,0 5.5,1.7 5.5,5.5c0,4.7 -3,8.9 -8.9,12.4c-5.9,3.7 -14.9,5.2 -17.5,5.2Zm20.9,-22c-2.2,0 -3.4,1.8 -5.2,4.4c-1.2,1.8 -2.7,4 -4.9,6.2c-3.6,3.5 -7.6,5.6 -10.3,6.9c-0.5,0.3 -1,0.5 -1.4,0.7c-0.4,0.3 -0.7,0.8 -0.7,1.3c0,0.4 0.1,0.7 0.4,1l0.2,0.2c0.3,0.3 0.6,0.4 0.9,0.4c2.5,0 11.2,-1.4 17.1,-4.9c5.6,-3.5 8.4,-7.4 8.4,-11.7c0,-3.2 -1.3,-4.5 -4.5,-4.5Z"></path><path d="M2.6,25.5c-0.3,0 -0.5,-0.2 -0.5,-0.5c0,-0.3 0.2,-0.5 0.5,-0.5c2.4,0 10.6,-1.4 16,-4.7c3.1,-1.9 5.3,-3.9 6.4,-6.1c0.1,-0.2 0.4,-0.3 0.7,-0.2c0.2,0.1 0.3,0.4 0.2,0.7c-1.2,2.3 -3.5,4.5 -6.8,6.5c-5.6,3.4 -14,4.8 -16.5,4.8c-1.33227e-15,0 -1.33227e-15,0 -1.33227e-15,0Z"></path><path d="M24.5,8.5c-0.3,0 -0.5,-0.2 -0.5,-0.5c0,-2.3 1.9,-5.5 5.5,-5.5c0.3,0 0.5,0.2 0.5,0.5c0,0.3 -0.2,0.5 -0.5,0.5c-2.9,0 -4.5,2.7 -4.5,4.5c0,0.3 -0.2,0.5 -0.5,0.5Z"></path></g></svg>