<?xml version="1.0" encoding="UTF-8"?><svg version="1.1" viewBox="0 0 30 30" xmlns="http://www.w3.org/2000/svg" xmlns:xlink="http://www.w3.org/1999/xlink"><path d="M24.512,9.378c-0.008,-0.353 -0.014,-0.649 -0.014,-0.878c0,-3.529 -2.637,-8.5 -8.5,-8.5h-2c-5.863,0 -8.5,4.971 -8.5,8.5c0,0.223 -0.006,0.511 -0.012,0.853c-0.052,2.654 -0.159,8.176 1.54,12.812l0.998,2.993c0.995,2.987 3.667,4.842 6.974,4.842c3.232,0 6.09,-2.06 7.115,-5.134l0.854,-2.692c1.715,-4.606 1.6,-10.138 1.545,-12.796Zm-10.514,-8.378h2c2.686,0 4.599,1.186 5.823,2.76c-0.035,0.071 -0.059,0.148 -0.057,0.232c0.022,0.763 -0.762,1.346 -1.593,1.964c-0.467,0.347 -0.95,0.707 -1.326,1.127c-0.496,0.555 -0.766,1.318 -1.027,2.057c-0.231,0.654 -0.478,1.314 -0.86,1.786c-0.055,-0.122 -0.112,-0.243 -0.166,-0.366c-0.457,-1.037 -0.93,-2.109 -1.765,-2.924c-0.524,-0.511 -1.144,-0.89 -1.744,-1.256c-0.635,-0.388 -1.235,-0.754 -1.632,-1.226c-0.745,-0.881 -0.886,-1.994 -0.855,-3.483c0.914,-0.418 1.975,-0.671 3.202,-0.671Zm-5.026,23.842l-1,-3c-0.002,-0.005 -0.003,-0.009 -0.005,-0.014c-1.637,-4.461 -1.532,-9.86 -1.482,-12.455c0.007,-0.351 0.013,-0.644 0.013,-0.873c0,-2.086 1.05,-4.737 3.295,-6.264c0.014,1.215 0.198,2.503 1.093,3.564c0.502,0.596 1.2,1.022 1.875,1.434c0.553,0.337 1.124,0.686 1.567,1.118c0.696,0.679 1.11,1.618 1.548,2.611c0.09,0.204 0.183,0.406 0.276,0.609c-0.314,0.173 -0.663,0.329 -1.01,0.479c-0.968,0.419 -1.969,0.852 -2.408,1.773c-0.371,0.777 -0.141,1.787 0.125,2.956c0.2,0.876 0.406,1.782 0.371,2.644c-0.028,0.693 -0.327,1.448 -0.643,2.246c-0.396,0.999 -0.804,2.031 -0.69,3.041c0.224,1.972 1.494,3.264 2.335,4.119c0.044,0.044 0.081,0.083 0.122,0.125c-2.558,-0.223 -4.593,-1.746 -5.382,-4.113Zm13.05,-2.993l-0.86,2.708c-0.823,2.47 -3.026,4.167 -5.581,4.397c-0.011,-0.09 -0.038,-0.178 -0.099,-0.254c-0.134,-0.163 -0.32,-0.354 -0.534,-0.572c-0.744,-0.757 -1.87,-1.901 -2.054,-3.53c-0.087,-0.762 0.259,-1.635 0.625,-2.56c0.333,-0.841 0.677,-1.71 0.712,-2.574c0.04,-0.995 -0.191,-2.01 -0.395,-2.906c-0.216,-0.947 -0.419,-1.841 -0.198,-2.303c0.278,-0.583 1.067,-0.925 1.902,-1.286c0.689,-0.299 1.403,-0.607 1.926,-1.1c0.672,-0.633 0.989,-1.529 1.295,-2.396c0.239,-0.677 0.465,-1.316 0.829,-1.723c0.309,-0.346 0.731,-0.659 1.178,-0.992c0.693,-0.515 1.448,-1.083 1.797,-1.847c0.626,1.186 0.933,2.469 0.933,3.589c0,0.234 0.007,0.538 0.014,0.899c0.054,2.597 0.167,8 -1.49,12.45Z" fill="#000"></path></svg>