<svg xmlns="http://www.w3.org/2000/svg" viewBox="0 0 30 30"><path d="M24.512 9.378l-.014-.878c0-3.53-2.637-8.5-8.5-8.5h-2c-5.863 0-8.5 4.97-8.5 8.5l-.012.853c-.052 2.654-.16 8.176 1.54 12.812l.998 2.993C9.02 28.145 11.69 30 14.998 30a7.49 7.49 0 0 0 7.115-5.134l.854-2.692c1.715-4.606 1.6-10.138 1.545-12.796zM13.998 1h2c2.686 0 4.6 1.186 5.823 2.76-.035.07-.06.148-.057.232.022.763-.762 1.346-1.593 1.964-.467.347-.95.707-1.326 1.127-.496.555-.766 1.318-1.027 2.057-.23.654-.478 1.314-.86 1.786l-.166-.366c-.457-1.037-.93-2.11-1.765-2.924-.524-.51-1.144-.9-1.744-1.256-.635-.388-1.235-.754-1.632-1.226-.745-.88-.886-1.994-.855-3.483C11.7 1.253 12.77 1 13.998 1zM8.972 24.842l-1-3c-1.642-4.475-1.537-9.874-1.487-12.47l.013-.873c0-2.086 1.05-4.737 3.295-6.264.014 1.215.198 2.503 1.093 3.564.502.596 1.2 1.022 1.875 1.434.553.337 1.124.686 1.567 1.118.696.68 1.1 1.618 1.548 2.61l.276.61c-.314.173-.663.33-1 .48-.968.42-1.97.852-2.408 1.773-.37.777-.14 1.787.125 2.956.2.876.406 1.782.37 2.644-.028.693-.327 1.448-.643 2.246-.396 1-.804 2.03-.7 3.04.224 1.972 1.494 3.264 2.335 4.12l.122.125c-2.558-.223-4.593-1.746-5.382-4.113zm13.05-2.993l-.86 2.708c-.823 2.47-3.026 4.167-5.58 4.397a.49.49 0 0 0-.099-.254c-.134-.163-.32-.354-.534-.572-.744-.757-1.87-1.9-2.054-3.53-.087-.762.26-1.635.625-2.56.333-.84.677-1.7.712-2.574.04-.995-.19-2-.395-2.906-.216-.947-.42-1.84-.198-2.303.278-.583 1.067-.925 1.902-1.286.69-.3 1.403-.607 1.926-1.1.672-.633.99-1.53 1.295-2.396.24-.677.465-1.316.83-1.723.31-.346.73-.66 1.178-.992.693-.515 1.448-1.083 1.797-1.847.626 1.186.933 2.47.933 3.59 0 .234.007.538.014.9.054 2.597.167 8-1.5 12.45z"/></svg>