<?xml version="1.0" encoding="UTF-8"?>
<svg version="1.1" viewBox="0 0 30 30" xmlns="http://www.w3.org/2000/svg" xmlns:xlink="http://www.w3.org/1999/xlink">
    <g transform="matrix(1,0,0,1,-389,-60)">
        <path fill="#000" stroke="none" d="M396.468,60h16.8419c0.258104,0 0.467955,0.203907 0.467955,0.454679v29.0906c0,0.250782 -0.209861,0.454679 -0.467955,0.454679h-16.8419c-0.258104,0 -0.467955,-0.203907 -0.467955,-0.454679v-29.0906c0,-0.250782 0.20986,-0.454679 0.467955,-0.454679Zm16.3738,11.7585l-2.07931,1.34649c-0.07719,0.0503909 -0.167647,0.0761728 -0.259308,0.0761728h-3.17559l-4.0574,1.75314l-3.22283,2.68358c-0.051862,0.0421889 -0.110959,0.0738268 -0.176088,0.0914068l-2.93562,0.815638v10.5657h15.9061v-17.3321Zm-11.0888,3.24149h-4.81725v2.5793l2.57983,-0.716008l2.23742,-1.8633Zm11.0888,-7.72738v-6.36329h-4.67831v6.36329h4.67831Zm-11.2274,0v-6.36329h-4.67831v6.36329h4.67831Zm5.61324,0v-6.36329h-4.67708v6.36329h4.67708Zm-4.67708,7.06409l0.162821,-0.135936c0.034976,-0.029297 0.073571,-0.0527339 0.114577,-0.0703139l4.21054,-1.81875c0.0591,-0.0257811 0.124226,-0.0386729 0.189356,-0.0386729v-4.09109h-4.67708l-0.000219,6.15476Zm-0.93591,-0.246093v-5.90849h-4.67831v5.90849h4.67831Zm6.54908,-1.81758h2.20954l2.22763,-1.2996c0.075982,-0.043359 0.159205,-0.0644519 0.241218,-0.0644519v-2.72693h-4.67831l-7.7e-05,4.09098Z"></path>
    </g>
</svg>