<?xml version="1.0" encoding="utf-8"?>
<!-- Generator: Adobe Illustrator 23.0.1, SVG Export Plug-In . SVG Version: 6.00 Build 0)  -->
<svg version="1.1" id="Layer_1" xmlns="http://www.w3.org/2000/svg" xmlns:xlink="http://www.w3.org/1999/xlink" x="0px" y="0px"
	 viewBox="0 0 30 30" style="enable-background:new 0 0 30 30;" xml:space="preserve">
<g>
	<rect x="5.9" y="13.4" width="17.8" height="1"/>
	<path d="M23.1,6.6c-0.4,0-0.7,0.2-0.9,0.5l-1.9,3.2h-4.6l-6,0L7.7,7.1C7.5,6.8,7.2,6.6,6.8,6.6H5.9v1l0.9,0l1.9,3.2
		c0.2,0.3,0.5,0.5,0.9,0.5h4.6h1.3h4.6c0.4,0,0.7-0.2,0.9-0.5l1.9-3.2h0.9v-1H23.1z"/>
	<g>
		<rect x="10.5" y="6.9" width="2.6" height="1"/>
		<g>
			<path d="M13.9,10.5h-1V1.3h-1.7l-0.1,9.2h-1V1.3c0-0.6,0.5-1.1,1.1-1.1h1.6c0.6,0,1.1,0.5,1.1,1.1V10.5z"/>
		</g>
		<polygon points="8.1,8.1 7.1,7.7 7.1,5 8.1,5 		"/>
		<rect x="15.9" y="5.4" width="1" height="5.2"/>
		<rect x="18.9" y="5.1" width="1" height="5.6"/>
		<polygon points="22.9,7.2 21.9,7.9 21.9,4.6 22.9,4.6 		"/>
	</g>
	<path d="M23.5,29.8h-17c-0.6,0-1.1-0.5-1.1-1.1V5.4c0-0.6,0.5-1.1,1.1-1.1h4v1h-4L6.4,28.7l17.1,0.1l0.1-23.4l-10-0.1v-1h10
		c0.6,0,1.1,0.5,1.1,1.1v23.3C24.6,29.3,24.1,29.8,23.5,29.8z"/>
	<path d="M20.8,26H9.6c-0.6,0-1.1-0.5-1.1-1.1v-7.6c0-0.6,0.5-1.1,1.1-1.1h11.2c0.6,0,1.1,0.5,1.1,1.1v7.6
		C21.8,25.5,21.4,26,20.8,26z M9.6,17.3l-0.1,7.7L20.8,25c0,0,0.1,0,0.1-0.1v-7.6L9.6,17.3z"/>
</g>
</svg>
