<?xml version="1.0" encoding="utf-8"?>
<!-- Generator: Adobe Illustrator 23.0.1, SVG Export Plug-In . SVG Version: 6.00 Build 0)  -->
<svg version="1.1" id="Layer_1" xmlns="http://www.w3.org/2000/svg" xmlns:xlink="http://www.w3.org/1999/xlink" x="0px" y="0px"
	 viewBox="0 0 30 30" style="enable-background:new 0 0 30 30;" xml:space="preserve">
<g>
	<path d="M9,22c-0.2,0-0.4-0.1-0.6-0.3L1.9,14c-0.2-0.2-0.2-0.5-0.1-0.7C1.8,13,2,12.8,2.3,12.8C4.9,12,8,10.6,8.5,9
		c0.2-0.6,0.3-1,0.4-1.5c0.2-1,0.4-1.7,1.4-2.2c0.8-0.4,2,0.3,3.3,1c0.9,0.5,2,1.2,2.6,1.2c1.4,0,3.7-0.8,4.1-1
		c0.2-0.1,0.5,0,0.7,0.1l7.8,6.3c0.2,0.1,0.3,0.3,0.3,0.6c0,0.2-0.1,0.4-0.2,0.6c-0.8,0.7-2.2,1.8-3.5,1.8c-0.2,0-0.4,0-0.6,0
		c-1.5,0-3.9-0.1-5.1,1.8c-1.3,2.1-2.7,2-4.2,1.8c-0.5,0-0.9-0.1-1.5-0.1c-0.3,0-1,0.5-1.6,0.9C11.3,21.1,10,21.9,9,22
		C9,22,9,22,9,22z M2.9,13.6L9.1,21c0.7-0.1,1.8-0.8,2.7-1.4c0.9-0.6,1.6-1.1,2.1-1.1c0.6,0,1.1,0,1.6,0.1c1.4,0.1,2.3,0.2,3.3-1.4
		c1.5-2.4,4.3-2.3,6-2.2c0.2,0,0.4,0,0.6,0c0.7,0,1.8-0.7,2.6-1.4l-7.5-6c-0.8,0.3-2.9,1-4.3,1c-0.9,0-2-0.7-3.1-1.3
		c-0.8-0.5-2-1.2-2.4-1C10.1,6.4,10,6.7,9.8,7.7C9.7,8.1,9.6,8.6,9.4,9.3C8.7,11.6,4.9,13,2.9,13.6z"/>
	<path d="M12.3,16.6c-0.2,0-0.5-0.1-0.6-0.3c-2-3.3-3.8-5.7-3.8-5.7C7.7,10.3,7.7,10,8,9.8c0.2-0.2,0.5-0.1,0.7,0.1
		c0,0,1.3,1.7,2.9,4.2c-0.7-2.9-1.5-6.5-1.6-8.3c0-0.3,0.2-0.5,0.5-0.5c0.3,0,0.5,0.2,0.5,0.5c0.1,2.2,1.5,7.7,2,10
		c0.1,0.3-0.1,0.7-0.4,0.8C12.5,16.5,12.4,16.6,12.3,16.6z"/>
	<path d="M17.7,11.3c-0.1,0-0.3-0.1-0.4-0.2c-1.1-1.3-1.6-2.9-1.6-2.9c-0.1-0.3,0-0.5,0.3-0.6c0.3-0.1,0.5,0,0.6,0.3
		c0,0,0.5,1.4,1.5,2.6c0.2,0.2,0.1,0.5-0.1,0.7C17.9,11.2,17.8,11.3,17.7,11.3z"/>
	<path d="M8.2,24.8c-0.2,0-0.4-0.1-0.6-0.3l-7.3-9.2c-0.2-0.2-0.1-0.5,0.1-0.7c0.2-0.2,0.5-0.1,0.7,0.1l7.3,9.1
		c0.8-0.1,2.5-1.2,3.8-1.9c1.5-0.9,2.3-1.4,2.8-1.4c0.6,0,1.1,0,1.6,0.1c1.4,0.1,2.3,0.2,3.3-1.4c1.5-2.4,4.3-2.3,6-2.2
		c0.2,0,0.4,0,0.6,0c0.6,0,1.6-0.5,2.7-1.4c0.2-0.2,0.5-0.2,0.7,0c0.2,0.2,0.2,0.5,0,0.7c-0.9,0.8-2.2,1.7-3.3,1.7
		c-0.2,0-0.4,0-0.6,0c-1.5,0-3.9-0.1-5.1,1.8c-1.3,2.1-2.7,2-4.2,1.8c-0.5,0-0.9-0.1-1.5-0.1c-0.3,0-1.5,0.7-2.3,1.3
		C11,23.7,9.3,24.8,8.2,24.8C8.2,24.8,8.2,24.8,8.2,24.8z"/>
</g>
</svg>
