<?xml version="1.0" encoding="UTF-8"?><svg version="1.1" viewBox="0 0 30 30" xmlns="http://www.w3.org/2000/svg" xmlns:xlink="http://www.w3.org/1999/xlink"><g fill="#000"><path d="M14,30h-11c-0.3,0 -0.5,-0.2 -0.5,-0.5v-1c0,-1.1 0.3,-1.9 0.7,-2.8c0.4,-0.9 0.8,-1.8 0.8,-3.2c0,-1.1 -0.3,-1.9 -0.6,-2.7c-0.4,-1.2 -0.9,-2.6 -0.9,-5.3c0,-2.7 1.1,-4.6 2.1,-6.3c0.7,-1.2 1.3,-2.3 1.4,-3.4c0,0 0,0 -0.1,-0.1c-0.4,-0.4 -0.5,-1.5 -0.4,-2.8c0,-0.2 0,-0.3 0,-0.4c0,-0.1 0,-0.2 0.1,-0.2l0.5,-1c0,-0.2 0.2,-0.3 0.4,-0.3h4c0.2,0 0.4,0.1 0.4,0.3l0.5,1c0,0.1 0.1,0.1 0.1,0.2c0,0.1 0,0.2 0,0.4c0,1.3 0,2.4 -0.4,2.9c0,0 0,0 -0.1,0.1c0.1,1.1 0.7,2.1 1.4,3.4c1,1.7 2.1,3.7 2.1,6.3c0,2.6 -0.5,4 -0.9,5.3c-0.3,0.9 -0.6,1.6 -0.6,2.7c0,1.4 0.4,2.3 0.8,3.2c0.4,0.9 0.7,1.7 0.7,2.8v1c0,0.2 -0.2,0.4 -0.5,0.4Zm-10.5,-1h10v-0.5c0,-0.9 -0.3,-1.6 -0.6,-2.4c-0.4,-1 -0.9,-2.1 -0.9,-3.6c0,-1.3 0.3,-2.2 0.6,-3.1c0.4,-1.2 0.9,-2.5 0.9,-4.9c0,-2.4 -1,-4.2 -2,-5.8c-0.8,-1.4 -1.5,-2.7 -1.5,-4.2c0,-0.2 0.2,-0.4 0.4,-0.5c0.1,-0.2 0.2,-0.9 0.1,-2.1c0,-0.1 0,-0.2 0,-0.3l-0.3,-0.6h-3.4l-0.3,0.6c0,0.1 0,0.2 0,0.3c0,1.1 0,1.8 0.1,2.1c0.2,0.1 0.4,0.3 0.4,0.5c0,1.5 -0.7,2.8 -1.5,4.2c-0.9,1.6 -2,3.5 -2,5.8c0,2.5 0.5,3.8 0.9,4.9c0.3,0.9 0.6,1.8 0.6,3.1c0,1.6 -0.5,2.7 -0.9,3.6c-0.3,0.8 -0.6,1.5 -0.6,2.4v0.5Z"></path><path d="M5.6,28.1c0,0 -0.1,0 0,0c-0.4,-0.1 -0.5,-0.3 -0.5,-0.6c0.1,-0.6 0.4,-1.2 0.6,-1.8c0.4,-0.9 0.8,-1.9 0.8,-3.2c0,-1.1 -0.3,-1.9 -0.6,-2.7c-0.1,-0.3 -0.2,-0.5 -0.3,-0.8c-0.1,-0.3 0.1,-0.5 0.3,-0.6c0.3,-0.1 0.5,0.1 0.6,0.3c0.1,0.3 0.2,0.5 0.3,0.8c0.3,0.9 0.6,1.8 0.6,3.1c0,1.6 -0.5,2.7 -0.9,3.6c-0.2,0.5 -0.4,1.1 -0.6,1.6c0.1,0.2 -0.1,0.3 -0.3,0.3Z"></path><path d="M6,15.5c-0.3,0 -0.5,-0.2 -0.5,-0.5c0,-0.2 0,-0.3 0,-0.5c0,-1.4 0.4,-2.5 0.8,-3.5c0.4,-0.9 0.7,-1.6 0.7,-2.5c0,-0.3 0.2,-0.5 0.5,-0.5c0.3,0 0.5,0.2 0.5,0.5c0,1 -0.4,2 -0.7,2.9c-0.4,1 -0.8,1.9 -0.8,3.1c0,0.2 0,0.3 0,0.4c0,0.3 -0.2,0.6 -0.5,0.6c0,0 0,0 0,0Z"></path><path d="M26,30h-8c-0.3,0 -0.5,-0.2 -0.5,-0.5v-1.5c0,-1.1 0.3,-1.6 0.5,-2.1c0.3,-0.5 0.5,-1.1 0.5,-2.4c0,-1.1 -0.4,-3.5 -0.8,-6.1c-0.6,-3.4 -1.2,-7.3 -1.2,-9.9c0,-0.3 0.2,-0.5 0.5,-0.5h10c0.3,0 0.5,0.2 0.5,0.5c0,2.6 -0.6,6.5 -1.2,9.9c-0.4,2.5 -0.8,4.9 -0.8,6.1c0,1.3 0.2,1.9 0.5,2.4c0.2,0.5 0.5,1 0.5,2.1v1.5c0,0.3 -0.2,0.5 -0.5,0.5Zm-7.5,-1h7v-1c0,-0.8 -0.2,-1.2 -0.4,-1.7c-0.3,-0.6 -0.6,-1.3 -0.6,-2.8c0,-1.2 0.4,-3.5 0.8,-6.2c0.5,-3.2 1.1,-6.8 1.2,-9.3h-9c0.1,2.5 0.7,6.1 1.2,9.3c0.4,2.7 0.8,5 0.8,6.2c0,1.6 -0.3,2.2 -0.6,2.8c-0.2,0.5 -0.4,0.8 -0.4,1.7c0,0 0,1 0,1Z"></path><path d="M21,17c-0.2,0 -0.4,-0.2 -0.5,-0.4c-0.1,-0.5 -1,-5.4 -1,-6.1c0,-0.3 0.2,-0.5 0.5,-0.5c0.3,0 0.5,0.2 0.5,0.5c0,0.5 0.6,3.9 1,5.9c0,0.3 -0.1,0.5 -0.5,0.6c0.1,0 0,0 0,0Z"></path></g></svg>