<?xml version="1.0" encoding="UTF-8"?><svg version="1.1" viewBox="0 0 30 30" xmlns="http://www.w3.org/2000/svg" xmlns:xlink="http://www.w3.org/1999/xlink"><path d="M7.354,11.123c-0.2,-0.188 -0.518,-0.177 -0.706,0.024c-1.692,1.812 -3.39,5.786 -3.133,8.391c0.026,0.258 0.243,0.451 0.497,0.451c0.017,0 0.033,-0.001 0.05,-0.003c0.275,-0.027 0.475,-0.272 0.449,-0.547c-0.229,-2.309 1.353,-5.987 2.867,-7.609c0.189,-0.202 0.178,-0.519 -0.024,-0.707Zm12.924,3.862l-0.327,-0.788c-0.055,-0.131 -0.162,-0.233 -0.297,-0.28c-0.135,-0.049 -0.281,-0.034 -0.406,0.034l-1.845,1.016c-0.186,0.102 -0.286,0.31 -0.252,0.518c0.048,0.297 0.11,0.596 0.177,0.901c0.034,0.154 0.138,0.282 0.282,0.347c0.065,0.029 0.136,0.044 0.206,0.044c0.083,0 0.166,-0.021 0.241,-0.061l2,-1.101c0.224,-0.123 0.319,-0.394 0.221,-0.63Zm-2.791,-1.88c0.083,0 0.166,-0.02 0.242,-0.062l1.026,-0.564c0.224,-0.123 0.319,-0.394 0.221,-0.63l-0.328,-0.788c-0.055,-0.131 -0.163,-0.233 -0.297,-0.28c-0.134,-0.047 -0.281,-0.035 -0.406,0.034l-0.686,0.377c-0.17,0.094 -0.271,0.278 -0.258,0.472c0.021,0.316 0.017,0.607 -0.011,0.89c-0.019,0.185 0.067,0.365 0.221,0.468c0.084,0.055 0.179,0.083 0.276,0.083Zm2.804,-2.106c0.055,0.132 0.162,0.233 0.297,0.28c0.054,0.019 0.109,0.028 0.165,0.028c0.083,0 0.166,-0.021 0.241,-0.063l1.101,-0.605c0.138,-0.076 0.232,-0.212 0.254,-0.367c0.022,-0.155 -0.03,-0.312 -0.141,-0.424c-0.192,-0.194 -0.368,-0.394 -0.526,-0.603c-0.148,-0.197 -0.421,-0.255 -0.64,-0.136l-0.857,0.472c-0.224,0.123 -0.319,0.394 -0.221,0.63l0.327,0.788Zm1.289,7.122l-0.328,-0.788c-0.055,-0.131 -0.163,-0.233 -0.297,-0.28c-0.135,-0.047 -0.281,-0.035 -0.406,0.034l-2.199,1.21c-0.226,0.124 -0.32,0.399 -0.219,0.635c0.122,0.283 0.253,0.548 0.393,0.805c0.064,0.117 0.171,0.203 0.299,0.241c0.046,0.013 0.094,0.02 0.141,0.02c0.084,0 0.167,-0.021 0.24,-0.061l2.155,-1.186c0.224,-0.123 0.319,-0.394 0.221,-0.63Zm-12.555,-3.132c-0.316,0.015 -0.506,0.212 -0.513,0.487c-0.029,1.158 -0.836,2.894 -1.616,4.573c-0.553,1.193 -1.078,2.319 -1.364,3.3c-0.077,0.265 0.075,0.543 0.341,0.62c0.047,0.014 0.094,0.02 0.14,0.02c0.217,0 0.416,-0.142 0.479,-0.36c0.265,-0.908 0.773,-2.001 1.311,-3.158c0.823,-1.772 1.675,-3.604 1.709,-4.969c0.007,-0.277 -0.211,-0.506 -0.487,-0.513Zm13.859,6.266l-0.327,-0.788c-0.055,-0.131 -0.162,-0.233 -0.297,-0.28c-0.135,-0.048 -0.281,-0.035 -0.406,0.034l-1.497,0.824c-0.143,0.078 -0.237,0.22 -0.256,0.382c-0.018,0.161 0.044,0.321 0.165,0.429c0.228,0.204 0.465,0.405 0.704,0.602c0.09,0.075 0.204,0.114 0.317,0.114c0.083,0 0.166,-0.021 0.241,-0.062l1.135,-0.625c0.224,-0.123 0.319,-0.394 0.221,-0.63Zm-0.313,-4.773l0.327,0.789c0.055,0.131 0.162,0.233 0.297,0.28c0.054,0.019 0.109,0.028 0.165,0.028c0.083,0 0.166,-0.021 0.241,-0.061l2.519,-1.386c0.223,-0.123 0.319,-0.394 0.221,-0.629c-0.111,-0.271 -0.223,-0.541 -0.359,-0.812c-0.061,-0.122 -0.169,-0.213 -0.299,-0.254c-0.127,-0.039 -0.271,-0.026 -0.39,0.04l-2.501,1.376c-0.224,0.123 -0.319,0.394 -0.221,0.629Zm6.943,1.507c0,-3.685 -3.068,-8.187 -5.187,-9.89c-0.531,-0.425 -0.909,-1.032 -1.31,-1.674c-0.955,-1.531 -2.145,-3.436 -6.004,-3.436h-0.691l-1.362,-2.724c-0.17,-0.339 -0.725,-0.339 -0.895,0l-1.435,2.87c-0.211,-0.063 -0.424,-0.12 -0.624,-0.147c-0.149,0.003 -0.27,-0.004 -0.385,-0.008c-0.216,-0.011 -0.408,-0.017 -0.664,0.011c-3.823,0.425 -4.585,2.415 -5.258,4.171c-0.286,0.748 -0.556,1.453 -1.052,1.985c-1.942,2.08 -4.457,7.02 -4.133,10.883c0.224,2.685 1.923,5.724 2.65,7.021l0.089,0.16c0.23,0.411 0.441,0.823 0.634,1.25l0.222,0.487c0.231,0.51 0.701,0.872 1.29,0.996c0.143,0.03 0.287,0.045 0.432,0.045c0.509,0 1.007,-0.184 1.387,-0.527l0.434,-0.388c0.382,-0.343 0.774,-0.668 1.182,-0.985c1.209,-0.942 3.82,-3.482 5.577,-5.8c0.584,-0.77 0.951,-1.722 1.222,-2.682c0.497,1.226 1.152,2.369 2.029,3.237c2.036,2.018 4.994,3.958 6.107,4.581c0.25,0.14 0.592,0.39 0.907,0.618c0.206,0.148 0.401,0.289 0.556,0.392l0.515,0.332c0.313,0.142 0.635,0.213 0.946,0.213c0.296,0 0.581,-0.064 0.837,-0.195c0.455,-0.233 0.764,-0.651 0.87,-1.177l0.105,-0.521c0.077,-0.382 0.051,-0.795 0.029,-1.16c-0.01,-0.153 -0.02,-0.301 -0.02,-0.438c0,-0.484 0.164,-1.364 0.355,-2.384c0.288,-1.538 0.645,-3.452 0.645,-5.116Zm-15.001,-16.382l0.885,1.769c-0.193,0.179 -0.37,0.358 -0.527,0.537c-0.081,-0.025 -0.157,-0.046 -0.233,-0.067c-0.22,-0.061 -0.452,-0.127 -0.992,-0.344c-0.02,-0.008 -0.046,-0.018 -0.067,-0.026l0.934,-1.869Zm-0.899,20.08c-1.706,2.249 -4.229,4.706 -5.396,5.614c-0.425,0.332 -0.835,0.672 -1.234,1.029l-0.434,0.388c-0.253,0.226 -0.607,0.317 -0.946,0.248c-0.273,-0.057 -0.486,-0.214 -0.585,-0.431l-0.222,-0.486c-0.205,-0.452 -0.428,-0.889 -0.671,-1.324l-0.09,-0.161c-0.694,-1.241 -2.319,-4.147 -2.526,-6.617c-0.296,-3.529 2.099,-8.222 3.867,-10.117c0.63,-0.674 0.948,-1.506 1.256,-2.31c0.625,-1.634 1.216,-3.177 4.434,-3.534c0.096,-0.011 0.18,-0.014 0.26,-0.014c0.085,0 0.165,0.004 0.25,0.007c0.131,0.005 0.271,0.012 0.361,0.004c0.357,0.053 0.967,0.3 1.388,0.469c0.444,0.179 0.697,0.258 0.91,0.32c-1.161,1.925 -0.611,3.785 -0.142,5.347c0.254,0.844 0.493,1.641 0.422,2.317c-0.208,1.97 -0.05,3.796 0.482,5.577c-0.261,1.273 -0.634,2.684 -1.384,3.674Zm14.271,1.237c-0.208,1.112 -0.372,1.991 -0.372,2.567c0,0.155 0.01,0.325 0.021,0.5c0.02,0.317 0.041,0.647 -0.011,0.9l-0.105,0.521c-0.046,0.228 -0.162,0.39 -0.346,0.484c-0.243,0.125 -0.584,0.11 -0.843,-0.001l-0.445,-0.294c-0.146,-0.097 -0.328,-0.229 -0.521,-0.368c-0.352,-0.255 -0.716,-0.518 -1.005,-0.68c-1.032,-0.578 -3.949,-2.493 -5.893,-4.419c-2.387,-2.366 -3.115,-7.123 -2.854,-9.593c0.004,-0.036 -0.001,-0.073 0.001,-0.109c0.063,-0.826 -0.148,-1.678 -0.378,-2.579c-0.407,-1.594 -0.817,-3.243 0.236,-4.979c0.223,-0.292 0.492,-0.587 0.83,-0.885v0.003h0.814c3.304,0 4.204,1.44 5.155,2.965c0.427,0.685 0.87,1.392 1.531,1.924c2.009,1.614 4.813,5.861 4.813,9.11c0,1.572 -0.349,3.435 -0.628,4.933Zm-4.425,-11.291l-1.972,1.085c-0.224,0.123 -0.319,0.394 -0.221,0.63l0.328,0.788c0.055,0.131 0.163,0.233 0.297,0.28c0.054,0.019 0.109,0.028 0.165,0.028c0.083,0 0.166,-0.021 0.242,-0.062l2.161,-1.189c0.126,-0.069 0.216,-0.189 0.247,-0.329c0.031,-0.14 0.001,-0.287 -0.084,-0.403c-0.177,-0.244 -0.354,-0.484 -0.533,-0.705c-0.153,-0.188 -0.419,-0.241 -0.63,-0.123Zm0.634,7.355c-0.224,0.123 -0.319,0.395 -0.221,0.63l0.327,0.788c0.055,0.132 0.162,0.233 0.297,0.28c0.054,0.019 0.109,0.028 0.165,0.028c0.083,0 0.166,-0.021 0.241,-0.062l1.765,-0.971c0.15,-0.082 0.247,-0.235 0.258,-0.406c0.022,-0.347 0.036,-0.687 0.038,-1.018c0.001,-0.178 -0.092,-0.342 -0.244,-0.433c-0.152,-0.09 -0.341,-0.093 -0.497,-0.008l-2.129,1.172Zm-0.081,4.001h-1c-0.219,0 -0.41,0.141 -0.476,0.35c-0.066,0.209 0.012,0.436 0.191,0.561c0.074,0.051 0.292,0.29 0.422,0.433c0.264,0.289 0.433,0.471 0.588,0.573c0.084,0.055 0.179,0.083 0.275,0.083c0.081,0 0.163,-0.02 0.237,-0.06c0.162,-0.087 0.263,-0.256 0.263,-0.44v-1c0,-0.276 -0.224,-0.5 -0.5,-0.5Zm2.491,-0.912c0.034,-0.186 -0.042,-0.375 -0.193,-0.488c-0.15,-0.113 -0.354,-0.131 -0.522,-0.047l-1,0.5c-0.144,0.072 -0.245,0.208 -0.27,0.367c-0.026,0.159 0.027,0.32 0.14,0.434l1,1c0.095,0.095 0.223,0.146 0.354,0.146c0.048,0 0.097,-0.007 0.142,-0.021c0.177,-0.053 0.31,-0.198 0.347,-0.379c0.036,-0.18 0.028,-0.445 0.01,-0.863c-0.009,-0.209 -0.024,-0.557 -0.008,-0.649Z" fill="#000"></path></svg>