<?xml version="1.0" encoding="UTF-8"?><svg version="1.1" viewBox="0 0 30 30" xmlns="http://www.w3.org/2000/svg" xmlns:xlink="http://www.w3.org/1999/xlink"><path d="M12,21c-0.552,0 -1,0.448 -1,1c0,0.552 0.448,1 1,1c0.552,0 1,-0.448 1,-1c0,-0.552 -0.448,-1 -1,-1Zm0,3c-0.552,0 -1,0.448 -1,1c0,0.552 0.448,1 1,1c0.552,0 1,-0.448 1,-1c0,-0.552 -0.448,-1 -1,-1Zm3,-1c-0.552,0 -1,0.448 -1,1c0,0.552 0.448,1 1,1c0.552,0 1,-0.448 1,-1c0,-0.552 -0.448,-1 -1,-1Zm0,-23c-7.411,0 -13,5.804 -13,13.5c0,8.481 6.318,16.5 13,16.5c6.682,0 13,-8.019 13,-16.5c0,-7.696 -5.589,-13.5 -13,-13.5Zm0,29c-6.168,0 -12,-7.533 -12,-15.5c0,-8.207 6.037,-12.5 12,-12.5c5.963,0 12,4.293 12,12.5c0,7.967 -5.832,15.5 -12,15.5Z" fill="#000"></path></svg>