<svg viewBox="0 0 30 30" xmlns="http://www.w3.org/2000/svg">
    <path
        d="M27.5 2.1c-1.8-1.7-6.3-1.7-11.1-1.7l-1.4 0 -1.4 0c-4.7 0-9.1 0-10.8 1.7C2.3 2.6 2.1 3.2 2.1 3.9l7.1 15.5c0.2 0.3 0.3 0.5 0.4 0.8 0.6 1.1 1.3 2.4 2.8 2.4h5.4c1.9 0 2.6-1.6 3.3-3.3l7-15.3 0-0.2C28.2 3.2 28 2.6 27.5 2.1zM20.2 19.1c-0.7 1.6-1.2 2.6-2.3 2.6h-5.4c-0.5 0-0.8-0.2-1.2-0.6l1.3-0.6c0.3-0.1 0.4-0.4 0.2-0.7s-0.4-0.4-0.7-0.2l-1.4 0.6c0 0 0 0 0 0 -0.1-0.1-0.2-0.3-0.2-0.5 -0.1-0.3-0.3-0.6-0.4-0.8l-0.3-0.5 1.5-0.7c0.3-0.1 0.4-0.4 0.2-0.7s-0.4-0.4-0.7-0.2l-1.5 0.7 -0.8-1.8L10 15c0.3-0.1 0.4-0.4 0.2-0.7 -0.1-0.2-0.4-0.4-0.7-0.2l-1.5 0.7L7.3 13l1.5-0.7C9 12.2 9.1 11.9 9 11.6s-0.4-0.4-0.7-0.2l-1.5 0.7 -0.8-1.8 1.5-0.7c0.3-0.1 0.4-0.4 0.2-0.7C7.6 8.7 7.3 8.5 7.1 8.7L5.6 9.3 4.8 7.5l1.4-0.7c0.3-0.1 0.4-0.4 0.2-0.7C6.4 5.9 6.1 5.8 5.8 5.9L4.4 6.6 3.6 4.8 5 4.1C5.2 4 5.3 3.7 5.2 3.5 5.1 3.2 4.8 3.1 4.6 3.2L3.1 3.9l0-0.1c0-0.4 0.2-0.7 0.4-1C5 1.4 9.4 1.4 13.6 1.4l1.4 0 1.4 0c4.2 0 9 0 10.4 1.4 0.3 0.3 0.4 0.6 0.4 1L20.2 19.1z" />
    <path
        d="M15.2 24.8l-0.4 0.5c-0.3 0.4-1.4 1.8-1.4 2.6 0 1 0.8 1.7 1.7 1.7s1.7-0.8 1.7-1.7c0-0.8-1-2.2-1.4-2.6L15.2 24.8zM15.2 28.6c-0.4 0-0.7-0.3-0.7-0.7 0-0.2 0.3-0.8 0.7-1.4 0.4 0.6 0.7 1.2 0.7 1.4C16 28.2 15.7 28.6 15.2 28.6z" />
</svg>
