<svg xmlns="http://www.w3.org/2000/svg" viewBox="0 0 30 30"><path d="M27.874 29.143L20.8 22.07c-.58-.585-.58-1.534.002-2.118l2.122-2.12a.5.5 0 0 0-.707-.707l-2.122 2.12c-.4.4-.626.902-.698 1.422L17.62 18.9l3.182-3.182a.5.5 0 0 0-.707-.707l-3.182 3.182-1.414-1.415 3.182-3.182a.5.5 0 0 0-.707-.707l-3.182 3.182-1.414-1.414 3.183-3.182a.5.5 0 0 0-.707-.707l-3.183 3.182-1.414-1.414 3.182-3.182a.5.5 0 0 0-.707-.707L10.55 11.82l-1.414-1.414 3.182-3.182a.5.5 0 0 0-.707-.707L8.43 9.697 7.015 8.283 10.197 5.1a.5.5 0 0 0 0-.707.5.5 0 0 0-.707.001l-3.182 3.18-1.414-1.414L8.076 2.98a.5.5 0 0 0-.707-.707L4.187 5.455l-1.062-1.06a.5.5 0 0 1 0-.708L5.953.858a.5.5 0 0 0 0-.707.5.5 0 0 0-.707 0L2.418 2.98c-.283.284-.44.66-.44 1.06a1.49 1.49 0 0 0 .439 1.061l24.75 24.75a.5.5 0 0 0 .707 0 .5.5 0 0 0 0-.707z"/></svg>