<svg xmlns="http://www.w3.org/2000/svg" viewBox="0 0 30 30"><path d="M24.8 29.8H5.2c-1.6 0-2.6-.9-2.6-2.2s1-2.2 2.6-2.2h.9V12.1c0-3.4 2.3-6.3 5.6-7.1V3.4A3.33 3.33 0 0 1 15 .1a3.33 3.33 0 0 1 3.3 3.3V5c3.3.8 5.6 3.7 5.6 7.1v13.3h1c1.6 0 2.6.9 2.6 2.2s-1.1 2.2-2.7 2.2zM5.2 26.4c-.5 0-1.6.1-1.6 1.2s1.1 1.2 1.6 1.2h19.6c.5 0 1.6-.1 1.6-1.2s-1.1-1.2-1.6-1.2h-2V12.1c0-3-2.2-5.7-5.2-6.2l-.4-.1V3.4c0-1.2-1-2.3-2.3-2.3a2.26 2.26 0 0 0-2.3 2.3v2.4l-.4.1C9.2 6.5 7 9.1 7 12.1v14.3H5.2z"/><path d="M6.7 25.4h16.5v1H6.7zm2.2-11a.47.47 0 0 1-.5-.5c-.1-3.8 1.1-5.7 4-6.5.3-.1.5.1.6.3.2.3 0 .5-.2.6-2.5.8-3.4 2.3-3.3 5.6-.1.3-.3.5-.6.5z"/></svg>