<svg xmlns="http://www.w3.org/2000/svg" viewBox="0 0 25 23"><path d="M11.32 17.308c-1.504 0-1.504 2.327 0 2.327s1.504-2.327 0-2.327zm4.613-7.482c1.354 0 1.354-2.066 0-2.066-1.304-.005-1.304 2.066 0 2.066zm-.4 3.686c-2.006 0-2.006 3.104 0 3.104s2.006-3.104 0-3.104zM10.92 7.505c1.153 0 1.153-1.8 0-1.8-1.203 0-1.203 1.8 0 1.8zm0 6.7c.953 0 .953-1.55 0-1.55-1.003 0-1.003 1.55 0 1.55zM5.554 7.24c-2.306 0-2.306 3.62 0 3.62 2.357 0 2.357-3.62 0-3.62zm-.15 7.345c-1.655 0-1.655 2.587 0 2.587 1.705-.005 1.705-2.587 0-2.587zm8.86-14.47A10.19 10.19 0 0 0 7.87 2.371C3.332 3.5.16 7.6.174 12.263c0 5.63 4.583 10.2 10.2 10.2 2.327 0 4.588-.797 6.403-2.256 4.533-1.143 7.702-5.22 7.686-9.893a10.23 10.23 0 0 0-10.2-10.2zM16.25 19.33c-.01.005-.02.015-.03.02a9.17 9.17 0 0 1-5.83 2.09 9.19 9.19 0 0 1-9.176-9.176C1.2 8.037 4.087 4.352 8.2 3.364c.01 0 .02-.005.026-.005a9.22 9.22 0 0 1 2.156-.256 9.19 9.19 0 0 1 9.176 9.176c.005 2.728-1.208 5.315-3.3 7.06zm2.24-.852a10.19 10.19 0 0 0 2.106-6.212 10.22 10.22 0 0 0-10.214-10.2c-.03 0-.06 0-.095.005 1.238-.597 2.597-.908 3.97-.908a9.19 9.19 0 0 1 9.176 9.176c.015 3.43-1.895 6.573-4.944 8.148z"/></svg>