<?xml version="1.0" encoding="utf-8"?>
<!-- Generator: Adobe Illustrator 23.0.1, SVG Export Plug-In . SVG Version: 6.00 Build 0)  -->
<svg version="1.1" id="Ebene_1" xmlns="http://www.w3.org/2000/svg" xmlns:xlink="http://www.w3.org/1999/xlink" x="0px" y="0px"
	 viewBox="0 0 30 30" style="enable-background:new 0 0 30 30;" xml:space="preserve">
<title>np_cookie_1883733_000000</title>
<desc>Created with Sketch.</desc>
<g id="Page-1">
	<g id="Artboard" transform="translate(-453.000000, -33.000000)">
		<g id="np_cookie_1883733_000000" transform="translate(453.000000, 33.000000)">
			<path d="M23.2,18.6c1.4,0,1.4-2.1,0-2.1C21.9,16.5,21.9,18.6,23.2,18.6z"/>
			<path d="M18,17c-2,0-2,3.1,0,3.1S20,17,18,17z"/>
			<path d="M13.4,11c1.2,0,1.2-1.8,0-1.8C12.2,9.2,12.2,11,13.4,11z"/>
			<path d="M13.4,17.7c1,0,1-1.5,0-1.5C12.4,16.2,12.4,17.7,13.4,17.7z"/>
			<path d="M7.9,18.1c-1.7,0-1.7,2.6,0,2.6C9.6,20.7,9.6,18.1,7.9,18.1z"/>
		</g>
	</g>
</g>
<path d="M8.5,12.1c0.4,0,0.8,0.4,0.8,0.8S9,13.7,8.5,13.7s-0.8-0.4-0.8-0.8S8.1,12.1,8.5,12.1 M8.5,11.1c-1,0-1.8,0.8-1.8,1.8
	s0.8,1.8,1.8,1.8s1.8-0.8,1.8-1.8S9.5,11.1,8.5,11.1L8.5,11.1z"/>
<path d="M13.8,20.9c0.4,0,0.8,0.4,0.8,0.8c0,0.4-0.4,0.8-0.8,0.8S13,22.2,13,21.7C13,21.3,13.4,20.9,13.8,20.9 M13.8,19.9
	c-1,0-1.8,0.8-1.8,1.8c0,1,0.8,1.8,1.8,1.8s1.8-0.8,1.8-1.8C15.6,20.7,14.8,19.9,13.8,19.9L13.8,19.9z"/>
<path d="M26,14.6L26,14.6L26,14.6c0-0.2-0.1-1-0.1-1c-1.7,0.6-2.6-0.9-2.6-1L23,12.2l-0.4,0.2c-0.1,0-1.9,0.8-3.5-0.6
	c-1.6-1.3-0.8-3.9-0.7-3.9l0.1-0.4L18,7.2c-0.5-0.2-0.7-0.5-0.9-0.9c-0.3-0.7,0.2-1.6,0.2-1.6l0,0c0,0-1.6-0.2-2.5-0.2
	c-6.1,0-11.1,5-11.1,11.1c0,6.1,5,11.2,11.1,11.2S26,21.8,26,15.6C26,15.3,26,14.9,26,14.6z M14.9,25.8c-5.6,0-10.1-4.6-10.1-10.2
	S9.3,5.5,14.9,5.5c0.4,0,0.8,0,1.2,0.1c0,0.3,0,0.7,0.1,1.1c0.2,0.5,0.5,0.9,1,1.2c-0.2,0.9-0.5,3.2,1.2,4.6
	c1.6,1.4,3.4,1.1,4.2,0.9c0.5,0.6,1.3,1.2,2.4,1.3c0,0.3,0.1,0.6,0.1,0.9C25,21.2,20.5,25.8,14.9,25.8z"/>
<circle cx="21.6" cy="6.2" r="0.6"/>
<circle cx="21.4" cy="9.6" r="0.9"/>
<circle cx="26.6" cy="7" r="0.6"/>
</svg>
