<svg id="Ebene_1" data-name="Ebene 1" xmlns="http://www.w3.org/2000/svg" viewBox="0 0 30 30"><title>Zeichenfläche 1</title><path d="M28.08,3.85a3.38,3.38,0,0,1-1.94.58c-.77-.17-1.07-.56-.92-1.22a1.21,1.21,0,0,1,.2-.46,1.06,1.06,0,0,1,1.15-.25,3.35,3.35,0,0,1,1.51,1.35m1.28.37a.18.18,0,0,0,0-.21c-.3-.53-1.37-2.21-2.58-2.49a2,2,0,0,0-2.16.62,2.17,2.17,0,0,0-.38.86,1.92,1.92,0,0,0,1.67,2.41c1.21.27,2.9-.8,3.4-1.15,0,0,0,0,0,0Z"/><path d="M4.41,2.85a3.4,3.4,0,0,1-1.94.58c-.78-.17-1.07-.56-.92-1.22a1.15,1.15,0,0,1,.2-.46A1.06,1.06,0,0,1,2.9,1.5,3.38,3.38,0,0,1,4.41,2.85m1.28.37A.2.2,0,0,0,5.7,3C5.4,2.48,4.33.79,3.12.52A2,2,0,0,0,1,1.14,2.2,2.2,0,0,0,.57,2,1.93,1.93,0,0,0,2.25,4.41c1.21.27,2.89-.8,3.39-1.15l.05,0Z"/><path d="M12.25,13.23a3.37,3.37,0,0,1,.22-2c.46-.65.93-.77,1.48-.38a1.1,1.1,0,0,1,.35.37,1,1,0,0,1-.21,1.15,3.37,3.37,0,0,1-1.84.87m-.83,1a.18.18,0,0,0,.19.09c.6-.07,2.57-.4,3.29-1.42a2,2,0,0,0,.27-2.23,2.17,2.17,0,0,0-.64-.68,1.91,1.91,0,0,0-2.87.61c-.72,1-.39,3-.26,3.57a.14.14,0,0,0,0,.06Z"/><path d="M8.16,21.69a3.41,3.41,0,0,1,1.42-1.45c.77-.22,1.21,0,1.4.62a1.34,1.34,0,0,1,0,.51c-.06.35-.35.62-.89.77a3.35,3.35,0,0,1-2-.45M6.87,22a.18.18,0,0,0,.09.19c.52.31,2.27,1.27,3.47.92A2,2,0,0,0,12,21.51a2.3,2.3,0,0,0-.08-.93,1.93,1.93,0,0,0-2.64-1.3c-1.19.35-2.14,2.11-2.41,2.65a.14.14,0,0,0,0,.06Z"/><path d="M5.2,6.42a3.44,3.44,0,0,1,2,.28c.63.48.73,1,.33,1.49a1.18,1.18,0,0,1-.38.34A1,1,0,0,1,6,8.28,3.36,3.36,0,0,1,5.2,6.42m-1-.86a.18.18,0,0,0-.1.19c.06.6.33,2.58,1.32,3.33a2,2,0,0,0,2.22.33,2.13,2.13,0,0,0,.7-.61,1.91,1.91,0,0,0-.52-2.89c-1-.76-3-.48-3.56-.37l-.06,0Z"/><path d="M4.16,19.88a3.29,3.29,0,0,1,.52,2c-.19.77-.58,1.05-1.24.88A1.22,1.22,0,0,1,3,22.51a1.07,1.07,0,0,1-.22-1.15,3.45,3.45,0,0,1,1.4-1.48m.39-1.27a.18.18,0,0,0-.21,0c-.53.29-2.24,1.32-2.55,2.52a2,2,0,0,0,.57,2.18,2.12,2.12,0,0,0,.84.4,1.91,1.91,0,0,0,2.45-1.61c.31-1.21-.72-2.92-1.05-3.42l0-.05Z"/><path d="M15.08,26.06A3.36,3.36,0,0,1,13.38,25c-.37-.7-.26-1.18.33-1.49a1.25,1.25,0,0,1,.49-.15q.54,0,.93.72a3.33,3.33,0,0,1-.05,2m.55,1.21a.18.18,0,0,0,.16-.13c.21-.57.81-2.48.23-3.58a2,2,0,0,0-1.87-1.25,2.31,2.31,0,0,0-.9.26,1.93,1.93,0,0,0-.76,2.84c.58,1.1,2.49,1.69,3.07,1.85Z"/><path d="M19.22,3.84a1.91,1.91,0,0,1,3-2.39c.42.52.11,1.3-.8,2S19.64,4.36,19.22,3.84ZM21.36,2A.91.91,0,0,0,20,3.15a2,2,0,0,0,.81-.44A2.14,2.14,0,0,0,21.36,2Z"/><path d="M7.28,24.32A1.9,1.9,0,1,1,3.77,25.8c-.26-.61.25-1.28,1.34-1.74S7,23.71,7.28,24.32ZM4.73,25.48a.91.91,0,0,0,1.15.42.92.92,0,0,0,.51-1.12,2.25,2.25,0,0,0-.9.21A2,2,0,0,0,4.73,25.48Z"/><path d="M10.51,25.74h.13a3.47,3.47,0,0,1,1.13.19c1.12.38,1.68,1,1.46,1.64h0a1.9,1.9,0,0,1-2.42,1.19,1.85,1.85,0,0,1-1.09-1,1.87,1.87,0,0,1-.1-1.45A.94.94,0,0,1,10.51,25.74Zm1.75,1.59a2,2,0,0,0-.81-.45,1.91,1.91,0,0,0-.9-.13.91.91,0,0,0,1.71.58Zm0-.08Z"/><path d="M22.23,8.82a2.33,2.33,0,0,1-.62-.46,2.75,2.75,0,0,1-.67-2C21,4.94,22.45,3.53,23.07,3A.69.69,0,0,1,24,3c.59.59,2,2.09,1.91,3.5h0a2.67,2.67,0,0,1-.79,2,2.44,2.44,0,0,1-1.78.62A2.88,2.88,0,0,1,22.23,8.82Zm1.28-4.89a4.46,4.46,0,0,0-1.57,2.45,1.76,1.76,0,0,0,.4,1.29,1.64,1.64,0,0,0,2.11.07,1.7,1.7,0,0,0,.47-1.27A4.38,4.38,0,0,0,23.51,3.93Zm.22-.19Z"/><path d="M12.5,17.33a3.3,3.3,0,0,1-1.59,1.26c-.78.13-1.2-.12-1.3-.79a1.23,1.23,0,0,1,0-.51c.1-.34.43-.56,1-.65a3.38,3.38,0,0,1,1.9.69m1.33-.13a.2.2,0,0,0-.07-.2c-.48-.37-2.09-1.55-3.32-1.35A2,2,0,0,0,8.66,17a2.22,2.22,0,0,0,0,.93,1.92,1.92,0,0,0,2.45,1.62c1.23-.2,2.39-1.82,2.73-2.32l0-.06Z"/><path d="M15.91,22.9a2.2,2.2,0,0,1-.75-.2,2.7,2.7,0,0,1-1.36-1.62c-.48-1.32.35-3.18.73-3.91a.67.67,0,0,1,.88-.32c.77.32,2.59,1.21,3.07,2.54h0a2.72,2.72,0,0,1,0,2.12A2.45,2.45,0,0,1,17,22.74,2.65,2.65,0,0,1,15.91,22.9Zm-.62-5a4.37,4.37,0,0,0-.55,2.86,1.73,1.73,0,0,0,.84,1.06,1.54,1.54,0,0,0,1.12,0,1.56,1.56,0,0,0,.87-.72,1.76,1.76,0,0,0,0-1.35A4.42,4.42,0,0,0,15.29,17.88Zm.13-.25Z"/></svg>