<svg xmlns="http://www.w3.org/2000/svg" viewBox="0 0 30 30"><path d="M14.5 30a.5.5 0 0 1-.5-.5v-1c0-.133.053-.26.146-.354l.555-.555-1.5-.94c-.404-.16-.68-.534-.712-.97-.032-.46.214-.887.628-1.092l2.45-1.214c.05-.025.075-.065.073-.12-.002-.038-.018-.1-.085-.116l-3.32-1.315c-.458-.182-.738-.615-.714-1.106s.348-.896.824-1.03l4.834-1.368c.024-.007.1-.027.098-.127s-.077-.118-.103-.124l-5.406-1.34c-.516-.128-.86-.568-.86-1.098s.346-.97.86-1.097l6.043-1.496c.06-.015.096-.054.102-.113s-.018-.103-.072-.13l-2.6-.82c-.737-.234-1.232-.91-1.232-1.677V8.5a.5.5 0 1 1 1 0v1.798a.76.76 0 0 0 .535.724l2.67.85c.5.24.745.687.693 1.16s-.387.86-.854.977L12 15.505c-.025.006-.102.025-.102.126s.076.12.102.127l5.406 1.34c.507.125.854.56.86 1.078s-.323.965-.825 1.106l-4.834 1.368c-.062.018-.094.058-.097.12s.024.103.083.126l3.32 1.315a1.12 1.12 0 0 1 .715 1.005c.02.45-.223.856-.63 1.058l-2.45 1.214c-.053.026-.078.068-.073.124a.12.12 0 0 0 .091.114c.038.012.074.03.108.05l2.088 1.302a.5.5 0 0 1 .088.777l-.852.853v.793a.5.5 0 0 1-.5.5z"/><path d="M25.5 10c-1.1 0-2.1-.708-2.758-1.913l-8.187.9c-.037.004-.074.004-.11 0l-8.187-.9C5.6 9.292 4.6 10 3.5 10 1.537 10 0 7.804 0 5s1.537-5 3.5-5c1.1 0 2.1.708 2.758 1.913l8.187-.9c.037-.004.074-.004.11 0l8.187.9C23.4.708 24.4 0 25.5 0 27.463 0 29 2.196 29 5s-1.537 5-3.5 5zm-2.468-2.948a.5.5 0 0 1 .454.291C23.964 8.38 24.717 9 25.5 9 26.855 9 28 7.168 28 5s-1.145-4-2.5-4c-.783 0-1.536.62-2.014 1.657a.5.5 0 0 1-.51.288L14.5 2.003l-8.477.942c-.21.025-.42-.092-.5-.288C5.036 1.62 4.283 1 3.5 1 2.145 1 1 2.832 1 5s1.145 4 2.5 4c.783 0 1.536-.62 2.014-1.657.1-.195.3-.313.5-.288l8.476.942 8.477-.942c.018-.002.037-.003.055-.003z"/></svg>