<?xml version="1.0" encoding="UTF-8"?><svg version="1.1" viewBox="0 0 30 30" xmlns="http://www.w3.org/2000/svg" xmlns:xlink="http://www.w3.org/1999/xlink"><g fill="#000"><path d="M1,22.5c-0.3,0 -0.5,-0.2 -0.5,-0.5c0,-7 2.8,-9.6 4.7,-11.3c0.3,-0.2 0.5,-0.4 0.7,-0.7c1.7,-1.7 6,-6.7 6.6,-9.2c0,-0.2 0.2,-0.3 0.4,-0.4c0.2,0 0.4,0 0.5,0.1c0.8,0.8 0.9,2.5 1,4.5c0,0.6 0.1,1.2 0.1,1.8c0,0.3 -0.2,0.5 -0.4,0.5c-0.3,0 -0.5,-0.2 -0.5,-0.4c-0.1,-0.6 -0.1,-1.2 -0.1,-1.8c-0.1,-1.1 -0.1,-2.2 -0.3,-3c-1.4,2.9 -5.1,7.2 -6.4,8.5c-0.2,0.2 -0.5,0.4 -0.7,0.7c-2.1,1.8 -4.6,4.1 -4.6,10.7c0,0.3 -0.2,0.5 -0.5,0.5Z"></path><path d="M5,29c-0.1,0 -0.1,0 -0.2,0c-2.8,-1 -4.3,-4.3 -4.3,-7c0,-3.4 5,-8 10.4,-12.8c0.8,-0.8 1.7,-1.5 2.5,-2.3c4.6,-4.2 10.9,-5.9 12.7,-6.3c0.2,3.33067e-16 0.4,-0.1 0.6,-0.1c1.5,0 2.8,1.2 2.8,2.8c0,0.2 0,0.4 -0.1,0.6c-0.4,1.7 -2.2,7 -6.1,11.5c-0.2,0.2 -0.5,0.2 -0.7,0.1c-0.2,-0.2 -0.2,-0.5 -0.1,-0.7c4.4,-5.1 5.8,-11 5.8,-11c0,-0.1 0,-0.2 0,-0.4c0,-1 -0.8,-1.8 -1.8,-1.8c-0.1,0 -0.3,0 -0.4,0c-1.5,0.4 -7.6,2 -12,6c-0.8,0.8 -1.7,1.5 -2.5,2.3c-5,4.5 -10.1,9.1 -10.1,12.1c0,2.7 1.6,5.3 3.7,6c0.3,0.1 0.4,0.4 0.3,0.6c-0.1,0.3 -0.3,0.4 -0.5,0.4Z"></path><path d="M7.5,29.5c-4,0 -5.9,-3.6 -5.9,-3.8c-0.1,-0.2 -0.1,-0.4 0.1,-0.6c8.4,-8.4 16.3,-10.6 19.3,-10.6c2.9,0 7.1,0.9 8.4,2.1c0.1,0.1 0.2,0.3 0.1,0.5c0,0.2 -0.2,0.3 -0.4,0.4c-2.4,0.6 -7.6,4.6 -9.4,6.4c-0.2,0.2 -0.4,0.4 -0.7,0.7c-1.7,1.9 -4.5,4.9 -11.5,4.9Zm-4.9,-3.9c0.5,0.8 2.2,2.9 4.9,2.9c6.6,0 9.2,-2.8 10.8,-4.6c0.2,-0.3 0.5,-0.5 0.7,-0.7c1.5,-1.5 6,-5 8.9,-6.3c-1.5,-0.7 -4.5,-1.4 -6.9,-1.4c-2.8,1.77636e-15 -10.3,2.1 -18.4,10.1Z"></path><path d="M5.35355,19.6464c0.195262,0.195262 0.195262,0.511845 0,0.707107c-0.195262,0.195262 -0.511845,0.195262 -0.707107,0c-0.195262,-0.195262 -0.195262,-0.511845 0,-0.707107c0.195262,-0.195262 0.511845,-0.195262 0.707107,0"></path><path d="M9.35355,15.6464c0.195262,0.195262 0.195262,0.511845 0,0.707107c-0.195262,0.195262 -0.511845,0.195262 -0.707107,0c-0.195262,-0.195262 -0.195262,-0.511845 0,-0.707107c0.195262,-0.195262 0.511845,-0.195262 0.707107,0"></path><path d="M12.3536,11.6464c0.195262,0.195262 0.195262,0.511845 0,0.707107c-0.195262,0.195262 -0.511845,0.195262 -0.707107,0c-0.195262,-0.195262 -0.195262,-0.511845 0,-0.707107c0.195262,-0.195262 0.511845,-0.195262 0.707107,0"></path><path d="M16.3536,11.6464c0.195262,0.195262 0.195262,0.511845 0,0.707107c-0.195262,0.195262 -0.511845,0.195262 -0.707107,0c-0.195262,-0.195262 -0.195262,-0.511845 0,-0.707107c0.195262,-0.195262 0.511845,-0.195262 0.707107,0"></path><path d="M21.3536,12.6464c0.195262,0.195262 0.195262,0.511845 0,0.707107c-0.195262,0.195262 -0.511845,0.195262 -0.707107,0c-0.195262,-0.195262 -0.195262,-0.511845 0,-0.707107c0.195262,-0.195262 0.511845,-0.195262 0.707107,0"></path><path d="M20.3536,9.64645c0.195262,0.195262 0.195262,0.511845 0,0.707107c-0.195262,0.195262 -0.511845,0.195262 -0.707107,0c-0.195262,-0.195262 -0.195262,-0.511845 0,-0.707107c0.195262,-0.195262 0.511845,-0.195262 0.707107,0"></path><path d="M16.3536,8.64645c0.195262,0.195262 0.195262,0.511845 0,0.707107c-0.195262,0.195262 -0.511845,0.195262 -0.707107,0c-0.195262,-0.195262 -0.195262,-0.511845 0,-0.707107c0.195262,-0.195262 0.511845,-0.195262 0.707107,0"></path><path d="M20.3536,5.64645c0.195262,0.195262 0.195262,0.511845 0,0.707107c-0.195262,0.195262 -0.511845,0.195262 -0.707107,0c-0.195262,-0.195262 -0.195262,-0.511845 0,-0.707107c0.195262,-0.195262 0.511845,-0.195262 0.707107,0"></path><path d="M24.3536,7.64645c0.195262,0.195262 0.195262,0.511845 0,0.707107c-0.195262,0.195262 -0.511845,0.195262 -0.707107,0c-0.195262,-0.195262 -0.195262,-0.511845 0,-0.707107c0.195262,-0.195262 0.511845,-0.195262 0.707107,0"></path><path d="M25.3536,4.64645c0.195262,0.195262 0.195262,0.511845 0,0.707107c-0.195262,0.195262 -0.511845,0.195262 -0.707107,0c-0.195262,-0.195262 -0.195262,-0.511845 0,-0.707107c0.195262,-0.195262 0.511845,-0.195262 0.707107,0"></path></g></svg>