<?xml version="1.0" encoding="utf-8"?>
<!-- Generator: Adobe Illustrator 23.0.1, SVG Export Plug-In . SVG Version: 6.00 Build 0)  -->
<svg version="1.1" id="Layer_1" xmlns="http://www.w3.org/2000/svg" xmlns:xlink="http://www.w3.org/1999/xlink" x="0px" y="0px"
	 viewBox="0 0 30 30" style="enable-background:new 0 0 30 30;" xml:space="preserve">
<path d="M15,29.8C6.9,29.8,0.2,23.1,0.2,15C0.2,6.9,6.9,0.2,15,0.2c8.1,0,14.8,6.6,14.8,14.8C29.8,23.1,23.1,29.8,15,29.8z M15,1.2
	C7.4,1.2,1.2,7.4,1.2,15c0,7.6,6.2,13.8,13.8,13.8c7.6,0,13.8-6.2,13.8-13.8C28.8,7.4,22.6,1.2,15,1.2z"/>
<g>
	<path d="M21.9,11.1c0.1,0,0.3,0,0.4-0.1l1.3-1.3c0.2-0.2,0.2-0.5,0-0.7s-0.5-0.2-0.7,0l-1.3,1.3c-0.2,0.2-0.2,0.5,0,0.7
		C21.7,11,21.8,11.1,21.9,11.1z"/>
	<path d="M20.4,11.4L19,12.7c-0.2,0.2-0.2,0.5,0,0.7c0.1,0.1,0.2,0.1,0.4,0.1s0.3,0,0.4-0.1l1.3-1.3c0.2-0.2,0.2-0.5,0-0.7
		S20.6,11.2,20.4,11.4z"/>
	<path d="M17.8,13.9l-1.3,1.3c-0.2,0.2-0.2,0.5,0,0.7c0.1,0.1,0.2,0.1,0.4,0.1s0.3,0,0.4-0.1l1.3-1.3c0.2-0.2,0.2-0.5,0-0.7
		S18,13.7,17.8,13.9z"/>
	<path d="M15.3,16.5l-1.3,1.3c-0.2,0.2-0.2,0.5,0,0.7c0.1,0.1,0.2,0.1,0.4,0.1s0.3,0,0.4-0.1l1.3-1.3c0.2-0.2,0.2-0.5,0-0.7
		S15.5,16.3,15.3,16.5z"/>
	<path d="M12.7,19l-1.3,1.3c-0.2,0.2-0.2,0.5,0,0.7c0.1,0.1,0.2,0.1,0.4,0.1s0.3,0,0.4-0.1l1.3-1.3c0.2-0.2,0.2-0.5,0-0.7
		S12.9,18.8,12.7,19z"/>
	<path d="M10.2,21.6l-1.3,1.3c-0.2,0.2-0.2,0.5,0,0.7c0.1,0.1,0.2,0.1,0.4,0.1s0.3,0,0.4-0.1l1.3-1.3c0.2-0.2,0.2-0.5,0-0.7
		S10.4,21.4,10.2,21.6z"/>
	<path d="M20.4,6.4l-1.3,1.3c-0.2,0.2-0.2,0.5,0,0.7c0.1,0.1,0.2,0.1,0.4,0.1s0.3,0,0.4-0.1l1.3-1.3c0.2-0.2,0.2-0.5,0-0.7
		S20.6,6.2,20.4,6.4z"/>
	<path d="M17.9,8.9l-1.3,1.3c-0.2,0.2-0.2,0.5,0,0.7c0.1,0.1,0.2,0.1,0.4,0.1s0.3,0,0.4-0.1l1.3-1.3c0.2-0.2,0.2-0.5,0-0.7
		S18.1,8.7,17.9,8.9z"/>
	<path d="M15.4,11.5L14,12.8c-0.2,0.2-0.2,0.5,0,0.7c0.1,0.1,0.2,0.1,0.4,0.1s0.3,0,0.4-0.1l1.3-1.3c0.2-0.2,0.2-0.5,0-0.7
		S15.6,11.3,15.4,11.5z"/>
	<path d="M12.8,14l-1.3,1.3c-0.2,0.2-0.2,0.5,0,0.7c0.1,0.1,0.2,0.1,0.4,0.1s0.3,0,0.4-0.1l1.3-1.3c0.2-0.2,0.2-0.5,0-0.7
		S13,13.8,12.8,14z"/>
	<path d="M10.3,16.6l-1.3,1.3c-0.2,0.2-0.2,0.5,0,0.7c0.1,0.1,0.2,0.1,0.4,0.1s0.3,0,0.4-0.1l1.3-1.3c0.2-0.2,0.2-0.5,0-0.7
		S10.5,16.4,10.3,16.6z"/>
	<path d="M7.7,19.1l-1.3,1.3c-0.2,0.2-0.2,0.5,0,0.7c0.1,0.1,0.2,0.1,0.4,0.1s0.3,0,0.4-0.1l1.3-1.3c0.2-0.2,0.2-0.5,0-0.7
		S7.9,18.9,7.7,19.1z"/>
	<path d="M14.4,8.7c0.1,0,0.3,0,0.4-0.1l1.3-1.3c0.2-0.2,0.2-0.5,0-0.7s-0.5-0.2-0.7,0l-1.3,1.3c-0.2,0.2-0.2,0.5,0,0.7
		C14.2,8.6,14.3,8.7,14.4,8.7z"/>
	<path d="M11.9,11.2c0.1,0,0.3,0,0.4-0.1l1.3-1.3c0.2-0.2,0.2-0.5,0-0.7s-0.5-0.2-0.7,0l-1.3,1.3c-0.2,0.2-0.2,0.5,0,0.7
		C11.6,11.2,11.8,11.2,11.9,11.2z"/>
	<path d="M10.4,11.5L9,12.9c-0.2,0.2-0.2,0.5,0,0.7c0.1,0.1,0.2,0.1,0.4,0.1s0.3,0,0.4-0.1l1.3-1.3c0.2-0.2,0.2-0.5,0-0.7
		S10.5,11.4,10.4,11.5z"/>
	<path d="M7.8,14.1l-1.3,1.3c-0.2,0.2-0.2,0.5,0,0.7c0.1,0.1,0.2,0.1,0.4,0.1s0.3,0,0.4-0.1l1.3-1.3c0.2-0.2,0.2-0.5,0-0.7
		S8,13.9,7.8,14.1z"/>
	<path d="M9.4,8.7c0.1,0,0.3,0,0.4-0.1l1.3-1.3c0.2-0.2,0.2-0.5,0-0.7s-0.5-0.2-0.7,0L9.1,7.9c-0.2,0.2-0.2,0.5,0,0.7
		C9.2,8.7,9.3,8.7,9.4,8.7z"/>
	<path d="M7.9,9.1l-1.3,1.3c-0.2,0.2-0.2,0.5,0,0.7c0.1,0.1,0.2,0.1,0.4,0.1s0.3,0,0.4-0.1l1.3-1.3c0.2-0.2,0.2-0.5,0-0.7
		S8.1,8.9,7.9,9.1z"/>
	<path d="M22.8,13.9l-1.3,1.3c-0.2,0.2-0.2,0.5,0,0.7c0.1,0.1,0.2,0.1,0.4,0.1s0.3,0,0.4-0.1l1.3-1.3c0.2-0.2,0.2-0.5,0-0.7
		S23,13.7,22.8,13.9z"/>
	<path d="M20.3,16.4l-1.3,1.3c-0.2,0.2-0.2,0.5,0,0.7c0.1,0.1,0.2,0.1,0.4,0.1s0.3,0,0.4-0.1l1.3-1.3c0.2-0.2,0.2-0.5,0-0.7
		S20.5,16.2,20.3,16.4z"/>
	<path d="M17.7,18.9l-1.3,1.3c-0.2,0.2-0.2,0.5,0,0.7c0.1,0.1,0.2,0.1,0.4,0.1s0.3,0,0.4-0.1l1.3-1.3c0.2-0.2,0.2-0.5,0-0.7
		S17.9,18.7,17.7,18.9z"/>
	<path d="M22.8,18.9l-1.3,1.3c-0.2,0.2-0.2,0.5,0,0.7c0.1,0.1,0.2,0.1,0.4,0.1s0.3,0,0.4-0.1l1.3-1.3c0.2-0.2,0.2-0.5,0-0.7
		S22.9,18.7,22.8,18.9z"/>
	<path d="M20.2,21.4l-1.3,1.3c-0.2,0.2-0.2,0.5,0,0.7c0.1,0.1,0.2,0.1,0.4,0.1s0.3,0,0.4-0.1l1.3-1.3c0.2-0.2,0.2-0.5,0-0.7
		S20.4,21.2,20.2,21.4z"/>
	<path d="M15.2,21.5l-1.3,1.3c-0.2,0.2-0.2,0.5,0,0.7c0.1,0.1,0.2,0.1,0.4,0.1s0.3,0,0.4-0.1l1.3-1.3c0.2-0.2,0.2-0.5,0-0.7
		S15.4,21.3,15.2,21.5z"/>
</g>
</svg>
