<?xml version="1.0" encoding="utf-8"?>
<!-- Generator: Adobe Illustrator 23.0.1, SVG Export Plug-In . SVG Version: 6.00 Build 0)  -->
<svg version="1.1" id="Layer_1" xmlns="http://www.w3.org/2000/svg" xmlns:xlink="http://www.w3.org/1999/xlink" x="0px" y="0px"
	 viewBox="0 0 30 30" style="enable-background:new 0 0 30 30;" xml:space="preserve">
<g>
	<rect x="11.8" y="15.9" transform="matrix(0.3179 -0.9481 0.9481 0.3179 -1.1431 31.3247)" width="18.8" height="1.1"/>
	<path d="M23.9,8.4c-1-0.3-1.5-1.8-0.9-3.3s1.7-2.4,2.7-2.1c1,0.3,1.5,1.8,0.9,3.3S24.9,8.7,23.9,8.4z M25.4,4
		C25,3.9,24.3,4.5,24,5.4c-0.3,1-0.1,1.8,0.3,2C24.6,7.5,25.3,7,25.6,6S25.8,4.2,25.4,4z"/>
	<path d="M16.8,29.7c-1-0.3-1.5-1.8-0.9-3.3c0.5-1.5,1.7-2.4,2.7-2.1c1,0.3,1.5,1.8,0.9,3.3C19,29.1,17.8,30,16.8,29.7z M18.2,25.3
		c-0.4-0.1-1.1,0.4-1.4,1.4c-0.3,1-0.1,1.8,0.3,2c0.4,0.1,1.1-0.4,1.4-1.4C18.8,26.3,18.6,25.5,18.2,25.3z"/>
	<rect x="0.3" y="15.3" transform="matrix(0.1558 -0.9878 0.9878 0.1558 -7.4259 22.8733)" width="18.8" height="1.1"/>
	<path d="M11,7.4C9.9,7.2,9.3,5.9,9.5,4.3c0.2-1.6,1.3-2.7,2.4-2.5C13,2,13.6,3.3,13.4,4.9S12.1,7.6,11,7.4z M11.7,2.8
		c-0.4-0.1-1,0.6-1.2,1.6s0.2,1.8,0.6,1.9c0.4,0.1,1-0.6,1.2-1.6S12.1,2.9,11.7,2.8z"/>
	<path d="M7.5,29.6C6.4,29.4,5.8,28,6,26.5c0.2-1.6,1.3-2.7,2.4-2.5c1.1,0.2,1.7,1.5,1.5,3.1C9.6,28.6,8.6,29.7,7.5,29.6z M8.2,25
		c-0.4-0.1-1,0.6-1.2,1.6c-0.2,1,0.2,1.8,0.6,1.9c0.4,0.1,1-0.6,1.2-1.6C9,25.9,8.6,25.1,8.2,25z"/>
	<rect x="8.3" y="4.3" transform="matrix(0.9472 -0.3206 0.3206 0.9472 -3.9312 3.5556)" width="1.1" height="18.8"/>
	<path d="M6.1,5.7C5.1,6,3.9,5.1,3.4,3.6s-0.1-3,0.9-3.3C5.3,0,6.5,0.9,7,2.4S7.1,5.3,6.1,5.7z M4.6,1.3c-0.4,0.1-0.6,1-0.3,2
		c0.3,1,1,1.5,1.4,1.4c0.4-0.1,0.6-1,0.3-2S5,1.2,4.6,1.3z"/>
	<path d="M13.3,26.9c-1,0.4-2.2-0.6-2.8-2.1c-0.5-1.5-0.1-3,0.9-3.3c1-0.4,2.2,0.6,2.8,2.1C14.8,25.1,14.3,26.6,13.3,26.9z
		 M11.8,22.6c-0.4,0.1-0.6,1-0.3,2c0.3,1,1,1.5,1.4,1.4c0.4-0.1,0.6-1,0.3-2C12.9,23,12.2,22.4,11.8,22.6z"/>
</g>
</svg>
