<svg id="Ebene_1" data-name="Ebene 1" xmlns="http://www.w3.org/2000/svg" viewBox="0 0 30 30"><g id="Page-1"><g id="Artboard"><path id="Shape" d="M28,19.5H2A.51.51,0,0,1,1.5,19V17A.51.51,0,0,1,2,16.5h.6l1-5.58a.51.51,0,0,1,.51-.42h5.2a.51.51,0,0,1,.51.42l1,5.58h.16l1-5.58a.52.52,0,0,1,.52-.42h5.2a.51.51,0,0,1,.51.42l1,5.58h.16l1-5.58a.52.52,0,0,1,.52-.42h5.2a.51.51,0,0,1,.51.42l1,5.58H28a.51.51,0,0,1,.37.15.47.47,0,0,1,.15.35v2a.47.47,0,0,1-.15.35.51.51,0,0,1-.37.15Zm-25.45-1H27.47v-1H27a.52.52,0,0,1-.51-.42l-1-5.58H21.14l-1,5.58a.52.52,0,0,1-.51.42h-1a.52.52,0,0,1-.51-.42l-1-5.58H12.83l-1,5.58a.52.52,0,0,1-.51.42h-1a.52.52,0,0,1-.51-.42l-1-5.58H4.52l-1,5.58a.52.52,0,0,1-.51.42H2.53Z"/></g></g></svg>