<?xml version="1.0" encoding="UTF-8"?><svg version="1.1" viewBox="0 0 30 30" xmlns="http://www.w3.org/2000/svg" xmlns:xlink="http://www.w3.org/1999/xlink"><g fill="#000"><path d="M11.5,25c-0.2,0 -0.5,-0.2 -0.5,-0.4c0,-0.1 -0.1,-0.6 -0.5,-0.6c-0.3,0 -0.5,-0.2 -0.5,-0.5c0,-0.3 0.2,-0.5 0.5,-0.5c1,0 1.4,0.9 1.5,1.4c0,0.3 -0.2,0.6 -0.5,0.6c0.1,0 0,0 0,0Z"></path><path d="M13.5,19c-0.3,0 -0.5,-0.2 -0.5,-0.5c0,-0.6 0.3,-1.3 0.6,-1.9c0.2,-0.4 0.4,-0.9 0.4,-1.1c0,-0.1 0,-0.2 0,-0.3c0,-0.7 0.1,-2 -0.8,-2.8c-0.9,-0.7 -1.3,-1.5 -1.6,-2.2c-0.5,-1 -1.3,-1.2 -3,-1.2c-0.4,-3.55271e-15 -0.6,-0.2 -0.6,-0.5c0,-0.3 0.2,-0.5 0.5,-0.5c1.8,0 3.2,0.1 4,1.8c0.3,0.6 0.7,1.3 1.4,1.8c1.4,1 1.3,2.8 1.2,3.6c0,0.1 0,0.2 0,0.3c0,0.4 -0.2,0.8 -0.5,1.5c-0.2,0.5 -0.5,1.2 -0.5,1.5c-0.1,0.3 -0.3,0.5 -0.6,0.5Z"></path><path d="M8.5,9c-6,0 -7,-5.8 -7.4,-8l-0.1,-0.4c0,-0.3 0.1,-0.5 0.4,-0.6c0.2,-0.1 0.5,0 0.6,0.3c1.6,3.8 7.9,4.7 9,4.7c0.3,0 0.5,0.2 0.5,0.5c0,0.3 -0.2,0.5 -0.5,0.5c-1,0 -5.8,-0.6 -8.5,-3.2c0.6,2.3 2,5.2 6,5.2c0.3,0 0.5,0.2 0.5,0.5c0,0.3 -0.2,0.5 -0.5,0.5Z"></path><path d="M6.5,14c-3,0 -6.2,-3 -6.3,-3.1c-0.2,-0.2 -0.2,-0.4 -0.1,-0.6c1.8,-2.8 5,-2.5 7.1,-2.3c0.5,0 0.9,0 1.3,0c0.3,0 0.5,0.2 0.5,0.5c0,0.3 -0.2,0.5 -0.5,0.5c-0.4,0 -0.9,0 -1.4,-0.1c-2,-0.2 -4.5,-0.4 -5.9,1.5c0.8,0.7 3.2,2.6 5.3,2.6c0.3,0 0.5,0.2 0.5,0.5c0,0.3 -0.2,0.5 -0.5,0.5Z"></path><path d="M9,22.5c0,0 -0.1,0 0,0c-0.4,-0.1 -0.5,-0.3 -0.5,-0.6l0.5,-2.5c0,-0.9 -0.7,-1.6 -1.5,-2.3c-0.7,-0.8 -1.5,-1.5 -1.5,-2.6c0,-1.1 0.5,-1.8 0.9,-2.5c0.3,-0.5 0.6,-0.9 0.6,-1.5c0,-3.4 3.9,-6.5 7,-6.5h1.3c3,0 6.7,3 6.7,6.5c0,0.6 0.3,1 0.6,1.5c0.4,0.6 0.9,1.4 0.9,2.5c0,1.1 -0.8,1.8 -1.6,2.4c-0.7,0.6 -1.4,1.1 -1.4,2.1l0.5,2.9c0,0.3 -0.1,0.5 -0.4,0.6c-0.3,0.1 -0.5,-0.1 -0.6,-0.4l-0.5,-3c0,-1.5 1,-2.4 1.8,-3c0.7,-0.6 1.2,-1 1.2,-1.6c0,-0.8 -0.4,-1.4 -0.7,-1.9c-0.4,-0.6 -0.8,-1.2 -0.8,-2.1c0,-2.8 -3.2,-5.5 -5.7,-5.5h-1.3c-2.6,0 -6,2.7 -6,5.5c0,0.9 -0.4,1.5 -0.8,2.1c-0.3,0.5 -0.7,1.1 -0.7,1.9c0,0.7 0.6,1.2 1.2,1.8c0.8,0.8 1.8,1.7 1.8,3.2l-0.5,2.6c-0.1,0.2 -0.3,0.4 -0.5,0.4Z"></path><path d="M18,27.5c-0.9,0 -1.4,-0.5 -1.8,-0.9c-0.3,-0.3 -0.6,-0.6 -1.2,-0.6c-0.6,0 -0.9,0.3 -1.2,0.6c-0.4,0.4 -0.9,0.9 -1.8,0.9c-3.3,0 -4,-1.6 -4,-3c0,-3.1 1.5,-3.5 2.6,-3.8c0.4,-0.1 0.7,-0.2 0.9,-0.4c0.2,-0.2 0.4,-0.5 0.6,-0.7c0.5,-0.7 1,-1.6 2.9,-1.6c1.9,0 2.5,0.8 2.9,1.6c0.2,0.3 0.3,0.5 0.6,0.7c0.2,0.2 0.5,0.3 0.9,0.4c1.1,0.3 2.6,0.7 2.6,3.8c0,1.4 -0.7,3 -4,3Zm-3,-2.5c1,0 1.5,0.5 1.9,0.9c0.4,0.4 0.6,0.6 1.1,0.6c2.7,0 3,-1.1 3,-2c0,-2.3 -0.9,-2.6 -1.9,-2.8c-0.5,-0.1 -1,-0.3 -1.3,-0.6c-0.3,-0.3 -0.5,-0.6 -0.7,-0.9c-0.4,-0.7 -0.7,-1.2 -2.1,-1.2c-1.4,0 -1.7,0.5 -2.1,1.1c-0.2,0.3 -0.4,0.6 -0.7,0.9c-0.4,0.4 -0.9,0.5 -1.3,0.6c-1,0.3 -1.9,0.5 -1.9,2.8c0,0.9 0.3,2 3,2c0.5,0 0.7,-0.2 1.1,-0.6c0.4,-0.3 0.9,-0.8 1.9,-0.8Z"></path><path d="M15,30c-2.4,0 -3.4,-1.1 -4.4,-2.1c-0.2,-0.2 -0.3,-0.4 -0.5,-0.5c-0.2,-0.2 -0.2,-0.5 0,-0.7c0.2,-0.2 0.5,-0.2 0.7,0c0.2,0.2 0.4,0.4 0.5,0.6c0.9,1 1.7,1.8 3.6,1.8c1.9,0 2.7,-0.8 3.6,-1.8c0.2,-0.2 0.3,-0.4 0.5,-0.6c0.2,-0.2 0.5,-0.2 0.7,0c0.2,0.2 0.2,0.5 0,0.7c-0.2,0.2 -0.3,0.4 -0.5,0.5c-0.8,1 -1.8,2.1 -4.2,2.1Z"></path><path d="M18.5,25c0,0 -0.1,0 0,0c-0.4,0 -0.5,-0.3 -0.5,-0.6c0.1,-0.5 0.5,-1.4 1.5,-1.4c0.3,0 0.5,0.2 0.5,0.5c0,0.3 -0.2,0.5 -0.5,0.5c-0.4,0 -0.5,0.5 -0.5,0.6c0,0.2 -0.3,0.4 -0.5,0.4Z"></path><path d="M21.5,9c-0.3,0 -0.5,-0.2 -0.5,-0.5c0,-0.3 0.2,-0.5 0.5,-0.5c4,0 5.4,-2.9 6,-5.2c-2.7,2.6 -7.5,3.2 -8.5,3.2c-0.3,0 -0.5,-0.2 -0.5,-0.5c0,-0.3 0.2,-0.5 0.5,-0.5c1.1,0 7.4,-0.9 9,-4.7c0.1,-0.2 0.4,-0.4 0.6,-0.3c0.3,0.1 0.4,0.3 0.4,0.6l-0.1,0.4c-0.4,2.2 -1.4,8 -7.4,8Z"></path><path d="M23.5,14c-0.3,0 -0.5,-0.2 -0.5,-0.5c0,-0.3 0.2,-0.5 0.5,-0.5c2.1,0 4.5,-1.9 5.3,-2.6c-1.5,-1.9 -3.9,-1.7 -5.9,-1.5c-0.5,0 -1,0.1 -1.4,0.1c-0.3,0 -0.5,-0.2 -0.5,-0.5c0,-0.3 0.2,-0.5 0.5,-0.5c0.4,0 0.8,0 1.3,-0.1c2.1,-0.2 5.4,-0.5 7.1,2.3c0.1,0.2 0.1,0.5 -0.1,0.6c-0.1,0.2 -3.3,3.2 -6.3,3.2Z"></path><path d="M10.5,16c-0.8,0 -1.5,-0.7 -1.5,-1.5c0,-0.8 0.7,-1.5 1.5,-1.5c0.8,0 1.5,0.7 1.5,1.5c0,0.8 -0.7,1.5 -1.5,1.5Zm0,-2c-0.3,0 -0.5,0.2 -0.5,0.5c0,0.3 0.2,0.5 0.5,0.5c0.3,0 0.5,-0.2 0.5,-0.5c0,-0.3 -0.2,-0.5 -0.5,-0.5Z"></path><path d="M19.5,16c-0.8,0 -1.5,-0.7 -1.5,-1.5c0,-0.8 0.7,-1.5 1.5,-1.5c0.8,0 1.5,0.7 1.5,1.5c0,0.8 -0.7,1.5 -1.5,1.5Zm0,-2c-0.3,0 -0.5,0.2 -0.5,0.5c0,0.3 0.2,0.5 0.5,0.5c0.3,0 0.5,-0.2 0.5,-0.5c0,-0.3 -0.2,-0.5 -0.5,-0.5Z"></path></g></svg>