<?xml version="1.0" encoding="UTF-8"?><svg version="1.1" viewBox="0 0 30 30" xmlns="http://www.w3.org/2000/svg" xmlns:xlink="http://www.w3.org/1999/xlink"><g fill="#000"><path d="M18,30c-14.8,0 -18,-12.3 -18,-17c0,-3.3 11,-4 13,-4c0.3,0 0.5,0.2 0.5,0.5c0,2.2 2.1,5.7 4.7,6.8c0.2,0.1 0.3,0.2 0.3,0.4c0,0.2 -0.1,0.4 -0.2,0.5c-1.7,1.1 -2.3,3.8 -2.3,5.2c0,1.5 0.5,4.9 2.4,6.8c0.1,0.1 0.2,0.4 0.1,0.5c-0.1,0.2 -0.3,0.3 -0.5,0.3Zm-5.5,-20c-4.6,0.1 -11.5,1.4 -11.5,3c0,0.2 0.4,15.3 15.9,16c-1.5,-2.1 -1.9,-5.1 -1.9,-6.6c0,-1.5 0.6,-4.1 2.1,-5.5c-2.5,-1.5 -4.3,-4.6 -4.6,-6.9Z"></path><path d="M18,29.5c-0.3,0 -0.5,-0.2 -0.5,-0.5c0,-0.3 0.2,-0.5 0.5,-0.5c1.4,-0.1 5.1,-0.6 6.7,-1.5c-3.4,-2.7 -3.6,-6.7 -3.7,-8.5c-0.9,0 -2.9,-0.1 -3.9,-0.7c-0.2,-0.1 -0.3,-0.4 -0.2,-0.7c0.1,-0.2 0.4,-0.3 0.7,-0.2c0.8,0.5 3.1,0.6 3.9,0.6c0.1,0 0.3,0 0.4,0.1c0.1,0.1 0.1,0.2 0.1,0.4v0.1c0,1.5 0,5.9 3.8,8.5c0.1,0.1 0.2,0.2 0.2,0.4c0,0.1 0,0.3 -0.1,0.4c-1.7,1.6 -7.2,2.1 -7.9,2.1c0,0 0,0 0,0Z"></path><path d="M24.9,26.6c-0.2,0 -0.4,-0.1 -0.4,-0.3c-0.1,-0.2 0,-0.5 0.2,-0.7c1.2,-0.5 4.3,-2.6 4.3,-4.6c0,-0.7 -0.2,-1.2 -0.5,-1.5c-0.8,-0.7 -2.5,-0.4 -4.1,-0.2c-0.8,0.1 -1.7,0.2 -2.4,0.2c-0.3,0 -0.5,-0.2 -0.5,-0.5c0,-0.3 0.2,-0.5 0.5,-0.5c0.7,0 1.4,-0.1 2.3,-0.2c1.8,-0.3 3.7,-0.5 4.9,0.4c0.5,0.5 0.8,1.3 0.8,2.3c0,3.1 -4.7,5.5 -4.9,5.6c-0.1,0 -0.1,0 -0.2,0Z"></path><path d="M1.5,12c0,0 -0.1,0 0,0c-0.4,0 -0.5,-0.3 -0.5,-0.6c0.1,-0.6 1,-6.1 2.6,-7.8c0.2,-0.1 0.3,-0.1 0.4,-0.1c0.1,0 0.3,0.1 0.4,0.2c2.1,3 5.4,2.4 7.3,2c0.8,-0.2 1.3,-0.4 1.6,0c0.1,0.1 0.1,0.3 0.1,0.4c1.77636e-15,0.7 -0.4,2.8 -0.4,3.4c0,0.3 -0.2,0.5 -0.5,0.5c-0.3,0 -0.5,-0.2 -0.5,-0.5c0,-0.6 0.2,-2.1 0.4,-2.9c-0.1,0 -0.3,0.1 -0.4,0.1c-2,0.4 -5.5,1.1 -8,-1.8c-1,1.6 -1.8,5.3 -2,6.8c0,0.1 -0.3,0.3 -0.5,0.3Z"></path><path d="M11.8,6.6c-0.1,0 -0.2,0 -0.3,-0.1c-0.2,-0.1 -0.3,-0.5 -0.2,-0.7c0.6,-1 2.1,-3.3 1.6,-4.3c-0.3,-0.4 -1.2,-0.5 -1.9,-0.5c-2.6,0 -5.7,3.5 -5.7,3.6c-0.2,0.2 -0.5,0.2 -0.7,0c-0.2,-0.2 -0.2,-0.5 0,-0.7c0,-0.1 3.4,-3.9 6.4,-3.9c1.4,0 2.3,0.4 2.8,1.1c0.7,1.3 -0.4,3.4 -1.6,5.3c-0.1,0.1 -0.3,0.2 -0.4,0.2Z"></path></g></svg>