<svg xmlns="http://www.w3.org/2000/svg" viewBox="0 0 30 30"><path d="M12.8 29.4c-.4 0-.8-.1-1.1-.2l-8-2.1c-1.1-.3-2-1.1-2.4-2.2-.4-1-.4-2.1-.1-3.3s.9-2.1 1.7-2.7c.9-.7 1.9-.8 3.1-.5l8 2.1c1.1.3 2 1.1 2.4 2.2.4 1 .4 2.2.1 3.4-.5 2.1-1.9 3.3-3.7 3.3zM4.9 19.2c-.5 0-1 .2-1.4.5a3.73 3.73 0 0 0-1.3 2.2c-.3 1-.3 1.9 0 2.7s.9 1.3 1.7 1.5l8 2.1c1.7.5 3.1-.4 3.6-2.4.5-1.8 0-3.9-1.8-4.4l-8-2.1c-.2 0-.5-.1-.8-.1z"/><path d="M6.2 25.9a.55.55 0 0 1-.5-.3c-.9-2.3-.1-4.9 2-6.5.2-.2.5-.1.7.1s.1.5-.1.7c-1.7 1.3-2.4 3.5-1.6 5.3.1.3 0 .5-.3.6-.1.1-.2.1-.2.1zm2.4-2.2c-.3 0-.5-.3-.5-.5.1-1.3.7-2.4 1.7-3.2.2-.2.5-.1.7.1s.1.5-.1.7c-.8.6-1.3 1.5-1.3 2.5 0 .2-.2.4-.5.4zm-4.7 2.8c-.2 0-.4-.1-.5-.4-.4-1.4-.3-2.8.4-4.1.1-.2.4-.3.7-.2.2.1.3.4.2.7a3.83 3.83 0 0 0-.3 3.3c.1.3-.1.5-.3.6-.1.1-.2.1-.2.1zM10.3 16c-1.3 0-2.4-.6-3.1-1.9L3.1 6.9c-.6-1-.6-2.1-.1-3.3.5-1 1.3-1.8 2.4-2.4S7.5.4 8.5.6s1.9.9 2.5 1.9l4 7.2c.6 1 .6 2.1.1 3.2-.4.9-1.3 1.8-2.3 2.4-.9.5-1.7.7-2.5.7zM7.7 1.5c-.6 0-1.2.2-1.9.5-.8.6-1.5 1.3-1.9 2.1A2.89 2.89 0 0 0 4 6.5l4.1 7.2c1.3 2.2 3.6 1.1 4.3.8.9-.5 1.6-1.2 1.9-1.9.4-.8.3-1.5-.1-2.3L10.1 3C9.6 2.2 9 1.7 8.3 1.6c-.2-.1-.4-.1-.6-.1z"/><path d="M8.5 11.9a.47.47 0 0 1-.5-.5.47.47 0 0 1 .5-.5c2.1 0 3.8-1.7 4.2-3.3.1-.3.4-.4.6-.3.3.1.4.4.3.6-.5 1.9-2.5 4-5.1 4zM5.9 7.1a.47.47 0 0 1-.5-.5.47.47 0 0 1 .5-.5c1.3-.1 2.4-.6 3-1.4.6-.7.8-1.5.7-2.6 0-.3.2-.5.4-.5.3 0 .5.2.5.4.1 1.3-.2 2.4-.9 3.3C8.8 6.4 7.5 7 5.9 7.1zm.3 3.3h-.6c-.3 0-.5-.3-.4-.6 0-.3.3-.5.6-.4 1 .1 2-.2 2.7-.8.2-.2.5-.2.7 0s.2.5-.1.7c-.8.7-1.8 1.1-2.9 1.1zm5.1 2.8c-.2 0-.4-.1-.5-.4s.1-.5.3-.6c1.1-.3 2-1 2.6-2.1.1-.2.4-.3.7-.2.2.1.3.4.2.7-.7 1.3-1.8 2.2-3.2 2.6h-.1zm-.7 11.9c-.2 0-.5-.2-.5-.4-.2-1.5 1-3.9 3.2-4.3.3-.1.5.1.6.4s-.1.5-.4.6c-1.7.3-2.5 2.3-2.4 3.2.1.2-.1.5-.5.5zm12.3-4.8c-.3 0-.7 0-1-.1l-.3-.1c-2.7-.7-4-2.9-3.4-5.4l2-8c.5-2.1 2.8-3.2 5.4-2.5 2.6.6 3.9 2.5 3.3 4.7l-2 8c-.3 1.2-1 2.1-1.9 2.8-.5.3-1.3.6-2.1.6zm-.8-1.1c.9.2 1.7.1 2.4-.4s1.2-1.3 1.5-2.2l2-8c.7-2.6-1.8-3.4-2.5-3.6-1.8-.4-3.7-.1-4.2 1.8l-2 8c-.5 2.1.5 3.6 2.6 4.2l.2.2z"/><path d="M25.8 11.9c-.1 0-.2 0-.3-.1-1.5-1.4-3.9-1.3-5.4-.5-.2.1-.5.1-.7-.2-.1-.2-.1-.5.2-.7 1.8-1 4.7-1.1 6.6.6.2.2.2.5 0 .7-.1.2-.2.2-.4.2zM18.6 16h-.1c-.3-.1-.4-.3-.4-.6.3-1.3 1-2.2 2-2.8 1.1-.5 2.3-.6 3.5 0 .3.1.4.4.3.7s-.4.4-.7.3c-.9-.4-1.9-.4-2.7 0s-1.3 1.1-1.5 2.1c.1.2-.1.3-.4.3zm7.9 1.2c-.3 0-.5-.3-.5-.6.1-.6 0-1.5-.9-2.1-.2-.2-.3-.5-.1-.7s.5-.3.7-.1c1 .7 1.5 1.8 1.4 3.1-.1.2-.3.4-.6.4zm-1.2-9.8c-.1 0-.2 0-.3-.1-1-.6-2.2-.6-3.9-.1-.3.1-.5-.1-.6-.3-.1-.3.1-.5.3-.6 2-.6 3.5-.6 4.7.2.2.1.3.5.2.7a.76.76 0 0 1-.4.2z"/></svg>