<?xml version="1.0" encoding="utf-8"?>
<!-- Generator: Adobe Illustrator 23.0.1, SVG Export Plug-In . SVG Version: 6.00 Build 0)  -->
<svg version="1.1" id="Ebene_1" xmlns="http://www.w3.org/2000/svg" xmlns:xlink="http://www.w3.org/1999/xlink" x="0px" y="0px"
	 viewBox="0 0 30 30" style="enable-background:new 0 0 30 30;" xml:space="preserve">
<style type="text/css">
	.st0{fill-rule:evenodd;clip-rule:evenodd;}
	.st1{fill:none;stroke:#000000;stroke-linecap:round;stroke-miterlimit:10;}
</style>
<title>np_cucumbers_569331_000000</title>
<desc>Created with Sketch.</desc>
<g id="Page-1">
	<g id="Artboard" transform="translate(-90.000000, -93.000000)">
		<g id="np_cucumbers_569331_000000" transform="translate(90.008979, 93.405823)">
			<path id="Fill-1" class="st0" d="M15.9,12.6C16,12.6,16,12.6,15.9,12.6c0.2,0,0.6-0.1,1-0.1c2.1-0.3,4.2-0.7,6-1.1
				c2.8-0.6,4.6-1.2,5.7-1.8c0,0,0,0,0.1,0c0,0,0.1,0,0.1,0c0,0,0.1,0.1,0,0.2c-0.3,0.9-1.1,1.6-2.5,2.2c-1.8,0.8-3.7,1.2-8.6,2
				L17.5,14c-0.5,0.1-0.9,0.1-1.2,0.2c0,0,0,0,0,0c0,0,0,0-0.1,0c-3.5-1.3-5-1.7-6.7-1.9c-0.3,0-0.7-0.1-1-0.1
				c-2.1,0-3.5,0.9-4.2,2.8c0,0.1-0.1,0.1-0.1,0.1c0,0,0,0,0,0C2.2,14.8,1.2,14,1,12.8c-0.2-1.4,0.7-2.6,3-3.7
				c2.1-1,5.5-1.9,10.3-2.7c0.6-0.1,1.1-0.2,2.1-0.4c4-0.7,6.1-1.1,7.8-1.1c0.3,0,0.6,0,0.9,0c1.3,0.1,2.3,0.4,2.9,1
				c0,0,0.1,0.1,0,0.2c0,0.1-0.1,0.1-0.1,0.1c0,0,0,0,0,0c-0.4-0.1-0.9-0.1-1.5-0.1c-0.7,0-1.5,0-2.4,0.2c-1.3,0.1-2.9,0.4-4.4,0.7
				c-0.3,0.1-0.5,0.1-0.7,0.1c-0.1,0-0.2,0.1-0.3,0.2c-0.1,0.1-0.1,0.2-0.1,0.4c0.1,0.2,0.2,0.4,0.5,0.4c0,0,0.1,0,0.1,0
				c0.1,0,0.3-0.1,0.7-0.1c1.5-0.3,3-0.6,4.3-0.7c0.8-0.1,1.6-0.1,2.3-0.1c1.1,0,2.5,0.1,2.6,0.7c0.2,0.8-3.8,2-6.2,2.5
				c-1.8,0.4-3.8,0.8-5.9,1.1c-0.4,0.1-0.7,0.1-0.9,0.1c-0.1,0-0.2,0.1-0.3,0.2c-0.1,0.1-0.1,0.2-0.1,0.4
				C15.5,12.4,15.7,12.6,15.9,12.6z M19.1,16.3c0.1,0,0.1,0.1,0.1,0.1c0,0.1,0,0.1-0.1,0.1c-0.9,0.7-1.8,1.8-2.3,3.2
				c-0.5,1.3-0.6,2.8-0.3,3.9c0,0.1,0,0.1,0,0.2c0,0-0.1,0-0.1,0c0,0,0,0-0.1,0l-1.2-0.4c-4.7-1.7-6.5-2.4-8.1-3.5
				c-1-0.7-1.6-1.3-1.9-2.1c0-0.1,0-0.1,0.1-0.2c0,0,0.1,0,0.1,0c0,0,0.1,0,0.1,0c0.5,0.4,1.2,0.8,2.1,1.2c0.9,0.4,2,0.8,3.2,1.2
				c0.2,0.1,0.4,0.1,0.5,0.2c0,0,0.1,0,0.1,0c0.2,0,0.4-0.1,0.5-0.4c0-0.1,0-0.3,0-0.4c-0.1-0.1-0.2-0.2-0.3-0.2
				c-0.1,0-0.2-0.1-0.5-0.1c-1.1-0.3-2.2-0.7-3-1.2c-2-0.9-2.9-1.8-2.7-2.5c0.1-0.2,0.4-0.4,1-0.4c1,0,2.6,0.3,4.4,0.9
				c1.4,0.4,3,1,4.7,1.6c0.3,0.1,0.6,0.2,0.7,0.3c0.1,0,0.1,0,0.2,0c0.2,0,0.4-0.1,0.4-0.3c0.1-0.1,0.1-0.3,0-0.4
				c0-0.1-0.1-0.2-0.3-0.3c-0.1-0.1-0.4-0.2-0.7-0.3C14,16,12.3,15.4,10.9,15c-2-0.6-3.4-0.9-4.5-0.9c-0.1,0-0.1,0-0.1-0.1
				c0-0.1,0-0.1,0.1-0.2c0.6-0.4,1.3-0.6,2.2-0.6c0.3,0,0.6,0,0.9,0.1c1.9,0.2,3.8,0.8,8.4,2.5L19.1,16.3z M20.7,16.9
				c0.1,0,0.2,0,0.3,0.1c0,0,0,0,0,0c1,0.4,1.3,2.4,0.6,4.4c-0.6,1.8-1.9,3.1-2.9,3.1c-0.1,0-0.2,0-0.3-0.1c0,0,0,0,0,0c0,0,0,0,0,0
				C17.3,24,17,22,17.7,20C18.4,18.3,19.6,16.9,20.7,16.9z M29.9,7.7C29.5,5.4,28,4.2,25.2,4c-0.3,0-0.7,0-1,0c-1.8,0-3.9,0.3-8,1.1
				c-1,0.2-1.5,0.3-2.1,0.4C3.4,7.4-0.6,9.5,0.1,13c0.3,1.6,1.6,2.6,3.8,3C3.9,16,4,16.1,4,16.2c-0.2,1.7,0.6,3.2,2.5,4.4
				c1.7,1.1,3.5,1.9,8.3,3.6l0.1,0c0.9,0.3,1.4,0.5,2,0.7c0.4,0.1,0.8,0.3,1.2,0.4c0,0,0,0,0,0c0.2,0.1,0.4,0.1,0.7,0.1
				c1.5,0,3-1.5,3.9-3.7c0.9-2.6,0.4-5.1-1.2-5.7c-0.4-0.1-0.8-0.3-1.2-0.4c-0.5-0.2-0.9-0.3-1.6-0.6c-0.1,0-0.1-0.1-0.1-0.2
				c0-0.1,0.1-0.1,0.1-0.1c4.5-0.8,6.4-1.2,8.2-2C29.3,11.7,30.3,10,29.9,7.7z"/>
		</g>
	</g>
</g>
<line class="st1" x1="20.6" y1="18.9" x2="20.7" y2="18.2"/>
<line class="st1" x1="18.7" y1="24" x2="18.9" y2="23.5"/>
<line class="st1" x1="20.8" y1="21.7" x2="20.5" y2="21.6"/>
<line class="st1" x1="18.9" y1="21" x2="18.4" y2="20.9"/>
<line class="st1" x1="20.1" y1="23" x2="19.9" y2="22.8"/>
<line class="st1" x1="19.5" y1="19.7" x2="19.3" y2="19.4"/>
<line class="st1" x1="18.1" y1="22.4" x2="18.6" y2="22.2"/>
<line class="st1" x1="20.9" y1="20.3" x2="21.2" y2="20.2"/>
</svg>
