<?xml version="1.0" encoding="UTF-8"?><svg version="1.1" viewBox="0 0 30 30" xmlns="http://www.w3.org/2000/svg" xmlns:xlink="http://www.w3.org/1999/xlink"><path d="M10.561,8.44c-0.585,-0.585 -1.536,-0.585 -2.121,0c-0.585,0.585 -0.585,1.536 0,2.121c0.409,0.409 2.896,1.792 3.648,2.206c0.075,0.041 0.158,0.062 0.241,0.062c0.129,0 0.257,-0.051 0.354,-0.146c0.157,-0.157 0.191,-0.4 0.084,-0.595c-0.414,-0.752 -1.797,-3.239 -2.206,-3.648Zm-1.415,1.414c-0.194,-0.195 -0.194,-0.513 0,-0.707c0.195,-0.195 0.512,-0.195 0.707,0c0.143,0.146 0.618,0.925 1.162,1.869c-0.944,-0.544 -1.723,-1.019 -1.869,-1.162Zm2.354,5.146c0,-0.223 -0.147,-0.418 -0.361,-0.48c-0.825,-0.239 -3.561,-1.02 -4.139,-1.02c-0.827,0 -1.5,0.673 -1.5,1.5c0,0.827 0.673,1.5 1.5,1.5c0.578,0 3.314,-0.781 4.139,-1.02c0.214,-0.062 0.361,-0.257 0.361,-0.48Zm-4.5,0.5c-0.276,0 -0.5,-0.225 -0.5,-0.5c0,-0.276 0.224,-0.5 0.5,-0.5c0.204,0.002 1.091,0.217 2.144,0.5c-1.053,0.283 -1.94,0.498 -2.144,0.5Zm5.087,1.563c-0.752,0.414 -3.239,1.797 -3.648,2.205c-0.585,0.585 -0.585,1.537 0,2.122c0.293,0.292 0.677,0.438 1.061,0.438c0.384,0 0.768,-0.146 1.06,-0.438c0.409,-0.409 1.792,-2.896 2.206,-3.648c0.108,-0.195 0.073,-0.438 -0.084,-0.595c-0.157,-0.157 -0.4,-0.19 -0.595,-0.084Zm-2.234,3.619c-0.195,0.195 -0.512,0.195 -0.707,0c-0.194,-0.195 -0.194,-0.512 0,-0.707c0.146,-0.143 0.925,-0.618 1.869,-1.162c-0.544,0.944 -1.019,1.723 -1.162,1.869Zm5.147,-20.182c-7.995,0 -14.5,6.505 -14.5,14.5c0,7.995 6.505,14.5 14.5,14.5c7.995,0 14.5,-6.505 14.5,-14.5c0,-7.995 -6.505,-14.5 -14.5,-14.5Zm0,28c-7.444,0 -13.5,-6.056 -13.5,-13.5c0,-7.444 6.056,-13.5 13.5,-13.5c7.444,0 13.5,6.056 13.5,13.5c0,7.444 -6.056,13.5 -13.5,13.5Zm0,-25c-6.341,0 -11.5,5.159 -11.5,11.5c0,6.341 5.159,11.5 11.5,11.5c6.341,0 11.5,-5.159 11.5,-11.5c0,-6.341 -5.159,-11.5 -11.5,-11.5Zm0,22c-5.79,0 -10.5,-4.71 -10.5,-10.5c0,-5.79 4.71,-10.5 10.5,-10.5c5.79,0 10.5,4.71 10.5,10.5c0,5.79 -4.71,10.5 -10.5,10.5Zm2.912,-8.266c-0.195,-0.108 -0.438,-0.074 -0.595,0.084c-0.157,0.157 -0.191,0.4 -0.084,0.595c0.414,0.752 1.797,3.239 2.206,3.648c0.293,0.292 0.677,0.438 1.061,0.438c0.384,0 0.768,-0.146 1.06,-0.438c0.585,-0.585 0.585,-1.536 0,-2.121c-0.409,-0.409 -2.896,-1.792 -3.648,-2.206Zm2.941,3.62c-0.195,0.195 -0.512,0.195 -0.707,0c-0.143,-0.147 -0.618,-0.926 -1.162,-1.869c0.944,0.544 1.723,1.019 1.869,1.162c0.195,0.195 0.195,0.512 0,0.707Zm-3.182,-8.025c0.083,0 0.166,-0.021 0.241,-0.062c0.752,-0.414 3.239,-1.797 3.648,-2.206c0.585,-0.585 0.585,-1.536 0,-2.121c-0.585,-0.585 -1.536,-0.585 -2.121,0c-0.409,0.409 -1.792,2.896 -2.206,3.648c-0.108,0.195 -0.073,0.438 0.084,0.595c0.097,0.096 0.225,0.146 0.354,0.146Zm2.475,-3.683c0.196,-0.195 0.512,-0.195 0.707,0c0.195,0.195 0.195,0.512 0,0.707c-0.146,0.143 -0.925,0.618 -1.869,1.162c0.544,-0.944 1.019,-1.723 1.162,-1.869Zm-5.146,-3.646c-0.827,0 -1.5,0.673 -1.5,1.5c0,0.578 0.781,3.314 1.02,4.139c0.062,0.214 0.257,0.361 0.48,0.361c0.223,0 0.418,-0.147 0.48,-0.361c0.239,-0.825 1.02,-3.561 1.02,-4.139c0,-0.827 -0.673,-1.5 -1.5,-1.5Zm0,3.644c-0.283,-1.053 -0.498,-1.94 -0.5,-2.144c0,-0.276 0.224,-0.5 0.5,-0.5c0.275,0 0.5,0.224 0.5,0.5c-0.002,0.205 -0.217,1.091 -0.5,2.144Zm8,4.356c-0.578,0 -3.314,0.781 -4.139,1.02c-0.214,0.062 -0.361,0.257 -0.361,0.48c0,0.223 0.147,0.418 0.361,0.48c0.825,0.239 3.561,1.02 4.139,1.02c0.827,0 1.5,-0.673 1.5,-1.5c0,-0.827 -0.673,-1.5 -1.5,-1.5Zm0,2c-0.205,-0.002 -1.091,-0.217 -2.144,-0.5c1.053,-0.283 1.94,-0.498 2.144,-0.5c0.276,0 0.5,0.225 0.5,0.5c0,0.276 -0.224,0.5 -0.5,0.5Zm-8.48,3.361c-0.239,0.825 -1.02,3.561 -1.02,4.139c0,0.827 0.673,1.5 1.5,1.5c0.827,0 1.5,-0.673 1.5,-1.5c0,-0.578 -0.781,-3.314 -1.02,-4.139c-0.123,-0.428 -0.837,-0.428 -0.96,0Zm0.48,4.639c-0.276,0 -0.5,-0.224 -0.5,-0.5c0.002,-0.205 0.217,-1.091 0.5,-2.144c0.283,1.053 0.498,1.94 0.5,2.144c0,0.276 -0.225,0.5 -0.5,0.5Z" fill="#000"></path></svg>