<?xml version="1.0" encoding="UTF-8"?><svg version="1.1" viewBox="0 0 30 22" xmlns="http://www.w3.org/2000/svg" xmlns:xlink="http://www.w3.org/1999/xlink"><!--Generated by IJSVG (https://github.com/curthard89/IJSVG)--><g transform="matrix(1,0,0,1,-90,-93)"><path fill="#000" fill-rule="evenodd" stroke="none" d="M15.9479,8.60398c0.0214329,0 0.0428658,-0.00102061 0.0653193,-0.00408245c0.174525,-0.0244947 0.492957,-0.0694018 0.929779,-0.136762c2.14635,-0.324555 4.22738,-0.710347 6.01856,-1.11553c2.77199,-0.626657 4.57031,-1.2033 5.66135,-1.81567c0.0234741,-0.013268 0.0489895,-0.0193917 0.0745048,-0.0193917c0.0357215,0 0.071443,0.0122474 0.10002,0.0367421c0.0489894,0.0428658 0.0663399,0.110226 0.0428658,0.170443c-0.336803,0.884872 -1.11859,1.57277 -2.45968,2.16574c-1.75341,0.774646 -3.67931,1.18289 -8.57724,2.01469l-0.327617,0.0551132c-0.534802,0.0908346 -0.859357,0.145948 -1.22984,0.211267c-0.0091855,0.0010206 -0.018371,0.0020412 -0.0265359,0.0020412c-0.0183711,0 -0.0357215,-0.0030618 -0.0520514,-0.0091855c-3.45376,-1.25127 -5.01224,-1.68707 -6.67073,-1.86568c-0.3317,-0.0357215 -0.653193,-0.0540925 -0.954274,-0.0540925c-2.13921,0 -3.52724,0.900182 -4.24575,2.75158c-0.0234741,0.0602162 -0.0806285,0.0979789 -0.142886,0.0979789c-0.00816491,0 -0.0173504,-0.0010206 -0.026536,-0.0020412c-1.87997,-0.328638 -2.89752,-1.07369 -3.10981,-2.27903c-0.248009,-1.41049 0.728718,-2.60563 2.98836,-3.65278c2.14227,-0.994078 5.50825,-1.88609 10.2909,-2.72912c0.605224,-0.107164 1.10635,-0.197999 2.12084,-0.383751c4.04878,-0.740966 6.14205,-1.07164 7.84852,-1.07164c0.301081,-1.11022e-16 0.596039,0.0102061 0.900181,0.0306184c1.31149,0.0877728 2.2525,0.423555 2.87609,1.02674c0.0479689,0.0459276 0.0602162,0.118391 0.0306184,0.177587c-0.0255153,0.0530719 -0.0796078,0.0857316 -0.136762,0.0857316c-0.0081649,0 -0.0153092,-0.00102061 -0.0234742,-0.00204123c-0.420493,-0.0653193 -0.915491,-0.0979789 -1.46866,-0.0979789c-0.694018,0 -1.48295,0.0489895 -2.41477,0.151051c-1.337,0.145948 -2.86384,0.395998 -4.41518,0.723615c-0.31537,0.0663399 -0.545008,0.117371 -0.672585,0.146968c-0.125535,0.0295978 -0.2327,0.106144 -0.301081,0.21637c-0.0683811,0.110226 -0.0887934,0.239844 -0.0591956,0.3664c0.0510307,0.220453 0.244947,0.373545 0.470503,0.373545c0.0377627,0 0.0745048,-0.00408246 0.111247,-0.0122474c0.119412,-0.0285772 0.341906,-0.0775667 0.651152,-0.142886c1.53194,-0.322514 3.02612,-0.566441 4.32128,-0.707285c0.83078,-0.0908346 1.59318,-0.136762 2.2678,-0.136762c1.10941,0 2.45254,0.123494 2.55562,0.712389c0.15003,0.846089 -3.83445,1.98203 -6.21146,2.5199c-1.76974,0.400081 -3.8273,0.78179 -5.94916,1.10328c-0.43172,0.0642987 -0.745048,0.110226 -0.91447,0.13268c-0.128597,0.0173504 -0.242906,0.0836903 -0.321493,0.186772c-0.0775666,0.103082 -0.111247,0.229638 -0.0938964,0.357215c0.0326596,0.240865 0.238824,0.421514 0.479688,0.421514Zm3.11491,3.65482c0.0530719,0.0204123 0.0918553,0.0673606 0.0989996,0.124515c0.0071443,0.0561337 -0.0183711,0.112268 -0.0653193,0.144927c-0.94713,0.658296 -1.77179,1.80853 -2.2627,3.15778c-0.490915,1.34823 -0.5991,2.75974 -0.295978,3.87323c0.0153092,0.0551131 -0.0020412,0.113288 -0.0438864,0.152071c-0.0285772,0.026536 -0.0663399,0.0408246 -0.104103,0.0408246c-0.0173505,0 -0.0347009,-0.0030618 -0.0510307,-0.0091855l-1.24107,-0.442946c-4.68054,-1.67075 -6.50743,-2.40661 -8.09551,-3.47417c-0.994078,-0.666461 -1.61665,-1.34925 -1.90345,-2.08818c-0.0255154,-0.0642987 -0.00408246,-0.136762 0.0510307,-0.178607c0.026536,-0.0204123 0.0591956,-0.0295978 0.0918553,-0.0295978c0.0326597,0 0.0653193,0.0102061 0.0928759,0.031639c0.533781,0.411307 1.24413,0.825677 2.11267,1.23188c0.918553,0.427637 2.01163,0.846089 3.16084,1.20841c0.231679,0.0734842 0.404163,0.124515 0.501121,0.152071c0.0428658,0.0112268 0.0867522,0.0173504 0.130639,0.0173504c0.21637,0 0.408246,-0.144927 0.467441,-0.353132c0.0357215,-0.124515 0.0193917,-0.255154 -0.0438864,-0.368442c-0.063278,-0.113288 -0.16636,-0.193917 -0.291896,-0.229638c-0.0857315,-0.0244947 -0.24903,-0.0724636 -0.473565,-0.143907c-1.10226,-0.345988 -2.15452,-0.74811 -3.04041,-1.16248c-1.95652,-0.91345 -2.94039,-1.81669 -2.69952,-2.47805c0.0887934,-0.246989 0.429678,-0.367421 1.04103,-0.367421c0.979789,0 2.58522,0.312308 4.40395,0.856295c1.40743,0.420493 3.01693,0.986934 4.65706,1.63809c0.330679,0.131659 0.570523,0.229638 0.6981,0.283731c0.0591956,0.0244947 0.122474,0.0377627 0.186772,0.0377627c0.195958,0 0.371503,-0.11635 0.447029,-0.295978c0.0510307,-0.120432 0.0520513,-0.252092 0.0030618,-0.372524c-0.0489895,-0.119412 -0.141865,-0.213308 -0.260257,-0.263318c-0.134721,-0.0561337 -0.378648,-0.157174 -0.716471,-0.290875c-1.6585,-0.659317 -3.29658,-1.23494 -4.73667,-1.66666c-1.99326,-0.595018 -3.41804,-0.88181 -4.48458,-0.901202c-0.0663399,-0.0010206 -0.124515,-0.044907 -0.143907,-0.107164c-0.0193917,-0.0632781 0.00306184,-0.131659 0.0571544,-0.170443c0.56542,-0.408246 1.29312,-0.607265 2.22188,-0.607265c0.26638,0 0.556235,0.0173504 0.860378,0.0500101c1.90447,0.204123 3.77627,0.81445 8.43435,2.54439l1.23596,0.456214Zm1.61971,0.668502c0.114309,0 0.224535,0.0163298 0.326597,0.0500101c0.0071443,0.0040824 0.0265359,0.0061237 0.0489894,0.013268c1.04205,0.401101 1.30128,2.43314 0.570523,4.43967c-0.641966,1.76362 -1.90549,3.09246 -2.93937,3.09246c-0.120432,0 -0.234741,-0.0183711 -0.341906,-0.0551132c-0.0081649,-0.0020412 -0.0173504,-0.0061237 -0.026536,-0.0112267c-0.0102061,-0.0040825 -0.0234741,-0.008165 -0.0244947,-0.0091856c-1.02368,-0.412328 -1.27577,-2.44029 -0.551132,-4.42946c0.640946,-1.76158 1.90345,-3.09042 2.93733,-3.09042Zm9.23247,-9.2141c-0.405184,-2.29128 -1.93713,-3.49458 -4.6836,-3.68033c-0.33272,-0.0214329 -0.652172,-0.0326596 -0.976728,-0.0326596c-1.76464,1.21973e-18 -3.89772,0.335782 -8.01182,1.08797c-1.01347,0.185752 -1.51357,0.276586 -2.11369,0.38171c-10.7409,1.89426 -14.6846,3.99877 -14.0671,7.50764c0.283731,1.60338 1.56256,2.62706 3.80077,3.04245c0.0796079,0.0153092 0.134721,0.0908346 0.123494,0.171463c-0.231679,1.71565 0.578688,3.16799 2.47601,4.43967c1.67585,1.12574 3.54459,1.88099 8.31086,3.58133l0.053072,0.0183711c0.934882,0.334761 1.40641,0.503163 1.96876,0.709327c0.400081,0.144927 0.786893,0.28271 1.16554,0.417431c0.0122474,0.0040825 0.0387833,0.0183711 0.0489895,0.0244947c0.207185,0.0745049 0.441926,0.115329 0.68075,0.115329c1.46662,0 3.04959,-1.53602 3.85078,-3.73443c0.94815,-2.60869 0.437843,-5.10817 -1.16146,-5.68992c-0.412328,-0.147989 -0.799141,-0.290875 -1.1982,-0.436823c-0.483771,-0.176566 -0.916511,-0.335782 -1.61359,-0.593997c-0.0653193,-0.0244948 -0.106144,-0.0887934 -0.10002,-0.158195c0.0061236,-0.0683811 0.058175,-0.124515 0.126556,-0.136762c4.47131,-0.76546 6.37884,-1.17983 8.1792,-1.97591c2.51683,-1.11247 3.54459,-2.76791 3.14145,-5.05816Z" transform="matrix(1,0,0,1,90.009,93.4058)"></path></g></svg>