<?xml version="1.0" encoding="UTF-8"?><svg version="1.1" viewBox="0 0 28 28" xmlns="http://www.w3.org/2000/svg" xmlns:xlink="http://www.w3.org/1999/xlink"><!--Generated by IJSVG (https://github.com/curthard89/IJSVG)--><g transform="matrix(1,0,0,1,-61,-31)"><g transform="matrix(1,0,0,1,61,31)"><path fill="#000" fill-rule="evenodd" stroke="none" d="M5.70758,20.6171c-0.0835108,0 -0.168435,-0.0212321 -0.246286,-0.0665256c-0.233545,-0.135885 -0.311396,-0.435955 -0.175515,-0.669532c3.09414,-5.29372 13.0178,-13.9606 15.2201,-15.5829c0.217975,-0.159949 0.523704,-0.114654 0.683646,0.103331c0.159941,0.217985 0.113234,0.523719 -0.103328,0.683664c-2.16845,1.59808 -11.9322,10.1164 -14.9553,15.2898c-0.0921746,0.155869 -0.254946,0.242212 -0.423395,0.242212Z"></path><path fill="#000" fill-rule="evenodd" stroke="none" d="M7.46235,21.355c-0.233545,0.135885 -0.312809,0.434542 -0.176928,0.668119c0.0905875,0.157116 0.254775,0.243459 0.423225,0.243459c0.0835108,0 0.168435,-0.0212317 0.244869,-0.0665256c5.34321,-3.10129 14.024,-13.0196 15.6448,-15.2191c0.159945,-0.217981 0.113234,-0.523719 -0.103328,-0.683664c-0.217975,-0.159949 -0.525117,-0.111821 -0.685059,0.104744c-1.59544,2.16552 -10.1247,11.9222 -15.3476,14.953Z"></path><path fill="#000" stroke="none" d="M26.9295,3.20716c-0.0305079,0.0406743 -0.0379511,0.0942673 -0.0196339,0.141758c1.22446,3.17909 -1.55203,7.11166 -8.48218,14.0487c-1.56667,1.56469 -2.64393,2.59986 -3.77363,3.5969c-2.61304,2.30585 -4.16483,3.47036 -6.00777,4.31974c-0.793054,0.365418 -1.63872,0.58332 -2.57866,0.665466c-0.892164,0.0780873 -1.55254,0.175505 -2.01543,0.295412c-0.651014,0.167381 -0.802451,0.231838 -1.23487,0.545653c-0.402172,0.293326 -0.734868,0.446922 -1.05438,0.446922c-0.273037,0 -0.544175,-0.108097 -0.84865,-0.412581c-0.56125,-0.561234 -0.554349,-1.09825 0.0321369,-1.90359c0.313023,-0.43134 0.376076,-0.579808 0.54638,-1.23603c0.129936,-0.504672 0.217337,-1.15269 0.295349,-2.01518c0.0823238,-0.94369 0.299374,-1.78914 0.664006,-2.57893c0.849911,-1.84386 2.01764,-3.39965 4.32094,-6.00767c0.999473,-1.13382 2.04491,-2.22183 3.59712,-3.77409c6.02255,-6.02493 9.56387,-8.74024 12.6254,-8.74024c0.500209,-1.11022e-16 0.977433,0.0856803 1.4199,0.256522c0.0472673,0.0182315 0.100831,0.0107917 0.140515,-0.0189698c0.664328,-0.500887 1.6349,-0.436988 2.22163,0.149766c0.59409,0.594133 0.657855,1.54631 0.151865,2.22048Zm-1.77248,-1.57102c-0.316269,0.237207 -0.732519,0.295022 -1.10157,0.152675c-0.325564,-0.125704 -0.680676,-0.189461 -1.05986,-0.189461c-2.66333,0 -6.13541,2.66223 -11.9182,8.44727c-1.53861,1.53865 -2.57176,2.61387 -3.55446,3.72867c-2.24181,2.5384 -3.36571,4.03579 -4.16275,5.76495c-0.315108,0.682524 -0.503302,1.41557 -0.575969,2.24854c-0.0828361,0.915864 -0.175559,1.60334 -0.323248,2.17696c-0.199471,0.768616 -0.309623,1.02799 -0.705705,1.57378c-0.317019,0.435321 -0.316892,0.425468 -0.133882,0.608473c0.113449,0.113453 0.12909,0.119688 0.141543,0.119688c0.055459,0 0.219536,-0.0757497 0.466064,-0.255554c0.547073,-0.397029 0.810642,-0.509213 1.57329,-0.705296c0.525141,-0.136033 1.23551,-0.240825 2.17819,-0.323334c0.827635,-0.0723319 1.56116,-0.261339 2.24726,-0.577474c1.72795,-0.796386 3.22159,-1.91725 5.76461,-4.16132c1.11059,-0.980165 2.17544,-2.00341 3.72826,-3.55427c6.54988,-6.55638 9.25517,-10.3881 8.25615,-12.9819c-0.142281,-0.368885 -0.0844652,-0.785172 0.152836,-1.10155c0.208278,-0.277508 0.181841,-0.672285 -0.059102,-0.913245c-0.232962,-0.232968 -0.64495,-0.260092 -0.91349,-0.0576212Z"></path></g></g></svg>