<?xml version="1.0" encoding="utf-8"?>
<!-- Generator: Adobe Illustrator 23.0.1, SVG Export Plug-In . SVG Version: 6.00 Build 0)  -->
<svg version="1.1" id="Ebene_1" xmlns="http://www.w3.org/2000/svg" xmlns:xlink="http://www.w3.org/1999/xlink" x="0px" y="0px"
	 viewBox="0 0 30 30" style="enable-background:new 0 0 30 30;" xml:space="preserve">
<style type="text/css">
	.st0{fill-rule:evenodd;clip-rule:evenodd;}
</style>
<title>Group 3</title>
<desc>Created with Sketch.</desc>
<g id="Page-1">
	<g id="Artboard" transform="translate(-61.000000, -31.000000)">
		<g id="Group-3" transform="translate(61.000000, 31.000000)">
			<path id="Path" class="st0" d="M6.7,21.6c-0.1,0-0.2,0-0.2-0.1c-0.2-0.1-0.3-0.4-0.2-0.7c3.1-5.3,13-14,15.2-15.6
				c0.2-0.2,0.5-0.1,0.7,0.1c0.2,0.2,0.1,0.5-0.1,0.7c-2.2,1.6-11.9,10.1-15,15.3C7,21.5,6.9,21.6,6.7,21.6z"/>
			<path class="st0" d="M8.5,22.4c-0.2,0.1-0.3,0.4-0.2,0.7c0.1,0.2,0.3,0.2,0.4,0.2c0.1,0,0.2,0,0.2-0.1c5.3-3.1,14-13,15.6-15.2
				c0.2-0.2,0.1-0.5-0.1-0.7c-0.2-0.2-0.5-0.1-0.7,0.1C22.2,9.6,13.7,19.3,8.5,22.4z"/>
			<path d="M27.9,4.2c0,0,0,0.1,0,0.1c1.2,3.2-1.6,7.1-8.5,14C17.9,20,16.8,21,15.7,22c-2.6,2.3-4.2,3.5-6,4.3
				C8.9,26.7,8,26.9,7.1,27c-0.9,0.1-1.6,0.2-2,0.3c-0.7,0.2-0.8,0.2-1.2,0.5c-0.4,0.3-0.7,0.4-1.1,0.4c-0.3,0-0.5-0.1-0.8-0.4
				c-0.6-0.6-0.6-1.1,0-1.9c0.3-0.4,0.4-0.6,0.5-1.2c0.1-0.5,0.2-1.2,0.3-2c0.1-0.9,0.3-1.8,0.7-2.6c0.8-1.8,2-3.4,4.3-6
				c1-1.1,2-2.2,3.6-3.8c6-6,9.6-8.7,12.6-8.7c0.5,0,1,0.1,1.4,0.3c0,0,0.1,0,0.1,0c0.7-0.5,1.6-0.4,2.2,0.1
				C28.4,2.6,28.4,3.5,27.9,4.2z M26.2,2.6c-0.3,0.2-0.7,0.3-1.1,0.2c-0.3-0.1-0.7-0.2-1.1-0.2c-2.7,0-6.1,2.7-11.9,8.4
				c-1.5,1.5-2.6,2.6-3.6,3.7c-2.2,2.5-3.4,4-4.2,5.8C4,21.2,3.9,22,3.8,22.8c-0.1,0.9-0.2,1.6-0.3,2.2c-0.2,0.8-0.3,1-0.7,1.6
				C2.4,27,2.4,27,2.6,27.1c0.1,0.1,0.1,0.1,0.1,0.1c0.1,0,0.2-0.1,0.5-0.3c0.5-0.4,0.8-0.5,1.6-0.7C5.3,26.2,6,26.1,7,26
				c0.8-0.1,1.6-0.3,2.2-0.6c1.7-0.8,3.2-1.9,5.8-4.2c1.1-1,2.2-2,3.7-3.6c6.5-6.6,9.3-10.4,8.3-13c-0.1-0.4-0.1-0.8,0.2-1.1
				c0.2-0.3,0.2-0.7-0.1-0.9C26.8,2.5,26.4,2.4,26.2,2.6z"/>
		</g>
	</g>
</g>
</svg>
