<?xml version="1.0" encoding="UTF-8"?>
<svg viewBox="0 0 30 30" version="1.1" xmlns="http://www.w3.org/2000/svg" xmlns:xlink="http://www.w3.org/1999/xlink">
    <g id="Page-1" stroke="none" stroke-width="1" fill="none" fill-rule="evenodd">
        <g id="Outlines_black-Copy" transform="translate(-90.000000, -114.000000)">
            <g id="Group-3" transform="translate(3.000000, 114.000000)" fill="#000000" fill-rule="nonzero">
                <path d="M100.18,25.8292683 C106.999214,25.8292683 110.974146,22.1481353 110.974146,14.8946341 C110.974146,7.64568822 107.029147,4.17073171 99.8287805,4.17073171 L93.6707317,4.17073171 L93.6707317,25.8292683 L100.18,25.8292683 Z M92.5,26.4146341 L92.5,3.58536585 C92.5,3.26207722 92.7620772,3 93.0853659,3 L99.8287805,3 C107.644999,3 112.144878,6.9637233 112.144878,14.8946341 C112.144878,22.8156483 107.626564,27 100.18,27 L93.0853659,27 C92.7620772,27 92.5,26.7379228 92.5,26.4146341 Z M99.1263415,22.1531707 C98.8030528,22.1531707 98.5409756,21.8910935 98.5409756,21.5678049 L98.5409756,8.43219512 C98.5409756,8.10890649 98.8030528,7.84682927 99.1263415,7.84682927 L99.477561,7.84682927 C103.758343,7.84682927 105.963415,9.8149927 105.963415,14.8946341 C105.963415,20.0074988 103.685991,22.1531707 99.477561,22.1531707 L99.1263415,22.1531707 Z M104.792683,14.8946341 C104.792683,10.5880234 103.210085,9.08257089 99.7117073,9.01963471 L99.7117073,20.9800333 C103.130375,20.9087831 104.792683,19.2465925 104.792683,14.8946341 Z" id="D-Copy-2"></path>
            </g>
            <g id="Slices" transform="translate(0.000000, 114.000000)"></g>
        </g>
    </g>
</svg>