<?xml version="1.0" encoding="UTF-8"?><svg version="1.1" viewBox="0 0 30 30" xmlns="http://www.w3.org/2000/svg" xmlns:xlink="http://www.w3.org/1999/xlink"><defs><path d="M15.3536,14.6464c0.195262,0.195262 0.195262,0.511845 0,0.707107c-0.195262,0.195262 -0.511845,0.195262 -0.707107,0c-0.195262,-0.195262 -0.195262,-0.511845 0,-0.707107c0.195262,-0.195262 0.511845,-0.195262 0.707107,0" id="a"></path></defs><g fill="#000"><path d="M16.2,18c-0.3,0 -0.5,-0.2 -0.5,-0.5c0,-2.1 -2.3,-4.6 -2.4,-4.7c-0.2,-0.2 -0.2,-0.5 0,-0.7c0.2,-0.2 0.5,-0.2 0.7,0c0.1,0.1 2.6,2.8 2.6,5.3c0.1,0.4 -0.1,0.6 -0.4,0.6Z"></path><path d="M14.2,18c-0.1,0 -0.2,0 -0.3,-0.1c-0.2,-0.2 -0.2,-0.5 -0.1,-0.7c0,0 1.4,-1.6 1.4,-3.2c0,-0.7 -0.2,-0.9 -0.2,-1c-0.1,-0.1 -0.1,0 -0.2,0c-0.3,0 -0.5,-0.1 -0.6,-0.4c-0.1,-0.3 0.1,-0.5 0.4,-0.6c0.1,0 0.5,-0.1 1,0.2c0.4,0.3 0.6,0.9 0.6,1.8c0,1.9 -1.6,3.8 -1.6,3.8c-0.1,0.1 -0.2,0.2 -0.4,0.2Z"></path><path d="M14.9,30c-1.9,0 -3,-0.6 -3,-1.5c0,0 -0.3,-0.1 -0.4,-0.1c-0.5,-0.2 -1.2,-0.5 -1.5,-1.2c-0.5,-0.9 -1.7,-5.3 -2,-6.2c-1,-0.9 -5,-4.3 -5.1,-6c-4.44089e-16,-0.6 0.3,-0.9 0.5,-1c0.8,-0.3 2,0.4 2.8,1.2c0.5,0.5 2.5,0.3 4.1,0c-0.4,-0.2 -1,-0.5 -1.5,-0.8c-2.8,-1.6 -7.8,-4.2 -8.5,-8.1c-0.6,-3.1 -6.66134e-16,-4.7 0.7,-5.4c0.4,-0.6 1,-0.9 1.7,-0.9c0.3,0 0.5,0.1 0.7,0.3c0.5,0.5 0.4,1.4 0.3,2.5c0,0.5 -0.1,1.2 -0.1,1.7c1.1,-1.2 2.1,-2.3 3.2,-2.3c0.4,0 0.7,0.1 1,0.4c0.2,0.2 0.3,0.5 0.3,0.8c0,0.7 -0.7,1.4 -1.5,2.3c-0.6,0.5 -1.4,1.3 -1.4,1.8c0,0 0,0.1 0.1,0.2c0.4,0.3 0.6,0.3 1.3,-0.3c0.4,-0.3 1.1,-0.9 1.7,-0.3c0.6,0.6 0.2,1.2 0,1.6c-0.3,0.3 -0.5,0.7 -0.4,1.2c0.3,1.5 4.5,2.1 7,2.1c2.6,0 6.7,-0.6 7,-2.1c0.1,-0.5 -0.1,-0.9 -0.3,-1.2c-0.2,-0.3 -0.7,-0.9 0,-1.6c0.6,-0.6 1.3,-0.1 1.8,0.2c0.8,0.5 1.2,0.7 1.7,0.3c0.1,-0.1 0.1,-0.1 0.1,-0.2c0,-0.4 -0.8,-1.2 -1.4,-1.8c-0.8,-0.8 -1.5,-1.5 -1.5,-2.3c0,-0.3 0.1,-0.5 0.3,-0.7c0.3,-0.3 0.6,-0.4 1,-0.4c1,0.1 1.9,1.2 2.6,2.2c0,0 0.1,0.1 0.1,0.1c0.1,-0.5 0,-1.2 0,-1.7c0,-1.1 -0.1,-2.1 0.4,-2.6c0.2,-0.1 0.5,-0.2 0.7,-0.2c0.7,0 1.4,0.3 1.8,0.9c0.8,1.1 1,2.9 0.3,5.4c-0.9,3.8 -5.8,6.5 -8.6,8.1c-0.5,0.3 -1.1,0.6 -1.5,0.8c1.6,0.3 3.6,0.4 4.1,-0.1c0.9,-0.8 1.9,-1.2 2.6,-0.9c0.5,0.2 0.7,0.7 0.7,1.2c0,1.7 -3.9,4.5 -5.1,5.3c-0.3,1 -1.5,5.5 -2,6.4c-0.3,0.7 -1,1 -1.5,1.2c-0.2,0.1 -0.4,0.2 -0.5,0.2c0.2,0.9 -0.9,1.5 -2.8,1.5Zm-11,-15c0.2,1.1 2.9,3.7 4.9,5.3c0.1,0.1 0.1,0.2 0.2,0.3c0.4,1.5 1.5,5.4 1.9,6.2c0.2,0.3 0.6,0.5 1,0.7c0.5,0.2 1.1,0.4 1.1,1.1c0,0.1 0.6,0.5 2,0.5c1.4,0 2,-0.4 2,-0.5c0,-0.6 0.6,-0.9 1.1,-1.1c0.4,-0.2 0.8,-0.3 1,-0.7c0.4,-0.8 1.5,-4.9 2,-6.4c0,-0.1 0.1,-0.2 0.2,-0.3c2.3,-1.6 4.8,-3.8 4.8,-4.6c0,-0.3 -0.1,-0.3 -0.1,-0.3c-0.2,-0.1 -0.9,0 -1.5,0.7c-1.3,1.2 -5.2,0.3 -6,0.1c-0.2,-0.1 -0.4,-0.3 -0.4,-0.5c0,-0.6 0.7,-1 2.5,-2c2.7,-1.5 7.3,-4 8.2,-7.4c0.7,-2.9 0.2,-4.1 -0.2,-4.6c-0.3,-0.4 -0.7,-0.5 -1,-0.5c-0.2,0.2 -0.1,1.2 -0.1,1.8c0,1.2 0.1,2.4 -0.5,3c-0.2,0.2 -0.5,0.2 -0.7,0c-0.2,-0.2 -0.4,-0.5 -0.7,-0.8c-0.5,-0.7 -1.4,-1.8 -1.9,-1.8c-0.1,0 -0.1,0 -0.2,0.1c-0.1,0.3 0.8,1.2 1.2,1.6c0.9,0.9 1.7,1.7 1.7,2.5c0,0.3 -0.1,0.6 -0.4,0.9c-1.1,1 -2.2,0.3 -2.9,-0.1c-0.2,-0.1 -0.5,-0.3 -0.6,-0.3c0,0 0.1,0.2 0.2,0.3c0.3,0.4 0.7,1 0.5,2c-0.5,2.8 -7.2,2.9 -8,2.9c0,0 0,0 0,0c-0.8,0 -7.4,-0.1 -8,-2.9c-0.2,-1 0.2,-1.6 0.5,-2c-0.2,-0.2 -0.1,-0.3 -0.1,-0.3c0,0 -0.3,0.2 -0.4,0.3c-0.5,0.4 -1.5,1.2 -2.6,0.2c-0.3,-0.3 -0.4,-0.6 -0.4,-0.9c0,-0.8 0.8,-1.7 1.7,-2.5c0.4,-0.4 1.3,-1.3 1.2,-1.6c-0.1,-0.1 -0.2,-0.2 -0.3,-0.1c-0.7,0 -1.9,1.4 -2.5,2.1c-0.2,0.1 -0.4,0.3 -0.5,0.5c-0.2,0.1 -0.5,0.1 -0.7,0c-0.7,-0.7 -0.5,-1.9 -0.4,-3.2c0.1,-0.6 0.1,-1.6 0,-1.8c-0.3,0.1 -0.7,0.2 -1,0.6c-0.4,0.5 -1,1.7 -0.4,4.6c0.6,3.4 5.3,6 8.1,7.5c1.8,1 2.5,1.3 2.5,2c0,0.2 -0.1,0.4 -0.4,0.5c-0.8,0.2 -4.7,1.3 -6,0c-0.6,-0.8 -1.3,-1.1 -1.6,-1.1Z"></path><path d="M13.7,18c-0.3,0 -0.5,-0.2 -0.5,-0.5c0,-2.5 2.5,-5.2 2.6,-5.3c0.2,-0.2 0.5,-0.2 0.7,0c0.2,0.2 0.2,0.5 0,0.7c0,0 -2.4,2.5 -2.4,4.7c0.1,0.2 -0.1,0.4 -0.4,0.4Z"></path><path d="M15.5,18c-0.2,0 -0.3,-0.1 -0.4,-0.3c0,-0.1 -1.1,-1.9 -1.1,-3.7c0,-0.8 0.2,-1.4 0.6,-1.8c0.4,-0.3 0.9,-0.2 1,-0.2c0.3,0.1 0.4,0.3 0.4,0.6c-0.1,0.3 -0.3,0.4 -0.6,0.4c0,0 -0.1,0 -0.2,0c-0.1,0 -0.2,0.3 -0.2,1c0,1.6 0.9,3.2 0.9,3.3c0.1,0.2 0.1,0.5 -0.2,0.7c-3.55271e-15,0 -0.1,0 -0.2,0Z"></path><path d="M15,16.5c-0.3,0 -0.5,-0.2 -0.5,-0.5c0,-0.1 -0.5,-0.4 -1.1,-0.5c-0.3,0 -0.4,-0.3 -0.4,-0.6c0.1,-0.5 0.6,-1.4 2,-1.4c1.4,0 1.9,0.9 2,1.4c0,0.3 -0.1,0.5 -0.4,0.6c-0.6,0.1 -1.1,0.4 -1.1,0.5c-1.77636e-15,0.3 -0.2,0.5 -0.5,0.5Zm-0.7,-1.8c0.2,0.1 0.5,0.2 0.7,0.4c0.2,-0.2 0.5,-0.3 0.7,-0.4c-0.1,-0.1 -0.4,-0.2 -0.7,-0.2c-0.3,0 -0.6,0.1 -0.7,0.2Z"></path><use xlink:href="#a"></use><use xlink:href="#a"></use></g></svg>