<?xml version="1.0" encoding="UTF-8"?><svg version="1.1" viewBox="0 0 30 30" xmlns="http://www.w3.org/2000/svg" xmlns:xlink="http://www.w3.org/1999/xlink"><path d="M30,7.5c0,-1.654 -1.355,-3 -3.022,-3h-3.723c-0.002,0 -0.003,-0.001 -0.005,-0.001h-1.25c-0.003,0 -0.006,0.001 -0.01,0.001h-13.98c-0.004,0 -0.007,-0.001 -0.01,-0.001h-1.25c-0.002,0 -0.003,0.001 -0.005,0.001h-3.723c-1.667,0 -3.022,1.346 -3.022,3v5c0,0.135 0.016,0.263 0.02,0.397c-0.005,0.022 -0.016,0.041 -0.018,0.064c0,0.006 0.002,0.012 0.002,0.018c-1.73472e-18,0.008 -0.004,0.014 -0.004,0.021c0,0.029 0.012,0.055 0.017,0.082c0.005,0.031 0.007,0.062 0.017,0.09c0.355,7.29 6.398,12.328 14.966,12.328c8.568,0 14.611,-5.038 14.966,-12.327c0.011,-0.028 0.012,-0.059 0.017,-0.09c0.005,-0.028 0.017,-0.053 0.017,-0.083c0,-0.007 -0.004,-0.013 -0.004,-0.021c0,-0.006 0.003,-0.012 0.002,-0.018c-0.002,-0.023 -0.013,-0.042 -0.018,-0.063c0.004,-0.134 0.02,-0.262 0.02,-0.398v-5Zm-29,0c0,-1.103 0.907,-2 2.022,-2h4.987c1.099,0.006 1.991,0.975 1.991,2.166v2.667c0,1.195 -0.897,2.167 -2,2.167h-7v-5Zm0.057,6.07c5.689,0.681 9.259,4.464 9.891,10.491c-5.103,-1.131 -9.426,-4.504 -9.891,-10.491Zm13.943,10.93c-1.015,0 -2.029,-0.089 -3.025,-0.249c-0.468,-5.297 -3.004,-9.04 -7.145,-10.751h3.17c1.654,0 3,-1.42 3,-3.167v-2.667c0,-0.84 -0.316,-1.599 -0.823,-2.166h9.646c-0.507,0.568 -0.823,1.327 -0.823,2.166v2.667c0,1.747 1.346,3.167 3,3.167h3.172c-4.142,1.711 -6.679,5.454 -7.147,10.751c-0.996,0.161 -2.01,0.249 -3.025,0.249Zm4.052,-0.44c0.632,-6.026 4.202,-9.809 9.891,-10.491c-0.465,5.988 -4.788,9.361 -9.891,10.491Zm9.948,-11.56h-7c-1.103,0 -2,-0.972 -2,-2.167v-2.667c0,-1.191 0.892,-2.16 1.991,-2.166h4.987c1.115,0 2.022,0.897 2.022,2v5Z" fill="#000"></path></svg>