<svg xmlns="http://www.w3.org/2000/svg" viewBox="0 0 30 30"><path d="M18.5 29.7h-7c-1 0-1.9-.8-1.9-1.9V14.6a1.11 1.11 0 0 1 1.1-1.1h1.2v-1.4c0-.7.6-1.3 1.3-1.3h3.5c.7 0 1.3.6 1.3 1.3v1.4h1.2a1.11 1.11 0 0 1 1.1 1.1v13.2c.1 1.1-.8 1.9-1.8 1.9zm-7.8-15.2c-.1 0-.1 0-.1.1v13.2c0 .5.4.9.9.9h7c.5 0 .9-.4.9-.9V14.6c0-.1 0-.1-.1-.1h-2.2v-2.4c0-.2-.2-.3-.3-.3h-3.5c-.2 0-.3.2-.3.3v2.4h-2.3z"/><path d="M19.5 1.5c-.3-.1-.5 0-.6.3L16 9.7l.4-8.9a.47.47 0 0 0-.5-.5.47.47 0 0 0-.5.5l-.4 9.5-1.4-8.2c0-.3-.3-.5-.6-.4-.3 0-.5.3-.4.6l1.3 7.3L10.4 1c-.1-.3-.4-.4-.6-.3-.3.1-.4.4-.3.7l4 10.2a.55.55 0 0 0 .5.3h.2c.1-.1.2-.1.3-.3h.3c.1 0 .2-.1.3-.2a1.38 1.38 0 0 0 .4.3c.2 0 .3-.1.4-.2h.3a.55.55 0 0 0 .5-.3l3.2-8.9c0-.4-.2-.7-.4-.8zm-1.9 26.2h-5.2a.68.68 0 0 1-.7-.7v-4.6a.68.68 0 0 1 .7-.7h5.2a.68.68 0 0 1 .7.7V27a.68.68 0 0 1-.7.7zm-4.9-1h4.6v-4h-4.6v4zm-.2-13.2h4.9v1h-4.9z"/></svg>