<svg xmlns="http://www.w3.org/2000/svg" viewBox="0 0 30 30"><g fill="none" stroke="#000" stroke-miterlimit="10"><path d="M19.9 15.8c-.1 0-.2-.1-.2-.2v-4.8a.47.47 0 0 1 .5-.5h.3a.47.47 0 0 0 .5-.5v-3c0-.1-.1-.2-.2-.3l-3.2-1.1v-2c0-.1-.1-.3-.3-.3H16V1.9c0-.5-.4-1-1-1a.94.94 0 0 0-1 1v1.3h-1.4c-.1 0-.3.1-.3.3v2l-3.2 1c-.1 0-.1.2-.1.3v2.9a.47.47 0 0 0 .5.5h.4a.47.47 0 0 1 .5.5v4.8c0 .1-.1.2-.2.2h-.1c-1.5 0-1.3 1.2-1.3 2.6v8.1c0 1.5 1.2 2.6 2.6 2.6h7.1c1.5 0 2.6-1.2 2.6-2.6v-8.1c.1-1.4.3-2.5-1.2-2.5z"/><path d="M12.1 5.4h5.8"/></g><path d="M4.2 12l-.4-2.3c0-.1-.1-.2-.2-.2l-2.2-.3 2.2-.5c.1 0 .1-.1.2-.2l.4-2.2.4 2.2c0 .1.1.1.2.2l2.2.5-2.3.3c-.1 0-.2.1-.2.2L4.2 12zm2.3-5.2l-.2-1.4c0-.1-.1-.2-.2-.2L4.8 5l1.3-.3c.1 0 .1-.1.2-.2l.2-1.3.2 1.3c0 .1.1.1.2.2l1.3.3-1.3.2c-.1 0-.2.1-.2.2l-.2 1.4zm18.9-.9L25.1 4c0-.1-.1-.2-.2-.2l-1.8-.2 1.8-.5c.1.1.1 0 .1-.1l.3-1.8.4 1.8c0 .1.1.1.2.2l1.8.4-1.8.3c-.1 0-.2.1-.2.2l-.3 1.8z"/><ellipse transform="matrix(.6579 -.7531 .7531 .6579 -11.8463 18.1125)" cx="14" cy="22.1" rx="3.8" ry="2.8" fill="none" stroke="#000"/><circle cx="13.3" cy="21.2" r=".3"/><circle cx="13.4" cy="23.5" r=".4"/><circle cx="14.4" cy="22" r=".4"/><g fill="none" stroke="#000" stroke-miterlimit="10"><path d="M16.7 16.6s.2 1.9-.2 2.7" stroke-linecap="round"/><path d="M16.9 18.9s1.8.1 2.2 1.3c.6 1.3-2.1 1.1-2.2-1.3z"/></g></svg>