<svg xmlns="http://www.w3.org/2000/svg" viewBox="0 0 30 30"><path d="M18.5 19.9h-6.1c-1.1 0-2.1-.9-2.1-2.1v-2.9c0-1.1.9-2.1 2.1-2.1h6.1c1.1 0 2.1.9 2.1 2.1v2.9c-.1 1.2-1 2.1-2.1 2.1zm-6.2-6a1.11 1.11 0 0 0-1.1 1.1v2.9a1.11 1.11 0 0 0 1.1 1.1h6.1a1.11 1.11 0 0 0 1.1-1.1V15a1.11 1.11 0 0 0-1.1-1.1h-6.1zm3.1 4.3a1.8 1.8 0 1 1 0-3.6 1.8 1.8 0 1 1 0 3.6zm0-2.6c-.5 0-.8.4-.8.8 0 .5.4.8.8.8s.8-.4.8-.8c0-.5-.4-.8-.8-.8zm6.5-4.3c-.3 0-.7-.1-1-.2-.5-.3-.8-.7-1-1.2L19 7c-.3-1.1.3-2.2 1.4-2.6l5.9-1.8c1.1-.3 2.2.3 2.6 1.4l.9 2.8c.3 1.1-.3 2.2-1.4 2.6l-5.9 1.8c-.2 0-.4.1-.6.1zm5-7.8h-.3l-5.9 1.8c-.6.2-.9.8-.7 1.3l.9 2.8c.1.3.3.5.5.6.3.1.5.2.8.1l5.9-1.8c.6-.2.9-.8.7-1.3l-.9-2.8c-.1-.4-.6-.7-1-.7zm-2.5 5.2c-.8 0-1.5-.5-1.7-1.3-.3-1 .2-2 1.2-2.3s2 .2 2.3 1.2c.1.5.1 1-.1 1.4s-.6.8-1.1.9c-.3.1-.4.1-.6.1zm0-2.7h-.2c-.4.1-.7.6-.5 1 .1.4.6.7 1 .5.2-.1.4-.2.5-.4s.1-.4.1-.6c-.2-.2-.6-.5-.9-.5zm-4.2 22.8h-.3l-6-.8c-.5-.1-1-.3-1.4-.8-.3-.4-.5-1-.4-1.5l.4-2.9c.1-1.1 1.2-1.9 2.3-1.8l6.1.8c.5.1 1 .3 1.4.8.3.4.5 1 .4 1.5l-.4 2.9c-.1.5-.3 1-.8 1.4-.4.2-.8.4-1.3.4zm-.1-1c.3 0 .6 0 .8-.2s.4-.4.4-.7l.4-2.9c.1-.6-.3-1.1-.9-1.2l-6.1-.8c-.6-.1-1.1.3-1.2.9l-.4 2.9c0 .3 0 .6.2.8s.4.4.7.4l6.1.8zm-2.7-1.1h-.2c-.5-.1-.9-.3-1.2-.7s-.4-.9-.4-1.3.3-.9.7-1.2.9-.4 1.3-.4c1 .1 1.7 1 1.6 2-.1.9-.9 1.6-1.8 1.6zm0-2.7c-.2 0-.4.1-.5.2a.55.55 0 0 0-.3.5c0 .2 0 .4.2.6a.55.55 0 0 0 .5.3c.4.1.9-.3.9-.7a.75.75 0 0 0-.7-.9h-.1zM3.7 28.3c-.9 0-1.8-.6-2-1.6l-1.4-6c-.3-1.1.4-2.2 1.5-2.5l2.9-.7c.5-.1 1.1 0 1.6.3s.8.7.9 1.3l1.4 6c.3 1.1-.4 2.2-1.5 2.5l-2.9.7c-.2-.1-.4 0-.5 0zm1.4-9.8h-.2l-2.9.7c-.6.1-.9.7-.8 1.3l1.4 6c.1.6.7.9 1.3.8l2.9-.7c.6-.1.9-.7.8-1.3l-1.4-6c-.1-.3-.2-.5-.5-.7-.2-.1-.4-.1-.6-.1zm-.7 6.2a1.93 1.93 0 0 1-1-.3c-.4-.3-.7-.7-.8-1.1a2.2 2.2 0 0 1 .2-1.4c.3-.4.7-.7 1.1-.8a2.2 2.2 0 0 1 1.4.2c.4.2.7.7.8 1.1a2.2 2.2 0 0 1-.2 1.4c-.3.4-.7.7-1.1.8-.1.1-.3.1-.4.1zm0-2.7h-.2c-.2.1-.4.2-.5.4s-.2.4-.1.6.2.4.4.5.4.2.6.1.4-.2.5-.4.2-.4.1-.6a.78.78 0 0 0-.4-.4.76.76 0 0 0-.4-.2zm7.2-9.9c-.7 0-1.3-.3-1.7-.9L6.5 6.1c-.3-.5-.4-1-.3-1.5.1-.6.4-1.1.8-1.4l2.4-1.6c.5-.3 1-.4 1.5-.3s1 .4 1.3.9l3.4 5.1c.3.5.4 1 .3 1.5s-.4 1-.9 1.3l-2.4 1.6c-.2.3-.6.4-1 .4zm-1-9.9c-.2 0-.4.1-.6.2L7.6 4c-.5.4-.6 1-.3 1.5l3.4 5.1c.3.5 1 .6 1.5.3l2.4-1.6c.5-.3.6-1 .3-1.5l-3.4-5.1c-.2-.3-.5-.5-.9-.5zm.5 6.3c-.6 0-1.2-.3-1.5-.8-.6-.8-.3-2 .5-2.5.8-.6 2-.3 2.5.5.6.8.3 2-.5 2.5a1.69 1.69 0 0 1-1 .3zm0-2.7c-.2 0-.3 0-.5.1-.4.3-.5.8-.2 1.1.3.4.8.5 1.1.2.4-.3.5-.8.2-1.1 0-.2-.3-.3-.6-.3z"/></svg>