<svg xmlns="http://www.w3.org/2000/svg" viewBox="0 0 30 30"><path d="M15.1 14.8l-6-2c-.3-.1-.5-.3-.5-.6s.2-.5.5-.6l5.5-1.8.3.9-4.5 1.5 4.7 1.6 1.9-.7.3.9-2.2.8z"/><path d="M14.6 14.3h1v6.5h-1z"/><path d="M15.1 21.6h-.2l-2.5-.8.3-.9 2.4.8 2.2-.7.3.9-2.3.8c-.1-.1-.2-.1-.2-.1zm.1-1zm-6.504-8.3h1l.008 3.7h-1zM20.7 8.5l-6-2c-.3-.1-.5-.3-.5-.6s.2-.5.5-.6l5.7-1.9c.2-.1.4-.1.5 0l5.7 1.9c.3.1.5.3.5.6s-.2.5-.5.6l-5.9 2zM16 5.9l4.7 1.6 4.7-1.6-4.7-1.6L16 5.9zm4.6-1.6z"/><path d="M20.2 8h1v6.5h-1z"/><path d="M20.6 15.3h-.2l-5.5-1.9c-.3-.1-.6-.4-.6-.8V6h1v6.5l5.3 1.8 5.4-1.9V5.9h1v6.7c0 .4-.2.7-.6.8l-5.7 2c.1-.1 0-.1-.1-.1z"/><path d="M23.2 17.7l-6-2c-.3-.1-.5-.3-.5-.6s.2-.5.5-.6l2-.7.3.9-1 .3 4.7 1.6 4.7-1.6-3.4-1 .3-.9 4.3 1.4c.3.1.5.3.5.6s-.2.5-.5.6l-5.9 2z"/><path d="M22.7 17.2h1v6.5h-1z"/><path d="M23.1 24.5h-.2l-5.5-1.9c-.3-.1-.6-.4-.6-.8v-6.6h1v6.5l5.3 1.8 5.4-1.9v-6.5h1v6.7c0 .4-.2.7-.6.8l-5.7 2c.1-.1 0-.1-.1-.1zm-.1-1zM6.7 20l-6-2c-.3-.1-.5-.3-.5-.6s.2-.5.5-.6l5.7-1.9c.2-.1.4-.1.5 0l5.7 1.9c.3.1.5.3.5.6s-.2.5-.5.6l-5.9 2zM2 17.4L6.7 19l4.7-1.6-4.7-1.6L2 17.4zm10.3.3zM1 17.7z"/><path d="M6.2 19.5h1V26h-1z"/><path d="M6.6 26.8h-.2L.9 24.9c-.3-.1-.6-.4-.6-.8v-6.6h1V24l5.3 1.8 5.4-1.9v-6.5h1V24c0 .3-.2.7-.6.8l-5.7 2h-.1zm-.1-1zm.2 0z"/></svg>