<?xml version="1.0" encoding="UTF-8"?><svg version="1.1" viewBox="0 0 30 30" xmlns="http://www.w3.org/2000/svg" xmlns:xlink="http://www.w3.org/1999/xlink"><g fill="#000"><path d="M12.1,21.8c-0.1,0 -0.1,0 -0.2,0c-2.6,-1.2 -4.4,-3.9 -4.4,-6.8c0,-4.1 3.4,-7.5 7.5,-7.5c2.3,0 4.4,1 5.8,2.8c0.2,0.2 0.1,0.5 -0.1,0.7c-0.3,0.3 -0.5,0.7 -0.3,1c1.6,2.4 1.3,5.7 -0.8,7.7c-1.7,1.7 -4.1,2.2 -6.3,1.5c-0.2,-0.1 -0.4,-0.1 -0.5,0c-0.1,0.1 -0.2,0.2 -0.3,0.3c0,0.1 -0.1,0.2 -0.3,0.3c3.55271e-15,0 -0.1,0 -0.1,0Zm2.9,-13.3c-3.6,0 -6.5,2.9 -6.5,6.5c0,2.4 1.3,4.6 3.4,5.7c0.2,-0.2 0.3,-0.3 0.6,-0.4c0.4,-0.2 0.8,-0.2 1.3,0c1.9,0.6 3.9,0.2 5.3,-1.2c1.7,-1.7 2,-4.4 0.6,-6.5c-0.4,-0.6 -0.3,-1.4 0.1,-2c-1.3,-1.3 -3,-2.1 -4.8,-2.1Z"></path><path d="M5.5,25.5c-0.1,0 -0.3,0 -0.4,-0.1c-0.2,-0.2 -0.2,-0.5 0,-0.7c1.3,-1.3 2.6,-2.1 4.9,-2.1c0.8,0 1.4,-0.4 1.5,-1.1c0.1,-0.5 0.4,-0.9 0.7,-1.1c0.4,-0.2 0.9,-0.3 1.4,-0.1c1.9,0.6 3.9,0.2 5.3,-1.2c1.7,-1.7 2,-4.4 0.6,-6.5c-0.5,-0.8 -0.1,-1.9 0.6,-2.4c1.1,-0.9 2.1,-1.6 3.8,-1.6c1.1,0 1.7,-0.4 1.9,-0.9c0.1,-0.3 0,-0.5 -0.2,-0.8c-0.2,-0.2 -0.2,-0.5 0,-0.7c0.2,-0.2 0.5,-0.2 0.7,0c0.6,0.6 0.7,1.2 0.5,1.9c-0.4,0.9 -1.5,1.5 -2.8,1.5c-1.4,0 -2.1,0.6 -3.2,1.4c-0.3,0.2 -0.5,0.8 -0.3,1.1c1.6,2.4 1.3,5.7 -0.8,7.7c-1.7,1.7 -4.1,2.2 -6.3,1.5c-0.2,-0.1 -0.5,-0.1 -0.6,0c-0.1,0.1 -0.2,0.2 -0.3,0.4c-0.2,1.2 -1.2,1.9 -2.5,1.9c-1.7,0 -2.8,0.5 -4.1,1.9c-0.1,1.06581e-14 -0.3,1.06581e-14 -0.4,1.06581e-14Z"></path><path d="M15.3,26.8c-0.7,0 -1.4,-0.1 -2,-0.3c-0.3,-0.1 -0.4,-0.4 -0.3,-0.6c0.1,-0.3 0.4,-0.4 0.6,-0.3c1.2,0.5 2.4,0.3 3.1,0c0.3,-0.1 0.5,0 0.7,0.3c0.1,0.3 0,0.5 -0.3,0.7c-0.5,0.1 -1.1,0.2 -1.8,0.2Z"></path><path d="M26,16.5c-0.1,0 -0.3,0 -0.4,-0.1c-0.2,-0.2 -0.2,-0.5 0,-0.7c0.7,-0.7 0.3,-3 0,-3.3c-0.2,-0.2 -0.2,-0.5 0,-0.7c0.2,-0.2 0.5,-0.2 0.7,0c0.7,0.7 1.1,3.6 0,4.7c0,0.1 -0.2,0.1 -0.3,0.1Z"></path><path d="M23.8,22.7c-1.3,0 -2.5,-0.6 -3.2,-1.3c-0.2,-0.2 -0.2,-0.5 0,-0.7c0.2,-0.2 0.5,-0.2 0.7,0c0.7,0.7 2,1.3 3.5,0.9c0.3,-0.1 0.5,0.1 0.6,0.3c0.1,0.3 -0.1,0.5 -0.3,0.6c-0.4,0.1 -0.9,0.2 -1.3,0.2Z"></path><path d="M15,29.5c-8,0 -14.5,-6.5 -14.5,-14.5c0,-8 6.5,-14.5 14.5,-14.5c8,0 14.5,6.5 14.5,14.5c0,8 -6.5,14.5 -14.5,14.5Zm0,-28c-7.4,0 -13.5,6.1 -13.5,13.5c0,7.4 6.1,13.5 13.5,13.5c7.4,0 13.5,-6.1 13.5,-13.5c0,-7.4 -6.1,-13.5 -13.5,-13.5Z"></path><path d="M7.35355,19.6464c0.195262,0.195262 0.195262,0.511845 0,0.707107c-0.195262,0.195262 -0.511845,0.195262 -0.707107,0c-0.195262,-0.195262 -0.195262,-0.511845 0,-0.707107c0.195262,-0.195262 0.511845,-0.195262 0.707107,0"></path><path d="M5.35355,12.6464c0.195262,0.195262 0.195262,0.511845 0,0.707107c-0.195262,0.195262 -0.511845,0.195262 -0.707107,0c-0.195262,-0.195262 -0.195262,-0.511845 0,-0.707107c0.195262,-0.195262 0.511845,-0.195262 0.707107,0"></path><path d="M11.3536,4.64645c0.195262,0.195262 0.195262,0.511845 0,0.707107c-0.195262,0.195262 -0.511845,0.195262 -0.707107,0c-0.195262,-0.195262 -0.195262,-0.511845 0,-0.707107c0.195262,-0.195262 0.511845,-0.195262 0.707107,0"></path><path d="M19.3536,5.64645c0.195262,0.195262 0.195262,0.511845 0,0.707107c-0.195262,0.195262 -0.511845,0.195262 -0.707107,0c-0.195262,-0.195262 -0.195262,-0.511845 0,-0.707107c0.195262,-0.195262 0.511845,-0.195262 0.707107,0"></path></g></svg>