<svg xmlns="http://www.w3.org/2000/svg" viewBox="0 0 30 30"><path d="M13.8 26.6c-.1 0-.3-.1-.4-.1l-.9-.5c-.5-.3-.7-.9-.4-1.4L20.6 7l-.1-.8c0-.2 0-.4.1-.6L23.1 1l5.4 3L26 8.6c0 .1-.1.3-.3.4l-.7.3-10.3 16.8c-.2.3-.6.5-.9.5zm9.8-24.3l-2 3.7.1 1.1-.1.1L13 25.1l.9.5 10.4-17 .9-.5s.1 0 .1-.1l2-3.7-3.7-2z"/><path d="M29.3 5.2c-.1 0-.1 0-.2-.1L22 1.2c-.2-.1-.3-.4-.2-.7.1-.2.4-.3.7-.2l7.1 3.9c.2.1.3.4.2.7-.2.3-.3.4-.5.3zm-16.1 21c-.1 0-.1 0-.2-.1-.2-.1-.3-.4-.2-.7L21 10.5c.1-.2.4-.3.7-.2.2.1.3.4.2.7l-8.2 14.9a.55.55 0 0 1-.5.3zm5.8-15c-.2 0-.4-.1-.4-.4l-.7-2.2c-.1-.2.1-.5.3-.6.3-.1.5.1.6.3l.7 2.2c.1.3-.1.5-.3.6-.1.1-.1.1-.2.1zm3.6 2c-.2 0-.4-.2-.4-.4-.1-.3.1-.5.3-.6l2.2-.6c.3-.1.5.1.6.3s-.1.5-.3.6l-2.2.6c-.1.1-.1.1-.2.1zM9 29.6c-.5 0-.9-.3-1-.8L3.5 9.7l-.6-.6c-.1-.1-.2-.3-.3-.5l-1-5.2 6.1-1.1 1 5.2c0 .2 0 .5-.1.7l-.3.6L11 28.3a1.1 1.1 0 0 1-.8 1.2l-1 .2c-.1-.1-.1-.1-.2-.1zM2.8 4.2l.8 4.2.8.8v.1L9 28.6l1-.2L7.3 8.7l.4-1v-.1L7 3.4l-4.2.8z"/><path d="M.8 4.5c-.2 0-.4-.2-.5-.4 0-.3.1-.5.4-.6l8-1.5c.3 0 .5.1.6.4 0 .3-.1.5-.4.6L.8 4.5zm8.7 24.9c-.2 0-.4-.2-.5-.4L6 12.2c-.1-.3.1-.5.4-.6s.5.1.6.4l3 16.8c.1.3-.1.5-.5.6zM4.6 14.1c-.1 0-.2 0-.3-.1l-1.9-1.3c-.2-.2-.3-.5-.1-.7s.5-.3.7-.1l1.9 1.3c.2.2.3.5.1.7-.1.1-.2.2-.4.2zm4.1-.7c-.1 0-.2 0-.3-.1-.2-.2-.3-.5-.1-.7l1.3-1.9c.2-.2.5-.3.7-.1s.3.5.1.7l-1.3 1.9a.76.76 0 0 1-.4.2z"/></svg>