<svg xmlns="http://www.w3.org/2000/svg" viewBox="0 0 30 30"><path d="M27.2 29.1H2.8A1.11 1.11 0 0 1 1.7 28V10.9a1.11 1.11 0 0 1 1.1-1.1h24.4a1.11 1.11 0 0 1 1.1 1.1v17.2c0 .5-.5 1-1.1 1zM2.8 10.8l-.1 17.3 24.5.1s.1 0 .1-.1V10.9l-24.5-.1z"/><path d="M19.5 10.7h-.2c-.3-.2-.4-.5-.3-.7l3.7-8.5c.2-.5.7-.8 1.3-.6l.3.1L28 2c.3.1.4.3.4.6-.1.3-.3.4-.6.4-.2 0-2.5-.7-3.7-1l-.3-.1-3.7 8.6c-.3.1-.4.2-.6.2zm-3.1 15.4a6.02 6.02 0 0 1-6-6 6.02 6.02 0 0 1 6-6 6.02 6.02 0 0 1 6 6 6.02 6.02 0 0 1-6 6zm0-11.1c-2.8 0-5 2.3-5 5 0 2.8 2.3 5 5 5 2.8 0 5-2.3 5-5s-2.2-5-5-5z"/><path d="M19 23.7c-.2 0-.4-.2-.4-.4s.2-.4.4-.4.4.2.4.4c.1.2-.1.4-.4.4zm-6-7.9a.55.55 0 0 1-.5-.3l-.8-1.6c-.1-.2 0-.5.2-.7.2-.1.5 0 .7.2l.8 1.6c.1.2 0 .5-.2.7 0 .1-.1.1-.2.1z"/><path d="M10.2 16.8c-1.1 0-2-.5-2.4-.9l-.5-.4.5-.4c2.4-1.8 4.8-.2 4.9-.1l.6.4-.5.4c-.9.7-1.8 1-2.6 1zm-1.1-1.3c.6.3 1.4.5 2.4-.1-.6-.1-1.5-.3-2.4.1z"/></svg>