<svg xmlns="http://www.w3.org/2000/svg" viewBox="0 0 30 30"><path d="M21 27.6H9a.68.68 0 0 1-.7-.7V6.7c0-.4.4-.7.7-.7h12a.68.68 0 0 1 .7.7v20.1c0 .5-.4.8-.7.8zm-11.7-1h11.3V7H9.3v19.6z"/><path d="M20.8 7H9.2l1.1-3.1h9.6l.9 3.1zM10.5 6h8.9L19 4.9h-8.1L10.5 6zm9.8 23.8H9.7l-1.1-3.3h12.9l-1.2 3.3zm-9.9-1h9.2l.5-1.3H9.9l.5 1.3z"/><path d="M12.7 4.6c-.1 0-.2 0-.3-.1l-1.9-1.8c-.2-.2-.2-.5 0-.7s.5-.2.7 0L13 3.8c.2.2.2.5 0 .7 0 .1-.2.1-.3.1zm-1.4 18.6a.47.47 0 0 1-.5-.5V9.1a.47.47 0 0 1 .5-.5.47.47 0 0 1 .5.5v13.5c0 .3-.2.6-.5.6z"/><circle cx="16.4" cy="2.2" r=".5"/><circle cx="17.8" cy="1.6" r=".5"/><circle cx="13.9" cy=".9" r=".5"/></svg>