<?xml version="1.0" encoding="UTF-8"?><svg version="1.1" viewBox="0 0 30 30" xmlns="http://www.w3.org/2000/svg" xmlns:xlink="http://www.w3.org/1999/xlink"><g fill="#000"><path d="M15.5,24c-8.6,0 -13.5,-2.7 -13.5,-7.5c0,-2.4 1,-3.8 2,-5.2c1,-1.3 1.9,-2.6 2,-4.8c-1.4,-0.1 -2.3,-0.4 -2.6,-0.5c-1.1,0 -3.4,-0.2 -3.4,-1.5c0,-1.6 3.2,-2 3.7,-2c0.1,0 0.4,-0.4 0.7,-0.7c0.7,-0.7 1.7,-1.8 3,-1.8c2.3,0 3.6,1.3 3.6,3.5c0,0.7 -0.3,1.4 -0.7,2.3c-0.4,1 -0.8,2.1 -0.8,3.2c0,1.6 3.1,2.4 3.1,2.4c0.3,0.1 0.4,0.3 0.4,0.6c-0.1,0.3 -0.3,0.4 -0.6,0.4c-0.2,0 -3.9,-0.9 -3.9,-3.3c0,-1.3 0.5,-2.5 0.9,-3.6c0.3,-0.8 0.6,-1.5 0.6,-2c0,-1.7 -0.8,-2.5 -2.6,-2.5c-0.9,0 -1.7,0.8 -2.3,1.5c-0.5,0.6 -0.9,1 -1.4,1c-0.9,0 -2.7,0.6 -2.7,1c0.1,0.2 1.4,0.5 2.5,0.5c0.1,0 0.1,0 0.2,0c0,0 1.1,0.5 2.8,0.5c0.3,0 0.5,0.2 0.5,0.5c0,2.9 -1.2,4.5 -2.2,5.9c-0.9,1.3 -1.8,2.5 -1.8,4.6c0,5.9 8.7,6.5 12.5,6.5c4.3,0 7.2,-1.7 9.5,-3.2c1.4,-0.9 2.7,-1.6 4,-1.8c-0.1,-0.9 -0.4,-2 -1,-2c-0.3,0 -0.5,-0.2 -0.5,-0.5c0,-0.3 0.2,-0.5 0.5,-0.5c1.9,0 2,3.1 2,3.5c0,0.1 -0.1,0.3 -0.1,0.4c-0.1,0.1 -0.2,0.1 -0.4,0.1c-1.2,0 -2.4,0.8 -4,1.7c-2.4,1.5 -5.4,3.3 -10,3.3Z"></path><path d="M18,19c-4.6,0 -7.5,-1 -7.7,-1c-0.3,-0.1 -0.4,-0.4 -0.3,-0.6c0.1,-0.2 0.4,-0.4 0.6,-0.3c0,0 2.9,1 7.3,1c3.6,0 8.7,-2.6 10.6,-3.6c-1.5,-1.1 -5.5,-3.5 -10,-3.5c-5.6,0 -8.6,3.8 -8.6,3.8c-0.2,0.2 -0.5,0.3 -0.7,0.1c-0.2,-0.2 -0.3,-0.5 -0.1,-0.7c0.1,-0.2 3.3,-4.2 9.4,-4.2c6,0 11.1,3.9 11.3,4.1c0.1,0.1 0.2,0.3 0.2,0.4c0,0.2 -0.1,0.3 -0.2,0.4c-0.3,0.2 -7.1,4.1 -11.8,4.1Z"></path><path d="M18.5,16c-3.2,0 -5.5,-0.5 -5.6,-0.5c-0.3,-0.1 -0.4,-0.3 -0.4,-0.6c0.1,-0.3 0.3,-0.4 0.6,-0.4c0,0 2.3,0.5 5.4,0.5c3,0 8.2,-2.4 8.3,-2.5c0.3,-0.1 0.5,0 0.7,0.2c0.1,0.3 0,0.5 -0.2,0.7c-0.3,0.2 -5.6,2.6 -8.8,2.6Z"></path><path d="M15.5,30c-0.1,0 -0.2,0 -0.2,-0.1c-0.2,-0.1 -0.3,-0.4 -0.2,-0.7l0.9,-1.9v-3.9c0,-0.3 0.2,-0.5 0.5,-0.5c0.3,0 0.5,0.2 0.5,0.5v4c0,0.1 0,0.2 -0.1,0.2l-1,2c1.77636e-15,0.3 -0.2,0.4 -0.4,0.4Z"></path><path d="M13.5,30c-0.2,0 -0.3,-0.1 -0.4,-0.2c-0.2,-0.2 -0.1,-0.5 0.1,-0.7l3,-2c0.2,-0.1 0.5,-0.1 0.6,0.1l1,1c0.2,0.2 0.2,0.5 0,0.7c-0.2,0.2 -0.5,0.2 -0.7,0l-0.7,-0.7l-2.7,1.8c-3.55271e-15,-3.55271e-15 -0.1,-3.55271e-15 -0.2,-3.55271e-15Z"></path><path d="M11.5,29c-0.2,0 -0.4,-0.1 -0.4,-0.3c-0.1,-0.2 0,-0.5 0.2,-0.7l1.7,-0.9v-3.7c0,-0.3 0.2,-0.5 0.5,-0.5c0.3,0 0.5,0.2 0.5,0.5v4c0,0.2 -0.1,0.4 -0.3,0.4l-2,1c1.77636e-15,0.2 -0.1,0.2 -0.2,0.2Z"></path><path d="M14.5,28h-1c-0.3,0 -0.5,-0.2 -0.5,-0.5c0,-0.3 0.2,-0.5 0.5,-0.5h1c0.3,0 0.5,0.2 0.5,0.5c0,0.3 -0.2,0.5 -0.5,0.5Z"></path><path d="M6.85355,2.14645c0.195262,0.195262 0.195262,0.511845 0,0.707107c-0.195262,0.195262 -0.511845,0.195262 -0.707107,0c-0.195262,-0.195262 -0.195262,-0.511845 0,-0.707107c0.195262,-0.195262 0.511845,-0.195262 0.707107,0"></path></g></svg>