<?xml version="1.0" encoding="UTF-8"?>
<svg viewBox="0 0 30 30" version="1.1" xmlns="http://www.w3.org/2000/svg" xmlns:xlink="http://www.w3.org/1999/xlink">
    <g id="Page-1" stroke="none" stroke-width="1" fill="none" fill-rule="evenodd">
        <g id="Outlines_black-Copy" transform="translate(-120.000000, -114.000000)">
            <g id="Group-3" transform="translate(3.000000, 114.000000)" fill="#000000" fill-rule="nonzero">
                <path d="M138.602439,25.8292683 L138.602439,21.942439 L130.126341,21.942439 C129.803053,21.942439 129.540976,21.6803618 129.540976,21.3570732 L129.540976,17.2829268 C129.540976,16.9596382 129.803053,16.697561 130.126341,16.697561 L136.986829,16.697561 L136.986829,12.8107317 L130.126341,12.8107317 C129.803053,12.8107317 129.540976,12.5486545 129.540976,12.2253659 L129.540976,8.64292683 C129.540976,8.3196382 129.803053,8.05756098 130.126341,8.05756098 L138.25122,8.05756098 L138.25122,4.17073171 L124.670732,4.17073171 L124.670732,25.8292683 L138.602439,25.8292683 Z M139.187805,20.7717073 C139.511094,20.7717073 139.773171,21.0337845 139.773171,21.3570732 L139.773171,26.4146341 C139.773171,26.7379228 139.511094,27 139.187805,27 L124.085366,27 C123.762077,27 123.5,26.7379228 123.5,26.4146341 L123.5,3.58536585 C123.5,3.26207722 123.762077,3 124.085366,3 L138.836585,3 C139.159874,3 139.421951,3.26207722 139.421951,3.58536585 L139.421951,8.64292683 C139.421951,8.96621546 139.159874,9.22829268 138.836585,9.22829268 L130.711707,9.22829268 L130.711707,11.64 L137.572195,11.64 C137.895484,11.64 138.157561,11.9020772 138.157561,12.2253659 L138.157561,17.2829268 C138.157561,17.6062155 137.895484,17.8682927 137.572195,17.8682927 L130.711707,17.8682927 L130.711707,20.7717073 L139.187805,20.7717073 Z" id="E-Copy-2"></path>
            </g>
            <g id="Slices" transform="translate(0.000000, 114.000000)"></g>
        </g>
    </g>
</svg>