<svg xmlns="http://www.w3.org/2000/svg" viewBox="0 0 30 30"><path d="M15 30C8.467 30 3.152 24.685 3.152 18.152 3.152 11.938 8.155 0 15 0s11.848 11.938 11.848 18.152C26.848 24.685 21.533 30 15 30zm0-29C9.063 1 4.152 12.356 4.152 18.152 4.152 24.134 9.02 29 15 29s10.848-4.866 10.848-10.848C25.848 12.356 20.937 1 15 1z"/><path d="M18.938 23.696a.49.49 0 0 1-.346-.14L15 20.106l-3.6 3.45c-.193.187-.5.187-.692 0l-3.6-3.45-2.28 2.188a.5.5 0 1 1-.693-.721l2.625-2.52c.193-.187.5-.187.692 0l3.6 3.45 3.6-3.45c.193-.187.5-.187.692 0l3.6 3.45 3.6-3.45c.193-.187.5-.187.692 0l2.625 2.52a.5.5 0 1 1-.693.721l-2.28-2.188-3.6 3.45c-.094.093-.218.14-.343.14zm-.056-7.566a.5.5 0 0 1-.35-.142L15 12.546l-3.533 3.442a.5.5 0 0 1-.698 0l-3.533-3.442-2.886 2.812a.5.5 0 0 1-.698-.716L6.887 11.5a.5.5 0 0 1 .698 0l3.533 3.442L14.65 11.5a.5.5 0 0 1 .698 0l3.533 3.442 3.533-3.442a.5.5 0 0 1 .698 0l3.235 3.152a.5.5 0 0 1-.698.716l-2.886-2.812-3.533 3.442c-.097.095-.223.142-.35.142z"/></svg>