<?xml version="1.0" encoding="UTF-8"?><svg version="1.1" viewBox="0 0 30 30" xmlns="http://www.w3.org/2000/svg" xmlns:xlink="http://www.w3.org/1999/xlink"><path d="" stroke-linecap="round" stroke-width="1" stroke="#000" fill="none" stroke-linejoin="round"></path><path fill="#000" d="M25.5,24h-4c-0.2,0 -0.4,-0.1 -0.4,-0.3l-1.6,-3.3l-2.5,3.4c-0.1,0.1 -0.2,0.2 -0.4,0.2h-4c-0.2,0 -0.4,-0.1 -0.4,-0.3l-1.6,-3.3l-2.5,3.4c-0.3,0.1 -0.4,0.2 -0.6,0.2h-3c-0.2,0 -0.4,-0.1 -0.4,-0.3l-4,-8c-0.1,-0.2 -0.1,-0.3 0,-0.5c0.1,-0.1 0.2,-0.2 0.4,-0.2h29c0.2,0 0.3,0.1 0.4,0.2c0.1,0.1 0.1,0.3 0,0.5l-4,8c0,0.2 -0.2,0.3 -0.4,0.3Zm-3.7,-1h3.4l3.5,-7h-27.4l3.5,7h2.4l2.8,-3.8c0.1,-0.1 0.3,-0.2 0.4,-0.2c0.2,0 0.3,0.1 0.4,0.3l1.9,3.7h3.4l2.8,-3.8c0.1,-0.1 0.3,-0.2 0.4,-0.2c0.2,0 0.3,0.1 0.4,0.3l2.1,3.7Z"></path><g fill="#000"><path d="M10.5,16c-0.3,0 -0.5,-0.2 -0.5,-0.5c0,-4.8 -2.7,-8.5 -4,-8.5c-1.2,0 -4,3.6 -4,8.5c0,0.3 -0.2,0.5 -0.5,0.5c-0.3,0 -0.5,-0.2 -0.5,-0.5c0,-4.9 2.8,-9.5 5,-9.5c2.2,0 5,4.5 5,9.5c0,0.3 -0.2,0.5 -0.5,0.5Z"></path><path d="M19.5,16c-0.3,0 -0.5,-0.2 -0.5,-0.5c0,-4.8 -2.7,-8.5 -4,-8.5c-1.2,0 -4,3.6 -4,8.5c0,0.3 -0.2,0.5 -0.5,0.5c-0.3,0 -0.5,-0.2 -0.5,-0.5c0,-4.9 2.8,-9.5 5,-9.5c2.2,0 5,4.5 5,9.5c0,0.3 -0.2,0.5 -0.5,0.5Z"></path><path d="M28.5,16c-0.3,0 -0.5,-0.2 -0.5,-0.5c0,-4.8 -2.7,-8.5 -4,-8.5c-1.2,0 -4,3.6 -4,8.5c0,0.3 -0.2,0.5 -0.5,0.5c-0.3,0 -0.5,-0.2 -0.5,-0.5c0,-4.9 2.8,-9.5 5,-9.5c2.2,0 5,4.5 5,9.5c0,0.3 -0.2,0.5 -0.5,0.5Z"></path></g></svg>