<?xml version="1.0" encoding="UTF-8"?><svg version="1.1" viewBox="0 0 30 30" xmlns="http://www.w3.org/2000/svg" xmlns:xlink="http://www.w3.org/1999/xlink"><path d="M4.291,13.955c-1.563,1.616 -2.415,3.84 -2.338,6.103c0.01,0.27 0.231,0.483 0.5,0.483c0.006,0 0.012,0 0.017,-0.001c0.276,-0.01 0.492,-0.241 0.483,-0.517c-0.068,-1.993 0.682,-3.952 2.057,-5.373c0.192,-0.198 0.186,-0.515 -0.012,-0.707c-0.197,-0.191 -0.516,-0.186 -0.707,0.012Zm25.42,-12.416c-1.173,-0.598 -3.07,0.177 -4.296,1.32c-0.129,-0.37 -0.337,-0.712 -0.629,-1.012c-0.997,-1.022 -2.692,-1.382 -3.831,-1.364c-2.284,0.02 -5.588,1.261 -6.267,2.77c-0.034,0.077 -0.049,0.161 -0.042,0.245c0.016,0.204 0.109,0.495 0.461,0.724c0.254,0.165 0.634,0.269 1.085,0.33c-0.237,0.232 -0.464,0.45 -0.65,0.629c-0.182,0.175 -0.327,0.315 -0.411,0.399c-2.185,2.185 -4.957,3.318 -7.403,4.318c-1.995,0.816 -3.719,1.52 -4.805,2.643c-3.832,3.959 -3.883,10.351 -0.113,14.247c1.842,1.902 4.222,2.73 6.593,2.73c2.688,0 5.363,-1.064 7.222,-2.832c1.013,-0.963 1.762,-2.866 2.629,-5.071c1.045,-2.659 2.231,-5.673 4.108,-7.55c0.205,-0.205 0.738,-0.743 1.304,-1.32c0.224,0.295 0.498,0.387 0.697,0.404c0.014,0.002 0.028,0.002 0.042,0.002c0.075,0 0.148,-0.016 0.218,-0.05c1.316,-0.632 2.658,-2.567 2.679,-5.043c0.009,-1.219 -0.349,-3 -1.389,-4.011c-0.23,-0.224 -0.486,-0.392 -0.758,-0.515c1.002,-0.901 2.443,-1.439 3.101,-1.103c0.246,0.125 0.548,0.029 0.673,-0.218c0.126,-0.246 0.028,-0.547 -0.218,-0.672Zm-5.162,6.832c-0.049,0.251 -0.093,0.516 -0.133,0.785c-0.004,0.026 -0.007,0.051 -0.011,0.076c-0.081,0.561 -0.134,1.136 -0.136,1.671c0,0.027 0.001,0.051 0.001,0.078c0.001,0.202 0.011,0.394 0.029,0.579c0.004,0.041 0.002,0.089 0.006,0.129c-0.681,0.697 -1.401,1.425 -1.648,1.672c-2.024,2.025 -3.25,5.141 -4.332,7.891c-0.79,2.006 -1.535,3.902 -2.388,4.712c-3.088,2.936 -8.942,3.713 -12.408,0.131c-3.399,-3.513 -3.348,-9.28 0.113,-12.856c0.94,-0.972 2.573,-1.64 4.465,-2.413c2.533,-1.036 5.403,-2.209 7.731,-4.537c0.081,-0.081 0.221,-0.217 0.397,-0.386c0.358,-0.344 0.857,-0.825 1.309,-1.284c1.042,-0.02 2.21,-0.157 3.164,-0.331c-0.773,1.63 -0.916,4.091 -0.933,4.451c0,0 0,0 0,0c0,0 0,0.002 0,0.003c-0.007,0.14 0.045,0.277 0.146,0.377c0.1,0.101 0.237,0.157 0.378,0.146c0.345,-0.017 2.674,-0.162 4.256,-0.933c-0.002,0.012 -0.004,0.026 -0.006,0.039Zm1.665,-3.605c0.762,0.741 1.095,2.184 1.086,3.286c-0.017,1.898 -0.952,3.429 -1.895,4.028c-0.034,-0.062 -0.059,-0.159 -0.081,-0.265c-0.001,-0.017 0.006,-0.034 0.003,-0.052c-0.066,-0.339 -0.071,-0.794 -0.043,-1.287c0.008,-0.135 0.015,-0.269 0.028,-0.413c0.013,-0.138 0.03,-0.278 0.048,-0.418c0.009,-0.071 0.016,-0.142 0.025,-0.214c0.057,-0.416 0.131,-0.83 0.213,-1.211c0.006,-0.026 0.011,-0.051 0.017,-0.077c0.035,-0.157 0.07,-0.305 0.107,-0.447c0.05,-0.188 0.1,-0.375 0.157,-0.545c0.081,-0.246 -0.039,-0.514 -0.276,-0.616c-0.005,-0.002 -0.01,-0.001 -0.016,-0.003c-0.057,-0.023 -0.117,-0.035 -0.175,-0.036c-0.002,0 -0.005,-0.001 -0.007,-0.001c-0.008,0 -0.014,0.005 -0.022,0.006c-0.072,0.003 -0.139,0.023 -0.203,0.055c-0.017,0.009 -0.032,0.017 -0.048,0.027c-0.068,0.044 -0.129,0.099 -0.17,0.175c-0.453,0.84 -2.589,1.312 -4.15,1.463c0.145,-1.622 0.603,-3.856 1.422,-4.328c0.224,-0.129 0.312,-0.407 0.204,-0.642c-0.027,-0.059 -0.064,-0.11 -0.109,-0.153c-0.133,-0.127 -0.332,-0.174 -0.512,-0.111c-0.836,0.295 -2.885,0.627 -4.489,0.633c-0.038,0 -0.072,0.014 -0.108,0.022c-0.71,0.008 -1.278,-0.042 -1.507,-0.169c0.695,-0.951 3.324,-1.971 5.25,-1.989c1.017,0.011 2.378,0.316 3.106,1.063c0.349,0.357 0.511,0.766 0.494,1.249c-0.004,0.139 0.048,0.273 0.146,0.371c0.099,0.099 0.23,0.156 0.371,0.146c0.452,-0.004 0.805,0.133 1.134,0.453Z" fill="#000"></path></svg>