<svg xmlns="http://www.w3.org/2000/svg" viewBox="0 0 30 30"><path d="M29 24.5H1a.47.47 0 0 1-.5-.5V6a.47.47 0 0 1 .5-.5h28a.47.47 0 0 1 .5.5v18a.47.47 0 0 1-.5.5zm-27.5-1h27v-17h-27v17zm13.2-4c-1.7 0-3.2-1.1-3.2-2.5v-4c0-1.4 1.3-2.5 3-2.5 2.5 0 3 .8 3 1.5a.47.47 0 0 1-.5.5.47.47 0 0 1-.5-.5c0-.2-.5-.5-2-.5-1.1 0-2 .6-2 1.5v4c0 .8 1 1.5 2.2 1.5 1.1 0 1.8-.4 1.8-1a.47.47 0 0 1 .5-.5.47.47 0 0 1 .5.5c0 1.2-1.1 2-2.8 2z"/><path d="M15 14.5h-4a.47.47 0 0 1-.5-.5.47.47 0 0 1 .5-.5h4a.47.47 0 0 1 .5.5.47.47 0 0 1-.5.5zm0 2h-4a.47.47 0 0 1-.5-.5.47.47 0 0 1 .5-.5h4a.47.47 0 0 1 .5.5.47.47 0 0 1-.5.5zm11-7h-2a.47.47 0 0 1-.5-.5.47.47 0 0 1 .5-.5h2a.47.47 0 0 1 .5.5.47.47 0 0 1-.5.5zm-20 12H4a.47.47 0 0 1-.5-.5.47.47 0 0 1 .5-.5h2a.47.47 0 0 1 .5.5.47.47 0 0 1-.5.5z"/></svg>