<svg xmlns="http://www.w3.org/2000/svg" viewBox="0 0 30 30"><path d="M6.553 11.224A.5.5 0 0 0 7 11.5c.075 0 .15-.017.224-.052l4-2a.5.5 0 0 0-.447-.895l-4 2a.5.5 0 0 0-.224.671zm4.17 7.36l-3 2A.5.5 0 0 0 8 21.5c.096 0 .192-.027.277-.084l3-2a.5.5 0 0 0 .139-.693.5.5 0 0 0-.693-.139zm.02-5.013l-5 3A.5.5 0 0 0 6 17.5a.49.49 0 0 0 .257-.072l5-3a.5.5 0 0 0 .172-.686c-.142-.236-.452-.31-.686-.17zM15 .5A14.52 14.52 0 0 0 .5 15 14.52 14.52 0 0 0 15 29.5 14.52 14.52 0 0 0 29.5 15 14.52 14.52 0 0 0 15 .5zm0 28A13.52 13.52 0 0 1 1.5 15 13.52 13.52 0 0 1 15 1.5 13.52 13.52 0 0 1 28.5 15 13.52 13.52 0 0 1 15 28.5zM13.96 2.553C7.533 3.084 2.5 8.553 2.5 15S7.533 26.917 13.96 27.45a.56.56 0 0 0 .041.001c.125 0 .246-.047.34-.13.102-.095.16-.228.16-.368v-23.9a.5.5 0 0 0-.161-.368.51.51 0 0 0-.38-.131zm-.46 23.84c-5.65-.74-10-5.643-10-11.394s4.35-10.653 10-11.394v22.788zm2.54-23.842c-.137-.01-.277.037-.38.13s-.16.228-.16.368v23.9a.5.5 0 0 0 .161.368c.093.085.214.132.34.132.014 0 .027-.001.04-.002 6.426-.53 11.46-6 11.46-12.448S22.467 3.084 16.04 2.552zm.46 23.84V3.606c5.65.74 10 5.642 10 11.393s-4.35 10.653-10 11.394z"/></svg>