<svg xmlns="http://www.w3.org/2000/svg" viewBox="0 0 30 30"><path d="M15.497 25.556c.43-4.232 3.958-21.775 3.993-21.952a.5.5 0 0 0-.137-.452l-3-3a.5.5 0 0 0-.707 0 .5.5 0 0 0 0 .707l2.81 2.81L15 22.038c-1.003-6.073-3.087-16.5-3.46-18.367l2.81-2.81a.5.5 0 0 0 0-.707.5.5 0 0 0-.707 0l-3 3a.5.5 0 0 0-.137.452c.035.177 3.562 17.72 4 21.896-.025 2.16-.037 3.268.014 3.844 0 .01-.001.027-.001.035s-.004.014-.005.022l.005.001a.5.5 0 0 0-.004.177c.015.08.053.15.1.21.073.16.18.185.34.2.017.001.032.002.048.002s.035-.001.05-.004c.162-.016.267-.04.34-.196a.49.49 0 0 0 .102-.213c.01-.062.007-.122-.004-.18h.005c-.001-.007-.003-.015-.005-.022s-.001-.022-.001-.032c.05-.57.037-1.664.01-3.8z"/></svg>