<?xml version="1.0" encoding="UTF-8"?>
<svg viewBox="0 0 30 30" version="1.1" xmlns="http://www.w3.org/2000/svg" xmlns:xlink="http://www.w3.org/1999/xlink">
    <g id="Page-1" stroke="none" stroke-width="1" fill="none" fill-rule="evenodd">
        <g id="Outlines_black-Copy" transform="translate(-150.000000, -114.000000)">
            <g id="Group-3" transform="translate(3.000000, 114.000000)" fill="#000000" fill-rule="nonzero">
                <path d="M160.540976,25.8292683 L160.540976,18.0556098 C160.540976,17.7323211 160.803053,17.4702439 161.126341,17.4702439 L168.127317,17.4702439 L168.127317,13.5834146 L161.126341,13.5834146 C160.803053,13.5834146 160.540976,13.3213374 160.540976,12.9980488 L160.540976,8.64292683 C160.540976,8.3196382 160.803053,8.05756098 161.126341,8.05756098 L169.391707,8.05756098 L169.391707,4.17073171 L155.670732,4.17073171 L155.670732,25.8292683 L160.540976,25.8292683 Z M161.711707,26.4146341 C161.711707,26.7379228 161.44963,27 161.126341,27 L155.085366,27 C154.762077,27 154.5,26.7379228 154.5,26.4146341 L154.5,3.58536585 C154.5,3.26207722 154.762077,3 155.085366,3 L169.977073,3 C170.300362,3 170.562439,3.26207722 170.562439,3.58536585 L170.562439,8.64292683 C170.562439,8.96621546 170.300362,9.22829268 169.977073,9.22829268 L161.711707,9.22829268 L161.711707,12.4126829 L168.712683,12.4126829 C169.035972,12.4126829 169.298049,12.6747601 169.298049,12.9980488 L169.298049,18.0556098 C169.298049,18.3788984 169.035972,18.6409756 168.712683,18.6409756 L161.711707,18.6409756 L161.711707,26.4146341 Z" id="F-Copy-2"></path>
            </g>
            <g id="Slices" transform="translate(0.000000, 114.000000)"></g>
        </g>
    </g>
</svg>