<?xml version="1.0" encoding="UTF-8"?><svg version="1.1" viewBox="0 0 30 30" xmlns="http://www.w3.org/2000/svg" xmlns:xlink="http://www.w3.org/1999/xlink"><path d="M21.498,10.469c-0.016,-1.204 -0.932,-2.236 -2.093,-2.434c-0.397,-1.446 -1.343,-2.142 -1.986,-2.615c-0.261,-0.191 -0.585,-0.43 -0.585,-0.544c0,-0.404 0.109,-0.616 0.258,-0.909c0.166,-0.324 0.371,-0.726 0.404,-1.395c0.059,-1.194 -0.703,-2.22 -1.853,-2.495c-0.798,-0.191 -1.617,-0.021 -2.239,0.47c-0.574,0.453 -0.903,1.119 -0.903,1.828c0,0.764 0.223,1.209 0.403,1.566c0.154,0.305 0.264,0.524 0.264,0.934c0,0.12 -0.309,0.351 -0.58,0.555c-0.63,0.472 -1.559,1.167 -1.983,2.603c-1.164,0.194 -2.084,1.228 -2.101,2.435c-0.898,0.55 -1.504,1.532 -1.504,2.66v13.743c0,1.725 1.403,3.128 3.129,3.128h9.742c1.726,0 3.129,-1.403 3.129,-3.128v-13.743c-3.55271e-15,-1.127 -0.605,-2.108 -1.502,-2.659Zm-8.312,-4.239c0.504,-0.378 0.981,-0.735 0.981,-1.355c0,-0.648 -0.196,-1.038 -0.37,-1.383c-0.159,-0.317 -0.297,-0.59 -0.297,-1.117c0,-0.401 0.19,-0.781 0.522,-1.043c0.381,-0.301 0.887,-0.402 1.388,-0.283c0.675,0.161 1.121,0.767 1.087,1.472c-0.024,0.454 -0.15,0.702 -0.296,0.989c-0.173,0.337 -0.368,0.719 -0.368,1.364c0,0.62 0.482,0.975 0.992,1.35c0.532,0.391 1.167,0.868 1.512,1.775h-6.657c0.362,-0.902 0.985,-1.378 1.506,-1.769Zm-2.185,2.77c0.002,0 0.004,-0.001 0.006,-0.001h7.993c0.645,0 1.22,0.46 1.42,1.056c-0.179,-0.031 -0.361,-0.055 -0.549,-0.055h-9.742c-0.187,0 -0.369,0.024 -0.547,0.055c0.2,-0.596 0.774,-1.055 1.419,-1.055Zm10.999,17.87c0,1.173 -0.955,2.128 -2.129,2.128h-9.742c-1.174,0 -2.129,-0.954 -2.129,-2.128v-1.871h3.5c0.276,0 0.5,-0.224 0.5,-0.5c0,-0.276 -0.224,-0.5 -0.5,-0.5h-3.5v-2h2.5c0.276,0 0.5,-0.224 0.5,-0.5c0,-0.276 -0.224,-0.5 -0.5,-0.5h-2.5v-2h3.5c0.276,0 0.5,-0.224 0.5,-0.5c0,-0.276 -0.224,-0.5 -0.5,-0.5h-3.5v-2h2.5c0.276,0 0.5,-0.224 0.5,-0.5c0,-0.276 -0.224,-0.5 -0.5,-0.5h-2.5v-1.872c0,-1.173 0.955,-2.128 2.129,-2.128h9.742c1.174,0 2.129,0.954 2.129,2.128v13.743Z" fill="#000"></path></svg>