<?xml version="1.0" encoding="utf-8"?>
<!-- Generator: Adobe Illustrator 23.0.1, SVG Export Plug-In . SVG Version: 6.00 Build 0)  -->
<svg version="1.1" id="Layer_1" xmlns="http://www.w3.org/2000/svg" xmlns:xlink="http://www.w3.org/1999/xlink" x="0px" y="0px"
	 viewBox="0 0 30 30" style="enable-background:new 0 0 30 30;" xml:space="preserve">
<style type="text/css">
	.st0{stroke:#000000;stroke-linecap:round;stroke-miterlimit:10;}
</style>
<g>
	<path d="M16.1,28.7c-0.6,0-1.2-0.1-1.7-0.4c-0.9-0.4-1.5-1.1-1.8-2.1c-0.2-0.7-0.3-1.6-0.4-2.4c-0.1-0.8-0.1-1.6-0.4-2.2
		c-0.1-0.2-0.4-0.6-0.6-1c-1.2-1.8-3.3-4.9-2.6-8c0.4-1.8,1.9-3.5,4-4.4c1.9-0.8,3.8-0.9,5-0.2l0,0c1.3,0.8,1,2.7,0.6,4
		c-1,3.5,0,6,1.3,8.9c0.9,2.1,1.1,4.1,0.5,5.6c-0.4,0.9-1.1,1.6-1.9,1.9C17.4,28.6,16.8,28.7,16.1,28.7z M15.6,8.6
		c-0.8,0-1.7,0.2-2.6,0.6c-1.8,0.8-3.1,2.2-3.4,3.7c-0.5,2.7,1.4,5.5,2.5,7.2c0.3,0.5,0.6,0.9,0.7,1.2c0.3,0.7,0.4,1.7,0.5,2.6
		c0,0.7,0.1,1.5,0.3,2.1c0.2,0.7,0.7,1.2,1.3,1.5c0.8,0.4,1.8,0.4,2.8,0c0.6-0.2,1.1-0.7,1.4-1.3c0.5-1.2,0.3-3-0.4-4.8
		c-1.3-2.9-2.5-5.7-1.3-9.5c0.7-2.3,0.1-2.7-0.2-2.8l0,0C16.8,8.7,16.2,8.6,15.6,8.6z"/>
	<path d="M16.6,7c-0.1,0-0.1,0-0.2,0C16,7,15,6.7,14.6,5c-0.4-1.7,0-2.6,0.4-3.1c0.4-0.4,0.9-0.7,1.5-0.6l0,0
		c0.7,0.1,1.2,0.4,1.6,0.9c0.7,1,0.5,2.4,0.2,3.3C18,6.3,17.3,6.9,16.6,7z M16.3,2.3c-0.2,0-0.4,0.1-0.5,0.3
		c-0.2,0.2-0.5,0.9-0.2,2.2C15.7,5.5,16,6,16.4,6c0.3,0,0.7-0.3,0.9-0.8c0.3-0.9,0.2-1.9-0.1-2.4C17,2.5,16.7,2.3,16.3,2.3
		C16.3,2.3,16.3,2.3,16.3,2.3z"/>
	<path d="M13.3,7.3c-0.3,0-1.1-0.1-1.6-1.3c-0.5-1.2-0.3-1.9,0-2.3c0.2-0.4,0.6-0.6,1-0.6l0,0c0,0,0,0,0,0c0.5,0,0.9,0.1,1.2,0.5
		c0.6,0.6,0.7,1.7,0.6,2.4C14.5,6.7,14,7.3,13.3,7.3C13.3,7.3,13.3,7.3,13.3,7.3z M12.8,4.1c0,0-0.2,0-0.2,0.2
		c-0.1,0.1-0.2,0.5,0.1,1.4c0.2,0.5,0.5,0.7,0.6,0.7c0.1,0,0.3-0.2,0.3-0.5c0.1-0.6,0-1.3-0.3-1.6C13.1,4.1,13,4.1,12.8,4.1
		C12.8,4.1,12.8,4.1,12.8,4.1L12.8,4.1z"/>
	<path d="M11,8.4c-0.3,0-0.8-0.1-1.2-0.6C9.1,7,9.1,6.4,9.2,6.1c0.1-0.4,0.3-0.7,0.7-0.9C10.2,5,10.6,5,11,5.2
		c0.6,0.3,1,1.1,1.1,1.6c0.1,0.6-0.1,1.2-0.6,1.4C11.4,8.3,11.2,8.4,11,8.4z M10.4,6.1c0,0-0.1,0-0.1,0l0,0c0,0-0.1,0-0.1,0.1
		c0,0.2,0.1,0.5,0.4,0.8c0.2,0.3,0.4,0.3,0.5,0.3c0,0,0.1-0.2,0.1-0.4c-0.1-0.4-0.3-0.8-0.5-0.9C10.5,6.1,10.4,6.1,10.4,6.1z"/>
	<path d="M9.2,9.6c-0.3,0-0.6-0.1-1-0.4C7.5,8.7,7.4,8.2,7.4,7.8c0-0.3,0.2-0.6,0.4-0.8c0.3-0.2,0.6-0.2,1-0.1
		c0.6,0.2,1,0.8,1.2,1.2c0.2,0.5,0.1,1-0.3,1.3C9.6,9.5,9.5,9.6,9.2,9.6z M8.4,7.9c0,0.1,0,0.3,0.4,0.6C8.9,8.5,9,8.6,9.1,8.6
		c0,0,0-0.1,0-0.1C8.9,8.2,8.6,7.9,8.4,7.9C8.4,7.9,8.4,7.9,8.4,7.9z M8.4,7.9L8.4,7.9L8.4,7.9z"/>
	<path d="M7.7,11.3c-0.3,0-0.5-0.1-0.8-0.2c-0.5-0.4-0.6-0.8-0.6-1.1c0-0.3,0.2-0.7,0.4-0.9l0,0c0.3-0.2,0.7-0.3,1-0.2
		c0.4,0.1,0.7,0.5,0.9,1c0.1,0.4,0,0.9-0.4,1.2C8.1,11.3,7.9,11.3,7.7,11.3z M7.3,10C7.3,10,7.3,10,7.3,10c0,0.1,0,0.2,0.2,0.3
		c0.1,0.1,0.1,0.1,0.1,0.1c0,0,0-0.1,0-0.1c0-0.2-0.2-0.3-0.2-0.3C7.4,9.9,7.4,9.9,7.3,10L7.3,10z"/>
</g>
<path class="st0" d="M15.3,14.4c0,0-0.6,2.9,1.3,6"/>
</svg>
