<?xml version="1.0" encoding="UTF-8"?><svg version="1.1" viewBox="0 0 30 30" xmlns="http://www.w3.org/2000/svg" xmlns:xlink="http://www.w3.org/1999/xlink"><path d="M23.089,15.342c-0.057,-0.173 -0.205,-0.301 -0.385,-0.334c-0.181,-0.034 -0.363,0.036 -0.478,0.178c-0.171,0.212 -0.381,0.413 -0.608,0.611c0.055,-1.838 0.482,-4.303 0.933,-6.899c0.19,-1.091 0.384,-2.209 0.558,-3.32c0.027,-0.173 -0.039,-0.347 -0.173,-0.46c-0.134,-0.112 -0.316,-0.147 -0.483,-0.09c-0.013,0.004 -1.344,0.449 -2.678,-0.001c-0.165,-0.054 -0.35,-0.02 -0.484,0.094c-0.133,0.114 -0.197,0.291 -0.167,0.464c0.231,1.347 0.7,7.172 0.9,9.73c-0.316,-0.483 -0.659,-1.03 -1.014,-1.594c-0.799,-1.272 -1.433,-2.258 -1.963,-2.998c0.039,-0.078 0.072,-0.161 0.066,-0.252l-0.073,-1.123c-0.174,-2.602 -0.39,-5.839 0.068,-8.77c0.027,-0.173 -0.039,-0.347 -0.173,-0.46c-0.134,-0.112 -0.318,-0.148 -0.483,-0.09c-0.013,0.004 -1.343,0.448 -2.678,-0.001c-0.165,-0.054 -0.35,-0.02 -0.484,0.094c-0.133,0.114 -0.197,0.291 -0.167,0.464c0.211,1.229 0.246,6.587 0.005,9.723c-0.684,0.814 -1.482,2.008 -2.481,3.504c0.068,-3.198 0.235,-9.925 0.459,-11.229c0.03,-0.173 -0.033,-0.349 -0.167,-0.464c-0.133,-0.114 -0.318,-0.149 -0.484,-0.094c-1.334,0.451 -2.664,0.006 -2.678,0.001c-0.165,-0.057 -0.349,-0.023 -0.483,0.09c-0.134,0.113 -0.2,0.287 -0.173,0.46l0.12,0.766c0.565,3.597 1.249,7.963 1.362,10.626c-0.204,-0.237 -0.397,-0.481 -0.569,-0.742c-0.107,-0.162 -0.301,-0.248 -0.493,-0.219c-0.193,0.029 -0.351,0.168 -0.405,0.356c-1.68,5.865 -1.662,9.691 0.058,12.405c0.002,0.003 0.006,0.005 0.009,0.008c0.002,0.003 0.001,0.007 0.003,0.01c1.606,2.305 3.236,4.214 6.91,4.214c2.61,0 6.387,-1.01 8.437,-3.858c1.878,-2.607 2.058,-6.241 0.536,-10.8Zm-1.084,-9.188c-0.141,0.863 -0.291,1.726 -0.438,2.573c-0.269,1.551 -0.531,3.058 -0.712,4.426c-0.193,-2.374 -0.453,-5.417 -0.643,-6.993c0.691,0.111 1.326,0.067 1.793,-0.006Zm-5.983,-5.003c-0.337,2.804 -0.145,5.763 0.018,8.191c-0.342,-0.207 -0.676,-0.333 -0.905,-0.341c-0.081,-0.011 -0.173,0.007 -0.268,0.036c-0.222,0.034 -0.444,0.109 -0.673,0.258c0.137,-2.665 0.136,-6.339 -0.003,-8.139c0.708,0.117 1.359,0.071 1.831,-0.005Zm-4.806,13.608c1.093,-1.633 2.204,-3.286 3.002,-4.148c0.298,-0.254 0.746,-0.558 0.858,-0.606c0.547,0.205 2.134,2.731 3.086,4.247c0.662,1.052 1.284,2.035 1.778,2.692c-0.998,0.562 -2.165,1.09 -3.369,1.633c-0.283,0.128 -0.572,0.26 -0.86,0.391c-0.813,-0.53 -1.603,-1.013 -2.351,-1.468c-1.032,-0.628 -1.962,-1.198 -2.784,-1.787l0.64,-0.954Zm-2.987,-11.571l-0.005,-0.035c0.471,0.075 1.115,0.12 1.814,0.004c-0.226,2.65 -0.375,9.829 -0.413,11.825c-0.003,-0.003 -0.007,-0.005 -0.01,-0.008c0.064,-2.542 -0.739,-7.664 -1.386,-11.786Zm-0.397,21.154c-0.055,0.072 -0.116,0.136 -0.17,0.209c-1.086,-2.264 -1.031,-5.4 0.167,-9.943c1.258,1.463 3.02,2.534 5.012,3.744c0.564,0.343 1.15,0.7 1.753,1.082c-2.535,1.231 -4.68,2.463 -6.366,4.419c-0.138,0.159 -0.267,0.323 -0.396,0.489Zm13.911,1.215c-1.831,2.542 -5.252,3.443 -7.627,3.443c-2.803,0 -4.226,-1.178 -5.886,-3.498c0.114,-0.166 0.23,-0.328 0.349,-0.484c0.087,-0.114 0.172,-0.231 0.264,-0.342c0.147,-0.176 0.302,-0.34 0.457,-0.505c0.187,-0.194 0.373,-0.389 0.575,-0.571c0.047,-0.044 0.095,-0.086 0.143,-0.129c1.977,-1.726 4.584,-2.908 6.965,-3.983c2.106,-0.95 4.112,-1.856 5.41,-3.032c1.14,3.859 0.922,6.918 -0.65,9.101Z" fill="#000"></path></svg>