<svg xmlns:xlink="http://www.w3.org/1999/xlink" viewBox="0 0 30 30"
    xmlns="http://www.w3.org/2000/svg">
    <defs>
        <path d="M12.8 22.5c-.1 0-.2 0-.3-.1l-.9-.8c-.2-.2-.2-.5 0-.7s.5-.2.7 0l.9.8c.2.2.2.5 0 .7-.1 0-.2.1-.4.1z"
            id="B" />
    </defs>
    <use xlink:href="#B" />
    <use x="1.6" y="-1.8" xlink:href="#B" />
    <use x="3.2" y="-3.6" xlink:href="#B" />
    <use x="4.8" y="-5.4" xlink:href="#B" />
    <use x="6.4" y="-7.2" xlink:href="#B" />
    <use x="8" y="-9" xlink:href="#B" />
    <use x="9.6" y="-10.8" xlink:href="#B" />
    <path
        d="M3.2 29.8c-.4 0-.8-.1-1.1-.4-.7-.6-.7-1.6-.1-2.3l4.4-5c.4-.6.5-1.4.6-2.3.1-1 .3-2 .8-2.7L21.5 1.5C22.2.7 23.1.2 24.2.2c1-.1 2 .3 2.8 1 1.6 1.4 1.8 3.9.4 5.5L13.8 22.3c-.6.7-1.6.9-2.6 1.1-.9.2-1.8.4-2.4.9l-4.4 5c-.3.3-.7.5-1.2.5zM22.3 2.2L8.6 17.8c-.4.4-.5 1.3-.6 2.1-.1 1-.3 1.9-.8 2.8l-4.5 5.1c-.2.3-.2.6.1.9.3.2.6.2.9-.1l4.4-5c.8-.8 1.9-1 2.9-1.2.8-.2 1.6-.3 2-.8L26.7 6c1.1-1.2.9-3-.3-4.1-.6-.5-1.3-.8-2.1-.7s-1.5.4-2 1zM7.8 23.5c-.1 0-.2 0-.3-.1-.2-.2-.2-.5 0-.7L23.2 4.8c.2-.2.5-.2.7 0s.2.5 0 .7L8.2 23.3c-.1.1-.2.2-.4.2z" />
    <path
        d="M24 9.9c-.1 0-.2 0-.3-.1l-.9-.8c-.2-.2-.2-.5 0-.7s.5-.2.7 0l.9.7c.2.2.2.5 0 .7-.1.1-.2.2-.4.2zM8.5 24.4c-.1 0-.2 0-.3-.1l-1.7-1.5c-.2-.2-.2-.5 0-.7s.5-.2.7 0l1.7 1.5c.1.1.1.4 0 .6a.76.76 0 0 1-.4.2z" />
</svg>