<?xml version="1.0" encoding="UTF-8"?><svg version="1.1" viewBox="0 0 30 30" xmlns="http://www.w3.org/2000/svg" xmlns:xlink="http://www.w3.org/1999/xlink"><path d="M14.003,21c-0.276,0 -0.5,0.224 -0.5,0.5c0,0.276 0.224,0.5 0.5,0.5c0.276,0 0.5,-0.224 0.5,-0.5c0,-0.276 -0.223,-0.5 -0.5,-0.5Zm-2,-3c-0.276,0 -0.5,0.224 -0.5,0.5c0,0.276 0.224,0.5 0.5,0.5c0.276,0 0.5,-0.224 0.5,-0.5c0,-0.276 -0.223,-0.5 -0.5,-0.5Zm1,-4c-0.276,0 -0.5,0.224 -0.5,0.5c0,0.276 0.224,0.5 0.5,0.5c0.276,0 0.5,-0.224 0.5,-0.5c0,-0.276 -0.223,-0.5 -0.5,-0.5Zm3,0c0.276,0 0.5,-0.224 0.5,-0.5c0,-0.276 -0.224,-0.5 -0.5,-0.5c-0.276,0 -0.5,0.224 -0.5,0.5c0,0.276 0.224,0.5 0.5,0.5Zm-2,2c-0.276,0 -0.5,0.224 -0.5,0.5c0,0.276 0.224,0.5 0.5,0.5c0.276,0 0.5,-0.224 0.5,-0.5c0,-0.276 -0.223,-0.5 -0.5,-0.5Zm-2,6c-0.276,0 -0.5,0.224 -0.5,0.5c0,0.276 0.224,0.5 0.5,0.5c0.276,0 0.5,-0.224 0.5,-0.5c0,-0.276 -0.223,-0.5 -0.5,-0.5Zm-2,-2c-0.276,0 -0.5,0.224 -0.5,0.5c0,0.276 0.224,0.5 0.5,0.5c0.276,0 0.5,-0.224 0.5,-0.5c0,-0.276 -0.223,-0.5 -0.5,-0.5Zm1,-4c-0.276,0 -0.5,0.224 -0.5,0.5c0,0.276 0.224,0.5 0.5,0.5c0.276,0 0.5,-0.224 0.5,-0.5c0,-0.276 -0.223,-0.5 -0.5,-0.5Zm6,1c-0.276,0 -0.5,0.224 -0.5,0.5c0,0.276 0.224,0.5 0.5,0.5c0.276,0 0.5,-0.224 0.5,-0.5c0,-0.276 -0.223,-0.5 -0.5,-0.5Zm-1,2c-0.276,0 -0.5,0.224 -0.5,0.5c0,0.276 0.224,0.5 0.5,0.5c0.276,0 0.5,-0.224 0.5,-0.5c0,-0.276 -0.223,-0.5 -0.5,-0.5Zm0.132,-8.823c-0.532,-0.433 -0.917,-0.749 -1.229,-1.042c-0.198,-0.186 -0.51,-0.18 -0.7,0.015c-0.331,0.339 -0.685,0.692 -1.055,1.063c-2.583,2.583 -6.881,7.36 -6.645,10.327c0.247,3.093 0.991,5.46 7.997,5.46c4.061,0 6.66,-0.629 7.949,-1.925c1.066,-1.072 1.058,-2.397 1.053,-3.365l-0.001,-0.21c0.001,-3.744 -4.616,-8.074 -7.369,-10.323Zm5.607,13.194c-1.075,1.082 -3.51,1.63 -7.239,1.63c-6.64,0 -6.808,-2.104 -7.002,-4.54c-0.147,-1.848 2.228,-5.415 6.355,-9.541c0.251,-0.25 0.494,-0.493 0.727,-0.729c0.255,0.22 0.554,0.464 0.918,0.761c2.615,2.136 7.002,6.217 7.002,9.548l0.001,0.216c0.006,0.924 0.011,1.878 -0.762,2.655Zm-2.739,-4.371c-0.276,0 -0.5,0.224 -0.5,0.5c0,0.276 0.224,0.5 0.5,0.5c0.276,0 0.5,-0.224 0.5,-0.5c0,-0.276 -0.223,-0.5 -0.5,-0.5Zm1,2c-0.276,0 -0.5,0.224 -0.5,0.5c0,0.276 0.224,0.5 0.5,0.5c0.276,0 0.5,-0.224 0.5,-0.5c0,-0.276 -0.223,-0.5 -0.5,-0.5Zm-1.966,-6c-0.276,0 -0.5,0.224 -0.5,0.5c0,0.276 0.224,0.5 0.5,0.5c0.276,0 0.5,-0.224 0.5,-0.5c0,-0.276 -0.223,-0.5 -0.5,-0.5Zm-1.034,7c-0.276,0 -0.5,0.224 -0.5,0.5c0,0.276 0.224,0.5 0.5,0.5c0.276,0 0.5,-0.224 0.5,-0.5c0,-0.276 -0.223,-0.5 -0.5,-0.5Zm1.437,-14.886c-0.515,-0.437 -0.92,-0.781 -1.063,-0.944c-0.193,-0.221 -0.288,-0.364 -0.28,-0.425c0.046,-0.365 1.547,-1.394 2.188,-1.833c0.196,-0.134 0.27,-0.388 0.177,-0.607c-0.602,-1.423 -2.022,-3.064 -2.082,-3.133c-0.096,-0.109 -0.232,-0.172 -0.377,-0.172c-2.303,0 -3.031,1.957 -3.618,3.529c-0.244,0.655 -0.474,1.273 -0.777,1.665c-0.495,0.64 -1.342,1.489 -2.322,2.471c-3.178,3.185 -7.981,7.998 -7.782,12.856c0.259,6.29 4.296,9.479 12,9.479c5.581,0 13,-0.967 12.999,-9.327c0,-5.854 -6.352,-11.253 -9.063,-13.559Zm-3.937,21.886c-7.167,0 -10.766,-2.788 -11,-8.521c-0.182,-4.42 4.434,-9.046 7.489,-12.108c1.005,-1.006 1.872,-1.876 2.406,-2.565c0.397,-0.511 0.653,-1.199 0.924,-1.927c0.614,-1.649 1.129,-2.759 2.455,-2.87c0.33,0.399 1.117,1.391 1.593,2.32c-1.522,1.059 -2.182,1.642 -2.264,2.292c-0.062,0.496 0.237,0.884 0.521,1.209c0.19,0.217 0.579,0.547 1.166,1.047c2.606,2.216 8.71,7.405 8.71,12.797c-3.55271e-15,5.758 -3.701,8.326 -12,8.326Z" fill="#000"></path></svg>