<svg xmlns="http://www.w3.org/2000/svg" viewBox="0 0 30 30"><path d="M16 21a.47.47 0 0 1-.5-.5v-11A.47.47 0 0 1 16 9a.47.47 0 0 1 .5.5v11a.47.47 0 0 1-.5.5zm-5-4c-1 0-2.2-.5-2.9-1.2-.6-.6-.7-1.5-.8-2.5s-.2-1.9-.7-2.5c-.1-.1-.2-.4-.1-.5A.55.55 0 0 1 7 10c2.6 0 4.2.5 5.4 1.6 1.2 1.2 1.7 3.5.5 4.7-.5.5-1.2.7-1.9.7zm-3.1-6c.3.7.4 1.5.4 2.3.1.8.1 1.5.5 1.9.9.9 2.5 1.3 3.3.5s.4-2.4-.5-3.3c-.8-.9-1.9-1.3-3.7-1.4z"/><path d="M16 21a.47.47 0 0 1-.5-.5c0-1.7-1.5-2.7-2.5-3.5-.3-.2-.6-.5-.8-.7s-.2-.5 0-.7.5-.2.7 0c.1.1.4.3.7.6 1.2.8 2.9 2.1 2.9 4.3a.47.47 0 0 1-.5.5z"/><path d="M20 30h-9a.55.55 0 0 1-.5-.3l-3-9c-.1-.2 0-.3.1-.5.1-.1.2-.2.4-.2h15c.2 0 .3.1.4.2s.1.3.1.5l-3 9a.55.55 0 0 1-.5.3zm-8.6-1h8.3l2.7-8H8.7l2.7 8zM16 6c-.1 0-.3-.1-.3-.2-.1-.1-.2-.2-.2-.3s.1-.3.1-.3c.2-.2.5-.2.7 0 .1.1.2.2.2.4s-.1.3-.1.3c-.1 0-.3.1-.4.1zm2 4c-.9 0-1.6-.2-2-.7-.4.4-1.1.7-2 .7-1.4 0-2.5-1.1-2.5-2.5 0-.3.1-.6.2-.9-.7-.5-1.2-1.2-1.2-2.1C10.5 3.1 11.6 2 13 2c.2 0 .4 0 .5.1A2.57 2.57 0 0 1 16 0a2.57 2.57 0 0 1 2.5 2.1c.1-.1.3-.1.5-.1 1.4 0 2.5 1.1 2.5 2.5 0 .9-.5 1.7-1.2 2.1.1.3.2.6.2.9 0 1.4-1.1 2.5-2.5 2.5zm-1.5-2.1c0 .3 0 1.1 1.5 1.1a1.54 1.54 0 0 0 1.5-1.5c0-.3-.1-.6-.3-.8-.1-.1-.1-.3-.1-.4s.2-.3.3-.3c.6-.2 1-.8 1-1.4.1-.9-.6-1.6-1.4-1.6-.3 0-.5.1-.8.2-.2.1-.4.1-.5 0-.2-.1-.2-.3-.2-.5v-.2A1.54 1.54 0 0 0 16 1a1.54 1.54 0 0 0-1.5 1.5v.2c0 .2-.1.4-.2.5-.2.1-.4.1-.5 0-.3-.1-.5-.2-.8-.2a1.54 1.54 0 0 0-1.5 1.5c0 .6.4 1.2 1 1.4.1.1.3.2.3.3s0 .3-.1.4c-.2.2-.3.5-.3.8.1.9.8 1.6 1.6 1.6 1.5 0 1.5-.8 1.5-1a.47.47 0 0 1 .5-.5c.3 0 .5.2.5.4zM15 15.5a.47.47 0 0 1-.5-.5.47.47 0 0 1 .5-.5.47.47 0 0 1 .5.5.47.47 0 0 1-.5.5z"/></svg>