<svg xmlns="http://www.w3.org/2000/svg" viewBox="0 0 30 30"><path d="M15 26.6C6 26.6.3 21.9.3 14.6.3 11.4 1.2 8.8 3 7c2.3-2.3 6.1-3.5 11.6-3.5 10.3 0 15.2 3.7 15.2 11.7-.1 10.2-8.5 11.4-14.8 11.4zm-.5-22.1c-5.2 0-8.7 1-10.8 3.2-1.6 1.6-2.4 3.9-2.4 6.9 0 6.8 5.3 11 13.7 11 9.5 0 13.7-3.2 13.7-10.5S24.4 4.5 14.5 4.5z"/><path d="M5.4 22.1c-1.9 0-3.5-1.2-4.5-3.4-.1-.3 0-.5.3-.7.3-.1.5 0 .7.3.9 2 2.3 3 4 2.8 2-.2 3.8-2.1 4.2-4.4s-.8-7-3.6-7.5c-.5-.1-1 0-1.3.3-.9.7-1.5 2.2-1.6 4.1s.9 2.7 1.3 2.9c.6.3 1.3.3 1.8-.1.6-.4.7-1.2.5-2.3-.1-.3.1-.5.4-.6s.5.1.6.4c.3 1.4 0 2.6-.9 3.3-.8.6-1.9.7-2.9.1-1.2-.7-1.9-2.1-1.8-3.8.1-2.2.9-4 2-4.8.6-.5 1.3-.7 2.1-.5 3.5.7 4.9 6.1 4.4 8.7-.5 2.7-2.6 4.9-5.1 5.2h-.6zm6.8 3.9h-.1c-.3-.1-.4-.3-.4-.6 3.2-12.6-.5-20.9-.6-21-.1-.3.8-.8.9-.5.2.4 4 8.8.6 21.7 0 .2-.2.4-.4.4zm2.9.1a.47.47 0 0 1-.5-.5V4c0-.3 1-.3 1 0v21.6a.47.47 0 0 1-.5.5zm-8-1.3c-.2 0-.4-.2-.5-.4 0-.3.1-.5.4-.6.2 0 4.6-1 4.6-9.3 0-6.4-4.5-8.9-4.7-9s.2-1 .5-.9c.2.1 5.2 2.8 5.2 9.9 0 9.2-5.2 10.3-5.5 10.3zm18-2.1h-.4c-2.4-.3-4.6-2.8-5.2-5.6-.3-1.8.1-5.6 1.8-7.5.8-.9 1.7-1.3 2.7-1.2 2.1.1 3.4 1.9 3.9 5.3.5 3-.9 4.1-1.5 4.4-1 .6-2.4.4-3.4-.4-1-.9-1.3-2.2-.7-3.6.1-.3.4-.4.6-.3.3.1.4.4.3.6-.4 1-.2 1.9.5 2.5.6.6 1.5.7 2.2.3.9-.5 1.2-1.7 1-3.4-.5-2.9-1.5-4.4-3-4.4-.7 0-1.4.3-1.9.9-1.4 1.6-1.9 5-1.5 6.7.5 2.5 2.4 4.6 4.3 4.8 1.4.2 2.6-.7 3.5-2.6.1-.3.4-.4.7-.3s-.6 2.2-1.1 2.7c-1.1.9-2.1 1.1-2.8 1.1zM18.8 26a.55.55 0 0 1-.5-.3c-4.9-13.1-.2-21.3 0-21.7.1-.2 1 .3.9.5 0 .1-4.7 8.1 0 20.8.1.3 0 .5-.3.6 0 .1 0 .1-.1.1zm4.5-1.1c-.1 0-.1 0 0 0-.3 0-5.5-1.1-5.5-10.3 0-6.9 4.2-8.8 5.8-9.3.3-.1 1 .8.7.9-.2 0-5.5.9-5.5 8.5 0 8.4 4.5 9.3 4.6 9.3.5.2.9.2.9.5-.1.2-.8.4-1 .4z"/></svg>