<svg xmlns="http://www.w3.org/2000/svg" viewBox="0 0 30 30"><path d="M26.5 29.5h-23a.68.68 0 0 1-.7-.7V2a.68.68 0 0 1 .7-.7h22.9a.68.68 0 0 1 .7.7v26.7a.65.65 0 0 1-.6.8zm-22.7-1h22.3V2.3H3.8v26.2z"/><path d="M7.7 3.1H6.5c-.7 0-1.2-.5-1.2-1.2v-.2C5.3 1 5.8.5 6.5.5h1.2c.7 0 1.2.5 1.2 1.2v.2c0 .7-.6 1.2-1.2 1.2zm-4.3.7h23.2v1H3.4zM15 24.1a.47.47 0 0 1-.5-.5V13.4a.47.47 0 0 1 .5-.5.47.47 0 0 1 .5.5v10.2a.47.47 0 0 1-.5.5z"/><path d="M10.6 21.6c-.2 0-.3-.1-.4-.2-.1-.2-.1-.5.2-.7l8.9-5.1c.2-.1.5-.1.7.2.1.2.1.5-.2.7l-8.9 5.1c-.2-.1-.2 0-.3 0z"/><path d="M19.3 21.7c-.1 0-.2 0-.3-.1l-8.7-5.4c-.2-.1-.3-.5-.2-.7s.5-.3.7-.2l8.7 5.4c.2.1.3.5.2.7 0 .2-.2.3-.4.3z"/></svg>