<?xml version="1.0" encoding="UTF-8"?><svg version="1.1" viewBox="0 0 30 30" xmlns="http://www.w3.org/2000/svg" xmlns:xlink="http://www.w3.org/1999/xlink"><g fill="#000"><path d="M23,13c0,0 -0.1,0 0,0c-0.4,-0.1 -0.5,-0.3 -0.5,-0.6l0.7,-3.4l-1.5,-0.4l-0.2,3.9c0,0.3 -0.2,0.5 -0.5,0.5c-0.3,0 -0.5,-0.3 -0.5,-0.5l0.3,-4.5c0,-0.1 0.1,-0.3 0.2,-0.4c0.1,-0.1 0.3,-0.1 0.4,-0.1l2.5,0.6c0.3,0.1 0.4,0.3 0.4,0.6l-0.8,3.9c-0.1,0.2 -0.3,0.4 -0.5,0.4Z"></path><path d="M15.5,18.5c0,0 0,0 0,0c-0.3,0 -0.5,-0.2 -0.5,-0.5l0.5,-12.5c0,-0.3 0.2,-0.5 0.5,-0.5h3c0.1,0 0.3,0.1 0.4,0.2c0.1,0.1 0.1,0.2 0.1,0.4l-1,12c0,0.3 -0.3,0.5 -0.5,0.5c-0.3,0 -0.5,-0.3 -0.5,-0.5l1,-11.5h-2l-0.5,11.9c0,0.3 -0.2,0.5 -0.5,0.5Z"></path><path d="M3,13c-0.2,0 -0.5,-0.2 -0.5,-0.4l-1,-7c0,-0.2 0.1,-0.5 0.3,-0.5l3,-1c0.1,0 0.3,0 0.4,0c0.1,0.1 0.2,0.2 0.2,0.4l0.6,4.1c0,0.3 -0.1,0.5 -0.4,0.6c-0.2,0 -0.4,-0.2 -0.5,-0.5l-0.5,-3.5l-2,0.7l0.9,6.6c4.44089e-16,0.2 -0.2,0.5 -0.5,0.5c0,0 0,0 0,0Z"></path><path d="M6,13c-0.3,0 -0.5,-0.2 -0.5,-0.4l-0.5,-4.5c0,-0.2 0.1,-0.5 0.4,-0.5l1.9,-0.5l-0.3,-4.1l-1.5,0.4v1.5c0,0.3 -0.2,0.5 -0.5,0.5c-0.3,0 -0.5,-0.2 -0.5,-0.5v-1.9c0,-0.2 0.2,-0.4 0.4,-0.5l2.5,-0.6c0.1,0 0.3,0 0.4,0.1c0.1,0.1 0.2,0.2 0.2,0.3l0.5,10.1c0,0.3 -0.2,0.6 -0.5,0.6c-0.3,0 -0.5,-0.2 -0.5,-0.4l-0.4,-4.5l-1.1,0.3l0.5,4.1c0,0.2 -0.2,0.5 -0.5,0.5c0,0 0,0 0,0Z"></path><path d="M11.3,6c-0.2,0 -0.4,-0.1 -0.5,-0.4l-1.1,-3.9l-2,1.1c-0.2,0.1 -0.5,0 -0.7,-0.2c-0.1,-0.2 0,-0.5 0.3,-0.7l2.5,-1.4c0.1,-0.1 0.3,-0.1 0.4,0c0.1,0.1 0.2,0.2 0.3,0.3l1.3,4.5c0.1,0.3 -0.1,0.5 -0.3,0.6c-0.2,0.1 -0.2,0.1 -0.2,0.1Z"></path><path d="M14,19c-0.3,0 -0.5,-0.2 -0.5,-0.5l-1,-12.5h-0.7c0,0 0,0 0,0h-0.8l0.5,11.5c0,0.3 -0.2,0.5 -0.5,0.5c-0.3,0 -0.5,-0.2 -0.5,-0.5l-0.5,-12c0,-0.1 0,-0.3 0.1,-0.4c0.1,-0.1 0.3,-0.1 0.4,-0.1h0.9l0.6,-4.6c0,-0.2 0.2,-0.4 0.5,-0.4h2.5c0.1,0 0.3,0.1 0.4,0.2c0.1,0.1 0.1,0.2 0.1,0.4l-1,18c0,0.2 -0.2,0.4 -0.5,0.4c0,0 0,0 0,0Zm-1.6,-14h0.6c0.3,0 0.5,0.2 0.5,0.5l0.4,5.5l0.6,-10h-1.5l-0.6,4Z"></path><path d="M17.5,6c0,0 0,0 0,0c-0.3,0 -0.5,-0.3 -0.5,-0.6l0.4,-3.4h-2.4c-0.3,0 -0.5,-0.2 -0.5,-0.5c0,-0.3 0.2,-0.5 0.5,-0.5h3c0.1,0 0.3,0.1 0.4,0.2c0.1,0.1 0.1,0.3 0.1,0.4l-0.5,4c0,0.2 -0.3,0.4 -0.5,0.4Z"></path><path d="M21,13c-0.3,0 -0.5,-0.2 -0.5,-0.5v-8.1l-2.6,-0.4c-0.3,0 -0.5,-0.3 -0.4,-0.6c0,-0.3 0.3,-0.5 0.6,-0.4l3,0.5c0.2,0 0.4,0.2 0.4,0.5v8.5c0,0.3 -0.2,0.5 -0.5,0.5Z"></path><path d="M25,13c-0.1,0 -0.1,0 -0.2,0c-0.3,-0.1 -0.4,-0.4 -0.3,-0.7l2.8,-6.5l-2.1,-0.7l-1.7,3.1c-0.1,0.2 -0.4,0.3 -0.7,0.2c-0.2,-0.1 -0.3,-0.4 -0.2,-0.7l1.9,-3.5c0.1,-0.2 0.4,-0.3 0.6,-0.2l3,1c0.1,0 0.2,0.1 0.3,0.3c0.1,0.1 0.1,0.3 0,0.4l-3,7c-3.55271e-15,0.2 -0.2,0.3 -0.4,0.3Z"></path><path d="M24,7c-0.3,0 -0.5,-0.2 -0.5,-0.5v-4.5h-2v2c0,0.3 -0.2,0.5 -0.5,0.5c-0.3,0 -0.5,-0.2 -0.5,-0.5v-2.5c0,-0.3 0.2,-0.5 0.5,-0.5h3c0.3,0 0.5,0.2 0.5,0.5v5c0,0.3 -0.2,0.5 -0.5,0.5Z"></path><path d="M19.5,30h-10c-1.3,0 -2.5,-0.9 -2.9,-2.1l-5.1,-15.2c-0.1,-0.2 0,-0.3 0.1,-0.5c0.1,-0.1 0.2,-0.2 0.4,-0.2h6c0.3,0 0.5,0.2 0.5,0.5c0.2,3.1 2.9,5.5 6,5.5c3.1,0 5.7,-2.4 6,-5.5c0,-0.3 0.2,-0.5 0.5,-0.5h6c0.2,0 0.3,0.1 0.4,0.2c0.1,0.1 0.1,0.3 0.1,0.5l-5.1,15.2c-0.4,1.2 -1.6,2.1 -2.9,2.1Zm-16.8,-17l4.9,14.6c0.3,0.9 1,1.4 1.9,1.4h10c0.9,0 1.7,-0.6 1.9,-1.4l4.9,-14.6h-4.9c-0.5,3.4 -3.4,6 -6.9,6c-3.5,0 -6.4,-2.6 -6.9,-6h-4.9Z"></path></g></svg>