<svg id="Ebene_1" data-name="Ebene 1" xmlns="http://www.w3.org/2000/svg" viewBox="0 0 30 30"><title>Zeichenfläche 1</title><path d="M16.47,4.29h-1A.69.69,0,0,0,14.9,4a.71.71,0,0,0-.59.32h-1a.43.43,0,0,0,0,.86h1a.69.69,0,0,0,1.08,0h1a.43.43,0,1,0,0-.86Z"/><path d="M24.47,9.28l0-6.6a.71.71,0,0,0-.7-.7H6.19a.7.7,0,0,0-.7.7V9.31a3.47,3.47,0,0,0,1,2.48v16.7a.7.7,0,0,0,.7.7h15.5a.7.7,0,0,0,.7-.7V11.76A3.47,3.47,0,0,0,24.47,9.28Zm-18,0V3h17l0,6.3a2.5,2.5,0,0,1-2.5,2.5l-12,0A2.5,2.5,0,0,1,6.49,9.31ZM22.43,28.19H7.53V12.48A3.43,3.43,0,0,0,9,12.81l12,0a3.59,3.59,0,0,0,1.46-.33Z"/><path d="M8.71,19.53a.63.63,0,0,1-.33-.09.75.75,0,0,1-.33-.62V14.08a.7.7,0,0,1,.7-.7H13a.74.74,0,0,1,.59.29.64.64,0,0,1,.09.57c-.07.21-.11.34-2.7,1.7a1.1,1.1,0,0,0-.56.63C9.35,19.29,9.16,19.38,9,19.47A.58.58,0,0,1,8.71,19.53Zm.34-5.15v2.9c.15-.36.31-.74.45-1.1l0,0a2.07,2.07,0,0,1,1-1.07l1.29-.7Z"/><path d="M10.67,22.26l0-4.26a.71.71,0,0,1,.7-.71l4.74,0a.74.74,0,0,1,.62.33.59.59,0,0,1,0,.59c-.09.18-.18.37-2.89,1.47a1.15,1.15,0,0,0-.63.57c-1.35,2.59-1.48,2.64-1.69,2.71a.63.63,0,0,1-.56-.09.71.71,0,0,1-.27-.39A.68.68,0,0,1,10.67,22.26Zm1-4V21c.22-.4.47-.86.69-1.29a2.13,2.13,0,0,1,1.07-1h0l1.1-.46Z"/><path d="M21.05,13.46a.66.66,0,0,1,.48,0,.6.6,0,0,1,.36.44c.05.22.08.35-1.47,2.83a1.16,1.16,0,0,0-.17.83c.44,2.89.32,3.07.21,3.24a.64.64,0,0,1-.53.27.73.73,0,0,1-.59-.37l-2.4-4.1a.69.69,0,0,1,.26-.95l3.68-2.15A.51.51,0,0,1,21.05,13.46Zm-1.63,5.43c-.05-.38-.1-.79-.16-1.17v0a2.1,2.1,0,0,1,.29-1.42c.26-.42.53-.86.76-1.26L18,16.39Z"/><path d="M8.31,22.59a.67.67,0,0,1,.18-.45A.62.62,0,0,1,9,21.93c.22,0,.36,0,2.23,2.29a1.15,1.15,0,0,0,.73.42c2.89.49,3,.65,3.14.81a.6.6,0,0,1,.1.59.73.73,0,0,1-.54.45l-4.64,1a.7.7,0,0,1-.83-.54l-.89-4.17A.55.55,0,0,1,8.31,22.59ZM13,25.83l-1.16-.21h0a2.09,2.09,0,0,1-1.25-.72c-.31-.38-.65-.77-.95-1.12l.57,2.67Z"/><path d="M19.67,27.09a.66.66,0,0,1-.34.34.61.61,0,0,1-.56,0c-.2-.11-.32-.18-1.18-3a1.1,1.1,0,0,0-.51-.67c-2.47-1.57-2.52-1.77-2.58-2a.61.61,0,0,1,.15-.57.73.73,0,0,1,.66-.21l4.66.89a.7.7,0,0,1,.56.82l-.8,4.18A.48.48,0,0,1,19.67,27.09Zm-3-4.8,1,.65,0,0a2.1,2.1,0,0,1,.88,1.16c.14.46.3,1,.44,1.39l.51-2.67Z"/></svg>