<?xml version="1.0" encoding="UTF-8"?><svg version="1.1" viewBox="0 0 30 30" xmlns="http://www.w3.org/2000/svg" xmlns:xlink="http://www.w3.org/1999/xlink"><g fill="#000"><path d="M20,24.5c-3.8,0 -7.2,-1.3 -8.9,-3.4c-0.8,-1 -2,-1.7 -3.2,-2c-4.5,-0.9 -7.9,-3.8 -7.9,-6.8c0,-3.8 5.2,-6.8 11.8,-6.8c4.6,0 9.1,1.6 11.1,4c0.8,1 1.2,2 1.2,3.1c3.8,0.9 6,2.8 6,5.4c-0.1,3.5 -4.8,6.5 -10.1,6.5Zm-8.3,-18c-5.9,0 -10.7,2.6 -10.7,5.8c0,2.5 3.1,5.1 7.1,5.9c1.5,0.3 2.8,1.1 3.8,2.3c1.5,1.8 4.6,3 8.1,3c4.7,0 9,-2.6 9,-5.5c0,-2.1 -2,-3.8 -5.6,-4.5c-0.3,-0.1 -0.4,-0.3 -0.4,-0.6c0.2,-0.9 -0.1,-1.8 -0.9,-2.7c-1.8,-2.2 -6,-3.7 -10.4,-3.7Z"></path><path d="M13,16.5c-1.5,0 -6,0 -6,-3c0,-2.5 3.1,-4 6,-4c2.9,0 6,1.5 6,4c0,3 -4.5,3 -6,3Zm0,-6c-2.4,0 -5,1.2 -5,3c0,1.3 1.6,2 5,2c3.4,0 5,-0.7 5,-2c0,-1.8 -2.6,-3 -5,-3Z"></path><path d="M13,14.5c-1.2,0 -1.7,0 -2.1,-0.1c-0.3,-0.1 -0.4,-0.4 -0.3,-0.6c0.1,-0.3 0.4,-0.4 0.6,-0.3c0.2,0.1 1,0.1 1.7,0.1c0.8,0 1.4,0 1.5,-0.1c0.3,-0.1 0.5,0 0.6,0.3c0.1,0.3 0,0.5 -0.3,0.7c-0.1,0 -0.5,0 -1.7,0Z"></path></g></svg>