<svg xmlns="http://www.w3.org/2000/svg" viewBox="0 0 19 27"><path d="M9.1 4.015c0-2-1.627-3.628-3.628-3.628s-3.63 1.627-3.63 3.628V18.7c-.67.83-1.037 1.86-1.037 2.926A4.67 4.67 0 0 0 5.46 26.3a4.67 4.67 0 0 0 4.664-4.664 4.66 4.66 0 0 0-1.037-2.926L9.1 4.015zM5.46 25.263c-2 0-3.628-1.627-3.628-3.628 0-.878.323-1.73.907-2.393a.52.52 0 0 0 .13-.342v-14.886c0-1.43 1.162-2.6 2.6-2.6a2.6 2.6 0 0 1 2.6 2.6v14.886a.52.52 0 0 0 .13.342 3.63 3.63 0 0 1 .907 2.394c0 2-1.627 3.628-3.628 3.628zm.52-5.086V17.5a.52.52 0 0 0-.518-.518.52.52 0 0 0-.518.518v2.687c-.602.215-1.037.785-1.037 1.46 0 .858.697 1.555 1.555 1.555s1.555-.697 1.555-1.555a1.55 1.55 0 0 0-1.037-1.459zM17.9 9.3h-2.212l1.106-1.915a.52.52 0 0 0-.189-.707.52.52 0 0 0-.707.189L14.8 8.78l-1.106-1.915c-.144-.25-.46-.333-.707-.2a.52.52 0 0 0-.19.707L13.893 9.3H11.68a.52.52 0 0 0-.518.518.52.52 0 0 0 .518.518h2.212l-1.106 1.915a.52.52 0 0 0 .449.777.52.52 0 0 0 .45-.259l1.106-1.914 1.106 1.915a.52.52 0 0 0 .45.259.51.51 0 0 0 .259-.07c.25-.143.333-.46.2-.707L15.7 10.337h2.2a.52.52 0 0 0 .518-.518.52.52 0 0 0-.518-.52z"/></svg>