<?xml version="1.0" encoding="utf-8"?>
<!-- Generator: Adobe Illustrator 23.0.1, SVG Export Plug-In . SVG Version: 6.00 Build 0)  -->
<svg version="1.1" id="Ebene_1" xmlns="http://www.w3.org/2000/svg" xmlns:xlink="http://www.w3.org/1999/xlink" x="0px" y="0px"
	 viewBox="0 0 30 30" style="enable-background:new 0 0 30 30;" xml:space="preserve">
<title>np_cold_728877_000000</title>
<desc>Created with Sketch.</desc>
<g id="Page-1">
	<g id="Artboard" transform="translate(-367.000000, -92.000000)">
		<g id="np_cold_728877_000000" transform="translate(367.651367, 92.076335)">
			<path id="Shape" d="M14.9,3.6c0-2-1.6-3.6-3.6-3.6S7.6,1.6,7.6,3.6v18.7c-0.7,0.8-1,1.9-1,2.9c0,2.6,2.1,4.7,4.7,4.7
				s4.7-2.1,4.7-4.7c0-1.1-0.4-2.1-1-2.9L14.9,3.6z M11.2,28.8c-2,0-3.6-1.6-3.6-3.6c0-0.9,0.3-1.7,0.9-2.4c0.1-0.1,0.1-0.2,0.1-0.3
				V3.6C8.6,2.2,9.8,1,11.2,1s2.6,1.2,2.6,2.6v18.9c0,0.1,0,0.2,0.1,0.3c0.6,0.7,0.9,1.5,0.9,2.4C14.9,27.2,13.2,28.8,11.2,28.8
				L11.2,28.8z"/>
			<path d="M11.8,23.7V20c0-0.3-0.2-0.5-0.5-0.5c-0.3,0-0.5,0.2-0.5,0.5v3.7c-0.6,0.2-1,0.8-1,1.5c0,0.9,0.7,1.6,1.6,1.6
				s1.6-0.7,1.6-1.6C12.8,24.4,12.4,23.9,11.8,23.7z"/>
			<path d="M23.7,5.7h-2.2l1.1-1.9c0.1-0.2,0.1-0.6-0.2-0.7c-0.2-0.1-0.6-0.1-0.7,0.2l-1.1,1.9l-1.1-1.9C19.3,3,19,2.9,18.8,3
				c-0.2,0.1-0.3,0.5-0.2,0.7l1.1,1.9h-2.2c-0.3,0-0.5,0.2-0.5,0.5c0,0.3,0.2,0.5,0.5,0.5h2.2l-1.1,1.9c-0.1,0.2-0.1,0.6,0.2,0.7
				c0.1,0,0.2,0.1,0.3,0.1c0.2,0,0.4-0.1,0.4-0.3l1.1-1.9l1.1,1.9c0.1,0.2,0.3,0.3,0.4,0.3c0.1,0,0.2,0,0.3-0.1
				c0.2-0.1,0.3-0.5,0.2-0.7l-1.1-1.9h2.2c0.3,0,0.5-0.2,0.5-0.5C24.2,5.9,24,5.7,23.7,5.7L23.7,5.7z"/>
		</g>
	</g>
</g>
</svg>
