<svg viewBox="0 0 30 30" xmlns="http://www.w3.org/2000/svg">
    <path
        d="M15.6 3.7c0-2-1.6-3.6-3.6-3.6S8.3 1.7 8.3 3.7v18.7c-0.7 0.8-1 1.9-1 2.9 0 2.6 2.1 4.7 4.7 4.7s4.7-2.1 4.7-4.7c0-1.1-0.4-2.1-1-2.9L15.6 3.7zM11.9 28.9c-2 0-3.6-1.6-3.6-3.6 0-0.9 0.3-1.7 0.9-2.4 0.1-0.1 0.1-0.2 0.1-0.3V3.7C9.3 2.3 10.5 1.1 11.9 1.1s2.6 1.2 2.6 2.6v18.9c0 0.1 0 0.2 0.1 0.3 0.6 0.7 0.9 1.5 0.9 2.4C15.6 27.3 13.9 28.9 11.9 28.9L11.9 28.9z" />
    <path
        d="M12.5 23.8V20.1c0-0.3-0.2-0.5-0.5-0.5 -0.3 0-0.5 0.2-0.5 0.5v3.7c-0.6 0.2-1 0.8-1 1.5 0 0.9 0.7 1.6 1.6 1.6s1.6-0.7 1.6-1.6C13.5 24.5 13.1 24 12.5 23.8z" />
    <path
        d="M24.4 5.8h-2.2l1.1-1.9c0.1-0.2 0.1-0.6-0.2-0.7 -0.2-0.1-0.6-0.1-0.7 0.2l-1.1 1.9 -1.1-1.9C20 3.1 19.7 3 19.5 3.1c-0.2 0.1-0.3 0.5-0.2 0.7l1.1 1.9h-2.2c-0.3 0-0.5 0.2-0.5 0.5 0 0.3 0.2 0.5 0.5 0.5h2.2l-1.1 1.9c-0.1 0.2-0.1 0.6 0.2 0.7 0.1 0 0.2 0.1 0.3 0.1 0.2 0 0.4-0.1 0.4-0.3l1.1-1.9 1.1 1.9c0.1 0.2 0.3 0.3 0.4 0.3 0.1 0 0.2 0 0.3-0.1 0.2-0.1 0.3-0.5 0.2-0.7l-1.1-1.9h2.2c0.3 0 0.5-0.2 0.5-0.5C24.9 6 24.7 5.8 24.4 5.8L24.4 5.8z" />
</svg>
