<svg xmlns="http://www.w3.org/2000/svg" viewBox="0 0 30 29"><path d="M2.024 22.117a6.67 6.67 0 0 0 6.698 6.698 6.67 6.67 0 0 0 6.698-6.698 6.67 6.67 0 0 0-6.698-6.698 6.67 6.67 0 0 0-6.698 6.698zm6.698-5.706c3.175 0 5.706 2.53 5.706 5.706s-2.53 5.706-5.706 5.706-5.706-2.53-5.706-5.706c0-3.126 2.58-5.706 5.706-5.706zm18.108 5.46c0-.843-.546-1.588-1.34-1.885.893-.645 1.1-1.885.496-2.778s-1.885-1.1-2.778-.496a2.47 2.47 0 0 0-.397.347v-.198a1.99 1.99 0 0 0-1.985-1.985 1.99 1.99 0 0 0-1.985 1.985c0 .1 0 .198.05.298-.298-.15-.645-.248-.992-.248a1.99 1.99 0 0 0-1.985 1.985c0 .843.546 1.588 1.34 1.885-.893.645-1.1 1.885-.446 2.73.248.347.595.595.943.744-.893.645-1.1 1.885-.446 2.778s1.885 1.1 2.778.446a2 2 0 0 0 .843-1.637c0-.1 0-.198-.05-.298.298.198.645.298 1.042.298a1.99 1.99 0 0 0 1.985-1.985c0-.1 0-.198-.05-.298.298.198.645.298 1.042.298 1.042 0 1.935-.893 1.935-1.985zm-5.458-.496c-.546 0-.992-.447-.992-.992s.447-.992.992-.992.992.446.992.992-.447.992-.992.992zm-1.488-2.282a.84.84 0 0 0 0-.496c.1.05.248.15.347.15l-.347.347zm-.447 1.588c-.1-.05-.248-.15-.347-.15a1.16 1.16 0 0 0 .347-.347.84.84 0 0 0 0 .496zm.447 2.977a.84.84 0 0 0 0 .496c-.1-.05-.248-.15-.347-.15l.347-.347zm.446-1.588c.1.05.248.15.347.15a1.16 1.16 0 0 0-.347.347.84.84 0 0 0 0-.496zm2.53-.397a.84.84 0 0 0 0 .496c-.1-.05-.248-.15-.347-.15l.347-.347zm.446-1.588c.1.05.248.15.347.15a1.16 1.16 0 0 0-.347.347.84.84 0 0 0 0-.496zm1.042-2.68c.546 0 .992.447.992.992s-.446.992-.992.992-.992-.447-.992-.992.446-.992.992-.992zm-1.985.794a.84.84 0 0 0 0 .496c-.1-.05-.248-.15-.347-.15l.347-.347zm-1.488-2.282c.546 0 .992.447.992.992s-.447.992-.992.992-.992-.447-.992-.992.447-.992.992-.992zm-3.97 2.977c0-.546.447-.992.992-.992s.992.446.992.992-.447.992-.992.992-.992-.447-.992-.992zm.496 3.473c0-.546.446-.992.992-.992s.992.447.992.992-.447.992-.992.992-.992-.447-.992-.992zm1.488 4.465c-.546 0-.992-.447-.992-.992s.447-.992.992-.992.992.447.992.992-.446.992-.992.992zm2.977-1.985c-.546 0-.992-.446-.992-.992s.446-.992.992-.992.992.447.992.992-.446.992-.992.992zm1.985-2.977c0-.546.446-.992.992-.992s.992.446.992.992-.446.992-.992.992-.992-.446-.992-.992zm2.484-9.427a3.45 3.45 0 0 0-3.473 3.473c0 .298.198.496.496.496s.496-.198.496-.496c0-1.4 1.1-2.48 2.48-2.48.298 0 .496-.198.496-.496s-.198-.496-.496-.496zm-5.458 0a8.96 8.96 0 0 0 8.93-8.93c0-.298-.198-.496-.496-.496H12.443c-.298 0-.496.198-.496.496a8.96 8.96 0 0 0 8.93 8.93zm5.458-8.434c-.248 3.026-2.927 5.2-5.904 4.96a5.5 5.5 0 0 1-4.96-4.96h10.865zm-11.857 0c.248 3.572 3.374 6.202 6.896 5.954 3.175-.248 5.706-2.778 5.954-5.954h1.488c-.248 4.366-4.02 7.7-8.434 7.442a7.92 7.92 0 0 1-7.442-7.442h1.538z"/><path d="M17.9 5.993h.992c.298 0 .496-.198.496-.496A.46.46 0 0 0 18.893 5H17.9c-.298 0-.496.198-.496.496s.198.496.496.496zm2.48 1.985h.992c.298 0 .496-.198.496-.496s-.198-.496-.496-.496h-.992c-.298 0-.496.198-.496.496s.198.496.496.496zm2.482-1.985h.992c.298 0 .496-.198.496-.496S24.152 5 23.854 5h-.992c-.298 0-.496.198-.496.496s.198.496.496.496zM7.978 15.668c0 .298.198.496.496.496s.496-.198.496-.496a2.99 2.99 0 0 0-2.977-2.977c-.298 0-.496.198-.496.496s.198.496.496.496a1.99 1.99 0 0 1 1.985 1.985zm.546-2.968a.52.52 0 0 0 .447.248h2.977c.198 0 .347-.1.446-.298l.992-1.985c.1-.248 0-.546-.198-.645-.1-.05-.15-.05-.248-.05H9.962c-.198 0-.347.1-.447.298l-.992 1.985a.69.69 0 0 0 0 .446zm1.736-1.736h1.885l-.496.992H9.764l.496-.992zm-5.755 9.923h.992c.298 0 .496-.198.496-.496s-.198-.496-.496-.496h-.992c-.298 0-.496.198-.496.496s.198.496.496.496zM6.5 18.893h.992c.298 0 .496-.198.496-.496a.46.46 0 0 0-.496-.497H6.5c-.298 0-.496.198-.496.496s.198.496.496.496zm-1.995-7.938a1.48 1.48 0 0 0 1.191-.595C8.97 5.993 8.97 5.398 8.97 5.15c0-1.4-1.1-2.48-2.48-2.48a2.64 2.64 0 0 0-1.985.695A2.65 2.65 0 0 0 2.52 2.67c-1.4 0-2.48 1.1-2.48 2.48 0 .248 0 .843 3.274 5.2a1.48 1.48 0 0 0 1.191.595zM2.52 3.66c1.488 0 1.488.744 1.488.992 0 .298.198.496.496.496S5 4.95 5 4.654c0-.248 0-.994 1.5-.994.794 0 1.488.645 1.488 1.488-.05.347-.893 1.736-3.076 4.614-.198.198-.496.248-.695.1-.05 0-.05-.05-.1-.1C1.925 6.836 1.082 5.447 1.032 5.15A1.46 1.46 0 0 1 2.52 3.661z"/><path d="M4.505 3.016c.298 0 .496-.198.496-.496 0-.794.447-1.488.992-1.488.298 0 .496-.198.496-.496A.46.46 0 0 0 5.993.04C4.902.04 4 1.13 4 2.52c0 .298.198.496.496.496zM2.52 5.497h.992v.992H2.52zM4 7.978h1v.992H4zm1.487-2.48h.992V6.5h-.992zM.536 15.42a1.46 1.46 0 0 1 1.488 1.488c0 .298.198.496.496.496s.496-.198.496-.496a1.46 1.46 0 0 1 1.488-1.488c.298 0 .496-.198.496-.496s-.198-.496-.496-.496a1.46 1.46 0 0 1-1.488-1.488c0-.298-.198-.496-.496-.496s-.496.198-.496.496a1.46 1.46 0 0 1-1.488 1.488c-.298 0-.496.198-.496.496s.198.496.496.496zm1.985-.992a2.35 2.35 0 0 0 .496.496 2.35 2.35 0 0 0-.496.496 2.35 2.35 0 0 0-.496-.496 2.35 2.35 0 0 0 .496-.496zm13.395 1.488a1.46 1.46 0 0 1 1.488-1.488c.298 0 .496-.198.496-.496s-.198-.496-.496-.496a1.46 1.46 0 0 1-1.488-1.488c0-.298-.198-.496-.496-.496s-.496.198-.496.496a1.46 1.46 0 0 1-1.488 1.488c-.298 0-.496.198-.496.496s.198.496.496.496a1.46 1.46 0 0 1 1.488 1.488c0 .298.198.496.496.496s.496-.198.496-.496zm-.992-1.985a2.35 2.35 0 0 0 .496-.496 2.35 2.35 0 0 0 .496.496 2.35 2.35 0 0 0-.496.496 2.35 2.35 0 0 0-.496-.496z"/></svg>