<?xml version="1.0" encoding="UTF-8"?>
<svg viewBox="0 0 30 30" version="1.1" xmlns="http://www.w3.org/2000/svg" xmlns:xlink="http://www.w3.org/1999/xlink">
    <g id="Page-1" stroke="none" stroke-width="1" fill="none" fill-rule="evenodd">
        <g id="Outlines_black-Copy" transform="translate(-180.000000, -114.000000)">
            <g id="Group-3" transform="translate(3.000000, 114.000000)" fill="#000000" fill-rule="nonzero">
                <path d="M193.058907,3.13100848 C187.060249,3.13100848 182.631008,7.48549366 182.631008,14.1696513 C182.631008,20.9371464 186.847512,24.8689915 193.194628,24.8689915 C195.875085,24.8689915 198.487778,23.9022866 200.093779,22.4725078 L200.093779,12.7672008 L192.810085,12.7672008 L192.810085,16.3864279 L195.501885,16.3864279 C195.814204,16.3864279 196.067389,16.6396128 196.067389,16.9519321 L196.067389,20.005655 C196.067389,20.1947332 195.972893,20.3713013 195.81557,20.476183 C195.324162,20.8037888 194.560577,20.9783223 193.805372,20.9783223 C189.623469,20.9783223 187.471725,18.4999743 187.471725,13.9660697 C187.471725,9.79373347 189.835493,7.02167766 193.262488,7.02167766 C194.797889,7.02167766 195.909454,7.45580782 197.122227,8.41589569 L199.481951,5.5317886 C197.80282,4.0189491 195.635413,3.13100848 193.058907,3.13100848 Z M192.244581,17.5174364 C191.932261,17.5174364 191.679076,17.2642515 191.679076,16.9519321 L191.679076,12.2016965 C191.679076,11.8893771 191.932261,11.6361923 192.244581,11.6361923 L200.659284,11.6361923 C200.971603,11.6361923 201.224788,11.8893771 201.224788,12.2016965 L201.224788,22.7200754 C201.224788,22.8744153 201.161705,23.0220492 201.050173,23.1287324 C199.24842,24.8521483 196.260048,26 193.194628,26 C186.239855,26 181.5,21.5801349 181.5,14.1696513 C181.5,6.85650517 186.439879,2 193.058907,2 C196.140914,2 198.721294,3.15293614 200.651993,5.08363424 C200.857427,5.289069 200.87377,5.61674803 200.689797,5.84160478 L197.636074,9.57393277 C197.433656,9.82133186 197.066575,9.85191352 196.826011,9.64141943 C195.618798,8.58510862 194.677643,8.15268615 193.262488,8.15268615 C190.503656,8.15268615 188.602733,10.3819498 188.602733,13.9660697 C188.602733,17.908064 190.286423,19.8473139 193.805372,19.8473139 C194.220694,19.8473139 194.637121,19.7755204 194.936381,19.6606317 L194.936381,17.5174364 L192.244581,17.5174364 Z" id="G-Copy-2"></path>
            </g>
            <g id="Slices" transform="translate(0.000000, 114.000000)"></g>
        </g>
    </g>
</svg>