<?xml version="1.0" encoding="UTF-8"?><svg version="1.1" viewBox="0 0 30 30" xmlns="http://www.w3.org/2000/svg" xmlns:xlink="http://www.w3.org/1999/xlink"><path d="M29.277,18.012c-0.895,-4.019 -8.554,-12.099 -11.43,-14.873c-0.615,-0.593 -1.347,-1.532 -1.347,-2.64c0,-0.158 -0.075,-0.307 -0.201,-0.401c-0.126,-0.094 -0.29,-0.123 -0.442,-0.078c-0.31,0.092 -0.48,0.143 -0.908,0.143c-0.333,0 -0.435,-0.031 -0.659,-0.099l-0.152,-0.045c-0.154,-0.045 -0.322,-0.013 -0.448,0.087c-0.126,0.1 -0.197,0.254 -0.19,0.415c0.045,1.047 -0.708,2.002 -1.348,2.619c-2.876,2.773 -10.535,10.852 -11.429,14.873c-0.531,2.388 -0.107,4.825 1.195,6.864c1.344,2.103 3.466,3.563 5.976,4.111c1.302,0.284 2.723,0.16 3.606,0.012h0.312c0.802,0.664 1.873,1 3.188,1c1.279,0 2.294,-0.319 3.179,-1.004l0.342,-0.004c1.379,0.222 2.554,0.221 3.586,-0.005c2.511,-0.548 4.633,-2.008 5.976,-4.111c1.302,-2.037 1.725,-4.476 1.194,-6.864Zm-2.037,6.327c-1.2,1.877 -3.098,3.181 -5.346,3.672c-0.909,0.198 -1.96,0.197 -3.215,-0.005c-0.026,-0.004 -0.153,-0.006 -0.179,-0.006h-0.5c-0.116,0 -0.229,0.04 -0.319,0.115c-0.728,0.604 -1.58,0.885 -2.681,0.885c-1.14,0 -2.036,-0.292 -2.661,-0.868c-0.092,-0.085 -0.214,-0.132 -0.339,-0.132l-0.578,0.005c-0.877,0.142 -2.163,0.255 -3.314,0.005c-2.248,-0.491 -4.147,-1.795 -5.346,-3.672c-1.158,-1.813 -1.535,-3.982 -1.061,-6.109c0.774,-3.481 7.844,-11.185 11.147,-14.37c0.926,-0.893 1.467,-1.807 1.614,-2.726c0.293,0.043 0.785,0.036 1.094,-0.011c0.167,0.946 0.711,1.882 1.598,2.737c2.626,2.534 10.311,10.611 11.147,14.371c0.474,2.127 0.097,4.296 -1.061,6.109Zm-7.422,-10.304c-0.258,0.101 -0.384,0.391 -0.283,0.648c0.798,2.032 0.965,4.285 0.965,5.817c0,2.136 -0.312,3.73 -0.927,4.74c-0.144,0.236 -0.069,0.543 0.167,0.687c0.082,0.05 0.171,0.073 0.26,0.073c0.168,0 0.333,-0.085 0.428,-0.239c0.712,-1.169 1.073,-2.938 1.073,-5.26c0,-1.619 -0.18,-4.006 -1.035,-6.183c-0.101,-0.258 -0.393,-0.383 -0.648,-0.283Zm-9.636,-0.001c-0.255,-0.099 -0.547,0.025 -0.648,0.283c-0.854,2.178 -1.034,4.564 -1.034,6.183c0,2.322 0.361,4.091 1.073,5.26c0.094,0.155 0.259,0.24 0.427,0.24c0.089,0 0.179,-0.023 0.261,-0.074c0.236,-0.144 0.311,-0.451 0.167,-0.687c-0.615,-1.01 -0.927,-2.604 -0.927,-4.74c0,-1.532 0.167,-3.785 0.965,-5.817c0.101,-0.257 -0.026,-0.547 -0.284,-0.648Z" fill="#000"></path></svg>