<svg xmlns="http://www.w3.org/2000/svg" viewBox="0 0 30 30"><path d="M21 29.9H9c-1.1 0-1.9-.9-1.9-1.9V11.7c0-2.6 2-4.8 4.6-5.1V3.4c0-1 .4-1.9 1.2-2.5s1.7-.9 2.7-.7c1.5.3 2.6 1.7 2.6 3.3v3.1c2.6.3 4.6 2.4 4.6 5.1V28c.1 1-.8 1.9-1.8 1.9zM12.2 7.6c-2.3 0-4.1 1.8-4.1 4.1V28c0 .5.4.9.9.9h12c.5 0 .9-.4.9-.9V11.7c0-2.3-1.8-4.1-4.1-4.1h-.5v-4c0-1.1-.8-2.1-1.8-2.3-.7-.1-1.4 0-1.9.5-.5.4-.8 1.1-.8 1.7v4.2h-.6z"/><path d="M17.8 7.6h-5.5a.47.47 0 0 1-.5-.5.47.47 0 0 1 .5-.5h5.5a.47.47 0 0 1 .5.5c0 .3-.3.5-.5.5zm-5.7-2.1H11a.47.47 0 0 1-.5-.5.47.47 0 0 1 .5-.5h1.1a.47.47 0 0 1 .5.5.47.47 0 0 1-.5.5zm7 0H18a.47.47 0 0 1-.5-.5.47.47 0 0 1 .5-.5h1.1a.47.47 0 0 1 .5.5.47.47 0 0 1-.5.5zM9.5 8.3a.76.76 0 0 1-.4-.2L7.8 6.6c-.2-.2-.2-.5 0-.7.2-.1.6-.1.7.1l1.3 1.5c.2.2.2.5 0 .7-.1 0-.2.1-.3.1z"/></svg>