<svg data-name="Ebene 1" id="Ebene_1" viewBox="0 0 30 30" xmlns="http://www.w3.org/2000/svg">
    <g id="Page-1">
        <g id="Artboard">
            <path d="M27.7,10.52h0a.5.5,0,1,1,0,1h-3a3.81,3.81,0,0,1-1.11,5,.4.4,0,0,1-.15.1L12.72,24.19a1.71,1.71,0,0,1-1.88,0,5.56,5.56,0,0,1-4.6-1.49,5.36,5.36,0,0,1-1.63-4.49l-1,.65a.5.5,0,0,1-.37.12.55.55,0,0,1-.35-.2.51.51,0,0,1-.09-.38.52.52,0,0,1,.22-.32L4,17.48l-1.4-.23a.49.49,0,0,1-.41-.57.5.5,0,0,1,.58-.41l1.39.23-.66-.93a.47.47,0,0,1,.11-.68.5.5,0,0,1,.69.11l.92,1.25a5.73,5.73,0,0,1,.73-1A5.08,5.08,0,0,1,2.85,12a5,5,0,0,1,.75-4.4,5.14,5.14,0,0,1,8.11-.15,5.14,5.14,0,0,1,7-1,5,5,0,0,1,2,3.15,3.94,3.94,0,0,1,2.54.45V7.12a.5.5,0,0,1,.5-.49.49.49,0,0,1,.5.49V9.83l2.32-2.28a.5.5,0,0,1,.69,0,.49.49,0,0,1,0,.68L25,10.52Zm-12-4h0a4.12,4.12,0,0,0-3.57,2.06c-.07.13-.13.26-.19.39a5.07,5.07,0,0,1,3,1.67,4.9,4.9,0,0,1,1.22,3.21l1.93-2.64a3.91,3.91,0,0,1,1.62-1.31A4.08,4.08,0,0,0,15.71,6.48Zm-5.59,6.89h0a5.59,5.59,0,0,1,4.59,2.43,4,4,0,0,0,0-3.93,4.1,4.1,0,0,0-3.42-2h-.13a4.07,4.07,0,0,0-4.09,4c0,.14,0,.27,0,.41A5.51,5.51,0,0,1,10.12,13.37ZM3.61,10.5h0a4,4,0,0,0,2.45,3.7,1.83,1.83,0,0,1,0-.33,5,5,0,0,1,1.41-3.46A5.15,5.15,0,0,1,10.9,8.87a3.76,3.76,0,0,1,.25-.54,4.11,4.11,0,0,0-4.6-1.69A4,4,0,0,0,3.61,10.5Zm1.95,8.34h0a4.53,4.53,0,0,0,4.57,4.46,1.6,1.6,0,0,1,.24-1.45h0l1.68-2.32,2.06-2.84A4.49,4.49,0,0,0,13,15.39l-.43,1a.5.5,0,0,1-.91-.39l.49-1.12a4.63,4.63,0,0,0-2-.5h0l-1.38,3a.57.57,0,0,1-.28.27.52.52,0,0,1-.39,0,.51.51,0,0,1-.26-.28.46.46,0,0,1,0-.38l1.15-2.48a4.66,4.66,0,0,0-1.81.86l0,0-.16.14a4.49,4.49,0,0,0-1.51,3.33Zm17.75-3.32h0a2.84,2.84,0,0,0,.94-2.14,2.87,2.87,0,0,0-1-2.13,3,3,0,0,0-4.32.47L15,17.13l-2.17,3-1.68,2.32a.67.67,0,0,0,.08.88l0,0a.71.71,0,0,0,.86,0l5.74-4-.9-.88a.49.49,0,0,1,.7-.69h0l1,1,3.8-2.67-1.95-1.93a.49.49,0,0,1,0-.68.51.51,0,0,1,.69,0h0Z"
                id="Combined-Shape" />
        </g>
    </g>
</svg>