<?xml version="1.0" encoding="utf-8"?>
<!-- Generator: Adobe Illustrator 23.0.1, SVG Export Plug-In . SVG Version: 6.00 Build 0)  -->
<svg version="1.1" id="Ebene_1" xmlns="http://www.w3.org/2000/svg" xmlns:xlink="http://www.w3.org/1999/xlink" x="0px" y="0px"
	 viewBox="0 0 30 30" style="enable-background:new 0 0 30 30;" xml:space="preserve">
<style type="text/css">
	.st0{fill-rule:evenodd;clip-rule:evenodd;}
</style>
<title>Gherkin</title>
<desc>Created with Sketch.</desc>
<g id="Actual-Design">
	<g id="Gherkin" transform="translate(0.000000, -1.000000)">
		<path id="Shape" class="st0" d="M21.3,15.3L21.3,15.3L21.3,15.3C21.3,15.3,21.3,15.3,21.3,15.3z M14.1,3.8C14,3.8,14,3.8,14.1,3.8
			C14,3.8,14.1,3.8,14.1,3.8C14.1,3.8,14.1,3.8,14.1,3.8z M14,4.7L14,4.7c-0.4,0.3-0.9,0.6-1.3,1c-0.2,0.2-0.2,0.5,0,0.7
			c0.1,0.1,0.2,0.1,0.3,0.1c0.1,0,0.3-0.1,0.3-0.1c0.5-0.5,1.1-0.8,1.9-1c0.7,0.2,1.3,0.5,1.9,1c0.1,0.1,0.2,0.1,0.3,0.1
			c0.1,0,0.3,0,0.4-0.2C17.9,6.3,18,6.1,18,6c0-0.1-0.1-0.3-0.1-0.3c-0.5-0.4-0.9-0.7-1.3-0.9V4.7c3.5,1.1,4,3.7,4,5.1
			c0,2.3-0.1,4.2-0.2,5.9l0,0.1v0c-0.3,3.3-1.4,14.2-5,14.2c-2.2,0-3.4-3.8-4.1-7C10.5,19.4,10,14.4,10,9.8C10,8.4,10.5,5.8,14,4.7z
			 M13.6,2.6c0-0.1,0-0.1,0-0.2c0-0.1,0-0.1,0.1-0.2c0.1,0,0.1-0.1,0.2-0.1c1.3,0.1,1.6,1.4,1.6,2.2c0,0,0,0.1,0,0.1
			c-0.1,0-0.2,0-0.2,0l-0.1,0h0l0,0c0,0-0.1,0-0.2,0.1c0-0.8-0.3-1.7-1.1-1.8C13.8,2.7,13.7,2.6,13.6,2.6z M9.7,18.4
			C9.7,18.4,9.7,18.4,9.7,18.4L9.7,18.4L9.7,18.4z M20.4,22.9C20.4,22.9,20.4,22.9,20.4,22.9L20.4,22.9L20.4,22.9z M21.5,15.2h-0.2
			c0.2-2.3,0.2-4.2,0.2-5.4c0-4.3-3.5-5.7-5.1-6.1c-0.2-0.9-0.7-2.4-2.4-2.5c0,0-0.1,0-0.1,0c-0.3,0-0.6,0.1-0.8,0.3
			c-0.2,0.2-0.4,0.5-0.4,0.9c0,0.3,0.1,0.7,0.3,0.9c0.2,0.2,0.5,0.4,0.9,0.4c0,0,0,0,0.1,0.1c-1.5,0.5-4.8,2-4.8,6
			c0,2.5,0.2,5.6,0.5,8.5l0,0.1l0,0H9.2c-0.3,0-0.5,0.2-0.5,0.5c0,0.2,0.2,0.5,0.5,0.5h0.5c0.1,1.1,0.3,2.1,0.4,2.8
			c1,5.8,2.8,8.7,5.2,8.7c2.2,0,3.8-2.4,4.9-7.1h0.4c0.3,0,0.5-0.2,0.5-0.5c0-0.2-0.2-0.5-0.5-0.5h-0.2c0-0.1,0-0.2,0-0.2
			c0-0.1,0-0.2,0.1-0.3c0.3-1.8,0.6-3.8,0.8-6h0.2c0.3,0,0.5-0.2,0.5-0.5C22,15.5,21.7,15.2,21.5,15.2z"/>
		<path class="st0" d="M13.2,10.2c0.2,0,0.5,0.2,0.5,0.5c0,0.2-0.2,0.5-0.5,0.5s-0.5-0.2-0.5-0.5C12.8,10.4,13,10.2,13.2,10.2
			 M13.2,12.1c0.8,0,1.4-0.6,1.4-1.4c0-0.8-0.6-1.4-1.4-1.4c-0.8,0-1.4,0.6-1.4,1.4C11.9,11.5,12.5,12.1,13.2,12.1"/>
		<path class="st0" d="M13.9,22.4c-0.2,0-0.5-0.2-0.5-0.5c0-0.2,0.2-0.5,0.5-0.5s0.5,0.2,0.5,0.5C14.3,22.2,14.1,22.4,13.9,22.4
			 M12.5,22c0,0.8,0.6,1.4,1.4,1.4s1.4-0.6,1.4-1.4s-0.6-1.4-1.4-1.4S12.5,21.2,12.5,22"/>
		<path class="st0" d="M16.9,16.3c0.2,0,0.5,0.2,0.5,0.5c0,0.2-0.2,0.5-0.5,0.5c-0.2,0-0.5-0.2-0.5-0.5
			C16.4,16.5,16.6,16.3,16.9,16.3 M16.4,18.1c-0.4,5.3-1.4,8.7-1.8,10c0,0,0,0.1,0,0.1c0,0.1,0,0.3,0,0.4c0.1,0.1,0.2,0.2,0.3,0.2
			l0,0h0c0,0,0,0,0,0c0,0,0.1,0,0.1,0c0.2,0,0.4-0.1,0.5-0.3c0,0,1.4-3.8,1.9-10.4c0.5-0.2,0.9-0.7,0.9-1.3c0-0.6-0.3-1.1-0.8-1.3
			c0.1-2.3,0-4.6-0.1-6.7c0-0.3-0.2-0.5-0.5-0.5c-0.3,0-0.5,0.2-0.5,0.5c0.1,2.1,0.2,4.3,0.1,6.6c-0.6,0.2-1,0.7-1,1.4
			C15.5,17.4,15.8,17.9,16.4,18.1"/>
		<path class="st0" d="M13.2,14.8c0.2,0,0.5,0.2,0.5,0.5c0,0.3-0.2,0.5-0.5,0.5c-0.2,0-0.5-0.2-0.5-0.5S12.9,14.8,13.2,14.8
			 M13.2,16.7c0.8,0,1.4-0.6,1.4-1.4c0-0.8-0.6-1.4-1.4-1.4c-0.8,0-1.4,0.6-1.4,1.4C11.8,16.1,12.4,16.7,13.2,16.7"/>
	</g>
</g>
</svg>
