<?xml version="1.0" encoding="UTF-8"?><svg version="1.1" viewBox="0 0 14 30" xmlns="http://www.w3.org/2000/svg" xmlns:xlink="http://www.w3.org/1999/xlink"><!--Generated by IJSVG (https://github.com/curthard89/IJSVG)--><g transform="matrix(1,0,0,1,0,-1)"><path fill="#000" fill-rule="evenodd" stroke="none" d="M13.287,15.3421h0.015l-0.015,0.004c0,-0.002 0,-0.003 0,-0.004Zm-7.237,-11.556c-0.003,-0.008 -0.007,-0.014 -0.01,-0.021c0.007,0.005 0.011,0.014 0.018,0.018c-0.002,0.001 -0.005,0.002 -0.008,0.003Zm-0.016,0.915v0.076c-0.423,0.204 -0.866,0.517 -1.285,0.908c-0.194,0.194 -0.194,0.505 -0.003,0.696c0.093,0.092 0.216,0.144 0.347,0.144c0.13,0 0.253,-0.052 0.346,-0.144c0.522,-0.484 1.149,-0.834 1.86,-1.039c0.703,0.179 1.328,0.529 1.858,1.04c0.082,0.082 0.232,0.12 0.344,0.12c0.058,0 0.255,-0.012 0.358,-0.166c0.081,-0.078 0.132,-0.201 0.132,-0.332c0,-0.13 -0.051,-0.253 -0.144,-0.346c-0.462,-0.43 -0.925,-0.71 -1.288,-0.907v-0.081c3.499,1.082 4.025,3.653 4.025,5.101c-0.037,2.303 -0.115,4.169 -0.243,5.869l-0.001,0.069v0.031c-0.26,3.324 -1.395,14.196 -5.043,14.196c-2.15,0 -3.404,-3.798 -4.077,-6.985c-0.758,-3.591 -1.211,-8.507 -1.211,-13.151c0,-1.438 0.526,-3.996 4.025,-5.099Zm-0.401,-2.13c-0.021,-0.054 -0.041,-0.145 -0.041,-0.209c0,-0.058 0.047,-0.134 0.093,-0.203c0.07,-0.043 0.138,-0.065 0.204,-0.065c1.268,0.108 1.565,1.444 1.629,2.23c0,0.026 0.001,0.052 0.001,0.078c-0.113,-0.026 -0.186,-0.027 -0.19,-0.027l-0.124,-0.001h-0.013l-0.012,0.004c0,0 -0.078,0.02 -0.214,0.057c-0.028,-0.825 -0.335,-1.689 -1.127,-1.775c-0.065,0 -0.139,-0.045 -0.206,-0.089Zm-3.945,15.873c2.22045e-16,-0.002 2.22045e-16,-0.004 2.22045e-16,-0.006l0.005,0.006h-0.005Zm10.679,4.436c0.001,-0.003 0.001,-0.005 0.002,-0.008h0.036l-0.038,0.008Zm1.145,-7.638h-0.168c0.171,-2.325 0.207,-4.238 0.207,-5.441c0,-4.291 -3.514,-5.697 -5.096,-6.112c-0.18,-0.913 -0.734,-2.39 -2.435,-2.528c-0.04,-0.005 -0.082,-0.007 -0.124,-0.007c-0.304,0 -0.581,0.111 -0.781,0.311c-0.246,0.214 -0.392,0.504 -0.427,0.857c-0.036,0.348 0.075,0.678 0.304,0.907c0.174,0.233 0.481,0.389 0.856,0.427c0.012,0 0.036,0.004 0.088,0.112c-1.538,0.47 -4.83,1.955 -4.83,6.033c2.22045e-16,2.485 0.174,5.646 0.466,8.457l0.009,0.101l0.003,0.035h-0.347c-0.279,0 -0.467,0.241 -0.467,0.467c0,0.24 0.227,0.467 0.467,0.467h0.463c0.13,1.062 0.291,2.065 0.418,2.825c1.047,5.764 2.8,8.686 5.21,8.686c2.155,0 3.798,-2.4 4.886,-7.133h0.41c0.28,0 0.468,-0.242 0.468,-0.467c0,-0.24 -0.227,-0.467 -0.468,-0.467h-0.18c0.018,-0.079 0.033,-0.156 0.049,-0.233c0.023,-0.113 0.045,-0.227 0.075,-0.347c0.337,-1.767 0.592,-3.789 0.761,-6.016h0.245c0.279,0 0.467,-0.241 0.467,-0.467c0,-0.247 -0.296,-0.467 -0.529,-0.467Z"></path><path fill="#000" fill-rule="evenodd" stroke="none" d="M5.2465,10.238c0.249,0 0.451,0.202 0.451,0.451c0,0.249 -0.202,0.452 -0.451,0.452c-0.249,0 -0.451,-0.203 -0.451,-0.452c0,-0.265 0.185,-0.451 0.451,-0.451m0,1.837c0.764,0 1.385,-0.622 1.385,-1.386c0,-0.768 -0.634,-1.416 -1.385,-1.416c-0.764,0 -1.385,0.635 -1.385,1.416c0,0.79 0.595,1.386 1.385,1.386"></path><path fill="#000" fill-rule="evenodd" stroke="none" d="M5.8666,22.4176c-0.249,0 -0.451,-0.202 -0.451,-0.451c0,-0.249 0.202,-0.452 0.451,-0.452c0.249,0 0.451,0.203 0.451,0.452c0,0.258 -0.238,0.451 -0.451,0.451m-1.385,-0.42c0,0.764 0.621,1.385 1.385,1.385c0.764,0 1.385,-0.621 1.385,-1.385c0,-0.764 -0.621,-1.386 -1.385,-1.386c-0.764,0 -1.385,0.622 -1.385,1.386"></path><path fill="#000" fill-rule="evenodd" stroke="none" d="M8.859,16.3294c0.249,0 0.451,0.202 0.451,0.451c0,0.249 -0.202,0.452 -0.451,0.452c-0.249,0 -0.451,-0.203 -0.451,-0.452c0,-0.249 0.202,-0.451 0.451,-0.451m-0.472,1.748c-0.388,5.279 -1.37,8.747 -1.776,9.997c-0.012,0.038 -0.018,0.057 -0.022,0.069c-0.038,0.122 -0.024,0.265 0.038,0.383c0.059,0.113 0.158,0.195 0.276,0.229l0.014,0.004h0.014c0.005,0.002 0.018,0.007 0.03,0.011c0.03,0.01 0.061,0.02 0.092,0.02c0.202,0 0.387,-0.123 0.46,-0.308c0.014,-0.033 1.366,-3.759 1.87,-10.37c0.547,-0.192 0.924,-0.717 0.924,-1.299c-0.031,-0.584 -0.345,-1.07 -0.826,-1.291c0.062,-2.309 0.02,-4.575 -0.124,-6.737c0,-0.256 -0.219,-0.461 -0.498,-0.461c-0.262,0 -0.467,0.219 -0.467,0.498c0.144,2.11 0.186,4.326 0.124,6.595c-0.609,0.164 -1.042,0.726 -1.042,1.365c0,0.578 0.371,1.1 0.913,1.295"></path><path fill="#000" fill-rule="evenodd" stroke="none" d="M5.175,14.8285c0.249,0 0.451,0.202 0.451,0.451c0,0.259 -0.238,0.452 -0.451,0.452c-0.249,0 -0.451,-0.203 -0.451,-0.452c0,-0.249 0.202,-0.451 0.451,-0.451m0,1.868c0.764,0 1.385,-0.622 1.385,-1.386c0,-0.764 -0.621,-1.385 -1.385,-1.385c-0.764,0 -1.385,0.621 -1.385,1.385c0,0.764 0.621,1.386 1.385,1.386"></path></g></svg>