<svg viewBox="0 0 30 30" xmlns="http://www.w3.org/2000/svg">
    <path d="M21.3 14.3L21.3 14.3 21.3 14.3C21.3 14.3 21.3 14.3 21.3 14.3zM14.1 2.8C14 2.8 14 2.8 14.1 2.8 14 2.8 14.1 2.8 14.1 2.8 14.1 2.8 14.1 2.8 14.1 2.8zM14 3.7L14 3.7c-0.4 0.3-0.9 0.6-1.3 1 -0.2 0.2-0.2 0.5 0 0.7 0.1 0.1 0.2 0.1 0.3 0.1 0.1 0 0.3-0.1 0.3-0.1 0.5-0.5 1.1-0.8 1.9-1 0.7 0.2 1.3 0.5 1.9 1 0.1 0.1 0.2 0.1 0.3 0.1 0.1 0 0.3 0 0.4-0.2C17.9 5.3 18 5.1 18 5c0-0.1-0.1-0.3-0.1-0.3 -0.5-0.4-0.9-0.7-1.3-0.9V3.7c3.5 1.1 4 3.7 4 5.1 0 2.3-0.1 4.2-0.2 5.9l0 0.1v0c-0.3 3.3-1.4 14.2-5 14.2 -2.2 0-3.4-3.8-4.1-7C10.5 18.4 10 13.4 10 8.8 10 7.4 10.5 4.8 14 3.7zM13.6 1.6c0-0.1 0-0.1 0-0.2 0-0.1 0-0.1 0.1-0.2 0.1 0 0.1-0.1 0.2-0.1 1.3 0.1 1.6 1.4 1.6 2.2 0 0 0 0.1 0 0.1 -0.1 0-0.2 0-0.2 0l-0.1 0h0l0 0c0 0-0.1 0-0.2 0.1 0-0.8-0.3-1.7-1.1-1.8C13.8 1.7 13.7 1.6 13.6 1.6zM9.7 17.4C9.7 17.4 9.7 17.4 9.7 17.4L9.7 17.4 9.7 17.4zM20.4 21.9C20.4 21.9 20.4 21.9 20.4 21.9L20.4 21.9 20.4 21.9zM21.5 14.2h-0.2c0.2-2.3 0.2-4.2 0.2-5.4 0-4.3-3.5-5.7-5.1-6.1 -0.2-0.9-0.7-2.4-2.4-2.5 0 0-0.1 0-0.1 0 -0.3 0-0.6 0.1-0.8 0.3 -0.2 0.2-0.4 0.5-0.4 0.9 0 0.3 0.1 0.7 0.3 0.9 0.2 0.2 0.5 0.4 0.9 0.4 0 0 0 0 0.1 0.1 -1.5 0.5-4.8 2-4.8 6 0 2.5 0.2 5.6 0.5 8.5l0 0.1 0 0H9.2c-0.3 0-0.5 0.2-0.5 0.5 0 0.2 0.2 0.5 0.5 0.5h0.5c0.1 1.1 0.3 2.1 0.4 2.8 1 5.8 2.8 8.7 5.2 8.7 2.2 0 3.8-2.4 4.9-7.1h0.4c0.3 0 0.5-0.2 0.5-0.5 0-0.2-0.2-0.5-0.5-0.5h-0.2c0-0.1 0-0.2 0-0.2 0-0.1 0-0.2 0.1-0.3 0.3-1.8 0.6-3.8 0.8-6h0.2c0.3 0 0.5-0.2 0.5-0.5C22 14.5 21.7 14.2 21.5 14.2z" />
    <path d="M13.2 9.2c0.2 0 0.5 0.2 0.5 0.5 0 0.2-0.2 0.5-0.5 0.5s-0.5-0.2-0.5-0.5C12.8 9.4 13 9.2 13.2 9.2M13.2 11.1c0.8 0 1.4-0.6 1.4-1.4 0-0.8-0.6-1.4-1.4-1.4 -0.8 0-1.4 0.6-1.4 1.4C11.9 10.5 12.5 11.1 13.2 11.1" />
    <path d="M13.9 21.4c-0.2 0-0.5-0.2-0.5-0.5 0-0.2 0.2-0.5 0.5-0.5s0.5 0.2 0.5 0.5C14.3 21.2 14.1 21.4 13.9 21.4M12.5 21c0 0.8 0.6 1.4 1.4 1.4s1.4-0.6 1.4-1.4 -0.6-1.4-1.4-1.4S12.5 20.2 12.5 21" />
    <path d="M16.9 15.3c0.2 0 0.5 0.2 0.5 0.5 0 0.2-0.2 0.5-0.5 0.5 -0.2 0-0.5-0.2-0.5-0.5C16.4 15.5 16.6 15.3 16.9 15.3M16.4 17.1c-0.4 5.3-1.4 8.7-1.8 10 0 0 0 0.1 0 0.1 0 0.1 0 0.3 0 0.4 0.1 0.1 0.2 0.2 0.3 0.2l0 0h0c0 0 0 0 0 0 0 0 0.1 0 0.1 0 0.2 0 0.4-0.1 0.5-0.3 0 0 1.4-3.8 1.9-10.4 0.5-0.2 0.9-0.7 0.9-1.3 0-0.6-0.3-1.1-0.8-1.3 0.1-2.3 0-4.6-0.1-6.7 0-0.3-0.2-0.5-0.5-0.5 -0.3 0-0.5 0.2-0.5 0.5 0.1 2.1 0.2 4.3 0.1 6.6 -0.6 0.2-1 0.7-1 1.4C15.5 16.4 15.8 16.9 16.4 17.1" />
    <path d="M13.2 13.8c0.2 0 0.5 0.2 0.5 0.5 0 0.3-0.2 0.5-0.5 0.5 -0.2 0-0.5-0.2-0.5-0.5S12.9 13.8 13.2 13.8M13.2 15.7c0.8 0 1.4-0.6 1.4-1.4 0-0.8-0.6-1.4-1.4-1.4 -0.8 0-1.4 0.6-1.4 1.4C11.8 15.1 12.4 15.7 13.2 15.7" />
</svg>

