<svg xmlns="http://www.w3.org/2000/svg" viewBox="0 0 30 30"><path d="M28 15H2c-1 0-1.5-.5-1.5-1.5V10C.5 9 1 8 2 8h26c1 0 1.5 1 1.5 2v3.5c0 1-.5 1.5-1.5 1.5zM2 9c-.3 0-.5.6-.5 1v3.5c0 .4.1.5.5.5h26c.4 0 .5-.1.5-.5V10c0-.4-.2-1-.5-1H2z"/><path d="M25.5 29h-21c-1.7 0-3-1.9-3-3.5v-11A.47.47 0 0 1 2 14h26a.47.47 0 0 1 .5.5v11c0 1.6-1.3 3.5-3 3.5zm-23-14v10.5c0 1.1.9 2.5 2 2.5h21c1.1 0 2-1.4 2-2.5V15h-25zm12.3-6.5c-3.3 0-6.3-2.2-7.2-5.2-.2-.6 0-1.3.4-1.8C8.5 1 9.2.8 9.8 1c3.2 1 5.5 3.9 5.5 7 0 .3-.3.5-.5.5zM9.3 2a.55.55 0 0 0-.5.3c-.3.2-.4.5-.3.8.7 2.4 3.1 4.2 5.7 4.4C14 5 12.1 2.8 9.6 2h-.3z"/><path d="M14.8 8.5a.47.47 0 0 1-.5-.5c0-3.3 1.9-6 4.9-6.9.6-.2 1.3 0 1.8.5s.7 1.2.5 1.8c-1 3.1-3.6 5.1-6.7 5.1zM19.7 2h-.2c-2.4.7-4 2.8-4.2 5.4 2.4-.2 4.4-1.9 5.2-4.4.1-.3 0-.6-.2-.8-.2-.1-.4-.2-.6-.2z"/><path d="M15 28.5a.47.47 0 0 1-.5-.5V9.1l-3.2 2.8c-.2.2-.5.2-.7 0s-.2-.5 0-.7l4-3.5c.1-.1.4-.2.5-.1a.55.55 0 0 1 .3.5v20c.1.2-.1.4-.4.4z"/><path d="M18 12a.76.76 0 0 1-.4-.2l-3-3.5c-.2-.2-.2-.5.1-.7.2-.2.5-.2.7.1l3 3.5c.2.2.2.5-.1.7-.1.1-.2.1-.3.1z"/></svg>