<svg xmlns="http://www.w3.org/2000/svg" viewBox="0 0 30 30"><path d="M22 30H8a1.54 1.54 0 0 1-1.5-1.5v-11C6.5 16.1 7.6 15 9 15h12c1.4 0 2.5 1.1 2.5 2.5v11A1.54 1.54 0 0 1 22 30zM9 16a1.54 1.54 0 0 0-1.5 1.5v11a.47.47 0 0 0 .5.5h14a.47.47 0 0 0 .5-.5v-11A1.54 1.54 0 0 0 21 16H9z"/><path d="M19 16h-8a.47.47 0 0 1-.5-.5v-4a.47.47 0 0 1 .5-.5h8a.47.47 0 0 1 .5.5v4a.47.47 0 0 1-.5.5zm-7.5-1h7v-3h-7v3z"/><path d="M17.5 12c-.2 0-.4-.2-.5-.4l-2-8.9-2 8.9c-.1.3-.3.4-.6.4-.3-.1-.4-.3-.4-.6l2.5-11c.1-.2.3-.4.5-.4s.4.2.5.4l2.5 11c.1.3-.1.5-.4.6h-.1z"/></svg>