<svg xmlns="http://www.w3.org/2000/svg" viewBox="0 0 30 30"><path d="M16.3 29.7H16l-8.4-2.2a1.11 1.11 0 0 1-.8-1.3l5-18.6a1.11 1.11 0 0 1 1.3-.8L21.5 9c.3.1.5.2.6.5.1.2.2.5.1.8l-5 18.6c-.1.3-.2.5-.5.6 0 .1-.2.2-.4.2zM13 7.6L7.9 26.3l8.4 2.3h.1l5-18.6L13 7.6zm9.9-3.2l-1-.3.2-.6c.1-.4-.2-.7-.6-.9l-5-1.3c-.2-.1-.5 0-.6.1-.2.1-.3.2-.3.4l-.2.6-1-.3.2-.6a1.59 1.59 0 0 1 .8-1c.4-.2.9-.2 1.3-.1l5 1.3c1 .3 1.6 1.2 1.3 2.1l-.1.6z"/><path d="M8.545 21.666l.26-.966 9.562 2.562-.26.966z"/><path d="M9.305 26.93l1.35-5.022.966.26-1.35 5.022zm2.32.54l1.35-5.022.966.26-1.35 5.022zm2.295.636l1.35-5.022.966.26-1.35 5.022zM21.4 9.9l-8.5-2.3L14.4 2l8.5 2.3-1.5 5.6zm-7.3-3l6.6 1.8 1-3.7-6.6-1.8-1 3.7z"/></svg>