<svg xmlns="http://www.w3.org/2000/svg" viewBox="0 0 30 30"><path d="M4.7 17.6a.76.76 0 0 1-.4-.2c-.3-.3-.3-.9 0-1.5l8.2-14.8c.3-.5.9-.8 1.4-.6 2.2.5 9.5 2.5 11.6 3 .3.1.5.3.5.6s-.1.6-.3.7L5.2 17.5c-.2.1-.3.1-.5.1zm9-16.1c-.1 0-.2 0-.2.1L5.4 16.2 24.7 4.4l-11-2.9z"/><path d="M5.3 28.9c-.2 0-.3 0-.5-.1-.3-.2-.5-.5-.5-.9l-.2-11.1h1L5.3 28l19.4-12c.1 0 .1-.1.1-.2l.3-11.7h1l-.3 11.7a1.1 1.1 0 0 1-.6 1l-19.4 12c-.1.1-.3.1-.5.1z"/><circle cx="23.2" cy="10.9" r=".8"/><circle cx="17.9" cy="11.8" r=".8"/><circle cx="11.3" cy="18.4" r=".8"/><circle cx="8.4" cy="23.1" r=".8"/><circle cx="18.2" cy="18" r=".8"/><circle cx="7.3" cy="18.5" r=".8"/><circle cx="14.8" cy="19.6" r=".4"/><circle cx="6" cy="26.1" r=".4"/><circle cx="12" cy="17.4" r=".4"/><circle cx="12.7" cy="15.2" r=".4"/><circle cx="16.7" cy="14.2" r=".4"/><circle cx="23.6" cy="7.4" r=".4"/><circle cx="15.7" cy="17.9" r=".3"/><circle cx="20.7" cy="10.2" r=".3"/><circle cx="22.8" cy="8.4" r=".3"/><circle cx="20" cy="16.4" r=".3"/><circle cx="15.6" cy="12.6" r=".3"/><circle cx="6.8" cy="23" r=".3"/><circle cx="7.6" cy="19.9" r=".3"/><circle cx="22.7" cy="15.2" r=".4"/><circle cx="9.8" cy="23.5" r=".4"/></svg>