<?xml version="1.0" encoding="UTF-8"?><svg version="1.1" viewBox="0 0 30 30" xmlns="http://www.w3.org/2000/svg" xmlns:xlink="http://www.w3.org/1999/xlink"><path d="M10.338,13.987c1.184,1.176 3.109,1.176 4.293,0c0.138,-0.138 0.261,-0.286 0.368,-0.445c0.107,0.158 0.229,0.307 0.368,0.444c0.591,0.588 1.369,0.882 2.146,0.882c0.777,0 1.554,-0.294 2.147,-0.88c1.045,-1.039 2.635,-5.79 2.813,-6.329c0.071,-0.216 -0.012,-0.452 -0.203,-0.576c-0.192,-0.124 -0.442,-0.102 -0.609,0.051c-0.007,0.007 -0.779,0.706 -1.734,1.049c-0.611,0.22 -1.305,0.389 -1.977,0.553c-1.185,0.289 -2.121,0.518 -2.583,0.977c-0.139,0.137 -0.262,0.286 -0.368,0.444c-0.107,-0.158 -0.23,-0.307 -0.368,-0.445c-0.462,-0.459 -1.398,-0.687 -2.583,-0.977c-0.672,-0.164 -1.367,-0.334 -1.977,-0.553c-0.955,-0.343 -1.726,-1.042 -1.734,-1.049c-0.168,-0.154 -0.418,-0.176 -0.609,-0.051c-0.191,0.123 -0.274,0.36 -0.203,0.576c0.177,0.539 1.767,5.29 2.813,6.329Zm5.158,-2.327c0.045,-0.483 0.244,-0.912 0.575,-1.241c0.264,-0.263 1.248,-0.503 2.115,-0.715c0.697,-0.17 1.417,-0.346 2.077,-0.583c0.271,-0.097 0.527,-0.216 0.76,-0.341c-0.669,1.841 -1.553,3.984 -2.069,4.496c-0.794,0.79 -2.087,0.792 -2.883,0c-0.331,-0.329 -0.53,-0.758 -0.575,-1.241c-0.007,-0.067 -0.027,-0.131 -0.056,-0.187c0.03,-0.056 0.049,-0.12 0.056,-0.188Zm-5.763,-2.539c0.66,0.237 1.38,0.413 2.077,0.583c0.867,0.212 1.85,0.451 2.115,0.714c0.331,0.33 0.53,0.759 0.575,1.242c0.007,0.068 0.027,0.131 0.056,0.188c-0.03,0.056 -0.049,0.12 -0.056,0.187c-0.045,0.483 -0.244,0.912 -0.575,1.241c-0.795,0.791 -2.088,0.79 -2.883,0c-0.515,-0.512 -1.4,-2.655 -2.069,-4.496c0.233,0.126 0.489,0.244 0.76,0.341Zm5.235,-0.121c1.671,0 3.03,-1.42 3.03,-3.167c0,-1.576 -2.344,-5.199 -2.612,-5.607c-0.091,-0.14 -0.246,-0.225 -0.413,-0.226c-0.138,0.011 -0.323,0.08 -0.418,0.218c-0.264,0.387 -2.586,3.831 -2.617,5.607c-0.016,0.858 0.303,1.664 0.899,2.27c0.573,0.584 1.33,0.905 2.131,0.905Zm-0.007,-7.578c0.916,1.485 2.037,3.578 2.037,4.411c0,1.195 -0.911,2.167 -2.03,2.167c-0.53,0 -1.033,-0.215 -1.417,-0.606c-0.406,-0.413 -0.624,-0.964 -0.613,-1.552c0.018,-1.04 1.228,-3.167 2.023,-4.42Zm7.247,11.625c-0.225,-0.104 -0.496,-0.025 -0.629,0.185c-0.207,0.323 -0.906,1.221 -1.651,1.488c-0.611,0.22 -1.305,0.389 -1.977,0.553c-1.185,0.29 -2.121,0.519 -2.583,0.977c-0.139,0.138 -0.261,0.286 -0.368,0.445c-0.107,-0.159 -0.23,-0.307 -0.368,-0.445c-0.462,-0.459 -1.398,-0.687 -2.583,-0.977c-0.672,-0.164 -1.367,-0.334 -1.977,-0.553c-0.74,-0.265 -1.443,-1.164 -1.651,-1.488c-0.135,-0.21 -0.406,-0.288 -0.63,-0.184c-0.227,0.104 -0.342,0.359 -0.271,0.597c0.177,0.594 1.767,5.836 2.818,6.88c1.184,1.176 3.109,1.176 4.293,0c0.138,-0.138 0.261,-0.286 0.368,-0.445c0.107,0.158 0.229,0.307 0.368,0.444c0.591,0.588 1.369,0.882 2.146,0.882c0.777,0 1.554,-0.294 2.148,-0.881c1.05,-1.044 2.64,-6.286 2.818,-6.88c0.072,-0.239 -0.044,-0.494 -0.271,-0.598Zm-7.708,5.526c-0.045,0.483 -0.244,0.913 -0.575,1.242c-0.795,0.792 -2.088,0.79 -2.883,0c-0.479,-0.476 -1.282,-2.548 -1.93,-4.469c0.195,0.127 0.403,0.236 0.621,0.314c0.66,0.237 1.38,0.413 2.077,0.583c0.867,0.212 1.85,0.452 2.115,0.715c0.331,0.328 0.53,0.758 0.575,1.241c0.007,0.067 0.027,0.13 0.056,0.187c-0.03,0.057 -0.049,0.12 -0.056,0.187Zm4.454,1.241c-0.794,0.79 -2.087,0.792 -2.883,0c-0.331,-0.328 -0.53,-0.758 -0.575,-1.241c-0.007,-0.067 -0.027,-0.13 -0.056,-0.187c0.03,-0.057 0.049,-0.12 0.057,-0.188c0.045,-0.483 0.244,-0.912 0.575,-1.241c0.264,-0.263 1.248,-0.503 2.115,-0.715c0.697,-0.17 1.417,-0.346 2.077,-0.583c0.218,-0.078 0.426,-0.187 0.62,-0.314c-0.649,1.922 -1.451,3.993 -1.93,4.469Zm3.307,0.259c-0.197,-0.12 -0.453,-0.09 -0.616,0.075c-0.008,0.007 -0.766,0.767 -1.717,1.108c-0.61,0.219 -1.304,0.388 -1.975,0.552c-1.186,0.29 -2.122,0.519 -2.585,0.978c-0.138,0.138 -0.261,0.286 -0.368,0.445c-0.107,-0.158 -0.229,-0.307 -0.368,-0.444c-0.463,-0.459 -1.399,-0.688 -2.585,-0.978c-0.671,-0.164 -1.366,-0.333 -1.975,-0.552c-0.944,-0.338 -1.71,-1.101 -1.718,-1.108c-0.163,-0.164 -0.417,-0.195 -0.615,-0.074c-0.197,0.121 -0.286,0.361 -0.215,0.581c0.177,0.547 1.767,5.367 2.814,6.407c1.184,1.176 3.109,1.176 4.293,0c0.138,-0.138 0.261,-0.286 0.368,-0.445c0.107,0.158 0.229,0.307 0.368,0.444c0.591,0.588 1.369,0.882 2.146,0.882c0.777,0 1.554,-0.294 2.149,-0.882c1.046,-1.04 2.636,-5.861 2.814,-6.407c0.071,-0.221 -0.018,-0.461 -0.215,-0.582Zm-7.761,5.037c-0.045,0.483 -0.244,0.913 -0.575,1.242c-0.795,0.791 -2.088,0.79 -2.883,0c-0.51,-0.507 -1.382,-2.64 -2.049,-4.495c0.228,0.128 0.477,0.247 0.74,0.339c0.659,0.236 1.379,0.412 2.075,0.582c0.868,0.212 1.852,0.452 2.117,0.716c0.331,0.329 0.53,0.758 0.575,1.241c0.007,0.067 0.027,0.131 0.056,0.187c-0.03,0.057 -0.049,0.121 -0.056,0.188Zm4.454,1.242c-0.794,0.79 -2.087,0.792 -2.883,0c-0.331,-0.328 -0.53,-0.758 -0.575,-1.241c-0.007,-0.068 -0.027,-0.131 -0.056,-0.188c0.03,-0.056 0.049,-0.119 0.057,-0.188c0.045,-0.483 0.244,-0.912 0.575,-1.241c0.264,-0.263 1.249,-0.503 2.117,-0.715c0.696,-0.17 1.416,-0.346 2.075,-0.582c0.262,-0.094 0.511,-0.213 0.739,-0.34c-0.667,1.855 -1.539,3.988 -2.049,4.495Zm-3.956,1.648c-0.276,0 -0.5,0.224 -0.5,0.5v1c0,0.276 0.224,0.5 0.5,0.5c0.276,0 0.5,-0.224 0.5,-0.5v-1c0,-0.276 -0.224,-0.5 -0.5,-0.5Z" fill="#000"></path></svg>