<svg xmlns="http://www.w3.org/2000/svg" viewBox="0 0 30 30"><path d="M11.7 26.3l-.7-.7 7.9-7.8-6.6-6.7-7.9 7.8-.7-.7 8.2-8c.3-.3.7-.2 1 0l7 7.1c.3.3.3.7 0 1l-8.2 8zm10.9-10.6l-.7-.7 6.8-6.6-6.5-6.7-6.8 6.6-.7-.7 7.2-7h.3c.2 0 .4.1.5.2l7 7.1c.3.3.3.7 0 1l-7.1 6.8z"/><path d="M9 29.5l-.5-2.3-1.7.3v-2.1l-1.9-.1-.1-1.9-2.1-.1.3-1.8-2.8-1.1 2.4-1.1L3.9 18l.7.7L3 20.2l-.2.1 1.4.5-.3 1.5 1.9.1.1 2 1.9.1v1.8l1.5-.2.2 1 1.7-1.7.7.7-1.5 1.4z"/><path d="M3.567 19.14l.715-.7 7.13 7.295-.715.7zM20.5 19.1c-.2 0-.4-.1-.5-.2l-8.6-8.8c-.3-.3-.3-.7 0-1l2-1.9c.2-.1.3-.2.5-.2s.4.1.5.2L23 16c.3.3.3.7 0 1l-2 1.9c-.1.1-.3.2-.5.2zm-8.1-9.5l8.1 8.3 1.5-1.5-8.1-8.3-1.5 1.5zm1.7-1.7zm-.4 0zm8.2-.5c-.2 0-.4 0-.7-.1-1.5-.6-.9-2-.6-2.8.5-1.2 2-1.6 2.1-1.6l.3-.1.2.3c0 .1.9 1.4.4 2.6-.2.6-.4 1-.8 1.3-.2.2-.5.4-.9.4zm.6-3.5c-.4.2-.8.5-1 .9-.5 1.2-.3 1.3.1 1.5.3.1.4.1.5 0 .2-.2.4-.6.5-1 .2-.4.1-1-.1-1.4zm-2.3 7c-.5 0-1-.1-1.4-.4-.7-.5-1.9-1.4-1-2.7.5-.7 1.1-.7 1.5-.7.4.1.8.3 1.4.7 1 .7 1.1 2.3 1.1 2.4v.4l-.4.1c-.1.1-.6.2-1.2.2zm-.9-1.2c.4.3.9.2 1.3.2 0-.4-.2-.9-.6-1.2-.3-.2-.7-.5-1-.5-.1 0-.3 0-.5.3-.1.3-.2.5.8 1.2z"/><path d="M25.4 11.5c-.4 0-.7-.1-1.1-.2-1.2-.3-1.9-1.7-1.9-1.8l-.2-.3.3-.2s1.3-1.1 2.5-.8c.8.2 2.3.5 1.9 2.1-.1.5-.3.8-.6 1s-.6.2-.9.2zm-1.9-1.9c.2.3.6.8 1 .9.3.1 1 .2 1.2.1 0 0 .1-.1.2-.4.1-.5.1-.7-1.1-1a1.48 1.48 0 0 0-1.3.4z"/><circle cx="22.4" cy="12.4" r=".4"/><circle cx="24.8" cy="6.8" r=".5"/><circle cx="19.4" cy="6.3" r=".4"/><circle cx="20.7" cy="12.1" r=".4"/></svg>