<?xml version="1.0" encoding="UTF-8"?><svg version="1.1" viewBox="0 0 30 30" xmlns="http://www.w3.org/2000/svg" xmlns:xlink="http://www.w3.org/1999/xlink"><path d="M25.479,13.478c0,-1.642 -1.336,-2.978 -2.979,-2.978c-1.033,0 -1.944,0.53 -2.478,1.331c-0.534,-0.801 -1.445,-1.331 -2.478,-1.331c-0.781,0 -1.487,0.308 -2.019,0.801c0.019,-2.044 0.341,-4.965 1.036,-7.178c0.575,0.963 1.23,1.745 1.918,2.345c-0.362,0.288 -0.64,0.526 -0.788,0.656c-0.208,0.183 -0.229,0.498 -0.047,0.706c0.183,0.208 0.498,0.228 0.706,0.047c0.304,-0.266 0.624,-0.53 0.951,-0.784c0.951,0.624 1.916,0.927 2.764,0.927c0.292,0 0.571,-0.036 0.827,-0.107c1.108,-0.307 1.732,-1.248 1.626,-2.457c-0.073,-0.838 -0.499,-1.179 -0.843,-1.317c-1.089,-0.44 -2.993,0.693 -4.385,1.708c-0.805,-0.661 -1.601,-1.631 -2.26,-2.955c0.516,-1.135 1.173,-1.892 1.991,-1.892c0.276,0 0.5,-0.224 0.5,-0.5c0,-0.276 -0.224,-0.5 -0.5,-0.5c-3.611,0 -4.461,7.931 -4.497,11.271c-0.528,-0.474 -1.218,-0.771 -1.981,-0.771c-1.066,0 -1.995,0.567 -2.522,1.41c-0.526,-0.843 -1.456,-1.41 -2.521,-1.41c-1.642,0 -2.978,1.336 -2.978,2.978c0,1.634 1.322,2.962 2.952,2.976c-0.253,0.438 -0.409,0.939 -0.409,1.48c0,1.621 1.303,2.938 2.916,2.973c-0.286,0.457 -0.459,0.993 -0.459,1.571c0,1.643 1.336,2.979 2.978,2.979c0.007,0 0.014,-0.002 0.021,-0.002c-0.285,0.456 -0.456,0.991 -0.456,1.567c0,1.642 1.336,2.978 2.979,2.978c1.642,0 2.978,-1.336 2.978,-2.978c0,-0.578 -0.172,-1.114 -0.459,-1.571c1.613,-0.035 2.916,-1.351 2.916,-2.973c0,-0.577 -0.172,-1.111 -0.457,-1.567c0.007,0 0.014,0.002 0.022,0.002c1.642,0 2.978,-1.336 2.978,-2.979c0,-0.544 -0.158,-1.048 -0.414,-1.488c1.592,-0.058 2.871,-1.362 2.871,-2.968Zm-2.175,-8.411c0.046,0.019 0.184,0.074 0.22,0.477c0.065,0.739 -0.245,1.225 -0.896,1.405c-0.616,0.171 -1.508,0.039 -2.458,-0.497c1.341,-0.938 2.627,-1.585 3.134,-1.385Zm-5.76,6.433c1.091,0 1.978,0.887 1.978,1.978c0,1.091 -0.887,1.979 -1.978,1.979c-1.091,0 -1.979,-0.888 -1.979,-1.979c0,-1.091 0.888,-1.978 1.979,-1.978Zm-2.5,4.457c1.091,0 1.978,0.887 1.978,1.978c0,1.091 -0.887,1.979 -1.978,1.979c-1.091,0 -1.979,-0.888 -1.979,-1.979c0,-1.091 0.888,-1.978 1.979,-1.978Zm-2.5,-4.457c1.091,0 1.978,0.887 1.978,1.978c0,1.091 -0.887,1.979 -1.978,1.979c-1.091,0 -1.979,-0.888 -1.979,-1.979c0,-1.091 0.888,-1.978 1.979,-1.978Zm-5.044,3.957c-1.091,0 -1.978,-0.888 -1.978,-1.979c0,-1.091 0.887,-1.978 1.978,-1.978c1.091,0 1.979,0.887 1.979,1.978c0,1.091 -0.888,1.979 -1.979,1.979Zm2.544,4.457c-1.091,0 -1.979,-0.888 -1.979,-1.979c0,-1.091 0.888,-1.978 1.979,-1.978c1.091,0 1.978,0.887 1.978,1.978c0,1.091 -0.887,1.979 -1.978,1.979Zm2.456,4.543c-1.091,0 -1.978,-0.888 -1.978,-1.979c0,-1.091 0.887,-1.978 1.978,-1.978c1.091,0 1.979,0.887 1.979,1.978c0,1.091 -0.888,1.979 -1.979,1.979Zm2.544,4.543c-1.091,0 -1.979,-0.887 -1.979,-1.978c0,-1.091 0.888,-1.979 1.979,-1.979c1.091,0 1.978,0.888 1.978,1.979c0,1.091 -0.887,1.978 -1.978,1.978Zm2.456,-4.543c-1.091,0 -1.978,-0.888 -1.978,-1.979c0,-1.091 0.887,-1.978 1.978,-1.978c1.091,0 1.979,0.887 1.979,1.978c0,1.091 -0.888,1.979 -1.979,1.979Zm2.544,-4.543c-1.091,0 -1.979,-0.888 -1.979,-1.979c0,-1.091 0.888,-1.978 1.979,-1.978c1.091,0 1.978,0.887 1.978,1.978c0,1.091 -0.887,1.979 -1.978,1.979Zm2.456,-4.457c-1.091,0 -1.978,-0.888 -1.978,-1.979c0,-1.091 0.887,-1.978 1.978,-1.978c1.091,0 1.979,0.887 1.979,1.978c0,1.091 -0.888,1.979 -1.979,1.979Z" fill="#000"></path></svg>