<svg xmlns="http://www.w3.org/2000/svg" xmlns:xlink="http://www.w3.org/1999/xlink" viewBox="0 0 30 30"><path d="M21.5 28h-14a.5.5 0 1 1 0-1h14a.5.5 0 1 1 0 1zm3 2h-20c-.137 0-.27-.056-.362-.156s-.145-.233-.137-.37l1-19A.5.5 0 0 1 5.5 10h18a.5.5 0 0 1 .499.474l1 19c.008.137-.042.27-.137.37A.5.5 0 0 1 24.5 30zM5.027 29h18.945l-.947-18H5.975l-.948 18z"/><path d="M23.5 11h-18a.5.5 0 0 1-.5-.5v-2A8.51 8.51 0 0 1 13.5 0h2A8.51 8.51 0 0 1 24 8.5v2a.5.5 0 0 1-.5.5zM6 10h17V8.5A7.51 7.51 0 0 0 15.5 1h-2A7.51 7.51 0 0 0 6 8.5V10z"/><use xlink:href="#B"/><path d="M8.5 23A1.5 1.5 0 0 1 7 21.5a.5.5 0 1 1 1 0 .5.5 0 1 0 1 0 .5.5 0 1 1 1 0A1.5 1.5 0 0 1 8.5 23z"/><use xlink:href="#B" x="4"/><use xlink:href="#B" x="-4"/><use xlink:href="#B" y="3"/><path d="M8.5 26A1.5 1.5 0 0 1 7 24.5a.5.5 0 1 1 1 0 .5.5 0 1 0 1 0 .5.5 0 1 1 1 0A1.5 1.5 0 0 1 8.5 26z"/><use xlink:href="#B" x="4" y="3"/><use xlink:href="#B" x="-4" y="3"/><use xlink:href="#B" y="-3"/><path d="M8.5 20A1.5 1.5 0 0 1 7 18.5a.5.5 0 1 1 1 0 .5.5 0 1 0 1 0 .5.5 0 1 1 1 0A1.5 1.5 0 0 1 8.5 20z"/><use xlink:href="#B" x="4" y="-3"/><use xlink:href="#B" x="-4" y="-3"/><use xlink:href="#B" y="-6"/><path d="M8.5 17A1.5 1.5 0 0 1 7 15.5a.5.5 0 1 1 1 0 .5.5 0 1 0 1 0 .5.5 0 1 1 1 0A1.5 1.5 0 0 1 8.5 17z"/><use xlink:href="#B" x="4" y="-6"/><use xlink:href="#B" x="-4" y="-6"/><use xlink:href="#B" y="-9"/><path d="M8.5 14A1.5 1.5 0 0 1 7 12.5a.5.5 0 1 1 1 0 .5.5 0 1 0 1 0 .5.5 0 1 1 1 0A1.5 1.5 0 0 1 8.5 14z"/><use xlink:href="#B" x="4" y="-9"/><use xlink:href="#B" x="-4" y="-9"/><defs ><path id="B" d="M16.5 23a1.5 1.5 0 0 1-1.5-1.5.5.5 0 1 1 1 0 .5.5 0 1 0 1 0 .5.5 0 1 1 1 0 1.5 1.5 0 0 1-1.5 1.5z"/></defs></svg>