<?xml version="1.0" encoding="UTF-8"?><svg version="1.1" viewBox="0 0 30 30" xmlns="http://www.w3.org/2000/svg" xmlns:xlink="http://www.w3.org/1999/xlink"><g fill="#000"><path d="M7.5,30c0,0 -0.1,0 -0.1,0c-0.3,-0.1 -0.4,-0.3 -0.4,-0.6l3,-11c0.1,-0.3 0.3,-0.4 0.6,-0.4c0.3,0.1 0.4,0.3 0.4,0.6l-3,11c-0.1,0.3 -0.3,0.4 -0.5,0.4Z"></path><path d="M18.7,26.9c-0.2,0 -0.4,-0.1 -0.5,-0.4l-2.2,-7.9c-0.1,-0.3 0.1,-0.5 0.4,-0.6c0.3,-0.1 0.5,0.1 0.6,0.4l2.1,7.9c0.1,0.3 -0.1,0.5 -0.4,0.6c-3.55271e-15,0 -3.55271e-15,0 -3.55271e-15,0Z"></path><path d="M18,25h-9c-0.3,0 -0.5,-0.2 -0.5,-0.5c0,-0.3 0.2,-0.5 0.5,-0.5h9c0.3,0 0.5,0.2 0.5,0.5c0,0.3 -0.2,0.5 -0.5,0.5Z"></path><path d="M8,12.5c-0.1,0 -0.3,-0.1 -0.4,-0.2c-0.2,-0.2 -0.2,-0.5 0,-0.7c0.5,-0.5 0.4,-0.7 -0.1,-1.4c-0.3,-0.6 -1,-1.6 0.2,-2.6c0.2,-0.2 0.5,-0.2 0.7,0c0.2,0.2 0.2,0.5 0,0.7c-0.5,0.5 -0.5,0.7 0,1.4c0.4,0.6 1.1,1.6 -0.1,2.7c-0.1,0.1 -0.2,0.1 -0.3,0.1Z"></path><path d="M11,12.5c-0.1,0 -0.3,-0.1 -0.4,-0.2c-0.2,-0.2 -0.2,-0.5 0,-0.7c0.5,-0.5 0.4,-0.7 -0.1,-1.4c-0.4,-0.6 -1.1,-1.6 0.1,-2.6c0.2,-0.2 0.5,-0.2 0.7,0c0.2,0.2 0.2,0.5 0,0.7c-0.5,0.4 -0.4,0.6 0.1,1.3c0.4,0.6 1.1,1.6 -0.1,2.7c-0.1,0.2 -0.2,0.2 -0.3,0.2Z"></path><path d="M14,12.5c-0.1,0 -0.3,-0.1 -0.4,-0.2c-0.2,-0.2 -0.2,-0.5 0,-0.7c0.5,-0.5 0.4,-0.7 -0.1,-1.4c-0.4,-0.6 -1.1,-1.6 0.1,-2.6c0.2,-0.2 0.5,-0.2 0.7,0c0.2,0.2 0.2,0.5 0,0.7c-0.5,0.4 -0.4,0.6 0.1,1.3c0.4,0.6 1.1,1.6 -0.1,2.7c-0.1,0.2 -0.2,0.2 -0.3,0.2Z"></path><path d="M13.5,23c-4.7,0 -8.5,-3.8 -8.5,-8.5c0,-0.3 0.2,-0.5 0.5,-0.5h16c0.3,0 0.5,0.2 0.5,0.5c0,4.7 -3.8,8.5 -8.5,8.5Zm-7.5,-8c0.3,3.9 3.5,7 7.5,7c4,0 7.2,-3.1 7.5,-7h-15Z"></path><path d="M21.5,15.3c0,0 -0.1,-0.1 0,0c-0.2,0 -0.3,-0.1 -0.4,-0.2l-9,-13.2c-0.1,-0.2 -0.1,-0.3 -0.1,-0.5c0,-0.1 0.1,-0.3 0.2,-0.3c3.3,-1.9 7.5,-1.3 10.2,1.4c3.3,3.3 3.3,8.7 0,12c-0.2,0.2 -0.5,0.4 -0.7,0.6c0,0.1 -0.1,0.2 -0.2,0.2Zm-8.2,-13.6l8.3,12.3c0.1,-0.1 0.1,-0.1 0.2,-0.2c2.9,-2.9 2.9,-7.7 0,-10.6c-2.3,-2.3 -5.7,-2.8 -8.5,-1.5Z"></path><path d="M19,30c-1.1,0 -2,-0.9 -2,-2c0,-1.1 0.9,-2 2,-2c1.1,0 2,0.9 2,2c0,1.1 -0.9,2 -2,2Zm0,-3c-0.6,0 -1,0.4 -1,1c0,0.6 0.4,1 1,1c0.6,0 1,-0.4 1,-1c0,-0.6 -0.4,-1 -1,-1Z"></path></g></svg>