<svg xmlns="http://www.w3.org/2000/svg" viewBox="0 0 30 30"><path d="M14.2 29.4h-12a.47.47 0 0 1-.5-.5.47.47 0 0 1 .5-.5h12c9.6 0 13.2-1.9 13.2-7.1 0-5.5-8.3-6.7-11.2-6.7a.65.65 0 0 1-.6-.6v-.2l.3-.4h.3c3.5 0 9.4-.8 9.4-6.2 0-1.3-.4-2.3-1.3-3.2-1.1-1.1-3.5-2.4-8.9-2.4H2.1a.47.47 0 0 1-.5-.5.47.47 0 0 1 .5-.5h13.3C21.1.6 23.7 2 25 3.2c1 1 1.6 2.3 1.6 3.9 0 4.4-3.4 6.2-6.5 6.8 3.8.8 8.3 2.8 8.3 7.3 0 6.8-5.7 8.2-14.2 8.2z"/><path d="M4.7 29a.47.47 0 0 1-.5-.5V1.4a.47.47 0 0 1 .5-.5.47.47 0 0 1 .5.5v27.1a.47.47 0 0 1-.5.5zm8 .3h-.5V.7l.4-.1c.1 0 2.6-.4 4.5 1.3 1.3 1.1 2 2.9 2 5.2 0 4.5-1.1 6.1-3 6.7.6.3 1.3.6 1.9 1.2 1.5 1.4 2.3 3.4 2.3 6.2.1 7.5-3.1 8.1-7.6 8.1zm.5-14.9v14c3.9 0 6.1-.6 6.1-7.1 0-2.4-.7-4.2-2-5.4-1.3-1.3-3.2-1.5-4.1-1.5zm0-12.8v11.7c3.4-.2 4.9-.6 4.9-6.2 0-2-.5-3.5-1.6-4.5-1.1-.9-2.5-1-3.3-1z"/></svg>