<?xml version="1.0" encoding="utf-8"?>
<!-- Generator: Adobe Illustrator 23.0.1, SVG Export Plug-In . SVG Version: 6.00 Build 0)  -->
<svg version="1.1" id="Layer_1" xmlns="http://www.w3.org/2000/svg" xmlns:xlink="http://www.w3.org/1999/xlink" x="0px" y="0px"
	 viewBox="0 0 30 30" style="enable-background:new 0 0 30 30;" xml:space="preserve">
<g>
	<path d="M24.4,21v-2.7c0.6-0.5,1-1.3,1-2.1c0-0.8-0.4-1.6-1-2.1V9.1c0-0.5,0-0.9-0.1-1.4c0.9-0.7,1.4-1.8,1.4-3
		c0-2.2-1.8-4.1-4.1-4.1c-1.3,0-2.4,0.6-3.2,1.6c-0.3-0.1-0.7-0.1-1-0.1h-2.3c-0.2,0-0.7,0-0.7,0c0,0,0,0,0,0l0,0c0,0,0,0,0,0
		c-0.7-1.2-2-2.1-3.5-2.1c-2.2,0-4.1,1.8-4.1,4.1c0,1.3,0.6,2.4,1.5,3.2c-0.1,0.5-0.2,1-0.2,1.5V14C7.5,14.5,7,15.3,7,16.2
		c0,0.9,0.4,1.7,1.1,2.2v2.5c-1.1,0.8-1.9,2.4-1.9,4.2c0,2.6,1.6,4.8,3.6,4.8c0.8,0,1.5-0.3,2.1-0.9c1,0.5,2,0.8,3.2,0.8h2.3
		c1.1,0,2.2-0.3,3.2-0.8c0,0,0,0,0,0c0.6,0.6,1.3,0.9,2.1,0.9c2,0,3.6-2.1,3.6-4.8C26.2,23.3,25.5,21.8,24.4,21z M24.4,16.2
		c0,1-0.8,1.7-1.7,1.7s-1.7-0.8-1.7-1.7s0.8-1.7,1.7-1.7S24.4,15.2,24.4,16.2z M21.6,1.7c1.7,0,3.1,1.4,3.1,3.1
		c0,0.7-0.3,1.4-0.7,1.9c-0.7-2-2.4-3.5-4.4-4.2C20.1,2,20.8,1.7,21.6,1.7z M8,16.2c0-1,0.8-1.7,1.7-1.7s1.7,0.8,1.7,1.7
		s-0.8,1.7-1.7,1.7S8,17.1,8,16.2z M9.8,28.9c-1.4,0-2.6-1.7-2.6-3.8s1.2-3.8,2.6-3.8c1.4,0,2.6,1.7,2.6,3.8S11.2,28.9,9.8,28.9z
		 M19.9,28.2c-0.8,0.4-1.6,0.6-2.5,0.6h-2.3c-0.9,0-1.8-0.2-2.5-0.6c0.5-0.8,0.9-1.9,0.9-3.1c0-2.6-1.6-4.8-3.6-4.8
		c-0.2,0-0.4,0-0.7,0.1v-1.6c0.2,0,0.4,0.1,0.6,0.1c1.5,0,2.7-1.2,2.7-2.7s-1.2-2.7-2.7-2.7c-0.2,0-0.4,0-0.7,0.1V8.8
		c0-0.3,0-0.6,0.1-1c0,0,0,0,0,0c0.1-0.3,0.2-0.6,0.3-1C9.2,6.7,8.9,6.6,8.7,6.3C8.1,5.8,7.8,5,7.8,4.1c0-1.7,1.4-3.1,3.1-3.1
		c1,0,1.9,0.5,2.5,1.3c-0.8,0.2-1.5,0.4-2.3,1.1C10.8,3.7,10.8,4,11,4.2c0.1,0.1,0.2,0.2,0.4,0.2c0.1,0,0.2,0,0.3-0.1
		c0.7-0.6,1.3-0.8,2.1-0.9c0,0,0,0,0,0c0.3-0.1,0.7-0.1,1.3-0.2h2.3c3.3,0,6,2.7,6,6v4.4c-0.2-0.1-0.5-0.1-0.7-0.1
		c-1.5,0-2.7,1.2-2.7,2.7s1.2,2.7,2.7,2.7c0.3,0,0.5,0,0.7-0.1v1.7c-0.2-0.1-0.5-0.1-0.8-0.1c-2,0-3.6,2.1-3.6,4.8
		C19,26.3,19.4,27.4,19.9,28.2C19.9,28.2,19.9,28.2,19.9,28.2z M22.6,28.9c-1.4,0-2.6-1.7-2.6-3.8s1.2-3.8,2.6-3.8
		c1.4,0,2.6,1.7,2.6,3.8S24,28.9,22.6,28.9z"/>
	<path d="M19.9,14.7c0.1-0.3,0-0.5-0.2-0.7c-0.3-0.1-0.5,0-0.7,0.2c0,0-0.2,0.4-0.7,0.3l-1.5-0.4v-0.4c0.1,0,0.1-0.1,0.2-0.1
		l1.7-1.8l0.1-0.1c0.2-0.3,0.2-0.6,0-0.8c-0.2-0.3-0.5-0.5-1-0.5h-3c-0.4,0-0.7,0.2-0.9,0.4c-0.2,0.2-0.2,0.5-0.1,0.8l1.8,1.9
		c0.1,0.1,0.1,0.1,0.2,0.2v0.5l-1.2,0.4c-0.6,0-0.8-0.3-0.8-0.3c-0.1-0.2-0.4-0.4-0.7-0.2c-0.2,0.1-0.4,0.4-0.2,0.7
		c0.2,0.3,0.7,0.9,1.6,0.9c0.1,0,0.2,0,0.3,0l1.6-0.5l1.7,0.5c0.1,0,0.1,0,0.2,0C19.2,15.6,19.8,15,19.9,14.7z M16.3,12.9l-1.4-1.4
		h2.8L16.3,12.9z"/>
	<path d="M14,8.5c0.5,0,0.8-0.4,0.8-0.8c0-0.5-0.4-0.8-0.8-0.8s-0.8,0.4-0.8,0.8C13.1,8.1,13.5,8.5,14,8.5z"/>
	<path d="M18.8,8.5c0.5,0,0.8-0.4,0.8-0.8c0-0.5-0.4-0.8-0.8-0.8S18,7.2,18,7.7C18,8.1,18.4,8.5,18.8,8.5z"/>
</g>
</svg>
