<?xml version="1.0" encoding="UTF-8"?>
<svg viewBox="0 0 30 30" version="1.1" xmlns="http://www.w3.org/2000/svg" xmlns:xlink="http://www.w3.org/1999/xlink">
    <g id="Page-1" stroke="none" stroke-width="1" fill="none" fill-rule="evenodd">
        <g id="Outlines_black-Copy" transform="translate(-210.000000, -114.000000)">
            <g id="Group-3" transform="translate(3.000000, 114.000000)" fill="#000000" fill-rule="nonzero">
                <path d="M219.540976,25.8292683 L219.540976,17.3531707 C219.540976,17.0298821 219.803053,16.7678049 220.126341,16.7678049 L226.94,16.7678049 C227.263289,16.7678049 227.525366,17.0298821 227.525366,17.3531707 L227.525366,25.8292683 L232.39561,25.8292683 L232.39561,4.17073171 L227.525366,4.17073171 L227.525366,12.084878 C227.525366,12.4081667 227.263289,12.6702439 226.94,12.6702439 L220.126341,12.6702439 C219.803053,12.6702439 219.540976,12.4081667 219.540976,12.084878 L219.540976,4.17073171 L214.670732,4.17073171 L214.670732,25.8292683 L219.540976,25.8292683 Z M220.711707,26.4146341 C220.711707,26.7379228 220.44963,27 220.126341,27 L214.085366,27 C213.762077,27 213.5,26.7379228 213.5,26.4146341 L213.5,3.58536585 C213.5,3.26207722 213.762077,3 214.085366,3 L220.126341,3 C220.44963,3 220.711707,3.26207722 220.711707,3.58536585 L220.711707,11.4995122 L226.354634,11.4995122 L226.354634,3.58536585 C226.354634,3.26207722 226.616711,3 226.94,3 L232.980976,3 C233.304264,3 233.566341,3.26207722 233.566341,3.58536585 L233.566341,26.4146341 C233.566341,26.7379228 233.304264,27 232.980976,27 L226.94,27 C226.616711,27 226.354634,26.7379228 226.354634,26.4146341 L226.354634,17.9385366 L220.711707,17.9385366 L220.711707,26.4146341 Z" id="H-Copy-2"></path>
            </g>
            <g id="Slices" transform="translate(0.000000, 114.000000)"></g>
        </g>
    </g>
</svg>