<?xml version="1.0" encoding="utf-8"?>
<!-- Generator: Adobe Illustrator 23.0.1, SVG Export Plug-In . SVG Version: 6.00 Build 0)  -->
<svg version="1.1" id="Layer_1" xmlns="http://www.w3.org/2000/svg" xmlns:xlink="http://www.w3.org/1999/xlink" x="0px" y="0px"
	 viewBox="0 0 30 30" style="enable-background:new 0 0 30 30;" xml:space="preserve">
<g>
	<title>Zeichenfläche 1</title>
	<g>
		<path d="M21.2,9.8V2.6c0-1.4-1.1-2.5-2.5-2.5h-6.9c-1.4,0-2.5,1.1-2.5,2.5v7.3l0,19.6c0,0.3,0.2,0.5,0.4,0.5c0,0,0,0,0.1,0h11
			c0.3,0,0.5-0.2,0.5-0.4c0,0,0,0,0-0.1L21.2,9.8z M11.8,1.1h6.9c0.8,0,1.5,0.7,1.5,1.5v5.3c-0.4-0.3-0.9-0.5-1.5-0.5h-6.9
			c-0.6,0-1.1,0.2-1.5,0.5V2.6C10.3,1.7,10.9,1.1,11.8,1.1z M10.2,28.9l0-19.1c0-0.8,0.7-1.5,1.5-1.5h6.9c0.8,0,1.5,0.7,1.5,1.5
			l0,19.1H10.2z"/>
		<path d="M18.7,26.6h-7V10.6h7V26.6z M12.7,25.6h5V11.6h-5V25.6z"/>
		<path d="M18.3,8.3h-6.1V2.9c0-0.4,0.3-0.7,0.7-0.7h4.7c0.4,0,0.7,0.3,0.7,0.7V8.3z M13.2,7.3h4.1V3.2h-4.1V7.3z"/>
	</g>
</g>
</svg>
