<?xml version="1.0" encoding="utf-8"?>
<!-- Generator: Adobe Illustrator 23.0.1, SVG Export Plug-In . SVG Version: 6.00 Build 0)  -->
<svg version="1.1" id="Layer_1" xmlns="http://www.w3.org/2000/svg" xmlns:xlink="http://www.w3.org/1999/xlink" x="0px" y="0px"
	 viewBox="0 0 30 30" style="enable-background:new 0 0 30 30;" xml:space="preserve">
<g>
	<title>Zeichenfläche 1</title>
</g>
<path d="M28,7.3c-0.1,0-0.2,0-0.3-0.1L25,4.9c-0.2-0.2-0.2-0.5-0.1-0.7C25.1,4,25.4,4,25.6,4.2l2.7,2.3c0.2,0.2,0.2,0.5,0.1,0.7
	C28.2,7.3,28.1,7.3,28,7.3z"/>
<path d="M16.3,20.6c-0.1,0-0.2,0-0.3-0.1l-2.5-2.1c-0.2-0.2-0.2-0.5-0.1-0.7c0.2-0.2,0.5-0.2,0.7-0.1l2.5,2.1
	c0.2,0.2,0.2,0.5,0.1,0.7C16.5,20.5,16.4,20.6,16.3,20.6z"/>
<path d="M24,16.9c-0.1,0-0.2,0-0.3-0.1l-5.1-4.4c-0.2-0.2-0.2-0.5-0.1-0.7c0.2-0.2,0.5-0.2,0.7-0.1l5.1,4.4c0.2,0.2,0.2,0.5,0.1,0.7
	C24.3,16.8,24.1,16.9,24,16.9z"/>
<path d="M27.6,9.6c-0.1,0-0.2,0-0.3-0.1l-3.6-3.1c-0.2-0.2-0.2-0.5-0.1-0.7c0.2-0.2,0.5-0.2,0.7-0.1l3.6,3.1
	c0.2,0.2,0.2,0.5,0.1,0.7C27.9,9.5,27.7,9.6,27.6,9.6z"/>
<path d="M27,11.7c-0.1,0-0.2,0-0.3-0.1l-4.3-3.7c-0.2-0.2-0.2-0.5-0.1-0.7C22.5,7,22.9,7,23.1,7.1l4.3,3.7c0.2,0.2,0.2,0.5,0.1,0.7
	C27.3,11.6,27.1,11.7,27,11.7z"/>
<path d="M26.5,13.9c-0.1,0-0.2,0-0.3-0.1l-5.1-4.4c-0.2-0.2-0.2-0.5-0.1-0.7c0.2-0.2,0.5-0.2,0.7-0.1l5.1,4.4
	c0.2,0.2,0.2,0.5,0.1,0.7C26.8,13.8,26.7,13.9,26.5,13.9z"/>
<path d="M25.3,15.4c-0.1,0-0.2,0-0.3-0.1l-5.1-4.4c-0.2-0.2-0.2-0.5-0.1-0.7c0.2-0.2,0.5-0.2,0.7-0.1l5.1,4.4
	c0.2,0.2,0.2,0.5,0.1,0.7C25.5,15.3,25.4,15.4,25.3,15.4z"/>
<path d="M22.7,18.4c-0.1,0-0.2,0-0.3-0.1l-5.1-4.4c-0.2-0.2-0.2-0.5-0.1-0.7c0.2-0.2,0.5-0.2,0.7-0.1l5.1,4.4
	c0.2,0.2,0.2,0.5,0.1,0.7C23,18.3,22.8,18.4,22.7,18.4z"/>
<path d="M20.6,19.1c-0.1,0-0.2,0-0.3-0.1L16,15.4c-0.2-0.2-0.2-0.5-0.1-0.7c0.2-0.2,0.5-0.2,0.7-0.1l4.3,3.7
	c0.2,0.2,0.2,0.5,0.1,0.7C20.9,19.1,20.7,19.1,20.6,19.1z"/>
<path d="M18.6,20c-0.1,0-0.2,0-0.3-0.1l-3.6-3.1c-0.2-0.2-0.2-0.5-0.1-0.7c0.2-0.2,0.5-0.2,0.7-0.1l3.6,3.1c0.2,0.2,0.2,0.5,0.1,0.7
	C18.9,20,18.8,20,18.6,20z"/>
<path d="M3.5,28.5c-0.7,0-1.3-0.2-1.8-0.7l-0.3-0.3c-1.2-1-1.3-2.7-0.3-4.1L19.8,1.7c1.1-1,2.8-1,3.9-0.1l1.9,1.6
	c0.1,0.1,0.2,0.3,0.2,0.5c0,0.2,0,0.4-0.2,0.5L5.6,27.6c-0.5,0.6-1.2,0.9-1.9,1C3.7,28.5,3.6,28.5,3.5,28.5z M2,26.8l0.3,0.3
	c0.4,0.3,0.8,0.5,1.3,0.4c0.5,0,0.9-0.3,1.2-0.6L24.7,3.8l-1.7-1.4c-0.8-0.7-1.9-0.5-2.5,0L1.9,24.1C1.2,25,1.3,26.2,2,26.8L2,26.8z
	 M24.9,3.6C24.9,3.6,24.9,3.6,24.9,3.6L24.9,3.6z"/>
</svg>
