<?xml version="1.0" encoding="utf-8"?>
<!-- Generator: Adobe Illustrator 23.0.1, SVG Export Plug-In . SVG Version: 6.00 Build 0)  -->
<svg version="1.1" id="Layer_1" xmlns="http://www.w3.org/2000/svg" xmlns:xlink="http://www.w3.org/1999/xlink" x="0px" y="0px"
	 viewBox="0 0 30 30" style="enable-background:new 0 0 30 30;" xml:space="preserve">

<path d="M17.4,7.4V7.3h-1v0h-4v0h-1v0.1c-1.7,0.2-3,1.7-3,3.4v18.7c0,0.3,0.2,0.5,0.4,0.5c0,0,0,0,0.1,0h11c0.3,0,0.5-0.2,0.5-0.4
	c0,0,0,0,0-0.1V10.8C20.4,9.1,19.1,7.6,17.4,7.4z M19.4,10.8V29h-10V10.8c0-1.4,1.1-2.5,2.5-2.5c0,0,0,0,0,0h5
	C18.3,8.3,19.4,9.4,19.4,10.8C19.4,10.8,19.4,10.8,19.4,10.8z"/>
<path d="M17.6,7.9h-1V2.1c0-0.4-0.1-0.4-0.6-0.7l-0.2-0.1v3.2c0,0.3-0.2,0.6-0.5,0.7L12.4,6v1.7h-1V5.8c0-0.3,0.2-0.6,0.5-0.7
	l2.9-0.9V0.8c0-0.2,0.1-0.5,0.3-0.6c0.2-0.1,0.5-0.1,0.7,0l0.7,0.4c0.6,0.3,1.1,0.6,1.1,1.6V7.9z"/>
</svg>
