<svg xmlns="http://www.w3.org/2000/svg" viewBox="0 0 30 30"><path d="M6.1 27.8c-.3 0-.4-.5-.4-.7l.3-8.2c0-.2.1-.3.2-.4.2-.3.5-.7.5-1.1.1-.4-.2-.8-.2-.9-.1-.1-.1-.3-.1-.5l.4-2.5c0-.1.1-.2.1-.3.2-.3.5-.8.6-1.2 0-.4-.1-.9-.2-1.3v-.3L8 5.1c.1-.5.1-1.7-1-1.8-.3 0-1-.1-1.3 1.5L5 10.1a.76.76 0 0 1-.2.4c-.3.3-.6.8-.6 1.1s.1.9.3 1.3c.1.1.1.3.1.4l-.3 2.5a.55.55 0 0 1-.3.5c-.1.1-.4.3-.5.7-.1.5.2 1 .3 1.2 0 0 0 .2-.1.4l-1.5 8c-.1.3-.3.6-.6.6-.3-.1-.4-.3-.4-.6l1.7-8c-.2-.3-.5-1-.4-1.7s.5-1.1.8-1.3l.3-2.3a4.78 4.78 0 0 1-.4-1.8c.1-.6.6-1.3.8-1.6l.7-5.2C5 2.5 6.2 2.2 7.1 2.3c1.4.2 2.1 1.4 1.9 3l-.7 5.2c.1.4.4 1.1.3 1.7s-.5 1.2-.7 1.6l-.3 2.3a2.25 2.25 0 0 1 .3 1.5c-.1.6-.5 1.2-.7 1.5l-.6 8.2a.47.47 0 0 1-.5.5zm1.1-8.6zm.4-3.1zm-3.9-2.8z"/><path d="M1.7 27.7l-.3-.1c-.4-.1-.6-.4-.5-.8l.2-.8c.1-.4.4-.6.8-.5l.3.1c.4.1.6.4.5.8l-.2.8c-.1.4-.5.6-.8.5zm4.6.6H6c-.4 0-.6-.3-.6-.7v-.8c0-.4.3-.6.7-.6h.3c.4 0 .6.3.6.7v.8c0 .4-.3.7-.7.6zm8.3-4.8c-.2-.1-.3-.4-.2-.7l3.8-7.3.3-.3c.3-.2.7-.5.9-.8.2-.4.2-.8.2-.9 0-.2.2-.3.3-.5l1.3-2.2c.1-.1.1-.2.3-.2.3-.2.8-.5 1-.8s.3-.9.3-1.3v-.1l.1-.2 2.8-4.6c.3-.4.8-1.5-.2-2.1-.3-.2-.9-.5-1.8.9l-2.8 4.5-.3.3c-.4.2-.9.5-1 .8-.2.3-.2.9-.2 1.3 0 .1 0 .3-.1.4L18 11.8c-.1.2-.5.3-.7.3-.1 0-.5.1-.7.5-.3.4-.2 1-.2 1.2s0 .3-.1.5L11.5 21c-.2.2-.5.3-.7.1s-.3-.5-.1-.7l4.7-6.6c0-.4 0-1.1.4-1.7s.9-.8 1.3-.9l1.2-1.9c0-.4.1-1.2.4-1.8.3-.5 1-.9 1.4-1.1l2.8-4.5C24.1 0 25.3.2 26 .7c1.2.7 1.4 2.1.5 3.5l-2.8 4.5c0 .4-.1 1.2-.5 1.7-.3.5-1 .9-1.3 1.1l-1.2 2c0 .3 0 .9-.3 1.5-.3.5-.9.9-1.3 1.1l-3.8 7.2c-.1.2-.4.3-.7.2zm4.4-7.4zm1.7-2.8zm-2.5-4z"/><path d="M10.6 21.7l-.2-.1c-.3-.2-.4-.6-.2-.9l.5-.7c.2-.3.6-.4.9-.2l.2.1c.3.2.4.6.2.9l-.5.7c-.2.3-.6.4-.9.2zm3.9 2.4l-.2-.1c-.3-.2-.5-.6-.3-.9l.4-.7c.2-.3.6-.5.9-.3l.2.1c.3.2.5.6.3.9l-.4.7c-.1.3-.5.4-.9.3zm14.4 3.3c-.2.1-.5 0-.6-.2l-3.6-7.5c-.1-.1-.1-.3-.1-.4.1-.4.1-.9-.1-1.2a1.54 1.54 0 0 0-.7-.7c-.1-.1-.2-.2-.3-.4l-.9-2.4c0-.1-.1-.2 0-.3.1-.4.1-1-.1-1.3a2.13 2.13 0 0 0-.9-1l-.1-.1-.1-.2-1.8-4.9c-.2-.5-.7-1.5-1.8-1.1-.3.1-1 .4-.3 1.9l1.8 4.9c.1.1 0 .3 0 .4-.1.4-.1 1 0 1.3s.5.7.9 1c.1.1.2.2.2.3l.9 2.3c.1.2.1.4 0 .6-.1.1-.2.5 0 .8.2.5.7.8.8.9s.3.2.3.4l2.5 7.9c.1.3-.1.5-.3.6-.3.1-.5-.1-.6-.3L21.6 21c-.3-.2-.9-.7-1.2-1.3-.3-.7-.1-1.3 0-1.6l-.8-2.1c-.3-.2-1-.8-1.2-1.4s-.1-1.4-.1-1.8L16.5 8c-.8-2.1 0-2.9.9-3.2 1.3-.5 2.5.1 3.1 1.7l1.9 4.9c.3.3.9.8 1.1 1.4s.2 1.3.1 1.7l.9 2.2c.3.2.8.5 1 1.1s.2 1.3.1 1.7l3.5 7.4c.2.1 0 .4-.2.5zm-3.3-7.9zm-1.2-3zm-4.7-.5z"/><path d="M25 29.6l-.2.1c-.3.1-.7-.1-.8-.4l-.3-.8c-.1-.3.1-.7.4-.8l.2-.1c.3-.1.7.1.8.4l.3.8c.1.3 0 .7-.4.8zm4.3-1.8l-.2.2c-.3.2-.7 0-.9-.3l-.4-.7c-.2-.3 0-.7.3-.9l.2-.1c.3-.2.7 0 .9.3l.4.7c.2.3 0 .7-.3.8z"/></svg>