<svg xmlns="http://www.w3.org/2000/svg" viewBox="0 0 30 30"><path d="M13.4 29c-1.3 0-2.4-1.1-2.4-2.4 0-.2 0-.4.1-.6L13 15.4c0-.3.3-.5.6-.4.3 0 .5.3.4.6l-1.9 10.6c0 .2-.1.3-.1.4 0 .8.6 1.4 1.4 1.4.6 0 1.2-.5 1.3-1.1 0-.1 0-.1.1-.2l7.3-10c.2-.2.5-.3.7-.1s.3.5.1.7l-7.2 9.9c-.3 1.1-1.3 1.8-2.3 1.8zM25 9h-6a.47.47 0 0 1-.5-.5.47.47 0 0 1 .5-.5h6a.47.47 0 0 1 .5.5.47.47 0 0 1-.5.5z"/><path d="M25 12h-6a.47.47 0 0 1-.5-.5.47.47 0 0 1 .5-.5h6a.47.47 0 0 1 .5.5.47.47 0 0 1-.5.5zm-3.3 5.5H21c-.2 0-.3 0-.5-.1l-4.6-1c-2.8-.6-6-1.4-8.4-1.4a.47.47 0 0 1-.5-.5v-10a.47.47 0 0 1 .5-.5c1.3 0 3.3-.6 5.6-1.3C15.8 1.9 19 1 21.5 1 25.9 1 30 5.1 30 9.5c0 4.3-3.8 8-8.3 8zM8 14c2.4.1 5.5.8 8.2 1.5 1.7.4 3.3.8 4.5 1h1c3.9 0 7.3-3.2 7.3-7C29 5.6 25.4 2 21.5 2c-2.4 0-5.4.9-8.2 1.7C11.2 4.3 9.4 4.9 8 5v9zm-6.3-3.4c-.5 0-1-.2-1.6-.8-.1-.1-.1-.5 0-.7s.5-.2.7 0c.8.8 1.2.5 1.9 0s1.8-1.3 3.1 0c.2.2.2.6.1.8s-.5.2-.7 0c-.8-.8-1.1-.5-1.9 0-.4.3-.9.7-1.6.7zm0 3c-.5 0-1-.2-1.6-.8-.2-.2-.2-.5 0-.7s.5-.2.7 0c.8.8 1.2.5 1.9 0s1.8-1.3 3.1 0c.2.2.2.5 0 .7s-.5.2-.7 0c-.7-.7-1.1-.5-1.8.1-.4.3-.9.7-1.6.7z"/><path d="M1.7 7.6c-.5 0-1-.2-1.6-.8-.1-.1-.1-.5 0-.7s.5-.2.7 0c.8.8 1.2.5 1.9 0s1.8-1.3 3.1 0c.2.2.2.6.1.8s-.6.1-.8 0c-.7-.8-1-.5-1.8 0-.4.3-.9.7-1.6.7zM22 14c-2.2 0-4-1.8-4-4s1.8-4 4-4 4 1.8 4 4-1.8 4-4 4zm0-7c-1.7 0-3 1.3-3 3s1.3 3 3 3 3-1.3 3-3-1.3-3-3-3z"/></svg>