<svg xmlns="http://www.w3.org/2000/svg" viewBox="0 0 30 30"><path d="M15 29.6c-.7 0-1.5-.1-2.2-.2-3.9-.6-7.2-2.6-9.6-5.8s-3.3-7-2.7-10.8l.3-1.4 1 .2c-.1.4-.2.9-.3 1.3a13.76 13.76 0 0 0 2.6 10.2c2.2 2.9 5.3 4.8 8.9 5.4 3.6.5 7.2-.3 10.1-2.5s4.8-5.3 5.4-8.9c1.1-7.4-4-14.4-11.4-15.5a13.58 13.58 0 0 0-10.8 3l-.7-.8C8.8 1.1 13-.1 17.1.6c8 1.2 13.4 8.7 12.2 16.6-1 7.2-7.2 12.4-14.3 12.4zm0-2.7c-.6 0-1.2 0-1.8-.1-3.1-.5-5.9-2.1-7.8-4.7s-2.7-5.7-2.2-8.8c0-.3.1-.6.2-.9l1 .2c-.1.3-.1.5-.2.8-.4 2.9.3 5.7 2 8.1s4.3 3.9 7.1 4.3c2.9.4 5.7-.3 8.1-2 2.3-1.7 3.9-4.3 4.3-7.1.4-2.9-.3-5.7-2-8.1-1.7-2.3-4.3-3.9-7.1-4.3a11.45 11.45 0 0 0-8.4 2.2l-.6-.8c2.6-2.1 5.9-2.9 9.2-2.5 3.1.5 5.9 2.1 7.8 4.7s2.7 5.7 2.2 8.8-2.1 5.9-4.7 7.8c-2.1 1.6-4.6 2.4-7.1 2.4z"/><path d="M4.1 13.5c-.3 0-.6-.1-.9-.2l-2-1.2C.4 11.6.1 10.6.6 9.8l3.3-5.4c.5-.8 1.5-1.1 2.3-.6l2 1.2c.8.4 1.1 1.5.6 2.3l-3.3 5.4c-.3.5-.8.8-1.4.8zm-2.6-3.2c-.2.3-.1.7.2.9l2 1.2c.3.2.7.1.9-.2l3.3-5.4c.2-.4.1-.8-.2-1l-2-1.2c-.3-.2-.7-.1-.9.3l-3.3 5.4zm10.27-6.56L14.33.666l.77.64-2.56 3.074zM20 5.2l-.6-.8 3.9-1.2.3.9zm4.645 4.515l.228-.974 3.7.868-.228.974zm1.303 6.245l.804-.595 2.32 3.136-.804.595zM24 25.5l-.3-3.8 1-.1.3 3.8zm-6.378 2.933l1.362-3.115.916.4-1.362 3.115zm-7.424-.335l2.83-2.223.618.786-2.83 2.223zM4.164 23.66l3.787-.308.08.997-3.787.308zm-3.2-6.235l.363-.932 2.9 1.124-.362.932z"/></svg>