<?xml version="1.0" encoding="UTF-8"?><svg version="1.1" viewBox="0 0 30 30" xmlns="http://www.w3.org/2000/svg" xmlns:xlink="http://www.w3.org/1999/xlink"><g fill="#000"><path d="M1.5,18c-0.1,0 -0.1,0 -0.2,0c-0.3,-0.1 -0.4,-0.4 -0.3,-0.7c1.2,-3.6 9.8,-7.3 13,-7.3c2.6,0 4.3,-1.8 7.8,-5.3l0.8,-0.8c1.2,-1.1 1.4,-1.5 1.4,-2.1c0,-1.4 1.7,-1.8 2.5,-1.8c0.6,0 2.3,0 2.3,2.4c0,0.3 -0.2,0.5 -0.5,0.5c-0.3,0 -0.5,-0.2 -0.5,-0.5c-0.1,-1.4 -0.7,-1.4 -1.3,-1.4c-0.6,0 -1.5,0.3 -1.5,0.8c0,1.1 -0.5,1.7 -1.6,2.9l-0.8,0.8c-3.7,3.5 -5.6,5.5 -8.6,5.5c-2.8,0 -11,3.6 -12,6.7c-0.1,0.2 -0.3,0.3 -0.5,0.3Z"></path><path d="M16.5,29c-0.2,0 -0.4,-0.1 -0.5,-0.3c-0.1,-0.3 0.1,-0.5 0.3,-0.6c3.6,-1.2 5.8,-2.7 6.5,-4.3c0.6,-1.5 -0.1,-3.1 -0.9,-4.5c-0.5,-1 -0.9,-1.9 -0.9,-2.7v-0.3c0,-2.9 0,-5.7 4.1,-9.8c0.9,-1 1.5,-1.5 2.2,-1.5h0.1c0.3,0 1.1,0 1.4,-0.3c0,0 0.1,-0.1 0.1,-0.2c0.1,-0.9 -0.1,-1.5 -0.4,-1.5c-0.2,0 -0.3,0.1 -0.6,0.2c-0.4,0.2 -1,0.6 -1.7,0.2c-0.2,-0.1 -0.3,-0.4 -0.2,-0.6c0.1,-0.2 0.4,-0.3 0.7,-0.2c0.2,0.1 0.3,0 0.7,-0.2c0.3,-0.2 0.6,-0.4 1.1,-0.4c0.9,0 1.5,0.9 1.5,2.5c0,0.4 -0.1,0.7 -0.4,0.9c-0.6,0.6 -1.6,0.6 -2.1,0.6h-0.1c-0.4,0 -0.9,0.5 -1.5,1.1c-3.9,3.9 -3.9,6.3 -3.9,9.1v0.3c0,0.6 0.4,1.4 0.8,2.3c0.8,1.5 1.7,3.4 0.9,5.4c-0.8,1.9 -3.1,3.5 -7.1,4.8c0,-3.55271e-15 -0.1,-3.55271e-15 -0.1,-3.55271e-15Z"></path><path d="M21.5,14c-0.3,0 -0.5,-0.2 -0.5,-0.5c0,-0.4 -0.1,-2.5 -1.5,-2.5c-2,0 -2.5,-1.3 -2.5,-1.3c-0.1,-0.3 0.1,-0.5 0.3,-0.6c0.2,-0.1 0.5,0.1 0.6,0.3c0,0 0.3,0.7 1.5,0.7c1.8,0 2.5,1.9 2.5,3.5c0.1,0.2 -0.2,0.4 -0.4,0.4Z"></path><path d="M12.6,30c-3.4,0 -7.6,-1.2 -9.5,-3.1c-1.5,-1.5 -2.5,-3.3 -2.9,-5.2c-0.4,-1.9 -0.1,-3.6 0.9,-4.5c2,-2 6.1,-1 9.3,2.2c0.6,0.6 1.3,1.2 2,1.9c2.4,2.3 5,4.6 5,6.4c0,0.5 -0.2,0.9 -0.5,1.3c-0.9,0.6 -2.4,1 -4.3,1Zm-8.7,-12.9c-0.8,0 -1.5,0.2 -2,0.7c-1.6,1.6 -0.7,5.6 2,8.3c2.8,2.8 10.6,3.7 12.3,2c0.2,-0.2 0.2,-0.3 0.2,-0.6c0,-1.4 -2.6,-3.7 -4.7,-5.7c-0.7,-0.7 -1.4,-1.3 -2,-1.9c-1.9,-1.7 -4.1,-2.8 -5.8,-2.8Z"></path><path d="M7,25c-1.1,0 -2,-0.9 -2,-2c0,-1.1 0.9,-2 2,-2c1.1,0 2,0.9 2,2c0,1.1 -0.9,2 -2,2Zm0,-3c-0.6,0 -1,0.4 -1,1c0,0.6 0.4,1 1,1c0.6,0 1,-0.4 1,-1c0,-0.6 -0.5,-1 -1,-1Z"></path></g></svg>