<svg id="Ebene_1" data-name="Ebene 1" xmlns="http://www.w3.org/2000/svg" viewBox="0 0 30 30"><title>Zeichenfläche 1</title><path d="M9.24,7.44a.54.54,0,0,0,.21-.05l.9-.41.29.52a.52.52,0,0,0,.44.25.5.5,0,0,0,.24-.06.5.5,0,0,0,.2-.68l-.26-.45.83-.39a.5.5,0,1,0-.42-.9l-.9.41-.26-.46a.5.5,0,1,0-.87.49l.22.39L9,6.48a.5.5,0,0,0-.24.67A.49.49,0,0,0,9.24,7.44Z"/><path d="M24.43,24.64a2.61,2.61,0,0,0-3.17-1.28L20.2,21.28c3.07-4,1.88-13.42-.33-18a3.4,3.4,0,0,0-.25-.67C18.22-.21,13.27-.49,8.35,2A14.44,14.44,0,0,0,2.94,6.39c-1.25,1.8-1.56,3.56-.87,5A3.5,3.5,0,0,0,2.5,12C5,16.56,11.64,23.1,16.54,23.1l.54,0L18,24.92a2.6,2.6,0,0,0,2.67,4.45,2.63,2.63,0,0,0,1-1,2.61,2.61,0,0,0,2.7-3.76ZM3.76,7a13.47,13.47,0,0,1,5-4.11,13.78,13.78,0,0,1,6-1.54c1.89,0,3.39.58,4,1.74a2.21,2.21,0,0,1,.18.51h0v0c.51,2.25-2.06,5.55-6,7.51a13.39,13.39,0,0,1-6.31,1.54c-1.81-.07-3.1-.69-3.62-1.74S2.73,8.44,3.76,7Zm.73,6.32a7.51,7.51,0,0,0,2.06.35H7A14.81,14.81,0,0,0,13.35,12C16.68,10.33,19,7.9,19.74,5.64c1.91,5.69,2,14.33-1.61,16.11S7.81,18,4.49,13.28Zm18.34,14a1.61,1.61,0,0,1-1.22.1l-.45-.15-.17.44a1.53,1.53,0,0,1-.76.84,1.6,1.6,0,0,1-1.46-2.85l.6-.26-1.28-2.52a3,3,0,0,0,.49-.2,4.86,4.86,0,0,0,.9-.6l1.35,2.67.55-.33a1.6,1.6,0,0,1,1.45,2.86Z"/><path d="M7.3,11.39a8.8,8.8,0,0,0,1.55-.15.51.51,0,0,0,.41-.58.5.5,0,0,0-.58-.4c-1.75.3-3.11,0-3.47-.69C5,9.1,5.13,8.42,5.66,7.64a.5.5,0,0,0-.83-.55A2.89,2.89,0,0,0,4.31,10C4.76,10.91,5.82,11.39,7.3,11.39Z"/><path d="M13.08,3.16C15,2.78,16.42,3,16.81,3.8a1.24,1.24,0,0,1,.07.8.49.49,0,0,0,.38.59h.11a.48.48,0,0,0,.48-.4,2.21,2.21,0,0,0-.15-1.45c-.61-1.22-2.41-1.66-4.81-1.17a.5.5,0,0,0-.39.59A.48.48,0,0,0,13.08,3.16Z"/></svg>