<?xml version="1.0" encoding="UTF-8"?><svg version="1.1" viewBox="0 0 30 30" xmlns="http://www.w3.org/2000/svg" xmlns:xlink="http://www.w3.org/1999/xlink"><g fill="#000"><path d="M8.5,24c-0.2,0 -0.3,-0.1 -0.4,-0.2l-2,-3c-0.2,-0.2 -0.1,-0.5 0.1,-0.7c0.2,-0.2 0.5,-0.1 0.7,0.1l1.8,2.7l7.6,-2.9c0.3,-0.1 0.5,0 0.6,0.3c0.1,0.3 0,0.5 -0.3,0.6l-8,3c1.77636e-15,0.1 1.77636e-15,0.1 -0.1,0.1Z"></path><path d="M28.5,17h-1c-0.8,0 -1.5,-0.7 -1.5,-1.5c0,-0.3 -0.2,-0.5 -0.5,-0.5h-1c-0.3,0 -0.5,0.2 -0.5,0.5c0,0.8 -0.7,1.5 -1.5,1.5h-1c-0.8,0 -1.5,-0.7 -1.5,-1.5c0,-0.3 -0.2,-0.5 -0.5,-0.5h-1.5c-0.3,0 -0.5,0.2 -0.5,0.5c0,0.8 -0.7,1.5 -1.5,1.5h-2c-0.8,0 -1.5,-0.7 -1.5,-1.5c0,-0.3 -0.2,-0.5 -0.5,-0.5h-1.5c-0.3,0 -0.5,0.2 -0.5,0.5c0,0.8 -0.7,1.5 -1.5,1.5h-1c-0.8,0 -1.5,-0.7 -1.5,-1.5c0,-0.3 -0.2,-0.5 -0.5,-0.5h-1c-0.3,0 -0.5,0.2 -0.5,0.5c0,0.8 -0.7,1.5 -1.5,1.5h-1c-0.8,0 -1.5,-0.7 -1.5,-1.5v-0.1c0,-1.3 0.7,-2.5 1.9,-3.1l0.3,-0.2c0.2,-0.1 0.5,0 0.7,0.2c0.2,0.2 0,0.5 -0.2,0.7l-0.3,0.2c-0.9,0.3 -1.4,1.2 -1.4,2.2v0.1c0,0.3 0.2,0.5 0.5,0.5h1c0.3,0 0.5,-0.2 0.5,-0.5c0,-0.8 0.7,-1.5 1.5,-1.5h1c0.8,0 1.5,0.7 1.5,1.5c0,0.3 0.2,0.5 0.5,0.5h1c0.3,0 0.5,-0.2 0.5,-0.5c0,-0.8 0.7,-1.5 1.5,-1.5h1.5c0.8,0 1.5,0.7 1.5,1.5c0,0.3 0.2,0.5 0.5,0.5h2c0.3,0 0.5,-0.2 0.5,-0.5c0,-0.8 0.7,-1.5 1.5,-1.5h1.5c0.8,0 1.5,0.7 1.5,1.5c0,0.3 0.2,0.5 0.5,0.5h1c0.3,0 0.5,-0.2 0.5,-0.5c0,-0.8 0.7,-1.5 1.5,-1.5h1c0.8,0 1.5,0.7 1.5,1.5c0,0.3 0.2,0.5 0.5,0.5h1c0.3,0 0.5,-0.2 0.5,-0.5v-0.1c0,-1 -0.5,-1.8 -1.4,-2.2l-0.3,-0.2c-0.2,-0.1 -0.3,-0.4 -0.2,-0.7c0.1,-0.2 0.4,-0.3 0.7,-0.2l0.3,0.2c1.2,0.6 1.9,1.8 1.9,3.1v0.1c0,0.8 -0.7,1.5 -1.5,1.5Z"></path><path d="M13.5,8c-0.1,0 -0.3,0 -0.4,-0.1c-0.2,-0.2 -0.2,-0.5 0,-0.7l1,-1c0.2,-0.2 0.5,-0.2 0.7,0c0.2,0.2 0.2,0.5 0,0.7l-1,1c1.77636e-15,0.1 -0.2,0.1 -0.3,0.1Z"></path><path d="M19.5,9c-0.1,0 -0.3,0 -0.4,-0.1l-1,-1c-0.2,-0.2 -0.2,-0.5 0,-0.7c0.2,-0.2 0.5,-0.2 0.7,0l1,1c0.2,0.2 0.2,0.5 0,0.7c0,0.1 -0.2,0.1 -0.3,0.1Z"></path><path d="M24.5,11c-0.1,0 -0.3,0 -0.4,-0.1l-1,-1c-0.2,-0.2 -0.2,-0.5 0,-0.7c0.2,-0.2 0.5,-0.2 0.7,0l1,1c0.2,0.2 0.2,0.5 0,0.7c0,0.1 -0.2,0.1 -0.3,0.1Z"></path><path d="M15.5,11c-0.1,0 -0.3,0 -0.4,-0.1c-0.2,-0.2 -0.2,-0.5 0,-0.7l1,-1c0.2,-0.2 0.5,-0.2 0.7,0c0.2,0.2 0.2,0.5 0,0.7l-1,1c0,0.1 -0.2,0.1 -0.3,0.1Z"></path><path d="M7.5,10c-0.1,0 -0.3,0 -0.4,-0.1c-0.2,-0.2 -0.2,-0.5 0,-0.7l1,-1c0.2,-0.2 0.6,-0.2 0.8,-0.1c0.2,0.1 0.2,0.5 0,0.7l-1,1c-0.1,0.2 -0.3,0.2 -0.4,0.2Z"></path><path d="M28.5,13h-26c-0.3,0 -0.5,-0.2 -0.5,-0.5c0,-5.2 6.1,-9.5 13.5,-9.5c7.4,0 13.5,4.3 13.5,9.5c0,0.3 -0.2,0.5 -0.5,0.5Zm-25.5,-1h25c-0.4,-4.5 -5.8,-8 -12.5,-8c-6.7,0 -12.1,3.5 -12.5,8Z"></path><path d="M27,21h-23c-1.7,0 -3,-1.3 -3,-3c0,-1 0.5,-1.4 1.1,-1.8l0.1,-0.1c0.2,-0.2 0.5,-0.1 0.7,0.1c0.2,0.2 0.1,0.5 -0.1,0.7l-0.1,0.1c-0.5,0.4 -0.7,0.5 -0.7,1c0,1.1 0.9,2 2,2h23c1.1,0 2,-0.9 2,-2v-0.3c0,-0.5 0,-0.5 -0.3,-0.8c-0.2,-0.2 -0.3,-0.5 -0.1,-0.7c0.2,-0.2 0.5,-0.3 0.7,-0.1c0.7,0.5 0.7,0.9 0.7,1.6v0.3c0,1.7 -1.3,3 -3,3Z"></path><path d="M22.5,27h-14c-3.6,0 -6.5,-2.9 -6.5,-6.5c0,-0.3 0.2,-0.5 0.5,-0.5h26c0.3,0 0.5,0.2 0.5,0.5c0,3.6 -2.9,6.5 -6.5,6.5Zm-19.5,-6c0.3,2.8 2.6,5 5.5,5h14c2.9,0 5.2,-2.2 5.5,-5h-25Z"></path></g></svg>