<?xml version="1.0" encoding="UTF-8"?><svg version="1.1" viewBox="0 0 30 30" xmlns="http://www.w3.org/2000/svg" xmlns:xlink="http://www.w3.org/1999/xlink"><path d="M13,0c-6.612,0 -8,3.263 -8,6c0,2.455 0.804,3.622 1.581,4.75c0.73,1.059 1.419,2.06 1.419,4.25c0,2.991 -0.787,4.089 -1.548,5.15c-0.714,0.997 -1.452,2.027 -1.452,4.35c0,5.5 5.204,5.5 8,5.5c5.475,0 12,-2.603 12,-15c0,-12.397 -6.525,-15 -12,-15Zm0,29c-4.434,0 -7,-0.736 -7,-4.5c0,-2.001 0.586,-2.82 1.266,-3.767c0.586,-0.818 1.223,-1.727 1.536,-3.406c0.33,0.421 0.739,0.673 1.198,0.673c1.141,0 2,-1.505 2,-3.5c0,-1.995 -0.859,-3.5 -2,-3.5c-0.606,0 -1.127,0.432 -1.487,1.129c-0.303,-0.772 -0.709,-1.366 -1.109,-1.947c-0.722,-1.048 -1.404,-2.038 -1.404,-4.182c0,-3.364 2.29,-5 7,-5c7.299,0 11,4.71 11,14c0,9.29 -3.701,14 -11,14Zm-4,-14.5c0,-1.526 0.592,-2.5 1,-2.5c0.408,0 1,0.974 1,2.5c0,1.526 -0.592,2.5 -1,2.5c-0.408,0 -1,-0.974 -1,-2.5Z" fill="#000"></path></svg>