<?xml version="1.0" encoding="UTF-8"?><svg version="1.1" viewBox="0 0 30 30" xmlns="http://www.w3.org/2000/svg" xmlns:xlink="http://www.w3.org/1999/xlink"><path d="M26,12.003c-0.276,0 -0.5,0.224 -0.5,0.5c0,8.729 -9.621,13.503 -9.718,13.55c-0.248,0.121 -0.352,0.42 -0.231,0.668c0.086,0.178 0.264,0.282 0.45,0.282c0.074,0 0.148,-0.016 0.217,-0.05c0.103,-0.05 10.282,-5.102 10.282,-14.45c0,-0.276 -0.224,-0.5 -0.5,-0.5Zm0.886,-8.318c-0.001,-0.001 -0.001,-0.003 -0.003,-0.005c-2.711,-3.232 -7.313,-3.679 -11.883,-3.679c-4.249,1.10155e-16 -8.568,0.445 -11.377,3.672c-0.001,0.002 -0.001,0.003 -0.002,0.005c-1.838,2.112 -3.121,5.946 -3.121,9.325c0,10.152 9.604,15.367 11.529,16.309c0.934,0.458 1.96,0.687 2.986,0.687c1.017,0 2.035,-0.225 2.961,-0.677c1.924,-0.934 11.523,-6.109 11.523,-16.32c0.001,-2.86 -0.685,-7.013 -2.613,-9.317Zm-11.886,-2.682c4.066,-2.22045e-16 8.145,0.355 10.654,2.82c-1.511,0.631 -3.258,1.202 -4.135,1.18c-1.248,-0.047 -2.408,-0.32 -3.751,-0.636c-0.829,-0.195 -1.686,-0.396 -2.679,-0.575c-1.577,-0.284 -2.756,0.21 -3.796,0.657c-0.015,0.006 -0.03,0.013 -0.045,0.019c-0.197,0.084 -0.387,0.165 -0.573,0.239c-0.186,0.073 -0.367,0.138 -0.547,0.19c-0.359,0.102 -0.709,0.152 -1.067,0.109l-0.48,-0.055c-0.24,-0.027 -0.502,-0.058 -0.768,-0.093c-0.062,-0.009 -0.122,-0.016 -0.184,-0.025c-0.273,-0.039 -0.555,-0.089 -0.839,-0.149c-0.058,-0.012 -0.117,-0.025 -0.176,-0.039c-0.288,-0.067 -0.576,-0.148 -0.858,-0.249c-0.047,-0.017 -0.094,-0.037 -0.141,-0.055c-0.291,-0.113 -0.577,-0.243 -0.844,-0.406c-0.005,-0.003 -0.01,-0.007 -0.014,-0.01c2.56,-2.558 6.426,-2.922 10.243,-2.922Zm2.541,27.421c-1.589,0.771 -3.484,0.767 -5.072,-0.01c-1.831,-0.898 -10.969,-5.852 -10.969,-15.411c0,-2.976 1.049,-6.312 2.586,-8.316c0.032,0.021 0.067,0.038 0.1,0.058c0.071,0.045 0.144,0.085 0.216,0.126c0.118,0.068 0.236,0.133 0.357,0.192c0.076,0.037 0.153,0.07 0.23,0.104c0.122,0.053 0.244,0.103 0.367,0.149c0.078,0.028 0.154,0.056 0.232,0.082c0.127,0.042 0.254,0.08 0.381,0.116c0.075,0.021 0.149,0.042 0.224,0.061c0.132,0.033 0.262,0.063 0.392,0.09c0.07,0.015 0.14,0.031 0.21,0.044c0.134,0.025 0.265,0.047 0.396,0.068c0.066,0.011 0.132,0.023 0.198,0.032c0.112,0.017 0.221,0.031 0.331,0.045c0.26,0.034 0.514,0.064 0.75,0.09l0.469,0.054c0.131,0.018 0.261,0.025 0.387,0.025c0.069,0 0.134,-0.014 0.201,-0.018c0.09,-0.005 0.18,-0.012 0.269,-0.024c0.133,-0.019 0.264,-0.044 0.394,-0.076c0.085,-0.02 0.17,-0.038 0.254,-0.063c0.138,-0.041 0.273,-0.088 0.408,-0.138c0.071,-0.026 0.143,-0.049 0.213,-0.077c0.114,-0.045 0.225,-0.093 0.338,-0.14c0.08,-0.034 0.161,-0.066 0.24,-0.1c0.968,-0.416 1.97,-0.844 3.27,-0.61c0.966,0.173 1.811,0.372 2.627,0.564c1.394,0.328 2.597,0.611 3.942,0.662c0.176,0.007 0.37,-0.004 0.575,-0.027c0.097,-0.011 0.203,-0.032 0.305,-0.048c0.109,-0.018 0.215,-0.033 0.329,-0.056c0.135,-0.028 0.273,-0.063 0.413,-0.098c0.087,-0.022 0.173,-0.042 0.261,-0.067c0.151,-0.042 0.302,-0.087 0.454,-0.135c0.081,-0.025 0.16,-0.049 0.24,-0.076c0.153,-0.05 0.302,-0.1 0.452,-0.154c0.084,-0.03 0.165,-0.059 0.247,-0.089c0.137,-0.05 0.27,-0.099 0.401,-0.15c0.103,-0.04 0.199,-0.078 0.298,-0.117c0.1,-0.04 0.198,-0.078 0.292,-0.117c0.149,-0.061 0.284,-0.118 0.415,-0.174c0.031,-0.013 0.064,-0.027 0.094,-0.04c0.029,-0.012 0.064,-0.027 0.091,-0.039c1.584,2.151 2.153,5.814 2.153,8.386c-0.002,9.615 -9.13,14.532 -10.961,15.422Z" fill="#000"></path></svg>