<?xml version="1.0" encoding="UTF-8"?><svg version="1.1" viewBox="0 0 30 30" xmlns="http://www.w3.org/2000/svg" xmlns:xlink="http://www.w3.org/1999/xlink"><!--Generated by IJSVG (https://github.com/curthard89/IJSVG)--><g fill="#000"><path d="M4.85355,6.64645c0.195262,0.195262 0.195262,0.511845 0,0.707107c-0.195262,0.195262 -0.511845,0.195262 -0.707107,0c-0.195262,-0.195262 -0.195262,-0.511845 0,-0.707107c0.195262,-0.195262 0.511845,-0.195262 0.707107,0"></path><path d="M24.8536,6.64645c0.195262,0.195262 0.195262,0.511845 0,0.707107c-0.195262,0.195262 -0.511845,0.195262 -0.707107,0c-0.195262,-0.195262 -0.195262,-0.511845 0,-0.707107c0.195262,-0.195262 0.511845,-0.195262 0.707107,0"></path><path d="M14.5,25.5c-8.131,0 -14.5,-2.416 -14.5,-5.5c0,-0.091 0.024,-0.18 0.071,-0.257l3,-5c0.091,-0.151 0.253,-0.243 0.429,-0.243h2c0.276,0 0.5,0.224 0.5,0.5c0,1.419 3.491,3 8.5,3c5.009,0 8.5,-1.581 8.5,-3c0,-0.276 0.224,-0.5 0.5,-0.5h2c0.176,0 0.338,0.092 0.429,0.243l3,5c0.047,0.077 0.071,0.166 0.071,0.257c0,3.084 -6.369,5.5 -14.5,5.5Zm-13.494,-5.372c0.216,2.094 5.697,4.372 13.494,4.372c7.797,0 13.278,-2.278 13.494,-4.372l-2.777,-4.628h-1.284c-0.549,2.027 -4.421,3.5 -9.433,3.5c-5.012,0 -8.884,-1.473 -9.433,-3.5h-1.284l-2.777,4.628Z"></path><path d="M25.448,15.5h-1.896c-0.135,0 -0.265,-0.055 -0.359,-0.152c-0.094,-0.097 -0.145,-0.229 -0.141,-0.363c0.045,-1.437 -0.858,-4.337 -1.456,-6.257c-0.413,-1.329 -0.596,-1.928 -0.596,-2.228c0,-1.468 2.093,-2 3.5,-2c1.407,0 3.5,0.532 3.5,2c0,0.299 -0.183,0.896 -0.598,2.216c-0.607,1.937 -1.526,4.862 -1.455,6.259c0.007,0.137 -0.042,0.271 -0.137,0.37c-0.094,0.098 -0.225,0.155 -0.362,0.155Zm-1.408,-1h0.914c0.1,-1.64 0.896,-4.178 1.494,-6.083c0.254,-0.809 0.541,-1.726 0.552,-1.922c0,-0.614 -1.456,-0.995 -2.5,-0.995c-1.044,0 -2.5,0.381 -2.5,1c0.01,0.192 0.298,1.116 0.551,1.931c0.59,1.892 1.375,4.414 1.489,6.069Z"></path><path d="M5.448,15.5h-1.896c-0.135,0 -0.265,-0.055 -0.359,-0.152c-0.094,-0.097 -0.145,-0.229 -0.141,-0.363c0.045,-1.437 -0.858,-4.337 -1.456,-6.257c-0.413,-1.329 -0.596,-1.928 -0.596,-2.228c0,-1.468 2.093,-2 3.5,-2c1.407,0 3.5,0.532 3.5,2c0,0.299 -0.183,0.896 -0.598,2.216c-0.607,1.937 -1.526,4.862 -1.455,6.259c0.007,0.137 -0.042,0.271 -0.137,0.37c-0.094,0.098 -0.225,0.155 -0.362,0.155Zm-1.408,-1h0.914c0.1,-1.64 0.896,-4.178 1.494,-6.083c0.254,-0.809 0.541,-1.726 0.552,-1.922c0,-0.614 -1.456,-0.995 -2.5,-0.995c-1.042,0 -2.496,0.379 -2.5,0.997c0.012,0.201 0.298,1.121 0.551,1.934c0.59,1.892 1.375,4.414 1.489,6.069Z"></path></g></svg>