<?xml version="1.0" encoding="UTF-8"?><svg version="1.1" viewBox="0 0 30 30" xmlns="http://www.w3.org/2000/svg" xmlns:xlink="http://www.w3.org/1999/xlink"><path d="M19.479,11.095c0.099,0.124 0.245,0.189 0.392,0.189c0.109,0 0.219,-0.035 0.31,-0.107c0.217,-0.172 0.253,-0.487 0.081,-0.703l-0.621,-0.784c-0.172,-0.217 -0.487,-0.253 -0.702,-0.082c-0.217,0.172 -0.253,0.487 -0.081,0.703l0.621,0.784Zm-3.229,-0.095c0.276,0 0.5,-0.224 0.5,-0.5v-1c0,-0.276 -0.224,-0.5 -0.5,-0.5c-0.276,0 -0.5,0.224 -0.5,0.5v1c0,0.276 0.224,0.5 0.5,0.5Zm1.229,1.595c0.099,0.124 0.245,0.189 0.392,0.189c0.109,0 0.219,-0.035 0.31,-0.107c0.217,-0.172 0.253,-0.487 0.081,-0.703l-0.621,-0.784c-0.172,-0.217 -0.486,-0.253 -0.702,-0.082c-0.217,0.172 -0.253,0.487 -0.081,0.703l0.621,0.784Zm-4.083,1.259c0.098,0.097 0.226,0.146 0.354,0.146c0.128,0 0.256,-0.049 0.353,-0.146l0.707,-0.707c0.195,-0.195 0.195,-0.512 0,-0.707c-0.195,-0.195 -0.512,-0.195 -0.707,0l-0.707,0.707c-0.195,0.195 -0.195,0.512 1.77636e-15,0.707Zm15.354,-6.354h-27.5c-0.276,0 -0.5,0.224 -0.5,0.5c0,8.402 5.888,14.5 14,14.5c8.267,0 14.5,-6.233 14.5,-14.5c0,-0.276 -0.224,-0.5 -0.5,-0.5Zm-6.525,1c-0.259,3.903 -3.507,7 -7.475,7c-3.968,0 -7.216,-3.097 -7.475,-7h14.95Zm-7.475,13c-7.371,0 -12.764,-5.437 -12.992,-13h4.507c0.259,4.455 3.967,8 8.485,8c4.518,0 8.225,-3.545 8.485,-8h5.007c-0.236,7.563 -5.837,13 -13.492,13Zm-1.5,-10c0.276,0 0.5,-0.224 0.5,-0.5v-1c0,-0.276 -0.224,-0.5 -0.5,-0.5c-0.276,0 -0.5,0.224 -0.5,0.5v1c0,0.276 0.224,0.5 0.5,0.5Zm-2.707,-0.293c0.128,0 0.256,-0.049 0.353,-0.146l0.707,-0.707c0.195,-0.195 0.195,-0.512 0,-0.707c-0.195,-0.195 -0.512,-0.195 -0.707,0l-0.707,0.707c-0.195,0.195 -0.195,0.512 0,0.707c0.098,0.097 0.226,0.146 0.354,0.146Z" fill="#000"></path></svg>