<svg id="Layer_1" data-name="Layer 1" xmlns="http://www.w3.org/2000/svg" viewBox="0 0 30 30"><path d="M25,8.66a4.7,4.7,0,0,1-.88-.9,4.39,4.39,0,0,0-1.37-1.25A2.44,2.44,0,0,0,23,6,8.24,8.24,0,0,0,21.66.42.5.5,0,0,0,21,.28a.49.49,0,0,0-.19.65c.45.93-.61,2.49-1.25,3.42a.43.43,0,0,0,0,.07,12.79,12.79,0,0,0-2.3-1.56L15.77,2a.5.5,0,0,0-.69.69,23.71,23.71,0,0,1,2,3.47,6.57,6.57,0,0,0-6,2.76L5.9,18.37c-1.08,2.26-2.16,5.43.3,7.6a2,2,0,0,0-.85,2c.17.73.92.93,1.36,1l.06,0a.5.5,0,0,0,0,.69.52.52,0,0,0,.35.14.51.51,0,0,0,.36-.15,1.13,1.13,0,0,0,.4-1c-.12-.44-.56-.55-.94-.65s-.61-.17-.65-.31c-.13-.56.42-1,.74-1.19a4.52,4.52,0,0,0,2.32.7c2.11,0,3.91-1.64,5.23-3.07l6.87-8.38a6.33,6.33,0,0,0,.23-6.56,3,3,0,0,1,1,.08,11.86,11.86,0,0,0,2,.21l.15,0a.5.5,0,0,0,.33-.33A.5.5,0,0,0,25,8.66Zm-4.36,6.59-6.81,8.31c-2.56,2.78-4.5,3.39-6.51,2s-2.18-3.39-.57-6.78l5.16-9.41a5.47,5.47,0,0,1,4.6-2.31,6,6,0,0,1,.93.07l.06.17A3.22,3.22,0,0,0,18.73,9a2.9,2.9,0,0,0,1.74.48h.2A5.36,5.36,0,0,1,20.67,15.25Zm2.2-6.88a3.09,3.09,0,0,0-2,.11h0a2.27,2.27,0,0,0-.44,0,1.84,1.84,0,0,1-1.17-.31A2.15,2.15,0,0,1,18.47,7a2.14,2.14,0,0,0-.21-.43h0A12.5,12.5,0,0,0,17,3.91c.88.54,1.9,1.17,2,1.45A.5.5,0,0,0,20,5.6c.07-.14.25-.4.44-.69A11.64,11.64,0,0,0,21.66,2.7,7,7,0,0,1,22,5.79a.89.89,0,0,1-.25.53.52.52,0,0,0-.24.51.53.53,0,0,0,.39.41,2.71,2.71,0,0,1,1.51,1.15l.06.08Z"/></svg>