<?xml version="1.0" encoding="UTF-8"?><svg version="1.1" viewBox="0 0 30 30" xmlns="http://www.w3.org/2000/svg" xmlns:xlink="http://www.w3.org/1999/xlink"><g fill="#000"><path d="M24.843,27h-20.686c-1.531,0 -3.092,-1.046 -3.884,-2.604l-0.248,-0.741c-0.05,-0.152 -0.024,-0.319 0.07,-0.449c0.094,-0.129 0.245,-0.206 0.405,-0.206h28c0.16,0 0.311,0.077 0.405,0.207c0.094,0.129 0.12,0.296 0.07,0.449l-0.219,0.67c-0.821,1.628 -2.381,2.674 -3.913,2.674Zm-23.654,-3l0.004,0.015c0.492,0.952 1.619,1.985 2.964,1.985h20.687c1.32,0 2.43,-0.995 2.963,-2h-26.618Z"></path><path d="M18.5,24h-8c-3.033,0 -5.5,-2.467 -5.5,-5.5v-7.5c0,-1.103 0.897,-2 2,-2h15c1.103,0 2,0.897 2,2v2.06c0,0.276 -0.224,0.5 -0.5,0.5c-0.276,0 -0.5,-0.224 -0.5,-0.5v-2.06c0,-0.551 -0.449,-1 -1,-1h-15c-0.551,0 -1,0.449 -1,1v7.5c0,2.481 2.019,4.5 4.5,4.5h8c2.481,0 4.5,-2.019 4.5,-4.5v-0.56c0,-0.276 0.224,-0.5 0.5,-0.5c0.276,0 0.5,0.224 0.5,0.5v0.56c0,3.033 -2.467,5.5 -5.5,5.5Z"></path><path d="M18.779,8.043c-0.113,0 -0.226,-0.038 -0.319,-0.116c-0.521,-0.434 -0.807,-1.018 -0.807,-1.645c0,-0.627 0.287,-1.211 0.807,-1.645c0.29,-0.241 0.449,-0.553 0.449,-0.878c0,-0.325 -0.159,-0.636 -0.447,-0.876c-0.212,-0.177 -0.241,-0.492 -0.064,-0.704c0.177,-0.213 0.493,-0.241 0.704,-0.064c0.521,0.434 0.807,1.018 0.807,1.645c0,0.627 -0.287,1.211 -0.807,1.645c-0.29,0.241 -0.449,0.553 -0.449,0.877c0,0.325 0.159,0.637 0.447,0.876c0.212,0.177 0.241,0.492 0.064,0.704c-0.1,0.12 -0.242,0.181 -0.385,0.181Z"></path><path d="M14.991,8.043c-0.113,0 -0.226,-0.038 -0.319,-0.116c-0.521,-0.434 -0.807,-1.018 -0.807,-1.645c0,-0.627 0.287,-1.211 0.807,-1.645c0.29,-0.241 0.448,-0.553 0.448,-0.878c0,-0.325 -0.159,-0.636 -0.447,-0.876c-0.212,-0.177 -0.241,-0.492 -0.064,-0.704c0.178,-0.213 0.492,-0.241 0.704,-0.064c0.521,0.434 0.807,1.018 0.807,1.645c0,0.627 -0.287,1.211 -0.807,1.645c-0.29,0.241 -0.448,0.553 -0.448,0.877c0,0.325 0.159,0.637 0.447,0.876c0.212,0.177 0.241,0.492 0.064,0.704c-0.099,0.12 -0.241,0.181 -0.385,0.181Z"></path><path d="M11.213,8.043c-0.113,0 -0.226,-0.038 -0.319,-0.116c-0.521,-0.434 -0.807,-1.018 -0.807,-1.645c0,-0.627 0.287,-1.211 0.807,-1.645c0.29,-0.241 0.449,-0.553 0.449,-0.878c0,-0.325 -0.159,-0.636 -0.447,-0.876c-0.212,-0.177 -0.241,-0.492 -0.064,-0.704c0.177,-0.213 0.492,-0.241 0.704,-0.064c0.521,0.434 0.807,1.018 0.807,1.645c0,0.627 -0.287,1.211 -0.807,1.645c-0.29,0.241 -0.449,0.553 -0.449,0.877c0,0.325 0.159,0.637 0.447,0.876c0.212,0.177 0.241,0.492 0.064,0.704c-0.099,0.12 -0.241,0.181 -0.385,0.181Z"></path><path d="M26,17c-0.827,0 -1.5,-0.673 -1.5,-1.5c0,-0.827 0.673,-1.5 1.5,-1.5c0.827,0 1.5,0.673 1.5,1.5c0,0.827 -0.673,1.5 -1.5,1.5Zm0,-2c-0.276,0 -0.5,0.224 -0.5,0.5c0,0.276 0.224,0.5 0.5,0.5c0.276,0 0.5,-0.224 0.5,-0.5c0,-0.276 -0.224,-0.5 -0.5,-0.5Z"></path><path d="M26,19.5c-1.098,0 -2.114,-0.432 -2.862,-1.215c-0.19,-0.2 -0.183,-0.516 0.017,-0.707c0.2,-0.19 0.516,-0.183 0.707,0.017c0.557,0.584 1.316,0.905 2.138,0.905c1.654,0 3,-1.346 3,-3c0,-1.654 -1.346,-3 -3,-3c-0.822,0 -1.581,0.321 -2.138,0.905c-0.19,0.201 -0.507,0.208 -0.707,0.017c-0.2,-0.191 -0.207,-0.507 -0.017,-0.707c0.748,-0.783 1.764,-1.215 2.862,-1.215c2.206,0 4,1.794 4,4c0,2.206 -1.794,4 -4,4Z"></path></g></svg>