<?xml version="1.0" encoding="UTF-8"?><svg version="1.1" viewBox="0 0 30 30" xmlns="http://www.w3.org/2000/svg" xmlns:xlink="http://www.w3.org/1999/xlink"><path d="M9,7c0,0.276 0.224,0.5 0.5,0.5c0.276,0 0.5,-0.224 0.5,-0.5c0,-0.677 0.193,-0.963 0.437,-1.325c0.264,-0.39 0.563,-0.833 0.563,-1.675c0,-0.83 -0.296,-1.266 -0.558,-1.65c-0.237,-0.35 -0.442,-0.652 -0.442,-1.35c0,-0.276 -0.224,-0.5 -0.5,-0.5c-0.276,0 -0.5,0.224 -0.5,0.5c0,1.006 0.341,1.508 0.615,1.912c0.224,0.328 0.385,0.566 0.385,1.088c0,0.536 -0.164,0.78 -0.392,1.116c-0.27,0.402 -0.608,0.902 -0.608,1.884Zm4,0c0,0.276 0.224,0.5 0.5,0.5c0.276,0 0.5,-0.224 0.5,-0.5c0,-0.677 0.193,-0.963 0.437,-1.325c0.264,-0.39 0.563,-0.833 0.563,-1.675c0,-0.83 -0.296,-1.266 -0.558,-1.65c-0.237,-0.35 -0.442,-0.652 -0.442,-1.35c0,-0.276 -0.224,-0.5 -0.5,-0.5c-0.276,0 -0.5,0.224 -0.5,0.5c0,1.006 0.341,1.508 0.615,1.912c0.224,0.328 0.385,0.566 0.385,1.088c0,0.536 -0.164,0.78 -0.392,1.116c-0.27,0.402 -0.608,0.902 -0.608,1.884Zm4,0c0,0.276 0.224,0.5 0.5,0.5c0.276,0 0.5,-0.224 0.5,-0.5c0,-0.677 0.193,-0.963 0.437,-1.325c0.264,-0.39 0.563,-0.833 0.563,-1.675c0,-0.83 -0.296,-1.266 -0.558,-1.65c-0.237,-0.35 -0.442,-0.652 -0.442,-1.35c0,-0.276 -0.224,-0.5 -0.5,-0.5c-0.276,0 -0.5,0.224 -0.5,0.5c0,1.006 0.341,1.508 0.615,1.912c0.224,0.328 0.385,0.566 0.385,1.088c0,0.536 -0.164,0.78 -0.392,1.116c-0.27,0.402 -0.608,0.902 -0.608,1.884Zm7.5,5.5c-0.527,0 -1.034,0.131 -1.5,0.353v-1.853c0,-1.378 -1.121,-2.5 -2.5,-2.5h-15c-1.379,0 -2.5,1.122 -2.5,2.5v6c0,4.136 3.364,7.5 7.5,7.5h5c3.439,0 6.338,-2.329 7.219,-5.491c0.536,0.317 1.148,0.491 1.781,0.491c1.93,0 3.5,-1.57 3.5,-3.5c0,-1.93 -1.57,-3.5 -3.5,-3.5Zm-2.5,1.224c-0.002,0.017 0,0.034 0,0.052v3.224c0,3.584 -2.916,6.5 -6.5,6.5h-5c-3.584,0 -6.5,-2.916 -6.5,-6.5v-6c0,-0.827 0.673,-1.5 1.5,-1.5h15c0.827,0 1.5,0.673 1.5,1.5v2.724Zm2.5,4.776c-0.574,0 -1.122,-0.203 -1.565,-0.562c0.039,-0.308 0.065,-0.62 0.065,-0.938v-2.987c0.432,-0.326 0.954,-0.513 1.5,-0.513c1.379,0 2.5,1.122 2.5,2.5c0,1.378 -1.121,2.5 -2.5,2.5Zm-1,7h-21c-0.276,0 -0.5,0.224 -0.5,0.5c0,1.93 1.57,3.5 3.5,3.5h15c1.93,0 3.5,-1.57 3.5,-3.5c0,-0.276 -0.224,-0.5 -0.5,-0.5Zm-3,3h-15c-1.207,0 -2.218,-0.86 -2.45,-2h19.9c-0.232,1.14 -1.243,2 -2.45,2Z" fill="#000"></path></svg>