<?xml version="1.0" encoding="utf-8"?>
<!-- Generator: Adobe Illustrator 23.0.1, SVG Export Plug-In . SVG Version: 6.00 Build 0)  -->
<svg version="1.1" id="Ebene_1" xmlns="http://www.w3.org/2000/svg" xmlns:xlink="http://www.w3.org/1999/xlink" x="0px" y="0px"
	 viewBox="0 0 30 30" style="enable-background:new 0 0 30 30;" xml:space="preserve">
<g id="Cutting_Board_1">
</g>
<g id="Cutting_Board_2">
</g>
<g id="Chef_x27_s_Hat_1">
</g>
<g id="Chef_x27_s_Hat_2">
</g>
<g id="Kitchen_Scale">
</g>
<g id="Measuring_Cup">
</g>
<g id="Pot_1">
</g>
<g id="Pot_2">
</g>
<g id="Wok_1">
</g>
<g id="Wok_2">
</g>
<g id="Teapot">
</g>
<g id="Plate">
</g>
<g id="Sauce_Boat">
</g>
<g id="Cauldron">
</g>
<g id="Cookbook">
</g>
<g id="Salt_Pot">
</g>
<g id="Pepper_Pot_1">
</g>
<g id="Pepper_Pot_2">
</g>
<g id="Egg_Timer">
</g>
<g id="Olive_Oil_Pot">
</g>
<g id="Pancake_Griddle">
</g>
<g id="Pan">
</g>
<g id="Kettle">
</g>
<g id="Microwave">
</g>
<g id="Cooker">
</g>
<g id="Meat_Grinder">
</g>
<g id="Coffee_Maker">
</g>
<g id="Household_Mixer">
</g>
<g id="Stand_Mixer">
</g>
<g id="Hand_Blender">
</g>
<g id="Blender">
</g>
<g id="Cooker_Hood">
</g>
<g id="Refrigerator">
</g>
<g id="Freezer">
</g>
<g id="Apron">
</g>
<g id="Oven_Gloves">
</g>
<g id="Rolling_Pin">
</g>
<g id="Sieve">
</g>
<g id="Tea_Sieve">
</g>
<g id="Grater">
</g>
<g id="Knife_Holder">
</g>
<g id="Funnel">
</g>
<g id="Kitchen_Clock">
</g>
<g id="Lemon_Juicer">
</g>
<g id="Pastry_Bag_2">
</g>
<g id="Corkscrew">
</g>
<g id="Bottle_Opener">
</g>
<g id="Service">
</g>
<g id="Chopsticks">
</g>
<g id="Hatchet">
</g>
<g id="Filleting_Knife">
</g>
<g id="Bread_Knife">
</g>
<g id="Herb_Knife">
</g>
<g id="Whetting">
</g>
<g id="Cake_Knife">
</g>
<g id="Layer_58">
</g>
<g id="Ladle">
</g>
<g id="Sauce_Spoon">
</g>
<g id="Egg_Beater">
</g>
<g id="Meat_Fork">
</g>
<g id="Kitchen_Spoon_1">
</g>
<g id="Kitchen_Spoon_2">
</g>
<g id="Pizza_Cutter">
</g>
<g id="Potato_Musher">
</g>
<g id="Peeler">
</g>
<g id="Honey_Dipper">
</g>
<g id="Fork">
</g>
<g id="Knife">
</g>
<g id="Spoon">
</g>
<g id="Cutlery_Set">
</g>
<g id="Sugar_Bowl">
</g>
<g id="Matches">
</g>
<g id="Cezve">
</g>
<g>
	<path d="M21.8,29.9H8.2c-1.4,0-2.5-1.2-2.5-2.6V14c0-1,0.4-1.9,1.1-2.6l3.6-4.8C9.6,5.5,9.1,4.2,9.1,2.9V2.7c0-1.4,1.1-2.6,2.5-2.6
		h6.7c1.4,0,2.5,1.2,2.5,2.6v0.2c0,1.1-0.3,2.2-0.9,3.2l3.5,5.4c0.6,0.7,0.9,1.5,0.9,2.4v13.4C24.3,28.7,23.2,29.9,21.8,29.9z
		 M11.6,1.1c-0.8,0-1.5,0.7-1.5,1.6v0.2c0,1.2,0.4,2.3,1.2,3.3c0.2,0.3,0.2,0.6,0,0.9l-3.8,5c-0.5,0.5-0.8,1.2-0.8,2v13.3
		c0,0.9,0.7,1.6,1.5,1.6h13.6c0.8,0,1.5-0.7,1.5-1.6V13.9c0-0.7-0.2-1.3-0.7-1.8l0-0.1L19,6.5c-0.2-0.2-0.1-0.5,0-0.8
		c0.6-0.8,0.9-1.8,0.9-2.8V2.7c0-0.9-0.7-1.6-1.5-1.6H11.6z"/>
	<g>
		<path d="M8.6,27c-0.1,0-0.2,0-0.3-0.1C8,26.8,8,26.4,8.2,26.2l11.3-14.4c0.2-0.2,0.5-0.3,0.7-0.1c0.2,0.2,0.3,0.5,0.1,0.7
			L8.9,26.8C8.8,27,8.7,27,8.6,27z"/>
		<path d="M11.5,27c-0.1,0-0.2,0-0.3-0.1c-0.2-0.2-0.3-0.5-0.1-0.7l9.8-12.3c0.2-0.2,0.5-0.3,0.7-0.1c0.2,0.2,0.3,0.5,0.1,0.7
			l-9.8,12.3C11.8,27,11.6,27,11.5,27z"/>
		<path d="M8.6,22.9c-0.1,0-0.2,0-0.3-0.1c-0.2-0.2-0.3-0.5-0.1-0.7L18,9.6c0.2-0.2,0.5-0.3,0.7-0.1c0.2,0.2,0.3,0.5,0.1,0.7L9,22.7
			C8.9,22.9,8.8,22.9,8.6,22.9z"/>
		<path d="M8.6,19.4c-0.1,0-0.2,0-0.3-0.1C8,19.1,8,18.8,8.2,18.5L15.6,9c0.2-0.2,0.5-0.3,0.7-0.1c0.2,0.2,0.3,0.5,0.1,0.7l-7.5,9.6
			C8.8,19.3,8.7,19.4,8.6,19.4z"/>
		<path d="M14.7,27c-0.1,0-0.2,0-0.3-0.1c-0.2-0.2-0.3-0.5-0.1-0.7l6.6-8.3c0.2-0.2,0.5-0.3,0.7-0.1c0.2,0.2,0.3,0.5,0.1,0.7
			l-6.6,8.3C15,27,14.9,27,14.7,27z"/>
		<path d="M18.1,27c-0.1,0-0.2,0-0.3-0.1c-0.2-0.2-0.2-0.5-0.1-0.7l3.3-4c0.2-0.2,0.5-0.2,0.7-0.1c0.2,0.2,0.2,0.5,0.1,0.7l-3.3,4
			C18.4,27,18.2,27,18.1,27z"/>
		<path d="M21.1,27.1c-0.1,0-0.2,0-0.3-0.1c-0.2-0.2-0.3-0.5-0.1-0.7l0.4-0.5c0.2-0.2,0.5-0.3,0.7-0.1c0.2,0.2,0.3,0.5,0.1,0.7
			l-0.4,0.5C21.4,27.1,21.2,27.1,21.1,27.1z"/>
		<path d="M8.5,15.4c-0.1,0-0.2,0-0.3-0.1C8,15.1,8,14.8,8.2,14.6L12.5,9c0.2-0.2,0.5-0.3,0.7-0.1c0.2,0.2,0.3,0.5,0.1,0.7l-4.4,5.6
			C8.8,15.3,8.7,15.4,8.5,15.4z"/>
	</g>
	<path d="M14.7,6.6c-0.7,0-1.5-0.1-1.9-0.3C12,5.8,11.7,4,11.6,3.5c0-0.3,0.1-0.5,0.4-0.6c0.3-0.1,0.5,0.1,0.6,0.4
		c0.2,0.9,0.5,1.9,0.8,2.1c0.3,0.2,1.7,0.2,2.9,0.1c0.3,0,0.5,0.2,0.5,0.4c0,0.3-0.2,0.5-0.4,0.5C16,6.5,15.4,6.6,14.7,6.6z"/>
</g>
</svg>
