<?xml version="1.0" encoding="UTF-8"?><svg version="1.1" viewBox="0 0 30 30" xmlns="http://www.w3.org/2000/svg" xmlns:xlink="http://www.w3.org/1999/xlink"><g fill="#000"><path d="M15,30c-1.169,0 -7,-0.085 -7,-1.761v-17.739c0,-1.379 1.121,-2.5 2.5,-2.5h9c1.379,0 2.5,1.121 2.5,2.5v17.739c0,1.676 -5.831,1.761 -7,1.761Zm-6,-1.851c0.386,0.323 2.593,0.851 6,0.851c3.407,0 5.614,-0.528 6,-0.851v-17.649c0,-0.827 -0.673,-1.5 -1.5,-1.5h-9c-0.827,0 -1.5,0.673 -1.5,1.5v17.649Z"></path><path d="M18.5,9h-7c-0.276,0 -0.5,-0.224 -0.5,-0.5v-1.695c0,-1.021 0.563,-1.291 1.015,-1.508c0.108,-0.052 0.225,-0.106 0.344,-0.18c0.881,-0.539 0.881,-2.339 0.881,-4.617c0,-0.276 0.224,-0.5 0.5,-0.5h2.521c0.276,0 0.5,0.224 0.5,0.5c0,2.275 0,4.073 0.883,4.618v0c0.122,0.075 0.24,0.13 0.351,0.181c0.424,0.197 1.005,0.467 1.005,1.506v1.695c0,0.276 -0.224,0.5 -0.5,0.5Zm-6.5,-1h6v-1.195c0,-0.4 -0.049,-0.423 -0.427,-0.599c-0.143,-0.066 -0.297,-0.139 -0.455,-0.236v0c-1.268,-0.784 -1.351,-2.621 -1.357,-4.97h-1.521c-0.006,2.434 -0.086,4.191 -1.359,4.971c-0.15,0.092 -0.296,0.162 -0.433,0.228c-0.388,0.186 -0.448,0.214 -0.448,0.606v1.195Z"></path><path d="M15,24.956c-2.206,0 -4,-1.921 -4,-4.282c0,-1.146 0.805,-2.396 1.656,-3.721c0.833,-1.294 1.693,-2.632 1.848,-3.904c0.031,-0.263 0.228,-0.477 0.526,-0.439c0.264,0.016 0.47,0.234 0.47,0.499c0,4.115 1.193,4.867 2.151,5.472c0.632,0.398 1.349,0.849 1.349,2.093c0,2.361 -1.794,4.282 -4,4.282Zm-0.325,-9.411c-0.349,0.661 -0.766,1.311 -1.178,1.949c-0.769,1.197 -1.497,2.327 -1.497,3.18c0,1.81 1.346,3.282 3,3.282c1.654,0 3,-1.473 3,-3.282c0,-0.692 -0.295,-0.878 -0.882,-1.248c-0.878,-0.554 -2.014,-1.27 -2.443,-3.881Z"></path><path d="M15,24.956c-1.455,0 -1.761,-0.738 -1.761,-1.357c0,-1.046 1.389,-2.576 2.066,-2.06c0.342,0.264 1.455,1.192 1.455,2.066c0.001,0.617 -0.305,1.351 -1.76,1.351Zm-0.1,-2.456c-0.235,0.194 -0.661,0.746 -0.661,1.099c0,0.159 0,0.357 0.761,0.357c0.761,0 0.761,-0.187 0.761,-0.351c0,-0.222 -0.421,-0.722 -0.861,-1.105Z"></path></g></svg>