<?xml version="1.0" encoding="UTF-8"?><svg version="1.1" viewBox="0 0 30 30" xmlns="http://www.w3.org/2000/svg" xmlns:xlink="http://www.w3.org/1999/xlink"><g fill="#000"><path d="M5,26.5c-0.2,0 -0.3,0 -0.4,0c-0.1,0 -0.2,0 -0.3,0c-3.9,0 -4.3,-2.3 -4.3,-3c0,-1.5 1.7,-3.3 4.1,-4.2c0.1,0 8.1,-3.2 10.5,-5.5c2.4,-2.4 4.2,-5.4 5.5,-9.2c1.3,-3.8 2.6,-4.1 4.2,-4.1c1.9,0 3,1.1 3,3c0,0.3 -0.1,0.8 -0.2,1.4c-0.1,0.3 -0.3,0.4 -0.6,0.4c-0.3,-0.1 -0.4,-0.3 -0.4,-0.6c0.2,-0.6 0.2,-1 0.2,-1.1c0,-1.3 -0.7,-2 -2,-2c-1.1,0 -2.1,0 -3.3,3.4c-1.3,3.9 -3.3,7.1 -5.7,9.6c-2.5,2.3 -10.5,5.4 -10.9,5.6c-2.1,0.8 -3.4,2.3 -3.4,3.3c0,1.3 1.2,2 3.2,2c0.1,0 0.3,0 0.4,0c0.2,0 0.4,0 0.7,0c0.3,0 0.5,0.1 0.6,0.4c0.1,0.3 -0.1,0.5 -0.4,0.6c-0.1,0 -0.3,0 -0.5,0Z"></path><path d="M2.5,21c-0.3,0 -0.5,-0.2 -0.5,-0.5c-0.3,-2.4 1.8,-3.7 4.4,-5.3c1.8,-1.1 4.1,-2.5 6.2,-4.6c2.1,-2.1 3,-4 3.7,-5.5c1,-2.2 1.7,-3.8 5.2,-3.6c0.3,4.44089e-16 0.5,0.2 0.5,0.5c0,0.3 -0.2,0.5 -0.5,0.5c-2.8,-0.1 -3.3,1 -4.3,3.1c-0.7,1.6 -1.6,3.6 -3.9,5.8c-2.2,2.2 -4.5,3.6 -6.4,4.8c-2.7,1.7 -4.1,2.6 -4,4.3c0.1,0.2 -0.1,0.4 -0.4,0.5c0,0 0,0 0,0Z"></path><path d="M9.9,29.5c-2.7,0 -4.2,-1.5 -4.7,-3c-0.6,-1.8 0.2,-3.9 2,-4.8c1.8,-1 6.7,-4.4 8.7,-6.2c3.1,-2.7 3.9,-4.8 4.6,-6.5c0.5,-1.3 1,-2.5 2.3,-3.6c1.7,-1.4 3.8,-1.8 5.3,-1c1.3,0.6 2,2 2,3.9c0,4.1 -4.3,9.8 -7.9,13.5c-3.3,3.3 -8.5,7.2 -11,7.5c-0.6,0.2 -0.9,0.2 -1.3,0.2Zm16.4,-24.3c-1,8.88178e-16 -2,0.4 -3,1.2c-1.1,0.9 -1.5,1.9 -2,3.1c-0.7,1.8 -1.6,4 -4.8,6.8v0c-2,1.8 -7,5.3 -8.8,6.3c-1.3,0.7 -2,2.2 -1.5,3.6c0.4,1.3 1.9,2.6 4.8,2.2c2,-0.3 6.8,-3.6 10.5,-7.2c3.5,-3.5 7.6,-9 7.6,-12.8c0,-1.5 -0.5,-2.5 -1.5,-3c-0.4,-0.1 -0.9,-0.2 -1.3,-0.2Z"></path><path d="M3.5,24.5c0,0 -0.1,0 0,0l-3.1,-0.5c-0.2,0 -0.4,-0.2 -0.4,-0.4c0,-0.2 0.1,-0.4 0.3,-0.5l3,-1.5c0.2,-0.1 0.5,0 0.7,0.2c0.1,0.2 0,0.5 -0.2,0.7l-1.6,0.8l1.5,0.2c0.2,0 0.3,0.3 0.3,0.5c0,0.3 -0.3,0.5 -0.5,0.5Z"></path><path d="M25,4c-0.2,0 -0.4,-0.2 -0.5,-0.4l-0.2,-1.2l-0.8,1.4c-0.2,0.2 -0.5,0.2 -0.8,0.1c-0.2,-0.1 -0.3,-0.4 -0.2,-0.7l1.5,-2.5c0.1,-0.2 0.3,-0.3 0.5,-0.2c0.2,0 0.4,0.2 0.4,0.4l0.5,2.5c0.1,0.2 0,0.5 -0.4,0.6c0.1,0 0,0 0,0Z"></path></g></svg>