<?xml version="1.0" encoding="UTF-8"?><svg version="1.1" viewBox="0 0 30 30" xmlns="http://www.w3.org/2000/svg" xmlns:xlink="http://www.w3.org/1999/xlink"><defs><path d="" id="a"></path></defs><g fill="#000"><path d="M6,30c-1.9,0 -3,-1.1 -3,-3c0,-1.9 2.3,-10.2 7.8,-15.6c5.1,-5.1 11.8,-7.4 14.9,-7.4c4,0 4.3,2.3 4.3,3c0,1.6 -1.8,3.4 -4.1,4.2v0c-0.5,0.2 -1.2,0.4 -1.9,0.6c-2.4,0.7 -5.7,1.6 -7.5,3.4c-2.3,2.3 -4.9,6.8 -6.3,10.7c-1.3,3.8 -2.6,4.1 -4.2,4.1Zm19.7,-25c-3,0 -9.4,2.2 -14.3,7.1c-5.1,5.2 -7.4,13.2 -7.4,14.9c0,1.3 0.7,2 2,2c1.1,0 2.1,0 3.3,-3.4c1.4,-4.1 4.1,-8.7 6.5,-11.1c2,-2 5.4,-3 7.9,-3.7c0.7,-0.2 1.3,-0.4 1.9,-0.6v0c2,-0.6 3.4,-2.2 3.4,-3.2c0,-1.3 -1.2,-2 -3.3,-2Z"></path><path d="M11,11.5c-0.1,0 -0.3,0 -0.4,-0.1l-4.5,-4.5c-0.1,-0.2 -0.1,-0.6 0,-0.8c0.1,-0.2 0.5,-0.2 0.7,0l4.5,4.5c0.2,0.2 0.2,0.5 0,0.7c0,0.2 -0.2,0.2 -0.3,0.2Z"></path><path d="M5,5.5c-0.1,0 -0.3,0 -0.4,-0.1l-4.5,-4.5c-0.1,-0.2 -0.1,-0.6 3.60822e-16,-0.8c0.1,-0.2 0.5,-0.2 0.7,0l4.5,4.5c0.2,0.2 0.2,0.5 0,0.7c0,0.2 -0.2,0.2 -0.3,0.2Z"></path></g><use fill="none" stroke="#000" stroke-linecap="round" stroke-linejoin="round" stroke-width="1" xlink:href="#a"></use><g fill="#000"><path d="M26.5,9c-0.2,0 -0.4,-0.1 -0.4,-0.3c-0.1,-0.2 0,-0.5 0.2,-0.7l1.6,-0.8l-1.5,-0.2c-0.3,0 -0.5,-0.3 -0.4,-0.6c0.1,-0.3 0.3,-0.4 0.6,-0.4l3,0.5c0.2,0 0.4,0.2 0.4,0.4c0,0.2 -0.1,0.4 -0.3,0.5l-3,1.5c0,0.1 -0.1,0.1 -0.2,0.1Z"></path><path d="M6,30c0,0 -0.1,0 0,0c-0.3,0 -0.4,-0.2 -0.5,-0.4l-0.5,-2.5c-0.1,-0.3 0.1,-0.5 0.4,-0.6c0.3,-0.1 0.5,0.1 0.6,0.4l0.2,1.2l0.8,-1.4c0.1,-0.2 0.4,-0.3 0.7,-0.2c0.3,0.2 0.4,0.5 0.2,0.8l-1.5,2.5c-0.1,0.1 -0.2,0.2 -0.4,0.2Z"></path><path d="M9,14.5c-0.1,0 -0.3,0 -0.4,-0.1l-4,-4c-0.7,-0.8 -1.1,-1.8 -1.1,-2.9c0,-1.1 0.4,-2.1 1.2,-2.9c1.5,-1.5 4.2,-1.5 5.7,0l3.5,3.5c0.2,0.2 0.2,0.5 0,0.7c-0.2,0.2 -0.5,0.2 -0.7,0l-3.6,-3.4c-1.2,-1.2 -3.1,-1.2 -4.3,0c-1.2,1.2 -1.2,3.1 0,4.3l4,4c0.2,0.2 0.2,0.5 0,0.7c0,0.1 -0.2,0.1 -0.3,0.1Z"></path></g><use fill="none" stroke="#000" stroke-linecap="round" stroke-linejoin="round" stroke-width="1" xlink:href="#a"></use><use xlink:href="#a" stroke-linecap="round" stroke-width="1" stroke="#000" fill="none" stroke-linejoin="round"></use></svg>