<svg xmlns="http://www.w3.org/2000/svg" viewBox="0 0 30 30"><path d="M4.4 13.8c-.6 0-1.1-.4-1.2-1l-1-10c0-.3.1-.6.3-.9.2-.2.5-.4.8-.4l10-1c.6-.1 1.2.4 1.3 1l.8 6.8-.9 1.1-.9-7.8c0-.1-.1-.2-.2-.1l-10 1c-.1 0-.2.1-.1.2l1 10c0 .1.1.2.2.1l8.7-.9.1 1-8.7.9h-.2zm.8-6.7c-.3 0-.5-.2-.5-.4l-.2-2c0-.3.1-.6.3-.9.2-.2.5-.4.8-.4l1.7-.2c.3 0 .5.2.5.4 0 .3-.2.5-.4.5l-1.8.2c-.1 0-.1 0-.1.1v.1l.2 2c0 .3-.2.5-.5.6z"/><path d="M22.9 18.7c-.1 0-.3 0-.4-.1l-1.7-.7.4-.9 1.7.7c.1 0 .2 0 .2-.1l3.8-9.3c0-.1 0-.2-.1-.2l-9.3-3.8c-.1 0-.2 0-.2.1l-3.8 9.3c0 .1 0 .2.1.2l3.8 1.5-.8.7-3.4-1.3a.9.9 0 0 1-.6-.6c-.1-.3-.1-.6 0-.9L16.2 4c.2-.6.9-.9 1.5-.6L27 7.2a.9.9 0 0 1 .6.6c.1.3.1.6 0 .9L23.8 18a.9.9 0 0 1-.6.6s-.2.1-.3.1zm1.1-7.6h-.2c-.3-.1-.4-.4-.3-.6l.4-1.2s-.1-.1-.2-.1l-3.3-1.4c-.3-.1-.4-.4-.3-.7s.4-.4.7-.3l3.3 1.4c.3.1.6.3.8.6.1.3.1.6 0 .9l-.3 1c-.2.2-.4.4-.6.4z"/><path d="M13.1 29.6c-.4 0-.9-.3-1-.7l-3.2-9.7c-.1-.3-.1-.6.1-.8.1-.3.3-.4.6-.5l9.7-3.2c.3-.1.6-.1.8.1.3.1.4.3.5.6l3.2 9.7c.2.6-.1 1.2-.7 1.3l-9.7 3.2h-.3zm6.6-14.1l-9.8 3.2 3.2 9.8 9.8-3.2s.1 0 0-.1l-3.2-9.7zm-4.5 11.6a1.1 1.1 0 0 1-1-.6l-3.3-6.3c-.1-.2 0-.5.2-.7.2-.1.5 0 .7.2l3.3 6.3c0 .1.1.1.2.1l1.8-1c.2-.1.5 0 .7.2.1.2 0 .5-.2.7l-1.8 1c-.2.1-.4.1-.6.1zm5.5-3.1a.55.55 0 0 1-.5-.3l-1.3-3.8c-.1-.3.1-.5.3-.6.3-.1.5.1.6.3l1.3 3.8c.1.3-.1.5-.3.6h-.1zM8.2 11.4c-.3 0-.5-.2-.5-.4 0-.3.2-.5.4-.5l2.3-.2c.3 0 .5.2.5.4 0 .3-.2.5-.4.5l-2.3.2z"/></svg>