<?xml version="1.0" encoding="UTF-8"?><svg version="1.1" viewBox="0 0 30 30" xmlns="http://www.w3.org/2000/svg" xmlns:xlink="http://www.w3.org/1999/xlink"><g fill="#000"><path d="M20,6c-0.3,0 -0.5,-0.2 -0.5,-0.5c0,-2.5 -2,-4.5 -4.5,-4.5c-2.5,0 -4.5,2 -4.5,4.5c0,0.3 -0.2,0.5 -0.5,0.5c-0.3,0 -0.5,-0.2 -0.5,-0.5c0,-3 2.5,-5.5 5.5,-5.5c3,0 5.5,2.5 5.5,5.5c0,0.3 -0.2,0.5 -0.5,0.5Z"></path><path d="M15,21c-1.2,0 -2.5,-1.5 -2.5,-3c0,-0.7 0.1,-1.3 0.2,-1.9c0.1,-0.4 0.1,-0.8 0.1,-1.1c0,-0.3 -0.2,-1 -0.8,-1.5c-0.4,-0.4 -0.8,-0.6 -1.3,-0.5c-1.8,0.1 -3.4,-0.6 -4.2,-1.8c-1.1,-1.9 -1.4,-4 -0.5,-5.9c0.8,-1.8 2.5,-3 4.4,-3.3c0.3,0 0.6,0.2 0.6,0.4c0,0.3 -0.2,0.6 -0.4,0.6c-1.6,0.2 -3,1.2 -3.7,2.7c-0.7,1.6 -0.5,3.4 0.5,4.9c0.6,1 1.8,1.5 3.3,1.4c0.8,0 1.5,0.2 2.1,0.8c0.7,0.7 1.1,1.6 1.1,2.2c0,0.4 -0.1,0.8 -0.2,1.3c-0.1,0.5 -0.2,1.1 -0.2,1.7c0,1 0.9,2 1.5,2c0.4,0 0.5,-1.3 0.5,-1.9v-0.1c0,-1.1 -0.2,-2 -0.3,-2.8c-0.2,-0.8 -0.4,-1.6 -0.1,-2.3c0.2,-0.6 0.7,-0.9 1.3,-0.9h1.6c2.5,0 5.3,-1.3 5.5,-3.5c0.2,-2.5 -2.1,-5.2 -4.6,-5.5c-0.3,0 -0.5,-0.3 -0.4,-0.6c0.1,-0.3 0.3,-0.4 0.6,-0.4c3,0.4 5.7,3.6 5.4,6.5c-0.3,2.9 -3.5,4.5 -6.5,4.5h-1.7c-0.2,0 -0.3,0.1 -0.4,0.3c-0.1,0.4 0,1 0.2,1.7c0.2,0.8 0.4,1.8 0.4,3v0.1c0,1.1 -0.1,2.9 -1.5,2.9Z"></path><path d="M15,30c-0.2,0 -0.4,-0.1 -0.5,-0.3l-7,-17.5c-0.1,-0.3 0,-0.5 0.3,-0.7c0.3,-0.1 0.5,0 0.6,0.3l6.6,16.3l5.6,-16.2c0.1,-0.3 0.4,-0.4 0.6,-0.3c0.3,0.1 0.4,0.4 0.3,0.6l-6,17.5c-0.1,0.2 -0.3,0.3 -0.5,0.3c0,0 0,0 0,0Z"></path><path d="M14.7,11c-1.5,0 -2.9,-0.6 -3.9,-1.6c-0.2,-0.2 -0.2,-0.5 0,-0.7c0.2,-0.2 0.5,-0.2 0.7,0c0.8,0.8 2,1.3 3.2,1.3c1.2,0 2.3,-0.5 3.2,-1.3c0.2,-0.2 0.5,-0.2 0.7,0c0.2,0.2 0.2,0.5 0,0.7c-1,1 -2.4,1.6 -3.9,1.6Z"></path></g></svg>