<?xml version="1.0" encoding="UTF-8"?><svg version="1.1" viewBox="0 0 30 30" xmlns="http://www.w3.org/2000/svg" xmlns:xlink="http://www.w3.org/1999/xlink"><g fill="#000"><path d="M14.5,30v0c-0.219,0 -0.412,-0.142 -0.478,-0.351l-4.89,-15.64c-0.082,-0.264 0.064,-0.544 0.328,-0.626c0.27,-0.083 0.544,0.065 0.627,0.328l4.413,14.114l4.412,-14.104c0.083,-0.264 0.363,-0.409 0.627,-0.328c0.264,0.083 0.41,0.363 0.328,0.626l-4.89,15.63c-0.065,0.209 -0.258,0.351 -0.477,0.351Z"></path><path d="M20.528,15.002c-0.655,0 -1.238,-0.543 -1.609,-0.888c-0.195,-0.183 -0.381,-0.355 -0.537,-0.45c-0.527,-0.322 -1.157,-0.398 -1.73,-0.207c-0.06,0.033 -0.183,0.12 -0.317,0.212c-0.428,0.291 -1.013,0.69 -1.834,0.69c-0.026,0 -0.053,-0.002 -0.078,-0.006c-0.78,-0.024 -1.343,-0.407 -1.757,-0.689c-0.135,-0.092 -0.258,-0.178 -0.376,-0.235c-0.512,-0.167 -1.144,-0.092 -1.671,0.23c-0.156,0.096 -0.342,0.268 -0.537,0.451c-0.558,0.519 -1.594,1.488 -2.638,0.378c-0.626,-0.667 -0.361,-1.421 -0.149,-2.028c0.168,-0.479 0.326,-0.931 0.194,-1.424c-0.022,-0.064 -0.07,-0.181 -0.121,-0.308c-0.173,-0.427 -0.368,-0.911 -0.368,-1.325c0,-1.725 1.018,-3.263 2.572,-3.948c-0.017,-0.168 -0.026,-0.333 -0.026,-0.503c0,-2.731 2.223,-4.952 4.954,-4.952c0.025,0 0.05,0.002 0.074,0.005c2.697,0.04 4.88,2.246 4.88,4.951c0,0.17 -0.009,0.335 -0.026,0.503c1.554,0.686 2.572,2.224 2.572,3.949c0,0.414 -0.195,0.898 -0.367,1.325c-0.051,0.127 -0.099,0.244 -0.132,0.341c-0.121,0.46 0.037,0.913 0.205,1.391c0.212,0.607 0.477,1.362 -0.149,2.028c-0.349,0.371 -0.699,0.509 -1.029,0.509Zm-3.219,-2.642c0.563,0 1.108,0.154 1.593,0.45c0.244,0.148 0.476,0.364 0.699,0.573c0.781,0.728 0.94,0.731 1.228,0.425c0.184,-0.196 0.151,-0.392 -0.066,-1.013c-0.19,-0.544 -0.427,-1.222 -0.217,-2.012c0.049,-0.145 0.103,-0.279 0.16,-0.424c0.117,-0.291 0.294,-0.731 0.294,-0.951c0,-1.436 -0.918,-2.702 -2.283,-3.151c-0.239,-0.079 -0.383,-0.323 -0.335,-0.57c0.05,-0.255 0.072,-0.487 0.072,-0.73c0,-2.179 -1.773,-3.952 -3.954,-3.952c-0.022,0 -0.045,-0.001 -0.066,-0.004c-2.149,0.036 -3.888,1.794 -3.888,3.951c0,0.244 0.022,0.476 0.072,0.73c0.048,0.247 -0.096,0.491 -0.335,0.57c-1.365,0.449 -2.283,1.715 -2.283,3.151c0,0.22 0.177,0.66 0.295,0.951c0.058,0.146 0.111,0.28 0.149,0.391c0.221,0.823 -0.016,1.5 -0.206,2.045c-0.218,0.621 -0.25,0.817 -0.066,1.013c0.287,0.306 0.445,0.304 1.228,-0.425c0.224,-0.209 0.455,-0.425 0.699,-0.573c0.78,-0.475 1.716,-0.584 2.566,-0.301c0.217,0.101 0.384,0.211 0.563,0.334c0.373,0.254 0.759,0.517 1.271,0.517c0.021,0 0.041,0.001 0.061,0.003c0.482,-0.02 0.853,-0.271 1.21,-0.515c0.181,-0.123 0.348,-0.233 0.506,-0.31c0.344,-0.116 0.692,-0.173 1.033,-0.173Z"></path><path d="M19.373,6.282c-0.052,0 -0.104,-0.008 -0.156,-0.025c-0.332,-0.109 -0.681,-0.165 -1.035,-0.165c-0.276,0 -0.5,-0.224 -0.5,-0.5c0,-0.276 0.224,-0.5 0.5,-0.5c0.461,0 0.914,0.072 1.348,0.214c0.262,0.086 0.405,0.369 0.318,0.631c-0.069,0.211 -0.265,0.345 -0.475,0.345Z"></path><path d="M10.668,6.235c-0.21,0 -0.406,-0.133 -0.475,-0.344c-0.087,-0.262 0.057,-0.545 0.318,-0.631c0.431,-0.141 0.881,-0.213 1.337,-0.213c0.276,0 0.5,0.224 0.5,0.5c0,0.276 -0.224,0.5 -0.5,0.5c-0.351,0 -0.695,0.055 -1.024,0.163c-0.052,0.018 -0.104,0.025 -0.156,0.025Z"></path><path d="M18.25,18.02c-0.037,0 -0.075,-0.004 -0.112,-0.013l-8.08,-1.87c-0.27,-0.063 -0.438,-0.331 -0.375,-0.6c0.063,-0.269 0.336,-0.436 0.6,-0.375l8.08,1.87c0.27,0.063 0.438,0.331 0.375,0.6c-0.054,0.232 -0.26,0.388 -0.488,0.388Z"></path><path d="M17.15,21.54c-0.037,0 -0.074,-0.004 -0.112,-0.013l-5.7,-1.31c-0.269,-0.062 -0.437,-0.33 -0.375,-0.599c0.062,-0.269 0.328,-0.436 0.6,-0.375l5.7,1.31c0.269,0.062 0.437,0.33 0.375,0.599c-0.053,0.231 -0.259,0.388 -0.488,0.388Z"></path><path d="M16.04,25.07c-0.036,0 -0.074,-0.004 -0.111,-0.013l-3.32,-0.76c-0.27,-0.062 -0.438,-0.33 -0.376,-0.599c0.061,-0.269 0.326,-0.439 0.599,-0.376l3.32,0.76c0.27,0.062 0.438,0.33 0.376,0.599c-0.053,0.232 -0.259,0.389 -0.488,0.389Z"></path></g></svg>