<?xml version="1.0" encoding="UTF-8"?>
<svg viewBox="0 0 30 30" version="1.1" xmlns="http://www.w3.org/2000/svg" xmlns:xlink="http://www.w3.org/1999/xlink">
    <g id="Page-1" stroke="none" stroke-width="1" fill="none" fill-rule="evenodd">
        <g id="Outlines_black-Copy" transform="translate(-270.000000, -114.000000)">
            <g id="Group-3" transform="translate(3.000000, 114.000000)" fill="#000000" fill-rule="nonzero">
                <path d="M281.737781,25.8494727 C286.218609,25.8494727 288.755998,22.8221051 288.755998,18.2099712 L288.755998,4.15052733 L283.969805,4.15052733 L283.969805,17.7267498 C283.969805,20.6503771 283.004363,21.8916587 280.909402,21.8916587 C279.804929,21.8916587 278.710388,21.2092911 277.912289,20.0206052 L274.838114,22.3262366 C276.39507,24.7524085 278.522893,25.8494727 281.737781,25.8494727 Z M281.737781,27 C277.930765,27 275.36442,25.5575374 273.577284,22.4672819 C273.431475,22.2151541 273.497108,21.8938317 273.730111,21.7190796 L277.733946,18.7162033 C278.017554,18.5034977 278.424196,18.5954523 278.588691,18.9094878 C279.211897,20.0992447 280.104276,20.7411314 280.909402,20.7411314 C282.296703,20.7411314 282.819277,20.0692503 282.819277,17.7267498 L282.819277,3.57526366 C282.819277,3.25755431 283.076831,3 283.394541,3 L289.331262,3 C289.648971,3 289.906526,3.25755431 289.906526,3.57526366 L289.906526,18.2099712 C289.906526,23.416993 286.903427,27 281.737781,27 Z" id="J-Copy-2"></path>
            </g>
            <g id="Slices" transform="translate(0.000000, 114.000000)"></g>
        </g>
    </g>
</svg>