<svg xmlns="http://www.w3.org/2000/svg" viewBox="0 0 27 30"><path d="M13.294 29.098l-.023.001a94.33 94.33 0 0 1-.135 0h-.135a.5.5 0 0 1-.023-.001c-5.197-.018-10.53-.528-11.654-2.776-.56-1.122-.856-2.7-.98-4.747C.284 20.563.27 19.735.27 18.1a52.1 52.1 0 0 0-.02-1.261c-.033-1.6-.03-2.605.035-3.713.18-3.015.802-5.055 2.172-5.92.442-.447.732-.8.865-1.08.08-.16.08-.186.094-.173a.5.5 0 0 1 .707-.707c.634.634.194 1.513-1 2.707l-.096.075c-1.02.613-1.58 2.42-1.744 5.157-.064 1.074-.067 2.057-.034 3.632l.02 1.282c0 1.616.013 2.43.072 3.417.115 1.923.4 3.388.875 4.36.9 1.798 6.038 2.216 10.917 2.224 4.88-.008 10.018-.425 10.917-2.224.764-1.527.947-3.65.947-7.776 0-.286.001-.362.02-1.282.033-1.575.03-2.558-.034-3.632-.163-2.736-.723-4.544-1.744-5.157l-.096-.075c-1.194-1.194-1.634-2.073-1-2.707a.5.5 0 0 1 .707.707c.013-.013.013.01.094.173.134.268.423.632.865 1.08 1.37.866 1.992 2.906 2.172 5.92.066 1.108.07 2.112.035 3.713L26 18.1c0 4.314-.2 6.496-1.053 8.224-1.124 2.248-6.456 2.758-11.654 2.776zM6 12.132a1 1 0 0 0-1 1v7.03a1 1 0 0 0 1 1h14a1 1 0 0 0 1-1v-7.03a1 1 0 0 0-1-1H6zm0-1h14a2 2 0 0 1 2 2v7.03a2 2 0 0 1-2 2H6a2 2 0 0 1-2-2v-7.03a2 2 0 0 1 2-2z"/><path d="M1.63 1.432c-.083.34-.13.87-.13 1.573 0 .71.047 1.244.132 1.582 2.1.277 5.9.418 11.368.418 5.458 0 9.252-.14 11.354-.416.093-.343.146-.877.146-1.584 0-.7-.05-1.23-.143-1.574-2.397-.283-6.19-.426-11.357-.426-5.178 0-8.974.144-11.37.427zM1.512.44C3.957.15 7.786.004 13 .004c5.205 0 9.03.144 11.474.433a1 1 0 0 1 .849.735c.118.442.177 1.052.177 1.832 0 .788-.06 1.404-.18 1.846a1 1 0 0 1-.835.729c-2.158.283-5.986.425-11.484.425-5.51 0-9.344-.142-11.498-.426a1 1 0 0 1-.839-.748C.554 4.398.5 3.8.5 3.004c0-.777.053-1.38.16-1.81a1 1 0 0 1 .853-.754z"/></svg>