<?xml version="1.0" encoding="utf-8"?>
<!-- Generator: Adobe Illustrator 23.0.1, SVG Export Plug-In . SVG Version: 6.00 Build 0)  -->
<svg version="1.1" id="Layer_1" xmlns="http://www.w3.org/2000/svg" xmlns:xlink="http://www.w3.org/1999/xlink" x="0px" y="0px"
	 viewBox="0 0 30 30" style="enable-background:new 0 0 30 30;" xml:space="preserve">

<path d="M22.3,0.2H7.9C7.4,0.2,7,0.6,7,1.1v1.3c0,0.4,0.3,0.7,0.7,0.7h1.6l0,0.3c0,0,0,0.3-0.1,0.4C9,4,8.7,4.1,8.4,4.1H8.1
	c-0.4,0-0.7,0.3-0.7,0.7v24.3c0,0.4,0.3,0.7,0.7,0.7h13.7c0.4,0,0.7-0.3,0.7-0.7V4.8c0-0.4-0.3-0.7-0.7-0.7h-0.3
	c-0.2,0-0.5,0-0.7-0.2c-0.2-0.2-0.1-0.4-0.1-0.4l0-0.3h1.6c0.4,0,0.7-0.3,0.7-0.7V0.9C23,0.5,22.7,0.2,22.3,0.2z M20.1,4.5
	c0.3,0.4,0.8,0.6,1.5,0.6v0l0,0v23.7H8.4V5.1h0v0c0.6,0,1.1-0.2,1.5-0.6c0.5-0.5,0.4-1.1,0.4-1.2V3.2h9.4v0.2
	C19.7,3.4,19.6,4,20.1,4.5z M22,2.2H8V1.2h14V2.2z"/>
<path d="M18.8,25.3h-7.7c-0.4,0-0.7-0.3-0.7-0.7V7.9c0-0.4,0.3-0.7,0.7-0.7h7.7c0.4,0,0.7,0.3,0.7,0.7v16.7
	C19.5,25,19.2,25.3,18.8,25.3z M11.5,24.3h7.1V8.2h-7.1V24.3z"/>
</svg>
