<svg id="Layer_1" data-name="Layer 1" xmlns="http://www.w3.org/2000/svg" viewBox="0 0 30 30"><path d="M26.43,4.65A.58.58,0,0,0,27,4.08V1.19a.58.58,0,0,0-.57-.54H3.57A.58.58,0,0,0,3,1.22V4.06a.58.58,0,0,0,.55.59H5v.7a.5.5,0,0,1-.5.5H3.57A.56.56,0,0,0,3,6.4H3V28.79a.56.56,0,0,0,.56.56H26.43A.56.56,0,0,0,27,28.8h0V6.42a.56.56,0,0,0-.56-.56H25.5a.5.5,0,0,1-.5-.5V4.65ZM24,13V25.36H6V13ZM13.89,1.65h2.22V12H13.89ZM4,3.65v-2h8.89v2ZM25.41,6.84H26V28.35H4V6.86h.46A1.5,1.5,0,0,0,6,5.36V4.65h6.89V12H5.55a.57.57,0,0,0-.56.57V25.78a.56.56,0,0,0,.55.57H24.39A.56.56,0,0,0,25,25.8V12.55a.58.58,0,0,0-.57-.57H17.11V4.65H24v.7A1.49,1.49,0,0,0,25.41,6.84Zm-8.3-3.19v-2H26v2Z"/></svg>