<?xml version="1.0" encoding="UTF-8"?><svg version="1.1" viewBox="0 0 26 30" xmlns="http://www.w3.org/2000/svg" xmlns:xlink="http://www.w3.org/1999/xlink"><!--Generated by IJSVG (https://github.com/curthard89/IJSVG)--><g transform="matrix(1,0,0,1,-62,-90)"><g transform="matrix(1,0,0,1,62,90)"><path fill="#000" fill-rule="evenodd" stroke="none" d="M22.0223,21.9183c-1.09121,0.181201 -4.12659,0.421468 -8.9079,0.421468c-4.78231,0 -7.81669,-0.240267 -8.9089,-0.421468v-8.71669c0.92703,0.136151 2.28554,0.238265 4.10556,0.309344c0.0100111,0 0.0210234,0 0.0310345,0c0.0350389,0 0.0690767,-0.0020023 0.103115,-0.0060067c0.101112,-0.0130145 0.205228,-0.0190211 0.310345,-0.0190211c0.176196,0 0.366407,0.0170189 0.564627,0.0510567c0.0370412,0.0060067 0.0740823,0.0100111 0.112125,0.0110122c1.90512,0.0540601 3.54594,0.0550612 3.72614,0.0550612c3.81224,0 7.07586,-0.148165 8.86485,-0.390434l-0.0010011,8.70567Zm-12.567,-9.17119c-0.237264,-0.0400445 -0.471524,-0.0620689 -0.699778,-0.0620689c-0.140156,0 -0.278309,0.0080089 -0.413459,0.0250278c-2.04027,-0.0790879 -4.13059,-0.223248 -4.93648,-0.493548v10.2604c0.0170189,0.017019 0.0290323,0.0380423 0.0370412,0.0610679c0.380423,0.257286 3.88832,0.60267 9.67175,0.60267c5.78343,0 9.29132,-0.345384 9.67075,-0.60267c0.0080089,-0.0230256 0.0210234,-0.0440489 0.0380423,-0.062069l0.0010011,-10.2234c-1.18231,0.323359 -5.06563,0.549611 -9.66574,0.549611c-0.160178,0 -1.79499,-0.0010011 -3.70311,-0.0550612Z"></path><path fill="#000" fill-rule="evenodd" stroke="none" d="M24.8842,23.7477c-0.0150167,0.0310344 -0.0340378,0.0620689 -0.0500556,0.0911012c-0.0420467,0.0770856 -0.0810901,0.149166 -0.104116,0.201224c-0.256285,0.554616 -0.47653,1.06018 -0.671746,1.54472c-0.150167,0.368409 -0.291324,0.740823 -0.422469,1.11524c-0.0320356,0.0901001 -0.062069,0.212236 -0.0921023,0.343381c-0.0160178,0.0700779 -0.0410456,0.177197 -0.062069,0.24327c-0.211235,0.188209 -0.481535,0.3604 -0.822914,0.526585c-0.992102,0.484538 -2.14038,0.723804 -3.02937,0.877975c-1.70189,0.293326 -3.51791,0.436485 -5.55117,0.436485c-0.287319,0 -0.574639,-0.0030033 -0.860957,-0.0080089l-0.668743,-0.0130145c-1.85606,-0.0340378 -3.60901,-0.0660734 -5.38699,-0.327364c-0.912013,-0.134149 -2.09833,-0.344383 -3.19155,-0.788877c-0.463515,-0.188209 -0.826919,-0.388432 -1.11224,-0.613682c-0.116129,-0.0911012 -0.204227,-0.398443 -0.282314,-0.668743c-0.0490545,-0.170189 -0.0971079,-0.336374 -0.155172,-0.490545c-0.33337,-0.888988 -0.704783,-1.75295 -1.10222,-2.56986c0.00100111,-0.0530589 0.00700778,-0.136151 0.0120133,-0.190211c0.0080089,-0.0961068 0.0140156,-0.186207 0.0140156,-0.260289l-0.00200223,-12.6851c0.0160178,-0.0830923 0.145161,-0.300334 0.214238,-0.416463c0.0680756,-0.115128 0.131146,-0.223248 0.1802,-0.321357l0.51257,-1.03815l0.481535,-0.974082c0.0250278,-0.0150167 0.0510567,-0.0280312 0.0770857,-0.0420467l0.115128,-0.0650723c0.0390434,-0.0220245 0.0951057,-0.0460512 0.157175,-0.0750834c0.343382,-0.156174 0.732814,-0.334372 0.931034,-0.676752c0.157175,-0.263293 0.134149,-0.533593 0.115128,-0.749833c3.90133,0.305339 6.36908,0.371413 8.97497,0.371413c2.10934,0 4.83838,-0.0490545 9.01902,-0.373415c-0.0080089,0.071079 -0.0160178,0.142158 -0.0150167,0.22525l0.0010011,0.0860957c0,0.257286 0.106118,0.613682 0.594661,0.837931l0.814905,0.476529c0.0070078,0.0150167 0.0130145,0.0300334 0.0190212,0.0440489c0.0220244,0.053059 0.0440489,0.103115 0.0670745,0.148165l0.307341,0.622692l0.203226,0.411457l0.506563,1.02614l0.265295,0.537597v13.1806Zm-22.8414,-19.2364c-0.385428,-0.912013 -0.411457,-2.35061 0.13515,-2.77008c0.269299,-0.206229 0.556618,-0.283315 0.993103,-0.353393c2.71301,-0.432481 5.5802,-0.442492 8.35328,-0.452503l0.714794,-0.00300334c0.499555,-0.00300334 0.998109,-0.00500556 1.49766,-0.00500556c2.44872,0 5.34794,0.0400445 8.2802,0.33337c0.129144,0.0130145 0.269299,0.0230256 0.416463,0.0340378c0.454505,0.0330367 1.0772,0.0780868 1.35851,0.263293c0.30634,0.202225 0.705784,0.61168 0.640712,1.84004c-0.0320356,0.595662 -0.168187,1.09221 -0.393437,1.43459c-0.141157,0.214238 -0.304338,0.285317 -0.916018,0.386429c-0.112125,0.0190211 -0.220245,0.0440489 -0.32436,0.0780868c-0.0030034,0 -0.0050056,-0.00100111 -0.0070078,-0.00100111c-4.5861,0.377419 -7.4723,0.427475 -9.69077,0.427475c-2.72202,0 -5.27686,-0.071079 -9.51958,-0.416463c-0.0810901,-0.0300334 -0.164182,-0.0600667 -0.259288,-0.0680756l-0.0630701,-0.00700778l-0.136151,-0.0200223c-0.217241,-0.0320356 -0.422469,-0.0630701 -0.596663,-0.110122c-0.16218,-0.04505 -0.348387,-0.272303 -0.483537,-0.590656Zm23.6212,5.82647c-0.277308,-0.562625 -0.555617,-1.12725 -0.833927,-1.68988c-0.17119,-0.345384 -0.340378,-0.690768 -0.510567,-1.03415c-0.0740823,-0.149166 -0.139155,-0.375417 -0.291324,-0.464516c-0.308343,-0.1802 -0.615684,-0.359399 -0.922024,-0.5396c-0.053059,-0.0310345 -0.199221,-0.0780868 -0.199221,-0.147164c0,-0.411457 -0.0390434,-0.388432 0.395439,-0.460512c0.581646,-0.0971079 1.06018,-0.20723 1.40456,-0.727809c0.350389,-0.532592 0.491546,-1.20534 0.525584,-1.83404c0.0530589,-0.993103 -0.137152,-1.9832 -1.00011,-2.55083c-0.562625,-0.371413 -1.49666,-0.3604 -2.13437,-0.425473c-2.77108,-0.277308 -5.57219,-0.337375 -8.36129,-0.337375c-0.500556,2.77556e-17 -1.00211,0.00200223 -1.50167,0.00500556c-3.04138,0.0140156 -6.18087,-0.0140156 -9.19021,0.465517c-0.517575,0.0830923 -0.944049,0.194216 -1.35451,0.508565c-0.997108,0.76485 -0.810901,2.71301 -0.385428,3.71813c0.190211,0.447497 0.515573,0.914016 1.00912,1.05017c0.264294,0.0720801 0.552614,0.10812 0.823915,0.150167c0.0260289,0.00400445 0.0380423,0.00400445 0.0570634,0.00600668c0.0390434,0.0250278 0.0820912,0.0400445 0.130145,0.0500556c0,0.0190211 -0.00200222,0.0450501 -0.00200222,0.0860957c0,0.071079 0.03604,0.266296 0,0.327364c-0.106118,0.182202 -0.619689,0.362403 -0.801891,0.468521c-0.191212,0.112125 -0.380423,0.184205 -0.481535,0.389433c-0.340378,0.688765 -0.681758,1.37853 -1.02113,2.0683c-0.148165,0.29733 -0.475528,0.718799 -0.475528,1.06518v12.7121c0,0.195217 -0.071079,0.544605 0.0210234,0.732814c0.410456,0.834928 0.778865,1.69689 1.10623,2.56885c0.190211,0.505562 0.256285,1.16529 0.691769,1.50768c0.393437,0.309344 0.844939,0.538598 1.30645,0.725806c1.07519,0.437486 2.23148,0.671746 3.37575,0.839933c2.05028,0.301335 4.09155,0.30634 6.15684,0.347386c0.291324,0.0060066 0.58465,0.00901 0.876974,0.00901c1.90111,0 3.81824,-0.125139 5.68732,-0.448498c1.10623,-0.191213 2.23048,-0.451502 3.24461,-0.947052c0.393437,-0.191213 0.77386,-0.424472 1.09021,-0.726808c0.167186,-0.159177 0.215239,-0.623693 0.291324,-0.840934c0.127141,-0.363404 0.263293,-0.722803 0.408454,-1.0782c0.206229,-0.510567 0.427475,-1.01313 0.657731,-1.51168c0.0670745,-0.152169 0.227253,-0.369411 0.227253,-0.544605v-13.3949c0,-0.0340378 0,-0.0560623 -0.0210234,-0.098109Z"></path></g></g></svg>