<?xml version="1.0" encoding="UTF-8"?><svg version="1.1" viewBox="0 0 30 30" xmlns="http://www.w3.org/2000/svg" xmlns:xlink="http://www.w3.org/1999/xlink"><g fill="#000"><path d="M21.5,29.5h-10c-0.2,0 -0.4,-0.2 -0.5,-0.4l-5,-23c0,-0.1 0,-0.3 0.1,-0.4c0.1,-0.1 0.2,-0.2 0.4,-0.2h20c0.2,0 0.3,0.1 0.4,0.2c0.1,0.1 0.1,0.3 0.1,0.4l-5,23c-0.1,0.2 -0.3,0.4 -0.5,0.4Zm-9.6,-1h9.2l4.8,-22h-18.8l4.8,22Z"></path><path d="M7.5,11.5h-1c-3,0 -5.5,-2.5 -5.5,-5.5c0,-3 2.5,-5.5 5.5,-5.5c3,0 5.5,2.5 5.5,5.5c0,0.3 -0.2,0.5 -0.5,0.5c-0.3,0 -0.5,-0.2 -0.5,-0.5c0,-2.5 -2,-4.5 -4.5,-4.5c-2.5,0 -4.5,2 -4.5,4.5c0,2.5 2,4.5 4.5,4.5h1c0.3,0 0.5,0.2 0.5,0.5c0,0.3 -0.2,0.5 -0.5,0.5Z"></path><path d="M13.5,26.5c-0.1,0 -0.1,0 -0.2,0c-0.3,-0.2 -0.4,-0.5 -0.3,-0.7l10,-22c0,-0.1 0.1,-0.2 0.2,-0.2l5,-3c0.2,-0.1 0.5,-0.1 0.7,0.2c0.2,0.2 0.1,0.5 -0.1,0.6l-4.9,2.9l-9.9,21.9c-0.1,0.2 -0.3,0.3 -0.5,0.3Z"></path><path d="M24.5,13.5h-16c-0.3,0 -0.5,-0.2 -0.5,-0.5c0,-0.3 0.2,-0.5 0.5,-0.5h16c0.3,0 0.5,0.2 0.5,0.5c0,0.3 -0.2,0.5 -0.5,0.5Z"></path></g></svg>