<?xml version="1.0" encoding="UTF-8"?>
<svg viewBox="0 0 30 30" version="1.1" xmlns="http://www.w3.org/2000/svg" xmlns:xlink="http://www.w3.org/1999/xlink">
    <g id="Page-1" stroke="none" stroke-width="1" fill="none" fill-rule="evenodd">
        <g id="Outlines_black-Copy" transform="translate(-300.000000, -114.000000)">
            <g id="Group-3" transform="translate(3.000000, 114.000000)" fill="#000000" fill-rule="nonzero">
                <path d="M310.540976,25.8292683 L310.540976,20.724878 C310.540976,20.6041692 310.578292,20.4864119 310.647815,20.3877345 L312.825376,17.2970028 C313.071717,16.9473572 313.597661,16.9713528 313.81114,17.3419772 L318.69982,25.8292683 L323.929604,25.8292683 L316.31438,13.1591114 C316.192764,12.9567667 316.2046,12.7011711 316.344397,12.5109323 L322.47318,4.17073171 L317.337256,4.17073171 L311.751405,12.4132679 C311.642489,12.5739848 311.460975,12.6702439 311.266829,12.6702439 L311.126341,12.6702439 C310.803053,12.6702439 310.540976,12.4081667 310.540976,12.084878 L310.540976,4.17073171 L305.670732,4.17073171 L305.670732,25.8292683 L310.540976,25.8292683 Z M311.711707,26.4146341 C311.711707,26.7379228 311.44963,27 311.126341,27 L305.085366,27 C304.762077,27 304.5,26.7379228 304.5,26.4146341 L304.5,3.58536585 C304.5,3.26207722 304.762077,3 305.085366,3 L311.126341,3 C311.44963,3 311.711707,3.26207722 311.711707,3.58536585 L311.711707,10.3849777 L316.542254,3.25697596 C316.651169,3.0962591 316.832684,3 317.026829,3 L323.629756,3 C324.109494,3 324.385537,3.54541087 324.101457,3.93199454 L317.518611,12.8900938 L325.466108,26.1130837 C325.700604,26.5032367 325.419591,27 324.96439,27 L318.361463,27 C318.15212,27 317.958713,26.8882056 317.854225,26.7068032 L313.254322,18.7208603 L311.711707,20.9103783 L311.711707,26.4146341 Z" id="K-Copy-2"></path>
            </g>
            <g id="Slices" transform="translate(0.000000, 114.000000)"></g>
        </g>
    </g>
</svg>