<svg id="Layer_1" data-name="Layer 1" xmlns="http://www.w3.org/2000/svg" viewBox="0 0 30 30"><title>Zeichenfläche 1</title><path d="M16.55,6.37a4.42,4.42,0,0,0-.9-1l-.29-.23-.3.2a3.69,3.69,0,0,0-1,1c-4.36.56-7.76,4.86-7.76,10.08,0,5.76,6.19,8.51,8.72,8.51s8.72-2.75,8.72-8.51C23.72,11.46,20.57,7.27,16.55,6.37ZM18,9.59a1.7,1.7,0,0,1,.61.3,2,2,0,0,1-1.05.47h0a2.77,2.77,0,0,1-1.42-.45A3.44,3.44,0,0,1,18,9.59Zm-1,3.1c0,.16-.11.53-.21.93a3.15,3.15,0,0,1-1.25-1.51,3.71,3.71,0,0,1,0-1.37A4.37,4.37,0,0,1,17,12.69ZM14.82,7a1.61,1.61,0,0,1,.49-.63,1.85,1.85,0,0,1,.6,1.38,6.85,6.85,0,0,1-.46,1.38A3.23,3.23,0,0,1,14.82,7Zm-.26,2.77a5.11,5.11,0,0,1-1.71,0,2.93,2.93,0,0,1-1.44-.94,3.28,3.28,0,0,1,1.73,0A5.52,5.52,0,0,1,14.56,9.76ZM13.8,7.38a3.57,3.57,0,0,0,.1.73l-.4-.18a3,3,0,0,0-1-.19h0A6.53,6.53,0,0,1,13.8,7.38ZM15,23.91c-2.11,0-7.72-2.51-7.72-7.51a9.79,9.79,0,0,1,3.07-7.28,4.27,4.27,0,0,0,2.31,1.63,6,6,0,0,0,1.89,0,4.28,4.28,0,0,0,0,1.59,5,5,0,0,0,2.3,2.5l.57.31.15-.62c.46-1.82.43-1.91.39-2.05a4.24,4.24,0,0,0-.52-1.14h.08a3.62,3.62,0,0,0,2.17-1.12l.33-.35-.34-.34a3.28,3.28,0,0,0-1.6-1,4.08,4.08,0,0,0-1.42.08,5.47,5.47,0,0,0,.2-.75,1.41,1.41,0,0,0,0-.41c3.28,1.06,5.81,4.67,5.81,8.89C22.72,21.4,17.11,23.91,15,23.91Z"/></svg>