<?xml version="1.0" encoding="utf-8"?>
<!-- Generator: Adobe Illustrator 23.0.1, SVG Export Plug-In . SVG Version: 6.00 Build 0)  -->
<svg version="1.1" id="Layer_1" xmlns="http://www.w3.org/2000/svg" xmlns:xlink="http://www.w3.org/1999/xlink" x="0px" y="0px"
	 viewBox="0 0 30 30" style="enable-background:new 0 0 30 30;" xml:space="preserve">
<g>
	<path d="M12,7.4c-0.3,0-0.5,0.2-0.5,0.5v2.2c0,0.3,0.2,0.5,0.5,0.5s0.5-0.2,0.5-0.5V7.9C12.5,7.7,12.2,7.4,12,7.4z"/>
	<path d="M12,12.1c-0.3,0-0.5,0.2-0.5,0.5v2.2c0,0.3,0.2,0.5,0.5,0.5s0.5-0.2,0.5-0.5v-2.2C12.5,12.4,12.2,12.1,12,12.1z"/>
	<path d="M12,26.2c-0.3,0-0.5,0.2-0.5,0.5v2.2c0,0.3,0.2,0.5,0.5,0.5s0.5-0.2,0.5-0.5v-2.2C12.5,26.5,12.2,26.2,12,26.2z"/>
	<path d="M12,16.8c-0.3,0-0.5,0.2-0.5,0.5v2.2c0,0.3,0.2,0.5,0.5,0.5s0.5-0.2,0.5-0.5v-2.2C12.5,17.1,12.2,16.8,12,16.8z"/>
	<path d="M12,21.5c-0.3,0-0.5,0.2-0.5,0.5v2.2c0,0.3,0.2,0.5,0.5,0.5s0.5-0.2,0.5-0.5V22C12.5,21.8,12.2,21.5,12,21.5z"/>
</g>
<path d="M14.9,5.1c-1.3,0-2.2-0.6-2.2-1.4s0.9-1.4,2.2-1.4s2.2,0.6,2.2,1.4S16.2,5.1,14.9,5.1z M14.9,3.4c-0.8,0-1.2,0.3-1.2,0.4
	c0,0.1,0.5,0.3,1.2,0.3c0.7,0,1.1-0.2,1.2-0.4C16.1,3.6,15.7,3.4,14.9,3.4z M16.2,3.8L16.2,3.8L16.2,3.8z"/>
<path d="M26.2,3c-0.6-0.5-1.8-0.3-3.4,0.8c-0.1,0.1-0.2,0.1-0.3,0.2c-0.2-2.2-3.5-3.8-7.6-3.8c-4.3,0-7.6,1.8-7.6,4
	c0,0.2,0,0.3,0.1,0.5v21.6h0c0,0,0,0,0,0v0h0c0.5,2,2.3,3.5,7.2,3.5c3.1,0,5-0.6,6-1.6l-0.1,1.2l0.4,0.1c0,0,0.2,0,0.4,0
	c0.8,0,2.5-0.2,4-2.2l0.1-0.1l1-23.2C26.6,3.4,26.3,3.1,26.2,3z M24.5,26.8c-1.1,1.3-2.3,1.6-2.9,1.6l1.2-21.1
	c0.6-0.2,1.8-0.6,2.7-1.5L24.5,26.8z M25.5,3.9c0,0.1,0,0.2-0.1,0.3c-0.8,1.9-3.2,2.3-3.2,2.3l-0.4,0.1l-1.1,19.8
	c-0.7,1.2-2,2.4-6.1,2.4c-4.3,0-5.5-1.3-6.2-2.5v-20c1.2,1.1,3.4,1.8,5.9,1.9c0,0,0,0,0,0c0.3,0,0.5-0.2,0.5-0.5s-0.2-0.5-0.5-0.5
	c0,0,0,0,0,0c0,0,0,0,0,0c-3.6-0.1-6-1.6-6-3c0-1.5,2.7-3,6.6-3c3.9,0,6.6,1.6,6.6,3c0,0.8-0.9,1.7-2.4,2.3C18.9,6.5,18.8,7,19,7.2
	c0.2,0.2,0.4,0.2,0.7,0.1c1.1-0.4,1.9-1,2.3-1.7c0,0,0.1,0,0.1,0c0.3-0.2,0.6-0.5,1.2-0.9c1.5-0.9,2.1-0.9,2.2-0.9c0,0,0,0,0,0
	L25.5,3.9z"/>
</svg>
