<?xml version="1.0" encoding="UTF-8"?><svg version="1.1" viewBox="0 0 30 30" xmlns="http://www.w3.org/2000/svg" xmlns:xlink="http://www.w3.org/1999/xlink"><path d="M17.523,1c-4.916,0 -9.407,2.053 -11.443,5.23c-0.15,0.233 -0.083,0.541 0.15,0.691c0.233,0.149 0.541,0.081 0.69,-0.151c1.856,-2.898 6.018,-4.77 10.601,-4.77c6.33,0 11.479,3.818 11.479,8.511c0,3.596 -2.358,6.262 -6.64,7.508c-0.265,0.078 -0.417,0.355 -0.34,0.62c0.063,0.218 0.263,0.361 0.48,0.361c0.046,0 0.093,-0.006 0.141,-0.019c4.677,-1.36 7.36,-4.447 7.36,-8.468c-0.001,-5.245 -5.598,-9.513 -12.478,-9.513Zm-12.364,19.39c-0.164,0.169 -0.407,0.53 -0.576,0.857c-0.13,0.249 -0.473,0.91 -0.059,1.31c0.131,0.127 0.292,0.178 0.466,0.178c0.72,0 1.667,-0.875 1.679,-0.886c0.014,-0.014 1.308,-1.515 0.634,-2.167c-0.675,-0.651 -2.115,0.678 -2.144,0.708Zm0.789,0.762c-0.06,0.062 -0.168,0.146 -0.293,0.231c0.081,-0.128 0.161,-0.238 0.221,-0.3c0.059,-0.061 0.167,-0.145 0.292,-0.23c-0.079,0.127 -0.16,0.238 -0.22,0.299Zm14.03,-3.278c0.006,-0.125 0.022,-0.248 0.022,-0.374c0,-4.768 -4.393,-8.5 -10,-8.5c-5.607,0 -10,3.764 -10,8.57c0,0.251 0.018,0.496 0.042,0.74c-0.028,0.065 -0.044,0.135 -0.042,0.208c0.01,0.275 0.006,0.733 0.002,1.131l-0.002,0.494c0,4.883 4.466,8.857 9.956,8.857c5.445,0 10.044,-4.122 10.044,-9c0,-0.123 0.006,-0.303 0.013,-0.506c0.023,-0.697 0.037,-1.256 -0.02,-1.58c-0.003,-0.015 -0.011,-0.026 -0.015,-0.04Zm-10.022,10.126c-4.345,0 -7.969,-2.73 -8.78,-6.337c1.449,2.301 4.128,3.888 7.4,4.25c0.013,0.002 0.026,0.003 0.039,0.005c0.453,0.048 0.912,0.082 1.385,0.082c3.855,0 7.136,-1.765 8.81,-4.417c-0.858,3.609 -4.563,6.417 -8.854,6.417Zm9.008,-9.904c-0.776,3.822 -4.75,6.904 -8.964,6.904c-0.286,0 -0.566,-0.013 -0.843,-0.033c-3.729,-0.29 -6.829,-2.491 -7.888,-5.551c-0.17,-0.588 -0.269,-1.203 -0.269,-1.846c0,-4.244 3.953,-7.57 9,-7.57c5.047,0 9,3.294 9,7.5c0,0.201 -0.018,0.399 -0.036,0.596Zm-12.964,-0.579c-0.011,-0.575 -0.728,-0.776 -0.998,-0.851c-0.355,-0.1 -0.765,-0.157 -1.02,-0.165c-0.294,0.005 -1.386,0.196 -1.781,0.604c-0.17,0.175 -0.203,0.359 -0.201,0.479c0.002,0.123 0.041,0.304 0.216,0.473c0.402,0.389 1.473,0.544 1.787,0.544c0.005,0 0.01,0 0.015,0c0.021,0 1.998,-0.146 1.982,-1.084Zm-1.998,0.085c-0.095,-0.003 -0.223,-0.015 -0.371,-0.043c0.147,-0.035 0.283,-0.056 0.369,-0.056c0.086,-0.007 0.222,0.015 0.37,0.043c-0.148,0.032 -0.284,0.054 -0.368,0.056Zm22.894,-8.838c-0.17,-0.217 -0.483,-0.257 -0.702,-0.089c-0.512,0.396 -0.694,1.201 -0.694,1.825c0,0.713 0.277,1.074 0.694,1.396c0.092,0.07 0.199,0.104 0.306,0.104c0.149,0 0.297,-0.067 0.398,-0.194c0.169,-0.219 0.128,-0.533 -0.09,-0.702c-0.244,-0.188 -0.306,-0.279 -0.306,-0.604c0,-0.439 0.137,-0.903 0.306,-1.033c0.218,-0.17 0.257,-0.484 0.088,-0.703Zm-16.925,6.236c0.003,0 0.008,0 0.011,0c0.575,-0.011 0.776,-0.728 0.851,-0.998c0.1,-0.356 0.169,-0.785 0.165,-1.02c-0.004,-0.293 -0.195,-1.386 -0.604,-1.782c-0.176,-0.17 -0.362,-0.201 -0.479,-0.2c-0.123,0.002 -0.304,0.041 -0.473,0.216c-0.396,0.409 -0.549,1.509 -0.544,1.802c1.77636e-15,0.021 0.146,1.982 1.073,1.982Zm-0.031,-2.37c0.033,0.148 0.054,0.283 0.056,0.369c0.002,0.086 -0.015,0.222 -0.043,0.37c-0.032,-0.148 -0.055,-0.283 -0.055,-0.369c-0.002,-0.085 0.016,-0.221 0.042,-0.37Zm0.078,7.369c-0.575,0.011 -0.776,0.728 -0.851,0.998c-0.1,0.355 -0.169,0.784 -0.165,1.02c0.005,0.294 0.196,1.386 0.604,1.781c0.17,0.164 0.347,0.2 0.468,0.2h0.011c0.123,-0.002 0.304,-0.041 0.473,-0.216c0.396,-0.409 0.549,-1.509 0.544,-1.802c-1.77636e-15,-0.02 -0.139,-1.992 -1.084,-1.981Zm0.04,2.369c-0.033,-0.148 -0.055,-0.284 -0.056,-0.369c-0.002,-0.086 0.015,-0.222 0.043,-0.37c0.033,0.148 0.054,0.282 0.056,0.368c0.002,0.086 -0.015,0.222 -0.043,0.371Zm4.283,-7.256c0.164,-0.17 0.406,-0.53 0.576,-0.858c0.13,-0.249 0.473,-0.91 0.059,-1.31c-0.677,-0.654 -2.131,0.693 -2.145,0.708c-0.014,0.014 -1.308,1.515 -0.634,2.167c0.132,0.127 0.293,0.178 0.467,0.178c0.721,0 1.667,-0.876 1.677,-0.885Zm-0.791,-0.767c0.06,-0.061 0.168,-0.145 0.292,-0.23c-0.081,0.127 -0.161,0.238 -0.221,0.3c-0.059,0.061 -0.167,0.145 -0.292,0.23c0.082,-0.127 0.161,-0.238 0.221,-0.3Zm-1.107,4.853c-0.652,0.676 0.694,2.13 0.708,2.144c0.17,0.164 0.53,0.406 0.858,0.576c0.161,0.083 0.494,0.256 0.818,0.256c0.177,0 0.351,-0.051 0.491,-0.197c0.651,-0.675 -0.694,-2.131 -0.708,-2.145c-0.014,-0.014 -1.519,-1.31 -2.167,-0.634Zm1.403,1.424c-0.061,-0.059 -0.145,-0.167 -0.23,-0.292c0.127,0.081 0.238,0.161 0.3,0.221c0.061,0.06 0.145,0.168 0.23,0.292c-0.128,-0.08 -0.239,-0.161 -0.3,-0.221Zm0.354,-3.518c-0.169,0.174 -0.202,0.357 -0.2,0.479c0.017,0.937 1.991,1.015 2.018,1.015c0.02,-0.001 1.998,-0.144 1.982,-1.083c-0.017,-0.933 -1.97,-1.015 -2.018,-1.016c-0.295,0.004 -1.388,0.196 -1.782,0.605Zm2.17,0.436c-0.147,0.033 -0.283,0.055 -0.369,0.056c-0.095,0.001 -0.223,-0.016 -0.371,-0.043c0.148,-0.033 0.283,-0.054 0.369,-0.056c0.086,-0.002 0.222,0.016 0.371,0.043Zm-10.38,-4.458c-0.249,-0.129 -0.91,-0.473 -1.31,-0.059c-0.651,0.675 0.694,2.131 0.709,2.145c0.011,0.011 0.959,0.828 1.676,0.828c0.187,0 0.358,-0.056 0.49,-0.194c0.649,-0.672 -0.679,-2.114 -0.708,-2.144c-0.17,-0.163 -0.53,-0.407 -0.857,-0.576Zm0.094,1.366c-0.062,-0.06 -0.146,-0.168 -0.231,-0.293c0.127,0.081 0.238,0.161 0.301,0.221c0.061,0.059 0.145,0.167 0.23,0.292c-0.128,-0.079 -0.238,-0.16 -0.3,-0.22Z" fill="#000"></path></svg>