<?xml version="1.0" encoding="UTF-8"?>
<svg viewBox="0 0 30 30" version="1.1" xmlns="http://www.w3.org/2000/svg" xmlns:xlink="http://www.w3.org/1999/xlink">
    <g id="Page-1" stroke="none" stroke-width="1" fill="none" fill-rule="evenodd">
        <g id="Outlines_black-Copy" transform="translate(-330.000000, -114.000000)">
            <g id="Group-3" transform="translate(3.000000, 114.000000)" fill="#000000" fill-rule="nonzero">
                <path d="M350.180976,25.8292683 L350.180976,21.942439 L342.126341,21.942439 C341.803053,21.942439 341.540976,21.6803618 341.540976,21.3570732 L341.540976,4.17073171 L336.670732,4.17073171 L336.670732,25.8292683 L350.180976,25.8292683 Z M350.766341,20.7717073 C351.08963,20.7717073 351.351707,21.0337845 351.351707,21.3570732 L351.351707,26.4146341 C351.351707,26.7379228 351.08963,27 350.766341,27 L336.085366,27 C335.762077,27 335.5,26.7379228 335.5,26.4146341 L335.5,3.58536585 C335.5,3.26207722 335.762077,3 336.085366,3 L342.126341,3 C342.44963,3 342.711707,3.26207722 342.711707,3.58536585 L342.711707,20.7717073 L350.766341,20.7717073 Z" id="L-Copy-2"></path>
            </g>
            <g id="Slices" transform="translate(0.000000, 114.000000)"></g>
        </g>
    </g>
</svg>