<?xml version="1.0" encoding="UTF-8"?><svg version="1.1" viewBox="0 0 30 30" xmlns="http://www.w3.org/2000/svg" xmlns:xlink="http://www.w3.org/1999/xlink"><g fill="#000"><path d="M12,30c-4.411,0 -8,-3.589 -8,-8c0,-1.944 7.182,-2 8,-2c0.818,0 8,0.056 8,2c0,4.411 -3.589,8 -8,8Zm0,-9c-4.405,0 -6.779,0.714 -7.018,1.077c0.018,3.782 3.159,6.923 7.018,6.923c3.859,0 7,-3.141 7,-7c-0.221,-0.286 -2.595,-1 -7,-1Z"></path><path d="M12,24c-0.818,0 -8,-0.056 -8,-2c0,-1.944 7.182,-2 8,-2c0.818,0 8,0.056 8,2c0,1.944 -7.182,2 -8,2Zm-6.941,-2c0.488,0.379 2.83,1 6.941,1c4.111,0 6.453,-0.621 6.941,-1c-0.488,-0.379 -2.83,-1 -6.941,-1c-4.111,0 -6.453,0.621 -6.941,1Zm13.959,0.077h0.011h-0.011Z"></path><path d="M19.5,22.5c-0.276,0 -0.5,-0.224 -0.5,-0.5v-18.5c0,-1.93 1.57,-3.5 3.5,-3.5c1.93,0 3.5,1.57 3.5,3.5c0,0.276 -0.224,0.5 -0.5,0.5c-0.276,0 -0.5,-0.224 -0.5,-0.5c0,-1.379 -1.121,-2.5 -2.5,-2.5c-1.379,0 -2.5,1.121 -2.5,2.5v18.5c0,0.276 -0.224,0.5 -0.5,0.5Z"></path></g></svg>