<?xml version="1.0" encoding="utf-8"?>
<!-- Generator: Adobe Illustrator 23.0.1, SVG Export Plug-In . SVG Version: 6.00 Build 0)  -->
<svg version="1.1" id="Layer_1" xmlns="http://www.w3.org/2000/svg" xmlns:xlink="http://www.w3.org/1999/xlink" x="0px" y="0px"
	 viewBox="0 0 30 30" style="enable-background:new 0 0 30 30;" xml:space="preserve">
<path d="M27,29.3H11.7c-0.3,0-0.6-0.2-0.7-0.5c-0.8-3.9-1.1-6-1.1-9.5c0-4.9,1.6-8.8,5-12.1V7.1c0-1.4,1.1-2.3,2.8-2.3h3.1
	c1.7,0,2.8,0.9,2.8,2.3v0.1c3.4,3.3,5,7.1,5,12.1c0,3.4-0.3,5.9-1.1,9.5C27.6,29.1,27.3,29.3,27,29.3z M11.9,28.3h14.8
	c0.7-3.5,1-5.9,1-9c0-4.8-1.5-8.3-4.9-11.5l-0.2-0.1V7.1c0-1.1-1.1-1.3-1.8-1.3h-3.1C17.1,5.8,16,6,16,7.1v0.5l-0.2,0.1
	c-3.4,3.2-4.9,6.7-4.9,11.5C10.9,22.7,11.2,24.7,11.9,28.3z"/>
<rect x="15.5" y="6.9" width="7.7" height="1"/>
<path d="M16.9,5.7l-1-0.2l0.6-3.3c0.3-1,1.1-1.6,2.2-1.6h1.2c1,0,1.8,0.5,2.2,1.5l0.7,3.4l-1,0.2l-0.7-3.3c-0.2-0.5-0.6-0.8-1.2-0.8
	h-1.2c-0.6,0-1.1,0.3-1.2,0.8L16.9,5.7z"/>
<g>
	<rect x="16.5" y="2.6" transform="matrix(9.863347e-02 -0.9951 0.9951 9.863347e-02 13.6439 21.2609)" width="4.1" height="1"/>
	<rect x="19.6" y="1" transform="matrix(0.9951 -9.863347e-02 9.863347e-02 0.9951 -0.2042 1.9968)" width="1" height="4.1"/>
</g>
<path d="M24.7,19.3c-0.9,0-2.9-2-3.5-4.4c-0.7-2.6,0-5.3,1-5.6c1-0.3,3,1.8,3.7,4.4l0,0c0.7,2.5-0.1,5.4-1,5.6
	C24.8,19.3,24.8,19.3,24.7,19.3z M24.5,18.4L24.5,18.4L24.5,18.4z M22.5,10.2c-0.3,0.4-0.9,2.2-0.3,4.4c0.5,1.9,1.9,3.3,2.4,3.6
	c0.3-0.6,0.8-2.4,0.3-4.3l0,0C24.3,11.8,22.9,10.4,22.5,10.2z"/>
<path d="M5.3,15.8c-2.2,0-4-1.8-4-4s1.8-4,4-4s4,1.8,4,4S7.5,15.8,5.3,15.8z M5.3,8.8c-1.7,0-3,1.4-3,3c0,1.7,1.4,3,3,3
	c1.7,0,3-1.4,3-3C8.3,10.1,7,8.8,5.3,8.8z"/>
<path d="M9.1,6.5c-0.7,0-1.3-0.6-1.3-1.3s0.6-1.3,1.3-1.3s1.3,0.6,1.3,1.3S9.8,6.5,9.1,6.5z M9.1,4.8C8.9,4.8,8.8,5,8.8,5.2
	s0.2,0.3,0.3,0.3c0.2,0,0.3-0.2,0.3-0.3S9.3,4.8,9.1,4.8z"/>
<path d="M4.7,5.7c-1.2,0-2.2-1-2.2-2.3S3.4,1,4.7,1c1.2,0,2.2,1,2.2,2.3S5.9,5.7,4.7,5.7z M4.7,2C4,2,3.4,2.6,3.4,3.3S4,4.7,4.7,4.7
	s1.2-0.6,1.2-1.3S5.3,2,4.7,2z"/>
<path d="M3.7,13.5c-0.2,0-0.3-0.1-0.4-0.2c-0.4-0.6-0.5-1.3-0.3-2c0.1-0.6,0.5-1.2,1-1.6c0.5-0.4,1.2-0.5,1.8-0.4
	C6.1,9.5,6.3,9.7,6.2,10c-0.1,0.3-0.3,0.4-0.6,0.4c-0.4-0.1-0.7,0-1,0.2c-0.3,0.2-0.6,0.6-0.6,1c-0.1,0.4,0,0.9,0.2,1.2
	C4.3,13,4.2,13.3,4,13.4C3.9,13.5,3.8,13.5,3.7,13.5z"/>
</svg>
