<svg id="Layer_1" data-name="Layer 1" xmlns="http://www.w3.org/2000/svg" viewBox="0 0 30 30"><title>Zeichenfläche 1</title><path d="M6.67,15.16H6.42a6.25,6.25,0,0,1-3.86-3.1,2,2,0,0,1-.33-2,1.2,1.2,0,0,1,.62-.55A2.65,2.65,0,0,1,3.4,7.58a1.36,1.36,0,0,1,.5-.33c.4-1.79.94-2.56,1.82-2.6C6.14,4,7.5,2.18,8.33,2.32l.16,0c.78.09,1.38,2.26,1.56,3,.81.33,1.09,1.22,1,3a1.38,1.38,0,0,1,.37.47,2.58,2.58,0,0,1,0,2,1.23,1.23,0,0,1,.43.71,2.06,2.06,0,0,1-.9,1.8,6.54,6.54,0,0,1-4.15,1.81h0Zm-.22-1H6.6a5.44,5.44,0,0,0,3.61-1.56c.61-.54.59-.81.59-.86s-.2-.21-.24-.23l-.47-.19.18-.46c.39-.94.31-1.38.23-1.56a.39.39,0,0,0-.17-.19L9.92,9,10,8.57c.1-1,.12-2.2-.33-2.32a.68.68,0,0,1-.53-.48A9.32,9.32,0,0,0,8.2,3.33a9.8,9.8,0,0,0-1.74,2,.67.67,0,0,1-.64.31c-.46-.06-.81,1.14-1,2.11l-.08.42-.43,0a.61.61,0,0,0-.19.14c-.13.14-.33.54-.24,1.55l0,.51-.52,0s-.23,0-.29.15-.11.3.31,1a5.6,5.6,0,0,0,3,2.6ZM5.61,4.81a.05.05,0,0,0,0,0ZM8.22,3.32l.07,0-.07,0Z"/><path d="M6.56,17.73a.5.5,0,0,1-.5-.46,20.36,20.36,0,0,1,.47-6.41.5.5,0,1,1,1,.27,19.43,19.43,0,0,0-.43,6.06.51.51,0,0,1-.46.54Z"/><path d="M14.77,25.94a7.31,7.31,0,0,1-3.54-1C10.4,24.48,10,24,10,23.39a1.24,1.24,0,0,1,.27-.8,2.67,2.67,0,0,1-.48-1.95,1.48,1.48,0,0,1,.27-.55c-.64-2.13-.26-2.81.3-3.16.07-.75.33-3,1.12-3.33l.17,0c.71-.31,2.32,1.28,2.83,1.81.88-.12,1.56.52,2.33,2.14a1.54,1.54,0,0,1,.56.22,2.66,2.66,0,0,1,1,1.77,1.17,1.17,0,0,1,.72.41,2,2,0,0,1,.11,2,6.57,6.57,0,0,1-2.75,3.66l0,0-.23.12A4,4,0,0,1,14.77,25.94Zm-4-5.25a.5.5,0,0,0-.1.22c0,.19,0,.64.56,1.47l.3.42-.44.28s-.18.16-.18.28.05.31.76.71a5.63,5.63,0,0,0,3.94.76h0l.14-.07a5.45,5.45,0,0,0,2.38-3.15c.26-.78.12-1,.08-1s-.27-.09-.32-.08l-.5.06-.07-.49c-.13-1-.41-1.35-.57-1.47a.32.32,0,0,0-.24-.08l-.42.11L16,18.22c-.41-.91-1-1.95-1.45-1.86a.63.63,0,0,1-.69-.15,9.52,9.52,0,0,0-2-1.67,10.59,10.59,0,0,0-.53,2.63.66.66,0,0,1-.4.58c-.42.22-.14,1.4.17,2.34l.14.41-.39.19Zm-.51-3.57a.07.07,0,0,0,0,.05Zm1.53-2.59h0l.07,0Z"/><path d="M18,28.3a.51.51,0,0,1-.37-.15,14.19,14.19,0,0,1-2.75-4,.5.5,0,0,1,.92-.38,13.77,13.77,0,0,0,2.56,3.74.5.5,0,0,1-.36.84Z"/><path d="M23.17,16.77A3.63,3.63,0,0,1,22,16.58l-.22-.12a6.6,6.6,0,0,1-2.87-3.6,2,2,0,0,1,.05-2,1.23,1.23,0,0,1,.72-.43,2.62,2.62,0,0,1,.91-1.79,1.24,1.24,0,0,1,.56-.23c.73-1.67,1.42-2.33,2.27-2.21.5-.55,2.05-2.18,2.86-1.87h0c.85.28,1.18,2.57,1.27,3.31.58.36,1,1,.38,3.16a1.44,1.44,0,0,1,.29.54,2.63,2.63,0,0,1-.42,2,1.22,1.22,0,0,1,.28.79c0,.57-.41,1.11-1.23,1.59A7.34,7.34,0,0,1,23.17,16.77Zm-.76-1.09a5.58,5.58,0,0,0,3.91-.87c.7-.41.74-.68.74-.73s-.15-.25-.19-.28l-.42-.27.27-.42c.55-.85.56-1.3.52-1.49a.32.32,0,0,0-.13-.22l-.39-.18.14-.4c.29-1,.54-2.14.11-2.35a.67.67,0,0,1-.42-.57A10.22,10.22,0,0,0,26,5.29,10,10,0,0,0,24,7a.68.68,0,0,1-.69.18c-.47-.11-1,1-1.39,1.89l-.17.39-.41-.1a.34.34,0,0,0-.22.09c-.16.12-.43.48-.53,1.48l-.06.52-.5-.07a.41.41,0,0,0-.32.09s-.17.27.11,1a5.53,5.53,0,0,0,2.47,3.09Zm5.14-7.86v0ZM26,5.28Zm-.09,0Z"/><path d="M20.19,19.21a.5.5,0,0,1-.38-.83,24.63,24.63,0,0,0,4.46-8.54.5.5,0,0,1,.61-.35.49.49,0,0,1,.35.61,25.36,25.36,0,0,1-4.67,9A.5.5,0,0,1,20.19,19.21Z"/></svg>