<svg id="Layer_1" data-name="Layer 1" xmlns="http://www.w3.org/2000/svg" viewBox="0 0 24 24"><path d="M10.9,10.32c1.3-1.52,1.5-4.89-.13-6.52C8.84,1.87,5.08,1.65,2.41,1.65a.5.5,0,0,0-.5.5c0,2.67.22,6.43,2.15,8.35a4.61,4.61,0,0,0,3.29,1.18,6.11,6.11,0,0,0,2.8-.7c.13.24.26.47.38.72A.51.51,0,0,0,11,12a.59.59,0,0,0,.22-.05.5.5,0,0,0,.23-.67C11.27,10.94,11.08,10.64,10.9,10.32ZM4.77,9.8C3.21,8.24,2.94,5.09,2.91,2.65c2.44,0,5.6.3,7.15,1.85,1.11,1.11,1.1,3.6.29,4.91A14,14,0,0,0,6.7,5.75l-.09-.06a.49.49,0,0,0-.69.13.51.51,0,0,0,.12.7l.1.06a12.7,12.7,0,0,1,3.49,3.54C8.33,10.86,5.86,10.9,4.77,9.8Z"/><path d="M20.07.68a.5.5,0,0,0-.68-.19C17.07,1.81,13.45,5,12.73,7.67c-.62,2.22,1.21,5.05,3.1,5.74,0,.42-.07.85-.08,1.27a.5.5,0,0,0,.48.52h0a.51.51,0,0,0,.5-.49c0-.37,0-.73.06-1.1a6.2,6.2,0,0,0,2.78-.77,4.65,4.65,0,0,0,2.28-2.65C22.6,7.57,21.38,3,20.07.68Zm.84,9.24c-.41,1.48-2.49,2.64-4,2.68a31.16,31.16,0,0,1,1.67-6.44.49.49,0,0,0-.23-.66.51.51,0,0,0-.67.23,31.93,31.93,0,0,0-1.75,6.65c-1.39-.67-2.67-2.93-2.25-4.45.59-2.11,3.65-5.09,5.76-6.32C20.62,3.74,21.49,7.81,20.91,9.92Z"/><path d="M15.1,21.17l-.81-.69a6.37,6.37,0,0,0,0-2.68,4.67,4.67,0,0,0-1.91-2.93c-2.31-1.43-5-1-7.56-.39a.51.51,0,0,0-.37.6c.61,2.6.66,6.41,2.94,7.89,2,1.29,4.89.38,6.55-1.48l.52.44a.5.5,0,0,0,.65-.76Zm-7.19.95C6,21,6.12,17.71,5.53,15.34c2.38-.53,4.45-.77,6.32.38,1.14.71,1.7,2.59,1.55,4a20.23,20.23,0,0,0-4.33-2.92.5.5,0,0,0-.67.24.49.49,0,0,0,.24.66,20.9,20.9,0,0,1,4.55,3.14C12.3,22.1,9.66,23.16,7.91,22.12Z"/></svg>