<svg id="Layer_1" data-name="Layer 1" xmlns="http://www.w3.org/2000/svg" viewBox="0 0 30 30"><title>Zeichenfläche 1</title><path d="M8.19,8c0-.3-.3-.6-.8-.7a1.14,1.14,0,0,0-1,.4,1.4,1.4,0,0,0,.8.7A.83.83,0,0,0,8.19,8Z"/><path d="M9.09,6.43c-.1-.5-.7-.7-.7-.7a1.33,1.33,0,0,0-.4,1c.2.5.5.8.8.8S9.19,6.93,9.09,6.43Z"/><path d="M7.49,9.23c-.3.4,0,1.1,0,1.1a1.75,1.75,0,0,0,1-.5.89.89,0,0,0,0-1.1C8.19,8.53,7.79,8.83,7.49,9.23Z"/><path d="M9.19,8.63c-.2.2-.1.6.2,1a1.25,1.25,0,0,0,1,.3,1.24,1.24,0,0,0-.2-1.1C9.89,8.53,9.39,8.33,9.19,8.63Z"/><path d="M9.89,6.93c-.4.3-.7.7-.5,1s.6.3,1,0a1.59,1.59,0,0,0,.5-.9A1.24,1.24,0,0,0,9.89,6.93Z"/><path d="M10.05,16.54a5.3,5.3,0,1,0,5.3,5.3A5.34,5.34,0,0,0,10.05,16.54Zm0,9.7a4.3,4.3,0,1,1,4.3-4.3A4.4,4.4,0,0,1,10.05,26.24Z"/><path d="M8.25,23.24a2,2,0,0,0-.1,1.3,1.41,1.41,0,0,0,1.1-.5c.3-.5.4-1.1.1-1.3S8.65,22.74,8.25,23.24Z"/><path d="M9.05,21.64c.1-.3-.3-.8-.8-1s-1.2.3-1.2.3.3.8.8,1A1.18,1.18,0,0,0,9.05,21.64Z"/><path d="M10.65,19.84c0-.6-.7-1.1-.7-1.1a1.71,1.71,0,0,0-.6,1.1c0,.6.3,1.1.7,1.1S10.65,20.44,10.65,19.84Z"/><path d="M10.45,22.84c-.3.2-.3.8,0,1.3a2.43,2.43,0,0,0,1.2.5,1.79,1.79,0,0,0,0-1.3C11.25,22.84,10.75,22.64,10.45,22.84Z"/><path d="M11.65,20.74c-.6.2-.9.6-.8,1s.7.5,1.2.3.8-1,.8-1A1.92,1.92,0,0,0,11.65,20.74Z"/><path d="M5.81,14.51a.53.53,0,0,1-.24-.06A.49.49,0,0,1,5.31,14l.17-4L2.29,7.6a.5.5,0,0,1-.19-.49.5.5,0,0,1,.36-.39L6.3,5.65,7.6,1.88a.5.5,0,0,1,.89-.12L10.7,5.09l4,.06a.51.51,0,0,1,.38.82L12.59,9.09l1.17,3.82a.51.51,0,0,1-.14.51.48.48,0,0,1-.51.1L9.37,12.13,6.1,14.42A.52.52,0,0,1,5.81,14.51ZM3.7,7.41,6.29,9.36a.5.5,0,0,1,.2.42L6.35,13,9,11.16a.5.5,0,0,1,.46-.06l3,1.13-.95-3.1a.49.49,0,0,1,.08-.45l2-2.54-3.24-.06A.48.48,0,0,1,10,5.86L8.22,3.16,7.16,6.22a.48.48,0,0,1-.34.32Z"/><path d="M20.64,12.24c.16-.26.05-.67-.33-1a1.15,1.15,0,0,0-1.06-.17,1.39,1.39,0,0,0,.33,1A.82.82,0,0,0,20.64,12.24Z"/><path d="M22.24,11.32a1.07,1.07,0,0,0-.25-1s-.68.17-.85.65,0,.94.28,1.1S22.07,11.81,22.24,11.32Z"/><path d="M19.43,12.91c-.46.19-.56.95-.56.95a1.74,1.74,0,0,0,1.11.08.89.89,0,0,0,.56-.95C20.39,12.67,19.89,12.72,19.43,12.91Z"/><path d="M21.2,13.27c-.28.07-.4.46-.34,1a1.24,1.24,0,0,0,.7.77A1.24,1.24,0,0,0,22,14C21.85,13.54,21.52,13.11,21.2,13.27Z"/><path d="M22.67,12.16c-.5.06-1,.25-.94.61s.36.56.86.51a1.6,1.6,0,0,0,.89-.52A1.27,1.27,0,0,0,22.67,12.16Z"/><path d="M15.29,16.6a.45.45,0,0,1-.18-.18.49.49,0,0,1,0-.52l2.19-3.34-1.52-3.7a.52.52,0,0,1,.09-.52.51.51,0,0,1,.51-.15l3.85,1.05,3.05-2.58a.47.47,0,0,1,.52-.08.51.51,0,0,1,.3.43l.19,4,3.4,2.1a.49.49,0,0,1,.23.47.49.49,0,0,1-.32.42l-3.73,1.42-.94,3.88a.53.53,0,0,1-.38.37.5.5,0,0,1-.5-.18l-2.5-3.11-4,.3A.47.47,0,0,1,15.29,16.6ZM17.1,9.42l1.23,3a.47.47,0,0,1,0,.46L16.51,15.6l3.24-.25a.49.49,0,0,1,.42.19l2,2.52L23,14.92a.52.52,0,0,1,.31-.35l3-1.15-2.76-1.71a.51.51,0,0,1-.23-.4l-.16-3.24-2.47,2.1a.51.51,0,0,1-.46.1Z"/></svg>