<svg xmlns="http://www.w3.org/2000/svg" viewBox="0 0 30 30" fill="none" stroke="#000" stroke-miterlimit="10"><path d="M17.7 11.7l1.9-3.1c.8-1.3 1.4-4.6-1.7-6.3-3.6-2.1-6.7 1.5-7.3 2.9 0 .1-.2.1-.3 0C8.8 4.1 5 2.3 2.4 4.8s-1.2 5.4 0 6.6c.9.9 6 5 8.7 7.2"/><path d="M20.6 15.1c-.1.1-.2 0-.3-.1-.5-1.7-3.1-5.2-6.6-4.3s-3.7 4.1-3.3 5.7c.3 1.3 3.1 8.2 4.2 11.2.3.7 1.1 1 1.8.6l10.3-5.7c1.4-.7 3.5-3.3 1.7-6.3-2.2-3.6-6.4-2.1-7.8-1.1z"/><g stroke-linecap="round"><path d="M7.1 5.8c-.5-.5-1.2-.5-1.7-.5-2.5.2-2.8 2.7-2.2 3.8M15.5 24l.5 1.5c0 .1.2.2.3.1l7.5-4"/><path d="M18.3 16s-.4-1.8-2.1-3.2"/></g></svg>