<?xml version="1.0" encoding="UTF-8"?><svg version="1.1" viewBox="0 0 30 30" xmlns="http://www.w3.org/2000/svg" xmlns:xlink="http://www.w3.org/1999/xlink"><path d="M15,8.499c-3.956,0 -7.56,2.095 -9.376,4.171c-0.182,0.208 -0.161,0.524 0.047,0.706c0.095,0.082 0.212,0.124 0.329,0.124c0.139,0 0.277,-0.058 0.376,-0.172c1.614,-1.844 5.001,-3.829 8.624,-3.829c0.276,0 0.5,-0.224 0.5,-0.5c0,-0.276 -0.224,-0.5 -0.5,-0.5Zm13.503,5.632c-0.215,-0.111 -0.464,-0.462 -0.513,-0.722c-0.86,-4.656 -6.203,-7.909 -12.99,-7.909c-6.391,0 -11.728,3.027 -12.98,7.361c-0.037,0.129 -0.038,0.133 -0.396,0.297c-0.715,0.327 -1.124,0.837 -1.124,1.399c0,0.569 0.398,1.066 1.123,1.398c0.11,0.051 0.273,0.257 0.396,0.684c1.294,4.481 6.874,7.861 12.981,7.861c5.764,0 11.338,-3.146 12.975,-7.34c0.029,-0.076 0.047,-0.13 0.036,-0.134c0.006,-0.004 0.033,-0.019 0.133,-0.057c0.862,-0.321 1.356,-0.868 1.356,-1.5c-3.55271e-15,-0.531 -0.354,-1.007 -0.997,-1.338Zm-0.711,1.9c-0.484,0.182 -0.59,0.354 -0.759,0.787c-1.486,3.809 -6.66,6.682 -12.033,6.682c-5.677,0 -10.845,-3.069 -12.02,-7.139c-0.192,-0.667 -0.517,-1.122 -0.94,-1.316c-0.373,-0.171 -0.54,-0.368 -0.54,-0.489c0,-0.121 0.167,-0.318 0.605,-0.519c0.349,-0.158 0.709,-0.323 0.875,-0.898c1.129,-3.91 6.072,-6.639 12.02,-6.639c6.198,0 11.248,2.982 12.009,7.09c0.104,0.565 0.551,1.179 1.037,1.429c0.335,0.173 0.454,0.349 0.454,0.448c0,0.145 -0.221,0.382 -0.708,0.564Z" fill="#000"></path></svg>