<?xml version="1.0" encoding="UTF-8"?><svg version="1.1" viewBox="0 0 30 30" xmlns="http://www.w3.org/2000/svg" xmlns:xlink="http://www.w3.org/1999/xlink"><path d="M14.529,12.168c0.072,0.199 0.26,0.332 0.471,0.332c0.211,0 0.399,-0.133 0.471,-0.332l2.5,-7c0.019,-0.054 0.029,-0.111 0.029,-0.168c0,-0.827 -0.673,-1.5 -1.5,-1.5h-3c-0.827,0 -1.5,0.673 -1.5,1.5c0,0.057 0.009,0.114 0.029,0.168l2.5,7Zm-1.029,-7.668h3c0.251,0 0.46,0.186 0.495,0.428l-1.995,5.585l-1.995,-5.585c0.035,-0.242 0.244,-0.428 0.495,-0.428Zm1.5,-4c-7.995,0 -14.5,6.505 -14.5,14.5c0,7.995 6.505,14.5 14.5,14.5c7.995,0 14.5,-6.505 14.5,-14.5c0,-7.995 -6.505,-14.5 -14.5,-14.5Zm0,28c-7.444,0 -13.5,-6.056 -13.5,-13.5c0,-7.444 6.056,-13.5 13.5,-13.5c7.444,0 13.5,6.056 13.5,13.5c0,7.444 -6.056,13.5 -13.5,13.5Zm1.646,-15.646c0.096,0.095 0.224,0.146 0.354,0.146c0.072,0 0.146,-0.016 0.213,-0.047l6.718,-3.182c0.052,-0.025 0.099,-0.058 0.14,-0.098c0.283,-0.283 0.439,-0.66 0.439,-1.061c0,-0.401 -0.156,-0.778 -0.439,-1.061l-2.121,-2.121c-0.588,-0.586 -1.538,-0.584 -2.122,0c-0.041,0.041 -0.075,0.088 -0.099,0.14l-3.182,6.717c-0.089,0.191 -0.05,0.418 0.099,0.567Zm3.944,-6.765c0.199,-0.147 0.477,-0.13 0.654,0.047l2.121,2.121c0.094,0.095 0.146,0.221 0.146,0.354c0,0.11 -0.036,0.213 -0.099,0.299l-5.361,2.539l2.539,-5.36Zm-5.12,11.743c-0.142,-0.398 -0.798,-0.398 -0.941,0l-2.5,7c-0.019,0.054 -0.029,0.111 -0.029,0.168c0,0.827 0.673,1.5 1.5,1.5h3c0.827,0 1.5,-0.673 1.499,-1.5c0,-0.057 -0.009,-0.114 -0.029,-0.168l-2.5,-7Zm1.03,7.668h-3c-0.251,0 -0.46,-0.186 -0.495,-0.428l1.995,-5.585l1.995,5.585c-0.035,0.242 -0.244,0.428 -0.495,0.428Zm-3.647,-8.854c-0.148,-0.149 -0.376,-0.19 -0.567,-0.098l-6.718,3.182c-0.052,0.025 -0.099,0.058 -0.14,0.098c-0.283,0.283 -0.439,0.66 -0.439,1.061c0,0.401 0.156,0.778 0.439,1.061l2.121,2.121c0.293,0.293 0.677,0.439 1.061,0.439c0.385,0 0.769,-0.147 1.061,-0.44c0.041,-0.041 0.075,-0.088 0.099,-0.14l3.182,-6.717c0.089,-0.191 0.05,-0.418 -0.099,-0.567Zm-3.944,6.765c-0.197,0.148 -0.476,0.131 -0.653,-0.047l-2.121,-2.121c-0.094,-0.095 -0.146,-0.221 -0.146,-0.354c0,-0.11 0.036,-0.213 0.099,-0.299l5.36,-2.539l-2.539,5.36Zm15.022,-3.68l-6.718,-3.182c-0.191,-0.092 -0.418,-0.051 -0.567,0.098c-0.15,0.149 -0.189,0.376 -0.099,0.567l3.182,6.717c0.025,0.052 0.058,0.099 0.099,0.14c0.293,0.293 0.677,0.439 1.062,0.439c0.383,0 0.767,-0.147 1.06,-0.438l2.121,-2.121c0.283,-0.284 0.439,-0.661 0.439,-1.061c0,-0.401 -0.156,-0.778 -0.439,-1.061c-0.041,-0.04 -0.088,-0.074 -0.14,-0.098Zm-0.567,1.512l-2.121,2.121c-0.176,0.176 -0.455,0.193 -0.653,0.047l-2.54,-5.36l5.361,2.539c0.064,0.086 0.099,0.19 0.099,0.299c-3.55271e-15,0.134 -0.051,0.259 -0.146,0.354Zm-17.785,-11.473l6.718,3.182c0.068,0.032 0.142,0.048 0.214,0.048c0.13,0 0.258,-0.051 0.353,-0.147c0.15,-0.149 0.189,-0.376 0.099,-0.567l-3.183,-6.717c-0.025,-0.052 -0.058,-0.099 -0.099,-0.14c-0.584,-0.585 -1.537,-0.585 -2.121,0l-2.121,2.121c-0.283,0.284 -0.439,0.661 -0.439,1.061c0,0.401 0.156,0.778 0.439,1.061c0.041,0.04 0.088,0.074 0.14,0.098Zm0.568,-1.513l2.121,-2.121c0.177,-0.178 0.457,-0.193 0.652,-0.047l2.539,5.36l-5.36,-2.539c-0.064,-0.086 -0.099,-0.19 -0.098,-0.299c0,-0.134 0.051,-0.259 0.146,-0.354Zm18.853,3.243c-0.058,0 -0.114,0.009 -0.168,0.029l-7,2.5c-0.199,0.071 -0.332,0.26 -0.332,0.471c0,0.211 0.133,0.4 0.332,0.471l7,2.5c0.054,0.019 0.11,0.029 0.168,0.029c0.827,0 1.5,-0.673 1.5,-1.5v-3c0,-0.827 -0.673,-1.5 -1.5,-1.5Zm0.5,4.5c0,0.251 -0.187,0.46 -0.428,0.495l-5.586,-1.995l5.586,-1.995c0.241,0.035 0.428,0.244 0.428,0.495v3Zm-20.332,1.471l7,-2.5c0.199,-0.071 0.332,-0.26 0.332,-0.471c0,-0.211 -0.133,-0.4 -0.332,-0.471l-7,-2.5c-0.054,-0.019 -0.11,-0.029 -0.168,-0.029c-0.827,0 -1.5,0.673 -1.5,1.5v3c0,0.827 0.673,1.5 1.5,1.5c0.058,0 0.114,-0.01 0.168,-0.029Zm-0.668,-1.471v-3c0,-0.251 0.187,-0.46 0.428,-0.495l5.586,1.995l-5.586,1.995c-0.241,-0.035 -0.428,-0.244 -0.428,-0.495Z" fill="#000"></path></svg>