<?xml version="1.0" encoding="UTF-8"?><svg version="1.1" viewBox="0 0 30 30" xmlns="http://www.w3.org/2000/svg" xmlns:xlink="http://www.w3.org/1999/xlink"><path d="M27.5,13c0,-2.336 -1.392,-4.479 -3.501,-5.449c0.001,-0.017 0.001,-0.034 0.001,-0.051c0,-2.209 -1.6,-4.064 -3.764,-4.419c-1.061,-1.907 -3.044,-3.081 -5.236,-3.081c-2.192,0 -4.174,1.174 -5.236,3.081c-2.164,0.356 -3.764,2.21 -3.764,4.419c0,0.017 0,0.034 0.001,0.051c-2.109,0.97 -3.501,3.113 -3.501,5.449c0,1.558 0.617,3.063 1.705,4.181c-0.137,0.435 -0.205,0.878 -0.205,1.319c0,1.949 1.252,3.655 3.085,4.26c0.313,1.812 1.725,3.265 3.523,3.631c0.418,2.082 2.243,3.609 4.392,3.609c2.149,0 3.974,-1.526 4.391,-3.609c1.893,-0.381 3.326,-1.923 3.56,-3.843c1.559,-0.748 2.549,-2.304 2.549,-4.048c0,-0.302 -0.036,-0.605 -0.113,-0.937c1.346,-1.144 2.113,-2.789 2.113,-4.563Zm-2.982,3.979c-0.165,0.125 -0.236,0.34 -0.177,0.539c0.108,0.37 0.159,0.682 0.159,0.982c0,1.437 -0.866,2.71 -2.208,3.245c-0.18,0.072 -0.303,0.243 -0.313,0.438c-0.09,1.703 -1.386,3.08 -3.082,3.274c-0.231,0.026 -0.414,0.209 -0.44,0.44c-0.202,1.769 -1.688,3.103 -3.457,3.103c-1.769,0 -3.255,-1.334 -3.458,-3.102c-0.026,-0.232 -0.209,-0.414 -0.44,-0.44c-1.625,-0.186 -2.915,-1.504 -3.067,-3.134c-0.02,-0.212 -0.171,-0.388 -0.378,-0.439c-1.564,-0.389 -2.657,-1.781 -2.657,-3.385c0,-0.424 0.083,-0.852 0.248,-1.273c0.075,-0.192 0.024,-0.41 -0.127,-0.55c-1.03,-0.947 -1.621,-2.287 -1.621,-3.677c0,-2.055 1.292,-3.93 3.216,-4.667c0.21,-0.08 0.34,-0.29 0.319,-0.514l-0.019,-0.148c-0.008,-0.056 -0.017,-0.112 -0.017,-0.171c0,-1.786 1.349,-3.274 3.137,-3.461c0.17,-0.018 0.319,-0.121 0.396,-0.273c0.855,-1.706 2.568,-2.766 4.468,-2.766c1.9,0 3.613,1.06 4.468,2.767c0.078,0.152 0.226,0.255 0.396,0.273c1.788,0.187 3.137,1.675 3.137,3.461c0,0.058 -0.009,0.114 -0.017,0.171l-0.019,0.148c-0.022,0.223 0.109,0.434 0.319,0.514c1.924,0.736 3.216,2.611 3.216,4.666c0,1.572 -0.722,3.022 -1.982,3.979Zm-5.873,-0.832l-3.145,3.145v-3.586l2.852,-2.852c0.195,-0.195 0.195,-0.512 0,-0.707c-0.195,-0.195 -0.512,-0.195 -0.707,0l-2.145,2.145v-3.586l2.852,-2.852c0.195,-0.195 0.195,-0.512 0,-0.707c-0.195,-0.195 -0.512,-0.195 -0.707,0l-2.145,2.145v-3.586l1.852,-1.852c0.195,-0.195 0.195,-0.512 0,-0.707c-0.195,-0.195 -0.512,-0.195 -0.707,0l-1.145,1.145v-1.792c0,-0.276 -0.224,-0.5 -0.5,-0.5c-0.276,0 -0.5,0.224 -0.5,0.5v1.794l-1.147,-1.147c-0.195,-0.195 -0.512,-0.195 -0.707,0c-0.195,0.195 -0.195,0.512 0,0.707l1.854,1.854v3.586l-2.147,-2.147c-0.195,-0.195 -0.512,-0.195 -0.707,0c-0.195,0.195 -0.195,0.512 0,0.707l2.854,2.854v3.586l-2.147,-2.147c-0.195,-0.195 -0.512,-0.195 -0.707,0c-0.195,0.195 -0.195,0.512 0,0.707l2.854,2.854v3.586l-3.147,-3.147c-0.195,-0.195 -0.512,-0.195 -0.707,0c-0.195,0.195 -0.195,0.512 0,0.707l3.854,3.854v2.586l-1.147,-1.147c-0.195,-0.195 -0.512,-0.195 -0.707,0c-0.195,0.195 -0.195,0.512 0,0.707l1.854,1.854v2.792c0,0.276 0.224,0.5 0.5,0.5c0.276,0 0.5,-0.224 0.5,-0.5v-2.794l1.852,-1.852c0.195,-0.195 0.195,-0.512 0,-0.707c-0.195,-0.195 -0.512,-0.195 -0.707,0l-1.145,1.145v-2.586l3.852,-3.852c0.195,-0.195 0.195,-0.512 0,-0.707c-0.195,-0.195 -0.512,-0.195 -0.707,-3.55271e-15Z" fill="#000"></path></svg>