<svg xmlns="http://www.w3.org/2000/svg" viewBox="0 0 30 30"><path d="M21 10.495a.5.5 0 1 0 0 1 .5.5 0 1 0 0-1zm0 3a.5.5 0 1 0 0 1 .5.5 0 1 0 0-1zm3-3a.5.5 0 1 0 0 1 .5.5 0 1 0 0-1zm5 5h-2.5v-1.278c.295.172.634.278 1 .278 1.103 0 2-.897 2-2s-.897-2-2-2c-.366 0-.705.106-1 .278V8.995a.5.5 0 0 0-.5-.5h-1.28c.48-.532.78-1.23.78-2 0-1.513-2.342-4.48-2.61-4.813a.52.52 0 0 0-.781 0c-.266.334-2.61 3.3-2.61 4.813 0 .77.3 1.468.78 2H19a.5.5 0 0 0-.5.5v6.5h-.623l-.66-2.308c.173-.18.283-.422.283-.692a1 1 0 1 0-2 0l-1.51.923-6.15-5.786a.5.5 0 0 0-.692.007l-6.138 6.004c-.33.33-.513.77-.513 1.237s.182.907.513 1.237l6.866 6.866a1.73 1.73 0 0 0 1.23.509c.454 0 .9-.175 1.262-.526l5.13-5.67v9.45c0 .965.785 1.75 1.75 1.75h10.5c.965 0 1.75-.785 1.75-1.75v-10.75a.5.5 0 0 0-.5-.5zm-1.5-4a1 1 0 1 1 0 2 1 1 0 1 1 0-2zm-5-8.683c.896 1.196 2 2.92 2 3.683 0 1.103-.897 2-2 2s-2-.897-2-2c0-.762 1.104-2.487 2-3.683zm-3 6.683h6v6h-6v-6zm-9.853 12.78a.75.75 0 0 1-1.061 0L1.72 15.41c-.142-.14-.22-.33-.22-.53a.74.74 0 0 1 .216-.526l5.79-5.665 7.794 7.335-5.654 6.252zm5.1-8.144l1.28-.77c.07.038.144.063.223.084l.586 2.05h-.64l-1.45-1.365zM28.5 26.745a.75.75 0 0 1-.75.75h-10.5a.75.75 0 0 1-.75-.75v-10.25h12v10.25zm-6-14.75a.5.5 0 1 0 0 1 .5.5 0 1 0 0-1zm1.5 1.5a.5.5 0 1 0 0 1 .5.5 0 1 0 0-1z"/></svg>