<?xml version="1.0" encoding="UTF-8"?><svg version="1.1" viewBox="0 0 30 30" xmlns="http://www.w3.org/2000/svg" xmlns:xlink="http://www.w3.org/1999/xlink"><g fill="#000"><path d="M17.661,30h-6.583c-0.875,0 -1.643,-0.702 -1.749,-1.599l-2.39,-17.835c-0.019,-0.143 0.024,-0.287 0.119,-0.396c0.096,-0.108 0.233,-0.17 0.377,-0.17h13.869c0.144,0 0.281,0.062 0.376,0.171c0.095,0.108 0.138,0.252 0.119,0.396l-2.391,17.843c-0.103,0.888 -0.871,1.59 -1.747,1.59Zm-9.655,-19l2.315,17.276c0.048,0.403 0.387,0.724 0.757,0.724h6.583c0.371,0 0.709,-0.321 0.756,-0.716l2.316,-17.284h-12.727Z"></path><path d="M22,15c-0.423,0 -0.828,-0.049 -1.205,-0.146c-0.267,-0.069 -0.428,-0.341 -0.36,-0.609c0.069,-0.268 0.342,-0.428 0.609,-0.36c0.3,0.078 0.612,0.115 0.956,0.115c2.206,0 4,-1.794 4,-4c0,-2.206 -1.794,-4 -4,-4c-2.206,0 -4,1.794 -4,4c0,0.149 0.008,0.298 0.026,0.438c0.034,0.274 -0.16,0.524 -0.434,0.558c-0.276,0.03 -0.524,-0.161 -0.558,-0.434c-0.023,-0.18 -0.034,-0.371 -0.034,-0.562c0,-2.757 2.243,-5 5,-5c2.757,0 5,2.243 5,5c0,2.757 -2.243,5 -5,5Z"></path><path d="M12.478,26.217c-0.263,0 -0.484,-0.206 -0.499,-0.472l-0.631,-11.348c-0.016,-0.276 0.195,-0.512 0.471,-0.527c0.283,-0.038 0.512,0.196 0.527,0.471l0.631,11.348c0.016,0.276 -0.195,0.512 -0.471,0.527c-0.009,0.001 -0.019,0.001 -0.028,0.001Z"></path><path d="M16.261,26.217c-0.009,0 -0.019,0 -0.028,-0.001c-0.275,-0.015 -0.487,-0.251 -0.471,-0.527l0.63,-11.348c0.015,-0.276 0.239,-0.511 0.527,-0.471c0.275,0.015 0.487,0.251 0.471,0.527l-0.63,11.348c-0.015,0.266 -0.236,0.472 -0.499,0.472Z"></path><path d="M12.45,11c-0.209,0 -0.404,-0.132 -0.474,-0.341l-3.07,-9.18c-0.087,-0.232 -0.289,-0.406 -0.549,-0.462c-0.257,-0.057 -0.509,0.019 -0.69,0.204l-3.78,4.597c-0.175,0.213 -0.49,0.244 -0.704,0.068c-0.214,-0.176 -0.245,-0.49 -0.069,-0.704l3.81,-4.63c0.45,-0.459 1.055,-0.639 1.643,-0.513c0.592,0.127 1.071,0.541 1.282,1.107l3.076,9.196c0.088,0.262 -0.054,0.545 -0.315,0.633c-0.054,0.017 -0.107,0.025 -0.16,0.025Z"></path><path d="M23.196,9.196c-0.128,0 -0.256,-0.049 -0.354,-0.146c-0.195,-0.195 -0.195,-0.512 0,-0.707l0.63,-0.63c0.195,-0.195 0.512,-0.195 0.707,0c0.195,0.195 0.195,0.512 0,0.707l-0.63,0.63c-0.097,0.097 -0.225,0.146 -0.353,0.146Z"></path><path d="M20.674,9.196c-0.128,0 -0.256,-0.049 -0.354,-0.146l-0.63,-0.63c-0.195,-0.195 -0.195,-0.512 0,-0.707c0.195,-0.195 0.512,-0.195 0.707,0l0.63,0.63c0.195,0.195 0.195,0.512 0,0.707c-0.097,0.097 -0.225,0.146 -0.353,0.146Z"></path><path d="M23.826,12.348c-0.128,0 -0.256,-0.049 -0.354,-0.146l-0.63,-0.63c-0.195,-0.195 -0.195,-0.512 0,-0.707c0.195,-0.195 0.512,-0.195 0.707,0l0.63,0.63c0.195,0.195 0.195,0.512 0,0.707c-0.097,0.097 -0.225,0.146 -0.353,0.146Z"></path></g></svg>