<?xml version="1.0" encoding="utf-8"?>
<!-- Generator: Adobe Illustrator 23.0.1, SVG Export Plug-In . SVG Version: 6.00 Build 0)  -->
<svg version="1.1" id="Layer_1" xmlns="http://www.w3.org/2000/svg" xmlns:xlink="http://www.w3.org/1999/xlink" x="0px" y="0px"
	 viewBox="0 0 30 30" style="enable-background:new 0 0 30 30;" xml:space="preserve">
<g>
	<path d="M20,29.8H10c-0.4,0-0.8-0.4-0.8-0.8V14.8c0-0.4,0.4-0.8,0.8-0.8h10c0.4,0,0.8,0.4,0.8,0.8v14.3
		C20.8,29.5,20.4,29.8,20,29.8z M10.3,28.7h9.3V15.1h-9.3V28.7z"/>
	<path d="M19.1,15.1h-8.2c-0.4,0-0.8-0.4-0.8-0.8v-1.5c0-0.4,0.4-0.8,0.8-0.8h8.2c0.4,0,0.8,0.4,0.8,0.8v1.5
		C19.9,14.7,19.5,15.1,19.1,15.1z M11.3,14h7.5v-0.9h-7.5V14z"/>
	<path d="M18.4,13.1h-6.8V4.9c0-0.3,0.1-0.6,0.4-0.7l4.9-3.8c0.3-0.2,0.7-0.3,1-0.1c0.3,0.2,0.5,0.5,0.5,0.9V13.1z M12.6,12.1h4.8
		V1.1L12.6,5L12.6,12.1z"/>
	<path d="M12.1,27c-0.3,0-0.5-0.2-0.5-0.5v-9.2c0-0.3,0.2-0.5,0.5-0.5s0.5,0.2,0.5,0.5v9.2C12.6,26.8,12.4,27,12.1,27z"/>
</g>
</svg>
