<svg id="Ebene_1" data-name="Ebene 1" xmlns="http://www.w3.org/2000/svg" viewBox="0 0 30 30"><path d="M15,17.91c-2.6,0-4.8,1.1-4.8,2.6s2.2,2.6,4.8,2.6,4.8-1.1,4.8-2.6S17.6,17.91,15,17.91Zm0,4.3c-2.1,0-3.9-.9-3.9-1.7s1.8-1.7,3.9-1.7,3.9.9,3.9,1.7S17.1,22.21,15,22.21Z"/><path d="M23.59,15.44l-6.3-3.6V3.63h.25a.7.7,0,0,0,.7-.7V1.73A1.7,1.7,0,0,0,16.54,0H13.46a1.7,1.7,0,0,0-1.7,1.7v1.2a.71.71,0,0,0,.7.7h.25v8.11L6.49,15.45a1.86,1.86,0,0,0-1.17,2.12L8.23,28.62A2,2,0,0,0,10,30H20.14a1.79,1.79,0,0,0,1.68-1.38l2.88-11A2.06,2.06,0,0,0,23.59,15.44ZM12.76,1.73a.71.71,0,0,1,.7-.7h3.08a.7.7,0,0,1,.7.7v.9H12.76Zm8.1,26.58c-.08.24-.29.66-.72.66H10a1,1,0,0,1-.79-.63l-2.9-11c-.1-.35.13-.68.7-1l6.72-4V3.65h2.58v8.77l6.82,3.9h0a1.09,1.09,0,0,1,.6,1Z"/><path d="M21.45,16.38a.5.5,0,0,0-.65.29.52.52,0,0,0,.29.65c.24.08.77.33.67.73l-1,4a.5.5,0,0,0,.36.61h.12a.49.49,0,0,0,.49-.37l1-4C22.93,17.49,22.44,16.75,21.45,16.38Z"/></svg>