<?xml version="1.0" encoding="UTF-8"?><svg version="1.1" viewBox="0 0 21 30" xmlns="http://www.w3.org/2000/svg" xmlns:xlink="http://www.w3.org/1999/xlink"><!--Generated by IJSVG (https://github.com/curthard89/IJSVG)--><g transform="matrix(1,0,0,1,-185,-90)"><g transform="matrix(1,0,0,1,185,90)"><path fill="#000" stroke="none" d="M8.37856,3.91984h3.90948v-2.55325h-3.90948v2.55325Zm-0.940123,-2.59477c0,-0.511965 0.398605,-0.931019 0.893115,-0.931019h4.00349c0.494503,5.55112e-17 0.893114,0.419047 0.893114,0.931019v2.63629c0,0.511965 -0.398605,0.931019 -0.893114,0.931019h-4.00349c-0.494503,0 -0.893115,-0.419047 -0.893115,-0.931019v-2.63629Z"></path><path fill="#000" stroke="none" d="M9.08697,4.89238l-0.00118896,6.785c-2.704e-05,0.154314 -0.070855,0.299454 -0.190861,0.391111l-6.93784,5.29894c-0.387561,0.296839 -0.549206,0.819669 -0.400292,1.30166l2.95522,9.56012c0.147091,0.479013 0.565081,0.798248 1.0403,0.798248h9.5607c0.475228,0 0.893614,-0.319344 1.04183,-0.799068l2.95498,-9.55922c0.14897,-0.482195 -0.0128341,-1.00471 -0.401034,-1.30135l-6.93835,-5.29933c-0.12003,-0.0916756 -0.190861,-0.236855 -0.190861,-0.3912v-6.78491h-2.4926Zm6.02604,25.1076h-9.5607c-0.886452,0 -1.66571,-0.595152 -1.93603,-1.47546l-2.95497,-9.5593c-0.271186,-0.877752 0.0245362,-1.83424 0.73686,-2.37982l6.74753,-5.15358l0.00123115,-7.02581c4.705e-05,-0.268525 0.210487,-0.486182 0.470061,-0.486182h3.43264c0.259608,0 0.470061,0.217711 0.470061,0.48627v7.02576l6.74758,5.15362c0.713144,0.544949 1.00936,1.50153 0.73802,2.37983l-2.95497,9.55919c-0.272134,0.880822 -1.05124,1.47549 -1.93731,1.47549Z"></path><path fill="#000" stroke="none" d="M10.3333,22.4502c2.12814,0 3.87497,-0.862249 3.87497,-1.65839c0,-0.796167 -1.74674,-1.65839 -3.87497,-1.65839c-2.1273,0 -3.87497,0.862492 -3.87497,1.65839c0,0.795924 1.74758,1.65839 3.87497,1.65839Zm0,0.972541c-2.58282,0 -4.81509,-1.10167 -4.81509,-2.63093c0,-1.52924 2.23235,-2.63093 4.81509,-2.63093c2.58365,0 4.81509,1.10148 4.81509,2.63093c0,1.52943 -2.23152,2.63093 -4.81509,2.63093Z"></path></g></g></svg>