<?xml version="1.0" encoding="UTF-8"?><svg version="1.1" viewBox="0 0 30 30" xmlns="http://www.w3.org/2000/svg" xmlns:xlink="http://www.w3.org/1999/xlink"><path d="M10,10.5v8c0,0.276 0.224,0.5 0.5,0.5c0.276,0 0.5,-0.224 0.5,-0.5v-8c0,-0.276 0.225,-0.5 0.5,-0.5c0.276,0 0.5,-0.224 0.5,-0.5c0,-0.276 -0.224,-0.5 -0.5,-0.5c-0.827,0 -1.5,0.673 -1.5,1.5Zm11.5,-10.5h-10c-0.276,0 -0.5,0.224 -0.5,0.5v2c0,0.276 0.224,0.5 0.5,0.5h0.5v1h-0.5c-0.276,0 -0.5,0.224 -0.5,0.5v2.551c-1.692,0.245 -3,1.69 -3,3.449v19c0,0.276 0.224,0.5 0.5,0.5h11c0.276,0 0.5,-0.224 0.5,-0.5v-19c0,-1.759 -1.308,-3.204 -3,-3.449v-2.551c0,-0.276 -0.224,-0.5 -0.5,-0.5h-1.5v-1h6.5c0.276,0 0.5,-0.224 0.5,-0.5v-2c0,-0.276 -0.224,-0.5 -0.5,-0.5Zm-2.5,10.5v18.5h-10v-18.5c0,-1.378 1.121,-2.5 2.5,-2.5h5c1.379,0 2.5,1.122 2.5,2.5Zm2,-8.5h-6.5c-0.276,0 -0.5,0.224 -0.5,0.5v2c0,0.276 0.224,0.5 0.5,0.5h1.5v2h-4v-2h0.5c0.276,0 0.5,-0.224 0.5,-0.5v-2c0,-0.276 -0.224,-0.5 -0.5,-0.5h-0.5v-1h9v1Z" fill="#000"></path></svg>