<svg id="Layer_1" data-name="Layer 1" xmlns="http://www.w3.org/2000/svg" viewBox="0 0 30 30"><title>Zeichenfläche 1</title><path d="M17.4,5.3V.7a.47.47,0,0,0-.5-.5h-5a.47.47,0,0,0-.5.5V5.3a3.45,3.45,0,0,0-3,3.4V29.5a.47.47,0,0,0,.5.5h11a.47.47,0,0,0,.5-.5V8.7A3.37,3.37,0,0,0,17.4,5.3Zm-5-4.1h4v4h-4Zm7,27.8H9.4V8.7a2.48,2.48,0,0,1,2.5-2.5h5a2.48,2.48,0,0,1,2.5,2.5Z"/><path d="M17.9,13.9H11a.65.65,0,0,0-.6.6v11a.65.65,0,0,0,.6.6h6.8a.65.65,0,0,0,.6-.6v-11A.56.56,0,0,0,17.9,13.9ZM17.4,25h-6V14.9h6Z"/></svg>