<svg id="Ebene_1" data-name="Ebene 1" xmlns="http://www.w3.org/2000/svg" viewBox="0 0 30 30"><path d="M23.29,18.76A2.69,2.69,0,1,1,26,16.08,2.69,2.69,0,0,1,23.29,18.76Zm0-4.11a1.43,1.43,0,1,0,1.43,1.43A1.43,1.43,0,0,0,23.29,14.65Z"/><path d="M23.29,18.76A2.69,2.69,0,1,1,26,16.08,2.69,2.69,0,0,1,23.29,18.76Zm0-4.11a1.43,1.43,0,1,0,1.43,1.43A1.43,1.43,0,0,0,23.29,14.65Z"/><path d="M21,14.71A2.68,2.68,0,1,1,23.71,12,2.68,2.68,0,0,1,21,14.71Zm0-4.11A1.43,1.43,0,1,0,22.46,12,1.43,1.43,0,0,0,21,10.6Z"/><path d="M25.83,7.71A2.69,2.69,0,1,1,28.51,5,2.7,2.7,0,0,1,25.83,7.71Zm0-4.12A1.43,1.43,0,1,0,27.26,5,1.43,1.43,0,0,0,25.83,3.59Z"/><path d="M16.64,11.73a.63.63,0,0,1-.52-.28.64.64,0,0,1,.17-.87l3.3-2.18a.63.63,0,0,1,.69,1L17,11.63A.64.64,0,0,1,16.64,11.73Z"/><path d="M18,2.06l-.4-.15L18,1.68A.78.78,0,1,0,17.13.39l-1.32.87L14.32.73a.77.77,0,0,0-1,.47.78.78,0,0,0,.47,1l.4.14-.35.24a.76.76,0,0,0-.22,1.07.78.78,0,0,0,.64.35.83.83,0,0,0,.43-.13L16,3l1.5.54a.75.75,0,0,0,.26,0,.77.77,0,0,0,.72-.51A.76.76,0,0,0,18,2.06Z"/><path d="M15.39,20.67l-.3-.3.42-.06a.78.78,0,0,0-.25-1.53L13.69,19l-1.14-1.1a.76.76,0,0,0-1.09,0,.78.78,0,0,0,0,1.1l.31.29-.42.07a.78.78,0,0,0-.65.89.79.79,0,0,0,.45.58.82.82,0,0,0,.44.06l1.57-.26,1.14,1.1a.62.62,0,0,0,.22.15.75.75,0,0,0,.87-.17A.76.76,0,0,0,15.39,20.67Z"/><path d="M21.4,23.72l.09-.42.28.32a.77.77,0,0,0,1.09.07.77.77,0,0,0,.07-1.09l-1-1.19.33-1.55a.78.78,0,0,0-1.52-.32l-.09.41-.28-.32a.77.77,0,0,0-1.09-.07.8.8,0,0,0-.26.69.75.75,0,0,0,.19.4l1,1.2-.32,1.55a.77.77,0,0,0,0,.26.77.77,0,0,0,1.52.06Z"/><path d="M25.67,12.32a2.77,2.77,0,0,1-.49,0,4.53,4.53,0,0,1-2.32-1.18c-1.47-1.37-1.05-4-1-4.15l.07-.41.4-.1c.11,0,2.75-.64,4.21.72a4.55,4.55,0,0,1,1.36,2.23,2.44,2.44,0,0,1-.49,2.24h0A2.28,2.28,0,0,1,25.67,12.32ZM23,7.58a3.55,3.55,0,0,0,.69,2.6,3.29,3.29,0,0,0,1.66.86,1.22,1.22,0,0,0,1.09-.26h0a1.25,1.25,0,0,0,.19-1.11,3.39,3.39,0,0,0-1-1.59A3.5,3.5,0,0,0,23,7.58Z"/><path d="M15.58,29.74l-.41-.07c-.11,0-2.77-.52-3.56-2.35a4.48,4.48,0,0,1-.35-2.59,2.4,2.4,0,0,1,1.34-1.85h0c1.38-.6,3.11.41,3.93,2.3s-.66,4.11-.72,4.21ZM13.43,24a.78.78,0,0,0-.33.07h0a1.22,1.22,0,0,0-.61.93,3.28,3.28,0,0,0,.27,1.86A3.47,3.47,0,0,0,15,28.33a3.49,3.49,0,0,0,.41-2.65A2.6,2.6,0,0,0,13.43,24Zm-.58-.51h0Z"/><circle cx="11.61" cy="22.12" r="1.46"/><path d="M15,10.63a7.25,7.25,0,0,0-1.38-1.37,1.46,1.46,0,0,0-.31-2.83A1.46,1.46,0,0,0,12,6.9a5.13,5.13,0,0,0,.4-1.12c.44-1.95-1.42-3.92-1.5-4l-.29-.3-.38.15c-.11,0-2.63,1-3.07,3a4.15,4.15,0,0,0,.48,3.23H7.56A1.54,1.54,0,0,0,6.92,8V8a2.68,2.68,0,0,0-1.74-2.5,2.8,2.8,0,0,0,.49-.74,2.67,2.67,0,0,0,0-2.06,2.69,2.69,0,1,0-5,2A2.68,2.68,0,0,0,2.16,6.13l.1,0A2.65,2.65,0,0,0,1.56,8,2.67,2.67,0,0,0,6.2,9.79a1.44,1.44,0,0,0,1.36,1l.2,0L7.57,11l.26.36a7,7,0,0,0,1.28,1.29A1.45,1.45,0,0,0,8.3,14a1.49,1.49,0,0,0,.07.43A3.29,3.29,0,0,0,6.53,14a4.52,4.52,0,0,0-.73.16L2.18,12.91a.62.62,0,0,0-.8.38.64.64,0,0,0,.38.8L4.27,15l-.13.1a2.41,2.41,0,0,0-.9,2.11A2.43,2.43,0,0,0,4.67,19a4.33,4.33,0,0,0,1.89.42,5.34,5.34,0,0,0,.69-.05c2-.26,3.18-2.69,3.23-2.79l.18-.37-.27-.32s-.21-.22-.49-.48A1.46,1.46,0,0,0,11.22,14a1.55,1.55,0,0,0-.07-.43,1.9,1.9,0,0,0,.25,0c2,0,3.5-2.1,3.56-2.19l.26-.36ZM1.88,4.2a1.43,1.43,0,0,1,.79-1.86,1.49,1.49,0,0,1,.54-.11,1.42,1.42,0,0,1,1.32.9,1.38,1.38,0,0,1,0,1.09A1.37,1.37,0,0,1,3.74,5,1.42,1.42,0,0,1,2.65,5,1.44,1.44,0,0,1,1.88,4.2ZM4.24,9.39A1.43,1.43,0,1,1,5.67,8,1.43,1.43,0,0,1,4.24,9.39Zm2.84,8.73a3.32,3.32,0,0,1-1.86-.25A1.25,1.25,0,0,1,4.49,17,1.26,1.26,0,0,1,5,16a3.37,3.37,0,0,1,1.73-.73h.2A3.77,3.77,0,0,1,9.14,16.4,3.5,3.5,0,0,1,7.08,18.12ZM11.8,8.5a2.57,2.57,0,0,0-.4-.05A3.91,3.91,0,0,0,9,9.42s0-.09,0-.13a1.46,1.46,0,0,0-.11-.55.25.25,0,0,0,.11,0H9a1.65,1.65,0,0,0,.44.05,2.54,2.54,0,0,0,1.74-.76,3.34,3.34,0,0,0,.53-.64,1.59,1.59,0,0,0-.06.3A1.43,1.43,0,0,0,11.8,8.5ZM8.43,4.88C8.62,4,9.64,3.32,10.32,3a3.54,3.54,0,0,1,.9,2.53,3.29,3.29,0,0,1-.88,1.65,1.23,1.23,0,0,1-1.05.4C8.55,7.39,8.15,6.14,8.43,4.88Zm3,7.42A3.49,3.49,0,0,1,9.15,11,3.45,3.45,0,0,1,11.4,9.7,3.45,3.45,0,0,1,13.64,11,3.5,3.5,0,0,1,11.4,12.3Z"/><circle cx="28.02" cy="7.61" r="1.46"/><circle cx="20.37" cy="17.09" r="1.46"/></svg>