<?xml version="1.0" encoding="UTF-8"?>
<svg viewBox="0 0 30 30" version="1.1" xmlns="http://www.w3.org/2000/svg" xmlns:xlink="http://www.w3.org/1999/xlink">
    <g id="Page-1" stroke="none" stroke-width="1" fill="none" fill-rule="evenodd">
        <g id="Outlines_black-Copy" transform="translate(-360.000000, -114.000000)">
            <g id="Group-3" transform="translate(3.000000, 114.000000)" fill="#000000" fill-rule="nonzero">
                <path d="M365.90878,25.8292683 L365.90878,19.6712195 C365.90878,18.6625999 365.81436,17.3518202 365.63781,15.7081942 C365.578716,15.1580492 365.511527,14.5798294 365.431228,13.9226092 C365.369966,13.4212008 365.169878,11.8332837 365.140481,11.5944323 C365.097525,11.2454141 365.369812,10.937561 365.721463,10.937561 L365.861951,10.937561 C366.11391,10.937561 366.337602,11.0987883 366.417278,11.3378179 L368.23691,16.7978144 L370.904814,23.9678049 L373.322512,23.9678049 L375.985862,16.8104719 L377.882447,11.3314475 C377.964056,11.0956875 378.186125,10.937561 378.43561,10.937561 L378.576098,10.937561 C378.927749,10.937561 379.200036,11.2454141 379.15708,11.5944323 C379.127683,11.8332837 378.927595,13.4212008 378.866333,13.9226092 C378.786034,14.5798294 378.718845,15.1580492 378.659751,15.7081942 C378.483201,17.3518202 378.38878,18.6625999 378.38878,19.6712195 L378.38878,25.8292683 L382.697073,25.8292683 L382.697073,4.17073171 L377.233978,4.17073171 L374.073863,13.1129138 C373.897449,13.6421562 373.743625,14.156612 373.484307,15.064227 C373.387803,15.4024787 373.337382,15.5790784 373.290241,15.7431297 C373.131585,16.2952535 373.008861,16.7081047 372.882585,17.1079793 C372.805681,17.3515084 372.579774,17.5170732 372.32439,17.5170732 L372.183902,17.5170732 C371.928519,17.5170732 371.702612,17.3515084 371.625708,17.1079793 C371.499431,16.7081047 371.376708,16.2952535 371.218052,15.7431297 C371.170911,15.5790784 371.12049,15.4024787 371.023986,15.064227 C370.764667,14.156612 370.610843,13.6421562 370.440482,13.130169 L367.139637,4.17073171 L361.670732,4.17073171 L361.670732,25.8292683 L365.90878,25.8292683 Z M373.729268,23.9678049 L373.180651,24.3490339 L373.322512,23.9678049 L373.729268,23.9678049 Z M367.079512,19.6712195 L367.079512,26.4146341 C367.079512,26.7379228 366.817435,27 366.494146,27 L361.085366,27 C360.762077,27 360.5,26.7379228 360.5,26.4146341 L360.5,3.58536585 C360.5,3.26207722 360.762077,3 361.085366,3 L367.547805,3 C367.79305,3 368.012296,3.15287757 368.097079,3.38300174 L371.545083,12.7426959 C371.728386,13.2926038 371.885925,13.8194856 372.149673,14.7426023 C372.192325,14.8921 372.225909,15.0097911 372.254146,15.1086345 C372.282383,15.0097911 372.315968,14.8921 372.35862,14.7426023 C372.622368,13.8194856 372.779907,13.2926038 372.966619,12.7327663 L376.268082,3.39032727 C376.350747,3.15640334 376.571899,3 376.82,3 L383.282439,3 C383.605728,3 383.867805,3.26207722 383.867805,3.58536585 L383.867805,26.4146341 C383.867805,26.7379228 383.605728,27 383.282439,27 L377.803415,27 C377.480126,27 377.218049,26.7379228 377.218049,26.4146341 L377.218049,19.6712195 C377.218049,18.7483794 377.291667,17.6074152 377.430047,16.2170036 L377.087642,17.206088 L374.277886,24.7573075 C374.192602,24.986508 373.973821,25.1385366 373.729268,25.1385366 L370.498049,25.1385366 C370.253496,25.1385366 370.034715,24.986508 369.949431,24.7573075 L367.132966,17.1870602 L366.891551,16.4628147 C367.014403,17.7425644 367.079512,18.8033484 367.079512,19.6712195 Z" id="M-Copy-2"></path>
            </g>
            <g id="Slices" transform="translate(0.000000, 114.000000)"></g>
        </g>
    </g>
</svg>