<svg id="Ebene_1" data-name="Ebene 1" xmlns="http://www.w3.org/2000/svg" viewBox="0 0 30 30"><title>Zeichenfläche 1</title><path d="M20.84,14.34a4.85,4.85,0,0,1-4.54-2.42,4.46,4.46,0,0,1,.17-4.1A7.76,7.76,0,0,1,20,4.5a7.71,7.71,0,0,1,4.76-.79A4.5,4.5,0,0,1,28.1,6a4.49,4.49,0,0,1-.18,4.1,7.83,7.83,0,0,1-3.49,3.33A8.13,8.13,0,0,1,20.84,14.34Zm2.72-9.73a7.18,7.18,0,0,0-3.15.78h0a6.78,6.78,0,0,0-3.05,2.88,3.53,3.53,0,0,0-.17,3.21c1,2,4,2.47,6.8,1.09a6.76,6.76,0,0,0,3-2.88,3.48,3.48,0,0,0,.17-3.2A3.48,3.48,0,0,0,24.54,4.7,5.33,5.33,0,0,0,23.56,4.61Z"/><path d="M19.51,10.58a3.32,3.32,0,0,1-1.46-.28l-.13-.07-.07-.13a1.72,1.72,0,0,1-.08-1.3C18.06,7.85,19,7,20.6,6.18h0a8,8,0,0,1,5.47-.45l.49.16-.18.49c0,.07-.68,1.8-4,3.44A6.54,6.54,0,0,1,19.51,10.58Zm-.82-1.1A4.54,4.54,0,0,0,22,8.92a8.83,8.83,0,0,0,3.16-2.37,6.76,6.76,0,0,0-4.08.52h0c-1.75.87-2.2,1.64-2.32,2A1,1,0,0,0,18.69,9.48Z"/><path d="M10.4,28.11A6.41,6.41,0,0,1,9.24,28a4.5,4.5,0,0,1-3.38-2.33A4.49,4.49,0,0,1,6,21.58a7.76,7.76,0,0,1,3.49-3.32c3.25-1.62,6.91-.93,8.14,1.54s-.42,5.8-3.67,7.43A8.16,8.16,0,0,1,10.4,28.11Zm2.74-9.74a7.08,7.08,0,0,0-3.16.78h0A6.73,6.73,0,0,0,6.93,22a3.51,3.51,0,0,0-.17,3.2A3.48,3.48,0,0,0,9.42,27a6.67,6.67,0,0,0,4.13-.69c2.76-1.37,4.21-4.1,3.22-6.08A3.85,3.85,0,0,0,13.14,18.37Z"/><path d="M10.17,26A4.55,4.55,0,0,1,9,25.85l-.29-.08-.06-.29c0-.1-.5-2.32,2.55-3.83h0a7.33,7.33,0,0,1,4.22-.71l.42.07v.43A4.64,4.64,0,0,1,13,25.29,6.46,6.46,0,0,1,10.17,26Zm-.54-1a5.24,5.24,0,0,0,3-.55,3.9,3.9,0,0,0,2.19-2.51,6.69,6.69,0,0,0-3.11.66h0C10,23.39,9.66,24.43,9.63,24.94Z"/><path d="M9,21.79a.49.49,0,0,1-.3-.89c.13-.1,3.21-2.41,5.92-1.62a.5.5,0,0,1-.28,1c-2.23-.65-5,1.43-5,1.45A.47.47,0,0,1,9,21.79Z"/><path d="M7.42,13.61a6.23,6.23,0,0,1-1.15-.1,4.47,4.47,0,0,1-3.38-2.33c-1.23-2.47.41-5.8,3.67-7.42h0c3.25-1.62,6.9-.93,8.13,1.54a4.49,4.49,0,0,1-.17,4.1A7.78,7.78,0,0,1,11,12.73,8.2,8.2,0,0,1,7.42,13.61ZM7,4.65C4.24,6,2.8,8.76,3.78,10.74a3.53,3.53,0,0,0,2.66,1.79,6.77,6.77,0,0,0,4.14-.7,6.71,6.71,0,0,0,3-2.88,3.52,3.52,0,0,0,.18-3.2c-1-2-4-2.47-6.8-1.1Z"/><path d="M6.71,11.75a6.07,6.07,0,0,1-1.9-.31.5.5,0,0,1,.31-.95c4.66,1.48,7.37-4,7.4-4a.49.49,0,0,1,.66-.23.5.5,0,0,1,.24.67C13.39,6.94,11,11.75,6.71,11.75Z"/><path d="M4.35,9.68A.5.5,0,0,1,4,9.56a.51.51,0,0,1,0-.71c4.3-4.92,7.42-3.09,7.55-3a.49.49,0,0,1,.17.68A.5.5,0,0,1,11,6.7c-.11-.07-2.58-1.43-6.28,2.81A.48.48,0,0,1,4.35,9.68Z"/><path d="M19.86,12.56c-.3,0-.58,0-.86,0a.5.5,0,1,1,.1-1c2.15.2,5-.42,6.44-2.79a.49.49,0,0,1,.68-.16.5.5,0,0,1,.17.69A7.52,7.52,0,0,1,19.86,12.56Z"/></svg>