<svg xmlns="http://www.w3.org/2000/svg" viewBox="0 0 30 30" fill="none" stroke="#000" stroke-miterlimit="10"><path d="M7.5 2.1L3 23.7c-.1.1 0 .3.2.3 1.9.3 11.9 1.6 15 .5.2-.1.4-.3.5-.5l4.7-22.5c.1-.5-.4-1-.9-.8-2.3.7-8 2.2-14.6 1.2-.2 0-.3.1-.4.2z"/><g stroke-linecap="round"><path d="M3 24s2.5 3.6 17 3.4c.2 0 .4-.3.4-.5l4.7-22.5c.1-.5-.4-.6-.9-.8-.6-.2-.4-.2-1-.2"/><path d="M3.5 24.2s4.4 5.2 18.8 5.1c.2 0 .4-.3.4-.5.5-2.5 2.4-14.5 4.7-22.5.1-.5-1.7-.6-2.3-1"/><path d="M9.4 5.3c.2 0 6.9.4 10.8-1.1M8.7 7.9s2.3.3 5.3.2"/></g><path d="M8.5 10.8l9.8.3c.4 0 .6.3.5.7-.5 2.1-1.9 8.5-2.2 10.3-.1.3-.3.4-.5.4-2.5.1-4.6.1-9.8-.5-.3 0-.5-.4-.4-.7l2.2-10.1c-.1-.2.1-.4.4-.4z"/></svg>