<?xml version="1.0" encoding="UTF-8"?><svg version="1.1" viewBox="0 0 30 30" xmlns="http://www.w3.org/2000/svg" xmlns:xlink="http://www.w3.org/1999/xlink"><path d="M24.927,6.24c-0.084,-0.138 -0.231,-0.227 -0.393,-0.239c-1.332,-0.095 -2.567,0.684 -3.677,1.953c-0.79,-4.865 -2.792,-7.954 -5.222,-7.954c-0.029,0 -0.057,0.009 -0.086,0.01c-0.017,-0.002 -0.031,-0.01 -0.048,-0.01c-0.06,0 -0.116,0.015 -0.17,0.034c-2.954,0.348 -5.236,5.707 -5.322,12.569c-1.741,-1.489 -3.318,-1.785 -4.583,-1.598c-0.249,0.037 -0.432,0.254 -0.426,0.506c0.006,0.252 0.198,0.46 0.449,0.486c3.153,0.322 3.657,4.999 3.928,7.512c0.045,0.425 0.085,0.791 0.129,1.069c0.036,0.218 0.067,0.484 0.102,0.785c0.26,2.203 0.778,6.514 4.393,7.448v0.689c0,0.276 0.224,0.5 0.5,0.5h2c0.276,0 0.5,-0.224 0.5,-0.5v-0.741c4.532,-1.394 5.112,-9.082 5.396,-12.975c0.037,-0.485 0.067,-0.904 0.1,-1.234c0.291,-2.847 0.895,-4.239 2.218,-7.289l0.244,-0.563c0.065,-0.148 0.053,-0.319 -0.032,-0.458Zm-8.926,-5.202c1.02,0.21 1.968,1.289 2.707,2.962h-2.707v-2.962Zm0,3.962h3c0.034,0 0.063,-0.013 0.095,-0.019c0.31,0.892 0.566,1.908 0.754,3.019h-3.849v-3Zm0,4h3.895c-0.597,0.861 -1.153,1.891 -1.666,3h-2.228v-3Zm0,4h1.78c-0.711,1.686 -1.313,3.476 -1.78,5.106v-5.106Zm-1,-11.861v2.861h-2.382c0.689,-1.528 1.528,-2.524 2.382,-2.861Zm-2.787,3.861h2.786v3h-3.572c0.204,-1.117 0.472,-2.121 0.786,-3Zm-0.943,4h3.73v3h-3.98c0.034,-1.061 0.119,-2.063 0.25,-3Zm-0.271,4c0,0 0,0 0,0h4.001v3h-1.995c-0.692,-1.177 -1.358,-2.082 -2.005,-2.715h-0.001v-0.285Zm4.001,4v3.005c-0.492,-1.123 -0.97,-2.13 -1.436,-3.005h1.436Zm1,12h-1v-0.033c0.165,0.013 0.324,0.033 0.5,0.033c0.176,0 0.333,-0.033 0.5,-0.048v0.048Zm5.503,-14.551c-0.036,0.337 -0.067,0.766 -0.103,1.262c-0.293,3.989 -0.901,12.289 -5.9,12.289c-3.786,0 -4.514,-3.486 -4.9,-6.753c-0.037,-0.317 -0.07,-0.596 -0.106,-0.825c-0.042,-0.266 -0.08,-0.615 -0.123,-1.02c-0.202,-1.876 -0.521,-4.837 -1.907,-6.703c2.257,1.413 4.511,4.808 6.554,9.944c0.006,0.015 0.011,0.028 0.017,0.042c0,0.001 0.002,0.002 0.002,0.003c0.035,0.086 0.096,0.155 0.168,0.208c0.009,0.007 0.016,0.015 0.026,0.021c0.073,0.048 0.158,0.071 0.245,0.075c0.009,0 0.015,0.007 0.024,0.007c0.02,0 0.039,-0.001 0.058,-0.004c0.225,-0.027 0.404,-0.201 0.437,-0.425c0.034,-0.231 0.079,-0.485 0.127,-0.746c0.021,-0.11 0.044,-0.225 0.067,-0.342c0.033,-0.164 0.069,-0.333 0.107,-0.506c0.028,-0.128 0.055,-0.254 0.086,-0.388c1.138,-4.866 4.103,-12.601 7.32,-13.508c-1.261,2.911 -1.9,4.44 -2.199,7.369Z" fill="#000"></path></svg>