<?xml version="1.0" encoding="UTF-8"?><svg version="1.1" viewBox="0 0 30 30" xmlns="http://www.w3.org/2000/svg" xmlns:xlink="http://www.w3.org/1999/xlink"><path d="M28.889,8.168c-4.436,-5.25 -9.749,-7.164 -15.798,-5.707c-0.119,-0.988 -0.465,-1.889 -1.33,-2.4c-0.235,-0.139 -0.543,-0.062 -0.685,0.176c-0.14,0.238 -0.061,0.544 0.177,0.685c1.097,0.648 0.929,2.646 0.806,4.104c-0.03,0.352 -0.051,0.665 -0.06,0.951c-3.061,0.04 -5.684,1.038 -7.613,2.932c-2.325,2.284 -3.526,5.693 -3.38,9.6c0.031,0.805 0.249,1.667 0.479,2.579c0.143,0.567 0.295,1.168 0.416,1.811c0.206,1.092 0.489,2.96 0.606,4.627c0.048,0.682 0.352,1.277 0.878,1.721c0.578,0.488 1.405,0.761 2.27,0.761c0.133,0 0.267,-0.006 0.4,-0.02c12.138,-1.183 13.951,-9.278 13.951,-13.998c0,-5.126 -3.729,-9.583 -6.937,-9.996c-0.012,-0.002 -0.023,-0.003 -0.036,-0.003c-0.013,-0.001 -0.025,0 -0.038,0c0.009,-0.257 0.033,-0.56 0.06,-0.88c0.023,-0.277 0.045,-0.574 0.064,-0.875c2.832,4.513 8.378,4.53 12.134,4.539c1.312,0.004 2.445,0.006 3.117,0.198c0.045,0.013 0.091,0.019 0.137,0.019c0.167,0 0.326,-0.083 0.42,-0.229c0.119,-0.186 0.104,-0.427 -0.038,-0.595Zm-9.882,7.823c0,5.352 -2.264,11.952 -13.049,13.002c-0.739,0.073 -1.463,-0.118 -1.927,-0.51c-0.32,-0.27 -0.497,-0.615 -0.525,-1.027c-0.12,-1.71 -0.41,-3.624 -0.622,-4.742c-0.125,-0.664 -0.282,-1.285 -0.43,-1.87c-0.225,-0.897 -0.422,-1.672 -0.447,-2.372c-0.136,-3.623 0.958,-6.766 3.08,-8.849c1.778,-1.745 4.221,-2.655 7.103,-2.655c0.074,0 0.15,0.005 0.225,0.006c0.031,0.006 0.059,0.017 0.091,0.017c0.022,0 0.042,-0.001 0.063,-0.004c0.009,-0.001 0.015,-0.006 0.024,-0.008c0.122,0.004 0.243,0.003 0.367,0.01c2.743,0.369 6.047,4.457 6.047,9.002Zm6.248,-8.217c-3.844,-0.01 -9.052,-0.023 -11.514,-4.442c5.079,-1.088 9.607,0.415 13.483,4.478c-0.586,-0.033 -1.253,-0.034 -1.969,-0.036Zm-15.211,17.905c0.078,0.194 0.266,0.312 0.463,0.312c0.063,0 0.126,-0.012 0.186,-0.037c1.887,-0.765 3.293,-1.649 4.183,-2.627c1.774,-1.952 2.13,-4.445 2.13,-7.836c0,-0.276 -0.224,-0.5 -0.5,-0.5c-0.276,0 -0.5,0.224 -0.5,0.5c0,3.153 -0.312,5.451 -1.87,7.164c-0.787,0.867 -2.072,1.665 -3.817,2.373c-0.255,0.104 -0.379,0.395 -0.275,0.651Z" fill="#000"></path></svg>