<svg id="Layer_1" data-name="Layer 1" xmlns="http://www.w3.org/2000/svg" viewBox="0 0 30 30"><title>Zeichenfläche 1</title><path d="M7.48,25.28A.74.74,0,0,1,6.91,25a.75.75,0,0,1-.1-.76L8.28,21,.88,16.39a.7.7,0,0,1-.34-.66A.73.73,0,0,1,1,15.11l1.92-.92L2,11.24a.73.73,0,0,1,.84-.92l2.91.57.16-1.66a.7.7,0,0,1,.37-.56.72.72,0,0,1,.67,0L9.9,10,9,5.68A.73.73,0,0,1,9.18,5a.76.76,0,0,1,.71-.16L12,5.48,14.31.82A.74.74,0,0,1,15,.41a.69.69,0,0,1,.65.41L18,5.48l2.14-.66a.76.76,0,0,1,.71.16.73.73,0,0,1,.22.7L20.1,10l2.95-1.37a.74.74,0,0,1,.68,0,.71.71,0,0,1,.36.56l.16,1.66,2.91-.57a.73.73,0,0,1,.68.23.74.74,0,0,1,.16.7l-.86,2.94,1.91.92a.73.73,0,0,1,.41.62.7.7,0,0,1-.34.66L21.72,21l1.47,3.25a.75.75,0,0,1-.1.76.73.73,0,0,1-.72.26L15,23.74l-7.4,1.53ZM1.82,15.8l7.73,4.81L7.94,24.18,15,22.72l7,1.46-1.35-3a.73.73,0,0,1,.28-.92l7.19-4.47L26.5,15a.72.72,0,0,1-.39-.86l.81-2.74-2.77.53a.65.65,0,0,1-.57-.13.71.71,0,0,1-.29-.51L23.13,9.7,20,11.15a.74.74,0,0,1-.77-.1.73.73,0,0,1-.25-.72l1-4.42L18,6.5a.73.73,0,0,1-.86-.37L15,1.75,12.83,6.12A.72.72,0,0,1,12,6.5L10,5.91l1,4.42a.73.73,0,0,1-.25.72.74.74,0,0,1-.77.1L6.87,9.7l-.16,1.58a.71.71,0,0,1-.29.51.65.65,0,0,1-.57.13l-2.77-.53.81,2.74a.73.73,0,0,1-.38.86Zm19.7,5.32ZM1.41,15.54Zm1.52-1.13Zm24.14,0Zm-2.79-3.23ZM24,10.94Zm-12-5.26Z"/><path d="M15,29.59a.5.5,0,0,1-.5-.5V13.79a.5.5,0,0,1,1,0v15.3A.5.5,0,0,1,15,29.59Z"/><path d="M23.29,13.87a.49.49,0,0,0-.65-.26L15,17,7.36,13.61a.49.49,0,0,0-.65.26.51.51,0,0,0,.25.66L12.72,17l-1.29,2.1a.5.5,0,0,0,.17.69.48.48,0,0,0,.26.07.47.47,0,0,0,.42-.24l1.37-2.21,1,.42a.51.51,0,0,0,.2,0,.59.59,0,0,0,.19-.05.59.59,0,0,0,.19.05.51.51,0,0,0,.2,0l1-.42,1.37,2.21a.47.47,0,0,0,.42.24.48.48,0,0,0,.26-.07.5.5,0,0,0,.17-.69L17.28,17,23,14.53A.51.51,0,0,0,23.29,13.87Z"/></svg>