<svg id="Ebene_1" data-name="Ebene 1" xmlns="http://www.w3.org/2000/svg" viewBox="0 0 30 30"><path d="M21.91,1.85c-1.63-.76-3.18-.64-3.6.27L15.45,8.3c-.42.91.49,2.16,2.12,2.92s3.18.64,3.6-.27L24,4.77C24.45,3.86,23.54,2.6,21.91,1.85Zm-.42.91c1.19.55,1.74,1.35,1.63,1.59s-1.07.33-2.27-.22-1.74-1.36-1.63-1.59S20.3,2.21,21.49,2.76ZM18,10.31C16.8,9.76,16.25,9,16.36,8.72l2.31-5A4.89,4.89,0,0,0,20.43,5a4.85,4.85,0,0,0,2.15.48l-2.32,5C20.15,10.76,19.18,10.86,18,10.31Z"/><path d="M19.14,5.28a.5.5,0,0,0-.66.25L17.42,7.81a.51.51,0,0,0,.25.66.49.49,0,0,0,.66-.24L19.39,6A.52.52,0,0,0,19.14,5.28Z"/><path d="M22.51.27a.5.5,0,0,0-.67.24L20.79,2.79a.5.5,0,1,0,.9.42L22.75.93A.49.49,0,0,0,22.51.27Z"/><path d="M17.88,10.26a.49.49,0,0,0-.66.24l-1.06,2.28a.52.52,0,0,0,.25.67.51.51,0,0,0,.66-.25l1.05-2.28A.49.49,0,0,0,17.88,10.26Z"/><path d="M12.24,22.44a.49.49,0,0,0-.66.24l-2.76,6a.5.5,0,1,0,.9.42l2.77-6A.49.49,0,0,0,12.24,22.44Z"/><path d="M13.68,15.9a.5.5,0,0,0-.67.24l-1,2.28a.49.49,0,0,0,.24.66.5.5,0,0,0,.67-.24l1.05-2.28A.49.49,0,0,0,13.68,15.9Z"/><path d="M16.79,22.65h0l3.48-7.51c.51-1.11-.7-2.69-2.81-3.67s-4.11-.88-4.62.23L9.36,19.21h0c-.5,1.11.7,2.68,2.82,3.66s4.1.88,4.61-.23ZM17,12.38c1.71.79,2.52,1.91,2.32,2.34s-1.6.52-3.29-.26-2.51-1.93-2.32-2.34S15.35,11.6,17,12.38ZM12.6,22c-1.69-.78-2.52-1.92-2.33-2.34h0l2.88-6.22a6.1,6.1,0,0,0,2.5,1.95,6.12,6.12,0,0,0,3.11.65l-2.88,6.22h0C15.69,22.64,14.28,22.75,12.6,22Z"/></svg>