<svg id="Ebene_1" data-name="Ebene 1" xmlns="http://www.w3.org/2000/svg" viewBox="0 0 30 30"><title>Zeichenfläche 1</title><path d="M21.34,8.3H11.08a7,7,0,0,0-6.41,3.63A5.47,5.47,0,0,0,.86,17.12L.71,18.65a1.51,1.51,0,0,0,.53,1.14h0l1.82,1.59A1.54,1.54,0,0,0,4,21.7H14.56c.95,0,1.66-.69,1.93-1.88a5.58,5.58,0,0,0,.12-1.52H28.39a.91.91,0,0,0,.66-.28,1,1,0,0,0,.24-.67C29,13,26.78,8.3,21.34,8.3ZM1.71,18.7l.14-1.53a4.5,4.5,0,0,1,4.5-4.5H8.9c2.89.2,4.88,3.22,4.88,6a.5.5,0,0,1-.5.5H2.21a.44.44,0,0,1-.3-.11h0A.46.46,0,0,1,1.71,18.7Zm13.81.89c-.12.51-.38,1.11-1,1.11H4a.5.5,0,0,1-.29-.09l-.53-.46H13.28a1.5,1.5,0,0,0,1.5-1.52,7.58,7.58,0,0,0-2.12-5.15l.66.29C15,14.62,16,17.68,15.52,19.59Zm1-2.29a5.89,5.89,0,0,0-2.75-4.42,10.47,10.47,0,0,0-4.86-1.2H6.06a6,6,0,0,1,5-2.38c6,0,6.82,6.14,7,8Zm2.51,0c-.2-3.13-1.42-6.4-4.1-8h6.42c5.95,0,6.82,6.14,7,8Z"/></svg>