<svg xmlns="http://www.w3.org/2000/svg" viewBox="0 0 30 30"><path d="M8 28a.5.5 0 1 0 0-1 .5.5 0 0 1-.5-.5v-8a.5.5 0 1 0-1 0v8A1.5 1.5 0 0 0 8 28zM25 6h-.5V4.5A.5.5 0 0 0 24 4h-6a.5.5 0 0 0-.5.5V6H17a.5.5 0 0 0-.5.5v20c0 1.93 1.57 3.5 3.5 3.5h2c1.93 0 3.5-1.57 3.5-3.5v-20A.5.5 0 0 0 25 6zm-6.5-1h5v1h-5V5zm6 21.5c0 1.378-1.122 2.5-2.5 2.5h-2c-1.378 0-2.5-1.122-2.5-2.5V7h7v19.5zM13 16H9.5v-6H11a.5.5 0 1 0 0-1H9.5V8H11a.5.5 0 1 0 0-1H9.5V6H11a.5.5 0 1 0 0-1H9.5V4H11a.5.5 0 1 0 0-1H9.5V2H11a.5.5 0 1 0 0-1H9.5V.5a.5.5 0 1 0-1 0V1H7a.5.5 0 1 0 0 1h1.5v1H7a.5.5 0 1 0 0 1h1.5v1H7a.5.5 0 1 0 0 1h1.5v1H7a.5.5 0 1 0 0 1h1.5v1H7a.5.5 0 1 0 0 1h1.5v6H5a.5.5 0 0 0-.5.5v10C4.5 28.43 6.07 30 8 30h2c1.93 0 3.5-1.57 3.5-3.5v-10a.5.5 0 0 0-.5-.5zm-.5 10.5c0 1.378-1.122 2.5-2.5 2.5H8c-1.378 0-2.5-1.122-2.5-2.5V17h7v9.5z"/></svg>