<?xml version="1.0" encoding="UTF-8"?><svg version="1.1" viewBox="0 0 30 30" xmlns="http://www.w3.org/2000/svg" xmlns:xlink="http://www.w3.org/1999/xlink"><path d="M7.128,11.501c-0.431,0.011 -0.912,0.104 -1.194,0.233c-0.322,0.147 -0.566,0.411 -0.688,0.745c-0.121,0.331 -0.106,0.691 0.04,1.013c0.146,0.322 0.409,0.569 0.738,0.695c0.154,0.059 0.314,0.088 0.472,0.088c0.186,0 0.369,-0.04 0.541,-0.118c0.283,-0.129 0.669,-0.43 0.96,-0.749c0.464,-0.508 0.61,-0.962 0.433,-1.349c-0.177,-0.387 -0.61,-0.581 -1.302,-0.558Zm-0.503,1.746c-0.076,0.035 -0.162,0.038 -0.242,0.007c-0.083,-0.031 -0.15,-0.094 -0.187,-0.176c-0.037,-0.082 -0.041,-0.172 -0.011,-0.255c0.029,-0.08 0.087,-0.143 0.163,-0.178c0.195,-0.089 0.584,-0.145 0.88,-0.145c0.078,0 0.149,0.003 0.209,0.012c-0.158,0.242 -0.567,0.623 -0.812,0.735Zm22.375,-5.247h-16c-0.276,0 -0.5,0.224 -0.5,0.5c0,0.926 -1.298,1.5 -2.5,1.5c-0.801,0 -1.754,-0.235 -2.072,-0.76c-0.079,-0.127 -0.209,-0.214 -0.355,-0.235c-0.592,-0.087 -0.964,-0.317 -1.105,-0.684c-0.075,-0.193 -0.26,-0.321 -0.468,-0.321h-5c-0.276,0 -0.5,0.224 -0.5,0.5c0,7.444 6.505,13.5 14.5,13.5c7.995,0 14.5,-6.056 14.5,-13.5c0,-0.276 -0.224,-0.5 -0.5,-0.5Zm-14,13c-7.262,0 -13.205,-5.338 -13.489,-12h4.181c0.243,0.39 0.691,0.786 1.518,0.957c0.766,0.964 2.312,1.043 2.791,1.043c1.513,0 3.111,-0.697 3.439,-2h15.05c-0.284,6.662 -6.227,12 -13.49,12Zm4.528,-3.248c0.14,0.047 0.283,0.07 0.427,0.07c0.2,0 0.4,-0.045 0.585,-0.136c0.323,-0.157 0.565,-0.429 0.681,-0.766c0.114,-0.332 0.092,-0.688 -0.06,-1.001c-0.135,-0.279 -0.446,-0.657 -0.772,-0.941c-0.519,-0.451 -0.976,-0.587 -1.359,-0.399c-0.836,0.407 -0.489,2.04 -0.264,2.503c0.155,0.318 0.424,0.556 0.762,0.67Zm-0.02,-2.191c0.245,0.152 0.637,0.552 0.755,0.797c0.036,0.074 0.041,0.158 0.014,0.238c-0.029,0.084 -0.091,0.152 -0.173,0.192c-0.079,0.04 -0.172,0.045 -0.255,0.017c-0.081,-0.028 -0.146,-0.084 -0.182,-0.159c-0.119,-0.244 -0.19,-0.797 -0.159,-1.085Zm-4.349,3.439h0.012c0.727,0 1.324,-0.584 1.329,-1.306c0.003,-0.311 -0.107,-0.788 -0.273,-1.187c-0.265,-0.634 -0.614,-0.958 -1.04,-0.961h-0.007c-0.926,0 -1.338,1.611 -1.343,2.125c-0.003,0.353 0.134,0.687 0.385,0.938c0.249,0.249 0.583,0.388 0.937,0.391Zm0.02,-2.364c0.152,0.246 0.324,0.778 0.322,1.048c-0.002,0.175 -0.149,0.316 -0.332,0.316c-0.053,-0.026 -0.175,-0.035 -0.238,-0.098c-0.061,-0.06 -0.094,-0.14 -0.093,-0.223c0.003,-0.271 0.185,-0.799 0.341,-1.043Zm7.49,-2.388c0.205,0.115 0.425,0.17 0.644,0.17c0.462,0 0.915,-0.244 1.16,-0.676c0.177,-0.311 0.223,-0.672 0.127,-1.016c-0.094,-0.339 -0.312,-0.621 -0.616,-0.792c-0.27,-0.153 -0.739,-0.289 -1.17,-0.338c-0.684,-0.078 -1.135,0.07 -1.345,0.44c-0.459,0.808 0.752,1.957 1.2,2.212Zm0.82,-1.444c0.072,0.04 0.124,0.107 0.146,0.188c0.025,0.086 0.013,0.177 -0.032,0.256c-0.09,0.158 -0.286,0.217 -0.44,0.131c-0.235,-0.134 -0.608,-0.55 -0.746,-0.804c0.304,-0.018 0.836,0.094 1.072,0.229Zm-12.403,1.566c-0.361,-0.226 -0.83,-0.144 -1.395,0.246c-0.356,0.246 -0.707,0.588 -0.873,0.85c-0.388,0.615 -0.199,1.433 0.421,1.826c0.219,0.137 0.464,0.208 0.714,0.208c0.095,0 0.191,-0.01 0.284,-0.032c0.348,-0.076 0.644,-0.282 0.832,-0.581c0.275,-0.435 0.803,-2.02 0.017,-2.517Zm-0.862,1.985c-0.044,0.07 -0.115,0.119 -0.198,0.137c-0.087,0.021 -0.176,0.003 -0.251,-0.045c-0.155,-0.097 -0.205,-0.297 -0.111,-0.446c0.145,-0.229 0.577,-0.582 0.838,-0.707c1.77636e-15,0.289 -0.133,0.832 -0.278,1.061Z" fill="#000"></path></svg>