<svg xmlns="http://www.w3.org/2000/svg" viewBox="0 0 30 30"><path d="M15 27C6.9 27 4.8 11.2 4.7 2.9v-.5h20.5v.5C25.2 11.2 23.1 27 15 27zM5.7 3.4C5.8 12.7 8.4 26 15 26s9.2-13.3 9.3-22.6H5.7z"/><path d="M15 29.7a.47.47 0 0 1-.5-.5v-2.7a.47.47 0 0 1 .5-.5.47.47 0 0 1 .5.5v2.7c0 .2-.2.5-.5.5zM25.3 3.4H4.7a1.54 1.54 0 0 1-1.5-1.5A1.54 1.54 0 0 1 4.7.4h20.6a1.54 1.54 0 0 1 1.5 1.5 1.54 1.54 0 0 1-1.5 1.5zM4.7 1.3a.47.47 0 0 0-.5.5.47.47 0 0 0 .5.5h20.6a.47.47 0 0 0 .5-.5.47.47 0 0 0-.5-.5H4.7z"/></svg>