<svg id="Layer_1" data-name="Layer 1" xmlns="http://www.w3.org/2000/svg" viewBox="0 0 30 30"><path d="M25.3,3.7c-.1-.4-.44-.68-.8-.5l-2,1.1-1.4.4h0L8,7H8l-1.5.1L4.3,6.8a.6.6,0,0,0-.6.7L5,15.1a.62.62,0,0,0,.8.5l2-1.1,1.4-.4h0l13.2-2.3h0l1.5-.1,2.2.3c.44,0,.66-.38.6-.8ZM8.2,8l13-2.3,1.4-.4L23,7.5l.3,1.6c-.3-.1-.4-.3-.5-.6a1,1,0,0,0-.7-.7c-.4-.1-.8.2-1.2.5-2.6,2.3-3.1,1.7-3.5,1.2a1.27,1.27,0,0,0-2.1-.1c-2.1,1.9-2.6,1.4-3.1.9s-1.2-.9-2.3.2c-1.4,1.4-2.14,1.43-2.45,1.38L7.2,10.3,6.8,8.1ZM5.9,14.4,4.8,7.9l1,.1,1,5.9Zm16.2-3.6-13,2.3-1.4.4-.1-.6c.6,0,1.5-.3,3-1.7.4-.4.4-.4.8,0,.9.8,1.9,1.4,4.5-.9.4-.4.4-.4.7,0,.8.9,1.9,1.5,4.9-1.2.1-.1.2-.1.2-.2V9a1.8,1.8,0,0,0,1.6,1.2l.1.6Zm2.5,0-1-5.9.9-.5L25.6,11Z"/><path d="M25.7,17.2l-2.2.6-1.5.1h0L8.7,17.2h0L7.2,17l-2.1-.8a.67.67,0,0,0-.7.6L4,24.4a.68.68,0,0,0,.7.7l2.2-.6,1.5-.1h0l13.4.7h0l1.4.3,2.1.8a.67.67,0,0,0,.7-.6l.4-7.7C26.45,17.45,26.15,17,25.7,17.2ZM7.3,18l1.4.2,13.2.7,1.4-.1-.1,2.3-.1,1.6c-.4-.1-.5-.4-.6-.7s-.12-.67-.48-.85-.82.05-1.22.25c-3,1.6-3.4,1-3.7.4s-.7-1.3-2.1-.5c-2.5,1.3-2.9.7-3.2.2A1.38,1.38,0,0,0,9.6,21c-1.4.9-2.2,1-2.5.9ZM5,24l.4-6.6.9.4-.3,6Zm16.6.1L8.4,23.4,7,23.5l0-.6c.6.1,1.56-.1,3.06-1.1.5-.3.5-.3.8.1.7,1,1.6,1.8,4.6.1.37-.22.49-.24.7.2.6,1,1.5,1.9,5.1,0,.14-.07.26-.13.3,0a1.74,1.74,0,0,0,1.5,1.5v.6Zm3.3.9-.9-.3.3-6,1-.3Z"/></svg>