<?xml version="1.0" encoding="UTF-8"?><svg version="1.1" viewBox="0 0 30 30" xmlns="http://www.w3.org/2000/svg" xmlns:xlink="http://www.w3.org/1999/xlink"><g fill="#000"><path d="M17.5,30h-12c-0.3,0 -0.5,-0.2 -0.5,-0.5v-22c0,-0.2 0.1,-0.3 0.2,-0.4l3.8,-2.8v-3.8c0,-0.3 0.2,-0.5 0.5,-0.5h12c0.3,0 0.5,0.2 0.5,0.5v4c0,0.2 -0.1,0.3 -0.2,0.4l-3.8,2.9v21.8c0,0.2 -0.2,0.4 -0.5,0.4Zm-11.5,-1h11v-21.5c0,-0.2 0.1,-0.3 0.2,-0.4l3.8,-2.8v-3.3h-11v3.5c0,0.2 -0.1,0.3 -0.2,0.4l-3.8,2.9v21.2Z"></path><path d="M24.5,8h-19c-0.3,0 -0.5,-0.2 -0.5,-0.5c0,-0.3 0.2,-0.5 0.5,-0.5h19c0.3,0 0.5,0.2 0.5,0.5c0,0.3 -0.2,0.5 -0.5,0.5Z"></path><path d="M24.5,30h-7c-0.3,0 -0.5,-0.2 -0.5,-0.5c0,-0.3 0.2,-0.5 0.5,-0.5h6.5v-21.3l-2.7,-2.7h-11.8c-0.3,0 -0.5,-0.2 -0.5,-0.5c0,-0.3 0.2,-0.5 0.5,-0.5h12c0.1,0 0.3,0.1 0.4,0.1l3,3c0,0.1 0.1,0.3 0.1,0.4v22c0,0.3 -0.2,0.5 -0.5,0.5Z"></path></g></svg>