<svg xmlns="http://www.w3.org/2000/svg" viewBox="0 0 30 30"><path d="M15 19c-3.6 0-6.5-3.8-6.5-8.5S11.4 2 15 2s6.5 3.8 6.5 8.5S18.6 19 15 19zm0-16c-3 0-5.5 3.4-5.5 7.5S12 18 15 18s5.5-3.4 5.5-7.5S18 3 15 3zm0 27c-1.4 0-2.5-1.1-2.5-2.4l.6-6.7c-4-1-6.6-4.8-6.6-9.9 0-6.2 3.7-11 8.5-11s8.5 4.5 8.5 10.5c0 5.2-2.7 9.4-6.6 10.4l.6 6.6c0 1.4-1.1 2.5-2.5 2.5zm0-29c-4.2 0-7.5 4.4-7.5 10 0 4.8 2.4 8.3 6.2 9 .3 0 .4.3.4.5l-.6 7.1c0 .7.7 1.3 1.5 1.3s1.5-.6 1.5-1.4l-.6-7c0-.3.2-.5.4-.5 3.7-.7 6.2-4.6 6.2-9.5C22.5 5.1 19.3 1 15 1zm-2 9c-.1 0-.3 0-.4-.1-.2-.2-.2-.5 0-.7l1.5-1.5c.2-.2.5-.2.7 0s.2.5 0 .7l-1.5 1.5c0 .1-.2.1-.3.1zm0 5c-.1 0-.3 0-.4-.1-.2-.2-.2-.5 0-.7l5-5c.2-.2.5-.2.7 0s.2.5 0 .7l-5 5c0 .1-.2.1-.3.1z"/></svg>