<?xml version="1.0" encoding="UTF-8"?><svg version="1.1" viewBox="0 0 30 30" xmlns="http://www.w3.org/2000/svg" xmlns:xlink="http://www.w3.org/1999/xlink"><path d="M28.974,4.509c-1.321,-1.322 -3.628,-1.322 -4.949,0c-0.64,0.639 -1.003,1.514 -1.014,2.428l-2.107,2.107c-2.243,-0.362 -5.033,-0.561 -7.904,-0.561c-4.361,0 -12.465,0.595 -12.953,2.794c-0.028,0.063 -0.047,0.132 -0.047,0.206c0,0.308 0.011,0.614 0.032,0.918c0.011,0.158 0.032,0.314 0.049,0.471c0.015,0.142 0.025,0.286 0.045,0.427c0.03,0.219 0.071,0.434 0.112,0.649c0.014,0.076 0.024,0.153 0.04,0.229c0.054,0.261 0.119,0.518 0.189,0.773c0.007,0.027 0.013,0.055 0.02,0.081c0.954,3.405 3.27,6.292 6.513,7.98v2.972c0,0.276 0.224,0.5 0.5,0.5h11c0.276,0 0.5,-0.224 0.5,-0.5v-2.973c3.243,-1.688 5.56,-4.575 6.513,-7.981c0.005,-0.019 0.009,-0.039 0.015,-0.058c0.072,-0.263 0.139,-0.527 0.194,-0.796c0.014,-0.068 0.023,-0.138 0.036,-0.206c0.043,-0.222 0.085,-0.445 0.116,-0.67c0.019,-0.137 0.029,-0.277 0.044,-0.415c0.017,-0.161 0.039,-0.32 0.05,-0.483c0.022,-0.304 0.032,-0.61 0.032,-0.918c0,-0.067 -0.014,-0.13 -0.038,-0.188c-0.002,-0.004 -0.003,-0.008 -0.005,-0.012c-0.013,-0.06 -0.015,-0.122 -0.039,-0.181l0.628,-0.628c0.914,-0.011 1.788,-0.374 2.428,-1.014c0.661,-0.662 1.026,-1.541 1.026,-2.476c0,-0.935 -0.365,-1.814 -1.026,-2.475Zm-27.974,6.974c0,-0.598 4.083,-2 12,-2c2.516,0 4.969,0.154 7.026,0.438l-3.456,3.456c-0.012,0.001 -0.025,0.001 -0.037,0.002c-1.153,0.069 -2.339,0.104 -3.533,0.104c-7.917,0 -12,-1.402 -12,-2Zm17.279,10.763c-0.05,0.025 -0.081,0.07 -0.119,0.108c-0.015,0.014 -0.031,0.025 -0.044,0.04c-0.025,0.032 -0.042,0.065 -0.059,0.103c-0.024,0.049 -0.038,0.101 -0.044,0.155c-0.002,0.015 -0.013,0.027 -0.013,0.043v2.788h-10v-2.787c0,-0.027 -0.017,-0.048 -0.021,-0.074c-0.007,-0.039 -0.016,-0.075 -0.032,-0.111c-0.019,-0.045 -0.039,-0.085 -0.07,-0.123c-0.007,-0.008 -0.017,-0.014 -0.025,-0.022c-0.041,-0.043 -0.076,-0.092 -0.131,-0.119c-3.749,-1.843 -6.213,-5.391 -6.651,-9.456c0.069,0.037 0.151,0.071 0.226,0.107c0.059,0.028 0.115,0.057 0.177,0.084c0.18,0.079 0.373,0.155 0.579,0.226c0.024,0.008 0.044,0.018 0.069,0.026c0.234,0.079 0.485,0.153 0.746,0.223c0.077,0.021 0.158,0.04 0.237,0.06c0.193,0.049 0.39,0.096 0.594,0.14c0.097,0.021 0.194,0.042 0.292,0.062c0.209,0.042 0.422,0.082 0.64,0.12c0.089,0.016 0.175,0.032 0.264,0.047c0.302,0.05 0.61,0.097 0.924,0.14c0.061,0.008 0.124,0.015 0.186,0.023c0.261,0.034 0.523,0.067 0.788,0.096c0.112,0.013 0.223,0.024 0.335,0.036c0.223,0.023 0.446,0.045 0.67,0.065c0.113,0.01 0.226,0.021 0.339,0.03c0.254,0.021 0.507,0.041 0.759,0.058c0.073,0.005 0.147,0.011 0.22,0.016c0.321,0.021 0.639,0.04 0.952,0.055c0.089,0.005 0.175,0.008 0.263,0.012c0.229,0.011 0.455,0.02 0.677,0.028c0.105,0.004 0.208,0.007 0.312,0.01c0.21,0.006 0.414,0.011 0.615,0.015c0.087,0.002 0.175,0.004 0.261,0.005c0.278,0.004 0.549,0.007 0.803,0.007c0.488,0 1.027,-0.008 1.594,-0.025c0.751,-0.019 1.497,-0.048 2.226,-0.093c0.019,-0.001 0.036,-0.01 0.055,-0.014c2.362,-0.156 4.874,-0.469 6.665,-1.014c0.023,-0.004 0.046,-0.004 0.068,-0.01c0.242,-0.074 0.459,-0.151 0.664,-0.231c0.053,-0.021 0.102,-0.042 0.153,-0.063c0.149,-0.061 0.287,-0.124 0.414,-0.189c0.027,-0.014 0.061,-0.026 0.087,-0.04c-0.438,4.06 -2.9,7.602 -6.645,9.443Zm9.989,-13.496c-0.501,0.502 -1.177,0.761 -1.898,0.718c-0.14,-0.004 -0.279,0.046 -0.38,0.146l-1.06,1.06c0,0 -0.001,0 -0.001,0.001l-1.727,1.727c-1.154,0.331 -2.859,0.656 -5.106,0.862l3.334,-3.334c0,0 0,0 0,0l2.438,-2.438c0.1,-0.1 0.153,-0.238 0.146,-0.38c-0.038,-0.723 0.217,-1.398 0.718,-1.898c0.944,-0.944 2.591,-0.944 3.535,0c0.473,0.473 0.733,1.1 0.733,1.768c0,0.668 -0.26,1.296 -0.732,1.768Z" fill="#000"></path></svg>