<svg xmlns="http://www.w3.org/2000/svg" viewBox="0 0 30 30"><path d="M12.7 28.2c-2 0-3.6-1.6-3.6-3.6s1.6-3.6 3.6-3.6 3.6 1.6 3.6 3.6-1.6 3.6-3.6 3.6zm0-6.2a2.65 2.65 0 0 0-2.6 2.6 2.65 2.65 0 0 0 2.6 2.6 2.65 2.65 0 0 0 2.6-2.6c0-1.4-1.1-2.6-2.6-2.6zm14.1 6c-1.6 0-2.9-1.3-2.9-2.9s1.3-2.9 2.9-2.9 2.9 1.3 2.9 2.9c.1 1.6-1.3 2.9-2.9 2.9zm0-4.8c-1.1 0-1.9.9-1.9 1.9a1.97 1.97 0 0 0 1.9 1.9 1.97 1.97 0 0 0 1.9-1.9c0-1-.8-1.9-1.9-1.9z"/><path d="M15.8 25.3h8.7v1h-8.7zm12.8-2.2l-1-.1v-.6c0-1.9-.2-2.5-2.2-3.1l-9.2-2.2c-1.4-.3-2.9.2-3.6 1.3-.4.6-.6 1.2-.6 1.9v1.4h-1v-1.4c0-.9.3-1.7.8-2.5 1-1.5 2.9-2.1 4.7-1.7l9.3 2.2c2.5.8 2.9 1.9 2.9 4.1-.1 0-.1.5-.1.7z"/><path d="M27 19l-1-.2c.1-.5.1-.9-.1-1.3-.2-.3-.4-.6-.7-.6l-7.4-1.7c-.7-.2-1.4.5-1.6 1.4l-1-.2c.3-1.4 1.6-2.4 2.8-2.1l7.4 1.7c.6.1 1.1.5 1.4 1.2.2.4.3 1.1.2 1.8zm-14.8-.4a.76.76 0 0 1-.4-.2L1.4 6.2c-.6-.8-.8-1.9-.3-2.8l.6-1.3c.1-.2.4-.4.7-.2.2.1.3.4.2.6L2 3.8a1.68 1.68 0 0 0 .2 1.8l10.4 12.3c.2.2.2.5-.1.7h-.3z"/><path d="M10 23l-8.9-2.1c-.3-.1-.6-.3-.8-.6-.1-.3-.1-.7.1-1l2-3.5V7l1 .7v8.4l-2.2 3.8.1.2 8.9 2.1-.2.8z"/></svg>