<svg xmlns="http://www.w3.org/2000/svg" viewBox="0 0 30 30"><path d="M20.8 27.6c-4.2 0-8.8-2.2-8.8-5.3s4.7-5.2 8.8-5.2 8.5 2.1 8.5 5.2c0 2.8-4 5.3-8.5 5.3zm0-9.5c-4 0-7.8 2.1-7.8 4.2 0 2.2 3.8 4.3 7.8 4.3 3.9 0 7.5-2.1 7.5-4.4 0-2.2-3.5-4.1-7.5-4.1z"/><path d="M20.8 29.9c-4.7 0-8.7-2.4-8.7-5.3l-.1-2.2h1l.1 2.2c0 2.3 3.7 4.3 7.7 4.3s7.5-2.1 7.5-4.4v-2.2h1v2.2c0 2.9-3.9 5.4-8.5 5.4zM12.1 18C8.2 18 5 17 3 15.1 1.4 13.6.6 11.6.6 9.2.7 1.3 8 .3 13.5.2c1.1-.1 2 .2 2.8.9 1.6 1.4 2.4 4.1 2.6 8 .4 7.9-4.2 8.7-5.6 8.8-.2.1-.7.1-1.2.1zM14 1.1h-.4c-8.2.1-11.9 2.6-11.9 8 0 2.1.7 3.9 2.1 5.2 2 1.9 5.5 2.9 9.7 2.6 1.5-.1 5-1 4.6-7.8-.2-4.6-1.4-6.5-2.3-7.3-.7-.6-1.4-.7-1.8-.7z"/><path d="M13.8 17.9c-1.1 0-2-.4-2.8-1.1-1.5-1.5-2.2-4.2-2.2-7.8 0-5.2 2-8.8 4.9-8.9v1c-2.3.1-3.9 3.3-3.9 7.9 0 4.2 1 6.1 1.9 7 .6.6 1.3.9 2.2.9v1h-.1z"/></svg>