<svg id="Ebene_1" data-name="Ebene 1" xmlns="http://www.w3.org/2000/svg" viewBox="0 0 30 30"><title>Zeichenfläche 1</title><path d="M25.36,7.42a.53.53,0,0,0,.06-.1.22.22,0,0,0,0-.08s0-.07,0-.11a.19.19,0,0,0,0-.08.45.45,0,0,0,0-.11s0-.05-.06-.07a.56.56,0,0,0,0-.08h0L23,4.89l-1.88.91-2-1.89L17,5.31,15.12,3.84l-2,1.52L11,3.94,8.79,5.69,7,4.82l-2.24,2h0l0,.08L4.6,7s0,.06,0,.09a.29.29,0,0,0,0,.09s0,.06,0,.09a.3.3,0,0,0,0,.1.59.59,0,0,0,0,.08.57.57,0,0,0,0,.29l3.2,16,.08.1C8,23.85,10,26.16,15,26.16s7-2.31,7.11-2.41l.08-.1L25.38,7.7a.46.46,0,0,0,0-.26Zm-1.13-.21L23,8.58,21.33,6.82h0l1.56-.75ZM17,7.9l1.46,1.51-.67,15.45a12.63,12.63,0,0,1-1.67.24L15.47,9.64Zm2.45,1.73L21,7.91l1.43,1.47s0,0,0,.06l-2.5,14.68a7.84,7.84,0,0,1-1.07.45ZM11.06,5.18l2,1.41,2-1.49L17,6.54l2.07-1.36L20.7,6.75l-.09,0s0,0,0,0L19.05,8.58l-1.7-1.76,0,0-.12-.07,0,0-.13,0H16.9l-.12,0,0,0a.41.41,0,0,0-.11.07l0,0L15.07,8.58l-1.7-1.76,0,0-.13-.07,0,0-.12,0h-.15l-.12,0h0l-.12.08,0,0L11.1,8.58,9.39,6.82s0,0,0,0l-.13-.07,0,0-.08,0Zm-2,2.72,1.58,1.64,1.25,15.23a9,9,0,0,1-1.42-.48L7.67,9.47ZM7.13,6l1.61.76-.06,0s0,0,0,0L7.12,8.58,5.78,7.19ZM5.81,8.66l.86.89L9.32,23.67a6,6,0,0,1-.6-.48ZM12.91,25,11.63,9.49,13,7.9l1.43,1.48.66,15.77H15A12.79,12.79,0,0,1,12.91,25Zm8.34-1.79L21,23.4,23.35,9.73l.78-.89Z"/></svg>