<?xml version="1.0" encoding="UTF-8"?><svg version="1.1" viewBox="0 0 30 30" xmlns="http://www.w3.org/2000/svg" xmlns:xlink="http://www.w3.org/1999/xlink"><g fill="#000"><path d="M18.389,24.979c-0.19,0 -0.372,-0.108 -0.456,-0.292c-0.114,-0.251 -0.003,-0.548 0.248,-0.663c3.59,-1.636 5.819,-4.869 5.819,-8.438v-2.608c0,-0.551 -0.449,-1 -1,-1h-17c-0.551,0 -1,0.449 -1,1v2.608c0,3.59 2.2,6.822 5.742,8.437c0.251,0.115 0.362,0.411 0.248,0.663c-0.114,0.251 -0.41,0.362 -0.663,0.248c-3.903,-1.78 -6.327,-5.361 -6.327,-9.348v-2.608c0,-1.103 0.897,-2 2,-2h17c1.103,0 2,0.897 2,2v2.608c0,3.965 -2.454,7.547 -6.404,9.347c-0.067,0.031 -0.138,0.046 -0.207,0.046Z"></path><path d="M24.373,28h-19.746c-1.345,0 -2.489,-0.935 -3.052,-1.492l-1.454,-1.681c-0.128,-0.148 -0.158,-0.357 -0.076,-0.535c0.082,-0.178 0.259,-0.292 0.455,-0.292h28c0.196,0 0.373,0.114 0.455,0.292c0.082,0.178 0.052,0.387 -0.076,0.535l-1.427,1.653c-0.59,0.585 -1.734,1.52 -3.079,1.52Zm-22.781,-3l0.713,0.826c0.427,0.421 1.335,1.174 2.322,1.174h19.746c0.987,0 1.895,-0.753 2.348,-1.202l0.688,-0.798h-25.817Z"></path><path d="M21.487,23.044c-0.234,0 -0.443,-0.165 -0.49,-0.403c-0.053,-0.271 0.123,-0.534 0.394,-0.587l0.447,-0.088c1.994,-0.38 7.162,-1.938 7.162,-4.553c0,-0.858 -0.235,-1.444 -0.7,-1.744c-1,-0.646 -2.965,0.004 -3.637,0.308c-0.252,0.112 -0.547,0.003 -0.662,-0.248c-0.114,-0.251 -0.003,-0.547 0.248,-0.662c0.119,-0.054 2.924,-1.31 4.591,-0.239c0.77,0.495 1.16,1.365 1.16,2.585c0,3.974 -7.646,5.473 -7.972,5.535l-0.443,0.087c-0.033,0.007 -0.066,0.009 -0.098,0.009Z"></path><path d="M18.285,10c-0.169,0 -0.335,-0.086 -0.429,-0.242c-0.763,-1.266 -0.763,-3.249 0,-4.515c0.571,-0.947 0.571,-2.541 0.001,-3.485c-0.143,-0.236 -0.066,-0.544 0.17,-0.687c0.236,-0.143 0.543,-0.067 0.687,0.17c0.764,1.266 0.764,3.249 0,4.515c-0.57,0.947 -0.57,2.541 -0.001,3.485c0.143,0.237 0.066,0.544 -0.17,0.687c-0.082,0.049 -0.17,0.072 -0.258,0.072Z"></path><path d="M14.785,10c-0.169,0 -0.335,-0.086 -0.429,-0.242c-0.763,-1.266 -0.763,-3.249 0,-4.515c0.571,-0.947 0.571,-2.541 0.001,-3.485c-0.143,-0.236 -0.066,-0.544 0.17,-0.687c0.237,-0.143 0.543,-0.067 0.687,0.17c0.764,1.266 0.764,3.249 0,4.515c-0.57,0.947 -0.57,2.541 -0.001,3.485c0.143,0.237 0.066,0.544 -0.17,0.687c-0.082,0.049 -0.17,0.072 -0.258,0.072Z"></path><path d="M11.285,10c-0.169,0 -0.335,-0.086 -0.429,-0.242c-0.763,-1.266 -0.763,-3.249 0,-4.515c0.571,-0.947 0.571,-2.541 0.001,-3.485c-0.143,-0.236 -0.066,-0.544 0.17,-0.687c0.237,-0.143 0.542,-0.067 0.687,0.17c0.764,1.266 0.764,3.249 0,4.515c-0.57,0.947 -0.57,2.541 -0.001,3.485c0.143,0.237 0.066,0.544 -0.17,0.687c-0.082,0.049 -0.17,0.072 -0.258,0.072Z"></path></g></svg>