<?xml version="1.0" encoding="UTF-8"?><svg version="1.1" viewBox="0 0 30 30" xmlns="http://www.w3.org/2000/svg" xmlns:xlink="http://www.w3.org/1999/xlink"><path d="M14.777,26.989c-0.797,0 -1.912,-0.939 -2.609,-1.812c0,0 -0.001,0 -0.001,-0.001c0,0 0,0 0,0c-0.522,-0.653 -1.103,-1.632 -0.901,-2.584c0.057,-0.27 -0.116,-0.536 -0.386,-0.593c-0.272,-0.056 -0.536,0.116 -0.593,0.386c-0.282,1.335 0.442,2.595 1.099,3.416c0.292,0.365 1.828,2.188 3.391,2.188c0.276,0 0.5,-0.224 0.5,-0.5c0,-0.276 -0.224,-0.5 -0.5,-0.5Zm13.465,-17.683c-2.196,-5.56 -7.559,-9.295 -13.346,-9.295c-5.928,0 -10.941,3.37 -13.084,8.795c-0.6,1.52 -0.429,3.266 0.448,4.555c0.714,1.05 1.786,1.628 3.017,1.628c0.023,0 0.046,-0.002 0.069,-0.005c0.041,-0.006 2.399,-0.332 4.826,-0.609l-1.892,8.054c-0.251,2.062 0.311,3.988 1.582,5.424c1.221,1.377 2.966,2.136 4.915,2.136c1.971,0 3.833,-0.903 5.108,-2.476c1.296,-1.598 1.799,-3.649 1.382,-5.615l-1.4,-7.467c2.257,0.264 4.335,0.55 4.41,0.558c1.436,0 2.765,-0.693 3.555,-1.854c0.773,-1.137 0.922,-2.532 0.41,-3.829Zm-7.953,12.785c0.356,1.681 -0.074,3.427 -1.179,4.79c-1.085,1.339 -2.664,2.107 -4.332,2.107c-1.66,0 -3.139,-0.639 -4.166,-1.799c-1.079,-1.219 -1.555,-2.867 -1.348,-4.586l1.922,-8.17l0.769,-0.115c1.147,-0.174 2.135,-0.323 2.785,-0.328c0.011,0 0.026,-0.001 0.037,-0.001c0.042,0 0.096,0.003 0.141,0.003c0.87,0.022 2.57,0.246 3.935,0.44l1.436,7.659Zm6.716,-9.519c-0.604,0.887 -1.623,1.417 -2.659,1.422c-0.295,-0.041 -7.251,-1.005 -9.569,-1.005c-2.258,0 -8.919,0.915 -9.533,1c-0.876,-0.011 -1.641,-0.433 -2.157,-1.191c-0.683,-1.003 -0.818,-2.426 -0.345,-3.625c1.988,-5.035 6.646,-8.162 12.154,-8.162c5.38,6.66134e-16 10.37,3.481 12.416,8.662c0.389,0.984 0.276,2.041 -0.307,2.899Z" fill="#000"></path></svg>