<svg id="Ebene_1" data-name="Ebene 1" xmlns="http://www.w3.org/2000/svg" viewBox="0 0 30 30"><path d="M19.83,29.74c-1.18,0-2.54-.06-4.09-.18-2.56-.19-4.27-1.09-5.1-2.67-1.61-3.07.6-8.06,2.74-11.71,1.87-3.19,5.74-5,6.5-4.78.17.06.7.16,1.14.24a8.76,8.76,0,0,1,1.39.31h0c.82.36.78,1.78.64,4.71,0,.58-.06,1.17-.08,1.76,0,1.61.56,2.65,1.48,4.22a30.76,30.76,0,0,1,1.73,3.28,3.08,3.08,0,0,1,0,3.12C25.38,29.19,23.41,29.74,19.83,29.74Zm-.19-18.36a10.42,10.42,0,0,0-5.4,4.31c-2.84,4.84-3.81,8.66-2.72,10.74.66,1.25,2.11,2,4.3,2.14,3.58.26,8.47.44,9.56-1.1.35-.49.31-1.19-.11-2.15a29.68,29.68,0,0,0-1.68-3.17c-.94-1.6-1.68-2.86-1.62-4.76,0-.59.05-1.2.08-1.79A13.23,13.23,0,0,0,22,11.85c-.19,0-.75-.16-1.14-.23C20.26,11.51,19.87,11.44,19.64,11.38Z"/><path d="M5.35,22.87c-3-2.05-2.55-6.64,1.34-13.26C8.93,5.8,11.62,5,13,4.8a3.61,3.61,0,0,1,2.86.69l-.73.69a2.67,2.67,0,0,0-2-.38c-1.22.13-3.56.88-5.58,4.32s-5,9.65-1.65,11.93Z"/><rect x="17.09" y="4.59" width="1" height="6.04" transform="translate(0.41 16.11) rotate(-49.71)"/><rect x="8.11" y="20.05" width="1" height="9.75" transform="translate(-16.02 15.51) rotate(-50.02)"/><path d="M22.3,11.69h-.12a.5.5,0,0,1-.37-.6A14.8,14.8,0,0,1,24.15,5.3L23.5,5c-2.15,2-3.28,6-3.3,6.06a.49.49,0,0,1-.61.35.51.51,0,0,1-.35-.62c.05-.18,1.28-4.49,3.67-6.62A.73.73,0,0,1,23.76,4l1.18.63a.72.72,0,0,1,.37.5.6.6,0,0,1-.13.52,13.4,13.4,0,0,0-2.4,5.71A.49.49,0,0,1,22.3,11.69Z"/><path d="M16,7.62h-.12a.5.5,0,0,1-.37-.6,12.12,12.12,0,0,1,2.33-5.32l-.66-.35a8.67,8.67,0,0,0-2.45,4.6.49.49,0,0,1-.56.43.5.5,0,0,1-.43-.56A9.37,9.37,0,0,1,16.6.51a.7.7,0,0,1,.84-.16L18.63,1a.71.71,0,0,1,.37.49.63.63,0,0,1-.13.53,11.1,11.1,0,0,0-2.39,5.23A.5.5,0,0,1,16,7.62Z"/><path d="M19,10h-.11a.49.49,0,0,1-.37-.6A14.62,14.62,0,0,1,21,3.53l-.66-.35a10.41,10.41,0,0,0-2.66,5.14.5.5,0,0,1-1-.17,11.18,11.18,0,0,1,3.07-5.79.7.7,0,0,1,.85-.17l1.18.63a.71.71,0,0,1,.37.49.63.63,0,0,1-.13.53,13.39,13.39,0,0,0-2.6,5.75A.5.5,0,0,1,19,10ZM21.27,3.2h0Z"/><path d="M19.52,27.94c-1.38,0-2.55-.09-2.58-.09-1.81-.15-3.58-.43-4.31-1.5a5.56,5.56,0,0,1-.21-3.75h0c.08-.32.57-2,1.63-2.08a45.24,45.24,0,0,1,5.57.09c1,.15,1.83,1.18,2.6,2.26,1.06,1.49,2.15,3.16,1.63,4.2C23.49,27.78,21.33,27.94,19.52,27.94Zm-6.13-5.1a4.79,4.79,0,0,0,.06,2.94c.5.74,2.17,1,3.57,1.07,2.43.19,5.56,0,6-.3.09-.21-.07-1-1.59-3.11-.34-.48-1.25-1.74-2-1.85a47.07,47.07,0,0,0-5.3-.09C14,21.53,13.57,22.19,13.39,22.84Z"/><path d="M18.77,19.38c-.58,0-1.34,0-2.31-.09h-.34a1.72,1.72,0,0,1-1.37-.47,1.94,1.94,0,0,1-.28-1.6c.33-2.15,4.32-4.61,4.36-4.64l.13-.05c1.11-.29,1.82-.22,2.09.22.39.62.42,3,.42,3.69,0,2-.72,2.63-1.33,2.83A4.71,4.71,0,0,1,18.77,19.38Zm.5-5.92c-1.09.66-3.61,2.63-3.81,3.9-.09.57,0,.75,0,.79s.39.12.63.12h.38a12.66,12.66,0,0,0,3.3,0c.41-.13.65-.83.65-1.88a14.5,14.5,0,0,0-.24-3.08A3.49,3.49,0,0,0,19.27,13.46Z"/></svg>