<?xml version="1.0" encoding="UTF-8"?>
<svg viewBox="0 0 30 30" version="1.1" xmlns="http://www.w3.org/2000/svg" xmlns:xlink="http://www.w3.org/1999/xlink">
    <g id="Page-1" stroke="none" stroke-width="1" fill="none" fill-rule="evenodd">
        <g id="Outlines_black-Copy" transform="translate(-390.000000, -114.000000)">
            <g id="Group-3" transform="translate(3.000000, 114.000000)" fill="#000000" fill-rule="nonzero">
                <path d="M399.26,25.8292683 L399.26,19.8117073 C399.26,18.7704579 399.191971,17.6037879 399.061551,16.2293923 C398.990173,15.4771923 398.906687,14.7205013 398.782171,13.6666896 C398.757674,13.4593632 398.655427,12.6015054 398.629643,12.383008 C398.572347,11.8974598 398.528997,11.5185507 398.490708,11.1643796 C398.453284,10.8182065 398.724493,10.5160976 399.072683,10.5160976 L399.213171,10.5160976 C399.447511,10.5160976 399.659267,10.6558554 399.751399,10.8713246 L401.915376,15.9345285 L406.811742,25.8292683 L412.04439,25.8292683 L412.04439,4.17073171 L407.455122,4.17073171 L407.455122,10.1882927 C407.455122,11.1847057 407.517733,12.3177423 407.636511,13.6274333 C407.711648,14.4559153 407.804449,15.3113868 407.932924,16.3950361 C407.947663,16.5193542 408.169247,18.352813 408.224019,18.8320703 C408.263717,19.179428 407.992058,19.4839024 407.642439,19.4839024 L407.501951,19.4839024 C407.267084,19.4839024 407.054958,19.3435229 406.963155,19.1273407 L404.800102,14.031068 L399.903935,4.17073171 L394.670732,4.17073171 L394.670732,25.8292683 L399.26,25.8292683 Z M400.227047,16.1187957 C400.360673,17.5269774 400.430732,18.7284538 400.430732,19.8117073 L400.430732,26.4146341 C400.430732,26.7379228 400.168654,27 399.845366,27 L394.085366,27 C393.762077,27 393.5,26.7379228 393.5,26.4146341 L393.5,3.58536585 C393.5,3.26207722 393.762077,3 394.085366,3 L400.266829,3 C400.489132,3 400.69225,3.12592201 400.791118,3.3250296 L405.863187,13.5419276 L406.635589,15.3608106 C406.571096,14.7774057 406.5175,14.2506967 406.470565,13.7331753 C406.34885,12.3911115 406.28439,11.2246109 406.28439,10.1882927 L406.28439,3.58536585 C406.28439,3.26207722 406.546467,3 406.869756,3 L412.629756,3 C412.953045,3 413.215122,3.26207722 413.215122,3.58536585 L413.215122,26.4146341 C413.215122,26.7379228 412.953045,27 412.629756,27 L406.448293,27 C406.225701,27 406.022371,26.8737538 405.923648,26.674252 L400.852504,16.4242852 L400.067196,14.5876775 C400.13028,15.1491892 400.181073,15.6343089 400.227047,16.1187957 Z" id="N-Copy-2"></path>
            </g>
            <g id="Slices" transform="translate(0.000000, 114.000000)"></g>
        </g>
    </g>
</svg>