<svg xmlns="http://www.w3.org/2000/svg" viewBox="0 0 30 30"><circle cx="11.5" cy="8" r=".5"/><circle cx="6.4" cy="9.1" r=".8"/><path d="M25.5 28.8c-.2 0-.4-.1-.5-.2l-10.7-8.5a1.08 1.08 0 0 1-.3-.7c0-.3.2-.5.5-.6L27 13.9a.78.78 0 0 1 .8.1 1.08 1.08 0 0 1 .3.7l-1.7 13.4c-.1.3-.2.5-.5.6-.2.1-.3.1-.4.1zm-10.2-9.2l10.1 8L27 15l-11.7 4.6zm11.7-5z"/><circle cx="24.3" cy="23.1" r=".5"/><circle cx="24.9" cy="19.4" r=".8"/><path d="M17.2 17.8l-2-11c0-.3 0-.5.2-.7s.5-.2.7-.2l13 3.4c.3.1.5.3.5.5.1.3 0 .6-.2.7l-5.6 5.6-.7-.7 5.4-5.3-12.2-3.2 1.9 10.7-1 .2zm11.7-7.6zm-.1-.4zM16.3 6.6z"/><circle cx="22.5" cy="11.5" r=".5"/><circle cx="19.3" cy="9.6" r=".8"/><circle cx="22.9" cy="20.5" r=".5"/><circle cx="9.9" cy="6" r=".8"/><circle cx="20.2" cy="12.5" r=".8"/><circle cx="18.9" cy="19.9" r=".8"/><circle cx="25.9" cy="10.9" r=".5"/><path d="M14.5 2.1c0-.3-.1-.5-.3-.7-.2-.1-.5-.2-.7-.1L1 7c-.3.1-.4.4-.5.7 0 .3.1.5.3.7L8.2 13c-.1.3 0 .8 0 1.5 0 .5.1 1.4.1 1.5-.8.7-1.1 1.7-.7 2.7.3.8 1 1.3 1.7 1.3h.1c.6 0 1.1-.2 1.4-.6.6-.6.5-1.6.4-2.3.1-.1.7-.2 1.1-.3.3-.1.6-.1.9-.2.5-.1.7-.2 1-.7.1-.1.1-.4.1-.5l.2-13.3zm-1 .4l-.1 7.1c-.8-.1-1.9 0-2.4 1.1-.4.9-1.5 1.6-1.9 1.7L1.8 7.8l11.7-5.3zM12 16c-.8.1-2 .3-1.9 1.4 0 .3.2 1.2-.1 1.6-.1.2-.4.2-.7.2-.4 0-.7-.3-.8-.7s-.1-1.1.5-1.6c.4-.4.4-1.2.3-2.4 0-.3-.1-.8-.1-1.1.9-.1 2.2-1.2 2.7-2.2.3-.7 1.2-.6 1.5-.5l-.1 4.8c0 .3-.2.4-.3.4-.4 0-.8 0-1 .1z"/></svg>