<?xml version="1.0" encoding="utf-8"?>
<!-- Generator: Adobe Illustrator 23.0.1, SVG Export Plug-In . SVG Version: 6.00 Build 0)  -->
<svg version="1.1" id="Layer_1" xmlns="http://www.w3.org/2000/svg" xmlns:xlink="http://www.w3.org/1999/xlink" x="0px" y="0px"
	 viewBox="0 0 30 30" style="enable-background:new 0 0 30 30;" xml:space="preserve">
<g>

</g>
<g>
	<path d="M29.4,13.4c0-1.4-1.1-2.7-2.6-2.9l-6.3,0v0l-1.2,0l-0.5,0v0l-15.5,0c-1.5,0.2-2.6,1.5-2.6,2.9l0,4.5c0,0.2,0.1,0.4,0.2,0.5
		c0.1,0.1,0.3,0.2,0.5,0.2l18,0l9.4,0c0.2,0,0.4-0.1,0.5-0.2c0.1-0.1,0.2-0.3,0.2-0.5L29.4,13.4z M20.4,17.6L20.4,17.6l-1.2,0
		l-0.6,0v0l-17.1,0l0-4.2c0-1,0.9-1.8,1.7-1.9l15.9,0l7.5,0c0.8,0.1,1.7,0.9,1.7,1.9l0,4.2L20.4,17.6z"/>
	<g>
		<path d="M23.5,17.8c-0.3,0-0.5,0.2-0.5,0.5l0,3.7c0,0.1,0,0.2,0.1,0.3c0.1,0.1,0.2,0.2,0.4,0.2c0.3,0,0.5-0.2,0.5-0.5l0-3.7
			C24,18,23.8,17.8,23.5,17.8z"/>
		<path d="M4.4,17.8c-0.3,0-0.5,0.2-0.5,0.5l0,3.7c0,0.1,0,0.2,0.1,0.3c0.1,0.1,0.2,0.2,0.4,0.2c0.3,0,0.5-0.2,0.5-0.5l0-3.7
			C4.9,18,4.7,17.8,4.4,17.8z"/>
		<path d="M19.2,17.8c-0.3,0-0.5,0.2-0.5,0.5l0,3.7c0,0.1,0,0.2,0.1,0.3c0.1,0.1,0.2,0.2,0.4,0.2c0.3,0,0.5-0.2,0.5-0.5l0-3.7
			C19.7,18,19.5,17.8,19.2,17.8z"/>
		<path d="M21.4,17.8c-0.3,0-0.5,0.2-0.5,0.5l0,3.7c0,0.1,0,0.2,0.1,0.3c0.1,0.1,0.2,0.2,0.4,0.2c0.3,0,0.5-0.2,0.5-0.5l0-3.7
			C21.9,18,21.6,17.8,21.4,17.8z"/>
		<path d="M8.6,17.8c-0.3,0-0.5,0.2-0.5,0.5l0,3.7c0,0.1,0,0.2,0.1,0.3c0.1,0.1,0.2,0.2,0.4,0.2c0.3,0,0.5-0.2,0.5-0.5l0-3.7
			C9.1,18,8.9,17.8,8.6,17.8z"/>
		<path d="M10.7,17.8c-0.3,0-0.5,0.2-0.5,0.5l0,3.7c0,0.1,0,0.2,0.1,0.3c0.1,0.1,0.2,0.2,0.4,0.2c0.3,0,0.5-0.2,0.5-0.5l0-3.7
			C11.2,18,11,17.8,10.7,17.8z"/>
		<path d="M12.9,17.8c-0.3,0-0.5,0.2-0.5,0.5l0,3.7c0,0.1,0,0.2,0.1,0.3c0.1,0.1,0.2,0.2,0.4,0.2c0.3,0,0.5-0.2,0.5-0.5l0-3.7
			C13.4,18,13.1,17.8,12.9,17.8z"/>
		<path d="M15,17.8c-0.3,0-0.5,0.2-0.5,0.5l0,3.7c0,0.1,0,0.2,0.1,0.3c0.1,0.1,0.2,0.2,0.4,0.2c0.3,0,0.5-0.2,0.5-0.5l0-3.7
			C15.5,18,15.3,17.8,15,17.8z"/>
		<path d="M17.1,17.8c-0.3,0-0.5,0.2-0.5,0.5l0,3.7c0,0.1,0,0.2,0.1,0.3c0.1,0.1,0.2,0.2,0.4,0.2c0.3,0,0.5-0.2,0.5-0.5l0-3.7
			C17.6,18,17.4,17.8,17.1,17.8z"/>
		<path d="M6.5,17.8C6.2,17.8,6,18,6,18.3L6,22c0,0.1,0,0.2,0.1,0.3c0.1,0.1,0.2,0.2,0.4,0.2C6.8,22.5,7,22.2,7,22l0-3.7
			C7,18,6.8,17.8,6.5,17.8z"/>
		<path d="M25.6,17.8c-0.3,0-0.5,0.2-0.5,0.5l0,3.7c0,0.1,0,0.2,0.1,0.3c0.1,0.1,0.2,0.2,0.4,0.2c0.3,0,0.5-0.2,0.5-0.5l0-3.7
			C26.1,18,25.9,17.8,25.6,17.8z"/>
	</g>
	<g>
		<path d="M23.5,7.5C23.2,7.5,23,7.8,23,8l0,2.7c0,0.1,0,0.2,0.1,0.3c0.1,0.1,0.2,0.2,0.4,0.2c0.3,0,0.5-0.2,0.5-0.5L24,8
			C24,7.8,23.8,7.5,23.5,7.5z"/>
		<path d="M19.2,7.5c-0.3,0-0.5,0.2-0.5,0.5l0,2.7c0,0.1,0,0.2,0.1,0.3c0.1,0.1,0.2,0.2,0.4,0.2c0.3,0,0.5-0.2,0.5-0.5l0-2.7
			C19.7,7.8,19.5,7.5,19.2,7.5z"/>
		<path d="M21.4,7.5c-0.3,0-0.5,0.2-0.5,0.5l0,2.7c0,0.1,0,0.2,0.1,0.3c0.1,0.1,0.2,0.2,0.4,0.2c0.3,0,0.5-0.2,0.5-0.5l0-2.7
			C21.9,7.8,21.6,7.5,21.4,7.5z"/>
		<path d="M8.6,7.5C8.3,7.5,8.1,7.8,8.1,8l0,2.7c0,0.1,0,0.2,0.1,0.3c0.1,0.1,0.2,0.2,0.4,0.2c0.3,0,0.5-0.2,0.5-0.5l0-2.7
			C9.1,7.8,8.9,7.5,8.6,7.5z"/>
		<path d="M10.7,7.5c-0.3,0-0.5,0.2-0.5,0.5l0,2.7c0,0.1,0,0.2,0.1,0.3c0.1,0.1,0.2,0.2,0.4,0.2c0.3,0,0.5-0.2,0.5-0.5l0-2.7
			C11.2,7.8,11,7.5,10.7,7.5z"/>
		<path d="M12.9,7.5c-0.3,0-0.5,0.2-0.5,0.5l0,2.7c0,0.1,0,0.2,0.1,0.3c0.1,0.1,0.2,0.2,0.4,0.2c0.3,0,0.5-0.2,0.5-0.5l0-2.7
			C13.4,7.8,13.1,7.5,12.9,7.5z"/>
		<path d="M15,7.5c-0.3,0-0.5,0.2-0.5,0.5l0,2.7c0,0.1,0,0.2,0.1,0.3c0.1,0.1,0.2,0.2,0.4,0.2c0.3,0,0.5-0.2,0.5-0.5l0-2.7
			C15.5,7.8,15.3,7.5,15,7.5z"/>
		<path d="M17.1,7.5c-0.3,0-0.5,0.2-0.5,0.5l0,2.7c0,0.1,0,0.2,0.1,0.3c0.1,0.1,0.2,0.2,0.4,0.2c0.3,0,0.5-0.2,0.5-0.5l0-2.7
			C17.6,7.8,17.4,7.5,17.1,7.5z"/>
		<path d="M6.5,7.5C6.2,7.5,6,7.8,6,8l0,2.7c0,0.1,0,0.2,0.1,0.3c0.1,0.1,0.2,0.2,0.4,0.2C6.8,11.2,7,11,7,10.7L7,8
			C7,7.8,6.8,7.5,6.5,7.5z"/>
	</g>
</g>
</svg>
