<svg xmlns="http://www.w3.org/2000/svg" viewBox="0 0 30 30"><path d="M19.48 14.3L18.184 2.974C18.06 1.306 16.664 0 14.996 0a3.21 3.21 0 0 0-3.178 2.954L10.52 14.3c-2.41 1.502-4.02 4.168-4.02 7.2 0 3.076 1.49 5.778 4 7.29v.71a.5.5 0 0 0 .5.5h8a.5.5 0 0 0 .5-.5v-.71c2.51-1.51 4-4.213 4-7.29 0-3.042-1.612-5.708-4.02-7.2zM12.815 3.047A2.21 2.21 0 0 1 15.004 1c1.14 0 2.098.9 2.183 2.068l1.22 10.646c-.01-.005-.022-.008-.033-.012A8.44 8.44 0 0 0 15 13c-1.197 0-2.336.252-3.37.7l-.037.014 1.222-10.667zm5.943 25.015a.5.5 0 0 0-.258.438v.5h-7v-.5a.5.5 0 0 0-.258-.438C8.9 26.763 7.5 24.3 7.5 21.5c0-2.827 1.573-5.292 3.89-6.57.267-.147.543-.276.825-.388l.046-.017a7.68 7.68 0 0 1 5.48 0l.046.017a7.04 7.04 0 0 1 .825.388c2.316 1.278 3.89 3.743 3.89 6.57 0 2.81-1.4 5.265-3.742 6.563zm-6.546-1.75C10.514 25.37 9.5 23.572 9.5 21.5a.5.5 0 1 0-1 0c0 2.442 1.207 4.568 3.228 5.688a.49.49 0 0 0 .242.063c.176 0 .345-.092.437-.258a.5.5 0 0 0-.195-.68z"/></svg>