<svg xmlns="http://www.w3.org/2000/svg" viewBox="0 0 30 30"><path d="M28.965 1.033c-1.358-1.358-3.55-1.38-4.902-.054L11.088 10.995c-.01.01-.02.02-.03.03-.005.005-.013.007-.018.012s-.007.012-.012.018c-.01.01-.022.02-.03.03l-9.993 12.95c-1.35 1.35-1.336 3.558.03 4.925C1.73 29.655 2.642 30 3.54 30a3.33 3.33 0 0 0 2.374-.968l12.95-10.084c.01-.008.018-.02.028-.028.005-.005.013-.007.018-.012s.007-.012.012-.018.02-.018.03-.03L28.995 5.958c1.35-1.35 1.336-3.558-.03-4.925zM5.254 28.285c-.96.958-2.533.946-3.512-.03s-.99-2.552.012-3.56l9.688-12.55 6.362 6.362-12.55 9.777zM28.247 5.298L18.51 17.8 12.15 11.44l12.55-9.688a.48.48 0 0 0 .048-.042c.96-.958 2.534-.946 3.512.03s.99 2.552-.01 3.558z"/></svg>