<svg xmlns="http://www.w3.org/2000/svg" viewBox="0 0 30 30"><path d="M19 18.998a3.69 3.69 0 0 0-.633.061c-.396-1.038-1.866-5.068-1.866-7.56 0-2.99-.963-10.734-1.004-11.062-.002-.013-.01-.022-.012-.035-.008-.038-.02-.07-.037-.106-.01-.023-.02-.046-.034-.067C15.4.19 15.36.162 15.328.132 15.314.12 15.3.106 15.286.095a.48.48 0 0 0-.111-.056c-.024-.01-.047-.02-.073-.024-.014-.003-.025-.01-.04-.013-.022-.002-.04.005-.062.005s-.04-.008-.062-.005c-.015.002-.026.01-.04.013a.56.56 0 0 0-.069.023c-.042.016-.08.033-.116.058-.014.01-.025.022-.038.033a.5.5 0 0 0-.09.099c-.014.02-.023.043-.033.066a.5.5 0 0 0-.037.107c-.003.012-.01.022-.012.034-.04.33-1.004 8.072-1.004 11.063 0 2.5-1.47 6.522-1.866 7.56a3.7 3.7 0 0 0-.634-.061c-2.48 0-4.5 2.467-4.5 5.5s2.02 5.5 4.5 5.5c1.742 0 3.252-1.218 4-2.992.748 1.774 2.258 2.992 4 2.992 2.48 0 4.5-2.467 4.5-5.5s-2.02-5.5-4.5-5.5zM15 4.912c.183 1.738.365 3.67.45 5.164-.144-.046-.293-.078-.45-.078s-.307.03-.45.076c.084-1.49.267-3.424.45-5.162zm-.5 6.586c.003-.278.226-.5.5-.5a.5.5 0 1 1 0 1 .5.5 0 0 1-.499-.496zm-3.5 17.5c-1.93 0-3.5-2.02-3.5-4.5s1.57-4.5 3.5-4.5 3.5 2.02 3.5 4.5-1.57 4.5-3.5 4.5zm1.59-9.638c.374-.98 1.462-3.984 1.804-6.492.186.082.4.13.605.13a1.48 1.48 0 0 0 .606-.131c.342 2.508 1.43 5.51 1.804 6.492-1.044.484-1.903 1.427-2.4 2.63-.507-1.203-1.365-2.145-2.41-2.63zM19 28.998c-1.93 0-3.5-2.02-3.5-4.5s1.57-4.5 3.5-4.5 3.5 2.02 3.5 4.5-1.57 4.5-3.5 4.5z"/></svg>