<svg xmlns="http://www.w3.org/2000/svg" viewBox="0 0 30 30"><path d="M.5 30c-.1 0-.3 0-.4-.1-.2-.2-.2-.5 0-.7L25.9.7c.9-.9 2.5-.9 3.4 0s.9 2.4 0 3.4L.8 29.9c-.1.1-.2.1-.3.1zM27.6 1c-.4 0-.7.1-1 .4L7.7 22.3l20.9-19c.5-.5.5-1.4 0-1.9-.3-.3-.6-.4-1-.4zm-1.9 3.8c-.1 0-.3 0-.4-.1-.2-.2-.2-.5 0-.7l1.3-1.3c.2-.2.5-.2.7 0s.2.5 0 .7L26 4.7s-.2.1-.3.1z"/><path d="M13.7 14.2c-.1 0-.2 0-.3-.1-.2-.1-4.6-3.5-4.6-8 0-4 2.4-6.2 6.8-6.2 2.9 0 6 .2 9.1 2 .2.1.3.4.2.7-.1.2-.4.3-.7.2C21.3 1.2 18.4 1 15.6 1c-2.6 0-5.8.9-5.8 5.2 0 4 4.2 7.1 4.2 7.2.2.2.3.5.1.7-.1.1-.2.1-.4.1zm12 .7c-.3 0-.5-.2-.5-.4 0-.3.2-.5.4-.6 2.2-.3 3.3-1.8 3.3-4.5 0-1.5-1.1-3.4-3-5.3-.2-.2-.2-.5 0-.7s.5-.2.7 0c2.2 2.2 3.3 4.2 3.3 6 .1 3.2-1.4 5.2-4.2 5.5zM14.4 30a.47.47 0 0 1-.5-.5.47.47 0 0 1 .5-.5c7.1 0 9.6-3 9.6-5.8 0-2.1-3.5-4.3-6-5.9-.7-.5-1.4-.9-2-1.3-.2-.2-.3-.5-.1-.7s.5-.3.7-.1c.5.4 1.2.8 1.9 1.3 2.9 1.8 6.5 4.1 6.5 6.7 0 3.1-2.8 6.8-10.6 6.8z"/></svg>