<svg id="Ebene_1" data-name="Ebene 1" xmlns="http://www.w3.org/2000/svg" viewBox="0 0 30 30"><title>Zeichenfläche 1</title><path d="M24.84,3.85a3.4,3.4,0,0,1-1.94.58c-.78-.17-1.07-.56-.92-1.22a1.21,1.21,0,0,1,.2-.46,1.06,1.06,0,0,1,1.15-.25,3.4,3.4,0,0,1,1.51,1.35m1.28.37a.18.18,0,0,0,0-.21c-.3-.53-1.37-2.21-2.58-2.49a2,2,0,0,0-2.16.62A2.06,2.06,0,0,0,21,3a1.92,1.92,0,0,0,1.68,2.41c1.21.27,2.89-.8,3.39-1.15a.1.1,0,0,0,.05,0Z"/><path d="M12.25,13.23a3.37,3.37,0,0,1,.22-2c.46-.65.93-.77,1.48-.38a1.1,1.1,0,0,1,.35.37,1,1,0,0,1-.21,1.15,3.37,3.37,0,0,1-1.84.87m-.83,1a.18.18,0,0,0,.19.09c.6-.07,2.57-.4,3.29-1.42a2,2,0,0,0,.27-2.23,2.17,2.17,0,0,0-.64-.68,1.91,1.91,0,0,0-2.87.61c-.72,1-.39,3-.26,3.57a.14.14,0,0,0,0,.06Z"/><path d="M15.08,26.06A3.36,3.36,0,0,1,13.38,25c-.37-.7-.26-1.18.33-1.49a1.25,1.25,0,0,1,.49-.15q.54,0,.93.72a3.33,3.33,0,0,1-.05,2m.55,1.21a.18.18,0,0,0,.16-.13c.21-.57.81-2.48.23-3.58a2,2,0,0,0-1.87-1.25,2.31,2.31,0,0,0-.9.26,1.93,1.93,0,0,0-.76,2.84c.58,1.1,2.49,1.69,3.07,1.85Z"/><path d="M14.92,2.51a.68.68,0,0,0-.88.33c-.37.73-1.19,2.6-.69,3.92a2.41,2.41,0,0,0,3.26,1.62A2.42,2.42,0,0,0,18,5C17.52,3.69,15.69,2.82,14.92,2.51Zm1.34,4.93a1.45,1.45,0,0,1-2-1,4.43,4.43,0,0,1,.53-2.87,4.48,4.48,0,0,1,2.27,1.82A1.44,1.44,0,0,1,16.26,7.44Z"/><path d="M14.69,5.44a1.58,1.58,0,0,0,.55,1.45.49.49,0,0,0,.7-.11.49.49,0,0,0-.11-.69.64.64,0,0,1-.16-.45.51.51,0,0,0-.39-.59A.49.49,0,0,0,14.69,5.44Z"/><path d="M19.13,16.45a1.38,1.38,0,0,1-2.07,1.6l-.88-.59.34-1a1.37,1.37,0,0,1,2.61,0m-3.24,1.11-.33,1a1.36,1.36,0,0,1-.86.87,1.39,1.39,0,1,1-.9-2.62A1.36,1.36,0,0,1,15,17l.87.58m4.19-1.43a2.38,2.38,0,0,0-4.51,0,2.39,2.39,0,1,0,.93,2.74,2.36,2.36,0,0,0,2.09.28,2.39,2.39,0,0,0,1.49-3Z"/><path d="M21.45,17.82a1.05,1.05,0,0,0,.19.34c1.14,1.5,5.38-.38,6.11-.79A2.5,2.5,0,1,0,25.32,13C24.58,13.44,20.71,16.08,21.45,17.82Zm6.32-3.7A7.28,7.28,0,0,1,24.89,16a.5.5,0,0,0-.26.65.49.49,0,0,0,.65.27,11.31,11.31,0,0,0,2.9-1.73,1.56,1.56,0,0,1-.92,1.32c-1.45.81-4.38,1.64-4.83,1.06l0,0a.34.34,0,0,1,0-.08c-.28-.65,2-2.74,3.44-3.53A1.43,1.43,0,0,1,27.77,14.12Z"/><path d="M28.3,22.32a4.84,4.84,0,0,0-5.52-2.79,4.41,4.41,0,0,0-3.66,4.75v.07l0,.07a4.71,4.71,0,0,0,5.25,2.84c3.63-.76,3.93-4.68,3.93-4.72v-.11Zm-4.11,4A3.73,3.73,0,0,1,20.1,24.1,3.38,3.38,0,0,1,23,20.51a3.75,3.75,0,0,1,4.33,2.08A4.13,4.13,0,0,1,24.19,26.28Z"/><path d="M26.1,22.15c-3.7-.58-5.32,1.11-5.39,1.19a.49.49,0,0,0,0,.7.5.5,0,0,0,.71,0c0-.06,1.37-1.37,4.51-.88a.55.55,0,0,0,.18,0,.5.5,0,0,0,0-1Z"/><path d="M18.26,28.66a1.91,1.91,0,1,1,3-2.39c.42.52.11,1.3-.81,2S18.68,29.18,18.26,28.66Zm2.13-1.82A.9.9,0,0,0,19,28a2.09,2.09,0,0,0,.81-.44A1.94,1.94,0,0,0,20.39,26.84Z"/><path d="M7.28,24.32A1.9,1.9,0,1,1,3.77,25.8c-.26-.61.25-1.28,1.34-1.74S7,23.71,7.28,24.32ZM4.73,25.48a.91.91,0,0,0,1.15.42.92.92,0,0,0,.51-1.12,2.25,2.25,0,0,0-.9.21A2,2,0,0,0,4.73,25.48Z"/><path d="M25.62,9.29a1.91,1.91,0,0,1,2.64-2.75c.48.46.27,1.27-.54,2.12S26.1,9.75,25.62,9.29ZM27.51,7.2a.91.91,0,0,0-1.25,1.31A2.15,2.15,0,0,0,27,8,2.18,2.18,0,0,0,27.51,7.2Z"/><path d="M13.78,29.34l-.23,0a.89.89,0,0,1-.76-.53h0a1.91,1.91,0,1,1,3.53-1.44.9.9,0,0,1-.17.92A3.54,3.54,0,0,1,13.78,29.34Zm-.09-1a2,2,0,0,0,.9-.19,2,2,0,0,0,.77-.48.9.9,0,0,0-.45-.43.92.92,0,0,0-.69,0,.89.89,0,0,0-.5.49A.91.91,0,0,0,13.69,28.33Z"/><path d="M10.51,25.74h.13a3.47,3.47,0,0,1,1.13.19c1.12.38,1.68,1,1.46,1.64h0a1.9,1.9,0,0,1-2.42,1.19,1.85,1.85,0,0,1-1.09-1,1.87,1.87,0,0,1-.1-1.45A.94.94,0,0,1,10.51,25.74Zm1.75,1.59a2,2,0,0,0-.81-.45,1.91,1.91,0,0,0-.9-.13.91.91,0,0,0,1.71.58Zm0-.08Z"/><path d="M19,8.82a2.33,2.33,0,0,1-.62-.46,2.71,2.71,0,0,1-.67-2c.05-1.41,1.5-2.82,2.13-3.37a.69.69,0,0,1,.94,0c.59.59,1.95,2.09,1.91,3.5h0a2.68,2.68,0,0,1-.8,2,2.41,2.41,0,0,1-1.78.62A2.83,2.83,0,0,1,19,8.82Zm1.28-4.89A4.35,4.35,0,0,0,18.7,6.38a1.71,1.71,0,0,0,.39,1.29,1.48,1.48,0,0,0,1.05.42,1.46,1.46,0,0,0,1.06-.35,1.74,1.74,0,0,0,.48-1.27A4.44,4.44,0,0,0,20.27,3.93Zm.22-.19h0Z"/><path d="M10.81,21.54A3.23,3.23,0,0,0,9,21.73a1.69,1.69,0,0,0,.19-.38A2.68,2.68,0,0,0,9,19.24a3.11,3.11,0,0,0-1-1.16,6.18,6.18,0,0,0,1.75-1.31l.07-.08,0-.11A4.83,4.83,0,0,0,7.11,11a4.42,4.42,0,0,0-5.78,1.6l0,.06v.07a4.7,4.7,0,0,0,2.49,5.42,4.76,4.76,0,0,0,.74.27,4.38,4.38,0,0,0,0,2.86A2.72,2.72,0,0,0,6,22.82a2.18,2.18,0,0,0,.76.14,2.47,2.47,0,0,0,.6-.08c.33.62,1.26,2.19,2.4,2.5a2,2,0,0,0,2.19-.51,2.1,2.1,0,0,0,.42-.83A1.93,1.93,0,0,0,10.81,21.54ZM4.89,17.36l-.06.15a4.5,4.5,0,0,1-.64-.23,3.54,3.54,0,0,1-2-3.6h0a5.45,5.45,0,0,1,5.07,1.51.42.42,0,0,0,.15.11A.51.51,0,0,0,8,15.2a.5.5,0,0,0,0-.71,6.38,6.38,0,0,0-5.33-1.9,3.31,3.31,0,0,1,4.06-.65,3.77,3.77,0,0,1,2.22,4.27,5.12,5.12,0,0,1-2,1.24A8.69,8.69,0,0,0,5.74,17,.68.68,0,0,0,4.89,17.36Zm1.44,4.52a1.67,1.67,0,0,1-.93-1A4.34,4.34,0,0,1,5.71,18a4.43,4.43,0,0,1,2.4,1.65A1.76,1.76,0,0,1,8.25,21a1.5,1.5,0,0,1-.8.79A1.45,1.45,0,0,1,6.33,21.88Zm5.07,1.89a1.18,1.18,0,0,1-.22.45,1.07,1.07,0,0,1-1.16.2A3.36,3.36,0,0,1,8.57,23a3.39,3.39,0,0,1,2-.48C11.31,22.72,11.58,23.12,11.4,23.77Z"/></svg>