<?xml version="1.0" encoding="UTF-8"?>
<svg version="1.1" viewBox="0 0 21 23" xmlns="http://www.w3.org/2000/svg" xmlns:xlink="http://www.w3.org/1999/xlink">
    <!--Generated by IJSVG (https://github.com/curthard89/IJSVG)-->
    <g fill="#000" stroke="none">
        <path d="M2.9548,11.7937c-0.709084,0.0094671 -1.38029,-0.318092 -1.81011,-0.88232c-0.428848,-0.565173 -0.565173,-1.29983 -0.366369,-1.98051c0.190288,-0.675954 0.581266,-1.27804 1.12089,-1.72678c0.530153,-0.460088 1.18621,-0.750745 1.88298,-0.833097c0.74883,-0.0880429 1.49199,0.20354 1.98051,0.77818c0.488492,0.574649 0.656057,1.35569 0.448746,2.0799c-0.2007,0.675009 -0.594523,1.27615 -1.13321,1.73056c-0.538684,0.453472 -1.19758,0.740324 -1.89624,0.824566l-0.227208,0.0095004l1.1e-05,6e-07Zm1.06031,-4.42299h-0.157153c-0.999717,0.133485 -1.82998,0.837823 -2.12534,1.80252c-0.121178,0.412756 -0.0217742,0.859611 0.262229,1.18148c0.276431,0.321872 0.696772,0.481876 1.11617,0.424122c0.492273,-0.0615365 0.954275,-0.268869 1.32823,-0.595468c0.375845,-0.309561 0.652276,-0.724231 0.792382,-1.1919c0.124963,-0.403304 0.0359753,-0.843519 -0.237622,-1.16634c-0.236675,-0.297273 -0.599273,-0.465783 -0.978898,-0.454417h2.43e-06l-4.3e-07,3e-06Z"></path>
        <path d="M16.0212,9.67313c-1.26764,0 -1.95399,-1.20705 -1.95399,-2.34309c0,-1.13604 0.686351,-2.3374 1.95872,-2.3374h0.0009468c0.608725,-0.00757361 1.17959,0.295383 1.51472,0.802803c0.302945,0.456307 0.462948,0.992155 0.459143,1.54029c-0.0255613,1.15119 -0.71192,2.3374 -1.97956,2.3374h2.25e-05l-2.3e-06,-3e-06Zm0,-3.67048c-0.692046,0 -0.949549,0.813224 -0.949549,1.32823c0,0.515006 0.257503,1.33296 0.943854,1.33296c0.686351,0 0.943854,-0.81795 0.943854,-1.33296h0.0009467c0.0047334,-0.3408 -0.091831,-0.674039 -0.277376,-0.959946c-0.145791,-0.227208 -0.396663,-0.366369 -0.666478,-0.368259l0.0047487,-2.424e-05l-4e-07,-7.6e-07Z"></path>
        <path d="M5.02427,18.5446c-0.641855,-0.0274541 -1.25155,-0.287797 -1.71636,-0.731793c-0.402359,-0.37015 -0.683515,-0.852025 -0.807529,-1.38407c-0.135377,-0.58032 0.0255612,-1.19096 0.429793,-1.62928c0.404249,-0.439269 0.999717,-0.64944 1.58951,-0.561393c1.10008,0.188393 1.98429,1.01108 2.25221,2.09504c0.140111,0.584125 -0.0208276,1.20041 -0.429793,1.64063c-0.336075,0.372064 -0.81606,0.579375 -1.31781,0.570869h-2.423e-05l3.23e-06,-3e-06Zm-0.798077,-3.31736h0.00094688c-0.220582,-0.0056804 -0.432653,0.0852025 -0.581266,0.247082c-0.168512,0.208276 -0.219635,0.488492 -0.136325,0.742214c0.0814169,0.327568 0.257503,0.624817 0.50553,0.853916c0.378681,0.348386 1.15119,0.716646 1.62075,0.212061c0.16946,-0.197862 0.231942,-0.465783 0.166619,-0.717591c-0.0804693,-0.329458 -0.256558,-0.627652 -0.50553,-0.857721c-0.245191,-0.236675 -0.556667,-0.392883 -0.893686,-0.449691l-0.177042,-0.0302702l3.12e-06,2e-07Z"></path>
        <path d="M12.5979,22.0786c-0.648495,-0.0227209 -1.2667,-0.283071 -1.73626,-0.731793c-0.394773,-0.372064 -0.669313,-0.853916 -0.787656,-1.38312c-0.135377,-0.581266 0.0255612,-1.1919 0.429793,-1.63023c0.404249,-0.438324 0.999717,-0.648495 1.58951,-0.561393c1.10008,0.188393 1.98429,1.01108 2.25221,2.09504c0.140111,0.585071 -0.0208276,1.20041 -0.429793,1.64157c-0.336074,0.371095 -0.81606,0.579375 -1.31781,0.569923l6e-06,3e-06Zm-0.798077,-3.31736h0.0009468c-0.220582,-0.0047335 -0.432653,0.0852025 -0.581266,0.248027c-0.168512,0.208275 -0.219635,0.487547 -0.136325,0.742214c0.0814169,0.327568 0.257503,0.623872 0.505529,0.852971c0.378681,0.348386 1.15119,0.716646 1.62075,0.212061c0.16946,-0.196914 0.231942,-0.464838 0.166619,-0.716646c-0.0804693,-0.329458 -0.256558,-0.628622 -0.505529,-0.858666c-0.245191,-0.236675 -0.556667,-0.392883 -0.893686,-0.449691l-0.177042,-0.0302702l3.2e-06,2e-07Z"></path>
        <path d="M10.7102,5.63428c-1.2468,0 -1.93884,-1.17676 -1.96441,-2.29765c-0.018934,-0.548136 0.131592,-1.08966 0.428848,-1.54974c0.320927,-0.508389 0.874758,-0.820786 1.47495,-0.833097c0.600218,-0.00757361 1.16539,0.278321 1.51472,0.766837c0.313366,0.444941 0.489437,0.971313 0.504584,1.51472c0,1.13604 -0.636183,2.35824 -1.90855,2.38284h-0.0407085l-0.0094349,0.0160924l1.4e-06,-2.4e-06Zm0,-3.67048v-0.00094689c-0.271705,0.00662697 -0.521622,0.151472 -0.661752,0.384352c-0.180819,0.287797 -0.27076,0.623872 -0.257503,0.963751c0,0.504584 0.302944,1.32823 0.974148,1.31308c0.671204,-0.0151472 0.928707,-0.837823 0.919255,-1.35283c-0.0037868,-0.33891 -0.106978,-0.669313 -0.298218,-0.949549c-0.154313,-0.232889 -0.417506,-0.368259 -0.696772,-0.358807l0.0208426,0.00094689l-6e-07,3e-06Z"></path>
        <path d="M10.8209,8.66372c-0.279266,-0.00852049 -0.5453,-0.12023 -0.74694,-0.313366c-0.173245,-0.161886 -0.294414,-0.37015 -0.348386,-0.601163c-0.0653221,-0.288742 0.0160939,-0.590742 0.218687,-0.807529c0.201647,-0.216794 0.497968,-0.318092 0.790491,-0.27265c0.234782,0.0359753 0.453472,0.141058 0.626707,0.302944c0.420342,0.355002 0.478095,0.981734 0.130644,1.40869c-0.160939,0.1723 -0.384352,0.27454 -0.621036,0.283071h-0.0501676l6e-07,3e-06Z"></path>
        <path d="M19.4719,11.7585c-0.282126,-0.0066268 -0.551916,-0.118337 -0.757361,-0.312421c-0.173246,-0.161886 -0.294414,-0.371095 -0.348386,-0.601163c-0.0653221,-0.288742 0.0160939,-0.590742 0.216794,-0.807529c0.18934,-0.18934 0.446855,-0.292523 0.71381,-0.286852c0.266979,0.00568008 0.519732,0.12023 0.700553,0.317147c0.1723,0.160939 0.293468,0.37015 0.348386,0.600218c0.0615365,0.266034 -0.0018935,0.5453 -0.1723,0.757361c-0.170405,0.213009 -0.428848,0.336074 -0.701498,0.333239h2.4e-06h-4e-07Z"></path>
        <path d="M15.9254,19.2329c-0.282126,-0.0075736 -0.551916,-0.119285 -0.757361,-0.313366c-0.1723,-0.161886 -0.293468,-0.37015 -0.348386,-0.601163c-0.0643745,-0.288742 0.0160941,-0.590742 0.217742,-0.807529c0.400444,-0.37679 1.02907,-0.363533 1.41342,0.0302945c0.173245,0.161886 0.294414,0.37015 0.348386,0.601163c0.0653221,0.288742 -0.0160939,0.590742 -0.216794,0.807529c-0.16946,0.182714 -0.40803,0.285907 -0.657002,0.283071h-2.5e-06l-2.5e-06,5e-07Z"></path>
        <path d="M9.6346,17.7521c-0.283071,-0.0075736 -0.552862,-0.119285 -0.757361,-0.313366c-0.173245,-0.161886 -0.294414,-0.37015 -0.348386,-0.601163c-0.0653221,-0.288742 0.0160939,-0.590742 0.216794,-0.807529c0.400444,-0.37679 1.02907,-0.363533 1.41342,0.0302944c0.173245,0.161886 0.294414,0.37015 0.348386,0.601163c0.0653221,0.288742 -0.0160939,0.590742 -0.216794,0.807529c-0.168512,0.182714 -0.407085,0.285907 -0.656057,0.283071l-2e-06,6e-07Z"></path>
        <path d="M8.22392,20.541c-0.282126,-0.0075736 -0.551916,-0.119285 -0.757361,-0.313366c-0.173245,-0.161886 -0.294414,-0.37015 -0.348386,-0.601163c-0.0653221,-0.288742 0.0160939,-0.590742 0.216794,-0.807529c0.401389,-0.37679 1.03001,-0.363533 1.41436,0.0302945c0.1723,0.161886 0.293468,0.37015 0.348386,0.601163c0.0643745,0.288742 -0.0160941,0.590742 -0.217742,0.807529c-0.168512,0.182714 -0.407085,0.285907 -0.656057,0.283071h2.42e-06l3.58e-06,5e-07Z"></path>
        <path d="M6.5087,8.03238h-0.131592c-1.13132,-0.0501749 -2.30238,-0.792382 -2.24652,-2.06002c0.0312421,-0.606834 0.367314,-1.15592 0.893686,-1.45886c0.456307,-0.276431 0.982679,-0.411811 1.51472,-0.389102c1.13604,0.0501749 2.3071,0.787656 2.25221,2.06002c-0.0246136,0.600218 -0.352167,1.14741 -0.868118,1.45413c-0.426958,0.258448 -0.91545,0.394773 -1.41436,0.393828h-3.151e-05l5.51e-06,4e-06Zm-0.0861501,-2.90342h0.00094688c-0.311475,-0.0037868 -0.617255,0.0785765 -0.88421,0.237622c-0.236675,0.133485 -0.388157,0.379626 -0.398554,0.651331c-0.0302944,0.686351 0.772508,0.979844 1.28279,1.01014c0.339855,0.018934 0.67879,-0.0624817 0.974148,-0.232889c0.23573,-0.134432 0.386266,-0.379626 0.398554,-0.651331c0.0302945,-0.692046 -0.772508,-0.98457 -1.28751,-1.01014l-0.0861591,-0.00473321l-5.78e-06,2.1e-07Z"></path>
        <path d="M18.6568,17.5344c-0.648495,-0.0227208 -1.2667,-0.283071 -1.73626,-0.731793c-0.394773,-0.372064 -0.669313,-0.853916 -0.787656,-1.38312c-0.135377,-0.581266 0.0255613,-1.1919 0.429793,-1.63023c0.404249,-0.438324 0.999717,-0.648495 1.58951,-0.561393c1.10008,0.188393 1.98429,1.01108 2.25221,2.09504c0.140111,0.585071 -0.0208276,1.20041 -0.429793,1.64157c-0.336075,0.371095 -0.81606,0.579375 -1.31781,0.569923l6e-06,3e-06Zm-0.798077,-3.31736h0.0009469c-0.220582,-0.0047335 -0.432653,0.0852025 -0.581266,0.248027c-0.168512,0.208275 -0.219635,0.487547 -0.136325,0.742214c0.081417,0.327568 0.257503,0.623872 0.50553,0.852971c0.378681,0.348386 1.15119,0.716646 1.62075,0.212061c0.16946,-0.196914 0.231942,-0.464838 0.166619,-0.716645c-0.0804693,-0.329458 -0.256558,-0.628622 -0.505529,-0.858666c-0.245191,-0.236675 -0.556667,-0.392883 -0.893686,-0.449691l-0.177042,-0.0302702l2.1e-06,-8e-07Z"></path>
        <path d="M13.6383,15.9089c-0.902217,-0.0255613 -1.7618,-0.385297 -2.41313,-1.01014c-0.195966,-0.196914 -0.195966,-0.515006 0,-0.71192c0.094669,-0.0956166 0.223423,-0.148632 0.357862,-0.148632c0.135377,0 0.264119,0.0530153 0.358808,0.148632c0.118337,0.114552 0.247082,0.217742 0.383406,0.308616c0.798077,0.504584 1.92842,0.651331 2.44343,-0.141058l0.0009469,-0.0009469c0.232889,-0.355002 0.265089,-0.805638 0.0852026,-1.19096c-0.197862,-0.453472 -0.526372,-0.836878 -0.943854,-1.10102c-0.595468,-0.389102 -1.51472,-0.610615 -2.12061,-0.181767c-0.108871,0.0889905 -0.248972,0.128751 -0.388157,0.109816c-0.139165,-0.0189341 -0.263174,-0.094669 -0.344605,-0.209221c-0.0804693,-0.114552 -0.109816,-0.257503 -0.081417,-0.394773c0.0293469,-0.137273 0.113604,-0.256558 0.233834,-0.328513c1.01014,-0.707194 2.35255,-0.428848 3.25193,0.161886l-0.0009469,-0.0009468c0.593577,0.37679 1.05842,0.923981 1.33296,1.57059c0.304835,0.706248 0.227208,1.51945 -0.205435,2.15469c-0.433598,0.635238 -1.16161,1.00539 -1.93031,0.980789l-0.0198974,-0.0151147l-1.72e-05,-6.6e-06Z"></path>
        <path d="M10.4828,15.3685c-0.683515,-0.0132537 -1.3481,-0.222475 -1.91611,-0.603053c-0.567064,-0.380571 -1.01392,-0.91545 -1.28562,-1.54218c-0.299164,-0.692046 -0.232889,-1.48821 0.178926,-2.11967c0.411811,-0.632403 1.11236,-1.01581 1.86594,-1.02148c0.702443,-0.0075736 1.39071,0.195966 1.97481,0.586016c0.18934,0.123071 0.366369,0.263174 0.530153,0.419396c0.110764,0.104138 0.167567,0.253722 0.156206,0.405194c-0.0123071,0.15242 -0.091831,0.290633 -0.216794,0.37679c-0.126859,0.0852025 -0.236675,0.193128 -0.323763,0.318092c-0.454417,0.701498 -0.0558557,1.48443 0.47429,1.98429h0.0009469c0.109816,0.104138 0.167567,0.252777 0.156205,0.404249c-0.0113604,0.149579 -0.0889905,0.286852 -0.212061,0.373955c-0.405194,0.281181 -0.889906,0.427903 -1.38312,0.418451l-4.1e-06,-4.85e-05l-4.8e-06,-1.5e-06Zm-1.06598,-4.27636h-0.0605889c-0.424122,-0.0056803 -0.820786,0.20638 -1.05274,0.561393c-0.230994,0.355972 -0.265089,0.804693 -0.0880429,1.19096c0.198807,0.453472 0.529208,0.836878 0.949549,1.10008c0.461978,0.312421 1.01959,0.452526 1.57531,0.393828c-0.608725,-0.781985 -0.663642,-1.86122 -0.136325,-2.70105c0.0302945,-0.0520677 0.0662697,-0.101297 0.106031,-0.146739c-0.385297,-0.250887 -0.833097,-0.389102 -1.29319,-0.398554l-4.85e-06,8.97e-05l1.65e-06,-7.7e-06Z"></path>
    </g>
</svg>