<?xml version="1.0" encoding="UTF-8"?>
<svg viewBox="0 0 30 30" version="1.1" xmlns="http://www.w3.org/2000/svg" xmlns:xlink="http://www.w3.org/1999/xlink">
    <g id="Page-1" stroke="none" stroke-width="1" fill="none" fill-rule="evenodd">
        <g id="Outlines_black-Copy" transform="translate(-420.000000, -114.000000)">
            <g id="Group-3" transform="translate(3.000000, 114.000000)" fill="#000000" fill-rule="nonzero">
                <path d="M433.312441,25.8689915 C439.219824,25.8689915 442.993874,21.7210972 442.993874,14.8982092 C442.993874,8.14310685 439.255127,4.13100848 433.312441,4.13100848 C427.357826,4.13100848 423.631008,8.12151594 423.631008,14.8982092 C423.631008,21.7210972 427.405058,25.8689915 433.312441,25.8689915 Z M433.312441,27 C426.755334,27 422.5,22.3231473 422.5,14.8982092 C422.5,7.51350264 426.715254,3 433.312441,3 C439.898296,3 444.124882,7.53560494 444.124882,14.8982092 C444.124882,22.3231473 439.869548,27 433.312441,27 Z M433.312441,21.9783223 C430.297594,21.9783223 428.471725,19.1870511 428.471725,14.8982092 C428.471725,10.6527107 430.274086,8.02167766 433.312441,8.02167766 C436.350796,8.02167766 438.153157,10.6527107 438.153157,14.8982092 C438.153157,19.1870511 436.327288,21.9783223 433.312441,21.9783223 Z M433.312441,20.8473139 C435.576937,20.8473139 437.022149,18.6379676 437.022149,14.8982092 C437.022149,11.2063683 435.615296,9.15268615 433.312441,9.15268615 C431.009586,9.15268615 429.602733,11.2063683 429.602733,14.8982092 C429.602733,18.6379676 431.047945,20.8473139 433.312441,20.8473139 Z" id="O-Copy-2"></path>
            </g>
            <g id="Slices" transform="translate(0.000000, 114.000000)"></g>
        </g>
    </g>
</svg>