<?xml version="1.0" encoding="UTF-8"?><svg version="1.1" viewBox="0 0 30 30" xmlns="http://www.w3.org/2000/svg" xmlns:xlink="http://www.w3.org/1999/xlink"><g fill="#000"><path d="M15.5,7c-0.276,0 -0.5,-0.224 -0.5,-0.5v-3.478c0,-0.063 0.012,-0.125 0.035,-0.184l1,-2.522c0.103,-0.257 0.394,-0.382 0.649,-0.281c0.257,0.102 0.382,0.393 0.28,0.649l-0.964,2.434v3.382c0,0.276 -0.224,0.5 -0.5,0.5Z"></path><path d="M17.5,7h-4c-0.276,0 -0.5,-0.224 -0.5,-0.5c0,-0.276 0.224,-0.5 0.5,-0.5h4c0.276,0 0.5,0.224 0.5,0.5c0,0.276 -0.224,0.5 -0.5,0.5Z"></path><path d="M20.5,30h-10c-0.276,0 -0.5,-0.224 -0.5,-0.5v-15c0,-2.467 1.659,-4.63 4,-5.292v-2.708c0,-0.276 0.224,-0.5 0.5,-0.5h2c0.276,0 0.5,0.224 0.5,0.5v2.708c2.341,0.663 4,2.826 4,5.292v15c0,0.276 -0.224,0.5 -0.5,0.5Zm-9.5,-1h9v-14.5c0,-2.131 -1.514,-3.986 -3.6,-4.409c-0.233,-0.047 -0.4,-0.252 -0.4,-0.49v-2.601h-1v2.601c0,0.238 -0.167,0.443 -0.4,0.49c-2.086,0.423 -3.6,2.278 -3.6,4.409v14.5Z"></path><path d="M12.5,28c-0.276,0 -0.5,-0.224 -0.5,-0.5v-13c0,-1.658 1.177,-3.1 2.799,-3.43c0.264,-0.051 0.534,0.12 0.59,0.391c0.055,0.271 -0.12,0.535 -0.391,0.59c-1.158,0.235 -1.998,1.265 -1.998,2.449v13c0,0.276 -0.224,0.5 -0.5,0.5Z"></path></g></svg>