<?xml version="1.0" encoding="UTF-8"?><svg version="1.1" viewBox="0 0 30 29" xmlns="http://www.w3.org/2000/svg" xmlns:xlink="http://www.w3.org/1999/xlink"><!--Generated by IJSVG (https://github.com/curthard89/IJSVG)--><g transform="matrix(1,0,0,1,-30,-30)"><g transform="matrix(1,0,0,1,30,30)"><path fill="#000" stroke="none" d="M18.118,6.85871c-3.03161,0.657899 -5.02546,3.31048 -5.2526,6.7193c-0.257121,3.83933 0.749762,7.8257 3.04412,10.7994c0.644928,0.835872 1.35579,1.48446 2.12626,1.96973c1.49795,0.94348 2.79587,1.17174 4.83411,1.1701c0.0458134,-3.72e-05 0.0458134,-3.72e-05 0.0906488,-4.96e-05c1.24979,0 3.06196,-1.76141 4.41825,-4.34622c1.76007,-3.35424 1.4347,-9.50139 -1.71159,-13.2826c-2.65772,-3.19436 -4.49898,-3.74385 -6.9633,-3.1671c0.0469419,-0.0109863 -0.458051,0.109672 -0.585902,0.137453Zm-0.204911,-0.943464c0.116346,-0.0253391 0.608032,-0.142818 0.570789,-0.134101c2.80881,-0.657376 5.02559,0.00418566 7.92553,3.48967c3.40963,4.09766 3.75725,10.6651 1.82435,14.3487c-1.50777,2.8735 -3.55472,4.86312 -5.27321,4.86312c-0.0441714,1.23e-05 -0.0441714,1.23e-05 -0.0898713,4.93e-05c-2.20573,0.0017762 -3.65875,-0.253766 -5.34945,-1.31865c-0.866948,-0.546045 -1.66225,-1.27167 -2.37612,-2.1969c-2.44943,-3.17463 -3.51498,-7.39327 -3.24307,-11.4535c0.254157,-3.81435 2.53086,-6.84323 6.01105,-7.59841Z"></path><g transform="matrix(1,0,0,1,14.7347,3.70772)"><g transform="matrix(0.996195,-0.0871557,0.0871557,0.996195,0,0)"><path fill="#000" stroke="none" d="M12.4265,0.824981c0.0213486,0.00915099 0.0213486,0.00915099 0.0423988,0.0182433c0.195754,0.0846429 0.271674,0.113042 0.291163,0.113042c0.153495,0 0.252139,0.0582936 0.318987,0.170105c0.0060752,0.012799 0.0118338,0.0159684 0.0443584,0.0242224c0.240112,0.0609392 0.412972,0.219212 0.49424,0.40055c0.547048,0.221042 1.24135,0.618712 1.92428,1.18463c1.08558,0.899576 1.95051,2.06763 2.47497,3.53199l0.0882138,0.246302l-1.05277,0.21375l-0.0723527,-0.170108c-0.789238,-1.85557 -2.70474,-3.67314 -4.14707,-3.86001l-0.115628,-0.0503916c-0.133603,-0.110974 -0.356312,-0.280229 -0.615965,-0.448873c-0.145456,-0.0944732 -0.285843,-0.177025 -0.417695,-0.244191c-0.0627344,-0.0319575 -0.122999,-0.060147 -0.18044,-0.0842914l-0.133519,-0.0561228l-0.0050814,-0.144746c-0.0025904,-0.137616 0.0128367,-0.29926 0.0638907,-0.462544c0.0666836,-0.213271 0.183345,-0.382142 0.367583,-0.475659c0.16364,-0.0831101 0.308444,-0.0435331 0.63044,0.0941068Z" transform="matrix(1,0,0,1,-14.7347,-3.70772)"></path></g></g><path fill="#000" stroke="none" d="M9.24523,7.81566c-3.33132,3.56447 -4.11195,4.55161 -5.38195,7.02152c-1.58311,3.07622 -2.33615,6.39027 -1.65007,7.86664c1.56269,0.109637 2.87874,-1.40863 5.28125,-5.72016c1.62851,-2.92459 4.18578,-9.67515 5.00443,-12.6015c-0.616071,0.625215 -1.6309,1.69713 -3.25366,3.43346Zm4.34657,-3.80055c-0.611391,2.58869 -3.46057,10.2179 -5.25386,13.4384c-2.73645,4.9108 -4.23424,6.55164 -6.50772,6.17621l-0.214186,-0.035369l-0.115675,-0.183701c-1.10671,-1.75755 -0.300489,-5.50806 1.50434,-9.01514c1.32139,-2.56984 2.147,-3.61388 5.53513,-7.23913c3.42289,-3.66245 4.03197,-4.28401 4.45612,-4.43878c0.0055222,-0.00201124 0.10195,-0.0841232 0.218564,-0.211838c0.0506238,-0.0554425 0.104278,-0.117771 0.160067,-0.18567c0.161037,-0.195993 0.590941,0.783345 0.217224,1.695Z"></path><path fill="#000" stroke="none" d="M11.0467,3.42233c-0.84062,0.141377 -1.76509,0.363069 -2.8228,0.697326c-2.56382,0.80995 -4.19075,2.02272 -6.15122,4.07373c-0.442325,0.461729 -0.725892,0.975974 -0.862918,1.4769c-0.0356692,0.130396 -0.0591417,0.253383 -0.0709803,0.36078c0.222161,-0.0153136 0.532061,-0.0738199 0.910962,-0.177231c0.684011,-0.187859 3.0031,-1.62398 6.09094,-3.7153c1.53413,-1.03843 2.81674,-2.08781 3.54527,-2.81058c-0.208364,0.0264554 -0.416504,0.0569168 -0.639252,0.094379Zm1.81328,0.0536661c-0.645236,0.786207 -2.21958,2.13642 -4.17798,3.46203c-3.23969,2.19417 -5.53545,3.61585 -6.3773,3.84705c-0.991009,0.270473 -1.63417,0.309628 -1.94964,-0.0031676c-0.489361,-0.485221 -0.0317428,-2.15814 1.02003,-3.25606c2.0624,-2.15765 3.80622,-3.45755 6.55791,-4.32685c1.1008,-0.347873 2.06897,-0.580046 2.95356,-0.728818c0.326594,-0.0549271 0.623862,-0.0956922 0.931865,-0.13051c0.121135,-0.0136935 0.500636,-0.0526657 0.565922,-0.0607024c0.0605609,-0.00745497 0.0993342,-0.0137607 0.11677,-0.0180967c0.0731321,-0.0181917 0.240324,-0.0936779 0.450796,-0.20581c0.0659954,-0.0354344 0.0659954,-0.0354344 0.131846,-0.0717576c0.218095,-0.121008 0.42081,-0.242927 0.547864,-0.322689l0.521922,1.44998l-0.23537,0.0955155c-0.0881273,0.0357629 -0.228234,0.0862865 -0.399075,0.136669c-0.160475,0.0473255 -0.318626,0.0850676 -0.471216,0.10967c-0.0642985,0.0103667 -0.126921,0.0182979 -0.187906,0.0235459Z"></path></g></g></svg>