<?xml version="1.0" encoding="UTF-8"?><svg version="1.1" viewBox="0 0 30 30" xmlns="http://www.w3.org/2000/svg" xmlns:xlink="http://www.w3.org/1999/xlink"><path d="M24.357,5.641c-3.899,-3.684 -9.007,-5.789 -13.657,-5.654c-3.087,0.095 -5.698,1.194 -7.552,3.176c-2.14,2.288 -3.276,5.711 -3.115,9.39c0.195,4.466 2.252,8.775 5.646,11.823c4.141,3.719 8.89,5.643 13.098,5.643c3.132,0 5.964,-1.067 8.019,-3.254c5.077,-5.404 3.96,-15.078 -2.439,-21.124Zm1.711,20.439c-4.433,4.719 -12.911,3.668 -19.72,-2.448c-3.194,-2.87 -5.132,-6.924 -5.315,-11.123c-0.149,-3.413 0.888,-6.57 2.846,-8.664c1.668,-1.783 4.037,-2.772 6.852,-2.859c0.132,-0.004 0.265,-0.006 0.399,-0.006c4.23,0 8.997,2.04 12.541,5.387c6.005,5.676 7.103,14.703 2.397,19.713Zm-4.201,-18.929c-0.195,-0.195 -0.512,-0.195 -0.707,0c-0.195,0.195 -0.195,0.512 0,0.707c3.149,3.149 4.724,7.738 4.854,10.668c0.012,0.269 0.233,0.478 0.499,0.478h0.022c0.276,-0.012 0.49,-0.246 0.478,-0.521c-0.169,-3.811 -2.286,-8.471 -5.146,-11.332Zm-12.219,-4.055c-1.351,0.124 -2.761,0.743 -3.97,1.742c-1.21,0.999 -2.084,2.267 -2.461,3.57c-0.397,1.372 -0.205,2.624 0.542,3.528c0.657,0.796 1.662,1.221 2.865,1.221c0.162,0 0.327,-0.007 0.496,-0.023c1.351,-0.124 2.761,-0.743 3.97,-1.742c1.21,-0.999 2.084,-2.267 2.461,-3.57c0.397,-1.372 0.205,-2.624 -0.541,-3.528c-0.746,-0.904 -1.94,-1.332 -3.362,-1.198Zm2.944,4.449c-0.322,1.112 -1.081,2.205 -2.137,3.077c-1.056,0.872 -2.272,1.411 -3.425,1.517c-1.084,0.103 -1.97,-0.198 -2.5,-0.839c-0.53,-0.641 -0.655,-1.569 -0.352,-2.613c0.322,-1.112 1.081,-2.205 2.137,-3.077c1.056,-0.872 2.272,-1.412 3.425,-1.518c0.137,-0.013 0.271,-0.019 0.401,-0.019c0.9,0 1.636,0.298 2.099,0.859c0.53,0.641 0.655,1.569 0.352,2.613Z" fill="#000"></path></svg>