<?xml version="1.0" encoding="UTF-8"?><svg version="1.1" viewBox="0 0 30 30" xmlns="http://www.w3.org/2000/svg" xmlns:xlink="http://www.w3.org/1999/xlink"><path d="M27.31,12.937c-0.687,-0.693 -1.404,-1.361 -2.117,-2.027c-3.185,-2.97 -6.193,-5.774 -6.193,-10.409c0,-0.202 -0.122,-0.385 -0.309,-0.462c-0.187,-0.079 -0.401,-0.036 -0.545,0.108l-1.015,1.022c-0.003,0.004 -0.007,0.006 -0.01,0.01l-0.022,0.022c-0.145,0.193 -0.33,0.277 -0.542,0.277c-0.39,-0.01 -0.849,-0.314 -1.141,-0.754c-0.186,-0.279 -0.647,-0.279 -0.833,0c-0.292,0.44 -0.751,0.743 -1.141,0.754c-0.216,0.011 -0.398,-0.085 -0.589,-0.332l-1,-1c-0.143,-0.143 -0.357,-0.186 -0.545,-0.108c-0.187,0.077 -0.308,0.26 -0.308,0.462c0,4.635 -3.008,7.44 -6.192,10.409c-0.714,0.666 -1.43,1.334 -2.117,2.027c-1.735,1.751 -2.691,4.081 -2.691,6.564c0,4.624 3.402,8.704 7.922,9.494l5.465,0.867c0.534,0.092 1.072,0.139 1.609,0.139c0.001,0 0.003,0 0.004,0c0,0 0.001,0 0.001,0c0,0 0.001,0 0.001,0c0.537,0 1.073,-0.046 1.605,-0.138l5.48,-0.869c4.512,-0.788 7.913,-4.868 7.913,-9.492c0,-2.481 -0.954,-4.812 -2.69,-6.564Zm-14.417,-10.559c0.027,0.009 0.054,0.02 0.081,0.028c-0.233,4.55 -1.009,7.153 -1.99,10.4l-0.102,0.338c-0.569,1.89 -0.882,4.147 -0.882,6.363c0,0.455 0.016,0.905 0.041,1.351c0.001,0.024 0.002,0.047 0.004,0.071c0.026,0.435 0.063,0.862 0.11,1.282c0.004,0.034 0.008,0.068 0.012,0.102c0.1,0.854 0.242,1.67 0.421,2.42c0.003,0.013 0.006,0.026 0.009,0.039c0.087,0.361 0.183,0.704 0.285,1.031c0.012,0.039 0.024,0.078 0.037,0.116c0.103,0.318 0.211,0.619 0.327,0.898c0.01,0.025 0.022,0.049 0.032,0.074c0.12,0.282 0.245,0.546 0.376,0.781c0.001,0.002 0.002,0.004 0.003,0.006c0.129,0.23 0.265,0.429 0.404,0.608c0.012,0.015 0.023,0.037 0.035,0.052l-1.603,-0.429c-2.562,-0.685 -4.493,-4.3 -4.493,-8.414c0,-2.206 0.577,-4.313 1.624,-5.935c0.344,-0.533 0.696,-1.054 1.046,-1.574c1.834,-2.72 3.706,-5.545 4.223,-9.608Zm6.618,25.531l-1.553,0.416c0.013,-0.015 0.023,-0.036 0.035,-0.051c0.152,-0.186 0.296,-0.395 0.43,-0.627c0.012,-0.02 0.024,-0.037 0.035,-0.058c0.137,-0.245 0.263,-0.516 0.381,-0.803c0.017,-0.042 0.034,-0.082 0.051,-0.124c0.115,-0.291 0.22,-0.598 0.317,-0.923c0.011,-0.038 0.022,-0.076 0.032,-0.114c0.201,-0.7 0.362,-1.464 0.482,-2.263c0.001,-0.009 0.003,-0.018 0.004,-0.027c0.06,-0.401 0.109,-0.81 0.149,-1.223c0.002,-0.024 0.005,-0.049 0.007,-0.073c0.039,-0.416 0.069,-0.834 0.089,-1.253c0,-0.002 0,-0.005 0,-0.007c0.02,-0.43 0.032,-0.859 0.032,-1.282c0,-2.21 -0.313,-4.467 -0.883,-6.357l-0.102,-0.337c-0.981,-3.245 -1.756,-5.848 -1.99,-10.393c0.028,-0.008 0.054,-0.018 0.082,-0.028c0.519,4.06 2.39,6.882 4.222,9.602c0.35,0.519 0.702,1.041 1.046,1.574c1.047,1.622 1.624,3.729 1.624,5.941c0.002,4.109 -1.93,7.724 -4.49,8.41Zm-4.512,-26.13c0.304,0.292 0.658,0.498 1.023,0.608c0.233,4.714 1.029,7.379 2.035,10.708l0.102,0.337c0.542,1.8 0.84,3.954 0.84,6.075c0,3.947 -0.831,7.356 -2.005,8.384c-0.078,0.068 -0.158,0.126 -0.239,0.173l-1.538,0.869c-0.075,0.043 -0.141,0.063 -0.207,0.065c-0.002,0 -0.003,0.001 -0.005,0.002c-0.001,0 -0.001,0 -0.002,0c-0.068,0 -0.139,-0.021 -0.219,-0.067l-1.532,-0.866c-1.064,-0.61 -2.249,-4.276 -2.249,-8.566c0,-2.114 0.298,-4.269 0.84,-6.068l0.102,-0.337c1.006,-3.33 1.802,-5.995 2.035,-10.709c0.364,-0.112 0.717,-0.317 1.019,-0.608Zm-13.999,17.716c0,-2.212 0.853,-4.291 2.401,-5.854c0.678,-0.684 1.385,-1.344 2.089,-2c2.953,-2.753 5.998,-5.593 6.452,-9.997l0.033,0.033c-0.371,4.144 -2.196,6.872 -4.134,9.75c-0.354,0.525 -0.709,1.051 -1.057,1.59c-1.151,1.782 -1.784,4.082 -1.784,6.484c0,3.744 1.445,7.041 3.607,8.591l-0.521,-0.083c-4.041,-0.706 -7.086,-4.364 -7.086,-8.514Zm20.922,8.513l-0.525,0.083c2.162,-1.549 3.607,-4.848 3.607,-8.597c0,-2.396 -0.634,-4.696 -1.784,-6.478c-0.349,-0.538 -0.703,-1.065 -1.057,-1.59c-1.939,-2.877 -3.763,-5.605 -4.134,-9.746l0.03,-0.03c0.456,4.401 3.5,7.24 6.451,9.992c0.704,0.657 1.411,1.316 2.089,2c1.547,1.563 2.401,3.644 2.401,5.86c0,4.144 -3.047,7.801 -7.078,8.506Z" fill="#000"></path></svg>