<svg xmlns="http://www.w3.org/2000/svg" viewBox="0 0 30 30"><path d="M15.1 19c-.7 0-1.3-.2-1.9-.6L3 11.4c-.2-.2-.3-.5-.1-.7s.5-.3.7-.1l10.3 7a2.25 2.25 0 0 0 2.7 0l10.3-7c.2-.2.5-.1.7.1s.1.5-.1.7l-10.3 7c-.7.4-1.4.6-2.1.6zM27 29H3c-1.7 0-3-1.3-3-3V11.1c0-1 .5-2 1.4-2.5l11.8-7c1.1-.8 2.7-.8 3.9 0l11.5 7c.9.6 1.4 1.5 1.4 2.5V26c0 1.7-1.3 3-3 3zM15.1 2c-.5 0-1 .1-1.4.4l-11.8 7c-.6.4-.9 1-.9 1.7V26c0 1.1.9 2 2 2h24c1.1 0 2-.9 2-2V11.1c0-.7-.3-1.3-.9-1.7l-11.5-7c-.5-.3-1-.4-1.5-.4zM3.3 26.5a.76.76 0 0 1-.4-.2c-.2-.2-.1-.5.1-.7l7.5-6.3c.2-.2.5-.1.7.1s.1.5-.1.7l-7.5 6.3c-.1.1-.2.1-.3.1zm23.7 0c-.1 0-.2 0-.3-.1l-7.5-6.3c-.2-.2-.2-.5-.1-.7.2-.2.5-.2.7-.1l7.5 6.3c.2.2.2.5.1.7a.76.76 0 0 1-.4.2z"/></svg>