<svg xmlns="http://www.w3.org/2000/svg" viewBox="0 0 30 30">
  <path d="M18.6007233,29.9460839 C16.7543183,29.7722057 15.7074619,29.4183269 14.8373825,28.6744467 C14.0669466,28.0205667 12.9144441,26.4853571 12.1326033,25.0820867 C11.9915418,24.8243306 11.8621854,24.6143299 11.8387752,24.6143299 C11.8210674,24.6143299 11.7211239,24.9740251 11.6094752,25.4120879 C11.3741726,26.3656628 10.8216317,28.2608737 10.7273906,28.4408744 C10.6451548,28.5966913 10.3687342,28.7528143 10.1805522,28.7528143 C9.95725484,28.7528143 9.81467215,28.6686303 9.7441414,28.4408744 C9.67931313,28.2550574 9.76138862,27.9192398 10.0495142,26.9595425 C10.5729425,25.1962708 11.2608424,22.2216681 11.2608424,21.7236051 C11.2608424,21.6277884 11.0215188,21.6758498 10.7390957,21.6458497 C6.18791144,21.136154 2.33633218,18.2873681 0.796060635,14.2988843 C0.590170869,13.7591884 0.349165793,12.8233687 0.249222218,12.1697949 C0.143276026,11.4739761 0.160983747,10.0107055 0.284637659,9.29100896 C1.08448639,4.61282872 5.06512191,0.924652067 10.19856,0.102710308 C10.6925754,0.0246488001 11.2039984,-0.00535130879 12.1332035,0.000771162406 C13.5621265,0.000771162406 14.2617316,0.0846490179 15.5141776,0.414650216 C21.5819231,1.99792127 24.7098869,7.69518684 22.8049563,13.6869433 C22.5462435,14.4847013 21.9054642,15.8279715 21.4291565,16.5537904 C19.8648745,18.9345133 17.471631,20.6739074 14.790262,21.3755426 C14.1785953,21.5313595 13.2613954,21.6755437 12.8382109,21.6755437 C12.661734,21.6755437 12.4795545,21.6994213 12.4384366,21.7236051 C12.4030212,21.7536052 12.3207853,22.0474838 12.2619597,22.3833014 L12.1560135,22.9949362 L12.2736648,22.9949362 C13.0498032,22.9949362 15.3371004,23.2526923 16.2897157,23.4446318 C17.983054,23.7923881 18.7594925,24.1882059 20.423418,25.5556598 C21.2877949,26.2634175 22.9931384,27.882505 23.5516819,28.5183236 C23.9925741,29.0280194 24.0574024,29.1841424 23.9337485,29.4899598 C23.7983895,29.8077161 23.6102074,29.8738388 22.6813024,29.9457778 C21.7580999,30.018023 19.3531514,30.018023 18.6007233,29.9460839 Z M22.7385206,29.163995 C22.8350247,29.101492 21.1094833,27.5455226 20.0548315,26.6339014 C18.3056129,25.1171371 17.3884433,24.6271406 15.1698341,24.28657 C14.2051214,24.1406112 12.81334,24.03786 12.7680422,24.0726629 C12.6909046,24.1422685 14.0627022,26.2237754 14.6801314,27.0515856 C15.8378522,28.5893026 16.7271716,28.892675 19.3639652,29.163995 C19.8399207,29.2197506 22.6679479,29.212648 22.7385206,29.163995 Z M11.475717,20.4932462 C11.48765,20.4689894 11.5237549,20.1825725 11.5476209,19.8594593 L11.5895393,19.274497 L10.7826385,19.274497 C10.540451,19.274497 10.3579865,18.9850904 10.3579865,18.6826477 C10.3579865,18.380205 10.5904694,18.2180023 10.7826385,18.1928253 C10.9107513,18.1760406 11.2273946,18.1683895 11.7325683,18.169872 C12.7637003,18.169872 12.931374,18.1882201 13.0393828,18.2796496 C13.3692226,18.5477185 13.2555657,18.8347273 13.1351526,19.0351448 C13.0529887,19.1718999 12.8775226,19.2422607 12.8114322,19.2422607 C12.7034235,19.2422607 12.685371,19.2910853 12.6495721,19.5955393 C12.6315196,19.7843071 12.6015342,20.0769437 12.5776682,20.2414546 L12.5476828,20.54 L13.0393828,20.4973951 C16.6599718,20.192941 19.7952863,17.9628695 21.3358648,14.5995695 C22.4208482,12.2416832 22.6007609,9.40861221 21.8214454,7.08120241 C21.6057338,6.4415068 21.0840483,5.42396473 20.700357,4.89404673 C19.7291959,3.55961121 18.2305358,2.45095061 16.5161641,1.7991266 C14.2920399,0.958223861 11.3247051,0.824189438 8.92709372,1.45175664 C5.5102833,2.3473927 2.75866011,4.76623201 1.7217146,7.79429042 C1.34414282,8.87869421 1.26,9.4577478 1.26,10.8344772 C1.26611948,11.9677056 1.27805246,12.144345 1.42186019,12.7660035 C2.38108833,16.872557 6.14045032,19.8843381 10.7621859,20.4755201 C11.3380288,20.5479795 11.4399181,20.5479795 11.475717,20.4932462 Z" transform="matrix(1 0 0 -1 3 30)"/>
</svg>
