<?xml version="1.0" encoding="UTF-8"?>
<svg viewBox="0 0 30 30" version="1.1" xmlns="http://www.w3.org/2000/svg" xmlns:xlink="http://www.w3.org/1999/xlink">
    <g id="Page-1" stroke="none" stroke-width="1" fill="none" fill-rule="evenodd">
        <g id="Outlines_black-Copy" transform="translate(-450.000000, -114.000000)">
            <g id="Group-3" transform="translate(3.000000, 114.000000)" fill="#000000" fill-rule="nonzero">
                <path d="M459.540976,25.8292683 L459.540976,19.1795122 C459.540976,18.8562236 459.803053,18.5941463 460.126341,18.5941463 L462.584878,18.5941463 C467.677184,18.5941463 471.13122,15.9226659 471.13122,11.1717073 C471.13122,6.36447848 467.971569,4.17073171 462.44439,4.17073171 L454.670732,4.17073171 L454.670732,25.8292683 L459.540976,25.8292683 Z M460.711707,26.4146341 C460.711707,26.7379228 460.44963,27 460.126341,27 L454.085366,27 C453.762077,27 453.5,26.7379228 453.5,26.4146341 L453.5,3.58536585 C453.5,3.26207722 453.762077,3 454.085366,3 L462.44439,3 C468.546246,3 472.301951,5.60758774 472.301951,11.1717073 C472.301951,16.6445293 468.267561,19.764878 462.584878,19.764878 L460.711707,19.764878 L460.711707,26.4146341 Z M460.126341,14.9882927 C459.803053,14.9882927 459.540976,14.7262155 459.540976,14.4029268 L459.540976,8.36195122 C459.540976,8.03866259 459.803053,7.77658537 460.126341,7.77658537 L462.163415,7.77658537 C464.900456,7.77658537 466.401463,8.85477394 466.401463,11.1717073 C466.401463,13.5989823 464.945995,14.9882927 462.303902,14.9882927 L460.126341,14.9882927 Z M462.303902,13.817561 C464.311287,13.817561 465.230732,12.9399091 465.230732,11.1717073 C465.230732,9.6004923 464.321409,8.94731707 462.163415,8.94731707 L460.711707,8.94731707 L460.711707,13.817561 L462.303902,13.817561 Z" id="P-Copy-2"></path>
            </g>
            <g id="Slices" transform="translate(0.000000, 114.000000)"></g>
        </g>
    </g>
</svg>