<svg xmlns="http://www.w3.org/2000/svg" viewBox="0 0 30 30"><path d="M23.1 13.8A6.91 6.91 0 0 0 30 6.9 6.91 6.91 0 0 0 23.1 0a6.91 6.91 0 0 0-6.899 6.9c0 1.9-1.828 3.073-2.578 3.48L9.12 5.88C8.555 5.312 7.802 5 7 5 5.346 5 4 6.346 4 8c0 .8.313 1.554.88 2.12l5.186 5.186L9.04 16.33C8.37 16.125 7.687 16 7 16a7.01 7.01 0 0 0-7 7 7.01 7.01 0 0 0 7 7 7.01 7.01 0 0 0 7.001-7c0-.688-.125-1.37-.33-2.04l1.023-1.023 5.186 5.186A2.98 2.98 0 0 0 22 26c1.654 0 3-1.346 3-3 0-.8-.313-1.554-.88-2.12l-4.5-4.5c.407-.75 1.59-2.578 3.48-2.578zM7 29a6.01 6.01 0 0 1-6-6 6.01 6.01 0 0 1 6-6c.41 0 .82.06 1.227.146l-1.27 1.268c-.2.2-.356.422-.493.654C4.503 19.335 3 20.998 3 23c0 2.206 1.794 4 4 4 2.002 0 3.664-1.502 3.93-3.464a3.32 3.32 0 0 0 .656-.494l1.27-1.27c.087.406.145.816.145 1.227a6.01 6.01 0 0 1-6 6zm-.042-5.958A3.25 3.25 0 0 0 9.272 24c.186 0 .367-.023.547-.053C9.42 25.14 8.307 26 7 26c-1.654 0-3-1.346-3-3 0-1.308.86-2.42 2.054-2.82-.17 1 .127 2.084.904 2.862zm3.92-.707c-.858.858-2.355.858-3.214 0-.886-.886-.886-2.328 0-3.214l3.107-3.107 3.214 3.214-3.107 3.107zm12.535-.75c.378.378.586.88.586 1.414 0 1.103-.897 2-2 2-.534 0-1.036-.208-1.414-.586l-15-15C5.208 9.036 5 8.534 5 8c0-1.103.897-2 2-2 .534 0 1.036.208 1.414.586l4.666 4.666c.043.073.1.13.17.17l5.326 5.326a.49.49 0 0 0 .175.175l4.662 4.662zm-4.53-5.943l-4.527-4.527c1.017-.598 2.843-1.98 2.843-4.216 0-3.254 2.646-5.9 5.9-5.9A5.91 5.91 0 0 1 29 6.9a5.91 5.91 0 0 1-5.9 5.9c-2.234 0-3.617 1.826-4.215 2.843zM23.6 2.5a.5.5 0 0 0-.5-.5c-2.7 0-4.9 2.198-4.9 4.9a.5.5 0 1 0 1 0c0-2.15 1.75-3.9 3.9-3.9a.5.5 0 0 0 .5-.5z"/></svg>