<svg xmlns="http://www.w3.org/2000/svg" viewBox="0 0 30 30"><path d="M15 0C9.486 0 5 4.467 5 9.957V11.5a.5.5 0 0 0 .5.5H6v16.5A1.5 1.5 0 0 0 7.5 30h15a1.5 1.5 0 0 0 1.5-1.5V12h.5a.5.5 0 0 0 .5-.5V9.957C25 4.466 20.514 0 15 0zm8 28.5a.5.5 0 0 1-.5.5h-15a.5.5 0 0 1-.5-.5V13.03c1.8.15 3 1.1 3 2.47 0 .797-.21 1.258-.455 1.792C9.3 17.85 9 18.485 9 19.5c0 2.322.84 3.5 2.5 3.5 1.59 0 2.5-1.276 2.5-3.5 0-.868-.32-1.765-.604-2.557-.204-.568-.396-1.105-.396-1.443 0-3.32 2.963-4.5 5.5-4.5H23v17.5zM12.454 17.28c.256.715.546 1.526.546 2.22 0 1.14-.26 2.5-1.5 2.5-.742 0-1.5-.297-1.5-2.5 0-.797.21-1.258.455-1.792.255-.56.545-1.193.545-2.208 0-1.926-1.627-3.293-4-3.465V11h7.53c-1.49.88-2.53 2.354-2.53 4.5 0 .512.2 1.1.454 1.78zM24 10.5a.5.5 0 0 0-.5-.5h-17a.5.5 0 0 0-.5.5v-.543C6 5.018 10.037 1 15 1s9 4.02 9 8.957v.543z"/></svg>