<svg xmlns="http://www.w3.org/2000/svg" viewBox="0 0 30 30"><path d="M27 5h-1V2.5C26 1.122 24.88 0 23.5 0h-21C1.12 0 0 1.122 0 2.5v6C0 9.878 1.12 11 2.5 11h21c1.38 0 2.5-1.122 2.5-2.5V6h1c1.103 0 2 .897 2 2v4c0 1.103-.897 2-2 2H15.5c-1.738 0-3 1.157-3 2.75V17h-1a1.5 1.5 0 0 0-1.5 1.5v10a1.5 1.5 0 0 0 1.5 1.5h3a1.5 1.5 0 0 0 1.5-1.5v-10a1.5 1.5 0 0 0-1.5-1.5h-1v-.25c0-1.202 1.037-1.75 2-1.75H27c1.654 0 3-1.346 3-3V8c0-1.654-1.346-3-3-3zm-2 3.5a1.5 1.5 0 0 1-1.5 1.5h-21A1.5 1.5 0 0 1 1 8.5v-6A1.5 1.5 0 0 1 2.5 1h21A1.5 1.5 0 0 1 25 2.5v6zM14.5 18a.5.5 0 0 1 .5.5v10a.5.5 0 0 1-.5.5h-3a.5.5 0 0 1-.5-.5v-10a.5.5 0 0 1 .5-.5h3z"/></svg>