<?xml version="1.0" encoding="UTF-8"?><svg version="1.1" viewBox="0 0 30 30" xmlns="http://www.w3.org/2000/svg" xmlns:xlink="http://www.w3.org/1999/xlink"><g fill="#000"><path d="M16.5,12c-0.243,0 -0.454,-0.177 -0.493,-0.421c-0.042,-0.258 0.123,-0.504 0.377,-0.565l12.37,-2.975c0.038,-0.009 0.077,-0.014 0.117,-0.014c0.632,-1.77636e-15 1.129,0.648 1.129,1.475c0,0.827 -0.497,1.475 -1.13,1.475l-12.328,1.023c-0.015,0.002 -0.029,0.002 -0.042,0.002Zm12.365,-2.959l-5.921,1.424l5.884,-0.488c0.059,-0.021 0.172,-0.196 0.172,-0.477c0,-0.239 -0.082,-0.401 -0.135,-0.459Z"></path><path d="M12.5,22h-8c-2.481,0 -4.5,-2.019 -4.5,-4.5v-7c0,-1.978 5.56,-2.5 8.5,-2.5c2.94,0 8.5,0.522 8.5,2.5v7c0,2.481 -2.019,4.5 -4.5,4.5Zm-4,-13c-4.872,0 -7.5,1.064 -7.5,1.5v7c0,1.93 1.57,3.5 3.5,3.5h8c1.93,0 3.5,-1.57 3.5,-3.5v-7c0,-0.436 -2.628,-1.5 -7.5,-1.5Z"></path><path d="M8.5,13c-2.94,0 -8.5,-0.522 -8.5,-2.5c0,-1.978 5.56,-2.5 8.5,-2.5c2.94,0 8.5,0.522 8.5,2.5c0,1.978 -5.56,2.5 -8.5,2.5Zm0,-4c-4.872,0 -7.5,1.064 -7.5,1.5c0,0.436 2.628,1.5 7.5,1.5c4.872,0 7.5,-1.064 7.5,-1.5c0,-0.436 -2.628,-1.5 -7.5,-1.5Z"></path></g></svg>