<?xml version="1.0" encoding="utf-8"?>
<!-- Generator: Adobe Illustrator 23.0.1, SVG Export Plug-In . SVG Version: 6.00 Build 0)  -->
<svg version="1.1" id="Layer_1" xmlns="http://www.w3.org/2000/svg" xmlns:xlink="http://www.w3.org/1999/xlink" x="0px" y="0px"
	 viewBox="0 0 30 30" style="enable-background:new 0 0 30 30;" xml:space="preserve">
<path d="M20.8,9.6c0.2-1.2,0.4-2.2,0.5-2.9l0-0.1c0-3.5-2.8-6.3-6.3-6.3c-3.5,0-6.3,2.8-6.3,6.4C8.8,7.5,9,8.5,9.2,9.6
	c-1.5,0.4-2.6,1.7-2.6,3.3v4.4c0,1.6,1.1,2.9,2.6,3.3c-0.2,1-0.4,2.1-0.5,3c0,3.5,2.8,6.3,6.3,6.3c3.5,0,6.3-2.8,6.3-6.4
	c-0.2-0.9-0.3-1.9-0.5-2.9c1.4-0.4,2.4-1.7,2.4-3.2v-4.4C23.2,11.3,22.2,10,20.8,9.6z M9.3,19.4c-1-0.3-1.7-1.2-1.7-2.3v-4.4
	c0-1,0.7-1.9,1.6-2.2C9.3,11.1,10,14.7,10,15C10,15.2,9.4,18.8,9.3,19.4z M15,28.7c-2.9,0-5.3-2.4-5.3-5.2c0.1-0.7,1.2-7,1.3-8.4
	c0-0.1,0-0.1,0-0.2c0-0.1,0-0.1,0-0.2c-0.1-1.4-1.2-7.6-1.3-8.2c0-2.9,2.4-5.3,5.3-5.3c2.9,0,5.3,2.4,5.3,5.3
	c-0.1,0.5-1.4,8.3-1.4,8.4c0,0.2,1.3,8.2,1.4,8.5C20.3,26.4,17.9,28.7,15,28.7z M22.2,17.2c0,1-0.7,1.9-1.6,2.2
	c-0.4-2.1-0.7-4.1-0.7-4.5c0-0.5,0.3-2.3,0.6-4.2c0-0.1,0-0.1,0-0.2c1,0.3,1.6,1.2,1.6,2.2V17.2z"/>
<g>
	<path d="M15,3.8c0.6,0,1.1,0.2,1.6,0.5c0.2,0.2,0.5,0.1,0.7-0.1c0.2-0.2,0.1-0.5-0.1-0.7C16.5,3,15.8,2.8,15,2.8
		c-1.9,0-3.5,1.4-3.9,3.4c-0.1,0.3,0.1,0.5,0.4,0.6c0,0,0.1,0,0.1,0c0.2,0,0.4-0.2,0.5-0.4C12.4,4.9,13.6,3.8,15,3.8z"/>
</g>
</svg>
