<svg xmlns="http://www.w3.org/2000/svg" viewBox="0 0 30 30"><path d="M15,0C6.7,0,0,6.7,0,15s6.7,15,15,15s15-6.7,15-15S23.3,0,15,0z M15,29C7.3,29,1,22.7,1,15S7.3,1,15,1s14,6.3,14,14 S22.7,29,15,29z M15,3C8.4,3,3,8.4,3,15s5.4,12,12,12s12-5.4,12-12S21.6,3,15,3z M15,26C8.9,26,4,21.1,4,15S8.9,4,15,4 s11,4.9,11,11S21.1,26,15,26z"/><path d="M14.5.6h1v3.1h-1zm0 25.8h1v3.1h-1zM.6 14.5h3.1v1H.6zm25.8 0h3.1v1h-3.1zM4.426 5.096l.707-.707 2.192 2.19-.707.707zM22.674 23.42l.707-.707 2.192 2.192-.707.707zM4.388 24.867l2.192-2.192.707.707-2.192 2.192zm18.324-18.25l2.192-2.192.707.707-2.192 2.192zM1.452 9.903l.383-.924L4.7 10.165l-.383.924zm23.85 9.932l.383-.924 2.864 1.186-.383.924zM8.98 28.166l1.186-2.864.924.383-1.186 2.864zm9.93-23.85l1.186-2.864.924.383-1.186 2.864zM1.414 20.044l2.864-1.186.383.924-2.864 1.186zm23.926-9.826l2.864-1.186.383.924-2.864 1.186zm-6.482 15.505l.924-.383 1.186 2.864-.924.383zM9.032 1.796l.924-.383 1.186 2.864-.924.383zM8.2 19.1c-.2 0-.3-.1-.4-.2a7.87 7.87 0 0 1-1.2-4.2 8.24 8.24 0 0 1 8.2-8.2 8.49 8.49 0 0 1 3.8.9c.2.1.3.4.2.7s-.4.3-.7.2c-1-.5-2.1-.8-3.3-.8a7.17 7.17 0 0 0-7.2 7.2c0 1.3.3 2.6 1 3.7.1.2.1.5-.2.7h-.2z"/></svg>