<?xml version="1.0" encoding="UTF-8"?><svg version="1.1" viewBox="0 0 30 30" xmlns="http://www.w3.org/2000/svg" xmlns:xlink="http://www.w3.org/1999/xlink"><g fill="#000"><path d="M10,30c-1.5,0 -4.4,-1.5 -7.5,-11.2c-1,-3.4 -1.5,-5.8 -1.5,-7.4c0.1,-5.9 4.1,-7.4 6.1,-7.4c2,0 3.7,1.6 3.7,1.6c0.2,0.2 0.2,0.5 0,0.7c-0.2,0.2 -0.5,0.2 -0.7,0c0,0 -1.4,-1.4 -3,-1.4c-1.7,0 -5,1.3 -5.1,6.4c0,1.5 0.5,3.8 1.5,7.1c3.1,10.1 6,10.6 6.5,10.6c0.7,0 1.8,-0.8 2.2,-1.1c0.2,-0.2 0.5,-0.2 0.7,0.1c0.2,0.2 0.2,0.5 -0.1,0.7c-0.1,0.1 -1.6,1.3 -2.8,1.3Z"></path><path d="M20,30c-1.2,0 -2.7,-1.2 -2.8,-1.4c-0.2,-0.2 -0.2,-0.5 -0.1,-0.7c0.1,-0.2 0.5,-0.2 0.7,-0.1c0.5,0.4 1.6,1.1 2.2,1.1c0.5,0 3.4,-0.5 6.5,-10.5c1,-3.3 1.5,-5.6 1.5,-7.1c-0.1,-5 -3.4,-6.3 -5.1,-6.3c-1.6,0 -3,1.3 -3,1.4c-0.2,0.2 -0.5,0.2 -0.7,0c-0.2,-0.2 -0.2,-0.5 0,-0.7c0,-0.1 1.7,-1.7 3.7,-1.7c2.1,0 6,1.5 6.1,7.4c0,1.6 -0.5,4.1 -1.5,7.4c-3.1,9.7 -6,11.2 -7.5,11.2Z"></path><path d="M15.1,30c-2.5,0 -4.8,-3.8 -5.1,-4.2c-0.1,-0.2 -0.1,-0.5 0.2,-0.7c0.2,-0.1 0.5,-0.1 0.7,0.2c0.6,1 2.6,3.8 4.2,3.8c1.7,0 2.9,-2.1 3.9,-3.6l0.1,-0.1c0.1,-0.2 0.5,-0.3 0.7,-0.2c0.2,0.1 0.3,0.5 0.2,0.7l-0.1,0.1c-1,1.5 -2.6,4 -4.8,4Z"></path><path d="M15.5,5c-0.3,0 -0.5,-0.2 -0.5,-0.5c0,-1.5 -0.5,-3.5 -1.5,-3.5c-0.3,0 -0.5,-0.2 -0.5,-0.5c0,-0.3 0.2,-0.5 0.5,-0.5c1.8,0 2.5,2.7 2.5,4.5c0,0.3 -0.2,0.5 -0.5,0.5Z"></path><path d="M20.8,10.6c-0.3,0 -0.5,-0.2 -0.5,-0.5c0,-2.8 -2.3,-5.1 -5.2,-5.1c-2.9,0 -5.1,2.3 -5.1,5.1c0,0.3 -0.2,0.5 -0.5,0.5c-0.3,0 -0.5,-0.2 -0.5,-0.5c0,-3.4 2.7,-6.1 6.1,-6.1c3.4,0 6.1,2.7 6.1,6.1c0.1,0.3 -0.2,0.5 -0.4,0.5Z"></path></g></svg>