<?xml version="1.0" encoding="UTF-8"?><svg version="1.1" viewBox="0 0 30 30" xmlns="http://www.w3.org/2000/svg" xmlns:xlink="http://www.w3.org/1999/xlink"><g fill="#000"><path d="M0.5,30c-0.102,0 -0.203,-0.031 -0.288,-0.091c-0.133,-0.094 -0.212,-0.246 -0.212,-0.409v-11c0,-0.14 0.058,-0.272 0.161,-0.367l13,-12c0.203,-0.187 0.521,-0.175 0.707,0.028c0.188,0.203 0.175,0.52 -0.028,0.707l-12.84,11.851v10.071l27,-9.643v-10.147c0,-0.276 0.224,-0.5 0.5,-0.5c0.276,0 0.5,0.224 0.5,0.5v10.5c0,0.211 -0.133,0.399 -0.332,0.471l-28,10c-0.055,0.019 -0.111,0.029 -0.168,0.029Z"></path><path d="M0.5,19c-0.205,0 -0.397,-0.127 -0.47,-0.331c-0.094,-0.26 0.041,-0.546 0.301,-0.64l25,-9c0.259,-0.096 0.546,0.041 0.64,0.301c0.094,0.26 -0.041,0.546 -0.301,0.64l-25,9c-0.057,0.02 -0.114,0.03 -0.17,0.03Z"></path><path d="M0.5,24c-0.206,0 -0.398,-0.127 -0.471,-0.332c-0.093,-0.26 0.042,-0.546 0.303,-0.639l28,-10c0.257,-0.094 0.546,0.042 0.639,0.303c0.093,0.26 -0.042,0.546 -0.303,0.639l-28,10c-0.055,0.019 -0.112,0.029 -0.168,0.029Z"></path><path d="M26.5,10c-1.505,0 -2.791,-0.95 -3.279,-2.298c-0.618,0.51 -1.398,0.798 -2.221,0.798c-1.505,0 -2.791,-0.95 -3.279,-2.298c-0.618,0.51 -1.398,0.798 -2.221,0.798c-1.93,0 -3.5,-1.57 -3.5,-3.5c0,-1.93 1.57,-3.5 3.5,-3.5c1.505,0 2.791,0.95 3.279,2.298c0.618,-0.51 1.398,-0.798 2.221,-0.798c1.505,0 2.791,0.95 3.279,2.298c0.618,-0.51 1.398,-0.798 2.221,-0.798c1.93,0 3.5,1.57 3.5,3.5c0,1.93 -1.57,3.5 -3.5,3.5Zm-2.987,-3.87c0.044,0 0.088,0.006 0.132,0.018c0.209,0.057 0.358,0.244 0.368,0.46c0.058,1.342 1.151,2.392 2.487,2.392c1.378,0 2.5,-1.122 2.5,-2.5c0,-1.378 -1.122,-2.5 -2.5,-2.5c-0.846,0 -1.629,0.427 -2.094,1.142c-0.119,0.183 -0.341,0.267 -0.551,0.21c-0.209,-0.057 -0.358,-0.244 -0.368,-0.46c-0.058,-1.342 -1.151,-2.392 -2.487,-2.392c-0.846,0 -1.629,0.427 -2.094,1.142c-0.119,0.183 -0.34,0.267 -0.551,0.21c-0.209,-0.057 -0.358,-0.244 -0.368,-0.46c-0.058,-1.342 -1.151,-2.392 -2.487,-2.392c-1.378,0 -2.5,1.122 -2.5,2.5c0,1.378 1.122,2.5 2.5,2.5c0.846,0 1.629,-0.427 2.094,-1.142c0.118,-0.183 0.341,-0.266 0.551,-0.21c0.209,0.057 0.358,0.244 0.368,0.46c0.058,1.342 1.151,2.392 2.487,2.392c0.846,0 1.629,-0.427 2.094,-1.142c0.094,-0.145 0.253,-0.228 0.419,-0.228Z"></path></g></svg>