<svg xmlns="http://www.w3.org/2000/svg" viewBox="0 0 30 30"><path d="M14.5 7a.47.47 0 0 1-.5-.5c0-.8-.5-1.3-.9-1.6s-.8-.9-1.6-.9a.47.47 0 0 1-.5-.5.47.47 0 0 1 .5-.5c.8 0 1.3-.5 1.6-.9s.9-.8.9-1.6a.47.47 0 0 1 .5-.5.47.47 0 0 1 .5.5c0 .8.5 1.3.9 1.6s.8.9 1.6.9a.47.47 0 0 1 .5.5.47.47 0 0 1-.5.5c-.8 0-1.3.5-1.6.9s-.9.8-.9 1.6a.47.47 0 0 1-.5.5zm-1.4-3.5c.3.2.6.5.8.6s.4.4.6.8c.2-.3.5-.6.6-.8s.4-.4.8-.6c-.3-.2-.6-.5-.8-.6s-.4-.4-.6-.8c-.2.3-.5.6-.6.8s-.5.4-.8.6zM3.5 29a.47.47 0 0 1-.5-.5c0-1.4-.2-2-.4-2.1S1.9 26 .5 26a.47.47 0 0 1-.5-.5.47.47 0 0 1 .5-.5c1.4 0 2-.2 2.1-.4s.4-.7.4-2.1a.47.47 0 0 1 .5-.5.47.47 0 0 1 .5.5c0 1.4.2 2 .4 2.1s.7.4 2.1.4a.47.47 0 0 1 .5.5.47.47 0 0 1-.5.5c-1.4 0-2 .2-2.1.4s-.4.7-.4 2.1a.47.47 0 0 1-.5.5zm-.3-3.5c.1 0 .1.1.2.1s.1.1.1.2c0-.1.1-.1.1-.2s.1-.1.2-.1c-.1 0-.1-.1-.2-.1s-.1-.1-.1-.2c0 .1-.1.1-.1.2s-.1.1-.2.1zM25.5 24a.47.47 0 0 1-.5-.5c0-1.5-.4-2.2-.8-2.5-.4-.5-1.2-1-2.7-1a.47.47 0 0 1-.5-.5.47.47 0 0 1 .5-.5c1.2 0 2.1-.3 2.7-.9s.8-1.4.8-2.6a.47.47 0 0 1 .5-.5.47.47 0 0 1 .5.5c0 1.2.3 2.1.9 2.6.6.6 1.4.9 2.6.9a.47.47 0 0 1 .5.5.47.47 0 0 1-.5.5c-1.1 0-2 .3-2.6.9-.4.4-.9 1-.9 2.5 0 .3-.2.6-.5.6zm-1.6-4.5a4.31 4.31 0 0 1 1 .7c.3.3.5.5.6.8.2-.3.4-.6.6-.8.3-.3.6-.5.9-.7-.4-.2-.7-.4-1-.7s-.5-.5-.6-.9l-.6.9c-.2.3-.5.5-.9.7zm-1.8-6.8c-.1 0-.3-.1-.4-.1-1-1-3-1.6-5.2-1.6a.47.47 0 0 1-.5-.5v-4a.47.47 0 0 1 .5-.5c4.1 0 7.5 2.1 7.5 4.5 0 .9-.8 1.5-1.4 2l-.2.1c-.1.1-.2.1-.3.1zM17 10c2.1.1 4 .7 5.1 1.6.4-.3.9-.7.9-1.1 0-1.6-2.5-3.3-6-3.5v3z"/><path d="M11.5 30a.47.47 0 0 1-.5-.5v-4c0-1.4 1.9-1.7 3.9-2l1.7-.3c.3-.1.5.1.6.4s-.1.5-.4.6l-1.7.3c-1.2.2-3 .5-3 1v2.7c.7-.4 1.8-.6 2.9-.8 1.9-.4 4.1-.7 4.1-1.9V22a.47.47 0 0 1 .5-.5c.3 0 .4.2.4.5v3.5c0 2-2.6 2.5-4.9 2.9-1.3.2-3.1.6-3.1 1.1a.47.47 0 0 1-.5.5zm1.3-10.7c-.1 0-.2 0-.3-.1l-.2-.1c-.6-.5-1.3-1-1.3-2.1 0-2.5 3.1-3.1 6.1-3.7 1.8-.4 3.7-.7 4.6-1.5.2-.2.5-.1.7.1s.1.5-.1.7c-1.2.9-3.1 1.3-5.1 1.7-2.5.5-5.2 1-5.2 2.7 0 .5.3.8.8 1.2 1.1-.6 2.8-.9 4.5-1.3 2.8-.5 5.7-1.1 5.7-2.9v-3.5a.47.47 0 0 1 .5-.5.47.47 0 0 1 .5.5V14c0 2.6-3.3 3.3-6.5 3.9-1.7.3-3.5.7-4.4 1.3-.1 0-.2.1-.3.1z"/><path d="M16.6 24.2l-.7-.1c-2.1-.4-4.9-.9-4.9-3.6V17a.47.47 0 0 1 .5-.5.47.47 0 0 1 .5.5v3.5c0 1.7 1.7 2.2 4.1 2.6l.6.1h.1c1.4-.3 2.3-.5 2.3-1.2 0-.8-1.2-1.2-3-1.6-1.3-.3-2.6-.6-3.5-1.2-.2-.2-.3-.5-.1-.7s.5-.3.7-.1c.7.5 2 .8 3.1 1.1 1.9.4 3.8.9 3.8 2.6 0 1.5-1.6 1.9-3.1 2.2l-.2.1c-.1-.2-.1-.2-.2-.2zM6.5 17a.47.47 0 0 1-.5-.5C6 11.9 5.1 11 .5 11a.47.47 0 0 1-.5-.5.47.47 0 0 1 .5-.5C5.1 10 6 9.1 6 4.5a.47.47 0 0 1 .5-.5.47.47 0 0 1 .5.5c0 4.7.8 5.5 5.5 5.5a.47.47 0 0 1 .5.5.47.47 0 0 1-.5.5c-4.7 0-5.5.8-5.5 5.5a.47.47 0 0 1-.5.5zm-2.1-6.5c1 .4 1.7 1 2.1 2.1.4-1 1-1.7 2-2.1-1-.4-1.7-1-2-2.1a3.62 3.62 0 0 1-2.1 2.1z"/></svg>