<svg id="Layer_1" data-name="Layer 1" xmlns="http://www.w3.org/2000/svg" viewBox="0 0 30 30"><title>Zeichenfläche 1</title><path d="M25.41.36H4.53A1.5,1.5,0,0,0,3,1.86V5.58a.69.69,0,0,0,.7.69h.18V28.19a1.07,1.07,0,0,0,1,1H25A1.07,1.07,0,0,0,26,28.17V6.27h.18a.7.7,0,0,0,.7-.69V1.86A1.5,1.5,0,0,0,25.41.36ZM25,28.24h0l-20-.08,0-21.9H25l0,21.9A.07.07,0,0,1,25,28.24Zm.95-23H25V2.85a.5.5,0,0,0-1,0V5.27h-.91V2.85a.5.5,0,0,0-.5-.5.5.5,0,0,0-.5.5V5.27H21.2V2.85a.5.5,0,0,0-.5-.5.5.5,0,0,0-.5.5V5.27h-.91V2.85a.5.5,0,0,0-.5-.5.5.5,0,0,0-.5.5V5.27h-.91V2.85a.5.5,0,0,0-1,0V5.27h-.91V2.85a.5.5,0,0,0-.5-.5.5.5,0,0,0-.5.5V5.27h-.92V2.85a.5.5,0,0,0-.5-.5.5.5,0,0,0-.5.5V5.27h-.91V2.85a.5.5,0,0,0-.5-.5.5.5,0,0,0-.5.5V5.27H9.73V2.85a.5.5,0,1,0-1,0V5.27H7.82V2.85a.5.5,0,0,0-.5-.5.5.5,0,0,0-.5.5V5.27H5.9V2.85a.5.5,0,0,0-.5-.5.5.5,0,0,0-.5.5V5.27H4V1.86a.5.5,0,0,1,.5-.5H25.41a.5.5,0,0,1,.5.5Z"/><path d="M21.55,9.77H8.38a.71.71,0,0,0-.7.71V23.64a.7.7,0,0,0,.7.7H21.55a.7.7,0,0,0,.7-.7V10.48A.71.71,0,0,0,21.55,9.77Zm-.3,13.57H8.68V10.77H21.25Z"/></svg>