<?xml version="1.0" encoding="UTF-8"?><svg version="1.1" viewBox="0 0 30 29" xmlns="http://www.w3.org/2000/svg" xmlns:xlink="http://www.w3.org/1999/xlink"><!--Generated by IJSVG (https://github.com/curthard89/IJSVG)--><g transform="matrix(1,0,0,1,-270,0)"><g transform="matrix(1,0,0,1,270.269,0)"><path fill="#000" stroke="none" d="M27.5815,14.8552c-0.037906,-0.037906 -0.0743563,-0.0743564 -0.0743563,-0.0743564l-0.037906,-0.037906c-2.31377,-2.23942 -6.34503,-2.16508 -9.03197,-2.12715h-0.521935c-0.373237,0 -0.746475,-0.148713 -1.04536,-0.411158c-0.260975,-0.260975 -0.409703,-0.634205 -0.409703,-1.00744v-0.521935c0.0379059,-2.68701 0.0743563,-6.75634 -2.12715,-9.03197l-0.037906,-0.037906l-0.037906,-0.037906l-0.037906,-0.037906l-0.0379059,-0.037906c-1.11971,-1.04536 -3.35914,-1.86619 -4.3665,-0.858744c-0.335331,0.335331 -0.260975,0.820824 -0.224525,0.971014c0,0.148713 -0.0743563,0.224525 -0.112262,0.260975c-0.0743563,0.0743563 -0.224525,0.112262 -0.335331,0.0743563c-1.11971,-0.373237 -1.97846,-0.298881 -2.42604,0.186619c-0.373237,0.335331 -0.298881,0.933093 -0.224525,1.30633c0.037906,0.148713 -0.0743563,0.260975 -0.112262,0.298881c-0.037906,0.037906 -0.148713,0.112262 -0.260975,0.0743563c-1.00744,-0.260975 -1.67957,-0.186619 -2.09073,0.224525c-0.411158,0.411158 -0.485507,1.08179 -0.186619,2.09073c0.037906,0.148713 -0.037906,0.224525 -0.0743563,0.260975c-0.037906,0.037906 -0.148713,0.112262 -0.298881,0.112262c-0.411158,-0.0743563 -0.971014,-0.112262 -1.30633,0.224525c-0.485507,0.485507 -0.521935,1.30633 -0.186619,2.42604c0.037906,0.112262 0,0.224525 -0.0743563,0.335331c-0.037906,0.037906 -0.112262,0.112262 -0.260975,0.112262c-0.148713,-0.037906 -0.672126,-0.0743563 -0.971014,0.224525c-1.04536,1.04536 -0.148713,3.28479 0.895172,4.40457l0.037906,0.037906l0.037906,0.037906l0.037906,0.037906c2.31377,2.23942 6.34503,2.16508 9.03197,2.12715h0.521935c0.411158,0 0.746475,0.148713 1.04536,0.411158c0.260975,0.260975 0.447586,0.634205 0.411158,1.04536v0.521935c-0.037906,2.68701 -0.0743564,6.75634 2.12715,9.03197l0.037906,0.037906l0.335331,-0.298881l-0.298881,0.335331l0.335331,-0.335331l-0.298881,0.335331l0.037906,0.0379059c0.746475,0.708554 2.05281,1.30633 3.09817,1.30633c0.485507,0 0.933093,-0.148713 1.26841,-0.447586c0.335331,-0.335331 0.260975,-0.820824 0.224525,-0.971014c0,-0.148713 0.0743563,-0.224525 0.112262,-0.260975c0.0743564,-0.0743563 0.224525,-0.112262 0.335331,-0.0743563c1.11971,0.373237 1.97846,0.298881 2.42604,-0.186619c0.335331,-0.373237 0.298881,-0.933093 0.224525,-1.30633c-0.037906,-0.148713 0.0743563,-0.260975 0.112262,-0.298881c0.037906,-0.037906 0.148713,-0.112262 0.260975,-0.0743563c1.00744,0.260975 1.67957,0.186619 2.09073,-0.224525c0.411158,-0.411158 0.485507,-1.08179 0.186619,-2.09073c-0.037906,-0.148713 0.0379059,-0.224525 0.0743563,-0.260975c0.037906,-0.037906 0.148713,-0.112262 0.298881,-0.112262c0.411158,0.0743563 0.971014,0.112262 1.30633,-0.224525c0.485507,-0.485507 0.521935,-1.30633 0.186619,-2.42604c-0.037906,-0.112262 0,-0.224525 0.0743563,-0.335331c0.037906,-0.0379059 0.112262,-0.112262 0.260975,-0.112262c0.148713,0.037906 0.672126,0.0743564 0.971014,-0.224525c1.0089,-0.971014 0.188078,-3.21044 -0.857289,-4.3303c-0.0379059,-0.037906 -0.0379059,-0.037906 -0.0379059,-0.0743563l-5.23e-05,6.72e-05Zm0.262431,3.76895h-0.224525c-0.411158,-0.0379059 -0.820824,0.112262 -1.08179,0.447586c-0.260975,0.335331 -0.373237,0.784396 -0.224525,1.19406c0.224525,0.708554 0.260975,1.30633 0.0743564,1.49295c0,0 -0.112262,0.0743564 -0.521935,0c-0.411158,-0.0743563 -0.858745,0.0743564 -1.11971,0.373237c-0.298881,0.298881 -0.373237,0.746475 -0.260975,1.11971c0.260975,0.933093 0.0743564,1.15763 0.037906,1.19406c-0.037906,0.037906 -0.260975,0.224525 -1.19406,-0.037906c-0.411158,-0.112262 -0.820824,0 -1.11971,0.298881c-0.298881,0.298881 -0.447586,0.708554 -0.373237,1.11971c0.0743564,0.411158 0,0.521935 0.037906,0.521935c-0.186619,0.186619 -0.784396,0.186619 -1.49295,-0.0379059c-0.411158,-0.148713 -0.858745,-0.037906 -1.19406,0.224525c-0.335331,0.260975 -0.485507,0.672126 -0.447586,1.08179v0.224525c-0.521935,0.447586 -2.16508,-0.037906 -3.09817,-0.933093l-0.037906,-0.037906c-1.97846,-2.01488 -1.94054,-5.85945 -1.90411,-8.39784v-0.521935c0,-0.634205 -0.224525,-1.23198 -0.708554,-1.71749c-0.447586,-0.447586 -1.04536,-0.708554 -1.67957,-0.708554h-0.037906h-0.521935c-2.53831,0.037906 -6.38311,0.0743564 -8.39784,-1.90411l-0.037906,-0.037906c-0.895172,-0.933093 -1.38068,-2.61266 -0.933093,-3.09817h0.224525c0.411158,0.037906 0.820824,-0.112262 1.08179,-0.447586c0.260968,-0.335324 0.373237,-0.784396 0.224525,-1.19406c-0.224525,-0.708554 -0.260975,-1.30633 -0.0743563,-1.49295c0,0 0.112262,-0.0743563 0.521935,0c0.411158,0.0743563 0.858744,-0.0743563 1.11971,-0.373237c0.298881,-0.298881 0.373237,-0.746475 0.260975,-1.11971c-0.260975,-0.933093 -0.0743563,-1.15763 -0.037906,-1.19406c0.037906,-0.037906 0.260975,-0.224525 1.19406,0.037906c0.411158,0.112262 0.820824,0 1.11971,-0.298881c0.298888,-0.298881 0.447586,-0.708554 0.373237,-1.11971c-0.0743563,-0.411158 0,-0.521935 -0.037906,-0.521935c0.186619,-0.186619 0.784396,-0.186619 1.49295,0.037906c0.411158,0.148713 0.858744,0.037906 1.19406,-0.224525c0.335331,-0.260975 0.485507,-0.672126 0.447586,-1.08179v-0.224525c0.521935,-0.447586 2.16508,0.037906 3.09817,0.933093v0.037906c1.97846,2.01488 1.94054,5.85945 1.90411,8.39784v0.521935c0,0.634205 0.224525,1.23198 0.708554,1.71749c0.447586,0.447586 1.04536,0.708554 1.71749,0.708554h0.521935c2.53831,-0.037906 6.38311,-0.0743563 8.39784,1.90411l0.0379059,0.037906c0.933093,0.934549 1.4186,2.5762 0.971014,3.09817h-2.98e-05Z"></path><path fill="#000" stroke="none" d="M19.0732,15.7883c-0.559856,-0.559856 -1.30633,-0.933093 -2.09073,-1.08179l-1.23198,-0.224525c-0.559856,-0.112262 -0.971014,-0.521935 -1.04536,-1.08179l-0.148713,-1.00744c-0.148713,-0.858745 -0.521935,-1.64165 -1.11971,-2.23942l-1.53087,-1.53087c-0.186619,-0.186619 -0.485507,-0.186619 -0.634205,0c-0.186619,0.186619 -0.186619,0.485507 0,0.634205l1.53087,1.53087c0.447586,0.447586 0.746475,1.04536 0.858745,1.71749l0.148713,1.00744c0,0.112262 0.0379059,0.186619 0.0743563,0.298881c-0.0743563,-0.037906 -0.186619,-0.0743563 -0.298881,-0.0743563l-1.26841,-0.225984c-0.634205,-0.112262 -1.19406,-0.411158 -1.60522,-0.858745l-1.4186,-1.4186c-0.186619,-0.186619 -0.485507,-0.186619 -0.634205,0c-0.186619,0.186619 -0.186619,0.485507 0,0.634205l1.4186,1.4186c0.559856,0.559856 1.30633,0.933093 2.09073,1.08179l1.23198,0.224525c0.559856,0.112262 0.971014,0.521935 1.04536,1.08179l0.148713,1.00744c0.148713,0.858745 0.521935,1.64165 1.11971,2.23942l1.53087,1.53087c0.0743564,0.0743564 0.224525,0.148713 0.335331,0.148713c0.112262,0 0.224525,-0.037906 0.335331,-0.148713c0.186619,-0.186619 0.186619,-0.485507 0,-0.634205l-1.53087,-1.53087c-0.447586,-0.447586 -0.746475,-1.04536 -0.858745,-1.71749l-0.148713,-1.00744c0,-0.112262 -0.037906,-0.186619 -0.0743564,-0.298881c0.0743564,0.037906 0.186619,0.0743563 0.298881,0.0743563l1.23198,0.224525c0.634205,0.112262 1.19406,0.411158 1.60522,0.858744l1.4186,1.4186c0.0743564,0.0743564 0.224525,0.148713 0.335331,0.148713c0.112262,0 0.224525,-0.037906 0.335331,-0.148713c0.186619,-0.186619 0.186619,-0.485507 0,-0.634205l-1.45509,-1.41714Z"></path></g></g></svg>