<?xml version="1.0" encoding="UTF-8"?><svg version="1.1" viewBox="0 0 30 30" xmlns="http://www.w3.org/2000/svg" xmlns:xlink="http://www.w3.org/1999/xlink"><path d="M2.498,22.015c-1.378,0 -2.5,1.122 -2.5,2.5c0,1.378 1.122,2.5 2.5,2.5c1.378,0 2.5,-1.122 2.5,-2.5c0,-1.378 -1.122,-2.5 -2.5,-2.5Zm0,4c-0.827,0 -1.5,-0.673 -1.5,-1.5c0,-0.827 0.673,-1.5 1.5,-1.5c0.827,0 1.5,0.673 1.5,1.5c0,0.827 -0.673,1.5 -1.5,1.5Zm26.24,-22.736c-0.915,-0.476 -2.061,-0.361 -2.953,0.28l-24.443,7.981c-0.763,0.249 -1.251,0.936 -1.245,1.751c0.007,0.801 0.499,1.469 1.292,1.712l3.904,0.868c-0.157,0.321 -0.253,0.678 -0.253,1.06c0,0.778 0.381,1.474 0.992,1.925l-0.34,0.263c-0.568,0.438 -0.781,1.1 -0.555,1.725c0.252,0.698 0.987,1.172 1.787,1.172c0.024,0 0.049,0 0.073,-0.001l4.035,-0.001c8.788,-0.594 16.758,-7.482 18.967,-16.476c0.045,-0.981 -0.427,-1.825 -1.261,-2.259Zm-22.734,11.725l-4.36,-0.967c-0.503,-0.155 -0.546,-0.616 -0.547,-0.754c-0.003,-0.295 0.142,-0.658 0.555,-0.793l21.767,-7.108l-5.007,3.88c-0.428,-0.719 -1.174,-1.183 -2.023,-1.183c-1.318,0 -2.391,1.084 -2.391,2.417c0,0.629 0.252,1.211 0.681,1.659l-0.72,0.558c-0.415,-0.754 -1.19,-1.237 -2.071,-1.237c-1.318,0 -2.391,1.084 -2.391,2.417c0,0.658 0.27,1.265 0.726,1.714l-0.569,0.441c-0.354,-0.91 -1.229,-1.534 -2.224,-1.534c-0.535,-1.77636e-15 -1.026,0.187 -1.426,0.49Zm11.62,-5.131l-2.151,1.667c-0.298,-0.27 -0.474,-0.642 -0.474,-1.045c0,-0.781 0.624,-1.417 1.391,-1.417c0.531,0.001 0.999,0.314 1.234,0.795Zm-4.479,3.471l-2.117,1.641c-0.329,-0.268 -0.53,-0.66 -0.53,-1.092c0,-0.781 0.624,-1.417 1.391,-1.417c0.561,1.77636e-15 1.038,0.348 1.256,0.868Zm-5.713,2.169c0.663,0 1.237,0.481 1.364,1.144c0.003,0.016 0.013,0.028 0.018,0.044l-1.96,1.519c-0.012,-0.007 -0.02,-0.019 -0.033,-0.026c-0.481,-0.242 -0.78,-0.726 -0.78,-1.264c-8.88178e-16,-0.782 0.624,-1.417 1.391,-1.417Zm3.566,5.502h-4.018c-0.481,0.026 -0.808,-0.252 -0.901,-0.511c-0.098,-0.271 0.068,-0.472 0.225,-0.593c0,-0.001 0,-0.001 0,-0.001l20,-15.499c0.363,-0.281 0.793,-0.427 1.209,-0.427c0.267,0 0.527,0.06 0.763,0.182c0.286,0.148 0.76,0.519 0.737,1.229c-2.094,8.487 -9.684,15.056 -18.015,15.62Z" fill="#000"></path></svg>