<?xml version="1.0" encoding="UTF-8"?><svg version="1.1" viewBox="0 0 30 30" xmlns="http://www.w3.org/2000/svg" xmlns:xlink="http://www.w3.org/1999/xlink"><path d="M15,9h0.006c0.276,-0.003 0.497,-0.23 0.494,-0.506c-0.036,-2.906 1.338,-6.518 3.698,-7.535c0.253,-0.109 0.37,-0.404 0.261,-0.657c-0.108,-0.254 -0.404,-0.37 -0.657,-0.261c-2.847,1.226 -4.341,5.277 -4.302,8.465c0.004,0.274 0.227,0.494 0.5,0.494Zm-2,-1c0.276,0 0.5,-0.224 0.5,-0.5c0,-3.541 -3.207,-7.5 -7.5,-7.5c-0.276,0 -0.5,0.224 -0.5,0.5c0,3.541 3.207,7.5 7.5,7.5Zm-0.527,-1.023c-3.248,-0.286 -5.671,-3.18 -5.947,-5.954c3.248,0.286 5.671,3.18 5.947,5.954Zm5.527,2.023c-0.942,0 -2.051,0.177 -3,0.475c-0.136,-0.043 -0.281,-0.077 -0.423,-0.115c-0.709,-0.246 -1.561,-0.36 -2.577,-0.36c-5.327,0 -9.5,4.612 -9.5,10.5c0,5.888 4.173,10.5 9.5,10.5c0.773,0 1.58,-0.356 2.292,-0.671c0.245,-0.108 0.483,-0.214 0.708,-0.298c0.225,0.084 0.463,0.19 0.708,0.298c0.712,0.315 1.519,0.671 2.292,0.671c5.327,0 9.5,-4.612 9.5,-10.5c0,-5.888 -4.173,-10.5 -9.5,-10.5Zm0,20c-0.562,0 -1.236,-0.297 -1.888,-0.585c-0.335,-0.148 -0.657,-0.29 -0.953,-0.389c-0.052,-0.017 -0.105,-0.026 -0.159,-0.026c-0.054,0 -0.107,0.009 -0.159,0.026c-0.296,0.099 -0.618,0.241 -0.953,0.389c-0.652,0.288 -1.325,0.585 -1.888,0.585c-4.767,0 -8.5,-4.173 -8.5,-9.5c0,-5.327 3.733,-9.5 8.5,-9.5c0.759,0 1.666,0.141 2.463,0.366c1.371,0.576 2.037,1.973 2.037,5.134c0,0.276 0.224,0.5 0.5,0.5c0.276,0 0.5,-0.224 0.5,-0.5c0,-2.561 -0.441,-4.246 -1.474,-5.26c0.665,-0.149 1.368,-0.24 1.974,-0.24c4.767,0 8.5,4.173 8.5,9.5c0,5.327 -3.733,9.5 -8.5,9.5Z" fill="#000"></path></svg>