<?xml version="1.0" encoding="UTF-8"?><svg version="1.1" viewBox="0 0 30 30" xmlns="http://www.w3.org/2000/svg" xmlns:xlink="http://www.w3.org/1999/xlink"><path d="M14.5,9h0.006c0.276,-0.003 0.497,-0.23 0.494,-0.506c-0.036,-2.906 1.338,-6.518 3.698,-7.535c0.253,-0.109 0.37,-0.404 0.261,-0.657c-0.109,-0.254 -0.404,-0.37 -0.657,-0.261c-2.847,1.226 -4.341,5.277 -4.302,8.465c0.004,0.274 0.227,0.494 0.5,0.494Zm2.5,0c-1.007,0 -1.62,0.162 -2.438,0.432c-0.642,-0.208 -1.233,-0.351 -1.93,-0.405c-0.043,-0.012 -0.085,-0.027 -0.132,-0.027c-0.059,0 -0.116,0.011 -0.174,0.014c-0.109,-0.004 -0.211,-0.014 -0.326,-0.014c-5.215,0 -9,4.416 -9,10.5c0,6.28 3.416,10.5 8.5,10.5c0.104,0 0.215,-0.01 0.322,-0.014c0.06,0.002 0.118,0.014 0.178,0.014c0.049,0 0.094,-0.015 0.14,-0.028c0.781,-0.058 1.619,-0.214 2.36,-0.447c0.742,0.234 1.58,0.389 2.361,0.447c0.045,0.013 0.09,0.028 0.139,0.028c0.06,0 0.119,-0.012 0.179,-0.014c0.107,0.004 0.218,0.014 0.321,0.014c5.327,0 9.5,-4.612 9.5,-10.5c0,-5.79 -4.486,-10.5 -10,-10.5Zm-13,10.5c0,-4.215 1.976,-7.538 4.982,-8.867c-1.804,1.847 -2.982,5.091 -2.982,8.867c0,3.942 1.063,7.174 2.754,8.968c-3.259,-1.366 -4.754,-5.177 -4.754,-8.968Zm13.178,9.485c-0.815,-0.036 -1.748,-0.201 -2.519,-0.459c-0.052,-0.017 -0.105,-0.026 -0.159,-0.026c-0.054,0 -0.107,0.009 -0.159,0.026c-0.771,0.258 -1.703,0.422 -2.519,0.459c-2.803,-0.162 -4.822,-4.094 -4.822,-9.485c0,-5.14 2.378,-9.329 5.331,-9.485c0.757,0.035 1.358,0.179 2.073,0.418c0.103,0.034 0.214,0.034 0.318,0c0.879,-0.294 1.389,-0.433 2.278,-0.433c3.196,0 6,4.439 6,9.5c0,4.966 -2.701,9.323 -5.822,9.485Zm3.571,-0.684c1.937,-1.891 3.251,-5.162 3.251,-8.801c0,-3.429 -1.168,-6.529 -2.923,-8.459c2.917,1.574 4.923,4.77 4.923,8.459c0,4.033 -2.142,7.401 -5.251,8.801Zm-8.249,-20.301c0.276,0 0.5,-0.224 0.5,-0.5c0,-3.541 -3.207,-7.5 -7.5,-7.5c-0.276,0 -0.5,0.224 -0.5,0.5c0,3.541 3.207,7.5 7.5,7.5Zm-0.527,-1.023c-3.248,-0.286 -5.671,-3.18 -5.947,-5.954c3.248,0.286 5.671,3.18 5.947,5.954Zm2.656,7.04c-0.083,-0.022 -0.168,-0.023 -0.25,-0.002c-0.034,0.008 -3.379,0.892 -3.379,4.985c0,4.093 3.345,4.977 3.379,4.985c0.04,0.01 0.08,0.015 0.121,0.015c0.038,0 0.076,-0.004 0.113,-0.013c0.034,-0.008 3.387,-0.836 3.387,-4.987c0,-4.035 -3.337,-4.974 -3.371,-4.983Zm-0.125,8.962c-0.519,-0.179 -2.504,-1.053 -2.504,-3.979c0,-2.914 1.969,-3.792 2.496,-3.976c0.531,0.193 2.504,1.103 2.504,3.976c0,2.967 -1.981,3.81 -2.496,3.979Z" fill="#000"></path></svg>