<?xml version="1.0" encoding="UTF-8"?><svg version="1.1" viewBox="0 0 30 30" xmlns="http://www.w3.org/2000/svg" xmlns:xlink="http://www.w3.org/1999/xlink"><g fill="#000"><path d="M15,30c-5.1,0 -9.5,-4.4 -9.5,-9.5c0,-3.2 1.6,-5 3,-6.7c1.2,-1.4 2.3,-2.7 2.3,-4.6c0,-2.3 1.9,-4.2 4.2,-4.2c2.3,0 4.3,1.9 4.3,4.3c0,1.9 1.1,3.1 2.3,4.6c1.4,1.6 3,3.5 3,6.7c-0.1,5 -4.5,9.4 -9.6,9.4Zm0,-24c-1.8,0 -3.3,1.5 -3.3,3.3c0,2.3 -1.3,3.8 -2.5,5.2c-1.3,1.6 -2.7,3.2 -2.7,6c0,4.5 4,8.5 8.5,8.5c4.5,0 8.5,-4 8.5,-8.5c0,-2.8 -1.4,-4.4 -2.7,-6c-1.2,-1.5 -2.5,-3 -2.5,-5.2c0,-1.8 -1.5,-3.3 -3.3,-3.3Z"></path><path d="M15,28c-4,0 -7.5,-3.5 -7.5,-7.5c0,-2.4 1.2,-3.9 2.5,-5.4c0.2,-0.2 0.5,-0.2 0.7,-0.1c0.2,0.2 0.2,0.5 0.1,0.7c-1.3,1.5 -2.3,2.7 -2.3,4.7c0,3.5 3,6.5 6.5,6.5c0.3,0 0.5,0.2 0.5,0.5c0,0.3 -0.2,0.6 -0.5,0.6Z"></path><path d="M15,7c-0.3,0 -0.5,-0.2 -0.5,-0.5c0,-4.1 1.7,-6.5 4.5,-6.5c0.3,0 0.5,0.2 0.5,0.5c0,0.3 -0.2,0.5 -0.5,0.5c-3.2,0 -3.5,3.8 -3.5,5.5c0,0.3 -0.2,0.5 -0.5,0.5Z"></path></g></svg>