<?xml version="1.0" encoding="UTF-8"?><svg version="1.1" viewBox="0 0 30 30" xmlns="http://www.w3.org/2000/svg" xmlns:xlink="http://www.w3.org/1999/xlink"><path d="M12,27c-2.481,0 -4.5,-2.019 -4.5,-4.5c0,-0.276 -0.224,-0.5 -0.5,-0.5c-0.276,0 -0.5,0.224 -0.5,0.5c0,3.033 2.467,5.5 5.5,5.5c0.276,0 0.5,-0.224 0.5,-0.5c0,-0.276 -0.224,-0.5 -0.5,-0.5Zm10.003,-12.329c-0.859,-0.968 -1.67,-1.881 -2.036,-2.848c-0.275,-0.728 -0.419,-1.524 -0.559,-2.294c-0.276,-1.521 -0.585,-3.184 -2.055,-4.006c1.748,-0.744 3.147,-2.377 3.147,-5.023c0,-0.276 -0.224,-0.5 -0.5,-0.5c-1.997,0 -4.108,0.98 -5.026,3.081c-0.629,-1.362 -1.718,-2.414 -2.717,-3.011c-0.236,-0.141 -0.544,-0.065 -0.686,0.173c-0.142,0.237 -0.065,0.544 0.172,0.686c1.203,0.719 2.563,2.199 2.726,4.094c-3.244,0.237 -3.839,2.65 -4.362,4.796c-0.164,0.671 -0.333,1.366 -0.575,2.004c-0.361,0.953 -1.079,1.845 -1.84,2.791c-1.479,1.839 -3.156,3.923 -3.192,7.386c0,4.411 3.589,8 8,8c0.765,0 1.563,-0.15 2.5,-0.47c0.937,0.32 1.735,0.47 2.5,0.47c4.411,0 8,-3.589 8.001,-8v-0.005c-0.037,-3.426 -1.874,-5.497 -3.498,-7.324Zm-2.526,-13.646c-0.221,2.514 -2.03,3.761 -3.955,3.949c0.222,-2.513 2.03,-3.76 3.955,-3.949Zm-1.977,27.975c-0.691,0 -1.433,-0.15 -2.332,-0.471c-0.054,-0.019 -0.111,-0.029 -0.168,-0.029c-0.057,0 -0.114,0.01 -0.168,0.029c-0.9,0.322 -1.642,0.471 -2.332,0.471c-3.86,0 -7,-3.141 -7,-6.995c0.032,-3.111 1.527,-4.969 2.972,-6.764c0.812,-1.009 1.579,-1.962 1.996,-3.064c0.263,-0.696 0.44,-1.42 0.611,-2.121c0.551,-2.266 0.988,-4.056 3.921,-4.056c2.754,0 3.035,1.556 3.425,3.708c0.147,0.814 0.299,1.656 0.607,2.469c0.432,1.139 1.302,2.12 2.224,3.158c1.579,1.778 3.212,3.617 3.244,6.667c-0.001,3.859 -3.141,6.998 -7,6.998Z" fill="#000"></path></svg>