<?xml version="1.0" encoding="UTF-8"?><svg version="1.1" viewBox="0 0 30 30" xmlns="http://www.w3.org/2000/svg" xmlns:xlink="http://www.w3.org/1999/xlink"><path d="M18.875,7.017c-0.267,0.069 -0.428,0.341 -0.36,0.609c0.999,3.891 1.601,10.08 0.012,14.713c-0.089,0.261 0.049,0.545 0.311,0.635c0.053,0.018 0.107,0.026 0.162,0.026c0.208,0 0.401,-0.13 0.471,-0.337c1.659,-4.837 1.094,-11.068 0.012,-15.287c-0.069,-0.267 -0.342,-0.429 -0.608,-0.359Zm-7.393,0.608c0.069,-0.268 -0.092,-0.54 -0.36,-0.609c-0.264,-0.069 -0.54,0.093 -0.608,0.36c-1.009,3.932 -1.611,10.293 0.009,15.279c0.069,0.212 0.266,0.345 0.477,0.345c0.051,0 0.104,-0.008 0.153,-0.025c0.262,-0.086 0.406,-0.368 0.321,-0.63c-1.555,-4.782 -0.968,-10.918 0.008,-14.72Zm9.018,-7.625c-1.617,0 -3.057,0.935 -3.971,2.067c-0.034,-0.704 -0.164,-1.288 -0.535,-1.671c-0.506,-0.521 -1.466,-0.528 -1.978,-0.003c-0.372,0.384 -0.504,0.972 -0.54,1.682c-0.913,-1.135 -2.356,-2.075 -3.976,-2.075c-3.098,0 -5,7.635 -5,13.109c0,5.706 1.812,16.891 6,16.891c2.461,0 3.153,-1.06 3.658,-1.834c0.322,-0.494 0.454,-0.666 0.842,-0.666c0.388,0 0.519,0.171 0.842,0.666c0.504,0.774 1.197,1.834 3.658,1.834c4.188,0 6,-11.186 6.001,-16.892c-0.001,-5.473 -1.902,-13.108 -5.001,-13.108Zm-1,29c-1.92,0 -2.378,-0.702 -2.821,-1.381c-0.343,-0.523 -0.731,-1.119 -1.679,-1.119c-0.948,0 -1.337,0.595 -1.679,1.12c-0.443,0.679 -0.901,1.381 -2.821,1.381c-3.006,0 -5,-9.565 -5,-15.891c0,-5.885 2.056,-12.109 4,-12.109c2.269,0 3.996,2.328 3.999,3.496c-0.032,0.817 -0.654,16.487 0.009,20.093c0.045,0.242 0.255,0.41 0.491,0.41c0.03,0 0.061,-0.002 0.092,-0.007c0.271,-0.05 0.451,-0.311 0.401,-0.582c-0.646,-3.515 0.001,-19.726 0.008,-19.89c0,-0.004 -0.002,-0.007 -0.002,-0.011c0,-0.003 0.002,-0.006 0.002,-0.009c0,-0.331 -0.01,-0.666 -0.019,-0.994c-0.028,-0.982 -0.06,-2.096 0.253,-2.417c0.042,-0.043 0.107,-0.088 0.266,-0.088c0.166,0 0.234,0.049 0.276,0.092c0.308,0.318 0.274,1.415 0.245,2.382c-0.011,0.337 -0.021,0.683 -0.021,1.024c0,0.003 0.002,0.006 0.002,0.009c0,0.004 -0.002,0.007 -0.002,0.011c0.007,0.164 0.654,16.375 0.008,19.89c-0.05,0.271 0.13,0.532 0.401,0.582c0.031,0.006 0.062,0.008 0.091,0.008c0.236,0 0.446,-0.168 0.491,-0.411c0.663,-3.606 0.04,-19.276 0.009,-20.093c0.004,-1.168 1.731,-3.496 4,-3.496c1.944,0 4,6.224 4,12.109c0,6.326 -1.995,15.891 -5,15.891Z" fill="#000"></path></svg>