<svg xmlns="http://www.w3.org/2000/svg" viewBox="0 0 30 30"><path d="M15 30c-1.654 0-3-1.346-3-3v-6c0-1.636-1.614-3.138-3.12-3.515-2.336-.794-3.663-2.5-3.877-4.94L5 6H4c-1.103 0-2-.897-2-2s.897-2 2-2h1c0-1.103.897-2 2-2s2 .897 2 2h12c0-1.103.897-2 2-2s2 .897 2 2h1c1.103 0 2 .897 2 2s-.897 2-2 2h-1v6.5c0 1.612-.663 3.783-3.824 4.968C19.69 17.744 18 19.365 18 21v6c0 1.654-1.346 3-3 3zM4 3a1 1 0 1 0 0 2h1.5a.5.5 0 0 1 .5.5v7c.178 2.003 1.24 3.373 3.16 4.026C10.986 16.98 13 18.83 13 21v6c0 1.103.897 2 2 2s2-.897 2-2v-6c0-2.168 2.065-4.16 3.91-4.492C22.932 15.74 24 14.385 24 12.5v-7a.5.5 0 0 1 .5-.5H26a1 1 0 1 0 0-2h-1.5a.5.5 0 0 1-.5-.5V2a1 1 0 1 0-2 0v.5a.5.5 0 0 1-.5.5h-13a.5.5 0 0 1-.5-.5V2a1 1 0 1 0-2 0v.5a.5.5 0 0 1-.5.5H4zm13.5 12h-5C10.02 15 8 12.98 8 10.5v-5a.5.5 0 0 1 .5-.5h13a.5.5 0 0 1 .5.5v5c0 2.48-2.02 4.5-4.5 4.5zM9 6v4.5c0 1.93 1.57 3.5 3.5 3.5h5c1.93 0 3.5-1.57 3.5-3.5V6H9z"/><path d="M15 30c-1.654 0-3-1.346-3-3v-6c0-1.636-1.614-3.138-3.12-3.515-2.336-.794-3.663-2.5-3.877-4.94L5 12.5V2c0-1.103.897-2 2-2s2 .897 2 2v8.5c0 1.93 1.57 3.5 3.5 3.5h5c1.93 0 3.5-1.57 3.5-3.5V2c0-1.103.897-2 2-2s2 .897 2 2v10.5c0 1.612-.663 3.783-3.824 4.968C19.69 17.744 18 19.365 18 21v6c0 1.654-1.346 3-3 3zM6 12.478c.185 2.035 1.248 3.397 3.16 4.05C10.986 16.98 13 18.83 13 21v6c0 1.103.897 2 2 2s2-.897 2-2v-6c0-2.168 2.065-4.16 3.91-4.492C22.932 15.74 24 14.385 24 12.5V2a1 1 0 1 0-2 0v8.5c0 2.48-2.02 4.5-4.5 4.5h-5C10.02 15 8 12.98 8 10.5V2a1 1 0 1 0-2 0v10.478z"/></svg>