<svg xmlns="http://www.w3.org/2000/svg" viewBox="0 0 30 30"><path d="M20.3 30h-10c-.9 0-1.7-.7-1.7-1.6L7 14.6c0-.1 0-.3.1-.4a.76.76 0 0 1 .4-.2h15a.76.76 0 0 1 .4.2c.1.1.1.2.1.4l-1 13.9a1.73 1.73 0 0 1-1.7 1.5zM8.1 15l1.4 13.3c0 .4.4.7.7.7h10a.68.68 0 0 0 .7-.7L22 15H8.1z"/><path d="M18.5 27H9a.47.47 0 0 1-.5-.5.47.47 0 0 1 .5-.5h9.5a.47.47 0 0 1 .5.5.47.47 0 0 1-.5.5zm-6.4-12.2c-.3 0-.5-.2-.5-.4L11 8.6 9.7 5.9 9 8.5l.5 5.7a.47.47 0 0 1-.5.5.47.47 0 0 1-.5-.5L8 8.5v-.2l1-4c.1-.1.2-.3.4-.3a.55.55 0 0 1 .5.3l2 4c0 .1 0 .1.1.2l.6 5.8c.1.2-.1.4-.5.5.1-.1 0 0 0 0zM16.5 5h-3a.47.47 0 0 1-.5-.5.47.47 0 0 1 .5-.5h3a.47.47 0 0 1 .5.5.47.47 0 0 1-.5.5zm2 10a.47.47 0 0 1-.5-.5v-12a.47.47 0 0 1 .5-.5h2a.47.47 0 0 1 .5.5v11.8a.47.47 0 0 1-.5.5c-.3 0-.5-.3-.5-.5V3h-1v11.5a.47.47 0 0 1-.5.5z"/><path d="M20.5 9h-2a.47.47 0 0 1-.5-.5.47.47 0 0 1 .5-.5h2a.47.47 0 0 1 .5.5.47.47 0 0 1-.5.5zm-1-6a.47.47 0 0 1-.5-.5v-2a.47.47 0 0 1 .5-.5.47.47 0 0 1 .5.5v2a.47.47 0 0 1-.5.5zm-10 2c-.2 0-.4-.2-.5-.4l-.5-2c-.1-.2.1-.5.4-.6s.5.1.6.4l.5 2c.1.2-.1.5-.4.6h-.1zm4 10a.47.47 0 0 1-.5-.5V2c0-1.1.9-2 2-2s2 .9 2 2v12a.47.47 0 0 1-.5.5.47.47 0 0 1-.5-.5V2a.94.94 0 0 0-1-1 .94.94 0 0 0-1 1v12.5a.47.47 0 0 1-.5.5z"/></svg>