<svg xmlns="http://www.w3.org/2000/svg" viewBox="0 0 30 30"><path d="M.5 30c-.1 0-.3 0-.3-.1-.2-.2-.2-.4-.2-.6l2-6c0-.1.1-.1.1-.2L24.4.9c1.2-1.2 3.1-1.2 4.5.2.5.6 1.1 1.6 1.1 2.6 0 .6-.2 1.2-.6 1.6l-22 21.9c-.1.1-.1.2-.3.2L.6 29.9c0 .1 0 .1-.1.1zm2.4-6.3l-1.6 4.9 5.4-2.1c.9-1 4.7-5 21.9-21.9.3-.2.4-.5.4-.9a3.01 3.01 0 0 0-.8-1.9c-.5-.5-1.1-.8-1.6-.8s-1 .2-1.4.6L2.9 23.7z"/><path d="M7 27.5c-.1 0-.3 0-.4-.1l-4-4c-.2-.2-.2-.5 0-.7s.5-.2.7 0l4 4c.2.2.2.5 0 .7 0 0-.2.1-.3.1zM25.5 9c-.1 0-.3 0-.4-.1l-4-4c-.2-.2-.2-.5 0-.7s.5-.2.7 0l4 4c.2.2.2.5 0 .7 0 0-.2.1-.3.1z"/></svg>