<svg xmlns="http://www.w3.org/2000/svg" viewBox="0 0 30 30"><path d="M19.5 30h-9a.47.47 0 0 1-.5-.5V8c0-2.2 1.8-4 4-4h2c2.2 0 4 1.8 4 4v21.5a.47.47 0 0 1-.5.5zM11 29h8V8c0-1.7-1.3-3-3-3h-2c-1.7 0-3 1.3-3 3v21z"/><path d="M16.5 30a.47.47 0 0 1-.5-.5v-25a.47.47 0 0 1 .5-.5.47.47 0 0 1 .5.5v25a.47.47 0 0 1-.5.5zm-3-13a1.54 1.54 0 0 1-1.5-1.5 1.54 1.54 0 0 1 1.5-1.5 1.54 1.54 0 0 1 1.5 1.5 1.54 1.54 0 0 1-1.5 1.5zm0-2a.47.47 0 0 0-.5.5.47.47 0 0 0 .5.5.47.47 0 0 0 .5-.5.47.47 0 0 0-.5-.5z"/><path d="M23.2 30H6.8A1.79 1.79 0 0 1 5 28.2v-7.1c0-.2.1-.4.3-.4C6.9 19.8 8 17.6 8 15s-1.1-4.8-2.7-5.7c-.2-.1-.3-.2-.3-.4V1.8A1.79 1.79 0 0 1 6.8 0h16.5a1.79 1.79 0 0 1 1.8 1.8v7.1c0 .2-.1.4-.3.4-1.7.9-2.8 3.1-2.8 5.7s1.1 4.8 2.7 5.7c.2.1.3.3.3.4v7.1a1.79 1.79 0 0 1-1.8 1.8zM6 21.4v6.8c0 .5.3.8.8.8h16.5c.4 0 .8-.3.8-.8v-6.8c-1.8-1.1-3-3.6-3-6.4s1.2-5.3 3-6.4V1.8c-.1-.5-.4-.8-.9-.8H6.8c-.5 0-.8.3-.8.8v6.8c1.8 1.1 3 3.6 3 6.4s-1.2 5.3-3 6.4z"/></svg>