<?xml version="1.0" encoding="UTF-8"?><svg version="1.1" viewBox="0 0 30 30" xmlns="http://www.w3.org/2000/svg" xmlns:xlink="http://www.w3.org/1999/xlink"><path d="M23.114,7.721c-1.039,-0.663 -2.235,-0.619 -3.349,-0.34c0.183,-0.477 0.433,-1.101 0.691,-1.675c0.099,-0.221 0.026,-0.481 -0.173,-0.618c-0.2,-0.137 -0.467,-0.111 -0.639,0.06c-0.894,0.903 -2.016,1.176 -2.614,0.978c-0.31,-0.104 -0.485,-0.331 -0.535,-0.693c-0.148,-1.083 1.944,-2.172 2.689,-2.468c0.132,-0.053 0.236,-0.159 0.285,-0.293c0.049,-0.134 0.038,-0.283 -0.028,-0.408c-0.003,-0.005 -0.475,-0.89 -0.989,-1.978c-0.081,-0.173 -0.254,-0.284 -0.444,-0.287h-0.057c-3.191,0 -4.002,4.229 -4.308,5.826c-0.029,0.149 -0.05,0.272 -0.064,0.349c-0.312,0.031 -1.296,-0.125 -3.369,-1.083c-0.155,-0.071 -0.329,-0.06 -0.474,0.029c-0.142,0.089 -0.231,0.243 -0.236,0.411c-0.022,0.791 0.285,1.397 0.689,1.89c-1.074,-0.333 -2.261,-0.447 -3.294,0.178c-1.612,0.973 -2.395,3.394 -2.395,7.402c0,2.851 1.753,11.101 5.003,13.472c0.585,0.427 1.188,0.641 1.799,0.641c0.281,0 0.565,-0.046 0.851,-0.137c0.026,-0.008 0.046,-0.027 0.069,-0.039c0.758,0.611 1.705,1.063 2.778,1.063c1.023,0 1.997,-0.428 2.786,-1.054c0.011,0.005 0.018,0.014 0.029,0.019c0.318,0.126 0.642,0.189 0.964,0.189c0.542,0 1.083,-0.177 1.6,-0.528c3.186,-2.162 5.121,-10.525 5.121,-13.626c0,-3.875 -0.78,-6.257 -2.386,-7.28Zm-8.678,-0.975c0.075,-0.132 0.108,-0.308 0.189,-0.732c0.253,-1.323 0.908,-4.74 3.066,-4.999c0.238,0.496 0.46,0.934 0.619,1.244c-1.003,0.48 -3.031,1.667 -2.806,3.309c0.102,0.744 0.531,1.279 1.209,1.506c0.639,0.214 1.422,0.124 2.178,-0.209c-0.172,0.442 -0.293,0.776 -0.339,0.903c-0.466,0.183 -0.894,0.382 -1.261,0.552c-0.151,0.071 -0.287,0.133 -0.415,0.189c-0.541,-0.243 -1.142,-0.412 -1.807,-0.503c-0.045,-0.007 -0.092,-0.007 -0.137,0c-0.776,0.107 -1.462,0.322 -2.069,0.636c-0.228,-0.367 -0.592,-0.674 -0.983,-0.994c-0.46,-0.376 -0.931,-0.76 -1.186,-1.253c3.186,1.328 3.6,0.604 3.742,0.351Zm5.381,21.055c-0.414,0.28 -0.815,0.394 -1.22,0.343c0.395,-0.47 0.706,-0.979 0.877,-1.481c0.088,-0.261 -0.051,-0.545 -0.313,-0.634c-0.262,-0.089 -0.545,0.05 -0.635,0.312c-0.379,1.116 -1.816,2.661 -3.526,2.661c-1.704,0 -3.143,-1.547 -3.527,-2.663c-0.09,-0.26 -0.373,-0.4 -0.635,-0.31c-0.262,0.089 -0.401,0.374 -0.311,0.635c0.152,0.443 0.455,0.955 0.858,1.444c-0.431,0.021 -0.857,-0.125 -1.293,-0.443c-2.653,-1.935 -4.592,-9.476 -4.592,-12.664c0,-3.578 0.644,-5.78 1.913,-6.546c1.372,-0.829 3.326,0.186 4.509,0.808c-1.622,1.356 -2.422,3.749 -2.422,7.238c0,0.276 0.224,0.5 0.5,0.5c0.276,0 0.5,-0.224 0.5,-0.5c0,-6.029 2.39,-7.187 4.5,-7.495c2.11,0.307 4.5,1.466 4.5,7.495c0,0.276 0.224,0.5 0.5,0.5c0.276,0 0.5,-0.224 0.501,-0.5c0,-3.601 -0.849,-6.04 -2.579,-7.37c1.292,-0.596 3.28,-1.442 4.655,-0.567c1.276,0.814 1.923,2.98 1.923,6.438c0,3.209 -2.025,10.995 -4.683,12.799Z" fill="#000"></path></svg>