<?xml version="1.0" encoding="UTF-8"?><svg version="1.1" viewBox="0 0 14 30" xmlns="http://www.w3.org/2000/svg" xmlns:xlink="http://www.w3.org/1999/xlink"><!--Generated by IJSVG (https://github.com/curthard89/IJSVG)--><g transform="matrix(1,0,0,1,-99,0)"><path fill="#000" fill-rule="evenodd" stroke="none" d="M0.970903,8.93127l3.98468,-5.25698h3.22469l3.96271,5.25498v4.14946c0,0.313581 -0.121837,0.608188 -0.343541,0.83089c-0.221704,0.221704 -0.516311,0.34454 -0.828893,0.34454h-8.82422c-0.648134,0 -1.17543,-0.527296 -1.17543,-1.17543v-4.14746Zm3.05792,-6.82888h5.06024v-1.12949h-5.06024v1.12949Zm7.1864,15.5822c-0.0319574,0 -0.0639147,0.002996 -0.0938747,0.0079893l-9.12382,-0.0009987c-0.0319573,-0.0049933 -0.062916,-0.0079893 -0.095872,-0.0079893c-0.512316,0 -0.929758,-0.416444 -0.929758,-0.929758c0,-0.512316 0.417443,-0.929758 0.929758,-0.929758h9.31356c0.512316,0.0009987 0.92876,0.418441 0.92876,0.931756c0,0.512316 -0.416444,0.92876 -0.92876,0.92876Zm0,3.43142h-0.245672c-0.0429426,0 -0.0848866,0.0049933 -0.124833,0.0139813h-8.57055c-0.041944,-0.008988 -0.083888,-0.0139813 -0.127829,-0.0139813h-0.245672c-0.512316,0 -0.929758,-0.416444 -0.929758,-0.92876c0,-0.488348 0.377496,-0.889812 0.855857,-0.927761c0.023968,0.0039947 0.0489346,0.0049934 0.0739013,0.0049934h9.31356c0.0259653,0 0.0499333,-0.0009987 0.0749,-0.0049934c0.477362,0.0379494 0.854858,0.439413 0.854858,0.927761c0,0.512316 -0.416444,0.92876 -0.92876,0.92876Zm0.92876,6.66909c0,0.648134 -0.526297,1.17443 -1.17443,1.17443h-8.82322c-0.648134,0 -1.17543,-0.526297 -1.17543,-1.17443v-3.92176c1.11022e-16,-0.581224 0.426431,-1.07456 0.997668,-1.16145h9.17774c0.571237,0.086884 0.997668,0.580225 0.997668,1.16145v3.92176Zm0.974698,-11.0293c0,-0.79394 -0.488348,-1.47403 -1.17843,-1.75965c0.698068,-0.354527 1.17743,-1.08156 1.17743,-1.91744h-0.0009987v-4.47403l-4.16743,-5.52962h1.11251v-3.07489h-7.00564v3.07489h1.13548l-4.1914,5.52962v4.47403c6.51334e-17,0.836882 0.480358,1.56291 1.17843,1.91744c-0.691077,0.285619 -1.17843,0.96571 -1.17843,1.75965c6.51334e-17,0.753993 0.441411,1.40812 1.08056,1.71471c-0.639146,0.307589 -1.08056,0.961716 -1.08056,1.71571c6.51334e-17,0.79394 0.487349,1.47403 1.17843,1.75965c-0.699066,0.354527 -1.17843,1.08056 -1.17843,1.91744v3.92176c6.51334e-17,1.18442 0.963713,2.14713 2.14713,2.14713h8.82422c1.18342,0 2.14713,-0.962714 2.14713,-2.14713v-3.92176c0,-0.836882 -0.480358,-1.56291 -1.17843,-1.91744c0.690078,-0.285619 1.17843,-0.96571 1.17843,-1.75965c0,-0.753993 -0.441411,-1.40812 -1.08056,-1.71571c0.639146,-0.30659 1.08056,-0.960717 1.08056,-1.71471Z" transform="matrix(1,0,0,1,99.302,0)"></path></g></svg>