<?xml version="1.0" encoding="UTF-8"?><svg version="1.1" viewBox="0 0 12 30" xmlns="http://www.w3.org/2000/svg" xmlns:xlink="http://www.w3.org/1999/xlink"><!--Generated by IJSVG (https://github.com/curthard89/IJSVG)--><g transform="matrix(1,0,0,1,-39,0)"><g transform="matrix(1,0,0,1,39,0)"><path fill="#000" stroke="none" d="M9.2,30c-0.7,0 -1.2,-0.2 -1.5,-0.6c0,0 0,0 0,0c-0.3,0.3 -0.8,0.6 -1.7,0.6c-0.9,0 -1.4,-0.3 -1.7,-0.6c0,0 0,0 0,0c-0.3,0.4 -0.8,0.6 -1.5,0.6c-0.7,0 -1.3,-0.3 -1.8,-0.9c-0.7,-1 -0.7,-2.8 0,-4.7v-10.8c-1.1,-3.5 0,-5.2 1.1,-6.8c0.7,-1.1 1.4,-2.1 1.4,-3.8l0.1,-1.3c0,-0.9 0.8,-1.7 1.8,-1.7h1.3c1,5.9975e-25 1.8,0.8 1.8,1.8v1.2c0,1.7 0.7,2.7 1.4,3.8c1.1,1.6 2.2,3.3 1.1,6.8v10.8c0.7,1.9 0.7,3.6 0,4.7c-0.5,0.6 -1.1,0.9 -1.8,0.9Zm-0.8,-1.7c0,0 0,0.3 0.1,0.4c0.1,0.3 0.5,0.3 0.7,0.3c0.4,0 0.7,-0.2 0.9,-0.5c0.4,-0.6 0.6,-1.9 -0.1,-3.8c0,-0.1 0,-0.1 0,-0.2v-11c0,-0.1 0,-0.1 0,-0.2c1,-3.1 0.1,-4.4 -0.9,-6c-0.8,-1.1 -1.6,-2.3 -1.6,-4.3l-0.1,-1.2c0,-0.5 -0.4,-0.8 -0.8,-0.8h-1.3c-0.4,0 -0.8,0.3 -0.8,0.8v1.2c0,1.9 -0.8,3.1 -1.6,4.3c-1,1.6 -1.9,2.9 -0.9,6c0,0.1 0,0.1 0,0.2v11c0,0.1 0,0.1 0,0.2c-0.7,1.9 -0.5,3.2 -0.1,3.8c0.2,0.3 0.5,0.5 0.9,0.5c0.2,0 0.6,0 0.7,-0.2c0.1,-0.2 0.1,-0.4 0.1,-0.4c0,-0.2 0.1,-0.4 0.3,-0.5c0.2,-0.1 0.4,-0.1 0.6,0.1c0.1,0.1 0.2,0.3 0.3,0.4c0.2,0.3 0.4,0.6 1.2,0.6c0.8,0 1,-0.3 1.2,-0.7c0.1,-0.1 0.2,-0.3 0.3,-0.4c0.2,-0.2 0.4,-0.2 0.6,-0.1c0.3,0.1 0.4,0.3 0.3,0.5Z"></path><path fill="#000" stroke="none" d="M8,4h-4c-0.3,0 -0.5,-0.2 -0.5,-0.5c0,-0.3 0.2,-0.5 0.5,-0.5h4c0.3,0 0.5,0.2 0.5,0.5c0,0.3 -0.2,0.5 -0.5,0.5Z"></path><path fill="#000" stroke="none" d="M10.5,14h-9c-0.3,0 -0.5,-0.2 -0.5,-0.5c0,-0.3 0.2,-0.5 0.5,-0.5h9c0.3,0 0.5,0.2 0.5,0.5c0,0.3 -0.2,0.5 -0.5,0.5Z"></path><path fill="#000" stroke="none" d="M10.5,25h-9c-0.3,0 -0.5,-0.2 -0.5,-0.5c0,-0.3 0.2,-0.5 0.5,-0.5h9c0.3,0 0.5,0.2 0.5,0.5c0,0.3 -0.2,0.5 -0.5,0.5Z"></path></g></g></svg>