<svg viewBox="0 0 30 30" xmlns="http://www.w3.org/2000/svg">
    <path
        d="M18.2 30c-0.7 0-1.2-0.2-1.5-0.6l0 0C16.4 29.7 15.9 30 15 30s-1.4-0.3-1.7-0.6l0 0C13 29.8 12.5 30 11.8 30s-1.3-0.3-1.8-0.9c-0.7-1-0.7-2.8 0-4.7V13.6c-1.1-3.5 0-5.2 1.1-6.8 0.7-1.1 1.4-2.1 1.4-3.8l0.1-1.3c0-0.9 0.8-1.7 1.8-1.7h1.3c1 0 1.8 0.8 1.8 1.8V3c0 1.7 0.7 2.7 1.4 3.8 1.1 1.6 2.2 3.3 1.1 6.8v10.8c0.7 1.9 0.7 3.6 0 4.7C19.5 29.7 18.9 30 18.2 30zM17.4 28.3c0 0.3 0.1 0.5 0.2 0.6C17.7 29 18 29 18.2 29c0.4 0 0.7-0.2 0.9-0.5 0.4-0.6 0.6-1.9-0.1-3.8 0-0.1 0-0.1 0-0.2v-11c0-0.1 0-0.1 0-0.2 1-3.1 0.1-4.4-0.9-6C17.3 6.2 16.5 5 16.5 3l-0.1-1.2C16.4 1.3 16 1 15.6 1h-1.3c-0.4 0-0.8 0.3-0.8 0.8V3c0 1.9-0.8 3.1-1.6 4.3 -1 1.6-1.9 2.9-0.9 6 0 0.1 0 0.1 0 0.2v11c0 0.1 0 0.1 0 0.2 -0.7 1.9-0.5 3.2-0.1 3.8 0.2 0.3 0.5 0.5 0.9 0.5 0.2 0 0.6 0 0.7-0.2 0.1-0.2 0.1-0.2 0.1-0.4s0.1-0.4 0.3-0.5 0.4-0.1 0.6 0.1c0.1 0.1 0.2 0.2 0.3 0.5S14.2 29 15 29s1-0.2 1.2-0.6c0.1-0.2 0.1-0.3 0.2-0.4 0.2-0.2 0.4-0.2 0.6-0.2S17.4 28 17.4 28.3z" />
    <path d="M17 4h-4c-0.3 0-0.5-0.2-0.5-0.5S12.7 3 13 3h4c0.3 0 0.5 0.2 0.5 0.5S17.3 4 17 4z" />
    <path
        d="M19.5 14h-9c-0.3 0-0.5-0.2-0.5-0.5s0.2-0.5 0.5-0.5h9c0.3 0 0.5 0.2 0.5 0.5S19.8 14 19.5 14z" />
    <path
        d="M19.5 25h-9c-0.3 0-0.5-0.2-0.5-0.5s0.2-0.5 0.5-0.5h9c0.3 0 0.5 0.2 0.5 0.5S19.8 25 19.5 25z" />
</svg>
