<?xml version="1.0" encoding="UTF-8"?><svg version="1.1" viewBox="0 0 30 30" xmlns="http://www.w3.org/2000/svg" xmlns:xlink="http://www.w3.org/1999/xlink"><g fill="#000"><path d="M6.5,18c-0.1,0 -0.2,0 -0.3,-0.1c-0.2,-0.2 -0.3,-0.5 -0.1,-0.7c0.5,-0.7 2.3,-2.2 3.4,-2.2c0.3,0 0.5,0.2 0.5,0.5c0,0.3 -0.2,0.5 -0.5,0.5c-0.6,0 -2.1,1.1 -2.6,1.8c-0.1,0.1 -0.2,0.2 -0.4,0.2Z"></path><path d="M12,19c-0.3,0 -0.5,-0.2 -0.5,-0.5c0,-0.5 0.5,-2.8 1.2,-3.4c0.2,-0.2 0.5,-0.1 0.7,0.1c0.2,0.2 0.1,0.5 -0.1,0.7c-0.3,0.3 -0.8,2.1 -0.8,2.6c1.77636e-15,0.3 -0.2,0.5 -0.5,0.5Z"></path><path d="M15,29c-10.3,0 -11.2,-3.1 -11.2,-3.4l-1.1,-5.2c-0.5,0.4 -1.3,0.8 -1.9,0.5c-0.5,-0.2 -0.8,-0.7 -0.8,-1.7c0,-3.1 9.3,-8.2 15,-8.2c6.2,0 15,5.5 15,8.5c0,0.9 -0.4,1.2 -0.7,1.4c-0.6,0.3 -1.4,-0.1 -2,-0.5l-1.3,5.2c0,0.3 -0.7,3.4 -11,3.4Zm-12,-10c0,0 0.1,0 0.1,0c0.2,0.1 0.3,0.2 0.3,0.4l1.3,6c0,0 0.8,2.6 10.3,2.6c9.4,0 10,-2.6 10,-2.6l1.5,-6c0,-0.2 0.2,-0.3 0.3,-0.4c0.2,-0.1 0.3,0 0.5,0.1c0.6,0.5 1.4,0.9 1.6,0.8c0,0 0.1,-0.1 0.1,-0.5c0,-2.2 -8.3,-7.5 -14,-7.5c-5.9,0 -14,5 -14,7.2c-3.55271e-15,0.7 0.1,0.9 0.2,0.9c0.2,0.1 0.9,-0.3 1.5,-0.9c0,0 0.2,-0.1 0.3,-0.1Z"></path><path d="M11.6,23c-0.1,0 -0.3,0 -0.4,0c-1.4,-0.1 -2.6,-0.9 -3.3,-2.1c-0.8,0.8 -1.8,1.3 -2.7,1.2c-1.1,-0.1 -2.1,-1 -2.6,-2.4c-0.1,-0.3 0,-0.5 0.3,-0.7c0.3,-0.1 0.5,0 0.7,0.3c0.4,1 1.1,1.7 1.8,1.8c0.8,0.1 1.6,-0.4 2.3,-1.3c0.1,-0.1 0.3,-0.2 0.5,-0.2c0.2,0 0.3,0.1 0.4,0.3c0.4,1.1 1.5,2 2.7,2.1c1.3,0.1 2.4,-0.5 3.3,-1.8c0.1,-0.1 0.2,-0.2 0.4,-0.2c0.2,0 0.3,0.1 0.4,0.2c1.2,1.4 2.4,2 3.5,1.8c1.1,-0.2 2.1,-1.2 2.7,-2.7c0.1,-0.2 0.2,-0.3 0.4,-0.3c0.2,0 0.4,0.1 0.5,0.2c0.7,1.2 1.4,1.8 2.1,1.8c0.6,0 1.3,-0.7 1.8,-1.9c0.1,-0.3 0.4,-0.4 0.7,-0.3c0.3,0.1 0.4,0.4 0.3,0.7c-0.8,2 -1.9,2.5 -2.6,2.6c-0.6,0 -1.5,-0.2 -2.5,-1.5c-0.8,1.4 -1.9,2.3 -3.1,2.5c-0.9,0.2 -2.3,0 -4,-1.7c-1.1,1 -2.3,1.6 -3.6,1.6Z"></path><path d="M23.5,18c-0.2,0 -0.3,-0.1 -0.4,-0.2c-0.5,-0.7 -2,-1.8 -2.6,-1.8c-0.3,0 -0.5,-0.2 -0.5,-0.5c0,-0.3 0.2,-0.5 0.5,-0.5c1.1,0.1 2.8,1.5 3.4,2.2c0.2,0.2 0.1,0.5 -0.1,0.7c-0.1,0.1 -0.2,0.1 -0.3,0.1Z"></path><path d="M18,19c-0.3,0 -0.5,-0.2 -0.5,-0.5c0,-0.5 -0.5,-2.3 -0.8,-2.6c-0.2,-0.2 -0.3,-0.5 -0.1,-0.7c0.2,-0.2 0.5,-0.3 0.7,-0.1c0.7,0.6 1.2,2.9 1.2,3.4c3.55271e-15,0.3 -0.2,0.5 -0.5,0.5Z"></path><path d="M9.5,10c-0.1,0 -0.3,0 -0.4,-0.1c-0.1,-0.2 -0.1,-0.6 0,-0.8c0.9,-0.8 0.5,-1.8 -0.1,-3.5c-0.5,-1.5 -1.1,-3.2 0.1,-4.5c0.2,-0.1 0.6,-0.1 0.8,4.44089e-16c0.2,0.1 0.2,0.5 0,0.7c-0.8,0.8 -0.5,1.8 0.1,3.5c0.6,1.5 1.2,3.3 -0.1,4.6c-0.1,0.1 -0.3,0.1 -0.4,0.1Z"></path><path d="M14.5,10c-0.1,0 -0.3,0 -0.4,-0.1c-0.2,-0.2 -0.2,-0.5 0,-0.7c0.9,-0.9 0.5,-1.9 -0.1,-3.6c-0.5,-1.5 -1.2,-3.2 0.1,-4.5c0.2,-0.2 0.5,-0.2 0.7,0c0.2,0.2 0.2,0.5 0,0.7c-0.8,0.8 -0.5,1.8 0.1,3.4c0.6,1.5 1.2,3.3 -0.1,4.6c1.77636e-15,0.2 -0.2,0.2 -0.3,0.2Z"></path><path d="M19.5,10c-0.1,0 -0.3,0 -0.4,-0.1c-0.2,-0.2 -0.2,-0.5 0,-0.7c0.9,-0.9 0.5,-1.9 -0.1,-3.6c-0.5,-1.5 -1.2,-3.2 0.1,-4.5c0.2,-0.2 0.5,-0.2 0.7,0c0.2,0.2 0.2,0.5 0,0.7c-0.8,0.8 -0.5,1.8 0.1,3.4c0.6,1.5 1.2,3.3 -0.1,4.6c0,0.2 -0.2,0.2 -0.3,0.2Z"></path></g></svg>