<?xml version="1.0" encoding="UTF-8"?><svg version="1.1" viewBox="0 0 27 23" xmlns="http://www.w3.org/2000/svg" xmlns:xlink="http://www.w3.org/1999/xlink"><!--Generated by IJSVG (https://github.com/curthard89/IJSVG)--><g transform="matrix(1,0,0,1,-211,-63)"><g transform="matrix(1,0,0,1,211.696,63.0777)"><path fill="#000" stroke="none" d="M16.7688,9.93865c-0.299196,0 -0.541605,0.242407 -0.541605,0.541605c0,0.298183 0.242407,0.540593 0.541605,0.540593c0.298183,0 0.540593,-0.242407 0.540593,-0.540593c0,-0.299195 -0.242407,-0.541605 -0.540593,-0.541605Z"></path><path fill="#000" stroke="none" d="M25.7226,14.8975l-1.58631,-1.05787l-2.49711,-2.33179c-0.160254,-0.92298 -0.941234,-4.8726 -2.89666,-6.72443c-0.164309,-0.155183 -0.335728,-0.300208 -0.513225,-0.436135c0.332664,-0.358032 0.74447,-0.745483 1.22929,-1.15321c0.984855,-0.828649 1.9271,-1.45345 1.9352,-1.45952c0.16938,-0.111569 0.261676,-0.308335 0.240379,-0.509149c-0.0223136,-0.200824 -0.154168,-0.373248 -0.342817,-0.446288c-0.0709989,-0.0273854 -1.7354,-0.660292 -3.83504,-0.703887c-2.46061,-0.0517276 -4.48495,0.735331 -5.91614,2.28615c-0.097369,-0.00101419 -0.200824,-0.00101419 -0.30631,-0.00101419c-1.40271,0 -3.50944,0.0811408 -5.57652,0.465554c-2.52552,0.470617 -4.37563,1.27899 -5.49732,2.40379c-0.118668,0.118668 -0.175467,0.286031 -0.153152,0.453376l2.16341,16.2261c0.0354994,0.267752 0.264714,0.468592 0.535529,0.468592c2.96988,0 5.56224,-1.02643 6.41623,-1.40476c1.78307,1.19582 3.65043,1.80133 5.55523,1.80133c2.07822,0 3.81063,-0.733305 4.89883,-1.34998c0.856042,-0.48482 1.45345,-0.969639 1.72829,-1.20899h1.95447c0.20488,0 0.392514,-0.11664 0.482794,-0.299195l2.16341,-4.32786c0.122726,-0.243422 0.0446287,-0.53958 -0.182566,-0.690723l0.0001246,-7.64e-05Zm-11.0453,6.79558c-1.76887,0 -3.51645,-0.599429 -5.19094,-1.78206c-0.00405704,-0.0030429 -0.00912828,-0.0050715 -0.0121711,-0.0081141c-0.0101425,-0.0060857 -0.0202852,-0.0121711 -0.0304285,-0.019271c-0.0050715,-0.0020287 -0.00912828,-0.0050712 -0.0141998,-0.0081141c-0.0111567,-0.0050712 -0.0212994,-0.0111569 -0.0324563,-0.0162282c-0.00304259,-0.0020286 -0.00507124,-0.0030428 -0.00912828,-0.004057c-0.015214,-0.0060857 -1.51428,-0.665355 -2.56101,-2.36017c-0.157211,-0.253564 -0.490896,-0.332664 -0.74447,-0.175467c-0.25458,0.157211 -0.332664,0.490896 -0.175467,0.74447c0.651152,1.05382 1.45243,1.76482 2.07012,2.20501c-1.03962,0.391501 -2.81851,0.939208 -4.79834,1.0163l-2.063,-15.4715c2.26891,-2.01634 7.24088,-2.33888 9.7034,-2.36931c-0.0010144,0.172424 0.0801256,0.341804 0.23125,0.4473c0.24545,0.170396 0.582189,0.110554 0.752572,-0.134896c1.23132,-1.76887 3.11477,-2.64428 5.59963,-2.59962c0.963538,0.0172426 1.83885,0.175467 2.47276,0.329627c-0.325576,0.242407 -0.711001,0.541605 -1.10655,0.874296c-1.43924,1.21002 -2.28716,2.25572 -2.52144,3.10672c-0.0801256,0.288056 0.0892549,0.586239 0.377298,0.665355c0.0486845,0.0131853 0.0963538,0.0192708 0.144026,0.0192708c0.237336,0 0.454389,-0.157211 0.521327,-0.397577c0.0456414,-0.166337 0.135911,-0.353982 0.265726,-0.558846c0.154167,0.11664 0.302259,0.241395 0.443224,0.37426c1.90477,1.80234 2.59448,6.24382 2.6017,6.28848c0.0172424,0.120696 0.0760699,0.23125 0.165325,0.314411l2.36931,2.21209l-2.47987,4.95881c-0.404691,0.365121 -2.7536,2.34903 -5.97794,2.34903l-0.0002443,-0.0001464Zm8.24702,-2.56h-0.953411l2.03867,-4.07729l0.715052,0.476693l-0.71809,1.43823h-0.20691c-0.298183,0 -0.540593,0.241395 -0.540593,0.540593c0,0.191695 0.0993969,0.359045 0.249509,0.454389l-0.58423,1.16739Z"></path></g></g></svg>