<?xml version="1.0" encoding="UTF-8"?><svg version="1.1" viewBox="0 0 30 30" xmlns="http://www.w3.org/2000/svg" xmlns:xlink="http://www.w3.org/1999/xlink"><path d="M22,14c-0.276,0 -0.5,0.224 -0.5,0.5c0,5.911 -3.159,11.5 -6.5,11.5c-0.276,0 -0.5,0.224 -0.5,0.5c0,0.276 0.224,0.5 0.5,0.5c3.925,0 7.5,-5.958 7.5,-12.5c0,-0.276 -0.224,-0.5 -0.5,-0.5Zm0.072,-12.236c-0.363,-0.539 -0.956,-0.821 -1.598,-0.755c-0.448,0.047 -0.844,0.273 -1.131,0.608c-1.421,-1.316 -3.111,-1.617 -4.343,-1.617c-1.235,0 -2.928,0.302 -4.351,1.625c-0.292,-0.339 -0.696,-0.568 -1.151,-0.616c-0.634,-0.066 -1.223,0.209 -1.581,0.737c-2.141,3.159 -3.417,7.878 -3.417,12.624c0,7.228 4.586,15.63 10.5,15.63c5.914,0 10.5,-8.402 10.5,-15.631c0,-4.709 -1.281,-9.421 -3.428,-12.605Zm-7.072,-0.764c1.104,0 2.639,0.283 3.868,1.552c-1.494,3.839 -2.678,8.854 -3.615,13.275c-0.085,0.383 -0.169,0.753 -0.253,1.148c-0.068,-0.318 -0.135,-0.614 -0.203,-0.923c-0.944,-4.469 -2.142,-9.591 -3.668,-13.496c1.229,-1.274 2.766,-1.556 3.871,-1.556Zm0,28c-5.262,0 -9.5,-8.004 -9.5,-14.63c0,-4.554 1.213,-9.063 3.245,-12.063c0.177,-0.262 0.424,-0.307 0.573,-0.307c0.029,0 0.054,0.002 0.073,0.004c0.273,0.028 0.497,0.196 0.618,0.446c-0.008,0.078 -0.005,0.157 0.025,0.232c1.217,3.1 2.445,7.499 3.733,13.344c0.252,1.191 0.491,2.348 0.709,3.412l0.033,0.162c0.048,0.233 0.253,0.4 0.49,0.4c0.238,0 0.443,-0.167 0.49,-0.4l0.025,-0.121c0.214,-1.047 0.45,-2.185 0.697,-3.355c1.296,-5.895 2.531,-10.325 3.755,-13.442c0.03,-0.078 0.035,-0.162 0.025,-0.243c0.115,-0.241 0.326,-0.408 0.585,-0.435c0.264,-0.028 0.511,0.089 0.666,0.319c2.039,3.026 3.258,7.529 3.258,12.047c0,6.626 -4.239,14.63 -9.5,14.63Z" fill="#000"></path></svg>