<?xml version="1.0" encoding="UTF-8"?><svg version="1.1" viewBox="0 0 30 30" xmlns="http://www.w3.org/2000/svg" xmlns:xlink="http://www.w3.org/1999/xlink"><g fill="#000"><path d="M0.5,30c-0.131,0 -0.258,-0.051 -0.354,-0.146c-0.136,-0.136 -0.182,-0.337 -0.119,-0.518l9.494,-27.292c0.462,-1.327 1.764,-2.159 3.149,-2.03c9.462,0.895 16.421,7.854 17.317,17.316c0,0 0,0 0,0c0.131,1.393 -0.704,2.688 -2.031,3.149l-27.292,9.493c-0.054,0.019 -0.109,0.028 -0.164,0.028Zm11.883,-29c-0.857,0 -1.629,0.543 -1.917,1.372l-9.154,26.316l26.316,-9.153c0.891,-0.31 1.451,-1.178 1.363,-2.111c-0.85,-8.969 -7.446,-15.566 -16.415,-16.415c-0.064,-0.006 -0.129,-0.009 -0.193,-0.009Z"></path><path d="M25.738,18.642c-0.258,0 -0.477,-0.198 -0.497,-0.459c-0.581,-7.166 -6.202,-12.81 -13.364,-13.419c-0.275,-0.023 -0.479,-0.265 -0.456,-0.541c0.023,-0.276 0.29,-0.481 0.54,-0.456c7.651,0.65 13.656,6.679 14.276,14.334c0.022,0.275 -0.183,0.517 -0.458,0.539c-0.013,0.002 -0.027,0.002 -0.041,0.002Z"></path><path d="M13.064,25.63c-0.144,0 -0.285,-0.062 -0.385,-0.18c-0.851,-1.023 -1.3,-2.246 -1.3,-3.537c0,-3.064 2.493,-5.558 5.559,-5.558c3.064,0 5.558,2.493 5.558,5.558c0,0.025 -0.008,0.109 -0.012,0.134c-0.007,0.276 -0.246,0.492 -0.513,0.483c-0.275,-0.007 -0.494,-0.241 -0.487,-0.517c0.001,-0.021 0.008,-0.095 0.012,-0.116c0,-2.499 -2.045,-4.543 -4.558,-4.543c-2.514,0 -4.559,2.044 -4.559,4.558c0,1.054 0.37,2.056 1.069,2.897c0.176,0.212 0.147,0.528 -0.065,0.704c-0.092,0.079 -0.205,0.117 -0.319,0.117Z"></path><path d="M6.822,27.471c-0.276,0 -0.5,-0.224 -0.5,-0.5c0,-1.816 -1.478,-3.293 -3.293,-3.293c-0.276,0 -0.5,-0.224 -0.5,-0.5c0,-0.276 0.224,-0.5 0.5,-0.5c2.367,0 4.293,1.926 4.293,4.293c0,0.277 -0.223,0.5 -0.5,0.5Z"></path><path d="M7.454,17.355c-0.901,0 -1.796,-0.259 -2.586,-0.749c-0.234,-0.146 -0.307,-0.454 -0.161,-0.688c0.146,-0.235 0.456,-0.307 0.688,-0.162c0.631,0.391 1.343,0.598 2.059,0.598c2.165,0 3.926,-1.761 3.926,-3.926c0,-1.983 -1.495,-3.65 -3.479,-3.878c-0.273,-0.03 -0.47,-0.278 -0.439,-0.552c0.032,-0.275 0.287,-0.473 0.555,-0.439c2.487,0.286 4.363,2.38 4.363,4.872c1.77636e-15,2.715 -2.21,4.924 -4.926,4.924Z"></path></g></svg>