<?xml version="1.0" encoding="UTF-8"?><svg version="1.1" viewBox="0 0 30 30" xmlns="http://www.w3.org/2000/svg" xmlns:xlink="http://www.w3.org/1999/xlink"><g fill="#000"><path d="M0.5,30c-0.1,0 -0.3,-0.1 -0.4,-0.1c-0.1,-0.2 -0.1,-0.4 -0.1,-0.6l12,-29c0.1,-0.2 0.4,-0.3 0.6,-0.3c0.2,0 5.7,1.1 10.8,6.1c5,5 6.6,11 6.6,11.2c0.1,0.2 -0.1,0.5 -0.3,0.6l-29,12c-0.1,0.1 -0.1,0.1 -0.2,0.1Zm12.3,-28.9l-11.4,27.5l27.5,-11.4c-0.4,-1.4 -2.2,-6.3 -6.2,-10.4c-4.1,-4 -8.6,-5.4 -9.9,-5.7Z"></path><path d="M24.5,20c-0.3,0 -0.5,-0.2 -0.5,-0.5c0,-0.1 -0.1,-3.9 -4.9,-8.6c-4.7,-4.8 -8.6,-4.9 -8.6,-4.9c-0.3,0 -0.5,-0.2 -0.5,-0.5c0,-0.3 0.2,-0.5 0.5,-0.5c0.2,0 4.3,0.1 9.4,5.1c5.1,5 5.1,9.2 5.1,9.4c0,0.3 -0.2,0.5 -0.5,0.5Z"></path><path d="M15,17c-1.7,0 -3,-1.3 -3,-3c0,-1.7 1.3,-3 3,-3c1.7,0 3,1.3 3,3c0,1.7 -1.3,3 -3,3Zm0,-5c-1.1,0 -2,0.9 -2,2c0,1.1 0.9,2 2,2c1.1,0 2,-0.9 2,-2c0,-1.1 -0.9,-2 -2,-2Z"></path><path d="M18.6,22.5c-0.1,0 -0.2,0 -0.3,-0.1c-0.8,-0.5 -1.3,-1.4 -1.3,-2.4c0,-1.7 1.3,-3 3,-3c1.7,0 3,1.3 3,3c0,0.2 0,0.3 0,0.5c0,0.2 -0.1,0.3 -0.3,0.4l-3.9,1.6c-0.1,0 -0.2,0 -0.2,0Zm1.4,-4.5c-1.1,0 -2,0.9 -2,2c0,0.6 0.2,1.1 0.6,1.5l3.4,-1.4c0,0 0,0 0,-0.1c0,-1.1 -0.9,-2 -2,-2Z"></path><path d="M10.4,25.9c0,0 -0.1,0 -0.1,0c-1.4,-0.3 -2.3,-1.5 -2.3,-2.9c0,-1.7 1.3,-3 3,-3c1.7,0 3,1.3 3,3c0,0.5 -0.1,1.1 -0.4,1.5c-0.1,0.1 -0.1,0.2 -0.2,0.2l-2.8,1.1c-0.1,0.1 -0.2,0.1 -0.2,0.1Zm0.6,-4.9c-1.1,0 -2,0.9 -2,2c0,0.9 0.5,1.6 1.4,1.9l2.4,-1c0.1,-0.3 0.2,-0.6 0.2,-0.9c0,-1.1 -0.9,-2 -2,-2Z"></path><path d="M2,28c-0.2,0 -0.5,0 -0.8,-0.1c-0.1,0 -0.3,-0.1 -0.3,-0.3c-0.1,-0.1 -0.1,-0.3 0,-0.4l1.9,-4.6c0.1,-0.1 0.2,-0.2 0.3,-0.3c0.1,0 0.3,0 0.4,0c0.9,0.7 1.5,1.6 1.5,2.7c0,1.7 -1.3,3 -3,3Zm1.5,-4.4l-1.4,3.4c1,0 1.9,-0.9 1.9,-2c0,-0.5 -0.2,-1 -0.5,-1.4Z"></path><path d="M8,17c-0.8,0 -1.6,-0.3 -2.2,-0.9c-0.1,-0.1 -0.2,-0.4 -0.1,-0.5l1.7,-4.2c0.2,-0.3 0.3,-0.4 0.5,-0.4c0,0 0,0 0,0c1.7,0 3.1,1.3 3.1,3c0,1.7 -1.3,3 -3,3Zm-1.2,-1.4c0.3,0.3 0.8,0.4 1.2,0.4c1.1,0 2,-0.9 2,-2c0,-1 -0.8,-1.8 -1.7,-2l-1.5,3.6Z"></path></g></svg>