<svg id="Layer_1" data-name="Layer 1" xmlns="http://www.w3.org/2000/svg" viewBox="0 0 30 30"><path d="M28.66,6.92v0H1.44A.47.47,0,0,0,1,7.4a.54.54,0,0,0,.5.5h.19l.91,14.26a1.07,1.07,0,0,0,1.1.94h22.8a1.07,1.07,0,0,0,1.1-.94L28.46,7.9h.19a.5.5,0,0,0,0-1Zm-1.22,1-.61,9.8H3.28L2.66,7.9ZM23.79,22.1h-2.1V18.7h2.1Zm-15.48,0H6.21V18.7h2.1Zm3.09,0H9.31V18.7H11.4Zm3.1,0H12.4V18.7h2.1Zm3.1,0H15.5V18.7h2.1Zm3.09,0H18.6V18.7h2.09Zm-17.13,0s0,0,0,0l-.21-3.4H5.21v3.4H3.56Zm22.89,0H24.79V18.7h2l-.21,3.36A.16.16,0,0,1,26.45,22.1Z"/></svg>