<svg id="Layer_1" data-name="Layer 1" xmlns="http://www.w3.org/2000/svg" viewBox="0 0 30 30"><path d="M28.66,9.42v0H1.44A.47.47,0,0,0,1,9.9a.54.54,0,0,0,.5.5h.19l1.91,9.26a1.07,1.07,0,0,0,1.1.94h20.8a1.07,1.07,0,0,0,1.1-.94l1.91-9.26h.19a.5.5,0,0,0,0-1Zm-14.91,1c-.3.7-.7,1.3-1.1,1.3s-.8-.6-1.1-1.3ZM26,17.59H4.14L3.55,14.7h23Zm-.52,2H4.56s0,0,0,0l-.21-1H25.76l-.2,1A.16.16,0,0,1,25.45,19.6Zm1.3-5.84a.51.51,0,0,0-.25-.06H3.34l-.68-3.3h7.91c.29,1.13,1.11,2.3,2.08,2.3s1.79-1.17,2.08-2.3H27.44Z"/></svg>