<svg id="Layer_1" data-name="Layer 1" xmlns="http://www.w3.org/2000/svg" viewBox="0 0 30 30"><path d="M24.19,5.24A1.17,1.17,0,0,0,23,4.53H7a1.18,1.18,0,0,0-1,.69L5,7.32l0,.22a.71.71,0,0,0,.7.7h.94l2,17.27a1,1,0,0,0,1.1,1h10.8a1,1,0,0,0,1.1-.94L23.49,8.24h.94a.7.7,0,0,0,.7-.7ZM7.6,8.31H22.48l-.35,3.1H8Zm12.84,17.2H9.64c-.06,0-.1,0-.1-.05L9.2,22.51H20.88l-.33,3A.18.18,0,0,1,20.44,25.51Zm.55-4-.15,0H9.24a.66.66,0,0,0-.15,0l-1-9.13H22Zm1.24-14.3V6.62a.5.5,0,0,0-.48-.52.52.52,0,0,0-.52.49v.65H19.55l0-.62a.5.5,0,0,0-.49-.52.51.51,0,0,0-.51.49l0,.65H16.87l0-.62a.5.5,0,0,0-.48-.52.52.52,0,0,0-.52.49l0,.65H14.2V6.62a.5.5,0,0,0-.48-.52.52.52,0,0,0-.52.49v.65H11.52l0-.62a.5.5,0,0,0-.49-.52.51.51,0,0,0-.51.49l0,.65H8.84l0-.62a.5.5,0,0,0-.48-.52.52.52,0,0,0-.52.49l0,.65H6.14l.77-1.62S7,5.54,7,5.53H23c.22,0,.24,0,.26.11L24,7.24Z"/></svg>