<svg viewBox="0 0 30 30" xmlns="http://www.w3.org/2000/svg">
    <path
        d="M24.7 29.7L15 29.2l-9.6 0.5L5 27.4l0-0.1c0-0.1 0.9-8 1-9.5 0-0.9-0.2-4.7-0.4-7.4C5.5 8.7 5.4 7.3 5.4 7c0-0.9-0.2-4-0.2-4l0-0.1 0.5-2.5 9.4 1.1 9.3-1.1L25 2.9 25 3c0 0-0.3 3.1-0.3 4 0 0.3-0.1 1.7-0.2 3.4 -0.2 2.7-0.4 6.5-0.4 7.4 0.1 1.5 0.8 9.4 0.8 9.5l0 0.1L24.7 29.7zM6 27.3l0.3 1.3 8.8-0.5 8.8 0.5 0.2-1.3c-0.1-0.8-0.8-8-0.8-9.5 0-1 0.2-4.6 0.4-7.5 0.1-1.6 0.2-3 0.2-3.3 0-0.8 0.2-3.5 0.3-4l-0.4-1.5 -8.6 1 -8.5-1L6.3 2.9c0 0.5 0.2 3.2 0.2 4 0 0.3 0.1 1.7 0.2 3.3C6.8 13.2 7 16.8 7 17.8 6.9 19.3 6.1 26.4 6 27.3z" />
    <polygon points="14.9 4.6 5.9 3.4 6 2.4 14.9 3.6 24 2.4 24.1 3.4 " />
    <polygon points="5.5 27.8 5.5 26.8 15.5 26.3 24.2 26.7 24.1 27.7 15.5 27.3 " />
    <path d="M6.5 15.3l-0.3-0.9c0.1 0 7.1-2.3 17.3-2.8l0 1C13.5 13 6.6 15.3 6.5 15.3z" />
    <path
        d="M11.8 23.4c-2 0-4.4-0.2-5.4-0.3 -0.2 0-0.4 0-0.4 0l0-1c0 0 0.2 0 0.5 0 1.1 0.1 4.1 0.4 6.2 0.3 1.2 0 2.7-0.3 4.2-0.5 2.4-0.4 4.9-0.8 7-0.6l-0.1 1c-1.9-0.1-4.4 0.2-6.7 0.6 -1.6 0.3-3.1 0.5-4.3 0.5C12.5 23.4 12.1 23.4 11.8 23.4z" />
    <path
        d="M18.2 18.7c-0.1 0-0.1 0-0.2-0.1 -0.1-0.1-0.1-0.3 0-0.4l2.1-2.2c0.1-0.1 0.3-0.1 0.4 0 0.1 0.1 0.1 0.3 0 0.4l-2.1 2.3C18.4 18.7 18.3 18.7 18.2 18.7z" />
    <path
        d="M15 19.4c-0.1 0-0.1 0-0.2-0.1 -0.1-0.1-0.1-0.3 0-0.4l4.7-5c0.1-0.1 0.3-0.1 0.4 0 0.1 0.1 0.1 0.3 0 0.4l-4.7 5C15.2 19.4 15.1 19.4 15 19.4z" />
</svg>
