<?xml version="1.0" encoding="utf-8"?>
<!-- Generator: Adobe Illustrator 23.0.1, SVG Export Plug-In . SVG Version: 6.00 Build 0)  -->
<svg version="1.1" id="Layer_1" xmlns="http://www.w3.org/2000/svg" xmlns:xlink="http://www.w3.org/1999/xlink" x="0px" y="0px"
	 viewBox="0 0 30 30" style="enable-background:new 0 0 30 30;" xml:space="preserve">
<g>
	<path d="M21.7,29.8H7.9c-0.7,0-1.3-0.5-1.3-1.1L4,0.2h21.6L23,28.7C23,29.3,22.4,29.8,21.7,29.8z M5.1,1.2l2.5,27.5
		c0,0.1,0.1,0.2,0.3,0.2h13.8c0.1,0,0.3-0.1,0.3-0.1l2.5-27.5H5.1z"/>
	<rect x="5.1" y="8.2" width="19.2" height="1"/>
	<rect x="7" y="25" width="15.9" height="1"/>
	<path d="M26.3,1.2H3.7c-0.3,0-0.5-0.2-0.5-0.5s0.2-0.5,0.5-0.5h22.6c0.3,0,0.5,0.2,0.5,0.5S26.6,1.2,26.3,1.2z"/>
	<path d="M11.9,4.8C10.9,4.8,9.2,3,9.2,1h1c0,1.6,1.3,2.8,1.8,2.8s1.8-1.2,1.8-2.8h1C14.7,3,13,4.8,11.9,4.8z"/>
</g>
</svg>
