<?xml version="1.0" encoding="UTF-8"?><svg version="1.1" viewBox="0 0 30 30" xmlns="http://www.w3.org/2000/svg" xmlns:xlink="http://www.w3.org/1999/xlink"><path d="M21.682,6.081c-0.169,-0.066 -0.357,-0.036 -0.496,0.077c-0.331,0.268 -1.13,0.526 -2.192,0.581c-0.003,-0.289 -0.007,-0.579 -0.016,-0.882c-0.061,-2.205 -0.017,-3.812 0.907,-4.23l1.26,1.272c0.097,0.099 0.226,0.148 0.355,0.148c0.127,0 0.255,-0.048 0.352,-0.145c0.196,-0.194 0.198,-0.511 0.004,-0.707l-1.357,-1.37c-0.001,-0.001 -0.003,-0.002 -0.005,-0.003c0,0 -0.001,-0.001 -0.001,-0.002l-0.643,-0.63c-0.198,-0.194 -0.515,-0.189 -0.707,0.007c-0.19,0.193 -0.187,0.499 -0.004,0.693c-0.234,0.16 -0.417,0.37 -0.568,0.61c-2.477,-1.793 -6.915,-2.057 -10.956,-0.602c-3.603,1.296 -6.009,3.689 -6.604,6.567c-0.04,0.191 0.036,0.389 0.194,0.504c1.807,1.323 4.292,2.015 6.834,2.015c0.966,0 1.937,-0.113 2.885,-0.316c-1.499,1.973 -2.924,4.677 -2.924,7.879c0,6.776 4.809,12.5 10.5,12.5c5.691,0 10.5,-5.714 10.5,-12.479c0,-5.248 -2.873,-9.758 -7.318,-11.487Zm-3.703,-0.196c0.007,0.285 0.011,0.556 0.015,0.828c-0.485,-0.057 -0.867,-0.166 -1.16,-0.291c0.436,-0.486 0.804,-1.021 1.126,-1.587c0.002,0.351 0.009,0.703 0.019,1.05Zm-15.915,1.466c0.633,-2.389 2.759,-4.387 5.888,-5.512c3.656,-1.316 7.781,-1.13 9.987,0.413c-0.401,1.598 -1.238,2.969 -2.425,4.06c-0.116,0.104 -0.242,0.211 -0.409,0.349c-0.094,0.078 -0.188,0.157 -0.3,0.234c-0.784,0.578 -1.664,1.04 -2.615,1.379c-3.405,1.213 -7.478,0.845 -10.126,-0.923Zm16.436,21.696c-5.149,0 -9.5,-5.267 -9.5,-11.5c0,-3.723 2.212,-6.796 3.595,-8.351c0.065,-0.024 0.134,-0.04 0.199,-0.065c1.263,-0.482 2.361,-1.144 3.278,-1.955c0.555,0.301 1.383,0.584 2.543,0.584c0.623,0 1.206,-0.067 1.721,-0.185c2.352,2.067 2.664,6.93 2.664,10.972c0,0.276 0.224,0.5 0.5,0.5c0.276,0 0.5,-0.224 0.499,-0.5c0,-4.037 -0.315,-8.872 -2.616,-11.351c0.057,-0.03 0.126,-0.053 0.179,-0.085c3.92,1.648 6.438,5.721 6.438,10.457c0,6.223 -4.351,11.479 -9.5,11.479Z" fill="#000"></path></svg>