<?xml version="1.0" encoding="UTF-8"?><svg version="1.1" viewBox="0 0 30 30" xmlns="http://www.w3.org/2000/svg" xmlns:xlink="http://www.w3.org/1999/xlink"><path d="M7.771,19c0.016,0.001 0.031,0.001 0.048,0.001c0.311,0 0.763,-0.095 1.145,-0.243c0.641,-0.247 0.974,-0.589 0.988,-1.014c0.032,-0.93 -1.575,-1.386 -2.09,-1.404c-0.714,-0.038 -1.337,0.552 -1.362,1.285c-0.026,0.733 0.544,1.35 1.271,1.375Zm0.047,-1.662h0.011c0.271,0.01 0.795,0.205 1.034,0.367c-0.251,0.146 -0.787,0.306 -1.058,0.295c-0.176,-0.006 -0.313,-0.159 -0.307,-0.342c0.007,-0.178 0.15,-0.32 0.32,-0.32Zm2.133,4.067c0.032,-0.929 -1.575,-1.385 -2.09,-1.403c-0.353,-0.008 -0.69,0.116 -0.948,0.36c-0.256,0.242 -0.403,0.571 -0.415,0.925c-0.012,0.354 0.113,0.692 0.351,0.951c0.241,0.261 0.568,0.412 0.921,0.424c0.016,0.001 0.031,0.001 0.048,0.001c0.311,0 0.763,-0.095 1.145,-0.243c0.641,-0.248 0.975,-0.59 0.988,-1.015Zm-2.146,0.258c-0.083,-0.003 -0.16,-0.039 -0.218,-0.102c-0.06,-0.065 -0.091,-0.15 -0.088,-0.24c0.003,-0.09 0.04,-0.173 0.104,-0.234c0.059,-0.055 0.135,-0.086 0.215,-0.086h0.01c0.271,0.01 0.794,0.204 1.034,0.367c-0.25,0.146 -0.792,0.302 -1.057,0.295Zm11.336,-6.662c0.014,0 0.027,0 0.04,-0.001c0.726,-0.024 1.296,-0.642 1.271,-1.375c-0.025,-0.733 -0.628,-1.3 -1.363,-1.285c-0.515,0.018 -2.122,0.474 -2.09,1.404c0.032,0.907 1.587,1.257 2.142,1.257Zm-0.017,-1.662c0.166,0.002 0.323,0.137 0.33,0.32c0.006,0.182 -0.132,0.336 -0.307,0.342c-0.267,0.004 -0.807,-0.149 -1.057,-0.295c0.239,-0.163 0.762,-0.358 1.034,-0.367Zm-1.609,-6.244c0.055,-0.722 0.269,-1.049 0.335,-1.136c0.764,-0.362 3.592,-1.814 3.651,-3.44c0.008,-0.223 -0.133,-0.425 -0.346,-0.494c-0.212,-0.069 -0.444,0.012 -0.569,0.197c-0.492,0.734 -1.272,0.879 -1.796,0.876c0.351,-0.701 0.808,-1.81 0.708,-2.656c-0.027,-0.229 -0.206,-0.41 -0.435,-0.438c-0.232,-0.032 -0.448,0.103 -0.529,0.318c-0.198,0.518 -1.223,1.477 -2.121,2.216c-0.119,-0.717 -0.397,-1.688 -1.048,-2.381c-0.189,-0.201 -0.541,-0.201 -0.729,0c-0.652,0.693 -0.929,1.664 -1.048,2.381c-0.898,-0.738 -1.924,-1.697 -2.122,-2.216c-0.082,-0.215 -0.302,-0.344 -0.529,-0.318c-0.228,0.029 -0.408,0.209 -0.435,0.438c-0.1,0.845 0.356,1.952 0.707,2.654c-0.533,0.022 -1.306,-0.144 -1.795,-0.874c-0.123,-0.185 -0.357,-0.265 -0.568,-0.197c-0.213,0.069 -0.354,0.271 -0.346,0.494c0.058,1.623 2.877,3.072 3.647,3.438c0.091,0.111 0.322,0.454 0.355,1.134c-5.161,1.146 -9.003,5.977 -9.003,11.41c0,6.341 5.159,11.5 11.5,11.5c6.341,0 11.5,-5.159 11.503,-11.501c-3.55271e-15,-5.419 -3.834,-10.245 -8.987,-11.405Zm-2.517,21.906c-5.79,0 -10.5,-4.71 -10.5,-10.5c0,-5.099 3.693,-9.616 8.589,-10.508c0.228,-0.041 0.397,-0.233 0.41,-0.463c0.093,-1.617 -0.647,-2.294 -0.731,-2.366c-0.034,-0.03 -0.072,-0.054 -0.113,-0.073c-0.544,-0.252 -1.183,-0.611 -1.744,-1.003c0.661,0.048 1.179,-0.093 1.222,-0.105c0.15,-0.042 0.272,-0.152 0.33,-0.297c0.058,-0.146 0.044,-0.309 -0.037,-0.443c-0.095,-0.157 -0.237,-0.416 -0.383,-0.719c0.747,0.689 1.508,1.267 1.656,1.377c0.152,0.115 0.356,0.132 0.524,0.046c0.17,-0.085 0.276,-0.259 0.276,-0.449c0,-0.014 0.003,-1.21 0.5,-2.138c0.497,0.928 0.5,2.124 0.5,2.138c0,0.19 0.106,0.364 0.276,0.449c0.169,0.085 0.373,0.069 0.524,-0.046c0.148,-0.11 0.909,-0.688 1.656,-1.377c-0.145,0.303 -0.288,0.562 -0.383,0.719c-0.081,0.134 -0.095,0.297 -0.037,0.443c0.058,0.145 0.18,0.255 0.33,0.297c0.045,0.012 0.561,0.153 1.222,0.105c-0.56,0.392 -1.199,0.751 -1.742,1.003c-0.036,0.017 -0.071,0.038 -0.102,0.063c-0.077,0.062 -0.757,0.656 -0.743,2.352c0.002,0.239 0.174,0.444 0.41,0.487c4.897,0.899 8.59,5.417 8.59,10.508c0,5.79 -4.709,10.5 -10.5,10.5Zm1.534,-10.244c0.384,0.149 0.835,0.244 1.146,0.244c0.016,0 0.032,0 0.048,-0.002c0.726,-0.024 1.296,-0.642 1.271,-1.375c-0.025,-0.733 -0.68,-1.316 -1.363,-1.285c-0.515,0.018 -2.122,0.474 -2.09,1.404c0.014,0.425 0.347,0.766 0.988,1.014Zm1.137,-1.418c0.176,-0.013 0.324,0.138 0.33,0.32c0.006,0.182 -0.132,0.336 -0.307,0.342c-0.272,0.013 -0.807,-0.149 -1.057,-0.295c0.24,-0.163 0.763,-0.358 1.034,-0.367Zm2.375,0.404c0.014,0.425 0.347,0.766 0.988,1.014c0.384,0.149 0.835,0.244 1.146,0.244c0.016,0 0.032,0 0.048,-0.002c0.726,-0.024 1.296,-0.642 1.271,-1.375c-0.025,-0.733 -0.661,-1.316 -1.363,-1.285c-0.514,0.018 -2.121,0.474 -2.09,1.404Zm2.125,-0.404c0.159,-0.013 0.323,0.138 0.33,0.32c0.006,0.182 -0.132,0.336 -0.307,0.342c-0.26,0.013 -0.807,-0.149 -1.057,-0.295c0.24,-0.163 0.763,-0.358 1.034,-0.367Zm-11.352,-2.339c0.013,0.001 0.026,0.001 0.04,0.001c0.554,0 2.11,-0.35 2.141,-1.257c0.032,-0.93 -1.575,-1.386 -2.09,-1.404c-0.729,-0.031 -1.337,0.552 -1.362,1.285c-0.026,0.733 0.545,1.35 1.271,1.375Zm0.047,-1.662h0.011c0.271,0.01 0.794,0.205 1.034,0.367c-0.25,0.146 -0.78,0.296 -1.057,0.295c-0.176,-0.006 -0.313,-0.159 -0.307,-0.342c0.005,-0.178 0.148,-0.32 0.319,-0.32Zm8.225,10.502c-0.515,0.018 -2.122,0.474 -2.09,1.404c0.032,0.907 1.588,1.257 2.142,1.257c0.014,0 0.027,0 0.04,-0.001c0.726,-0.024 1.296,-0.642 1.271,-1.375c-0.025,-0.733 -0.629,-1.293 -1.363,-1.285Zm0.057,1.661c-0.267,0.011 -0.807,-0.149 -1.057,-0.295c0.24,-0.163 0.763,-0.358 1.034,-0.367c0.166,0.007 0.323,0.137 0.33,0.32c0.007,0.182 -0.131,0.336 -0.307,0.342Zm-6.784,-5.499c-0.344,-0.008 -0.69,0.116 -0.948,0.36c-0.256,0.242 -0.403,0.571 -0.415,0.925c-0.012,0.354 0.113,0.692 0.351,0.951c0.241,0.261 0.568,0.412 0.921,0.424c0.016,0.001 0.031,0.001 0.048,0.001c0.311,0 0.763,-0.095 1.145,-0.243c0.641,-0.248 0.974,-0.59 0.988,-1.015c0.031,-0.929 -1.576,-1.385 -2.09,-1.403Zm-0.057,1.661c-0.083,-0.003 -0.16,-0.039 -0.218,-0.102c-0.06,-0.065 -0.091,-0.15 -0.088,-0.24c0.003,-0.09 0.04,-0.173 0.104,-0.234c0.059,-0.055 0.135,-0.086 0.215,-0.086h0.01c0.271,0.01 0.794,0.204 1.034,0.367c-0.25,0.146 -0.789,0.302 -1.057,0.295Zm0.057,-5.323c-0.716,-0.038 -1.337,0.552 -1.362,1.285c-0.026,0.733 0.545,1.35 1.271,1.375c0.016,0.001 0.031,0.001 0.048,0.001c0.311,0 0.763,-0.095 1.145,-0.243c0.641,-0.247 0.974,-0.589 0.988,-1.014c0.032,-0.93 -1.575,-1.386 -2.09,-1.404Zm-0.057,1.66c-0.176,-0.006 -0.313,-0.159 -0.307,-0.342c0.006,-0.178 0.149,-0.32 0.319,-0.32h0.011c0.271,0.01 0.795,0.205 1.034,0.367c-0.25,0.146 -0.792,0.306 -1.057,0.295Zm-1.397,5.84c-0.729,-0.032 -1.337,0.552 -1.362,1.285c-0.026,0.733 0.545,1.35 1.271,1.375c0.013,0.001 0.026,0.001 0.04,0.001c0.554,0 2.11,-0.35 2.141,-1.257c0.031,-0.93 -1.576,-1.386 -2.09,-1.404Zm-0.056,1.66c-0.176,-0.006 -0.313,-0.159 -0.307,-0.342c0.006,-0.178 0.149,-0.32 0.319,-0.32h0.011c0.271,0.01 0.794,0.205 1.034,0.367c-0.25,0.146 -0.781,0.304 -1.057,0.295Zm11.282,-5.498c-0.515,0.017 -2.122,0.473 -2.09,1.403c0.014,0.426 0.347,0.767 0.988,1.015c0.383,0.148 0.835,0.243 1.145,0.243c0.017,0 0.033,0 0.048,-0.001c0.353,-0.011 0.68,-0.162 0.921,-0.424c0.239,-0.26 0.363,-0.597 0.351,-0.951c-0.012,-0.354 -0.159,-0.683 -0.415,-0.925c-0.258,-0.244 -0.605,-0.378 -0.948,-0.36Zm0.277,1.559c-0.058,0.063 -0.136,0.099 -0.219,0.102c-0.26,0.007 -0.806,-0.149 -1.057,-0.295c0.239,-0.162 0.763,-0.357 1.034,-0.367c0.095,-0.008 0.164,0.028 0.226,0.086c0.064,0.061 0.101,0.144 0.104,0.234c0.004,0.09 -0.028,0.175 -0.088,0.24Zm-4.686,1.101c0.353,-0.011 0.68,-0.162 0.921,-0.424c0.239,-0.26 0.363,-0.597 0.351,-0.951c-0.012,-0.354 -0.159,-0.683 -0.415,-0.925c-0.258,-0.244 -0.602,-0.378 -0.948,-0.36c-0.515,0.017 -2.122,0.473 -2.09,1.403c0.014,0.426 0.347,0.767 0.988,1.015c0.383,0.148 0.835,0.243 1.145,0.243c0.018,3.55271e-15 0.034,3.55271e-15 0.048,-0.001Zm-0.056,-1.661c0.089,-0.008 0.164,0.028 0.226,0.086c0.064,0.061 0.101,0.144 0.104,0.234c0.003,0.09 -0.028,0.175 -0.088,0.24c-0.058,0.063 -0.136,0.099 -0.219,0.102c-0.272,0.007 -0.807,-0.149 -1.057,-0.295c0.24,-0.162 0.763,-0.357 1.034,-0.367Z" fill="#000"></path></svg>