<?xml version="1.0" encoding="UTF-8"?><svg version="1.1" viewBox="0 0 30 30" xmlns="http://www.w3.org/2000/svg" xmlns:xlink="http://www.w3.org/1999/xlink"><g fill="#000"><path d="M26.5,10.5c-0.151,0 -0.302,-0.069 -0.4,-0.2c-0.165,-0.221 -0.12,-0.534 0.101,-0.7l2,-1.5c0.22,-0.165 0.533,-0.122 0.7,0.1c0.165,0.221 0.12,0.534 -0.101,0.7l-2,1.5c-0.09,0.067 -0.196,0.1 -0.3,0.1Z"></path><path d="M2.5,10.5c-0.104,0 -0.21,-0.033 -0.3,-0.1l-2,-1.5c-0.221,-0.166 -0.265,-0.479 -0.1,-0.7c0.167,-0.222 0.48,-0.265 0.7,-0.1l2,1.5c0.221,0.166 0.266,0.479 0.101,0.7c-0.099,0.131 -0.25,0.2 -0.401,0.2Z"></path><path d="M17.5,4c-0.276,0 -0.5,-0.224 -0.5,-0.5c0,-1.378 -1.121,-2.5 -2.5,-2.5c-1.379,0 -2.5,1.122 -2.5,2.5c0,0.276 -0.224,0.5 -0.5,0.5c-0.276,0 -0.5,-0.224 -0.5,-0.5c0,-1.93 1.57,-3.5 3.5,-3.5c1.93,0 3.5,1.57 3.5,3.5c0,0.276 -0.224,0.5 -0.5,0.5Z"></path><path d="M21.5,30h-14c-3.032,0 -5.5,-2.467 -5.5,-5.5v-16c0,-0.276 0.224,-0.5 0.5,-0.5h24c0.276,0 0.5,0.224 0.5,0.5v16c0,3.033 -2.468,5.5 -5.5,5.5Zm-18.5,-21v15.5c0,2.481 2.019,4.5 4.5,4.5h14c2.481,0 4.5,-2.019 4.5,-4.5v-15.5h-23Z"></path><path d="M7.5,28c-1.93,0 -3.5,-1.57 -3.5,-3.5c0,-0.276 0.224,-0.5 0.5,-0.5c0.276,0 0.5,0.224 0.5,0.5c0,1.378 1.121,2.5 2.5,2.5c0.276,0 0.5,0.224 0.5,0.5c0,0.276 -0.224,0.5 -0.5,0.5Z"></path><path d="M26.5,9h-24c-0.276,0 -0.5,-0.224 -0.5,-0.5v-1c0,-2.481 2.019,-4.5 4.5,-4.5h16c2.481,0 4.5,2.019 4.5,4.5v1c0,0.276 -0.224,0.5 -0.5,0.5Zm-23.5,-1h23v-0.5c0,-1.93 -1.57,-3.5 -3.5,-3.5h-16c-1.93,0 -3.5,1.57 -3.5,3.5v0.5Z"></path></g></svg>