<?xml version="1.0" encoding="UTF-8"?><svg version="1.1" viewBox="0 0 30 30" xmlns="http://www.w3.org/2000/svg" xmlns:xlink="http://www.w3.org/1999/xlink"><g fill="#000"><path d="M26.5,14.5c-0.188,0 -0.367,-0.106 -0.452,-0.287c-0.118,-0.25 -0.011,-0.548 0.239,-0.666l2,-0.941c0.248,-0.118 0.548,-0.01 0.665,0.239c0.118,0.25 0.011,0.548 -0.239,0.666l-2,0.941c-0.068,0.033 -0.142,0.048 -0.213,0.048Z"></path><path d="M3.5,14.5c-0.071,0 -0.145,-0.015 -0.213,-0.048l-2,-0.941c-0.25,-0.118 -0.357,-0.416 -0.239,-0.666c0.117,-0.25 0.418,-0.357 0.665,-0.239l2,0.941c0.25,0.118 0.357,0.416 0.239,0.666c-0.085,0.181 -0.264,0.287 -0.452,0.287Z"></path><path d="M21.5,26.5h-13c-3.032,0 -5.5,-2.467 -5.5,-5.5v-9c0,-0.276 0.224,-0.5 0.5,-0.5h23c0.276,0 0.5,0.224 0.5,0.5v9c0,3.033 -2.468,5.5 -5.5,5.5Zm-17.5,-14v8.5c0,2.481 2.019,4.5 4.5,4.5h13c2.481,0 4.5,-2.019 4.5,-4.5v-8.5h-22Z"></path><path d="M8.5,24.5c-1.93,0 -3.5,-1.57 -3.5,-3.5c0,-0.276 0.224,-0.5 0.5,-0.5c0.276,0 0.5,0.224 0.5,0.5c0,1.378 1.121,2.5 2.5,2.5c0.276,0 0.5,0.224 0.5,0.5c0,0.276 -0.224,0.5 -0.5,0.5Z"></path><path d="M26.5,12.5h-23c-0.276,0 -0.5,-0.224 -0.5,-0.5v-1c0,-2.481 2.019,-4.5 4.5,-4.5h15c2.481,0 4.5,2.019 4.5,4.5v1c0,0.276 -0.224,0.5 -0.5,0.5Zm-22.5,-1h22v-0.5c0,-1.93 -1.57,-3.5 -3.5,-3.5h-15c-1.93,0 -3.5,1.57 -3.5,3.5v0.5Z"></path><path d="M18.5,7.5c-0.276,0 -0.5,-0.224 -0.5,-0.5c0,-1.378 -1.121,-2.5 -2.5,-2.5c-1.379,0 -2.5,1.122 -2.5,2.5c0,0.276 -0.224,0.5 -0.5,0.5c-0.276,0 -0.5,-0.224 -0.5,-0.5c0,-1.93 1.57,-3.5 3.5,-3.5c1.93,0 3.5,1.57 3.5,3.5c0,0.276 -0.224,0.5 -0.5,0.5Z"></path></g></svg>