<?xml version="1.0" encoding="UTF-8"?>
<svg version="1.1" viewBox="0 0 30 30" xmlns="http://www.w3.org/2000/svg" xmlns:xlink="http://www.w3.org/1999/xlink">
    <g transform="matrix(1,0,0,1,0.307617,-0.374512)">
        <path fill="#000" fill-rule="evenodd" stroke="none" d="M24.3224,17.0146c-0.346,0.76 -1.145,1.381 -2.311,1.796c-0.309,0.111 -0.673,0.167 -1.082,0.167c-1.85,0 -4.443,-1.162 -5.784,-2.238c-0.021,-0.018 -0.035,-0.043 -0.037,-0.071c-0.002,-0.027 0.007,-0.054 0.026,-0.074c0.538,-0.596 1.056,-1.195 1.545,-1.767l2.473,-2.583c0.424,-0.145 0.865,-0.218 1.309,-0.218c1.659,0 3.175,1.039 3.772,2.58c0.358,0.75 0.391,1.626 0.089,2.408m-16.142,4.282c-0.548,0.178 -1.116,0.269 -1.688,0.269c-2.366,0 -4.451,-1.512 -5.189,-3.763c-0.434,-1.333 -0.384,-2.534 0.146,-3.474c0.543,-0.962 1.69,-1.707 3.147,-2.044l-0.001,0.002c0.431,-0.104 0.87,-0.158 1.309,-0.161c0.983,0.047 1.927,0.294 2.801,0.734c0.757,0.341 1.553,0.612 2.363,0.804c0.55,0.117 1.144,0.176 1.766,0.176h0.001c1.145,0 2.385,-0.195 3.686,-0.579c0.009,-0.003 0.019,-0.004 0.028,-0.004c0.034,0 0.067,0.017 0.086,0.048c0.023,0.038 0.018,0.087 -0.013,0.121l-0.694,0.734c-3.484,4.067 -6.308,6.668 -7.748,7.137m17.025,-7.045c-0.479,-1.248 -1.454,-2.273 -2.676,-2.811c-0.65,-0.29 -1.341,-0.437 -2.054,-0.437c-0.623,0 -1.234,0.114 -1.871,0.363c-0.118,0.059 -2.929,1.45 -5.761,1.45c-0.551,0 -1.074,-0.053 -1.554,-0.158c-0.745,-0.176 -1.482,-0.426 -2.187,-0.743c-0.953,-0.396 -1.939,-0.805 -3.207,-0.805c-0.489,0 -0.983,0.058 -1.51,0.18c-1.775,0.397 -3.09,1.273 -3.802,2.535c-0.694,1.227 -0.768,2.63 -0.226,4.29c0.001,0.005 0.003,0.01 0.003,0.016c0.537,1.632 1.674,2.96 3.206,3.741c0.905,0.462 1.922,0.707 2.939,0.707c0.676,0 1.346,-0.106 1.99,-0.315c1.289,-0.42 3.246,-2.024 5.816,-4.768c0.02,-0.021 0.046,-0.031 0.073,-0.031c0.022,0 0.045,0.007 0.063,0.023c1.504,1.233 4.341,2.508 6.484,2.508c0.53,0 1.008,-0.075 1.421,-0.223c1.445,-0.517 2.418,-1.302 2.893,-2.329c0.428,-1.015 0.413,-2.178 -0.04,-3.193"></path>
        <path fill="#000" fill-rule="evenodd" stroke="none" d="M28.5421,10.5487v0.003c-0.136,0.379 -0.421,0.687 -0.787,0.85c-0.483,0.124 -0.994,0.058 -1.429,-0.186c-0.864,-0.41 -1.562,-2.122 -1.717,-3.114l1.126,-0.08l1.863,-0.054c0.948,0.477 1.361,1.606 0.944,2.581m-8.422,-3.631c-0.656,-0.33 -1.151,-0.907 -1.38,-1.602c-0.228,-0.697 -0.171,-1.455 0.161,-2.108c0.237,-0.555 0.697,-0.984 1.267,-1.18c0.145,-0.04 0.296,-0.061 0.445,-0.061c0.496,0.016 0.977,0.17 1.389,0.445c0.617,0.391 1.071,0.994 1.277,1.694c0.164,0.428 0.367,0.84 0.609,1.229c0.502,0.73 1.162,1.338 1.93,1.78h-0.133c-2.833,0.231 -4.863,0.146 -5.565,-0.197m9.286,1.775c-0.277,-0.714 -0.826,-1.29 -1.526,-1.597h-0.049c-0.035,0 -2.225,-0.73 -3.186,-2.225c-0.213,-0.344 -0.394,-0.707 -0.538,-1.084c-0.277,-0.875 -0.854,-1.622 -1.629,-2.11c-0.74,-0.52 -1.668,-0.701 -2.55,-0.494c-0.813,0.257 -1.475,0.85 -1.824,1.629c-0.904,1.797 -0.183,3.985 1.611,4.894c0.676,0.342 2.024,0.476 4.004,0.413c0.165,1.241 0.987,3.311 2.224,3.899c0.43,0.213 0.901,0.33 1.38,0.342c0.252,0.002 0.503,-0.042 0.739,-0.129c0.596,-0.246 1.064,-0.73 1.29,-1.334c0.309,-0.699 0.328,-1.492 0.054,-2.204"></path>
        <path fill="#000" fill-rule="evenodd" stroke="none" d="M22.1308,24.5824c-1.099,0 -2.554,0.743 -3.236,1.271l0.838,0.952l1.452,1.454c0.22,0.069 0.437,0.102 0.655,0.102c0.931,0 1.773,-0.588 2.095,-1.462c0.182,-0.412 0.187,-0.884 0.015,-1.297c-0.3,-0.476 -0.761,-0.811 -1.3,-0.947c-0.149,-0.048 -0.324,-0.073 -0.519,-0.073m-8.584,-1.315c-0.508,0 -1.012,0.128 -1.459,0.369c-0.722,0.392 -1.247,1.04 -1.48,1.824c-0.232,0.628 -0.187,1.329 0.123,1.923c0.088,0.145 0.193,0.277 0.315,0.392c0.412,0.366 0.917,0.608 1.461,0.701c0.211,0.042 0.425,0.062 0.639,0.062c0.59,0 1.172,-0.157 1.684,-0.454c0.455,-0.218 0.93,-0.394 1.412,-0.52c0.445,-0.095 0.902,-0.144 1.359,-0.144c0.512,0 1.025,0.061 1.524,0.181l-0.086,-0.141c-2.047,-2.281 -3.773,-3.8 -4.615,-4.064c-0.285,-0.085 -0.58,-0.129 -0.877,-0.129m-0.383,6.194c-0.276,0 -0.553,-0.028 -0.824,-0.081c-0.981,-0.144 -1.856,-0.7 -2.4,-1.526c-0.451,-0.812 -0.533,-1.784 -0.226,-2.666c0.505,-1.679 2.079,-2.851 3.829,-2.851c0.384,0 0.768,0.056 1.14,0.167c0.786,0.233 1.967,1.141 3.51,2.696c0.981,-0.767 2.632,-1.546 3.951,-1.546c0.292,0 0.558,0.039 0.793,0.115c0.498,0.152 0.967,0.417 1.356,0.766c0.201,0.188 0.366,0.408 0.489,0.656c0.286,0.641 0.294,1.379 0.021,2.025c-0.282,0.795 -0.855,1.432 -1.615,1.794c-0.421,0.2 -0.889,0.306 -1.355,0.306c-0.362,0 -0.718,-0.062 -1.059,-0.183c-0.073,-0.073 -1.631,-0.788 -3.239,-0.788c-0.376,0 -0.729,0.04 -1.049,0.118c-0.436,0.115 -0.859,0.27 -1.258,0.463c-0.63,0.35 -1.344,0.535 -2.064,0.535"></path>
    </g>
</svg>