<?xml version="1.0" encoding="UTF-8"?><svg version="1.1" viewBox="0 0 30 30" xmlns="http://www.w3.org/2000/svg" xmlns:xlink="http://www.w3.org/1999/xlink"><path d="M14.488,5.995c-0.276,0 -0.5,0.224 -0.5,0.5c0,0.276 0.224,0.5 0.5,0.5c0.827,0 1.5,0.673 1.5,1.5c0,0.276 0.224,0.5 0.5,0.5c0.276,0 0.5,-0.224 0.5,-0.5c0,-1.378 -1.122,-2.5 -2.5,-2.5Zm-8,8c-0.276,0 -0.5,0.224 -0.5,0.5c0,0.276 0.224,0.5 0.5,0.5c0.827,0 1.5,0.673 1.5,1.5c0,0.276 0.224,0.5 0.5,0.5c0.276,0 0.5,-0.224 0.5,-0.5c0,-1.378 -1.122,-2.5 -2.5,-2.5Zm0,9c-0.276,0 -0.5,0.224 -0.5,0.5c0,0.276 0.224,0.5 0.5,0.5c0.827,0 1.5,0.673 1.5,1.5c0,0.276 0.224,0.5 0.5,0.5c0.276,0 0.5,-0.224 0.5,-0.5c0,-1.378 -1.122,-2.5 -2.5,-2.5Zm20.695,-20.014c-2.354,-2.355 -5.994,-3.384 -9.979,-2.832c-4.043,0.563 -8.031,2.634 -11.229,5.832c-6.561,6.56 -7.935,16.271 -3,21.207c1.845,1.845 4.359,2.808 7.24,2.808c0.809,0 1.647,-0.076 2.509,-0.23c3.832,-0.684 7.724,-2.843 10.959,-6.078c3.236,-3.234 5.394,-7.126 6.079,-10.958c0.7,-3.923 -0.215,-7.385 -2.579,-9.749Zm1.593,9.574c-0.649,3.633 -2.709,7.336 -5.801,10.427c-3.092,3.092 -6.796,5.152 -10.428,5.801c-3.592,0.642 -6.74,-0.176 -8.865,-2.301c-4.551,-4.552 -3.177,-13.616 3,-19.793c3.045,-3.045 6.83,-5.015 10.659,-5.548c0.662,-0.093 1.313,-0.138 1.948,-0.138c2.887,0 5.439,0.939 7.186,2.686c2.125,2.126 2.943,5.275 2.301,8.866Zm-5.288,-6.56c-0.276,0 -0.5,0.224 -0.5,0.5c0,0.276 0.224,0.5 0.5,0.5c0.827,0 1.5,0.673 1.5,1.5c0,0.276 0.224,0.5 0.5,0.5c0.276,0 0.5,-0.224 0.5,-0.5c0,-1.378 -1.122,-2.5 -2.5,-2.5Zm-5,10c-0.276,0 -0.5,0.224 -0.5,0.5c0,0.276 0.224,0.5 0.5,0.5c0.827,0 1.5,0.673 1.5,1.5c0,0.276 0.224,0.5 0.5,0.5c0.276,0 0.5,-0.224 0.5,-0.5c0,-1.378 -1.122,-2.5 -2.5,-2.5Z" fill="#000"></path></svg>