<svg xmlns="http://www.w3.org/2000/svg" viewBox="0 0 30 30"><path d="M9.4 16.3C4.7 16.3.9 12.5.9 7.8v-.5l.5-.1h26.2A1.79 1.79 0 0 1 29.4 9a1.79 1.79 0 0 1-1.8 1.8H17.3c-1.3 3.3-4.4 5.5-7.9 5.5zM1.9 8.2c.2 4 3.5 7.1 7.5 7.1 3.2 0 6-2 7.1-5.1l.1-.3h11c.5 0 .8-.4.8-.8s-.4-.9-.8-.9H1.9z"/><path d="M16.3 8.1h-1c0-2.4-4.9-6.9-6.9-6.9-2.1 0-6.1 4.6-6.1 6.5h-1C1.3 5.3 5.8.2 8.4.2s7.9 4.9 7.9 7.9z"/><circle cx="9.3" cy="17.5" r=".5"/><circle cx="12.2" cy="23.2" r=".5"/><circle cx="8.2" cy="23.2" r=".5"/><circle cx="6" cy="23.2" r=".5"/><circle cx="11.2" cy="21.4" r=".5"/><circle cx="7" cy="21.3" r=".5"/><circle cx="10.2" cy="19.4" r=".5"/><circle cx="8.2" cy="19.4" r=".5"/><circle cx="13.9" cy="27.1" r=".5"/><circle cx="6" cy="27.1" r=".5"/><circle cx="10.2" cy="27.1" r=".5"/><circle cx="8.2" cy="27.1" r=".5"/><circle cx="11.4" cy="25.1" r=".5"/><circle cx="9.3" cy="25.1" r=".5"/><circle cx="5.2" cy="25.1" r=".5"/><circle cx="9.2" cy="29" r=".5"/><circle cx="11.4" cy="29" r=".5"/><circle cx="7.1" cy="29" r=".5"/><circle cx="6" cy="4.3" r=".5"/><circle cx="7.8" cy="5" r=".5"/><circle cx="6.2" cy="6.3" r=".5"/></svg>