<?xml version="1.0" encoding="UTF-8"?><svg version="1.1" viewBox="0 0 29 30" xmlns="http://www.w3.org/2000/svg" xmlns:xlink="http://www.w3.org/1999/xlink"><!--Generated by IJSVG (https://github.com/curthard89/IJSVG)--><g transform="matrix(1,0,0,1,-180,-30)"><g transform="matrix(1,0,0,1,180.355,30)"><path fill="#000" stroke="none" d="M28.4684,15.4767c-0.34514,-4.50945 -4.03895,-8.10041 -8.60753,-8.3137v-0.0112373h-13.4832h-0.0144477c-0.998507,-0.415767 -1.65505,-1.01458 -1.94244,-1.78673c-0.526521,-1.41107 0.3018,-2.98266 0.309826,-2.99873c0.112373,-0.207086 0.0353166,-0.467137 -0.171768,-0.579534c-0.207086,-0.112373 -0.467137,-0.0353166 -0.579534,0.171768c-0.041737,0.0770548 -1.02099,1.91996 -0.361196,3.69863c0.178188,0.481603 0.462329,0.905384 0.839589,1.27623c-0.993699,-0.252033 -1.76425,-0.722384 -2.29558,-1.40947c-1.45763,-1.88786 -0.709562,-4.83534 -0.70311,-4.86575c0.0593959,-0.227955 -0.0770548,-0.462329 -0.30501,-0.521712c-0.226348,-0.057789 -0.462329,0.0754479 -0.521712,0.30501c-0.0369218,0.136451 -0.863671,3.37759 0.849205,5.6026c0.940726,1.22005 2.45129,1.87019 4.48192,1.94885c0.208689,3.56059 3.10948,6.41014 6.69411,6.53671c0.0561863,0.0272901 0.118792,0.0449507 0.186214,0.0449507c3.60871,0 5.96384,0.889356 6.99452,2.64234c1.395,2.37103 0.0305006,5.75014 -0.52011,6.91397c-0.532973,-1.07877 -2.16234,-2.7194 -7.14863,-2.7194c-0.235981,0 -0.42863,0.19103 -0.42863,0.42863c0,2.04518 1.96488,3.18493 3.18814,3.69703c-0.911836,0.590753 -2.18322,1.75299 -2.18322,3.63444c0,0.235981 0.19103,0.42863 0.42863,0.42863c3.87842,0 6.30082,-2.26829 6.39411,-4.41945c4.93151,-0.0449507 8.93178,-4.06944 8.93178,-9.01233c-0.0032104,-0.234374 -0.0144477,-0.463932 -0.0321057,-0.69189l0.0001315,0.0001249Zm-14.8348,13.2534c0.292167,-1.97453 2.48503,-2.8687 2.50911,-2.87832c0.171769,-0.0674219 0.280927,-0.23919 0.269692,-0.423781c-0.0112356,-0.18459 -0.138057,-0.34193 -0.317852,-0.388484c-0.0321058,-0.0080268 -3.0517,-0.826726 -3.453,-2.76756c5.79822,0.131634 6.0711,2.68245 6.07931,2.78844c-0.0080268,1.48011 -1.77226,3.49636 -5.08726,3.66974l-4.2e-06,-3.7e-05Zm-6.81288,-20.7214h12.1697c-0.219929,3.16405 -2.86549,5.67164 -6.08425,5.67164c-3.22023,-0.0016052 -5.86562,-2.50751 -6.08589,-5.67164h0.00041096Zm12.6596,7.49178c-0.919849,-0.767342 -2.17841,-1.28905 -3.76607,-1.56037c2.31325,-1.02579 3.9667,-3.27485 4.13219,-5.92192c1.82684,0.0898973 3.49796,0.776959 4.81931,1.86699c-0.0032104,0.0337114 -0.0032104,0.0674219 0.0016056,0.10274c0.223138,1.4769 -0.23919,2.69852 -1.49934,3.95708c-0.976027,0.979233 -2.55727,1.48011 -3.68741,1.55556l-0.0002905,-8.22e-05Zm0.707959,8.7937c0.433438,-0.947137 1.13014,-2.76916 1.11732,-4.64877c0.542589,0.134844 1.18632,0.215112 1.83325,0.215112c0.717575,0 1.43675,-0.0979233 2.0227,-0.325878c0.943932,-0.367615 1.75779,-1.11567 2.3566,-1.95847c-0.630904,3.6023 -3.62959,6.40027 -7.32986,6.71836v-0.0003575Zm4.66356,-5.5574c-1.00171,0.391693 -2.62307,0.314638 -3.61196,0.0032104c-0.0947137,-0.674219 -0.300193,-1.33882 -0.663,-1.95526c-0.105949,-0.178188 -0.224741,-0.346747 -0.351563,-0.510493c1.20559,-0.211899 2.59738,-0.770548 3.54933,-1.72249c1.19597,-1.19433 1.78027,-2.41759 1.80115,-3.78855c1.14296,1.28104 1.88462,2.92167 2.03552,4.72603c-0.346747,1.19758 -1.41588,2.7226 -2.75951,3.24752l2.87e-05,3.61e-05Z"></path><path fill="#000" stroke="none" d="M14.0096,10.3977c0,1.53148 -2.29558,1.53148 -2.29558,0c0,-1.52988 2.29558,-1.52988 2.29558,0"></path></g></g></svg>