<svg id="Ebene_1" data-name="Ebene 1" xmlns="http://www.w3.org/2000/svg" viewBox="0 0 30 30"><g id="Page-1"><g id="Artboard"><g id="np_prawn_743617_000000" data-name="np prawn 743617 000000"><path id="Shape" d="M29.32,15.48a9.06,9.06,0,0,0-8.6-8.32H7.22A3.19,3.19,0,0,1,5.28,5.37a4.11,4.11,0,0,1,.31-3,.43.43,0,0,0-.18-.58A.42.42,0,0,0,4.83,2a5,5,0,0,0-.36,3.7,3.57,3.57,0,0,0,.84,1.27A4,4,0,0,1,3,5.52C1.56,3.64,2.31.69,2.31.66A.42.42,0,0,0,1.49.44c0,.14-.87,3.38.85,5.6A5.62,5.62,0,0,0,6.82,8a7,7,0,0,0,6.69,6.54.41.41,0,0,0,.19,0c3.61,0,6,.89,7,2.65,1.4,2.37,0,5.75-.52,6.91C19.64,23.05,18,21.41,13,21.41a.42.42,0,0,0-.42.43c0,2.05,2,3.19,3.18,3.7a4.36,4.36,0,0,0-2.18,3.63.43.43,0,0,0,.43.43c3.88,0,6.3-2.27,6.39-4.42a9,9,0,0,0,8.94-9c0-.24,0-.47,0-.69ZM14.49,28.73A4.24,4.24,0,0,1,17,25.85a.43.43,0,0,0,.27-.42A.43.43,0,0,0,17,25s-3-.83-3.45-2.77c5.79.13,6.07,2.68,6.08,2.79,0,1.48-1.78,3.5-5.09,3.67ZM7.68,8H19.85A6.11,6.11,0,0,1,7.67,8ZM20.33,15.5a7.73,7.73,0,0,0-3.76-1.56A7,7,0,0,0,20.7,8a8.19,8.19,0,0,1,4.82,1.87V10A4.34,4.34,0,0,1,24,14a6.12,6.12,0,0,1-3.68,1.55ZM21,24.29a11.48,11.48,0,0,0,1.12-4.64,8.06,8.06,0,0,0,1.83.21,5.73,5.73,0,0,0,2-.33,5.41,5.41,0,0,0,2.35-2A8.16,8.16,0,0,1,21,24.29Zm4.67-5.55a6.37,6.37,0,0,1-3.62,0,5.29,5.29,0,0,0-.66-2,5.16,5.16,0,0,0-.35-.51,6.8,6.8,0,0,0,3.55-1.72,5.33,5.33,0,0,0,1.8-3.79,8.11,8.11,0,0,1,2,4.73,5.32,5.32,0,0,1-2.76,3.25Z"/><path d="M14.86,10.4a1.15,1.15,0,1,1-2.29,0,1.15,1.15,0,1,1,2.29,0"/></g></g></g></svg>