<svg xmlns="http://www.w3.org/2000/svg" viewBox="0 0 30 30"><path d="M24.1 5c-2.5-1.1-5.4-.9-7.2.5-.7.5-1.4 1.3-1.9 2.6-.5-1.2-1.2-2-1.9-2.5-1.8-1.5-4.7-1.7-7.2-.6C2.3 6.5.3 9.5.3 13.2c0 5 3.1 13.5 14.8 13.5h.4c6.6 0 14.3-3.6 14.3-13.5-.1-3.7-2.1-6.7-5.7-8.2zm-8.7 20.7H15c-10.9 0-13.8-7.9-13.8-12.5 0-3.3 1.8-6 5-7.3 2.3-.9 4.8-.8 6.3.4 1.5 1.1 2.1 3 1.9 5.6-.3 2.4-2.2 3.7-4 3.6-1.4 0-3.1-.9-3.2-3.2-.1-1.4.4-2.4 1.3-3 1-.7 2.3-.6 3.1-.2.4.2.8.6.8 1.2a.47.47 0 0 0 .5.5.47.47 0 0 0 .5-.5c0-.9-.5-1.6-1.4-2.1-1.2-.7-2.9-.6-4.1.2-1.3.8-1.9 2.2-1.8 3.9.2 2.8 2.2 4.1 4.2 4.2 1.8 0 3.8-1 4.7-3.1.8 2.1 2.8 3.1 4.7 3.1 2 0 4-1.4 4.2-4.2.1-1.7-.5-3.1-1.7-3.9s-2.9-.9-4.1-.2c-.9.5-1.4 1.2-1.4 2.1a.47.47 0 0 0 .5.5.47.47 0 0 0 .5-.5c0-.6.5-1 .8-1.2.8-.4 2.1-.5 3.1.2.9.6 1.4 1.6 1.3 3-.1 2.3-1.8 3.2-3.2 3.2-1.8 0-3.8-1.2-4-3.6-.3-2.5.4-4.4 1.9-5.6 1.6-1.2 4-1.3 6.2-.4 3.2 1.3 5 4 5 7.3-.1 2.1-.7 12.5-13.4 12.5zm-.2-2c-3.7 0-6.8-1.4-9.3-4.2-.2-.2-.2-.5 0-.7s.5-.2.7 0c2.3 2.6 5.1 3.8 8.5 3.8 3.3 0 5.8-1.2 8.2-3.8.2-.2.5-.2.7 0s.2.5 0 .7c-2.4 2.9-5.2 4.2-8.8 4.2z"/></svg>