<?xml version="1.0" encoding="UTF-8"?><svg version="1.1" viewBox="0 0 30 30" xmlns="http://www.w3.org/2000/svg" xmlns:xlink="http://www.w3.org/1999/xlink"><path d="M21.5,9h-4.5v-2c0,-0.941 0.273,-2.2 1.575,-2.85c0.071,-0.036 0.132,-0.087 0.179,-0.151l0.148,-0.202c0.125,-0.17 0.13,-0.399 0.014,-0.574c-0.182,-0.273 -0.215,-0.657 -0.215,-1.313c0,-0.433 0.089,-0.858 0.25,-1.194c0.091,-0.192 0.051,-0.422 -0.101,-0.572c-0.152,-0.151 -0.384,-0.188 -0.574,-0.091l-3,1.5c-1.532,0.766 -2.276,1.893 -2.276,3.447v3.287c-1.054,-0.454 -2.567,-1.405 -3.919,-2.496c0.173,-0.249 0.312,-0.533 0.414,-0.85c0.518,-1.612 -0.067,-3.741 -1.253,-4.557c-0.78,-0.536 -1.712,-0.452 -2.555,0.226c-0.546,0.439 -0.753,1.053 -0.599,1.779c0.221,1.041 1.227,2.267 2.489,3.408c-0.279,0.133 -0.633,0.212 -1.068,0.203c-2.982,-0.058 -3.988,-0.678 -4.322,-1.042c-0.191,-0.208 -0.193,-0.368 -0.195,-0.368c0,0 -0.001,0 -0.001,0.001c0.051,-0.271 -0.128,-0.532 -0.399,-0.583c-0.268,-0.046 -0.532,0.128 -0.583,0.4c-0.018,0.093 -0.082,0.588 0.362,1.134c0.745,0.916 2.468,1.406 5.119,1.458c0.737,0.012 1.38,-0.166 1.893,-0.515c1.294,1.053 2.719,1.967 3.815,2.515h-3.698c-4.865,0 -8.5,5.016 -8.5,9.5v1c0,4.756 3.792,10.5 8.5,10.5h13c4.787,0 8.5,-5.375 8.5,-10v-1c0,-4.625 -3.713,-10 -8.5,-10Zm-12.957,-4.365c-0.053,0.165 -0.127,0.338 -0.231,0.503c-1.155,-1.032 -2.065,-2.114 -2.246,-2.958c-0.095,-0.449 0.082,-0.658 0.247,-0.79c0.296,-0.238 0.572,-0.357 0.834,-0.357c0.183,0 0.359,0.058 0.528,0.175c0.829,0.571 1.251,2.236 0.868,3.427Zm5.457,0.365c0,-1.169 0.531,-1.957 1.723,-2.553l2.003,-1.001c-0.016,0.151 -0.025,0.307 -0.025,0.464c0,0.541 0.017,1.037 0.184,1.477c-1.218,0.717 -1.885,1.989 -1.885,3.613v1.5h-2v-3.5Zm-5.5,24c-4.039,0 -7.5,-5.224 -7.5,-9.5v-1c0,-4.012 3.207,-8.5 7.5,-8.5h2.122c-3.382,1.646 -5.622,5.186 -5.622,9.5c0,4.315 2.24,7.854 5.622,9.5h-2.122Zm-2.5,-9.5c0,-4.753 2.98,-8.478 7.177,-9.32c-2.031,2.433 -3.177,5.749 -3.177,9.32c0,3.571 1.145,6.888 3.176,9.319c-4.196,-0.841 -7.176,-4.566 -7.176,-9.319Zm9.314,9.485c-0.105,0.003 -0.207,0.015 -0.314,0.015c-0.107,0 -0.209,-0.012 -0.314,-0.016c-2.345,-2.287 -3.686,-5.73 -3.686,-9.484c0,-3.754 1.341,-7.196 3.686,-9.484c0.105,-0.003 0.207,-0.016 0.314,-0.016c0.107,0 0.209,0.012 0.314,0.016c2.345,2.288 3.686,5.73 3.686,9.484c0,3.754 -1.341,7.197 -3.686,9.485Zm4.686,-9.485c0,-3.571 -1.145,-6.888 -3.176,-9.319c4.196,0.842 7.176,4.567 7.176,9.319c0,4.753 -2.98,8.478 -7.177,9.32c2.031,-2.432 3.177,-5.748 3.177,-9.32Zm9,0.5c0,4.077 -3.346,9 -7.5,9h-2.122c3.382,-1.646 5.622,-5.185 5.622,-9.5c0,-4.315 -2.24,-7.854 -5.622,-9.5h2.122c4.154,0 7.5,4.923 7.5,9v1Z" fill="#000"></path></svg>