<?xml version="1.0" encoding="utf-8"?>
<!-- Generator: Adobe Illustrator 23.0.1, SVG Export Plug-In . SVG Version: 6.00 Build 0)  -->
<svg version="1.1" id="Layer_1" xmlns="http://www.w3.org/2000/svg" xmlns:xlink="http://www.w3.org/1999/xlink" x="0px" y="0px"
	 viewBox="0 0 30 30" style="enable-background:new 0 0 30 30;" xml:space="preserve">
<g>
	<path d="M28.9,3.5c-0.3-0.4-0.8-0.6-1.3-0.7c-0.5,0-1,0.1-1.4,0.5l-17.6,15H3.2c-1,0-1.9,0.9-1.9,1.9c0,1,0.9,1.9,1.9,1.9h6.1
		c0.3,0,0.7-0.1,0.9-0.3l0,0l0.1,0c0.1-0.1,0.3-0.2,0.4-0.3l18-15.3c0.4-0.3,0.6-0.8,0.7-1.3S29.2,3.9,28.9,3.5z M28.1,5.4L9.7,21
		c-0.1,0.1-0.3,0.2-0.5,0.2H3.2c-0.5,0-0.9-0.4-0.9-0.9c0-0.5,0.4-0.9,0.9-0.9H9L26.9,4.1c0.2-0.2,0.4-0.2,0.7-0.2
		c0.2,0,0.5,0.1,0.6,0.3C28.5,4.5,28.4,5.1,28.1,5.4z"/>
	<path d="M11.8,22.5l-3.3-1.2H4.1L1,22.4c-0.3,0.1-0.4,0.4-0.3,0.6c0.1,0.3,0.4,0.4,0.6,0.3l2.3-0.8l-2.2,1.6
		c-0.2,0.2-0.3,0.5-0.1,0.7c0.2,0.2,0.5,0.3,0.7,0.1l2-1.5l-1.5,2c-0.2,0.2-0.1,0.5,0.1,0.7s0.5,0.1,0.7-0.1l1.4-2L4,26.4
		C4,26.7,4.1,27,4.4,27.1C4.6,27.1,4.9,27,5,26.7l0.9-2.6l0,2.5c0,0.1,0.1,0.3,0.1,0.4c0.1,0.1,0.2,0.2,0.4,0.2
		c0.3,0,0.5-0.2,0.5-0.5l0-2.5l0.8,2.6c0.1,0.3,0.4,0.4,0.6,0.3c0.3-0.1,0.4-0.4,0.3-0.6l-0.7-2.4l1.4,2c0.2,0.2,0.5,0.3,0.7,0.1
		c0.2-0.2,0.3-0.5,0.1-0.7l-1.4-2l2,1.5c0.2,0.2,0.5,0.1,0.7-0.1c0.2-0.2,0.1-0.5-0.1-0.7l-2.2-1.7l2.3,0.8c0.3,0.1,0.5,0,0.6-0.3
		C12.1,22.9,12,22.6,11.8,22.5z"/>
</g>
</svg>
