<?xml version="1.0" encoding="UTF-8"?>
<svg viewBox="0 0 30 30" version="1.1" xmlns="http://www.w3.org/2000/svg" xmlns:xlink="http://www.w3.org/1999/xlink">
    <g id="Page-1" stroke="none" stroke-width="1" fill="none" fill-rule="evenodd">
        <g id="Outlines_black-Copy" transform="translate(-480.000000, -114.000000)">
            <g id="Group-3" transform="translate(3.000000, 114.000000)" fill="#000000" fill-rule="nonzero">
                <path d="M492.322642,19.2679245 C489.261478,19.2679245 487.477358,16.4789554 487.477358,11.909434 C487.477358,7.65993019 489.28142,5.02641509 492.322642,5.02641509 C495.363863,5.02641509 497.167925,7.65993019 497.167925,11.909434 C497.167925,16.4789554 495.383805,19.2679245 492.322642,19.2679245 Z M492.322642,18.1358491 C494.625518,18.1358491 496.035849,15.9311942 496.035849,11.909434 C496.035849,8.21411015 494.627669,6.15849057 492.322642,6.15849057 C490.017614,6.15849057 488.609434,8.21411015 488.609434,11.909434 C488.609434,15.9311942 490.019765,18.1358491 492.322642,18.1358491 Z M500.473585,25.3811321 C498.322149,25.3811321 496.393401,24.688761 495.360151,23.2422103 C495.138118,22.9313642 495.281418,22.4943541 495.644405,22.3753418 C499.650589,21.0618389 502.013208,17.3124661 502.013208,11.909434 C502.013208,5.14795884 498.270934,1.13207547 492.322642,1.13207547 C486.362409,1.13207547 482.632075,5.12634756 482.632075,11.909434 C482.632075,17.6721712 485.343914,21.5834767 489.799382,22.5990612 C489.970336,22.6380289 490.113581,22.7540225 490.187245,22.9131376 C491.908706,26.6314916 495.323107,28.8679245 499.79434,28.8679245 C501.23709,28.8679245 502.482835,28.6553796 503.346896,28.3030952 L502.577082,25.1211995 C501.923445,25.2879202 501.200605,25.3811321 500.473585,25.3811321 Z M500.473585,24.2490566 C501.302909,24.2490566 502.125929,24.1091431 502.799802,23.8732877 C503.115803,23.7626873 503.45823,23.9490336 503.536958,24.2744427 L504.555826,28.4857634 C504.616329,28.7358419 504.500558,28.9952651 504.274019,29.1172478 C503.236237,29.6760533 501.645087,30 499.79434,30 C494.976994,30 491.22022,27.6035082 489.27854,23.6378407 C484.434955,22.4030151 481.5,18.0588225 481.5,11.909434 C481.5,4.51776066 485.71923,0 492.322642,0 C498.91471,0 503.145283,4.53988381 503.145283,11.909434 C503.145283,17.4143396 500.814411,21.4520179 496.806741,23.1479653 C497.671463,23.8739467 498.995524,24.2490566 500.473585,24.2490566 Z" id="Q-Copy-2"></path>
            </g>
            <g id="Slices" transform="translate(0.000000, 114.000000)"></g>
        </g>
    </g>
</svg>