<?xml version="1.0" encoding="UTF-8"?>
<svg viewBox="0 0 30 30" version="1.1" xmlns="http://www.w3.org/2000/svg" xmlns:xlink="http://www.w3.org/1999/xlink">
    <g id="Page-1" stroke="none" stroke-width="1" fill="none" fill-rule="evenodd">
        <g id="Outlines_black-Copy" transform="translate(-510.000000, -114.000000)">
            <g id="Group-3" transform="translate(3.000000, 114.000000)" fill="#000000" fill-rule="nonzero">
                <path d="M520.540976,25.8292683 L520.540976,18.7580488 C520.540976,18.4347601 520.803053,18.1726829 521.126341,18.1726829 L523.44439,18.1726829 C523.663804,18.1726829 523.864793,18.2953856 523.96506,18.4905488 L527.735411,25.8292683 L533.123172,25.8292683 L528.658429,17.849729 C528.498868,17.5645556 528.603687,17.2039649 528.891259,17.0487675 C531.068003,15.8740169 532.271707,13.8350887 532.271707,10.9609756 C532.271707,6.24119779 529.222184,4.17073171 523.725366,4.17073171 L515.670732,4.17073171 L515.670732,25.8292683 L520.540976,25.8292683 Z M521.711707,26.4146341 C521.711707,26.7379228 521.44963,27 521.126341,27 L515.085366,27 C514.762077,27 514.5,26.7379228 514.5,26.4146341 L514.5,3.58536585 C514.5,3.26207722 514.762077,3 515.085366,3 L523.725366,3 C529.794288,3 533.442439,5.47690234 533.442439,10.9609756 C533.442439,14.0356242 532.195985,16.3589503 529.960154,17.778585 L534.632302,26.1288076 C534.850623,26.5189986 534.56858,27 534.121463,27 L527.378049,27 C527.158635,27 526.957646,26.8772974 526.857379,26.6821342 L523.087028,19.3434146 L521.711707,19.3434146 L521.711707,26.4146341 Z M521.126341,14.5668293 C520.803053,14.5668293 520.540976,14.304752 520.540976,13.9814634 L520.540976,8.36195122 C520.540976,8.03866259 520.803053,7.77658537 521.126341,7.77658537 L523.303902,7.77658537 C526.127768,7.77658537 527.541951,8.70590588 527.541951,10.9609756 C527.541951,13.2809928 525.99008,14.5668293 523.303902,14.5668293 L521.126341,14.5668293 Z M523.303902,13.3960976 C525.387044,13.3960976 526.37122,12.5806378 526.37122,10.9609756 C526.37122,9.4810767 525.558977,8.94731707 523.303902,8.94731707 L521.711707,8.94731707 L521.711707,13.3960976 L523.303902,13.3960976 Z" id="R-Copy-2"></path>
            </g>
            <g id="Slices" transform="translate(0.000000, 114.000000)"></g>
        </g>
    </g>
</svg>