<?xml version="1.0" encoding="UTF-8"?><svg version="1.1" viewBox="0 0 30 28" xmlns="http://www.w3.org/2000/svg" xmlns:xlink="http://www.w3.org/1999/xlink"><!--Generated by IJSVG (https://github.com/curthard89/IJSVG)--><g transform="matrix(1,0,0,1,-179,-60)"><g transform="matrix(1,0,0,1,179.122,60.0008)"><path fill="#000" stroke="none" d="M28.3883,11.0012c-0.178486,-0.245192 -0.331731,-0.475938 -0.475938,-0.697708c-0.495785,-0.759 -0.966369,-1.47295 -2.08412,-1.97054c-0.420074,-0.1875 -0.917677,-0.472338 -1.39362,-0.769846c-0.405651,-0.721154 -0.394832,-2.39243 -0.385818,-3.30651l0.0018028,-0.358772c0,-1.01862 -0.598569,-2.75483 -1.67848,-3.22897c-0.465138,-0.201923 -0.813092,-0.100962 -1.02222,0.0198318c-0.602169,0.346154 -0.726554,1.21514 -0.7464,1.38642c-0.0288462,0.254206 0.155049,0.481385 0.407451,0.510231c0.250602,0.0270434 0.481385,-0.153245 0.510231,-0.407451c0.0252406,-0.232574 0.14964,-0.607569 0.290266,-0.688708c0.0378609,-0.0216342 0.100962,-0.0144231 0.191105,0.0252406c0.607569,0.266825 1.1268,1.53425 1.1268,2.38343l-0.0018028,0.349758c-0.0090143,0.879785 0.003606,1.76862 0.120794,2.52766c-0.207332,-0.144231 -0.371395,-0.26322 -0.470538,-0.333535c-1.4964,-3.45974 -4.56129,-5.92985 -4.69292,-6.03415c-0.106371,-0.0829338 -0.245192,-0.117189 -0.375,-0.0919477c-0.133412,0.0252402 -0.246997,0.106371 -0.313703,0.22536c-0.960923,1.68208 -0.492185,4.72338 0.200118,6.18231c0.155049,0.328126 0.338945,0.672462 0.526431,1.02406c0.542677,1.01502 1.15565,2.16526 1.01862,2.94411c-0.146035,0.831138 -1.67668,1.1286 -1.99218,1.1304c-0.825738,0 -1.62978,-0.0631016 -2.40868,-0.122594c-2.04628,-0.158654 -3.97717,-0.308294 -6.12462,0.605769c-2.46092,1.04566 -4.53425,2.98195 -5.83431,5.44846c-1.17369,2.22835 -1.33592,4.29808 -1.23498,5.75123c-0.524631,-0.0721153 -1.00962,-0.0126198 -1.07991,-0.0036055c-0.131612,0.0180286 -0.248797,0.0901431 -0.322717,0.200118c-0.07392,0.109975 -0.0955523,0.246997 -0.0631015,0.375c0.0342549,0.128003 0.850985,3.14423 2.78728,3.51923c0.365986,0.0703108 4.56669,0.364182 7.55954,0.364182c1.56129,0 2.79448,-0.0793293 2.98015,-0.311898c0.164063,-0.207332 0.360577,-0.778846 0.286657,-1.40806c1.21694,-0.475938 2.9928,-1.08355 3.64362,-1.08175c0.045072,0.0919477 0.0901431,0.182091 0.140626,0.270434c0.551677,0.959123 1.59194,2.15626 2.70614,2.37618c0.284857,0.0558877 0.567923,0.0721154 0.843739,0.0721154c0.212741,0 0.423678,-0.0090148 0.629215,-0.0198319c0.115385,-0.0054087 0.230769,-0.0108175 0.346154,-0.014423c0.257811,-0.0090144 0.517431,-0.0054088 0.775246,-0.003606c0.290266,0.0018027 0.580523,0.0054087 0.870785,-0.0054084c0.0342544,0 0.0865384,0.0036056 0.137017,0.0090144c0.26142,0.0216346 0.703108,0.0594969 0.941123,-0.302885c0.180286,-0.274038 0.219951,-0.591323 0.11178,-0.894231c-0.292066,-0.816692 -1.55589,-1.28908 -2.08592,-1.45491c-0.365986,-0.115385 -0.515631,-0.665262 -0.522831,-1.36657c0.420074,-0.1875 1.23498,-0.611169 2.07512,-1.40266c1.03846,-0.980769 2.29145,-2.72234 2.51502,-5.508c0.845538,-0.221755 2.15446,-0.661662 2.6214,-1.70912c0.679708,-1.52525 -0.207332,-3.04689 -1.05471,-4.20254l0.0002954,-0.000312Zm0.212741,3.82754c-0.347958,0.782446 -1.68208,1.1124 -2.32394,1.26923c-0.989769,0.245192 -1.77946,0.367791 -2.48617,0.385819c-1.57029,0.0631015 -2.68089,-0.741 -3.79145,-2.70254c-0.124399,-0.221755 -0.407451,-0.29928 -0.629215,-0.174882c-0.221765,0.124398 -0.29928,0.407451 -0.174882,0.629215c0.840138,1.48375 2.10577,3.17308 4.4856,3.17308c0.0432692,0 0.088343,0 0.133412,-0.0018028c0.614769,-0.0162258 1.28003,-0.106371 2.05348,-0.270434c-0.382209,3.42729 -2.46092,5.01738 -3.55708,5.62154c0.0306489,-0.210937 0.0667061,-0.421874 0.11178,-0.629215c0.0540877,-0.248797 -0.104566,-0.495785 -0.355168,-0.548077c-0.252406,-0.0558877 -0.495785,0.106371 -0.548077,0.355168c-0.230769,1.08175 -0.602169,3.64542 0.960923,4.134c0.827539,0.259615 1.36837,0.625615 1.48015,0.856385c-0.0342545,-0.0018028 -0.0685108,-0.0054088 -0.0955523,-0.0072115c-0.0919477,-0.0072116 -0.178486,-0.0126203 -0.246997,-0.0108176c-0.275843,0.0108176 -0.551677,0.0072116 -0.827538,0.0054088c-0.270434,-0.0036055 -0.542677,-0.0054088 -0.813092,0.0036055c-0.120794,0.003606 -0.239783,0.0090148 -0.360577,0.0144231c-0.441706,0.0216351 -0.856385,0.0414665 -1.25118,-0.0378604c-0.721154,-0.142426 -1.59554,-1.07991 -2.08592,-1.93269c-0.465139,-0.807692 -0.605769,-1.80106 -0.7428,-2.76383c-0.0252407,-0.173077 -0.0486785,-0.346154 -0.07572,-0.517431c-0.118989,-0.775246 -0.214542,-1.54329 -0.284857,-2.28425c-0.0234378,-0.254206 -0.246997,-0.441706 -0.502985,-0.416465c-0.254206,0.0234374 -0.439902,0.248797 -0.416465,0.502985c0.0721154,0.7572 0.169472,1.54509 0.292066,2.33834c0.0252401,0.167668 0.0486784,0.33714 0.07392,0.508431c0.0919477,0.640015 0.185695,1.29448 0.369591,1.92549c-1.05471,0.138821 -2.79988,0.791446 -3.60577,1.10875c-0.283052,-0.438101 -0.825738,-0.881631 -1.86055,-1.03126c0.510231,-0.598569 0.856385,-1.509 0.44892,-2.73498c-0.400242,-1.20254 -1.59194,-2.49157 -2.89722,-3.13703c-1.02946,-0.510231 -2.07152,-0.605769 -3.0144,-0.283052c-0.241588,0.0829339 -0.369591,0.346154 -0.286657,0.585923c0.0829338,0.239783 0.344349,0.369591 0.585923,0.286657c0.890631,-0.304689 1.74517,-0.0378609 2.30409,0.237979c1.22958,0.607569 2.15446,1.76862 2.43208,2.60155c0.544477,1.63523 -0.778846,2.27705 -0.933877,2.34554c-0.0342549,0.0144231 -0.0576923,0.0378609 -0.0865384,0.0594969c-2.01563,0.160459 -3.56612,1.11055 -3.64362,1.15925c-0.216346,0.135217 -0.281252,0.420074 -0.146035,0.636415c0.135217,0.216342 0.420074,0.283052 0.636415,0.146035c0.0198319,-0.0126203 2.04808,-1.26023 4.34677,-1.01142c0.724754,0.0793293 1.19529,0.326322 1.39902,0.7356c0.185695,0.375 0.118989,0.804092 0.0576923,1.00602c-0.118989,0.0144231 -0.295671,0.0288462 -0.515631,0.0378605l-0.0540877,-0.456129c-0.0288461,-0.252406 -0.256011,-0.436297 -0.512031,-0.403846c-0.254206,0.0288462 -0.434497,0.259615 -0.403846,0.512031l0.0432693,0.373195c-2.47717,0.0288461 -7.04215,-0.108175 -8.24077,-0.340745c-0.905031,-0.174882 -1.56309,-1.42971 -1.8876,-2.29329c0.169472,0.0072116 0.346154,0.0324517 0.504831,0.07572c0.11178,0.652662 0.250602,1.05106 0.266829,1.09975c0.0667062,0.1875 0.245192,0.304689 0.434497,0.304689c0.0522831,0 0.104566,-0.0090143 0.156849,-0.0270434c0.239783,-0.0865384 0.364182,-0.351563 0.277643,-0.591323c-0.0108175,-0.0324517 -1.16825,-3.34075 0.802292,-7.07446c1.20254,-2.28065 3.11178,-4.06731 5.37969,-5.02985c1.94169,-0.823939 3.7626,-0.683308 5.69169,-0.533631c0.796892,0.0612969 1.61898,0.126203 2.47897,0.126203c0.421874,0 2.625,-0.328126 2.90086,-1.89305c0.192909,-1.09255 -0.470538,-2.33654 -1.1142,-3.53908c-0.180286,-0.33714 -0.356972,-0.668862 -0.506631,-0.984369c-0.533631,-1.1268 -0.901431,-3.3642 -0.457934,-4.79585c0.912277,0.829338 2.94771,2.86477 4.00422,5.38892c0.0324517,0.0775246 0.0847339,0.142426 0.15144,0.192909c0.0811292,0.0594969 1.99938,1.47655 3.32451,2.06612c0.870785,0.385818 1.21154,0.908677 1.68748,1.63343c0.153245,0.232574 0.313703,0.479585 0.502985,0.7374c0.699508,0.950123 1.44231,2.18691 0.957323,3.27766l-0.0001477,-0.0003268Z"></path><path fill="#000" stroke="none" d="M24.822,11.2463c0,0.923077 -1.38462,0.923077 -1.38462,0c0,-0.923077 1.38462,-0.923077 1.38462,0"></path><path fill="#000" stroke="none" d="M19.8318,4.26554c-0.234374,0.0991569 -0.344349,0.369591 -0.245192,0.605769c0.535477,1.26743 0.759,2.77283 0.631015,4.24038c-0.0234378,0.254206 0.165863,0.477785 0.418269,0.499385c0.014423,0.00180277 0.0270429,0.00180277 0.041466,0.00180277c0.236178,0 0.438101,-0.180286 0.459734,-0.421874c0.142426,-1.61538 -0.106371,-3.27766 -0.699508,-4.68231c-0.100961,-0.232574 -0.371395,-0.342549 -0.605769,-0.243388l-1.52e-05,0.000228Z"></path></g></g></svg>