<?xml version="1.0" encoding="UTF-8"?><svg version="1.1" viewBox="0 0 30 30" xmlns="http://www.w3.org/2000/svg" xmlns:xlink="http://www.w3.org/1999/xlink"><g fill="#000"><path d="M8.5,16c-0.1,0 -0.3,0 -0.4,-0.1c-3.3,-3.4 -3.6,-9.5 -3.6,-15.4c0,-0.3 0.2,-0.5 0.5,-0.5c6.2,0 7.5,9.5 7.5,12c0,0.3 -0.2,0.5 -0.5,0.5c-0.3,0 -0.5,-0.2 -0.5,-0.5c0,-2.1 -1.1,-10.4 -6,-11c0,6.7 0.6,11.4 3.4,14.1c0.2,0.2 0.2,0.5 0,0.7c-0.1,0.2 -0.3,0.2 -0.4,0.2Z"></path><path d="M9.4,14.9c-0.2,0 -0.4,-0.1 -0.5,-0.3c-0.1,-0.2 -1.4,-3.9 -1.4,-9c0,-0.6 0.4,-0.7 0.5,-0.7c0.5,-0.1 0.7,-0.1 3.1,8.1c0.1,0.3 -0.1,0.5 -0.3,0.6c-0.3,0.1 -0.5,-0.1 -0.6,-0.3c-0.5,-1.7 -1,-3.5 -1.5,-4.9c0.3,3.5 1.2,5.8 1.2,5.9c0.1,0.3 0,0.5 -0.3,0.6c-0.1,1.77636e-15 -0.2,1.77636e-15 -0.2,1.77636e-15Z"></path><path d="M15,30c-3.1,0 -4.1,-1.9 -4.4,-2.6c-0.9,-0.4 -4.1,-1.9 -4.1,-5.4c0,-5.2 3.5,-11 8.5,-11c5,0 8.5,5.8 8.5,11c0,3.5 -3.2,5 -4.1,5.4c-0.3,0.7 -1.3,2.6 -4.4,2.6Zm0,-18c-4.4,0 -7.5,5.3 -7.5,10c0,3.3 3.5,4.5 3.7,4.5c0.2,0.1 0.3,0.2 0.3,0.4c0,0.1 0.5,2.1 3.5,2.1c3,0 3.5,-2.1 3.5,-2.1c0,-0.2 0.2,-0.3 0.3,-0.4c0.1,0 3.7,-1.2 3.7,-4.5c0,-4.7 -3.1,-10 -7.5,-10Z"></path><path d="M14,28c-0.1,0 -0.2,0 -0.3,-0.1c-0.2,-0.2 -0.3,-0.5 -0.1,-0.7l0.7,-1.1l-1.1,-0.7c-0.1,-0.1 -0.2,-0.2 -0.2,-0.4c0,-0.2 0.1,-0.3 0.2,-0.4c0.1,-0.1 0.9,-0.6 1.8,-0.6c0.9,0 1.7,0.5 1.8,0.6c0.1,0.1 0.2,0.3 0.2,0.4c0,0.1 -0.1,0.3 -0.2,0.4l-1.1,0.7l0.8,1.1c0.2,0.2 0.1,0.5 -0.1,0.7c-0.2,0.2 -0.5,0.1 -0.7,-0.1l-0.7,-0.9l-0.6,0.9c-0.1,0.1 -0.2,0.2 -0.4,0.2Zm0.5,-2.9l0.5,0.3l0.5,-0.3c-0.3,-0.1 -0.7,-0.1 -1,0Z"></path><path d="M21.5,16c-0.1,0 -0.3,0 -0.4,-0.1c-0.2,-0.2 -0.2,-0.5 0,-0.7c2.7,-2.7 3.3,-7.4 3.4,-14.1c-4.9,0.5 -6,8.9 -6,11c0,0.3 -0.2,0.5 -0.5,0.5c-0.3,0 -0.5,-0.2 -0.5,-0.5c0,-2.5 1.3,-12 7.5,-12c0.3,0 0.5,0.2 0.5,0.5c0,5.9 -0.3,12 -3.6,15.4c-0.1,0 -0.3,0 -0.4,0Z"></path><path d="M20.6,14.9c-0.1,0 -0.1,0 -0.2,0c-0.3,-0.1 -0.4,-0.4 -0.3,-0.6c0,0 0.9,-2.4 1.2,-5.9c-0.5,1.4 -1,3.2 -1.5,4.9c-0.1,0.3 -0.4,0.4 -0.6,0.3c-0.3,-0.1 -0.4,-0.4 -0.3,-0.6c2.4,-8.2 2.6,-8.2 3.1,-8.1c0.1,0 0.5,0.1 0.5,0.6c0,5.1 -1.3,8.9 -1.4,9c-0.1,0.2 -0.3,0.4 -0.5,0.4Z"></path><path d="M11,21c-0.8,0 -1.5,-0.9 -1.5,-2c0,-1.1 0.7,-2 1.5,-2c0.8,0 1.5,0.9 1.5,2c0,1.1 -0.7,2 -1.5,2Zm0,-3c-0.2,0 -0.5,0.4 -0.5,1c0,0.6 0.3,1 0.5,1c0.2,0 0.5,-0.4 0.5,-1c0,-0.6 -0.3,-1 -0.5,-1Z"></path><path d="M19,21c-0.8,0 -1.5,-0.9 -1.5,-2c0,-1.1 0.7,-2 1.5,-2c0.8,0 1.5,0.9 1.5,2c0,1.1 -0.7,2 -1.5,2Zm0,-3c-0.2,0 -0.5,0.4 -0.5,1c0,0.6 0.3,1 0.5,1c0.2,0 0.5,-0.4 0.5,-1c0,-0.6 -0.3,-1 -0.5,-1Z"></path></g></svg>