<?xml version="1.0" encoding="UTF-8"?><svg version="1.1" viewBox="0 0 30 30" xmlns="http://www.w3.org/2000/svg" xmlns:xlink="http://www.w3.org/1999/xlink"><path d="M25.479,18.022c0,-1.636 -1.325,-2.965 -2.956,-2.977c0.285,-0.456 0.456,-0.991 0.456,-1.567c0,-1.642 -1.336,-2.978 -2.978,-2.978c-1.034,0 -1.945,0.53 -2.479,1.331c-0.142,-0.213 -0.317,-0.399 -0.508,-0.569c3.842,-0.892 6.465,-4.299 6.465,-8.762c0,-0.276 -0.224,-0.5 -0.5,-0.5c-3.325,0 -5.844,1.876 -7.247,4.349c0.539,-3.412 1.673,-5.583 1.689,-5.613c0.099,-0.185 0.072,-0.412 -0.068,-0.569c-0.14,-0.155 -0.361,-0.209 -0.558,-0.131c-0.015,0.005 -1.543,0.588 -2.576,0.025c-0.163,-0.089 -0.36,-0.08 -0.515,0.022c-0.154,0.101 -0.24,0.28 -0.222,0.464l0.954,10.016c-0.793,0.165 -1.467,0.649 -1.892,1.308c-0.531,-0.822 -1.45,-1.371 -2.5,-1.371c-1.643,0 -2.979,1.336 -2.979,2.978c0,0.577 0.172,1.111 0.456,1.567c-0.007,0 -0.013,-0.002 -0.02,-0.002c-1.643,0 -2.979,1.336 -2.979,2.979c0,1.633 1.322,2.961 2.953,2.975c-0.254,0.438 -0.41,0.939 -0.41,1.481c0,1.621 1.302,2.938 2.916,2.973c-0.286,0.457 -0.459,0.993 -0.459,1.571c-0.001,1.642 1.335,2.978 2.978,2.978c1.049,0 1.969,-0.549 2.5,-1.371c0.531,0.823 1.451,1.371 2.5,1.371c1.642,0 2.978,-1.336 2.978,-2.978c0,-0.577 -0.172,-1.111 -0.456,-1.567c0.007,0 0.014,0.002 0.021,0.002c1.643,0 2.978,-1.336 2.978,-2.979c0,-0.545 -0.158,-1.049 -0.414,-1.489c1.592,-0.057 2.872,-1.361 2.872,-2.967Zm-5.479,-6.522c1.091,0 1.978,0.887 1.978,1.978c0,1.091 -0.887,1.979 -1.978,1.979c-1.091,0 -1.979,-0.888 -1.979,-1.979c0,-1.091 0.888,-1.978 1.979,-1.978Zm-2.456,4.543c1.091,0 1.978,0.888 1.978,1.979c0,1.091 -0.889,1.978 -1.978,1.978c-1.09,0 -1.979,-0.887 -1.979,-1.978c0,-1.091 0.888,-1.979 1.979,-1.979Zm4.922,-13.026c-0.216,4.185 -3.053,7.221 -6.97,7.467c0.233,-3.549 2.84,-7.187 6.97,-7.467Zm-6.377,-1.774c-0.345,0.834 -0.818,2.168 -1.167,3.885l-0.372,-3.898c0.541,0.113 1.086,0.084 1.539,0.013Zm-1.045,10.257c1.091,0 1.978,0.887 1.978,1.978c0,1.091 -0.887,1.979 -1.978,1.979c-1.091,0 -1.979,-0.888 -1.979,-1.979c0,-1.091 0.888,-1.978 1.979,-1.978Zm-2.5,4.543c1.091,0 1.978,0.888 1.978,1.979c0,1.091 -0.889,1.978 -1.978,1.978c-1.09,0 -1.979,-0.887 -1.979,-1.978c0,-1.091 0.888,-1.979 1.979,-1.979Zm-2.5,-4.543c1.091,0 1.978,0.887 1.978,1.978c0,1.091 -0.887,1.979 -1.978,1.979c-1.091,0 -1.979,-0.888 -1.979,-1.979c0,-1.091 0.888,-1.978 1.979,-1.978Zm-2.544,8.5c-1.091,0 -1.979,-0.887 -1.979,-1.978c0,-1.091 0.888,-1.979 1.979,-1.979c1.091,0 1.978,0.888 1.978,1.979c0,1.091 -0.887,1.978 -1.978,1.978Zm2.544,4.457c-1.091,0 -1.979,-0.888 -1.979,-1.979c0,-1.091 0.888,-1.978 1.979,-1.978c1.091,0 1.978,0.887 1.978,1.978c0,1.091 -0.887,1.979 -1.978,1.979Zm2.456,4.543c-1.091,0 -1.979,-0.887 -1.979,-1.978c0,-1.091 0.888,-1.979 1.979,-1.979c1.091,0 1.978,0.888 1.978,1.979c0,1.091 -0.887,1.978 -1.978,1.978Zm2.544,-4.543c-1.091,0 -1.979,-0.888 -1.979,-1.979c0,-1.091 0.888,-1.978 1.979,-1.978c1.091,0 1.978,0.887 1.978,1.978c0,1.091 -0.887,1.979 -1.978,1.979Zm2.456,4.543c-1.091,0 -1.979,-0.887 -1.979,-1.978c0,-1.091 0.888,-1.979 1.979,-1.979c1.091,0 1.978,0.888 1.978,1.979c0,1.091 -0.887,1.978 -1.978,1.978Zm2.544,-4.543c-1.091,0 -1.979,-0.888 -1.979,-1.979c0,-1.091 0.888,-1.978 1.979,-1.978c1.091,0 1.978,0.887 1.978,1.978c0,1.091 -0.887,1.979 -1.978,1.979Zm2.456,-4.457c-1.091,0 -1.979,-0.887 -1.979,-1.978c0,-1.091 0.888,-1.979 1.979,-1.979c1.091,0 1.978,0.888 1.978,1.979c0,1.091 -0.887,1.978 -1.978,1.978Z" fill="#000"></path></svg>