<svg xmlns="http://www.w3.org/2000/svg" viewBox="0 0 30 30"><path d="M17 18.474c-.054-.99.206-1.94.565-3.255l.42-1.6a.5.5 0 0 0-.092-.428c-.095-.12-.24-.19-.394-.19h-5a.5.5 0 0 0-.486.619l.47 1.728c.362 1.264.624 2.178.52 3.096-.084.742-.258 1.637-.442 2.585-.276 1.42-.56 2.887-.56 3.97 0 1.73.627 5 3 5 1.932 0 3-2.957 3-5 0-.964-.26-2.24-.5-3.476l-.5-3.05zM15 29c-1.457 0-2-2.454-2-4 0-.988.275-2.407.542-3.78l.454-2.664c.127-1.116-.173-2.16-.552-3.484l-.3-1.072h3.714l-.257.955c-.37 1.352-.662 2.42-.6 3.572.05.936.283 2.085.51 3.196.24 1.187.5 2.414.5 3.277 0 1.61-.84 4-2 4zm6.5-26h-13a.5.5 0 1 0 0 1h13a.5.5 0 1 0 0-1zm0 3h-13a.5.5 0 1 0 0 1h13a.5.5 0 1 0 0-1zm2-6h-17A1.5 1.5 0 0 0 5 1.5v7A1.5 1.5 0 0 0 6.5 10H11v.5a1.5 1.5 0 0 0 1.5 1.5h5a1.5 1.5 0 0 0 1.5-1.5V10h4.5A1.5 1.5 0 0 0 25 8.5v-7A1.5 1.5 0 0 0 23.5 0zM18 10.5a.5.5 0 0 1-.5.5h-5a.5.5 0 0 1-.5-.5V10h6v.5zm6-2a.5.5 0 0 1-.5.5h-17a.5.5 0 0 1-.5-.5v-7a.5.5 0 0 1 .5-.5h17a.5.5 0 0 1 .5.5v7z"/></svg>