<svg xmlns="http://www.w3.org/2000/svg" viewBox="0 0 30 30"><path d="M18.595 5.294A.5.5 0 0 0 19.5 5c0-1.08-4.455-1.5-4.5-1.5s-4.5.42-4.5 1.5a.5.5 0 0 0 .905.294c.392-.21 2.043-.633 3.095-.756v2.195l-2.777 1.85a.5.5 0 0 0 0 .832l2.777 1.85v1.283c-1.14.232-2 1.243-2 2.45s.86 2.217 2 2.45v1.283l-2.777 1.85c-.14.095-.223.25-.223.418a.5.5 0 0 0 .223.416l2.777 1.85v2.195c-1.052-.124-2.703-.546-3.095-.756A.5.5 0 0 0 10.5 25c0 1.08 4.455 1.5 4.5 1.5s4.5-.42 4.5-1.5a.5.5 0 0 0-.905-.294c-.392.2-2.043.633-3.095.756v-2.194l2.778-1.852a.5.5 0 0 0 0-.832L15.5 18.732V17.45c1.14-.232 2-1.243 2-2.45s-.86-2.217-2-2.45v-1.283l2.778-1.852a.5.5 0 0 0 0-.832L15.5 6.732V4.538c1.052.123 2.703.546 3.095.756zM17.1 21L15 22.4 12.9 21l2.1-1.4 2.1 1.4zm-.6-6a1.5 1.5 0 1 1-3 0 1.5 1.5 0 1 1 3 0zm.6-6L15 10.4 12.9 9 15 7.6 17.1 9zm5.45-7.436a.5.5 0 0 0-.594.364c-.088.342-.37.572-.705.572-.343 0-.635-.248-.7-.603a.5.5 0 0 0-.489-.397h-.55V1a.5.5 0 0 0-.5-.5h-8a.5.5 0 0 0-.5.5v.5h-.55a.5.5 0 0 0-.489.397c-.074.355-.366.603-.7.603a.73.73 0 0 1-.705-.572.5.5 0 0 0-.594-.364C6.303 1.822 5.5 2.824 5.5 4v22c0 1.176.802 2.178 1.95 2.436a.5.5 0 0 0 .594-.364c.088-.342.37-.572.705-.572.343 0 .635.248.7.603a.5.5 0 0 0 .489.397h.55v.5a.5.5 0 0 0 .5.5h8a.5.5 0 0 0 .5-.5v-.5h.55a.5.5 0 0 0 .489-.397c.074-.355.366-.603.7-.603a.73.73 0 0 1 .705.572.5.5 0 0 0 .594.364c1.15-.258 1.95-1.26 1.95-2.436V4c0-1.176-.802-2.178-1.95-2.436zM23.5 26c0 .566-.31 1.066-.79 1.32-.312-.5-.856-.82-1.46-.82a1.71 1.71 0 0 0-1.557 1H19a.5.5 0 0 0-.5.5v.5h-7V28a.5.5 0 0 0-.5-.5h-.693a1.71 1.71 0 0 0-1.557-1c-.603 0-1.147.32-1.46.82-.48-.254-.79-.754-.79-1.32V4c0-.566.31-1.066.79-1.32.312.5.856.82 1.46.82a1.71 1.71 0 0 0 1.557-1H11a.5.5 0 0 0 .5-.5v-.5h7V2a.5.5 0 0 0 .5.5h.693a1.71 1.71 0 0 0 1.557 1c.603 0 1.147-.32 1.46-.82.48.254.79.754.79 1.32v22z"/></svg>