<?xml version="1.0" encoding="utf-8"?>
<!-- Generator: Adobe Illustrator 23.0.1, SVG Export Plug-In . SVG Version: 6.00 Build 0)  -->
<svg version="1.1" id="Layer_1" xmlns="http://www.w3.org/2000/svg" xmlns:xlink="http://www.w3.org/1999/xlink" x="0px" y="0px"
	 viewBox="0 0 30 30" style="enable-background:new 0 0 30 30;" xml:space="preserve">
<g>
	<path d="M13.8,15.6c-7.7,0-13.7-2.5-13.7-5.8S6.2,4,13.8,4c7.7,0,13.7,2.5,13.7,5.8S21.5,15.6,13.8,15.6z M13.8,5
		C6.3,5,1.2,7.5,1.2,9.8s5.1,4.8,12.7,4.8c7.6,0,12.7-2.5,12.7-4.8S21.4,5,13.8,5z"/>
	<path d="M26.5,9.8l0,3.2h0c-0.4,2.2-5.4,4.5-12.6,4.5c-7.2,0-12.2-2.3-12.6-4.5h0l0-3.2h-1l0,3.2c0.4,3.1,6.2,5.5,13.6,5.5
		c7.4,0,13.3-2.4,13.6-5.5l0-3.2H26.5z"/>
	<path d="M28.7,14.4l0,3.6h0c-0.4,2.2-5.4,4.5-12.6,4.5c-7.2,0-12.2-2.3-12.6-4.5h0l0-2.2h-1l0,2.2c0.4,3.1,6.2,5.5,13.6,5.5
		c7.4,0,13.3-2.4,13.6-5.5l0-3.3L28.7,14.4z"/>
	<path d="M26.7,11v1.1c1.3,0.8,2,1.6,2,2.5c0,2.3-5.1,4.8-12.7,4.8c-5.4,0-9.6-1.3-11.5-2.9l-1.6-0.3c1.6,2.4,6.8,4.2,13.1,4.2
		c7.7,0,13.7-2.5,13.7-5.8C29.7,13.3,28.6,12,26.7,11z"/>
	<path d="M1.3,19l0,3.6h0c0.4,2.2,5.4,4.5,12.6,4.5c7.2,0,12.2-2.3,12.6-4.5h0l0-2.2h1l0,2.2c-0.4,3.1-6.2,5.5-13.6,5.5
		c-7.4,0-13.3-2.4-13.6-5.5l0-3.3L1.3,19z"/>
	<path d="M3.3,15.6v1.1c-1.3,0.8-2,1.6-2,2.5C1.4,21.6,6.4,24,14,24c5.4,0,9.6-1.3,11.5-2.9l1.6-0.3C25.6,23.3,20.4,25,14,25
		c-7.7,0-13.7-2.5-13.7-5.8C0.4,17.9,1.5,16.6,3.3,15.6z"/>
	<rect x="1.1" y="7.8" transform="matrix(0.8254 -0.5646 0.5646 0.8254 -3.2889 6.0453)" width="14" height="1"/>
	<path d="M4.2,8.4c-0.2,0-0.3-0.1-0.4-0.2C3.7,7.9,3.7,7.6,3.9,7.5l3.8-2.7C8,4.6,8.3,4.7,8.4,4.9c0.2,0.2,0.1,0.5-0.1,0.7L4.5,8.3
		C4.4,8.3,4.3,8.4,4.2,8.4z"/>
	<path d="M7.2,12.9c-0.2,0-0.3-0.1-0.4-0.2c-0.2-0.2-0.1-0.5,0.1-0.7l11-7.5c0.2-0.2,0.5-0.1,0.7,0.1c0.2,0.2,0.1,0.5-0.1,0.7
		l-11,7.5C7.4,12.9,7.3,12.9,7.2,12.9z"/>
	<path d="M13.9,11.7c-0.2,0-0.3-0.1-0.4-0.2c-0.2-0.2-0.1-0.5,0.1-0.7l7.6-5.1c0.2-0.2,0.5-0.1,0.7,0.1C22,6,22,6.3,21.8,6.5
		l-7.6,5.1C14.1,11.7,14,11.7,13.9,11.7z"/>
	<path d="M13.3,15.4c-0.2,0-0.3-0.1-0.4-0.2c-0.2-0.2-0.1-0.5,0.1-0.7l7.6-5.1c0.2-0.2,0.5-0.1,0.7,0.1c0.2,0.2,0.1,0.5-0.1,0.7
		l-7.6,5.1C13.5,15.4,13.4,15.4,13.3,15.4z"/>
	<path d="M22.8,11.5c-0.2,0-0.3-0.1-0.4-0.2c-0.2-0.2-0.1-0.5,0.1-0.7L26.1,8c0.2-0.2,0.5-0.1,0.7,0.1c0.2,0.2,0.1,0.5-0.1,0.7
		l-3.6,2.5C23,11.5,22.9,11.5,22.8,11.5z"/>
	<path d="M13.4,16.9c-0.3,0-0.5-0.2-0.5-0.5v-1.1c0-0.3,0.2-0.5,0.5-0.5s0.5,0.2,0.5,0.5v1.1C13.9,16.6,13.7,16.9,13.4,16.9z"/>
	<path d="M4.5,16.8c-0.3,0-0.5-0.2-0.5-0.5v-2.7c0-0.3,0.2-0.5,0.5-0.5S5,13.3,5,13.6v2.7C5,16.6,4.8,16.8,4.5,16.8z"/>
	<path d="M6.2,16.2c-0.3,0-0.5-0.2-0.5-0.5v-1.3c0-0.3,0.2-0.5,0.5-0.5s0.5,0.2,0.5,0.5v1.3C6.7,16,6.4,16.2,6.2,16.2z"/>
	<path d="M25,14.5c-0.3,0-0.5-0.2-0.5-0.5v-1.3c0-0.3,0.2-0.5,0.5-0.5s0.5,0.2,0.5,0.5V14C25.5,14.3,25.3,14.5,25,14.5z"/>
	<path d="M7.9,20.9c-0.3,0-0.5-0.2-0.5-0.5v-1.3c0-0.3,0.2-0.5,0.5-0.5s0.5,0.2,0.5,0.5v1.3C8.4,20.6,8.1,20.9,7.9,20.9z"/>
	<path d="M22.7,25.3c-0.3,0-0.5-0.2-0.5-0.5v-1.1c0-0.3,0.2-0.5,0.5-0.5s0.5,0.2,0.5,0.5v1.1C23.2,25.1,23,25.3,22.7,25.3z"/>
	<path d="M18.1,23c-0.3,0-0.5-0.2-0.5-0.5v-1.3c0-0.3,0.2-0.5,0.5-0.5s0.5,0.2,0.5,0.5v1.3C18.6,22.8,18.4,23,18.1,23z"/>
	<path d="M15.3,18c-0.3,0-0.5-0.2-0.5-0.5v-1.3c0-0.3,0.2-0.5,0.5-0.5s0.5,0.2,0.5,0.5v1.3C15.8,17.8,15.5,18,15.3,18z"/>
	<path d="M12.4,27.6c-0.3,0-0.5-0.2-0.5-0.5v-1.3c0-0.3,0.2-0.5,0.5-0.5s0.5,0.2,0.5,0.5v1.3C12.9,27.4,12.7,27.6,12.4,27.6z"/>
	<path d="M14.1,26.5c-0.3,0-0.5-0.2-0.5-0.5v-1.3c0-0.3,0.2-0.5,0.5-0.5s0.5,0.2,0.5,0.5V26C14.6,26.3,14.4,26.5,14.1,26.5z"/>
	<path d="M4,24.7c-0.3,0-0.5-0.2-0.5-0.5v-1.3c0-0.3,0.2-0.5,0.5-0.5s0.5,0.2,0.5,0.5v1.3C4.5,24.5,4.3,24.7,4,24.7z"/>
	<path d="M7.8,27.5c-0.3,0-0.5-0.2-0.5-0.5v-2.8c0-0.3,0.2-0.5,0.5-0.5s0.5,0.2,0.5,0.5V27C8.3,27.3,8,27.5,7.8,27.5z"/>
</g>
</svg>
