<?xml version="1.0" encoding="UTF-8"?><svg version="1.1" viewBox="0 0 30 30" xmlns="http://www.w3.org/2000/svg" xmlns:xlink="http://www.w3.org/1999/xlink"><g fill="#000"><path d="M19.5,26.5h-8c-3.4,0 -5.9,-2.6 -6,-6.3l-0.1,-0.1c-1,-1 -2.4,-2.3 -2.4,-4.6c0,-2.5 2.6,-4 4.5,-4c2.8,0 4,1.8 4.9,3.2c0.2,0.3 0.4,0.6 0.6,0.8c2,-1.9 6.3,-5 9.5,-5c3.6,0 7.5,2.5 7.5,6.5c0,4 -6.1,9.5 -10.5,9.5Zm-12,-14c-1.2,0 -3.5,1 -3.5,3c0,1.8 1.1,2.9 2.1,3.9l0.3,0.3c0.1,0.1 0.1,0.2 0.1,0.4c0,3.2 2.1,5.5 5,5.5h8c3.8,0 9.5,-5.1 9.5,-8.5c0,-3.4 -3.4,-5.5 -6.5,-5.5c-2.8,0 -7,3.1 -8.8,4.8c0.4,0.7 0.5,1.5 0.1,2.4c-0.4,1.1 -1.4,1.8 -2.3,1.8c-0.3,0 -0.5,-0.2 -0.5,-0.5c0,-0.3 0.2,-0.5 0.5,-0.5c0.5,0 1.1,-0.5 1.4,-1.2c0.1,-0.3 0.4,-1.1 -0.2,-1.7c-0.4,-0.4 -0.7,-0.8 -1,-1.3c-1,-1.5 -2,-2.9 -4.2,-2.9Z"></path><path d="M18,13c-0.1,0 -0.3,0 -0.4,-0.1c-0.4,-0.4 -0.7,-0.8 -1.1,-1.3c-1,-1.4 -2.3,-3 -4,-3c-1.4,-0.1 -3.5,1.5 -3.5,3.4c0,0.3 -0.2,0.5 -0.5,0.5c-0.3,0 -0.5,-0.2 -0.5,-0.5c0,-2.6 2.7,-4.5 4.5,-4.5c2.2,0 3.7,1.9 4.8,3.4c0.4,0.5 0.7,0.9 1,1.2c0.2,0.2 0.2,0.5 0,0.7c0,0.2 -0.2,0.2 -0.3,0.2Z"></path><path d="M17.5,9.5c-0.1,0 -0.3,0 -0.4,-0.1c-0.2,-0.2 -0.2,-0.5 0,-0.7c0.9,-0.9 0.5,-1.9 -0.1,-3.6c-0.5,-1.5 -1.2,-3.2 0.1,-4.5c0.2,-0.2 0.5,-0.2 0.7,0c0.2,0.2 0.2,0.5 0,0.7c-0.8,0.8 -0.5,1.8 0.1,3.4c0.6,1.5 1.2,3.3 -0.1,4.6c0,0.2 -0.2,0.2 -0.3,0.2Z"></path><path d="M22.5,9.5c-0.1,0 -0.3,0 -0.4,-0.1c-0.2,-0.2 -0.2,-0.5 0,-0.7c0.9,-0.9 0.5,-1.9 -0.1,-3.6c-0.5,-1.5 -1.2,-3.2 0.1,-4.5c0.2,-0.2 0.5,-0.2 0.7,0c0.2,0.2 0.2,0.5 0,0.7c-0.8,0.8 -0.5,1.8 0.1,3.4c0.6,1.5 1.2,3.3 -0.1,4.6c0,0.2 -0.2,0.2 -0.3,0.2Z"></path><path d="M27.5,9.5c-0.1,0 -0.3,0 -0.4,-0.1c-0.2,-0.2 -0.2,-0.5 0,-0.7c0.9,-0.9 0.5,-1.9 -0.1,-3.6c-0.5,-1.5 -1.2,-3.2 0.1,-4.5c0.2,-0.2 0.5,-0.2 0.7,0c0.2,0.2 0.2,0.5 0,0.7c-0.8,0.8 -0.5,1.8 0.1,3.4c0.6,1.5 1.2,3.3 -0.1,4.6c0,0.2 -0.2,0.2 -0.3,0.2Z"></path><path d="M16,29.5c-8.8,0 -13.6,-3 -13.8,-3.1c-0.2,-0.1 -0.2,-0.3 -0.2,-0.5c0.1,-0.2 0.3,-0.4 0.5,-0.4h27c0.2,0 0.4,0.1 0.5,0.4c0.1,0.2 0,0.4 -0.2,0.6c-0.2,0 -5,3 -13.8,3Zm-11.3,-3c2.1,0.9 6,2 11.3,2c5.3,0 9.2,-1.1 11.3,-2h-22.6Z"></path><path d="M9.5,9.5c-0.1,0 -0.3,0 -0.4,-0.1l-1,-1c-0.2,0 -0.4,0.1 -0.6,0.1c-0.8,0 -1.5,-0.7 -1.5,-1.5c0,-0.7 0.4,-1.2 1.1,-1.4c0.2,-0.6 0.8,-1.1 1.4,-1.1c0.8,0 1.5,0.7 1.5,1.5c0,0.2 -0.1,0.4 -0.1,0.6l1,1c0.2,0.2 0.2,0.5 0,0.7c-0.2,0.2 -0.5,0.2 -0.7,0l-1.3,-1.2c-0.2,-0.2 -0.2,-0.5 0,-0.7c0,-0.1 0.1,-0.3 0.1,-0.4c0,-0.3 -0.2,-0.5 -0.5,-0.5c-0.3,0 -0.5,0.2 -0.5,0.5c0,0.3 -0.2,0.5 -0.5,0.5c-0.3,0 -0.5,0.2 -0.5,0.5c0,0.4 0.6,0.6 0.9,0.4c0.1,-0.1 0.2,-0.1 0.4,-0.1v0c0.1,0 0.3,0.1 0.4,0.1l1.3,1.3c0.2,0.2 0.2,0.5 0,0.7c-0.2,0.1 -0.4,0.1 -0.5,0.1Z"></path><path d="M3.5,14.5c-0.1,0 -0.3,0 -0.4,-0.1l-1,-1c-0.2,0.1 -0.4,0.1 -0.6,0.1c-0.8,0 -1.5,-0.7 -1.5,-1.5c0,-0.7 0.4,-1.2 1.1,-1.4c0.2,-0.6 0.8,-1.1 1.4,-1.1c0.8,0 1.5,0.7 1.5,1.5c0,0.2 -0.1,0.4 -0.1,0.6l1,1c0.2,0.2 0.2,0.5 0,0.7c-0.2,0.2 -0.5,0.2 -0.7,0l-1.3,-1.3c-0.2,-0.2 -0.2,-0.5 0,-0.7c-4.44089e-16,1.77636e-15 0.1,-0.2 0.1,-0.3c0,-0.3 -0.2,-0.5 -0.5,-0.5c-0.3,0 -0.5,0.2 -0.5,0.5c0,0.3 -0.2,0.5 -0.5,0.5c-0.3,0 -0.5,0.2 -0.5,0.5c0,0.4 0.6,0.6 0.9,0.4c0.1,-0.1 0.2,-0.1 0.4,-0.1v0c0.1,0 0.3,0.1 0.4,0.1l1.3,1.3c0.2,0.2 0.2,0.5 0,0.7c-0.2,0.1 -0.4,0.1 -0.5,0.1Z"></path><path d="M21.5,23.5c-0.1,0 -0.2,0 -0.3,-0.1c-0.2,-0.1 -0.2,-0.4 -0.2,-0.6l0.9,-2.4c0.1,-0.2 0,-0.5 -0.1,-0.6c-0.1,-0.1 -0.4,-0.3 -0.6,-0.3h-1.7c-0.3,0 -0.5,-0.2 -0.5,-0.5c0,-0.3 0.2,-0.5 0.5,-0.5h1.7c0.6,0 1.1,0.3 1.4,0.7c0.3,0.4 0.4,1 0.2,1.6l-0.3,0.7l1.6,-1.2c0.5,-0.3 0.8,-0.9 0.8,-1.5c0,-0.6 -0.2,-1.1 -0.6,-1.6l-2.2,-2c-0.2,-0.2 -0.2,-0.5 0,-0.7c0.2,-0.2 0.5,-0.2 0.7,0l2.3,2c0.6,0.6 1,1.5 0.9,2.4c-0.1,0.9 -0.5,1.7 -1.2,2.2l-3,2.2c-0.1,0.2 -0.2,0.2 -0.3,0.2Z"></path></g></svg>