<svg xmlns="http://www.w3.org/2000/svg" viewBox="0 0 30 30"><path d="M28.7 16.6l-.3-.3c-.1 0-.3 0-.4.1L24.4 19l-2.2-3.2c-.7-1.1-1.8-1.5-3.1-1.5h-8.3c-1.2 0-2.4.5-3.1 1.5L5.6 19 2 16.3c-.1-.1-.3-.1-.4-.1s-.3.1-.3.3c0 .1-1 1.5-1 4.2 0 2.9 1 4.1 1 4.2l.3.3c.1 0 .3 0 .4-.1l3.6-2.7 2.2 3.2c.6.9 1.6 1.5 2.6 1.5h9.3c1-.1 2-.6 2.6-1.5l2.2-3.2 3.6 2.7c.1.1.3.1.4.1s.3-.1.3-.3c0-.1 1-1.3 1-4.2 0-2.6-1-4-1.1-4.1zM5.2 20.7v.8L2 23.9c-.3-.8-.7-1.4-.7-3.2 0-1.7.5-2.3.7-3.2L5.2 20v.7zm18.6-.7l-3.3-1.2c-.3-.1-.5 0-.6.3v.2a.55.55 0 0 0 .3.5l3.7 1.4v-.7l-3.6.9c-.2.1-.4.3-.4.5v.1c.1.3.3.4.6.4l3.4-.8v.2l-2.4 3.5c-.5.7-1.3 1-2.1 1.1h-8.8c-.8-.1-1.6-.4-2.1-1.1l-2.4-3.5v-.2l3.4.8c.3.1.5-.1.6-.4v-.1c0-.2-.2-.4-.4-.5l-3.6-.9v.7l3.7-1.4a.55.55 0 0 0 .3-.5v-.2c-.1-.3-.4-.4-.6-.3L6.2 20v-.1l2.4-3.5c.5-.8 1.4-1.1 2.4-1.1h8c1 0 1.9.3 2.4 1.1l2.4 3.5v.1zm4.2 3.9l-3.3-2.5V20l3.3-2.4c.3.9.7 1.5.7 3.2.1 1.8-.4 2.3-.7 3.1zM11 13c-.1 0-.2 0-.3-.1-.2-.1-.3-.4-.1-.7.9-1.3.5-2.2-.1-3.4-.5-1.3-1.2-2.7.1-4.6.1-.2.4-.3.7-.1.2.2.3.5.1.7-.9 1.4-.5 2.4 0 3.6s1.2 2.6 0 4.4c-.1.1-.2.2-.4.2zm4-2c-.1 0-.2 0-.3-.1-.2-.2-.3-.5-.1-.7.9-1.3.5-2.3-.1-3.4-.6-1.3-1.2-2.7.1-4.6.1-.2.4-.3.7-.1.2.2.3.5.1.7-.9 1.4-.5 2.4 0 3.6s1.2 2.6 0 4.4c-.1.1-.2.2-.4.2zm4 2c-.1 0-.2 0-.3-.1-.2-.2-.3-.5-.1-.7.9-1.3.5-2.3-.1-3.4-.6-1.3-1.2-2.7.1-4.6.2-.2.5-.3.7-.1s.3.5.1.7c-.9 1.4-.5 2.4 0 3.6s1.2 2.6 0 4.4c-.1.1-.2.2-.4.2z"/></svg>