<?xml version="1.0" encoding="UTF-8"?><svg version="1.1" viewBox="0 0 30 30" xmlns="http://www.w3.org/2000/svg" xmlns:xlink="http://www.w3.org/1999/xlink"><g fill="#000"><path d="M19.805,26.293c-0.386,0 -0.771,-0.147 -1.065,-0.44l-14.948,-14.948c-0.285,-0.284 -0.441,-0.663 -0.441,-1.065c0,-0.402 0.156,-0.781 0.441,-1.065l4.982,-4.982c0.283,-0.284 0.662,-0.441 1.064,-0.441c0,0 0,0 0.001,0c0.402,0 0.78,0.157 1.065,0.441l14.947,14.947c0.587,0.587 0.587,1.543 0,2.13v0l-4.982,4.983c-0.293,0.293 -0.679,0.44 -1.064,0.44Zm-9.965,-21.942v8.88178e-16c-0.136,0 -0.263,0.053 -0.358,0.148l-4.983,4.982c-0.096,0.096 -0.148,0.224 -0.148,0.358c0,0.135 0.053,0.263 0.148,0.358l14.947,14.948c0.197,0.197 0.52,0.198 0.717,0l4.982,-4.982c0.197,-0.197 0.197,-0.519 0,-0.716l-14.947,-14.948c-0.095,-0.096 -0.223,-0.148 -0.358,-0.148Zm15.659,16.165h0.01h-0.01Z"></path><path d="M4.146,9.628c-0.128,0 -0.256,-0.049 -0.354,-0.146l-1.424,-1.424c-0.285,-0.285 -0.441,-0.663 -0.441,-1.065c0,-0.403 0.156,-0.781 0.441,-1.066l0.785,-0.785c-2.196,-1.343 -2.461,-1.607 -2.564,-1.711c-0.38,-0.38 -0.589,-0.884 -0.589,-1.421c0,-0.537 0.209,-1.042 0.589,-1.421c0.761,-0.76 2.085,-0.76 2.842,0c0.16,0.16 0.513,0.606 1.712,2.563l0.784,-0.785c0,0 0,0 0,0c0.571,-0.569 1.563,-0.568 2.131,0l1.424,1.424c0.195,0.195 0.195,0.512 0,0.707l-4.983,4.983c-0.098,0.098 -0.226,0.147 -0.353,0.147Zm-2.136,-8.628c-0.27,0 -0.524,0.105 -0.714,0.296c-0.19,0.191 -0.296,0.444 -0.296,0.714c0,0.27 0.105,0.523 0.296,0.714c0.076,0.076 0.511,0.437 2.92,1.894c0.132,0.08 0.219,0.215 0.237,0.368c0.019,0.152 -0.034,0.305 -0.143,0.414l-1.235,1.234c-0.096,0.096 -0.148,0.223 -0.148,0.359c0,0.135 0.053,0.262 0.148,0.357l1.07,1.071l4.275,-4.275l-1.07,-1.07c-0.19,-0.19 -0.524,-0.192 -0.717,0l-1.234,1.234c-0.107,0.108 -0.261,0.162 -0.413,0.143c-0.153,-0.018 -0.288,-0.106 -0.368,-0.238c-1.421,-2.345 -1.798,-2.823 -1.894,-2.919c-0.191,-0.191 -0.445,-0.296 -0.714,-0.296Z"></path><path d="M4.146,9.628c-0.128,0 -0.256,-0.049 -0.354,-0.146l-1.424,-1.424c-0.285,-0.285 -0.441,-0.663 -0.441,-1.065c0,-0.403 0.156,-0.781 0.441,-1.066l3.559,-3.559c0,0 0,0 0,0c0.571,-0.569 1.563,-0.568 2.131,0l1.424,1.424c0.195,0.195 0.195,0.512 0,0.707l-4.983,4.982c-0.098,0.098 -0.226,0.147 -0.353,0.147Zm2.488,-6.552l-3.559,3.558c-0.096,0.096 -0.148,0.223 -0.148,0.359c0,0.135 0.053,0.262 0.148,0.357l1.07,1.071l4.275,-4.275l-1.07,-1.07c-0.19,-0.191 -0.524,-0.194 -0.716,-4.44089e-16v0Z"></path><path d="M27.99,30c-0.537,0 -1.042,-0.209 -1.421,-0.589c-0.112,-0.111 -0.399,-0.398 -1.98,-3.006l-0.872,0.872c-0.568,0.569 -1.561,0.569 -2.131,0l-1.423,-1.424c-0.195,-0.195 -0.195,-0.512 0,-0.707l4.982,-4.983c0.188,-0.188 0.52,-0.188 0.707,0l1.424,1.424c0.587,0.587 0.587,1.543 0,2.13l-0.872,0.872c2.605,1.579 2.904,1.877 3.007,1.98c0.38,0.38 0.589,0.884 0.589,1.421c0,0.537 -0.209,1.042 -0.589,1.421c-0.38,0.38 -0.885,0.589 -1.421,0.589Zm-3.303,-4.901c0.021,0 0.041,0.001 0.061,0.004c0.153,0.019 0.289,0.106 0.368,0.239c1.633,2.718 2.055,3.256 2.16,3.362c0.383,0.383 1.048,0.382 1.429,0c0.19,-0.191 0.295,-0.444 0.295,-0.714c0,-0.27 -0.105,-0.523 -0.296,-0.714c-0.083,-0.083 -0.571,-0.485 -3.362,-2.16c-0.133,-0.079 -0.221,-0.215 -0.239,-0.368c-0.018,-0.153 0.034,-0.306 0.143,-0.415l1.324,-1.324c0.197,-0.197 0.197,-0.519 0,-0.716l-1.07,-1.07l-4.275,4.276l1.069,1.07c0.191,0.191 0.525,0.19 0.717,0l1.323,-1.323c0.094,-0.095 0.221,-0.147 0.353,-0.147Z"></path><path d="M22.651,27.717c-0.402,0 -0.78,-0.157 -1.065,-0.441l-1.423,-1.424c-0.195,-0.195 -0.195,-0.512 0,-0.707l4.982,-4.983c0.188,-0.188 0.52,-0.188 0.707,0l1.424,1.424c0.587,0.587 0.587,1.543 0,2.13v0l-3.56,3.559c-0.283,0.286 -0.661,0.442 -1.065,0.442Zm-1.427,-2.218l1.069,1.07c0.191,0.191 0.525,0.19 0.717,0l3.56,-3.559c0.197,-0.197 0.197,-0.519 0,-0.716l-1.07,-1.07l-4.276,4.275Zm5.699,-2.136h0.01h-0.01Z"></path></g></svg>