<svg xmlns="http://www.w3.org/2000/svg" viewBox="0 0 30 30"><path d="M23.5 26.5H.5a.5.5 0 1 0 0 1h23a.5.5 0 1 0 0-1zm6.354-14.854l-9-9a.5.5 0 0 0-.706-.001L5.884 16.803A2.89 2.89 0 0 0 5 18.888c0 .79.314 1.53.884 2.087l3.755 3.667a3.02 3.02 0 0 0 2.12.858h3.74c.8 0 1.553-.305 2.126-.864l12.23-12.284a.5.5 0 0 0-.001-.706zM16.92 23.926a2.02 2.02 0 0 1-1.421.574h-3.74a2.02 2.02 0 0 1-1.421-.574L6.584 20.26c-.376-.367-.583-.854-.583-1.37s.207-1.003.585-1.373l4.377-4.344 8.35 8.35-2.393 2.404zm3.098-3.113l-8.347-8.347 8.827-8.76L28.793 12l-8.774 8.812z"/></svg>