<svg xmlns="http://www.w3.org/2000/svg" xmlns:xlink="http://www.w3.org/1999/xlink" viewBox="0 0 30 30"><path d="M5.5 30c-.1 0-.3 0-.4-.1l-5-5c-.2-.2-.2-.5 0-.7l24-24c.2-.2.5-.2.7 0l5 5c.2.2.2.5 0 .7l-24 24c0 .1-.2.1-.3.1zm-4.3-5.5l4.3 4.3L28.8 5.5l-4.3-4.3L1.2 24.5z"/><use xlink:href="#B"/><use xlink:href="#C"/><use xlink:href="#B" x="5" y="-5"/><use xlink:href="#C" x="5" y="-5"/><use xlink:href="#B" x="10" y="-10"/><use xlink:href="#C" x="10" y="-10"/><use xlink:href="#B" x="15" y="-15"/><use xlink:href="#C" x="15" y="-15"/><use xlink:href="#B" x="20" y="-20"/><defs ><path id="B" d="M3.5 24c-.1 0-.3 0-.4-.1l-1-1c-.2-.2-.2-.5 0-.7s.5-.2.7 0l1 1c.2.2.2.5 0 .7 0 .1-.2.1-.3.1z"/><path id="C" d="M7.5 23c-.1 0-.3 0-.4-.1l-2.5-2.5c-.2-.2-.2-.5 0-.7s.5-.2.7 0l2.5 2.5c.2.2.2.5 0 .7 0 .1-.2.1-.3.1z"/></defs></svg>