<?xml version="1.0" encoding="UTF-8"?>
<svg viewBox="0 0 30 30" version="1.1" xmlns="http://www.w3.org/2000/svg" xmlns:xlink="http://www.w3.org/1999/xlink">
    <g id="Page-1" stroke="none" stroke-width="1" fill="none" fill-rule="evenodd">
        <g id="Outlines_black-Copy" transform="translate(-540.000000, -114.000000)">
            <g id="Group-3" transform="translate(3.000000, 114.000000)" fill="#000000" fill-rule="nonzero">
                <path d="M553.412348,25.8689915 C558.29202,25.8689915 561.465128,23.0627167 561.465128,19.3770028 C561.465128,16.6702412 560.164064,14.91042 557.514918,13.8638424 L554.835604,12.8124645 C554.648909,12.7396851 553.952197,12.4720219 553.791203,12.4091118 C553.415222,12.2621935 553.139908,12.1483969 552.895144,12.0362886 C551.768626,11.520313 551.218191,10.9707713 551.218191,10.0801131 C551.218191,8.73664363 552.35729,8.02167766 554.090953,8.02167766 C555.618866,8.02167766 556.905807,8.45309488 558.385993,9.41962514 L560.651265,6.57486518 C558.858022,4.99989666 556.45019,4.13100848 554.090953,4.13100848 C549.672937,4.13100848 546.445336,6.89617572 546.445336,10.4194156 C546.445336,13.0651712 548.0157,15.0281273 550.543567,16.039361 L553.283068,17.1893629 C553.442927,17.2533063 554.073345,17.5020961 554.225408,17.5631587 C554.564018,17.6991307 554.81319,17.8049212 555.035227,17.9092198 C556.106103,18.4122462 556.624412,18.9589879 556.624412,19.8520264 C556.624412,21.254131 555.520882,21.9783223 553.548069,21.9783223 C551.977798,21.9783223 550.101722,21.2394054 548.478392,20.0547082 L545.856719,23.2114163 C547.960619,24.9179964 550.756025,25.8689915 553.412348,25.8689915 Z M553.412348,27 C550.306186,27 547.042924,25.819467 544.687203,23.6993181 C544.461556,23.4962355 544.436513,23.1512196 544.630469,22.9176809 L547.955634,18.9139108 C548.152966,18.676307 548.504436,18.6409819 548.745105,18.8345636 C550.2763,20.0661767 552.119432,20.8473139 553.548069,20.8473139 C554.971512,20.8473139 555.493403,20.5048228 555.493403,19.8520264 C555.493403,19.5038636 555.271483,19.2697694 554.554363,18.9329142 C554.35568,18.8395856 554.124224,18.7413169 553.803952,18.6127084 C553.655857,18.5532396 553.026389,18.3048246 552.854173,18.2358511 L550.114672,17.0858492 C547.194869,15.917928 545.314327,13.567251 545.314327,10.4194156 C545.314327,6.22937614 549.08377,3 554.090953,3 C556.906448,3 559.775227,4.10707916 561.816385,6.11421847 C562.022791,6.31718419 562.042595,6.64324996 561.862271,6.86970412 L558.944269,10.5341716 C558.757745,10.7684109 558.420962,10.8166522 558.176182,10.6441936 C556.681749,9.59129761 555.512118,9.15268615 554.090953,9.15268615 C552.903164,9.15268615 552.3492,9.50038687 552.3492,10.0801131 C552.3492,10.4069686 552.599523,10.6568853 553.366124,11.0080093 C553.587493,11.1094022 553.845178,11.2159122 554.202844,11.3556738 C554.359952,11.4170654 555.056095,11.6845099 555.247572,11.7591548 L557.929272,12.8114692 C560.99601,14.02302 562.596137,16.1873531 562.596137,19.3770028 C562.596137,23.7204032 558.887834,27 553.412348,27 Z" id="S-Copy-2"></path>
            </g>
            <g id="Slices" transform="translate(0.000000, 114.000000)"></g>
        </g>
    </g>
</svg>