<svg xmlns="http://www.w3.org/2000/svg" viewBox="0 0 30 30"><path d="M5.5 30c-3 0-5.5-2.5-5.5-5.5S2.5 19 5.5 19s5.5 2.5 5.5 5.5S8.6 30 5.5 30zm0-10.1C3 19.9 1 22 1 24.5A4.48 4.48 0 0 0 5.5 29a4.48 4.48 0 0 0 4.5-4.5c.1-2.5-2-4.6-4.5-4.6zm17.7-5c-.1 0-.3-.1-.4-.1l-1.8-2c-.1-.1-.2-.3-.1-.5l1-3.3c0-.1.1-.2.3-.3.1-.1.3-.1.4 0 .2.1.4.1.6.1 1.1 0 2-.9 2-2s-.9-2-2-2-2 .9-2 2c0 .2 0 .4.1.6.1.3-.1.6-.3.7l-3.3 1.1c-.2.1-.4 0-.5-.1l-1.9-1.9c-.1-.1-.1-.2-.1-.4s.1-.3.2-.4l5.3-4.8A5.52 5.52 0 0 1 24.6 0a5.52 5.52 0 0 1 3.9 1.6c2.2 2.2 2.2 5.7 0 7.8l-4.8 5.2c-.2.2-.4.3-.5.3zm-1.3-2.6l1.3 1.3 4.5-4.9c.9-.9 1.3-2 1.3-3.2s-.5-2.4-1.3-3.2c-.9-.9-2-1.3-3.2-1.3s-2.4.5-3.2 1.3l-4.9 4.5 1.3 1.3 2.6-.9v-.5a3.01 3.01 0 0 1 3-3 3.01 3.01 0 0 1 3 3c0 1.8-1.6 3.3-3.5 3l-.9 2.6z"/><path d="M9.1 28.5c-.1 0-.3 0-.4-.1-.2-.2-.2-.5 0-.7L22.2 14c.2-.2.5-.2.7 0s.2.5 0 .7L9.5 28.4c-.1.1-.3.1-.4.1zm-8-6.1c-.1 0-.2 0-.2-.1-.2-.1-.3-.4-.2-.7L12 .3c.1-.2.4-.3.7-.2.2.1.3.4.2.7L1.6 22.2c-.1.1-.3.2-.5.2z"/></svg>