<?xml version="1.0" encoding="UTF-8"?><svg version="1.1" viewBox="0 0 28 28" xmlns="http://www.w3.org/2000/svg" xmlns:xlink="http://www.w3.org/1999/xlink"><!--Generated by IJSVG (https://github.com/curthard89/IJSVG)--><g transform="matrix(1,0,0,1,-121,-61)"><g transform="matrix(1,0,0,1,121,60.1464)"><path fill="#000" fill-rule="evenodd" stroke="none" d="M7.87112,15.0365c0.868964,0 1.62918,0.617286 1.80732,1.46864c0.102536,0.483679 0.0103571,0.97875 -0.259964,1.39304c-0.269286,0.41325 -0.684607,0.698071 -1.16829,0.799571c-0.126357,0.0269286 -0.254786,0.0403929 -0.382179,0.0403929c-0.867929,0 -1.62918,-0.618321 -1.80836,-1.46968c-0.21025,-0.997393 0.430857,-1.98029 1.42825,-2.19157c0.126357,-0.0269286 0.255821,-0.0403929 0.383214,-0.0403929Zm3.94597,3.81899c0.518893,0 0.973571,0.368714 1.08025,0.87725c0.125321,0.597607 -0.257893,1.18589 -0.854464,1.31121c-0.0756071,0.0165714 -0.153286,0.0248572 -0.229928,0.0248572c-0.518893,0 -0.973572,-0.36975 -1.08129,-0.878286c-0.125321,-0.596571 0.258929,-1.18486 0.8555,-1.31121c0.0756072,-0.0155358 0.153286,-0.0238215 0.229929,-0.0238215Zm-8.16971,0.472182c0.600714,0 1.12686,0.426714 1.25114,1.01604c0.145,0.690821 -0.299321,1.37232 -0.989107,1.51836c-0.0880357,0.0186429 -0.178143,0.0279643 -0.267214,0.0279643c-0.600714,0 -1.12686,-0.42775 -1.25218,-1.01707c-0.0704286,-0.334536 -0.00621429,-0.676321 0.18125,-0.963214c0.186429,-0.286893 0.474357,-0.483679 0.809929,-0.554107c0.0880357,-0.0186429 0.177107,-0.0279643 0.266179,-0.0279643Zm2.87763,3.51149c0.371821,0 0.691857,0.267214 0.76125,0.633857c0.0756071,0.422572 -0.204036,0.828571 -0.6235,0.907286c-0.0486786,0.0082858 -0.0952857,0.0124286 -0.142929,0.0124286c-0.372857,0 -0.693929,-0.267214 -0.762286,-0.635929c-0.0766428,-0.421536 0.201964,-0.8265 0.622464,-0.904179c0.0486786,-0.0093215 0.0973571,-0.0134643 0.145,-0.0134643Zm4.98458,0.541989c0.582072,0 1.09061,0.414286 1.20971,0.983929c0.140857,0.669071 -0.287928,1.32882 -0.957,1.46968c-0.0849285,0.0176072 -0.171928,0.0269286 -0.257893,0.0269286c-0.581036,0 -1.09061,-0.414286 -1.21075,-0.983929c-0.0683572,-0.324179 -0.00725,-0.655607 0.174,-0.933179c0.18125,-0.277571 0.459857,-0.468143 0.784036,-0.5365c0.0849286,-0.0176071 0.171929,-0.0269285 0.257893,-0.0269285Z"></path><path fill="#000" stroke="none" d="M8.50726,28.6852c-4.69442,0 -8.5,-3.80558 -8.5,-8.5c2.29851e-16,-4.69442 3.80558,-8.5 8.5,-8.5c4.69442,0 8.5,3.80558 8.5,8.5c0,4.69442 -3.80558,8.5 -8.5,8.5Zm0,-1c4.14214,0 7.5,-3.35786 7.5,-7.5c0,-4.14214 -3.35786,-7.5 -7.5,-7.5c-4.14214,0 -7.5,3.35786 -7.5,7.5c4.44089e-16,4.14214 3.35786,7.5 7.5,7.5Z"></path><path fill="#000" stroke="none" d="M13.2979,27.2551c-0.221772,0.164536 -0.534935,0.118137 -0.699471,-0.103635c-0.164536,-0.221772 -0.118137,-0.534935 0.103635,-0.699471c0.426317,-0.316291 3.66468,-3.25089 9.54354,-8.64429c2.0269,-2.46802 2.50438,-3.4434 2.50438,-5.40272c0,-3.89776 -3.15976,-7.05751 -7.05751,-7.05751c-1.34713,0 -2.63727,0.377578 -3.75232,1.079c-1.39189,0.875569 -4.9442,3.65457 -10.623,8.31363c-0.213487,0.175151 -0.528541,0.144073 -0.703691,-0.0694145c-0.175151,-0.213487 -0.144073,-0.528541 0.0694145,-0.703691c5.71835,-4.69149 9.282,-7.47936 10.7248,-8.38698c1.27338,-0.801022 2.74786,-1.23255 4.28478,-1.23255c4.45004,0 8.05751,3.60747 8.05751,8.05751c0,2.23974 -0.571504,3.40718 -2.77975,6.08828c-6.01709,5.52705 -9.20008,8.41146 -9.67233,8.76184Z"></path><path fill="#000" stroke="none" d="M26.6317,4.19234l-1.89329,-1.89329l-0.946645,3.15548l2.83994,-1.26219Zm-4.11058,2.01756l1.5,-5c0.108715,-0.362382 0.564941,-0.477405 0.832466,-0.209879l3,3c0.248116,0.248116 0.170163,0.667949 -0.150484,0.810459l-4.5,2c-0.390586,0.173594 -0.804802,-0.191181 -0.681982,-0.60058Z"></path></g></g></svg>