<?xml version="1.0" encoding="utf-8"?>
<!-- Generator: Adobe Illustrator 23.0.1, SVG Export Plug-In . SVG Version: 6.00 Build 0)  -->
<svg version="1.1" id="Ebene_1" xmlns="http://www.w3.org/2000/svg" xmlns:xlink="http://www.w3.org/1999/xlink" x="0px" y="0px"
	 viewBox="0 0 30 30" style="enable-background:new 0 0 30 30;" xml:space="preserve">
<title>np_sausage_463493_000000</title>
<desc>Created with Sketch.</desc>
<g>
	<path d="M7.8,20c0.3,0,0.5-0.2,0.5-0.5c0-0.3-0.2-0.5-0.5-0.5c-0.3,0-0.5,0.2-0.5,0.5C7.3,19.8,7.5,20,7.8,20z"/>
	<path d="M5.4,22.3c0.3,0,0.5-0.2,0.5-0.5c0-0.3-0.2-0.5-0.5-0.5c-0.3,0-0.5,0.2-0.5,0.5C4.9,22.1,5.2,22.3,5.4,22.3z"/>
	<path d="M8.3,22.2c0.3,0,0.5-0.2,0.5-0.5c0-0.3-0.2-0.5-0.5-0.5c-0.3,0-0.5,0.2-0.5,0.5C7.8,22,8,22.2,8.3,22.2z"/>
	<path d="M6.5,26.8c0.3,0,0.5-0.2,0.5-0.5c0-0.3-0.2-0.5-0.5-0.5S6,26,6,26.3C6,26.6,6.3,26.8,6.5,26.8z"/>
	<path d="M3.5,23.6c0.3,0,0.5-0.2,0.5-0.5c0-0.3-0.2-0.5-0.5-0.5S3,22.8,3,23.1C3,23.4,3.2,23.6,3.5,23.6z"/>
	<path d="M4.8,25.4c-0.3,0-0.5,0.2-0.5,0.5c0,0.3,0.2,0.5,0.5,0.5s0.5-0.2,0.5-0.5C5.3,25.6,5.1,25.4,4.8,25.4z"/>
	<path d="M7.8,24.4c-0.3,0-0.5,0.2-0.5,0.5c0,0.3,0.2,0.5,0.5,0.5c0.3,0,0.5-0.2,0.5-0.5C8.3,24.6,8.1,24.4,7.8,24.4z"/>
	<path d="M5.2,19.2c-0.3,0-0.5,0.2-0.5,0.5c0,0.3,0.2,0.5,0.5,0.5c0.3,0,0.5-0.2,0.5-0.5C5.7,19.4,5.5,19.2,5.2,19.2z"/>
	<path d="M10,22.2c-0.3,0-0.5,0.2-0.5,0.5c0,0.3,0.2,0.5,0.5,0.5s0.5-0.2,0.5-0.5C10.5,22.5,10.3,22.2,10,22.2z"/>
	<path d="M10.2,19.7c-0.3,0-0.5,0.2-0.5,0.5c0,0.3,0.2,0.5,0.5,0.5c0.3,0,0.5-0.2,0.5-0.5C10.7,20,10.5,19.7,10.2,19.7z"/>
	<path d="M4.7,23.4c-0.3,0-0.5,0.2-0.5,0.5c0,0.3,0.2,0.5,0.5,0.5s0.5-0.2,0.5-0.5C5.3,23.6,5,23.4,4.7,23.4z"/>
	<path d="M28.8,4.6c-0.1-0.3-0.2-0.6-2.6-0.5c-0.6-2.6-1.2-2.5-1.5-2.5c-0.2,0-0.6,0.1-1.7,2.7c-0.7-0.4-1.5-0.5-2.3-0.5
		c-1.3,0-2.6,0.5-3.6,1.5L3.5,18.8l0,0c-0.1,0.1-0.3,0.2-0.4,0.3c-2.4,2.4-2.7,6-0.7,8c0.9,0.9,2.1,1.3,3.3,1.3c1.6,0,3.3-0.7,4.6-2
		c0.1-0.1,0.2-0.2,0.3-0.4l0,0l13.6-13.5c1.5-1.5,1.9-3.7,1.1-5.6C29,5.4,28.9,5,28.8,4.6z M10.9,23.9c-0.3,0.6-0.7,1.2-1.2,1.7
		c-1.1,1.1-2.5,1.7-3.9,1.7h0c-0.5,0-1-0.1-1.4-0.3c-0.4-0.2-0.8-0.4-1.2-0.8c-0.7-0.7-1.1-1.8-1-3c0.1-0.6,0.2-1.2,0.5-1.8
		c0.3-0.6,0.7-1.2,1.2-1.7c1.1-1.1,2.5-1.7,3.9-1.7c0.5,0,1,0.1,1.4,0.3c0.4,0.2,0.8,0.4,1.2,0.8c0.7,0.7,1.1,1.8,1,3
		C11.3,22.7,11.2,23.3,10.9,23.9z M23.6,11.7L23.6,11.7L12.3,23c0.1-0.4,0.1-0.7,0.1-1.1l11.2-11.2c0.1-0.1,0.1-0.2,0.1-0.4
		c0-0.3-0.2-0.5-0.5-0.5c-0.1,0-0.3,0.1-0.4,0.1L12.3,20.6c-0.2-0.8-0.6-1.6-1.2-2.2c-0.9-0.9-2.1-1.3-3.3-1.3
		c-0.4,0-0.9,0.1-1.3,0.2L17.8,5.9c0.8-0.8,1.8-1.2,2.9-1.2s2.1,0.4,2.9,1.2c0.8,0.8,1.2,1.8,1.2,2.9C24.8,9.9,24.4,11,23.6,11.7z
		 M24.9,6l-1-1c0.4-0.9,0.7-1.7,1-2C25,3.3,25.2,4,25.3,4.7v0.4h0.4c0.4,0,0.8,0,1.2,0C26.4,5.4,25.7,5.7,24.9,6z"/>
</g>
</svg>
