<?xml version="1.0" encoding="UTF-8"?><svg version="1.1" viewBox="0 0 25 25" xmlns="http://www.w3.org/2000/svg" xmlns:xlink="http://www.w3.org/1999/xlink"><!--Generated by IJSVG (https://github.com/curthard89/IJSVG)--><g transform="matrix(1,0,0,1,-62,-62)"><g transform="matrix(1,0,0,1,62.5,62.3469)"><path fill="#000" stroke="none" d="M24.5644,2.89492l-2.89492,-2.89492l-1.6581,2.76252c-0.802177,-0.476894 -1.70703,-0.715832 -2.61194,-0.715832c-1.30978,0 -2.61955,0.499936 -3.61834,1.49882l-11.3841,11.3861l0.0124743,0.0115146c-0.12762,0.111306 -0.252351,0.228373 -0.374215,0.349282c-2.39887,2.39887 -2.72321,5.96253 -0.724455,7.96134c0.880856,0.880856 2.06494,1.31073 3.32013,1.31073c1.59286,0 3.29999,-0.692791 4.64145,-2.03423c0.121862,-0.121862 0.237968,-0.245644 0.349282,-0.373257l0.0124741,0.0115146l11.3841,-11.3851c1.68976,-1.68976 1.95076,-4.26611 0.782992,-6.23028l2.76317,-1.65819Zm-2.69153,-1.24358l1.04016,1.04111l-1.72334,1.03438c-0.0556532,-0.0614111 -0.112267,-0.120904 -0.17176,-0.180396c-0.0585322,-0.0585322 -0.118985,-0.116106 -0.180396,-0.170799l1.03534,-1.7243Zm-17.242,21.8881c-0.510474,0 -0.992182,-0.0854008 -1.43164,-0.255249c-0.443315,-0.17176 -0.835756,-0.425088 -1.1649,-0.754202c-0.747496,-0.748454 -1.09965,-1.81833 -0.991224,-3.01406c0.0546952,-0.610279 0.226455,-1.21766 0.508558,-1.80684c0.296493,-0.618901 0.702396,-1.18887 1.20616,-1.69264c1.10253,-1.10253 2.53038,-1.73486 3.91778,-1.73486c0.509516,0 0.992182,0.0854007 1.43068,0.255249c0.443315,0.17176 0.835756,0.425088 1.1649,0.75516c0.748454,0.747496 1.09965,1.81738 0.991224,3.01406c-0.0556532,0.610279 -0.226455,1.21766 -0.508558,1.80684c-0.296493,0.618901 -0.703354,1.18887 -1.20712,1.6936c-1.10061,1.10253 -2.52842,1.73295 -3.91582,1.73295h-4.913e-05Zm15.6638,-13.4797l-9.14068,9.13969c0.0863587,-0.373257 0.135296,-0.747496 0.14873,-1.11692l9.01785,-9.01785c0.0930771,-0.0921167 0.149691,-0.220697 0.149691,-0.361761c0,-0.283056 -0.229331,-0.51239 -0.51239,-0.51239c-0.141054,0 -0.268686,0.0575741 -0.361761,0.149691l-8.41332,8.41529c-0.184233,-0.822344 -0.577658,-1.5775 -1.18695,-2.1868c-0.879898,-0.879898 -2.06494,-1.31073 -3.31915,-1.31073c-0.432752,0 -0.873192,0.0518162 -1.31267,0.152567l9.14068,-9.14068c0.773387,-0.773387 1.80107,-1.19943 2.89492,-1.19943c1.09385,0 2.12156,0.426046 2.89492,1.19943c0.772429,0.773387 1.19847,1.80107 1.19847,2.89492c0.0009595,1.09292 -0.425088,2.12156 -1.19847,2.89492l0.0001351,5.65e-05Z"></path><path fill="#000" stroke="none" d="M8.1888,16.3766c0.283056,0 0.51239,-0.229331 0.51239,-0.51239c0,-0.282098 -0.229331,-0.511432 -0.51239,-0.511432c-0.282098,0 -0.51239,0.229331 -0.51239,0.511432c0,0.283056 0.229331,0.51239 0.51239,0.51239Z"></path><path fill="#000" stroke="none" d="M5.11825,18.4233c0.282098,0 0.511432,-0.229331 0.511432,-0.511432c0,-0.283056 -0.229331,-0.51239 -0.511432,-0.51239c-0.283056,0 -0.511432,0.229331 -0.511432,0.51239c0,0.282098 0.228373,0.511432 0.511432,0.511432Z"></path><path fill="#000" stroke="none" d="M7.16496,18.4233c0.282098,0 0.511432,-0.229331 0.511432,-0.511432c0,-0.283056 -0.228373,-0.51239 -0.511432,-0.51239c-0.283056,0 -0.51239,0.229331 -0.51239,0.51239c0.00095973,0.282098 0.230292,0.511432 0.51239,0.511432Z"></path><path fill="#000" stroke="none" d="M9.21167,17.3995c-0.283056,0 -0.511432,0.229331 -0.511432,0.51239c0,0.282098 0.228373,0.511432 0.511432,0.511432c0.283059,0 0.51239,-0.229331 0.51239,-0.511432c0,-0.283056 -0.229331,-0.51239 -0.51239,-0.51239Z"></path><path fill="#000" stroke="none" d="M3.07154,18.4233c0.283056,0 0.511432,-0.229331 0.511432,-0.511432c0,-0.283056 -0.229331,-0.51239 -0.511432,-0.51239c-0.282098,0 -0.51239,0.229331 -0.51239,0.51239c0,0.282098 0.229331,0.511432 0.51239,0.511432Z"></path><path fill="#000" stroke="none" d="M5.11825,21.4939c-0.283056,0 -0.511432,0.229331 -0.511432,0.511432c0,0.283056 0.229331,0.51239 0.511432,0.51239c0.282098,0 0.511432,-0.229331 0.511432,-0.51239c0,-0.282098 -0.229331,-0.511432 -0.511432,-0.511432Z"></path><path fill="#000" stroke="none" d="M7.16496,21.4939c-0.283056,0 -0.51239,0.229331 -0.51239,0.511432c0,0.283056 0.229331,0.51239 0.51239,0.51239c0.282098,0 0.511432,-0.229331 0.511432,-0.51239c0,-0.282098 -0.228373,-0.511432 -0.511432,-0.511432Z"></path><path fill="#000" stroke="none" d="M3.07154,21.4939c-0.282098,0 -0.51239,0.229331 -0.51239,0.511432c0,0.283056 0.229331,0.51239 0.51239,0.51239c0.283059,0 0.511432,-0.229331 0.511432,-0.51239c0,-0.282098 -0.229331,-0.511432 -0.511432,-0.511432Z"></path><path fill="#000" stroke="none" d="M6.14111,16.3766c0.283056,0 0.511432,-0.229331 0.511432,-0.51239c0,-0.282098 -0.229331,-0.511432 -0.511432,-0.511432c-0.282101,0 -0.51239,0.229331 -0.51239,0.511432c0.00095973,0.283056 0.230292,0.51239 0.51239,0.51239Z"></path><path fill="#000" stroke="none" d="M4.0944,16.3766c0.283056,0 0.51239,-0.229331 0.51239,-0.51239c0,-0.282098 -0.229331,-0.511432 -0.51239,-0.511432c-0.283056,0 -0.511432,0.229331 -0.511432,0.511432c0,0.283056 0.228373,0.51239 0.511432,0.51239Z"></path><path fill="#000" stroke="none" d="M8.1888,19.4472c-0.282098,0 -0.51239,0.228373 -0.51239,0.511432c0,0.282098 0.229331,0.511432 0.51239,0.511432c0.283056,0 0.51239,-0.228373 0.51239,-0.511432c-0.00095948,-0.283056 -0.230292,-0.511432 -0.51239,-0.511432Z"></path><path fill="#000" stroke="none" d="M6.14111,19.4472c-0.282098,0 -0.51239,0.228373 -0.51239,0.511432c0,0.282098 0.229331,0.511432 0.51239,0.511432c0.283059,0 0.511432,-0.228373 0.511432,-0.511432c0.00095973,-0.283056 -0.228373,-0.511432 -0.511432,-0.511432Z"></path><path fill="#000" stroke="none" d="M4.0944,19.4472c-0.283056,0 -0.511432,0.228373 -0.511432,0.511432c0,0.282098 0.229331,0.511432 0.511432,0.511432c0.283056,0 0.51239,-0.228373 0.51239,-0.511432c0,-0.283058 -0.229331,-0.511432 -0.51239,-0.511432Z"></path><path fill="#000" stroke="none" d="M2.04767,19.4472c-0.283056,0 -0.511432,0.228373 -0.511432,0.511432c0,0.282098 0.229331,0.511432 0.511432,0.511432c0.282098,0 0.511432,-0.228373 0.511432,-0.511432c0,-0.283058 -0.229331,-0.511432 -0.511432,-0.511432Z"></path></g></g></svg>