<svg viewBox="0 0 30 30" xmlns="http://www.w3.org/2000/svg">
    <path
        d="M9.5 28.8c-4.7 0-8.5-3.8-8.5-8.5s3.8-8.5 8.5-8.5 8.5 3.8 8.5 8.5S14.2 28.8 9.5 28.8zM9.5 27.8c4.1 0 7.5-3.4 7.5-7.5s-3.4-7.5-7.5-7.5S2 16.1 2 20.3 5.4 27.8 9.5 27.8z" />
    <path
        d="M14.3 27.4c-0.2 0.2-0.5 0.1-0.7-0.1s-0.1-0.5 0.1-0.7c0.4-0.3 3.7-3.3 9.5-8.6 2-2.5 2.5-3.4 2.5-5.4 0-3.9-3.2-7.1-7.1-7.1 -1.3 0-2.6 0.4-3.8 1.1 -1.4 0.9-4.9 3.7-10.6 8.3 -0.2 0.2-0.5 0.1-0.7-0.1 -0.2-0.2-0.1-0.5 0.1-0.7 5.7-4.7 9.3-7.5 10.7-8.4 1.3-0.8 2.7-1.2 4.3-1.2 4.5 0 8.1 3.6 8.1 8.1 0 2.2-0.6 3.4-2.8 6.1C18 24.1 14.8 27 14.3 27.4z" />
    <path
        d="M28.9 6.5c-0.1-0.3-0.2-0.6-2.6-0.5 -0.6-2.6-1.2-2.5-1.5-2.5 -0.2 0-0.7 0.1-2 3.3 0.3 0 0.7 0.1 1 0.3 0.4-1 0.8-1.9 1.1-2.3 0.2 0.4 0.4 1.1 0.5 1.8L25.4 7l0.4 0c0.4 0 0.8 0 1.2 0 -0.6 0.3-1.5 0.7-2.4 1 0.2 0.3 0.3 0.6 0.3 1C29.1 7.3 29 6.9 28.9 6.5z" />
    <path class="st0"
        d="M4.7 18.7c-0.8 0-1.4 0.6-1.4 1.4s0.6 1.4 1.4 1.4c0.8 0 1.4-0.6 1.4-1.4S5.5 18.7 4.7 18.7z" />
    <path class="st0"
        d="M12.9 20.5c0.6 0 1.2-0.5 1.2-1.2 0-0.6-0.5-1.2-1.2-1.2s-1.2 0.5-1.2 1.2C11.7 20 12.2 20.5 12.9 20.5z" />
    <path class="st0"
        d="M8.9 14.4c-1.1 0-1.9 0.9-1.9 1.9s0.9 1.9 1.9 1.9c1.1 0 1.9-0.9 1.9-1.9S10 14.4 8.9 14.4z" />
    <circle class="st0" cx="7.6" cy="23" r="0.9" />
    <circle class="st0" cx="12.5" cy="24" r="1.3" />
</svg>
