<?xml version="1.0" encoding="utf-8"?>
<!-- Generator: Adobe Illustrator 23.0.1, SVG Export Plug-In . SVG Version: 6.00 Build 0)  -->
<svg version="1.1" id="Ebene_1" xmlns="http://www.w3.org/2000/svg" xmlns:xlink="http://www.w3.org/1999/xlink" x="0px" y="0px"
	 viewBox="0 0 30 30" style="enable-background:new 0 0 30 30;" xml:space="preserve">
<style type="text/css">
	.st0{fill-rule:evenodd;clip-rule:evenodd;}
</style>
<title>salami</title>
<desc>Created with Sketch.</desc>
<g id="Page-1">
	<g id="Artboard" transform="translate(-121.000000, -61.000000)">
		<g id="salami" transform="translate(121.000000, 60.146429)">
			<path id="Oval" d="M9.5,29.7c-4.7,0-8.5-3.8-8.5-8.5s3.8-8.5,8.5-8.5s8.5,3.8,8.5,8.5S14.2,29.7,9.5,29.7z M9.5,28.7
				c4.1,0,7.5-3.4,7.5-7.5s-3.4-7.5-7.5-7.5S2,17,2,21.2S5.4,28.7,9.5,28.7z"/>
			<path id="Oval-Copy" d="M14.3,28.3c-0.2,0.2-0.5,0.1-0.7-0.1s-0.1-0.5,0.1-0.7c0.4-0.3,3.7-3.3,9.5-8.6c2-2.5,2.5-3.4,2.5-5.4
				c0-3.9-3.2-7.1-7.1-7.1c-1.3,0-2.6,0.4-3.8,1.1c-1.4,0.9-4.9,3.7-10.6,8.3c-0.2,0.2-0.5,0.1-0.7-0.1c-0.2-0.2-0.1-0.5,0.1-0.7
				c5.7-4.7,9.3-7.5,10.7-8.4c1.3-0.8,2.7-1.2,4.3-1.2c4.5,0,8.1,3.6,8.1,8.1c0,2.2-0.6,3.4-2.8,6.1C18,25,14.8,27.9,14.3,28.3z"/>
		</g>
	</g>
</g>
<path d="M21.9,5.7"/>
<path d="M28.9,6.5c-0.1-0.3-0.2-0.6-2.6-0.5c-0.6-2.6-1.2-2.5-1.5-2.5c-0.2,0-0.7,0.1-2,3.3c0.3,0,0.7,0.1,1,0.3
	c0.4-1,0.8-1.9,1.1-2.3c0.2,0.4,0.4,1.1,0.5,1.8L25.4,7l0.4,0c0.4,0,0.8,0,1.2,0c-0.6,0.3-1.5,0.7-2.4,1c0.2,0.3,0.3,0.6,0.3,1
	C29.1,7.3,29,6.9,28.9,6.5z"/>
<g>
	<path class="st0" d="M4.7,18.7c-0.8,0-1.4,0.6-1.4,1.4s0.6,1.4,1.4,1.4c0.8,0,1.4-0.6,1.4-1.4S5.5,18.7,4.7,18.7z"/>
	<path class="st0" d="M12.9,20.5c0.6,0,1.2-0.5,1.2-1.2c0-0.6-0.5-1.2-1.2-1.2s-1.2,0.5-1.2,1.2C11.7,20,12.2,20.5,12.9,20.5z"/>
</g>
<path class="st0" d="M8.9,14.4c-1.1,0-1.9,0.9-1.9,1.9s0.9,1.9,1.9,1.9c1.1,0,1.9-0.9,1.9-1.9S10,14.4,8.9,14.4z"/>
<circle class="st0" cx="7.6" cy="23" r="0.9"/>
<circle class="st0" cx="12.5" cy="24" r="1.3"/>
</svg>
