<?xml version="1.0" encoding="UTF-8"?><svg version="1.1" viewBox="0 0 24 28" xmlns="http://www.w3.org/2000/svg" xmlns:xlink="http://www.w3.org/1999/xlink"><!--Generated by IJSVG (https://github.com/curthard89/IJSVG)--><path d="M11.206,5.52143c-4.256,0.794 -6.061,4.48 -6.136,4.638c-0.063,0.131 -0.071,0.279 -0.023,0.416c0.048,0.137 0.147,0.246 0.279,0.309c0.074,0.035 0.155,0.054 0.234,0.054c0.209,0 0.396,-0.118 0.489,-0.307c0.016,-0.033 1.616,-3.229 5.157,-4.003v5.534c-3.232,0.837 -5.216,4.436 -5.3,4.59c-0.07,0.127 -0.085,0.274 -0.044,0.413c0.041,0.14 0.134,0.255 0.262,0.324c0.081,0.044 0.168,0.066 0.259,0.066c0.2,0 0.383,-0.11 0.477,-0.285c0.018,-0.032 1.725,-3.117 4.346,-3.974v4.546c-4.055,0.402 -4.92,5.331 -5.05,8.523c-3.26,-2.445 -5.27,-6.861 -5.27,-11.631c0,-9.689 8.097,-12.754 10.32,-13.412v4.199Zm1.086,7.749c2.645,0.814 4.41,3.968 4.428,4.002c0.095,0.175 0.278,0.284 0.477,0.284c0.09,0 0.179,-0.022 0.26,-0.066c0.262,-0.143 0.36,-0.473 0.218,-0.735c-0.086,-0.158 -2.099,-3.813 -5.383,-4.611v-5.532c3.6,0.743 5.224,3.987 5.24,4.02c0.09,0.187 0.282,0.307 0.49,0.307c0.083,0 0.163,-0.018 0.235,-0.054c0.13,-0.063 0.229,-0.173 0.277,-0.309c0.048,-0.137 0.04,-0.285 -0.023,-0.417c-0.198,-0.402 -2.035,-3.913 -6.219,-4.652v-4.168c2.229,0.711 10.32,3.945 10.32,13.395c0,4.771 -2.012,9.189 -5.273,11.633c-0.187,-3.749 -1.604,-8.051 -5.047,-8.51v-4.587Zm-0.468,-12.986c-0.003,-3.88578e-16 -0.006,-3.88578e-16 -0.009,-3.88578e-16c-0.007,0 -0.013,0.001 -0.02,0.001c-0.002,0 -0.004,0 -0.006,-0.001c-0.014,-0.001 -0.026,-0.008 -0.04,-0.008c-0.013,0 -0.024,0.007 -0.037,0.008c-0.002,0.001 -0.004,0.001 -0.005,0.001c-0.007,0 -0.014,-0.001 -0.02,-0.001c-0.003,0 -0.006,0 -0.009,0c-0.116,0.025 -11.678,2.607 -11.678,14.45c0,5.512 2.49,10.468 6.499,12.935c0.056,0.034 0.118,0.05 0.18,0.05c0.057,0 0.115,-0.014 0.167,-0.042c0.108,-0.062 0.175,-0.176 0.175,-0.3c0,-7.172 2.571,-8.678 4.728,-8.678c2.353,0 4.727,2.682 4.727,8.678c0,0.124 0.067,0.238 0.176,0.3c0.052,0.028 0.11,0.043 0.167,0.043c0.062,0 0.125,-0.018 0.18,-0.051c4.009,-2.467 6.499,-7.424 6.499,-12.935c0,-11.721 -11.559,-14.424 -11.674,-14.45Z" fill-rule="evenodd" fill="#000" stroke="none"></path></svg>