<?xml version="1.0" encoding="utf-8"?>
<!-- Generator: Adobe Illustrator 23.0.1, SVG Export Plug-In . SVG Version: 6.00 Build 0)  -->
<svg version="1.1" id="Ebene_1" xmlns="http://www.w3.org/2000/svg" xmlns:xlink="http://www.w3.org/1999/xlink" x="0px" y="0px"
	 viewBox="0 0 29 28" style="enable-background:new 0 0 29 28;" xml:space="preserve">
<style type="text/css">
	.st0{fill-rule:evenodd;clip-rule:evenodd;}
</style>
<title>Salmon</title>
<desc>Created with Sketch.</desc>
<path class="st0" d="M14.6,0.3C14.6,0.3,14.6,0.3,14.6,0.3C14.6,0.3,14.6,0.3,14.6,0.3C14.5,0.3,14.5,0.3,14.6,0.3
	C14.5,0.3,14.5,0.3,14.6,0.3c-0.1,0-0.1,0-0.1,0c0,0,0,0,0,0c0,0,0,0,0,0c0,0,0,0,0,0c-0.1,0-11.7,2.6-11.7,14.5
	c0,5.5,2.5,10.5,6.5,12.9c0.1,0,0.1,0,0.2,0c0.1,0,0.1,0,0.2,0c0.1-0.1,0.3-0.2,0.3-0.3c0-0.4,0-0.5-0.1-0.8l0-0.2
	c-0.4-1.7-0.9-6.2,1.2-6.8c2-0.6,3-1.7,3.6-3c0.5,1.3,1.6,2.4,3.6,3c1.9,0.5,1.6,4.4,1.2,6.3c0,0.1,0,0.3,0,0.4
	c0,0.5-0.1,0.6-0.1,1.1c0,0.1,0.1,0.2,0.2,0.3c0.1,0,0.1,0,0.2,0c0.1,0,0.1,0,0.2-0.1c4-2.5,6.5-7.4,6.5-12.9
	C26.2,3,14.7,0.3,14.6,0.3z M10.7,18.6c-3,0.8-2.2,6.3-1.9,7.7c-3.2-2.5-5.1-6.8-5.1-11.5C3.6,5,11.7,2,14,1.3v4.2
	C9.7,6.3,7.9,10,7.8,10.2c-0.1,0.1-0.1,0.3,0,0.4c0,0.1,0.1,0.2,0.3,0.3c0.1,0,0.2,0.1,0.2,0.1c0.2,0,0.4-0.1,0.5-0.3
	c0,0,1.6-3.2,5.2-4V10c-3.2,0.8-5.2,4.4-5.3,4.6c-0.1,0.1-0.1,0.3,0,0.4c0,0.1,0.1,0.3,0.3,0.3c0.1,0,0.2,0.1,0.3,0.1
	c0.2,0,0.4-0.1,0.5-0.3c0,0,1.7-3.1,4.3-4c0,0,0,2.4,0,3C14,16.7,12.8,18,10.7,18.6z M20.3,26.2c0.3-1.5,1.1-6.8-1.9-7.6
	c-2.2-0.6-3.3-2-3.3-4.4c0-0.7,0-3,0-3c2.6,0.8,4.4,4,4.4,4c0.1,0.2,0.3,0.3,0.5,0.3c0.1,0,0.2,0,0.3-0.1c0.3-0.1,0.4-0.5,0.2-0.7
	c-0.1-0.2-2.1-3.8-5.4-4.6V6.6c3.6,0.7,5.2,4,5.2,4c0.1,0.2,0.3,0.3,0.5,0.3c0.1,0,0.2,0,0.2-0.1c0.1-0.1,0.2-0.2,0.3-0.3
	c0-0.1,0-0.3,0-0.4c-0.2-0.4-2-3.9-6.2-4.7V1.3c2.2,0.7,10.3,3.9,10.3,13.4C25.4,19.4,23.4,23.7,20.3,26.2z"/>
</svg>
