<?xml version="1.0" encoding="UTF-8"?><svg version="1.1" viewBox="0 0 30 30" xmlns="http://www.w3.org/2000/svg" xmlns:xlink="http://www.w3.org/1999/xlink"><g fill="#000"><path d="M20.242,30h-10.628c-1.335,0 -2.9,-0.659 -3.808,-1.603c-0.56,-0.583 -0.842,-1.246 -0.815,-1.917l1.85,-18.191c0.058,-1.467 0.88,-2.838 2.165,-3.619c0.171,-2.601 2.348,-4.67 4.985,-4.67h1c2.626,0 4.755,1.984 4.973,4.571c1.319,0.727 2.199,2.068 2.32,3.567l1.705,18.316c0.068,0.853 -0.221,1.672 -0.813,2.314c-0.712,0.772 -1.809,1.232 -2.934,1.232Zm-6.251,-29c-2.188,0 -3.98,1.782 -3.996,3.971c-0.001,0.185 -0.104,0.354 -0.269,0.44c-1.115,0.582 -1.838,1.712 -1.888,2.949l-1.85,18.191c-0.014,0.368 0.167,0.767 0.539,1.153c0.71,0.739 2.037,1.296 3.087,1.296h10.628c0.851,0 1.673,-0.34 2.199,-0.911c0.283,-0.307 0.609,-0.825 0.552,-1.549l-1.705,-18.312c0,-0.002 0,-0.004 0,-0.006c-0.1,-1.244 -0.873,-2.348 -2.019,-2.882c-0.172,-0.08 -0.284,-0.25 -0.289,-0.44c-0.055,-2.188 -1.808,-3.9 -3.989,-3.9h-1Z"></path><path d="M20.242,30h-10.628c-1.335,0 -2.9,-0.659 -3.808,-1.603c-0.56,-0.583 -0.842,-1.246 -0.815,-1.917l1.85,-18.19c0.095,-2.392 2.069,-4.29 4.494,-4.29h6.464c2.33,0 4.3,1.819 4.485,4.141l1.705,18.313c0.068,0.853 -0.221,1.672 -0.813,2.314c-0.712,0.772 -1.809,1.232 -2.934,1.232Zm-8.907,-25c-1.886,0 -3.422,1.476 -3.497,3.36l-1.85,18.19c-0.014,0.368 0.167,0.767 0.539,1.153c0.71,0.74 2.037,1.297 3.087,1.297h10.628c0.851,0 1.673,-0.34 2.199,-0.911c0.283,-0.307 0.609,-0.825 0.552,-1.549l-1.705,-18.312c-0.144,-1.813 -1.677,-3.228 -3.489,-3.228h-6.464Z"></path><path d="M15.491,24h-1c-1.93,0 -3.5,-1.57 -3.5,-3.5c0,-0.276 0.224,-0.5 0.5,-0.5c0.276,0 0.5,0.224 0.5,0.5c0,1.378 1.121,2.5 2.5,2.5h1c1.379,0 2.5,-1.122 2.5,-2.5c0,-1.378 -1.121,-2.5 -2.5,-2.5h-1c-1.93,0 -3.5,-1.57 -3.5,-3.5c0,-1.93 1.57,-3.5 3.5,-3.5h1c1.93,0 3.5,1.57 3.5,3.5c0,0.276 -0.224,0.5 -0.5,0.5c-0.276,0 -0.5,-0.224 -0.5,-0.5c0,-1.378 -1.121,-2.5 -2.5,-2.5h-1c-1.379,0 -2.5,1.122 -2.5,2.5c0,1.378 1.121,2.5 2.5,2.5h1c1.93,0 3.5,1.57 3.5,3.5c0,1.93 -1.57,3.5 -3.5,3.5Z"></path></g></svg>