<?xml version="1.0" encoding="UTF-8"?><svg version="1.1" viewBox="0 0 30 30" xmlns="http://www.w3.org/2000/svg" xmlns:xlink="http://www.w3.org/1999/xlink"><g fill="#000"><path d="M26.5,30h-23c-1.7,0 -3,-1.9 -3,-3.5c0,-0.3 0.2,-0.5 0.5,-0.5h11.5v-25.5c0,-0.3 0.2,-0.5 0.5,-0.5h3c0.3,0 0.5,0.2 0.5,0.5v25.5h12.5c0.3,0 0.5,0.2 0.5,0.5c0,1.6 -1.3,3.5 -3,3.5Zm-24.9,-3c0.2,1 1,2 1.9,2h23c0.9,0 1.7,-1 1.9,-2h-12.4c-0.3,0 -0.5,-0.2 -0.5,-0.5v-25.5h-2v25.5c0,0.3 -0.2,0.5 -0.5,0.5h-11.4Z"></path><path d="M22,10c-2.7,0 -4.5,-1.4 -4.5,-3.5c0,-2.2 2,-4 4.5,-4c2.4,0 4.5,2 4.5,4.3c0,2 -1.6,3.2 -4.5,3.2Zm0,-6.5c-1.7,0 -3.5,1.1 -3.5,3c0,1.8 1.8,2.5 3.5,2.5c1.6,0 3.5,-0.4 3.5,-2.3c0,-1.7 -1.6,-3.2 -3.5,-3.2Z"></path><path d="M26,27h-8c-0.3,0 -0.5,-0.2 -0.5,-0.5c0,-7.2 1.5,-17.5 1.5,-17.6c0,-0.3 0.3,-0.5 0.6,-0.4c0.3,0 0.5,0.3 0.4,0.6c0,0.1 -1.4,9.8 -1.5,16.9h7c-0.1,-7.1 -1.5,-16.3 -1.5,-16.4c0,-0.3 0.2,-0.6 0.4,-0.6c0.3,0 0.6,0.2 0.6,0.4c0,0.1 1.5,9.8 1.5,17.1c0,0.3 -0.2,0.5 -0.5,0.5Z"></path><path d="M7,10c-1.1,0 -4.5,0 -4.5,-3c0,-2.4 2.1,-4.5 4.5,-4.5c2.4,0 4.5,2 4.5,4.3c0,2 -1.6,3.2 -4.5,3.2Zm0,-6.5c-1.8,0 -3.5,1.7 -3.5,3.5c0,0.9 0.4,2 3.5,2c1.6,0 3.5,-0.4 3.5,-2.3c0,-1.7 -1.6,-3.2 -3.5,-3.2Z"></path><path d="M11,27h-8c-0.3,0 -0.5,-0.2 -0.5,-0.5c0,-7.2 1.5,-17 1.5,-17.1c0,-0.2 0.3,-0.4 0.6,-0.4c0.2,0 0.4,0.3 0.4,0.6c0,0.1 -1.4,9.3 -1.5,16.4h7c-0.1,-7.1 -1.5,-16.3 -1.5,-16.4c0,-0.3 0.2,-0.6 0.4,-0.6c0.3,0 0.6,0.2 0.6,0.4c0,0.1 1.5,9.8 1.5,17.1c0,0.3 -0.2,0.5 -0.5,0.5Z"></path><path d="M22,5c-0.3,0 -0.5,-0.2 -0.5,-0.5v-3c0,-0.3 0.2,-0.5 0.5,-0.5c0.3,0 0.5,0.2 0.5,0.5v3c0,0.3 -0.2,0.5 -0.5,0.5Z"></path><path d="M6.35355,5.14645c0.195262,0.195262 0.195262,0.511845 0,0.707107c-0.195262,0.195262 -0.511845,0.195262 -0.707107,0c-0.195262,-0.195262 -0.195262,-0.511845 0,-0.707107c0.195262,-0.195262 0.511845,-0.195262 0.707107,0"></path><path d="M8.35355,5.14645c0.195262,0.195262 0.195262,0.511845 0,0.707107c-0.195262,0.195262 -0.511845,0.195262 -0.707107,0c-0.195262,-0.195262 -0.195262,-0.511845 0,-0.707107c0.195262,-0.195262 0.511845,-0.195262 0.707107,0"></path></g></svg>