<?xml version="1.0" encoding="UTF-8"?><svg version="1.1" viewBox="0 0 30 30" xmlns="http://www.w3.org/2000/svg" xmlns:xlink="http://www.w3.org/1999/xlink"><g fill="#000"><path d="M8,12c-0.2,0 -0.5,-0.2 -0.5,-0.4c0,0 -0.1,-0.4 -0.4,-0.7c-0.2,-0.2 -0.2,-0.5 0,-0.7c0.2,-0.2 0.5,-0.2 0.7,0c0.5,0.5 0.6,1.2 0.6,1.3c0.1,0.2 -0.1,0.4 -0.4,0.5c0,0 0,0 0,0Z"></path><path d="M16.5,11.5c-0.3,0 -0.5,-0.2 -0.5,-0.5c0,-0.5 -0.3,-1.1 -0.9,-1.6c-0.2,-0.2 -0.2,-0.5 0,-0.7c0.2,-0.2 0.5,-0.2 0.7,0c0.6,0.5 1.2,1.4 1.2,2.3c0,0.3 -0.2,0.5 -0.5,0.5Z"></path><path d="M24.5,12.5c-0.3,0 -0.5,-0.2 -0.5,-0.5c0,-0.4 -0.9,-1.2 -1.6,-1.4c-0.3,-0.1 -0.4,-0.3 -0.4,-0.6c0.1,-0.3 0.3,-0.4 0.6,-0.4c1,0.3 2.4,1.4 2.4,2.4c0,0.3 -0.2,0.5 -0.5,0.5Z"></path><path d="M6.5,18.5c-0.1,0 -0.2,0 -0.2,-0.1l-4,-2c-0.3,-0.1 -0.4,-0.4 -0.2,-0.6c0.1,-0.2 0.4,-0.3 0.7,-0.2l3.8,1.9l3.8,-1.9c0.2,-0.1 0.5,0 0.7,0.2c0.2,0.2 0,0.5 -0.2,0.7l-4,2c-0.2,0 -0.3,0 -0.4,0Z"></path><path d="M15.5,18.5c-0.1,0 -0.2,0 -0.2,-0.1l-4,-2c-0.2,-0.1 -0.3,-0.4 -0.2,-0.7c0.1,-0.2 0.4,-0.3 0.7,-0.2l3.8,1.9l4.8,-1.9c0.3,-0.1 0.5,0 0.7,0.3c0.1,0.3 0,0.5 -0.3,0.7l-5,2c-0.2,0 -0.2,0 -0.3,0Z"></path><path d="M25.5,18.5c-0.1,0 -0.1,0 -0.2,0l-5,-2c-0.3,-0.1 -0.4,-0.4 -0.3,-0.7c0.1,-0.3 0.4,-0.4 0.7,-0.3l4.8,1.9l3.8,-1.9c0.2,-0.1 0.5,0 0.7,0.2c0.2,0.2 0,0.5 -0.2,0.7l-4,2c-0.1,0.1 -0.2,0.1 -0.3,0.1Z"></path><path d="M29.5,16.5h-29c-0.3,0 -0.5,-0.2 -0.5,-0.5c0,-4.2 6.6,-7.5 15,-7.5c8.4,0 15,3.3 15,7.5c0,0.3 -0.2,0.5 -0.5,0.5Zm-28.5,-1h28c-0.6,-3.3 -6.7,-6 -14,-6c-7.3,0 -13.4,2.7 -14,6Z"></path><path d="M15.1,21.5c-4.7,0 -9.4,-0.3 -12.7,-1c-1.5,-0.3 -2.4,-1.3 -2.4,-2.5c0,-1.4 1.1,-2.5 2.5,-2.5h25c1.4,0 2.5,1.1 2.5,2.5c0,1.2 -0.9,2.2 -2.4,2.5v0c-3.1,0.7 -7.8,1 -12.5,1Zm-12.6,-5c-0.8,0 -1.5,0.7 -1.5,1.5c0,1.1 1.2,1.4 1.6,1.5c6.5,1.3 18.6,1.3 24.8,0v0c0.5,-0.1 1.6,-0.5 1.6,-1.5c0,-0.8 -0.7,-1.5 -1.5,-1.5h-25Z"></path></g></svg>