<?xml version="1.0" encoding="UTF-8"?><svg version="1.1" viewBox="0 0 31 28" xmlns="http://www.w3.org/2000/svg" xmlns:xlink="http://www.w3.org/1999/xlink"><!--Generated by IJSVG (https://github.com/curthard89/IJSVG)--><g transform="matrix(1,0,0,1,-149,0)"><g transform="matrix(1,0,0,1,149.934,0)"><path fill="#000" stroke="none" d="M16.2141,4.92587c-0.237899,0 -0.430875,0.19298 -0.430875,0.430875c0,0.237895 0.19298,0.430875 0.430875,0.430875h9.42899c1.43905,0 2.61025,1.10298 2.61025,2.45885v15.5749c0,1.35587 -1.1712,2.45885 -2.61025,2.45885h-22.1708c-1.43905,0 -2.61025,-1.10468 -2.61025,-2.45885l0.00166354,-15.5749c0,-1.35587 1.1712,-2.45885 2.61025,-2.45885h9.49101c0.237899,0 0.430875,-0.19298 0.430875,-0.430875c0,-0.237895 -0.19298,-0.430875 -0.430875,-0.430875h-9.49101c-1.91319,0 -3.47034,1.48896 -3.47034,3.32064v15.5749c-1.23165e-16,1.83168 1.55715,3.32064 3.47034,3.32064h22.1708c1.91319,0 3.47034,-1.48896 3.47034,-3.32064v-15.5749c0,-1.83168 -1.55715,-3.32064 -3.47034,-3.32064h-9.43066Z"></path><path fill="#000" stroke="none" d="M4.29154,4.54853h9.87092v1.5821h-1.19782c-0.695397,0 -1.30762,0.359347 -1.6603,0.90336l-7.10048,0.00166353c-1.15958,0 -2.10284,0.87342 -2.10284,1.94812v14.1026c0,1.07304 0.943266,1.94646 2.10284,1.94646h7.10048c0.35269,0.543992 0.964902,0.90336 1.6603,0.90336h3.25739c0.695397,0 1.30762,-0.361012 1.6603,-0.90336h7.02867c1.16124,0 2.1045,-0.87342 2.1045,-1.94646v-14.1026c0,-1.0747 -0.94497,-1.94812 -2.1045,-1.94812h-7.02867c-0.35269,-0.543992 -0.964902,-0.90336 -1.6603,-0.90336h-1.19948v-2.01302c0,-0.237899 -0.192985,-0.430875 -0.430875,-0.430875h-1.59045c-0.617203,0 -1.11963,-0.502425 -1.11963,-1.11963v-0.492417c0,-0.617203 0.502425,-1.11963 1.11963,-1.11963h3.25739c0.617203,1.11022e-16 1.11963,0.502425 1.11963,1.11963v0.492417c0,0.617203 -0.502425,1.11963 -1.11963,1.11963h-0.114791c-0.237899,0 -0.430875,0.19298 -0.430875,0.430875c0,0.237895 0.19298,0.430875 0.430875,0.430875h0.114791c1.09135,0 1.97972,-0.888369 1.97972,-1.97972v-0.492417c0,-1.09135 -0.888369,-1.97972 -1.97972,-1.97972h-3.25739c-1.09135,5.55112e-17 -1.97972,0.888369 -1.97972,1.97972v0.492417c0,1.08969 0.888369,1.97806 1.97972,1.97806l-8.70968,4.004e-05Zm13.0304,3.34726c0.0133091,0.0698719 0.0199637,0.141409 0.0199637,0.216272v15.8445c0,0.0748633 -0.0066546,0.144735 -0.0199637,0.216272c-0.0815201,0.412583 -0.390956,0.746973 -0.791904,0.86009h-3.87128c-0.400939,-0.114791 -0.712049,-0.447528 -0.791904,-0.86009c-0.0133092,-0.0698719 -0.0216273,-0.141409 -0.0216273,-0.216272v-15.8445c0,-0.0748634 0.0066546,-0.144735 0.0216273,-0.216272c0.08152,-0.412583 0.390956,-0.746973 0.791904,-0.86009h3.87128c0.400939,0.113126 0.710388,0.447528 0.791904,0.86009Zm-6.33856,7.39136c-2.03628,-0.163036 -5.14733,-1.41409 -5.72783,-2.89973c0.578958,-1.4873 3.68997,-2.73836 5.72783,-2.90139v5.80112Zm0,7.29341c-2.03628,-0.163036 -5.14733,-1.41409 -5.72783,-2.89973c0.578958,-1.48564 3.68997,-2.73836 5.72783,-2.90139v5.80112Zm-6.77935,1.59045c-0.68377,0 -1.24109,-0.487434 -1.24109,-1.08637l-0.00166353,-14.1009c0,-0.59889 0.557323,-1.08637 1.24109,-1.08637h6.79256c-0.0083181,0.0698719 -0.0116456,0.143074 -0.0116456,0.216272v0.51073c-2.20267,0.164701 -5.97229,1.5189 -6.59622,3.64338c-0.0249543,0.0798548 -0.0249543,0.163036 0,0.242891c0.547357,1.85663 3.50198,3.1243 5.70483,3.52358c-2.20433,0.397609 -5.15883,1.66699 -5.70483,3.5269c-0.0249543,0.0798548 -0.0249543,0.164701 0,0.242891c0.625551,2.12116 4.39521,3.47537 6.59622,3.64172v0.51073c0,0.0732024 0.0033275,0.144735 0.0116456,0.216272l-6.79089,-0.0017632Zm20.7088,-16.2755c0.685431,-1.77636e-15 1.24275,0.487434 1.24275,1.08637v14.1026c0,0.597229 -0.557323,1.08637 -1.24275,1.08637h-6.72074c0.0083181,-0.0698719 0.0116456,-0.143074 0.0116456,-0.216272v-15.8428c0,-0.0732024 -0.0033275,-0.144735 -0.0116456,-0.216272l6.72074,8.52e-06Z"></path><path fill="#000" stroke="none" d="M8.45481,12.4706c0.400939,0 0.726998,-0.326072 0.726998,-0.728659c0,-0.400939 -0.326072,-0.726998 -0.726998,-0.726998c-0.400939,0 -0.726998,0.326072 -0.726998,0.726998c0,0.4026 0.324411,0.728659 0.726998,0.728659Z"></path><path fill="#000" stroke="none" d="M8.45481,19.8321c0.400939,0 0.726998,-0.326072 0.726998,-0.728659c0,-0.400939 -0.326072,-0.726998 -0.726998,-0.726998c-0.400939,0 -0.726998,0.326072 -0.726998,0.726998c0,0.404265 0.324411,0.728659 0.726998,0.728659Z"></path></g></g></svg>