<?xml version="1.0" encoding="iso-8859-1"?>
<svg version="1.1" xmlns="http://www.w3.org/2000/svg" xmlns:xlink="http://www.w3.org/1999/xlink" x="0px" y="0px"
	 viewBox="0 0 24 24" style="enable-background:new 0 0 24 24;" xml:space="preserve">
	<g>
		<path d="M10.988,17.985c-1.173,0-5-0.108-5-1.5c0-0.328,0.207-0.605,0.616-0.823l1.65-1.65c-1.572-0.878-2.939-2.156-3.796-2.958
			c-0.29-0.271-0.617-0.577-0.715-0.633c-0.157-0.088-0.339-0.214-0.545-0.359c-0.646-0.454-1.532-1.076-2.71-1.076
			c-0.225,0-0.422-0.15-0.482-0.367c-0.06-0.216,0.032-0.446,0.225-0.562c0.073-0.044,1.802-1.071,3.257-1.071
			c0.618,0,1.552,0.185,2.634,0.4c1.42,0.281,3.029,0.6,4.366,0.6c2.414,0,6.405-0.548,7.857-0.979
			c0.151-0.043,0.315-0.016,0.441,0.079c0.126,0.095,0.201,0.243,0.201,0.401c0,1.516-2.208,5.045-4.85,6.657l1.377,1.607
			c0.313,0.205,0.472,0.452,0.472,0.736C15.988,17.876,12.161,17.985,10.988,17.985z M7.181,16.485c0.523,0.22,1.834,0.5,3.807,0.5
			c2.007,0,3.329-0.289,3.833-0.511c-0.005-0.005-0.01-0.011-0.015-0.017l-1.827-2.131c-0.101-0.117-0.142-0.274-0.11-0.426
			s0.13-0.28,0.269-0.348c2.221-1.092,4.18-3.851,4.709-5.392c-1.867,0.409-5.178,0.824-7.359,0.824
			c-1.436,0-3.096-0.329-4.561-0.62c-0.987-0.195-1.92-0.38-2.439-0.38c-0.448,0-0.951,0.133-1.402,0.299
			C2.787,8.55,3.345,8.943,3.772,9.243C3.947,9.366,4.1,9.474,4.233,9.549c0.19,0.106,0.429,0.327,0.908,0.774
			c0.925,0.865,2.475,2.313,4.163,3.104c0.148,0.069,0.252,0.206,0.281,0.366c0.028,0.161-0.024,0.325-0.139,0.44l-2.19,2.19
			C7.233,16.447,7.208,16.468,7.181,16.485z"/>
	</g>
	<g>
		<path d="M17.205,15.016c-0.519,0-1.004-0.229-1.396-0.668c-0.563-0.629-0.828-1.579-0.617-2.21c0.115-0.344,0.37-0.579,0.7-0.644
			c4.488-0.884,6.794-2.255,7.088-3.222c0.059-0.194,0.087-0.501-0.345-0.934c-0.383-0.383-2.621-0.635-3.798,0.505
			c-0.198,0.192-0.515,0.188-0.707-0.011s-0.188-0.515,0.011-0.707c1.583-1.534,4.421-1.275,5.202-0.495
			c0.75,0.75,0.737,1.464,0.595,1.932c-0.691,2.271-5.721,3.492-7.852,3.912c-0.002,0.066,0.02,0.584,0.358,1.064
			c0.184,0.261,0.497,0.549,0.94,0.456c0.271-0.058,0.536,0.113,0.594,0.383c0.058,0.27-0.113,0.536-0.383,0.594
			C17.462,15.002,17.333,15.016,17.205,15.016z"/>
	</g>
</svg>
