<?xml version="1.0" encoding="UTF-8"?>
<svg version="1.1" viewBox="0 0 16 31" xmlns="http://www.w3.org/2000/svg" xmlns:xlink="http://www.w3.org/1999/xlink">
    <!--Generated by IJSVG (https://github.com/curthard89/IJSVG)-->
    <g fill="#000" stroke="none">
        <path d="M10.4328,7.92771v-2.85358h-0.878143v-0.109578l-0.658987,-3.40149l-0.109578,-0.768584h-0.98774l-0.767065,-0.00152182l-0.109578,0.658987l-0.658987,3.40301v0.109578h-0.878143v2.85358c-2.63443,0.438312 -4.60987,2.63291 -4.60987,5.26753v17.1214h14.2679v-17.1214c0,-2.63443 -2.08504,-4.82922 -4.60987,-5.15766l3.9e-05,-0.00027039l2.2e-05,-7.9e-07Zm-3.95104,-1.75629h2.85358v1.75629h-2.85358v-1.75629Zm1.31797,-4.50039h0.219156l0.658987,3.40149l-1.53713,0.00152182l0.658987,-3.40302v8.18e-06Zm6.14532,27.4371h-12.0717v-16.0227c-2.22045e-16,-2.30419 1.86588,-4.17 4.17,-4.17h3.62217c2.30419,0 4.17,1.86588 4.17,4.17v16.0227h0.10953Z"></path>
        <path d="M7.90972,22.8529c1.86588,0 3.2919,-1.42605 3.2919,-3.2919c0,-1.86584 -1.42605,-3.2919 -3.2919,-3.2919c-1.86584,0 -3.2919,1.42605 -3.2919,3.2919c-0.00152182,1.75477 1.42605,3.2919 3.2919,3.2919Zm0,-5.48805c1.2069,0 2.1946,0.98774 2.1946,2.1946c0,1.20686 -0.98774,2.1946 -2.1946,2.1946c-1.20686,0 -2.1946,-0.98774 -2.1946,-2.1946c0,-1.20686 0.98774,-2.1946 2.1946,-2.1946Z"></path>
        <path d="M11.2016,23.9504h-6.58519c-0.328734,0 -0.54787,0.219156 -0.54787,0.549428c0,0.328734 0.219156,0.54787 0.54787,0.54787h6.58519c0.328734,0 0.549429,-0.219156 0.549429,-0.549429c0,-0.328734 -0.220679,-0.54787 -0.549429,-0.54787v1e-06Z"></path>
        <path d="M11.2016,14.073h-6.58519c-0.328734,0 -0.54787,0.219156 -0.54787,0.549428c0,0.328734 0.219156,0.54787 0.54787,0.54787h6.58519c0.328734,0 0.549429,-0.219156 0.549429,-0.549429c0,-0.328734 -0.220679,-0.54787 -0.549429,-0.54787v1e-06Z"></path>
    </g>
</svg>