<?xml version="1.0" encoding="UTF-8"?><svg version="1.1" viewBox="0 0 13 30" xmlns="http://www.w3.org/2000/svg" xmlns:xlink="http://www.w3.org/1999/xlink"><!--Generated by IJSVG (https://github.com/curthard89/IJSVG)--><g transform="matrix(1,0,0,1,-129,-90)"><g transform="matrix(1,0,0,1,129,90)"><path fill="#000" fill-rule="evenodd" stroke="none" d="M0.895321,29.062h10.1534v-20.591h-10.1534v20.591Zm2.51399,-21.5491h5.09589v-1.59494h-5.09589v1.59494Zm1.85645,-2.83394l0.724469,-3.711l0.75203,3.711h-1.4765Zm4.19523,2.854v-2.234c0,-0.192 -0.12501,-0.32 -0.314002,-0.32h-1.4135l-0.942991,-4.723c-0.0639816,-0.16 -0.188992,-0.256 -0.314002,-0.256h-0.974489c-0.156509,0 -0.282503,0.096 -0.314002,0.256l-0.942006,4.66l-1.41449,0.063c-0.188992,0 -0.314002,0.128 -0.314002,0.32v2.234h-1.885c-0.345501,0 -0.628004,0.286 -0.628004,0.638v21.191c5.11743e-17,0.351 0.282503,0.638 0.628004,0.638h10.744c0.345501,0 0.628004,-0.287 0.628004,-0.638v-21.191c-0.0305143,-0.352 -0.314002,-0.638 -0.658519,-0.638h-1.885Z"></path><path fill="#000" stroke="none" d="M6.0045,23.5c-2.48528,0 -4.5,-2.01472 -4.5,-4.5c-2.22045e-16,-2.48528 2.01472,-4.5 4.5,-4.5c2.48528,0 4.5,2.01472 4.5,4.5c0,2.48528 -2.01472,4.5 -4.5,4.5Zm0,-1c1.933,0 3.5,-1.567 3.5,-3.5c0,-1.933 -1.567,-3.5 -3.5,-3.5c-1.933,0 -3.5,1.567 -3.5,3.5c0,1.933 1.567,3.5 3.5,3.5Z"></path></g></g></svg>