<svg id="sauce-bottle" xmlns="http://www.w3.org/2000/svg" viewBox="0 0 30 30"><path d="M15,14.5a4,4,0,1,0,4,4A4,4,0,0,0,15,14.5Zm0,7.1a3,3,0,1,1,3-3A3,3,0,0,1,15,21.6Z"/><path d="M20.4,7.3H18c0-.5,0-1.6,0-1.6a.47.47,0,0,0-.5-.5h-.6L15.9.5a.63.63,0,0,0-.6-.5h-.6a.68.68,0,0,0-.6.4l-1,4.8h-.6a.47.47,0,0,0-.5.5V7.3H9.6a.65.65,0,0,0-.6.6V29.4a.65.65,0,0,0,.6.6H20.4a.65.65,0,0,0,.6-.6V7.8A.56.56,0,0,0,20.4,7.3ZM15,1l.9,4.2H14.2ZM13,6.2h4V7.3H13ZM20,29H10V8.3H20Z"/><rect x="9.62" y="9.3" width="10.77" height="1"/></svg>