<svg viewBox="0 0 24 24" xmlns="http://www.w3.org/2000/svg">
    <path
        d="M11 18c-1.2 0-5-0.1-5-1.5 0-0.3 0.2-0.6 0.6-0.8l1.7-1.6c-1.6-0.9-2.9-2.2-3.8-3 -0.3-0.3-0.6-0.6-0.7-0.6 -0.2-0.1-0.3-0.2-0.5-0.4 -0.6-0.5-1.5-1.1-2.7-1.1 -0.2 0-0.4-0.1-0.5-0.4 -0.1-0.2 0-0.4 0.2-0.6 0.1 0 1.8-1.1 3.3-1.1 0.6 0 1.6 0.2 2.6 0.4 1.4 0.3 3 0.6 4.4 0.6 2.4 0 6.4-0.5 7.9-1 0.2 0 0.3 0 0.4 0.1 0.1 0.1 0.2 0.2 0.2 0.4 0 1.5-2.2 5-4.8 6.7l1.4 1.6c0.3 0.2 0.5 0.5 0.5 0.7C16 17.9 12.2 18 11 18zM7.2 16.5c0.5 0.2 1.8 0.5 3.8 0.5 2 0 3.3-0.3 3.8-0.5 0 0 0 0 0 0l-1.8-2.1c-0.1-0.1-0.1-0.3-0.1-0.4s0.1-0.3 0.3-0.3c2.2-1.1 4.2-3.9 4.7-5.4 -1.9 0.4-5.2 0.8-7.4 0.8 -1.4 0-3.1-0.3-4.6-0.6 -1-0.2-1.9-0.4-2.4-0.4 -0.4 0-1 0.1-1.4 0.3C2.8 8.6 3.3 8.9 3.8 9.2 3.9 9.4 4.1 9.5 4.2 9.5c0.2 0.1 0.4 0.3 0.9 0.8 0.9 0.9 2.5 2.3 4.2 3.1 0.1 0.1 0.3 0.2 0.3 0.4 0 0.2 0 0.3-0.1 0.4l-2.2 2.2C7.2 16.4 7.2 16.5 7.2 16.5z" />
    <path
        d="M17.2 15c-0.5 0-1-0.2-1.4-0.7 -0.6-0.6-0.8-1.6-0.6-2.2 0.1-0.3 0.4-0.6 0.7-0.6 4.5-0.9 6.8-2.3 7.1-3.2 0.1-0.2 0.1-0.5-0.3-0.9 -0.4-0.4-2.6-0.6-3.8 0.5 -0.2 0.2-0.5 0.2-0.7 0s-0.2-0.5 0-0.7c1.6-1.5 4.4-1.3 5.2-0.5 0.8 0.8 0.7 1.5 0.6 1.9 -0.7 2.3-5.7 3.5-7.9 3.9 0 0.1 0 0.6 0.4 1.1 0.2 0.3 0.5 0.5 0.9 0.5 0.3-0.1 0.5 0.1 0.6 0.4 0.1 0.3-0.1 0.5-0.4 0.6C17.5 15 17.3 15 17.2 15z" />
</svg>
