<svg xmlns="http://www.w3.org/2000/svg" viewBox="0 0 30 30"><path d="M12.4 28.1c-4.7 0-8.4-3.8-8.4-8.4s3.8-8.4 8.4-8.4 8.4 3.8 8.4 8.4-3.7 8.4-8.4 8.4zm0-15.8c-4.1 0-7.4 3.3-7.4 7.4s3.3 7.4 7.4 7.4 7.4-3.3 7.4-7.4c.1-4.1-3.3-7.4-7.4-7.4z"/><circle cx="14" cy="14.6" r=".7"/><circle cx="7.8" cy="21.8" r=".7"/><circle cx="17.8" cy="18.8" r=".7"/><circle cx="11.8" cy="18.5" r=".7"/><circle cx="12.6" cy="24.5" r=".7"/><path d="M21.2 18.7c-.4 0-.8 0-1.1-.1l.1-1c.3 0 .7.1 1 .1 4.1 0 7.4-3.3 7.4-7.4s-3.3-7.4-7.4-7.4-7.4 3.3-7.4 7.4c0 .5.1 1 .2 1.5l-1 .2c-.1-.6-.2-1.1-.2-1.7 0-4.7 3.8-8.4 8.4-8.4s8.4 3.8 8.4 8.4-3.7 8.4-8.4 8.4z"/><circle cx="24.4" cy="7.3" r=".7"/><circle cx="21.1" cy="9.3" r=".7"/><circle cx="24.3" cy="9.6" r=".7"/><circle cx="22.6" cy="15.4" r=".7"/><circle cx="17" cy="7.1" r=".7"/><path d="M4.3 20.6a8.29 8.29 0 0 1-3.9-7.1c0-4.7 3.8-8.4 8.4-8.4 1.9 0 3.8.7 5.3 1.9l-.6.8c-1.3-1.1-3-1.7-4.7-1.7-4.1 0-7.4 3.3-7.4 7.4 0 2.6 1.3 4.9 3.5 6.3l-.6.8z"/><circle cx="6.2" cy="9" r=".7"/><circle cx="3.5" cy="14.3" r=".7"/><circle cx="8.8" cy="10.1" r=".7"/><circle cx="10.2" cy="16.4" r=".7"/></svg>