<?xml version="1.0" encoding="UTF-8"?>
<svg version="1.1" viewBox="0 0 30 27" xmlns="http://www.w3.org/2000/svg" xmlns:xlink="http://www.w3.org/1999/xlink">
    <!--Generated by IJSVG (https://github.com/curthard89/IJSVG)-->
    <g transform="matrix(1,0,0,1,0,-1)">
        <path fill="#000" fill-rule="evenodd" stroke="none" d="M28.2807,24.4167c-0.0182143,0.18144 -0.152143,0.26352 -0.220714,0.26892c-0.101786,0.0432 -0.24,0.05508 -0.353571,-0.04104l-0.401786,-0.2106c0.0964286,-0.50112 0.122143,-0.99684 0.0053572,-1.5498c-0.0182143,-0.2106 -0.106071,-0.41256 -0.195,-0.61668l0.328929,-0.24084c0.0632142,-0.0756 0.201428,-0.08856 0.340714,-0.10152c0.107143,0.02484 0.220714,0.12096 0.263572,0.22248c0.206786,0.37044 0.306428,0.71172 0.342857,1.13292c0.0685714,0.38124 -0.0021428,0.77436 -0.110357,1.13616m-2.46321,1.0314c-0.435,0.60156 -1.09821,1.01196 -1.92536,1.15452v0.00108c-5.6175,0.88344 -11.3475,-0.72468 -15.7596,-4.45716c-4.41214,-3.7314 -7.01571,-9.17244 -7.09179,-14.8716c-0.0364286,-0.80784 0.281786,-1.57572 0.826071,-2.15028c0.545357,-0.57672 1.32,-0.89208 2.15786,-0.89532c0.769286,0.00324 1.42393,0.29916 1.98964,0.7776c0.679286,0.57348 1.13679,1.41372 1.11429,2.36628c0.0621429,3.93984 1.815,7.62372 4.83214,10.1747c3.01607,2.55204 6.92036,3.65256 10.7796,3.03048c1.65214,-0.28728 3.255,0.8748 3.57643,2.57256c0.1425,0.83268 0.0021429,1.62 -0.499286,2.29716m-23.5136,-22.9349c0.334286,-0.16956 0.744643,-0.27648 1.09071,-0.30672c0.385714,0.00216 0.769286,0.00216 1.16571,0.14364c0.107143,0.02484 0.220714,0.12096 0.263571,0.22248c0.0439286,0.1026 0.0557143,0.24192 -0.0396429,0.3564l-0.177857,0.36828c-0.176786,-0.02052 -0.353571,-0.04104 -0.560357,-0.0216c-0.522857,0.0108 -1.04036,0.0918 -1.51286,0.27432l-0.319286,-0.4644c-0.0814286,-0.135 -0.125357,-0.23544 -0.100714,-0.34344c-0.00642857,-0.07128 0.0878571,-0.1836 0.190714,-0.22896m27.06,20.6842c-0.0428572,-0.48924 -0.191786,-1.00548 -0.443572,-1.47528c-0.206786,-0.37044 -0.545357,-0.65664 -0.936428,-0.72684c-0.39,-0.07128 -0.838929,0.00432 -1.12821,0.2754l-0.165,0.12096c-0.886071,-1.33164 -2.45143,-2.0736 -4.07143,-1.8252c-3.55179,0.55944 -7.20321,-0.45684 -9.99321,-2.81664c-2.79,-2.3598 -4.4175,-5.80824 -4.48714,-9.43056c-0.00642857,-1.6902 -1.11214,-3.14172 -2.565,-3.78864l0.0942857,-0.11556c0.177857,-0.3672 0.21,-0.79272 0.0728571,-1.16748c-0.175714,-0.40716 -0.445714,-0.70092 -0.872143,-0.80352c-0.503571,-0.1674 -1.03286,-0.22572 -1.51929,-0.1836c-0.484286,0.04212 -0.996429,0.19332 -1.50214,0.41472c-0.366429,0.20844 -0.620357,0.51192 -0.72,0.94392c-0.103929,0.43092 0.00321428,0.84564 0.279643,1.20744l0.231429,0.26244c-0.165,0.1188 -0.328929,0.24084 -0.4875,0.43092c-0.770357,0.7722 -1.17214,1.79388 -1.14964,2.84688c0.161786,5.9022 2.85964,11.6176 7.49893,15.5412c4.63929,3.92364 10.6896,5.60736 16.5482,4.66992c1.065,-0.1998 1.96286,-0.73548 2.58214,-1.6362c0.126428,-0.1512 0.246429,-0.37368 0.336429,-0.55836l0.259286,0.15336c0.401786,0.2106 0.825,0.24516 1.22893,0.06804c0.371786,-0.13932 0.656786,-0.48168 0.765,-0.84348v-0.00108c0.166072,-0.50652 0.191786,-1.00332 0.143572,-1.56276"></path>
        <path fill="#000" fill-rule="evenodd" stroke="none" d="M3.95079,6.12868c0,0 0.485357,-0.0428571 0.8625,0.274286c0.226071,0.189643 0.356786,0.492857 0.355714,0.876429c0.0128571,0.138214 0.0932143,0.271071 0.169286,0.334286c0.075,0.0632143 0.220714,0.12 0.358929,0.108214c0.275357,-0.0246429 0.466071,-0.250714 0.48,-0.495c-0.0910714,-0.654643 -0.309643,-1.15929 -0.761786,-1.53857c-0.647143,-0.608571 -1.48071,-0.534643 -1.54929,-0.529286c-0.276429,0.0235714 -0.467143,0.250714 -0.4425,0.527143c0.0235714,0.276429 0.250714,0.467143 0.527143,0.4425"></path>
    </g>
</svg>