<svg viewBox="0 0 30 30" xmlns="http://www.w3.org/2000/svg">
    <path style="fill:none;stroke:#000;" d="M16.68,6.82a7,7,0,0,0,2.61-.68" />
    <path
        d="M26.17,20.05a1.68,1.68,0,0,0-.68-1.35c0-2.48,0-4.69,0-4.69,0-6.54-4.82-11.89-10.71-11.89S4.07,7.47,4.07,14c0,0,0,1.56,0,4.65a1.64,1.64,0,0,0-.75,1.39,1.62,1.62,0,0,0,.51,1.17,1.63,1.63,0,0,0,.25,2.56c0,.84,0,1.66,0,2.31h0v1.14a.44.44,0,0,0,0,.1v.12h0a.85.85,0,0,0,.82.64.86.86,0,0,0,.81-.57.85.85,0,0,0,1.61,0,.85.85,0,0,0,1.61,0,.86.86,0,0,0,.81.57.84.84,0,0,0,.81-.64h.09a.84.84,0,0,0,.81.64.86.86,0,0,0,.81-.57.85.85,0,0,0,1.61,0,.85.85,0,0,0,1.61,0,.86.86,0,0,0,.81.57.84.84,0,0,0,.81-.64h.09a.84.84,0,0,0,.81.64.86.86,0,0,0,.81-.57.85.85,0,0,0,1.61,0,.85.85,0,0,0,1.61,0,.86.86,0,0,0,.81.57.84.84,0,0,0,.81-.64h.09a.84.84,0,0,0,.81.64.85.85,0,0,0,.82-.64h0a1.05,1.05,0,0,0,0-.12s0-.07,0-.1V26.09h0c0-.68,0-1.53,0-2.36a1.65,1.65,0,0,0,.2-2.52A1.67,1.67,0,0,0,26.17,20.05ZM5,19.38h.12v-1h0c0-1.52,0-3,0-4.37,0-6,4.36-10.89,9.72-10.89S24.5,8,24.5,14c0,1.34,0,2.85,0,4.37H21.7a.5.5,0,0,0,0,1h2.88a.66.66,0,0,1,0,1.32h-.08v0H5.09v0H5a.67.67,0,0,1,0-1.33Zm19.57,3.68h-.08v1h0c0,.79,0,1.48,0,2H5.11c0-.28,0-.61,0-1h0v-1H16.24a.5.5,0,0,0,.5-.5.5.5,0,0,0-.5-.5H5a.66.66,0,0,1,0-1.32H24.57a.66.66,0,0,1,0,1.32Z" />
</svg>