<svg xmlns="http://www.w3.org/2000/svg" viewBox="0 0 30 30"><path d="M1.5 30c-.1 0-.3-.1-.4-.1l-1-1c-.1-.2-.1-.4 0-.6l2.5-5c0-.2.2-.3.4-.3h.8l8.9-8.9c.2-.2.5-.2.7 0s.2.5 0 .7l-9 9a.76.76 0 0 1-.4.2h-.7l-2.2 4.4.5.5L6 26.4v-1c0-.1.1-.3.1-.4l8.5-8.5c.2-.2.5-.2.7 0s.2.5 0 .7L7 25.7v1c0 .2-.1.3-.3.4l-5 2.8c0 .1-.1.1-.2.1zm16-19c-.1 0-.3 0-.4-.1-.2-.2-.2-.5 0-.7l7-7c.2-.2.5-.2.7 0s.2.5 0 .7l-7 7s-.2.1-.3.1z"/><path d="M19.5 13c-.1 0-.3 0-.4-.1-.2-.2-.2-.5 0-.7l7-7c.2-.2.5-.2.7 0s.2.5 0 .7l-7 7s-.2.1-.3.1zm-3 5.5c-.1 0-.3 0-.4-.1l-5-5c0-.2-.1-.3-.1-.4a.76.76 0 0 1 .2-.4l1.6-1.5c.1-.1.3-.2.5-.1 1 .2 1.8-.5 1.8-1.5v-.3c0-.2 0-.3.1-.5L23 1c1.3-1.3 3.6-1.3 5 0l1 .8c.7.7 1 1.5 1 2.5 0 .9-.4 1.8-1 2.5l-8 7.6c-.1.1-.3.2-.5.1s-.3-.1-.5-.1a1.54 1.54 0 0 0-1.5 1.5c0 .1 0 .2.1.4 0 .2 0 .4-.1.5l-1.6 1.5c-.2.1-.3.2-.4.2zM12.2 13l4.3 4.3 1-1V16c0-1.5 1.4-2.8 3-2.5l7.8-7.4a2.61 2.61 0 0 0 .7-1.7c0-.7-.3-1.3-.7-1.8l-1-.8c-1-1-2.6-1-3.6 0L16 9.3v.2c0 1.5-1.3 2.6-2.8 2.5l-1 1z"/></svg>