<svg xmlns="http://www.w3.org/2000/svg" xmlns:xlink="http://www.w3.org/1999/xlink" viewBox="0 0 30 30"><path d="M24 5a.47.47 0 0 1-.5-.5c0-1-3.9-3.5-8.5-3.5-4.7 0-8.5 2.3-8.5 3.3a.47.47 0 0 1-.5.5c-.3 0-.5-.3-.5-.5C5.5 2.4 10.1 0 15 0c4.8 0 9.5 2.6 9.5 4.5a.47.47 0 0 1-.5.5z"/><path d="M25 5H5a.47.47 0 0 1-.5-.5A.47.47 0 0 1 5 4h20a.47.47 0 0 1 .5.5.47.47 0 0 1-.5.5zM15 2a.47.47 0 0 1-.5-.5v-1A.47.47 0 0 1 15 0a.47.47 0 0 1 .5.5v1a.47.47 0 0 1-.5.5z"/><path d="M15 30a.55.55 0 0 1-.5-.3l-3-8V4.5A.47.47 0 0 1 12 4a.47.47 0 0 1 .5.5v16.9l2.5 6.7 2.5-6.7V4.5A.47.47 0 0 1 18 4a.47.47 0 0 1 .5.5v17.2l-3 8a.55.55 0 0 1-.5.3z"/><use xlink:href="#B"/><path d="M18.5 13.5h-.2L10.8 11c-.3-.1-.4-.4-.3-.6.1-.3.4-.4.6-.3l7.5 2.5c.3.1.4.4.3.6 0 .2-.2.3-.4.3z"/><use xlink:href="#B" y="5"/><path d="M18.5 18.5h-.2L10.8 16c-.3-.1-.4-.4-.3-.6.1-.3.4-.4.6-.3l7.5 2.5c.3.1.4.4.3.6 0 .2-.2.3-.4.3z"/><use xlink:href="#B" y="10"/><path d="M18 23.5h-.2l-7-2.5c-.3-.1-.4-.4-.3-.6.1-.3.4-.4.6-.3l7 2.5c.3.1.4.4.3.6 0 .2-.2.3-.4.3zm.5-15h-.2l-3.8-1.3c-.3-.1-.4-.4-.3-.6.1-.3.4-.4.6-.3l3.8 1.3c.3.1.4.4.3.6 0 .2-.2.3-.4.3zm-3.7 16.3h-.2l-3.1-1.3c-.3-.1-.4-.4-.3-.7s.4-.4.6-.3l3.1 1.3c.3.1.4.4.3.7-.1.1-.3.3-.4.3z"/><defs ><path id="B" d="M18.5 11h-.2l-7.5-2.5c-.3-.1-.4-.4-.3-.6.1-.3.4-.4.6-.3l7.5 2.5c.3.1.4.4.3.6 0 .2-.2.3-.4.3z"/></defs></svg>