<?xml version="1.0" encoding="UTF-8"?><svg version="1.1" viewBox="0 0 30 30" xmlns="http://www.w3.org/2000/svg" xmlns:xlink="http://www.w3.org/1999/xlink"><g fill="#000"><path d="M0.5,14c-0.3,0 -0.5,-0.2 -0.5,-0.5c0,-3.1 3.9,-6.5 7.5,-6.5c2.1,0 3.1,0.7 3.9,1.3c0.5,0.4 0.9,0.7 1.6,0.7c1.9,0 4.9,-1.1 5.6,-1.9c1.2,-1.1 3.5,-3.1 5.8,-3.1c2.1,0 3.3,1.2 3.6,2.1c0.5,0.4 2,1.8 2,3.9c0,1 -0.6,1.4 -0.9,1.5c-1.4,0.6 -4,-0.7 -4.9,-1.7c-0.2,-0.2 -0.2,-0.5 0,-0.7c0.2,-0.2 0.5,-0.2 0.7,0c0.9,0.9 3,1.8 3.8,1.4c0.1,0 0.3,-0.1 0.3,-0.6c0,-2 -1.8,-3.2 -1.8,-3.2c-0.1,-1.77636e-15 -0.2,-0.2 -0.2,-0.3c0,-0.3 -0.8,-1.4 -2.6,-1.4c-2,0 -4.2,2 -5,2.9c-1,1 -4.3,2.1 -6.4,2.1c-1,0 -1.6,-0.5 -2.2,-0.9c-0.8,-0.5 -1.5,-1.1 -3.3,-1.1c-3,0 -6.5,2.9 -6.5,5.5c0,0.3 -0.2,0.5 -0.5,0.5Z"></path><path d="M7.5,26h-2c-0.2,0 -0.3,-0.1 -0.4,-0.2l-3,-5c-0.1,-0.2 -0.1,-0.4 0,-0.5l1.3,-2.2c-3,-3.2 -2.4,-6.8 -1.3,-8.4c0.2,-0.2 0.5,-0.3 0.7,-0.1c0.2,0.2 0.3,0.5 0.1,0.7c-1,1.3 -1.4,4.5 1.4,7.4c0.2,0.2 0.2,0.4 0.1,0.6l-1.3,2.2l2.7,4.5h1.1l-0.9,-3.4c-0.1,-0.2 0,-0.4 0.2,-0.5c0,0 3.8,-2.7 3.8,-6.6c0,-0.3 0.2,-0.5 0.5,-0.5c0.3,0 0.5,0.2 0.5,0.5c0,3.8 -3,6.5 -3.9,7.2l0.9,3.7c0,0.1 0,0.3 -0.1,0.4c-0.1,0.1 -0.2,0.2 -0.4,0.2Z"></path><path d="M3.5,26h-2c-0.2,0 -0.4,-0.2 -0.5,-0.4l-1,-5c0,-0.1 0,-0.2 0,-0.3l1,-2.4c-0.1,-0.9 -0.3,-4.1 0,-5.1c0.1,-0.3 0.4,-0.4 0.6,-0.3c0.3,0.1 0.4,0.4 0.3,0.6c-0.3,0.6 -0.1,3.3 0,4.8c0,0.1 0,0.2 0,0.2l-0.9,2.4l0.9,4.5h1.1v-3.5c0,-0.3 0.2,-0.5 0.5,-0.5c0.3,0 0.5,0.2 0.5,0.5v4c0,0.3 -0.2,0.5 -0.5,0.5Z"></path><path d="M21.5,9c-0.2,0 -0.4,-0.1 -0.5,-0.3c-0.1,-0.3 0,-0.5 0.3,-0.7c1.3,-0.6 2.6,-1.3 2.7,-1.6c0,-0.3 0.2,-0.4 0.5,-0.4c0.3,0 0.5,0.2 0.5,0.5c0,0.7 -1.1,1.5 -3.3,2.5c-0.1,0 -0.1,0 -0.2,0Z"></path><path d="M22.4,17.3c-0.1,0 -0.3,0 -0.4,-0.1c-0.2,-0.2 -0.2,-0.5 0,-0.7c1.3,-1.3 1.8,-2.8 2.1,-4c0.3,-0.9 0.5,-1.7 1,-2.2c0.2,-0.2 0.5,-0.2 0.7,0c0.2,0.2 0.2,0.5 0,0.7c-0.3,0.3 -0.5,1 -0.8,1.8c-0.4,1.3 -0.9,3 -2.4,4.5c0,-0.1 -0.1,0 -0.2,0Z"></path><path d="M23.5,26h-3c-0.3,0 -0.5,-0.2 -0.5,-0.5v-3.5c-0.7,-0.7 -3,-3.3 -3,-7.5c0,-0.3 0.2,-0.5 0.5,-0.5c0.3,0 0.5,0.2 0.5,0.5c0,4.2 2.8,6.9 2.8,6.9c0.1,0.1 0.2,0.2 0.2,0.4v3.2h2v-4c0,-0.7 -1.2,-4.2 -2,-6.3c-0.1,-0.3 0,-0.5 0.3,-0.6c0.3,-0.1 0.5,0 0.6,0.3c0.3,0.9 2,5.6 2,6.7v4.5c0.1,0.2 -0.1,0.4 -0.4,0.4Z"></path><path d="M15,20c-3.1,0 -5.2,-1.5 -5.3,-1.6c-0.2,-0.2 -0.3,-0.5 -0.1,-0.7c0.2,-0.2 0.5,-0.3 0.7,-0.1c0,0 1.9,1.4 4.7,1.4c2.2,0 2.5,-0.6 2.5,-0.6c0,-0.3 0.2,-0.5 0.5,-0.5c0,0 0,0 0,0c0.3,0 0.5,0.3 0.5,0.5c0,0.1 0,0.4 -0.3,0.7c-0.6,0.6 -1.6,0.9 -3.2,0.9Z"></path><path d="M20.5,26h-2c-0.3,0 -0.5,-0.2 -0.5,-0.5v-0.8l-0.9,-0.9c-0.1,-0.1 -0.1,-0.2 -0.1,-0.4v-4.4c0,-0.3 0.2,-0.5 0.5,-0.5c0.3,0 0.5,0.2 0.5,0.5v4.3l0.9,0.9c0.1,0.1 0.1,0.2 0.1,0.4v0.4h1.5c0.3,0 0.5,0.2 0.5,0.5c0,0.3 -0.2,0.5 -0.5,0.5Z"></path></g></svg>