<svg xmlns="http://www.w3.org/2000/svg" viewBox="0 0 30 30"><path d="M18.5 26h-1.73c-.888 0-1.572-.65-1.665-1.58l-.43-5.172a.5.5 0 0 1 .457-.54.51.51 0 0 1 .54.457l.43 5.164c.032.306.226.672.67.672H18v-6a.5.5 0 1 1 1 0v6.5a.5.5 0 0 1-.5.5zM8.065 26h-1.15c-.706 0-1.252-.283-1.538-.795L4.75 24.08a.5.5 0 0 1 .193-.68.5.5 0 0 1 .68.194l.626 1.124c.04.07.157.28.665.28h.507l-1.1-4.3a.5.5 0 0 1 .36-.608.5.5 0 0 1 .608.361l1.26 4.936a.5.5 0 0 1-.484.623z"/><path d="M12.642 26h-1.15a.5.5 0 0 1-.484-.626l1.617-6.196a.5.5 0 0 1 .609-.357.5.5 0 0 1 .357.61L12.14 25h.503c.508 0 .626-.212.665-.283l1.47-2.226a.5.5 0 0 1 .692-.142.5.5 0 0 1 .142.692l-1.45 2.194c-.267.482-.813.765-1.52.765zM3.77 26H2.4a.5.5 0 0 1-.498-.546l.63-6.827a.51.51 0 0 1 .544-.452.5.5 0 0 1 .452.544L2.94 25h.832c.323 0 .715-.15.758-.577l1.16-4.506c.07-.267.34-.43.6-.358a.5.5 0 0 1 .359.609L5.5 24.6c-.073.794-.794 1.4-1.74 1.4z"/><circle cx="24.457" cy="8.064" r=".63"/><path d="M24.456 13.607c-.75 0-1.495-.208-2.156-.6a.5.5 0 0 1-.244-.459c.01-.798-.393-1.473-1.04-1.832a.5.5 0 0 1-.042-.849 1.04 1.04 0 0 0 .462-.859c0-.39-.218-.738-.58-.933a.5.5 0 0 1-.206-.677c.132-.244.435-.333.677-.205.685.366 1.1 1.06 1.1 1.814 0 .445-.142.863-.4 1.208.6.525.973 1.266 1.024 2.064a3.16 3.16 0 0 0 1.397.326c1.794 0 4.544-2.1 4.544-3.913 0-1.708-2.687-2.652-4.544-2.652-.546 0-1.4.193-1.83.413a.5.5 0 0 1-.673-.216.5.5 0 0 1 .216-.673c.572-.293 1.576-.523 2.287-.523C26.69 5.042 30 6.203 30 8.694c0 2.438-3.226 4.913-5.544 4.913z"/><path d="M20.606 7.13a.5.5 0 0 1-.354-.146c-.924-.925-1.112-1.842-.502-2.453.357-.358.65-.565.946-.67a1.17 1.17 0 0 1 1.283.302c.39.388.843 1.384.942 1.927a.5.5 0 0 1-.402.582c-.266.05-.53-.13-.582-.4-.07-.387-.45-1.185-.665-1.4-.107-.108-.162-.097-.24-.067-.218.078-.487.348-.576.437-.176.176.12.655.503 1.038a.5.5 0 0 1 0 .707c-.098.096-.226.145-.354.145z"/><path d="M8.368 21.172a2.91 2.91 0 0 1-2.482-1.399 1.98 1.98 0 0 1-.847.189 1.97 1.97 0 0 1-1.828-1.228C1.462 18.938 0 17.536 0 15.83c0-.84.368-1.63.99-2.18C.355 12.907 0 11.965 0 10.99a4.14 4.14 0 0 1 4.131-4.131 4.01 4.01 0 0 1 1.394.253c.658-.913 1.712-1.463 2.844-1.463a3.5 3.5 0 0 1 2.4.948c.574-.944 1.61-1.553 2.743-1.553 1.003 0 1.946.48 2.553 1.274a1.77 1.77 0 0 1 1.103.053c.468-.438 1.095-.697 1.773-.72.702-.03 1.402.16 1.888.497a.51.51 0 0 1 .082.071c.006.003.075.064.08.067a.52.52 0 0 1 .099.076c.356.353.53.805.5 1.306a.51.51 0 0 1-.528.469.5.5 0 0 1-.47-.529c.012-.197-.04-.35-.162-.49-.057-.033-.118-.073-.177-.133-.01-.008-.027-.03-.045-.05-.3-.193-.77-.292-1.23-.285-.525.02-.997.25-1.294.637a.5.5 0 0 1-.648.127c-.354-.207-.604-.208-.94-.04a.5.5 0 0 1-.659-.199c-.397-.697-1.135-1.13-1.923-1.13-.983 0-1.858.667-2.128 1.623a.5.5 0 0 1-.406.358.49.49 0 0 1-.494-.222c-.47-.722-1.26-1.153-2.115-1.153-.918 0-1.764.51-2.21 1.33-.13.235-.422.326-.66.2-.445-.218-.906-.33-1.37-.33C2.404 7.858 1 9.263 1 10.99c0 .894.396 1.75 1.088 2.352a.5.5 0 0 1-.087.815c-.617.34-1 .983-1 1.675 0 1.06.86 1.92 1.92 1.92.154 0 .316-.025.513-.08a.5.5 0 0 1 .407.063c.12.08.2.206.222.35.07.51.482.878.977.878.26 0 .51-.103.7-.29.124-.118.298-.166.465-.126a.5.5 0 0 1 .355.324c.268.778.993 1.3 1.808 1.3.737 0 1.397-.418 1.723-1.1a.5.5 0 0 1 .627-.25c.883.332 1.77.001 2.257-.703.102-.146.263-.234.453-.213a.5.5 0 0 1 .411.286 1.32 1.32 0 0 0 1.187.76 1.32 1.32 0 0 0 1.229-.863.5.5 0 0 1 .371-.317c.17-.036.347.023.465.15.253.274.595.425.96.425.726 0 1.315-.6 1.315-1.316-.012-.222.114-.506.325-.58.53-.185.885-.68.885-1.236a.55.55 0 0 1 .177-.446c.125-.103.287-.168.44-.125.188.05.342.072.487.072.442 0 .817-.242.957-.616.143-.383-.008-.804-.412-1.155a.5.5 0 0 1-.051-.706.5.5 0 0 1 .705-.05c.728.63.987 1.476.695 2.26-.305.816-1.137 1.316-2.054 1.26a2.32 2.32 0 0 1-1.166 1.538 2.32 2.32 0 0 1-2.306 2.099 2.3 2.3 0 0 1-1.178-.327c-.43.575-1.113.932-1.85.932a2.31 2.31 0 0 1-1.69-.741c-.68.606-1.625.883-2.56.67-.538.8-1.427 1.28-2.407 1.28z"/></svg>