<svg viewBox="0 0 24 24" xmlns="http://www.w3.org/2000/svg">
    <path
        d="M10.9 23h-2.2c-0.9 0-1.8-0.4-2.5-1l-1.2-1.2C4.4 20.1 4 19.2 4 18.3v-2c0-0.3 0.2-0.5 0.5-0.5s0.5 0.2 0.5 0.5v2c0 0.7 0.3 1.3 0.7 1.8l1.2 1.2C7.4 21.7 8.1 22 8.7 22h2.2c0.3 0 0.5 0.2 0.5 0.5S11.2 23 10.9 23z" />
    <path
        d="M15.3 23h-2.2c-0.3 0-0.5-0.2-0.5-0.5s0.2-0.5 0.5-0.5h2.2c0.7 0 1.3-0.3 1.8-0.7l1.2-1.2C18.7 19.6 19 18.9 19 18.3v-2c0-0.3 0.2-0.5 0.5-0.5s0.5 0.2 0.5 0.5v2c0 0.9-0.4 1.8-1 2.5l-1.2 1.2C17.1 22.6 16.2 23 15.3 23z" />
    <path
        d="M7.5 10.5c-0.2 0-0.3-0.1-0.4-0.3L4.4 5.3c-0.4-0.7-0.2-1.5 0.5-1.9 1-0.7 2.2-1.3 3.4-1.7 0.4-0.1 0.9-0.1 1.3 0.2 0.4 0.2 0.6 0.6 0.7 1.1 0 0.3-0.1 0.5-0.4 0.6C9.5 3.4 9.2 3.2 9.2 3 9.2 2.8 9.1 2.7 8.9 2.6 8.8 2.5 8.7 2.5 8.5 2.5 7.4 2.9 6.3 3.4 5.4 4.1 5.2 4.3 5.1 4.6 5.2 4.8l2.7 5c0.1 0.2 0 0.5-0.2 0.7C7.7 10.5 7.6 10.5 7.5 10.5z" />
    <path
        d="M13.5 9c0 0-0.1 0-0.1 0 -0.3 0-0.5-0.3-0.4-0.6l0.9-5.7c0-0.1 0-0.3-0.1-0.4 -0.1-0.1-0.2-0.2-0.4-0.2 -0.9-0.1-1.9-0.1-2.9 0 -0.1 0-0.3 0.1-0.4 0.2C10.2 2.4 10.1 2.5 10.1 2.7l0.9 5.8c0 0.3-0.1 0.5-0.4 0.6 -0.3 0-0.5-0.1-0.6-0.4L9.2 2.8c-0.1-0.4 0-0.8 0.3-1.1 0.3-0.3 0.6-0.5 1-0.6 1-0.1 2.1-0.1 3.1 0 0.4 0.1 0.8 0.3 1 0.6 0.2 0.3 0.3 0.7 0.3 1.1l-0.9 5.7C14 8.8 13.7 9 13.5 9z" />
    <path
        d="M5.5 13c-0.1 0-0.3 0-0.4-0.1L1.5 9.2C1 8.8 0.9 8.1 1.2 7.5c0.5-0.9 1.1-1.8 1.8-2.6 0.3-0.4 0.8-0.5 1.3-0.5C4.8 4.5 5.2 4.8 5.5 5.2 5.6 5.4 5.5 5.7 5.3 5.9c-0.2 0.1-0.5 0-0.7-0.2C4.5 5.5 4.4 5.4 4.2 5.4 4 5.4 3.9 5.4 3.8 5.6 3.1 6.3 2.5 7.1 2.1 8c-0.1 0.2 0 0.4 0.1 0.6l3.6 3.6c0.2 0.2 0.2 0.5 0 0.7C5.8 13 5.6 13 5.5 13z" />
    <path
        d="M12 24c-0.3 0-0.5-0.1-0.8-0.2 -0.1 0-0.2-0.1-0.2-0.2 -2-4-5.6-7-9.9-8.1 -0.1 0-0.2-0.1-0.2-0.1l-0.2-0.2c-0.1-0.1-0.1-0.1-0.1-0.2C0.3 14.4 0 13.4 0 12.5c0-0.9 0.1-1.8 0.3-2.7 0.1-0.5 0.5-0.9 1-1 0.5-0.1 1.1 0 1.5 0.4 0.2 0.2 0.2 0.5 0 0.7 -0.2 0.2-0.5 0.2-0.7 0C2 9.7 1.8 9.7 1.6 9.7 1.6 9.8 1.4 9.8 1.3 10.1 1.1 10.9 1 11.7 1 12.5c0 0.7 0.2 1.6 0.4 2L1.4 14.6c4.5 1.2 8.2 4.2 10.3 8.4 0.2 0 0.3 0 0.5 0 2.1-4.2 5.8-7.2 10.3-8.4l0 0C22.8 14.1 23 13.1 23 12.5c0-0.8-0.1-1.6-0.3-2.4 -0.1-0.2-0.2-0.3-0.3-0.3 -0.2-0.1-0.4 0-0.5 0.1 -0.2 0.2-0.5 0.2-0.7 0 -0.2-0.2-0.2-0.5 0-0.7 0.4-0.4 0.9-0.5 1.5-0.4 0.5 0.1 0.9 0.5 1 1C23.9 10.7 24 11.6 24 12.5c0 0.8-0.3 1.9-0.5 2.4 0 0.1-0.1 0.2-0.1 0.2l-0.2 0.2c-0.1 0.1-0.2 0.1-0.3 0.2 -4.3 1.1-7.9 4.1-9.9 8.1 -0.1 0.1-0.1 0.2-0.2 0.2C12.5 23.9 12.3 24 12 24z" />
    <path
        d="M16.5 10.5c-0.1 0-0.2 0-0.2-0.1 -0.2-0.1-0.3-0.4-0.2-0.7l2.7-5c0.1-0.2 0.1-0.5-0.2-0.7 -0.9-0.7-2-1.2-3.1-1.6 -0.1 0-0.3 0-0.4 0.1s-0.2 0.2-0.2 0.4c0 0.3-0.3 0.5-0.6 0.4 -0.3 0-0.5-0.3-0.4-0.6 0.1-0.4 0.3-0.8 0.7-1 0.4-0.2 0.8-0.3 1.3-0.1 1.2 0.4 2.3 1 3.3 1.7 0.6 0.4 0.8 1.3 0.5 2l-2.7 5C16.8 10.4 16.7 10.5 16.5 10.5z" />
    <path
        d="M18.5 13c-0.1 0-0.3 0-0.4-0.1 -0.2-0.2-0.2-0.5 0-0.7l3.7-3.6c0.2-0.2 0.2-0.4 0.1-0.6 -0.4-0.9-1-1.7-1.7-2.4 -0.1-0.1-0.3-0.2-0.4-0.2 -0.2 0-0.3 0.1-0.4 0.3 -0.1 0.2-0.4 0.3-0.7 0.2 -0.2-0.1-0.3-0.4-0.2-0.7 0.2-0.4 0.7-0.7 1.1-0.8 0.5-0.1 1 0.1 1.3 0.5 0.7 0.8 1.4 1.7 1.8 2.6 0.3 0.6 0.2 1.3-0.3 1.7l-3.7 3.6C18.8 13 18.6 13 18.5 13z" />
</svg>
