<?xml version="1.0" encoding="iso-8859-1"?>
<!-- Generator: Adobe Illustrator 19.2.1, SVG Export Plug-In . SVG Version: 6.00 Build 0)  -->
<svg version="1.1" xmlns="http://www.w3.org/2000/svg" xmlns:xlink="http://www.w3.org/1999/xlink" x="0px" y="0px"
	 viewBox="0 0 24 24" style="enable-background:new 0 0 24 24;" xml:space="preserve">
<g id="Sun_Light">
</g>
<g id="Sunglasses">
</g>
<g id="T-Shirt_1">
</g>
<g id="T-Shirt_2">
</g>
<g id="Mini_Dress">
</g>
<g id="Flip-Flops">
</g>
<g id="Temperature">
</g>
<g id="Hot_Temperature">
</g>
<g id="Ice_Lolly">
</g>
<g id="Icecream">
</g>
<g id="Limonade_1">
</g>
<g id="Limonade_2">
</g>
<g id="Hat">
</g>
<g id="Straw_Hat">
</g>
<g id="Deckchair">
</g>
<g id="Sunshade">
</g>
<g id="Suncream">
</g>
<g id="Suntan_Oil">
</g>
<g id="Swimming_Trunks">
</g>
<g id="Bikini">
</g>
<g id="Pool">
</g>
<g id="Pool_Ladder">
</g>
<g id="Grill">
</g>
<g id="Kite_1">
</g>
<g id="Kite_2">
</g>
<g id="Badminton">
</g>
<g id="Cooler">
</g>
<g id="Strand_Bag">
</g>
<g id="Towel">
</g>
<g id="Strand_Ball">
</g>
<g id="Beach_Sign">
</g>
<g id="Toos">
</g>
<g id="Bucket">
</g>
<g id="Sand_Castle">
</g>
<g id="Shell_1">
	<g id="XMLID_280_">
		<g id="XMLID_281_">
			<path d="M10.943,23h-2.2c-0.935,0-1.813-0.364-2.475-1.025l-1.242-1.242C4.374,20.081,4,19.18,4,18.258v-1.973
				c0-0.276,0.224-0.5,0.5-0.5s0.5,0.224,0.5,0.5v1.973c0,0.658,0.267,1.303,0.732,1.768l1.242,1.242C7.447,21.74,8.075,22,8.743,22
				h2.2c0.276,0,0.5,0.224,0.5,0.5S11.219,23,10.943,23z"/>
		</g>
		<g id="XMLID_282_">
			<path d="M15.257,23h-2.2c-0.276,0-0.5-0.224-0.5-0.5s0.224-0.5,0.5-0.5h2.2c0.667,0,1.295-0.26,1.768-0.732l1.242-1.242
				C18.733,19.561,19,18.916,19,18.258v-1.973c0-0.276,0.224-0.5,0.5-0.5s0.5,0.224,0.5,0.5v1.973c0,0.922-0.374,1.823-1.025,2.475
				l-1.242,1.242C17.071,22.636,16.192,23,15.257,23z"/>
		</g>
		<g id="XMLID_283_">
			<path d="M7.5,10.5c-0.177,0-0.349-0.095-0.44-0.261L4.355,5.264c-0.36-0.662-0.164-1.5,0.458-1.95
				c1.035-0.747,2.176-1.325,3.394-1.719c0.423-0.136,0.881-0.08,1.259,0.154c0.376,0.234,0.63,0.619,0.695,1.058
				c0.041,0.272-0.148,0.527-0.421,0.567C9.466,3.421,9.213,3.226,9.172,2.953C9.15,2.805,9.067,2.679,8.938,2.599
				C8.81,2.52,8.655,2.502,8.514,2.546C7.396,2.907,6.348,3.438,5.399,4.124C5.181,4.282,5.111,4.561,5.233,4.785l2.706,4.976
				c0.132,0.243,0.042,0.547-0.201,0.679C7.663,10.48,7.581,10.5,7.5,10.5z"/>
		</g>
		<g id="XMLID_284_">
			<path d="M13.5,9c-0.026,0-0.052-0.002-0.078-0.006c-0.273-0.043-0.459-0.299-0.417-0.572l0.906-5.748
				c0.021-0.134-0.012-0.268-0.094-0.376c-0.085-0.114-0.211-0.187-0.354-0.205c-0.948-0.12-1.921-0.122-2.876-0.006
				c-0.141,0.018-0.266,0.089-0.352,0.201C10.154,2.396,10.12,2.53,10.14,2.664l0.855,5.763c0.041,0.273-0.148,0.527-0.421,0.567
				c-0.271,0.046-0.527-0.147-0.568-0.421L9.15,2.811c-0.06-0.403,0.043-0.804,0.29-1.128c0.25-0.328,0.613-0.537,1.024-0.588
				c1.037-0.128,2.092-0.125,3.126,0.006c0.415,0.054,0.779,0.266,1.028,0.598c0.245,0.327,0.345,0.729,0.281,1.132l-0.906,5.748
				C13.955,8.824,13.742,9,13.5,9z"/>
		</g>
		<g id="XMLID_285_">
			<path d="M5.5,13c-0.127,0-0.255-0.049-0.353-0.146L1.5,9.231C1.041,8.777,0.919,8.068,1.204,7.509
				c0.482-0.948,1.1-1.831,1.834-2.623c0.329-0.354,0.797-0.521,1.279-0.464C4.8,4.482,5.227,4.772,5.458,5.197
				C5.59,5.44,5.5,5.744,5.257,5.876c-0.242,0.132-0.546,0.042-0.678-0.2C4.5,5.53,4.36,5.435,4.193,5.414
				C4.035,5.392,3.879,5.448,3.771,5.565C3.1,6.29,2.536,7.096,2.096,7.962c-0.09,0.177-0.045,0.407,0.109,0.56l3.648,3.624
				c0.196,0.194,0.197,0.511,0.002,0.707C5.757,12.951,5.628,13,5.5,13z"/>
		</g>
		<g id="XMLID_286_">
			<path d="M12,24c-0.266,0-0.527-0.058-0.8-0.176c-0.109-0.048-0.198-0.133-0.25-0.24c-1.965-4.029-5.574-6.977-9.902-8.088
				c-0.08-0.021-0.154-0.062-0.215-0.117l-0.231-0.214c-0.063-0.06-0.11-0.134-0.137-0.216C0.291,14.403,0,13.358,0,12.498
				c0-0.905,0.113-1.81,0.337-2.688c0.129-0.51,0.514-0.899,1.028-1.042c0.524-0.146,1.09,0.002,1.474,0.384
				c0.196,0.194,0.197,0.511,0.002,0.707c-0.194,0.197-0.51,0.197-0.707,0.002C2.002,9.73,1.814,9.684,1.631,9.732
				C1.553,9.755,1.364,9.83,1.306,10.057C1.103,10.854,1,11.676,1,12.498c0,0.683,0.24,1.569,0.378,2.023L1.42,14.56
				c4.492,1.19,8.245,4.243,10.338,8.405c0.168,0.047,0.315,0.047,0.483,0c2.093-4.162,5.845-7.214,10.337-8.405l0.035-0.033
				C22.754,14.054,23,13.133,23,12.498c0-0.818-0.101-1.635-0.299-2.426c-0.057-0.228-0.246-0.303-0.324-0.325
				c-0.182-0.051-0.37-0.003-0.503,0.127c-0.196,0.194-0.513,0.191-0.707-0.004c-0.194-0.197-0.192-0.514,0.005-0.707
				c0.385-0.38,0.949-0.528,1.475-0.379c0.514,0.145,0.896,0.534,1.024,1.045C23.889,10.7,24,11.598,24,12.498
				c0,0.802-0.293,1.876-0.467,2.445c-0.025,0.081-0.07,0.154-0.131,0.213l-0.178,0.17c-0.062,0.059-0.187,0.147-0.269,0.169
				c-4.33,1.111-7.939,4.06-9.905,8.089c-0.052,0.107-0.141,0.192-0.25,0.24C12.527,23.942,12.266,24,12,24z"/>
		</g>
		<g id="XMLID_287_">
			<path d="M16.5,10.5c-0.081,0-0.163-0.02-0.239-0.061c-0.242-0.133-0.332-0.437-0.2-0.679l2.712-4.979
				c0.121-0.222,0.05-0.506-0.165-0.661c-0.936-0.675-1.969-1.2-3.071-1.561c-0.142-0.048-0.293-0.028-0.422,0.051
				s-0.213,0.203-0.236,0.352c-0.043,0.272-0.299,0.46-0.572,0.416c-0.273-0.043-0.459-0.299-0.417-0.572
				c0.069-0.436,0.324-0.817,0.702-1.048c0.376-0.231,0.834-0.286,1.254-0.149c1.201,0.393,2.327,0.965,3.346,1.701
				c0.623,0.448,0.819,1.287,0.458,1.95l-2.712,4.979C16.849,10.405,16.677,10.5,16.5,10.5z"/>
		</g>
		<g id="XMLID_288_">
			<path d="M18.5,13c-0.129,0-0.258-0.05-0.356-0.148c-0.194-0.197-0.192-0.514,0.005-0.708l3.658-3.608
				c0.155-0.152,0.201-0.383,0.111-0.56c-0.441-0.874-1.007-1.687-1.683-2.416c-0.108-0.116-0.265-0.176-0.422-0.151
				c-0.167,0.021-0.307,0.116-0.386,0.262c-0.132,0.241-0.436,0.332-0.678,0.2c-0.243-0.132-0.333-0.436-0.201-0.679
				c0.231-0.425,0.658-0.715,1.141-0.775c0.485-0.06,0.951,0.109,1.279,0.464c0.739,0.799,1.359,1.688,1.842,2.645
				c0.287,0.569,0.166,1.262-0.302,1.723l-3.658,3.609C18.754,12.952,18.627,13,18.5,13z"/>
		</g>
	</g>
</g>
<g id="Shell_2">
</g>
<g id="Surf_Board">
</g>
<g id="Float">
</g>
<g id="Vacation_Photo">
</g>
<g id="Summer_Time">
</g>
<g id="Boat">
</g>
<g id="Lifebuoy">
</g>
<g id="Lighthouse">
</g>
<g id="Sunset">
</g>
<g id="Dolphin">
</g>
<g id="Starfish">
</g>
<g id="Diving_Mask">
</g>
<g id="Sailboat">
</g>
<g id="Captin_Hat">
</g>
<g id="Eudder">
</g>
</svg>
