<svg xmlns="http://www.w3.org/2000/svg" viewBox="0 0 30 30"><path d="M15 30h-.1l-14-3.8c-.2-.1-.4-.3-.4-.5V4.3c0-.2.2-.4.4-.5l14-3.8h.2l14 3.8c.2.1.4.3.4.5v21.4c0 .2-.2.4-.4.5l-14 3.8H15zM1.5 25.3L15 29l13.5-3.6V4.7L15 1 1.5 4.7v20.6z"/><path d="M15 30a.47.47 0 0 1-.5-.5V.5A.47.47 0 0 1 15 0a.47.47 0 0 1 .5.5v29a.47.47 0 0 1-.5.5zm-5-5a.47.47 0 0 1-.5-.5v-4a.47.47 0 0 1 .5-.5.47.47 0 0 1 .5.5v4a.47.47 0 0 1-.5.5z"/><path d="M12 23c-.1 0-.3 0-.4-.1L10 21.2l-1.6 1.6c-.2.2-.5.2-.7 0s-.2-.5 0-.7l2-2c.2-.2.5-.2.7 0l2 2c.2.2.2.5 0 .7-.1.2-.3.2-.4.2zm6 2c-.2 0-.4-.1-.5-.4s.1-.5.3-.6l3.5-1c.3-.1.5.1.6.3.1.3-.1.5-.3.6l-3.5 1c0 .1-.1.1-.1.1zm6-9c-.1 0-.2 0-.3-.1l-1.2-.8-1.2.8c-.2.1-.5.1-.6-.1l-1-1c-.1-.1-.1-.2-.1-.4V2a.47.47 0 0 1 .5-.5.47.47 0 0 1 .5.5v12.3l.6.6 1.2-.8c.2-.1.4-.1.6 0l1.2.8.6-.6V3.5c-.3-.3-.1-.5.2-.5a.47.47 0 0 1 .5.5v11c0 .1-.1.3-.1.4l-1 1c-.1 0-.3.1-.4.1zM9 16c-.1 0-.2 0-.3-.1l-1.2-.8-1.2.8c-.2.1-.5.1-.7 0l-1-1c-.1-.1-.1-.2-.1-.4v-11A.47.47 0 0 1 5 3a.47.47 0 0 1 .5.5v10.8l.6.6 1.2-.8c.2-.1.4-.1.6 0l1.2.8.6-.6V2a.47.47 0 0 1 .5-.5.47.47 0 0 1 .5.5v12.5c0 .1-.1.3-.1.4l-1 1c-.3 0-.5.1-.6.1z"/></svg>