<?xml version="1.0" encoding="UTF-8"?><svg version="1.1" viewBox="0 0 30 30" xmlns="http://www.w3.org/2000/svg" xmlns:xlink="http://www.w3.org/1999/xlink"><g fill="#000"><path d="M6,13c-2.981,0 -6,-0.859 -6,-2.5c0,-3.282 12,-3.282 12,0c0,1.641 -3.019,2.5 -6,2.5Zm0,-4c-3.006,0 -5,0.903 -5,1.5c0,0.597 1.994,1.5 5,1.5c3.006,0 5,-0.903 5,-1.5c0,-0.597 -1.994,-1.5 -5,-1.5Z"></path><path d="M6.007,23c-2.333,0 -4.278,-0.637 -4.731,-1.549c-0.025,-0.052 -0.042,-0.108 -0.049,-0.166l-1.224,-10.728c-0.031,-0.274 0.166,-0.522 0.44,-0.553c0.269,-0.032 0.522,0.165 0.554,0.44l1.211,10.619c0.274,0.347 1.59,0.937 3.799,0.937c2.399,0 3.564,-0.603 3.799,-0.927l1.197,-10.629c0.032,-0.275 0.294,-0.468 0.553,-0.441c0.274,0.031 0.472,0.279 0.441,0.553l-1.209,10.729c-0.006,0.052 -0.021,0.103 -0.042,0.15c-0.431,0.951 -2.291,1.565 -4.739,1.565Z"></path><path d="M4.249,20c-0.253,0 -0.471,-0.192 -0.496,-0.45l-0.5,-5c-0.028,-0.275 0.173,-0.52 0.447,-0.547c0.264,-0.025 0.52,0.173 0.547,0.448l0.5,5c0.028,0.275 -0.173,0.52 -0.447,0.547c-0.017,0.001 -0.034,0.002 -0.051,0.002Z"></path><path d="M7.751,20c-0.017,0 -0.034,-0.001 -0.051,-0.002c-0.274,-0.027 -0.476,-0.272 -0.447,-0.547l0.5,-5c0.027,-0.274 0.279,-0.472 0.547,-0.448c0.274,0.027 0.476,0.272 0.447,0.547l-0.5,5c-0.025,0.258 -0.243,0.45 -0.496,0.45Z"></path><path d="M24,13c-2.981,0 -6,-0.859 -6,-2.5c0,-3.282 12,-3.282 12,0c0,1.641 -3.019,2.5 -6,2.5Zm0,-4c-3.006,0 -5,0.903 -5,1.5c0,0.597 1.994,1.5 5,1.5c3.006,0 5,-0.903 5,-1.5c0,-0.597 -1.994,-1.5 -5,-1.5Z"></path><path d="M23.993,23c-2.448,0 -4.309,-0.614 -4.739,-1.565c-0.021,-0.048 -0.036,-0.099 -0.042,-0.15l-1.209,-10.729c-0.03,-0.274 0.167,-0.522 0.441,-0.553c0.256,-0.029 0.521,0.165 0.553,0.441l1.197,10.629c0.235,0.324 1.4,0.927 3.799,0.927c2.209,0 3.524,-0.59 3.799,-0.938l1.211,-10.619c0.031,-0.275 0.281,-0.471 0.554,-0.44c0.274,0.031 0.472,0.279 0.44,0.553l-1.224,10.729c-0.007,0.058 -0.023,0.114 -0.049,0.166c-0.453,0.912 -2.398,1.549 -4.731,1.549Z"></path><path d="M25.751,20c-0.017,0 -0.034,-0.001 -0.051,-0.002c-0.274,-0.027 -0.476,-0.272 -0.447,-0.547l0.5,-5c0.027,-0.274 0.274,-0.472 0.547,-0.448c0.274,0.027 0.476,0.272 0.447,0.547l-0.5,5c-0.025,0.258 -0.243,0.45 -0.496,0.45Z"></path><path d="M22.249,20c-0.253,0 -0.471,-0.192 -0.496,-0.45l-0.5,-5c-0.028,-0.275 0.173,-0.52 0.447,-0.547c0.267,-0.025 0.52,0.173 0.547,0.448l0.5,5c0.028,0.275 -0.173,0.52 -0.447,0.547c-0.017,0.001 -0.034,0.002 -0.051,0.002Z"></path></g></svg>