<svg xmlns="http://www.w3.org/2000/svg" viewBox="0 0 30 30"><path d="M10.713 17.31c-.155-.376-.772-.376-.926 0-.245.6-.537 1.38-.537 1.69a1 1 0 1 0 2 0c0-.3-.292-1.09-.537-1.69zM10.25 15c0-.3-.292-1.09-.537-1.69-.155-.376-.772-.376-.926 0-.245.6-.537 1.38-.537 1.69a1 1 0 1 0 2 0zm-4.463 3.31c-.245.6-.537 1.38-.537 1.69a1 1 0 1 0 2 0c0-.3-.292-1.09-.537-1.69-.155-.376-.772-.376-.926 0zm-1.074-3.5c-.155-.376-.772-.376-.926 0-.245.6-.537 1.38-.537 1.69a1 1 0 1 0 2 0c0-.3-.292-1.09-.537-1.69zM21.073 0h-6.47C11.6 0 9.042 2.256 8.776 5.024 5.965 5.266 3.75 7.627 3.75 10.5a.5.5 0 0 0 .5.5h1.272c-.15.41-.272.802-.272 1a1 1 0 1 0 2 0c0-.198-.122-.59-.272-1h7.272a.5.5 0 0 0 .5-.5 5.51 5.51 0 0 0-4.959-5.473C10.056 2.802 12.145 1 14.602 1h6.47c2.58 0 4.677 2.038 4.677 4.543V29.5a.5.5 0 1 0 1 0V5.543C26.75 2.487 24.203 0 21.073 0zm-7.35 10H4.777c.248-2.233 2.137-3.975 4.43-3.996l.1.024a.47.47 0 0 0 .23-.001c2.18.14 3.946 1.822 4.185 3.973zm.065 6.31c-.245.6-.537 1.38-.537 1.69a1 1 0 1 0 2 0c0-.3-.292-1.09-.537-1.69-.155-.376-.772-.376-.926 0zM13.25 15a1 1 0 0 0 1-1c0-.3-.292-1.09-.537-1.69-.155-.376-.772-.376-.926 0-.245.6-.537 1.38-.537 1.69a1 1 0 0 0 1 1zm-1.463 6.31c-.245.6-.537 1.38-.537 1.69a1 1 0 1 0 2 0c0-.3-.292-1.09-.537-1.69-.155-.376-.772-.376-.926 0z"/></svg>