<?xml version="1.0" encoding="UTF-8"?><svg version="1.1" viewBox="0 0 30 30" xmlns="http://www.w3.org/2000/svg" xmlns:xlink="http://www.w3.org/1999/xlink"><g fill="#000"><path d="M25.999,10c-0.25,0 -0.466,-0.188 -0.496,-0.443c-0.031,-0.274 0.165,-0.522 0.439,-0.554c1.324,-0.153 2.236,-0.347 2.689,-0.841c0.186,-0.204 0.505,-0.215 0.706,-0.031c0.203,0.187 0.218,0.503 0.03,0.707c-0.734,0.802 -1.985,1.006 -3.311,1.159c-0.018,0.002 -0.037,0.003 -0.057,0.003Z"></path><path d="M4.001,10c-0.02,0 -0.039,-0.001 -0.059,-0.003c-1.325,-0.153 -2.576,-0.357 -3.31,-1.159c-0.188,-0.204 -0.173,-0.52 0.03,-0.707c0.203,-0.185 0.519,-0.173 0.706,0.031c0.453,0.494 1.365,0.688 2.689,0.841c0.274,0.032 0.471,0.28 0.439,0.554c-0.029,0.255 -0.245,0.443 -0.495,0.443Z"></path><path d="M7.35355,10.1464c0.195262,0.195262 0.195262,0.511845 0,0.707107c-0.195262,0.195262 -0.511845,0.195262 -0.707107,0c-0.195262,-0.195262 -0.195262,-0.511845 0,-0.707107c0.195262,-0.195262 0.511845,-0.195262 0.707107,0"></path><path d="M11.3536,10.1464c0.195262,0.195262 0.195262,0.511845 0,0.707107c-0.195262,0.195262 -0.511845,0.195262 -0.707107,0c-0.195262,-0.195262 -0.195262,-0.511845 0,-0.707107c0.195262,-0.195262 0.511845,-0.195262 0.707107,0"></path><path d="M15.3536,10.1464c0.195262,0.195262 0.195262,0.511845 0,0.707107c-0.195262,0.195262 -0.511845,0.195262 -0.707107,0c-0.195262,-0.195262 -0.195262,-0.511845 0,-0.707107c0.195262,-0.195262 0.511845,-0.195262 0.707107,0"></path><path d="M19.3536,10.1464c0.195262,0.195262 0.195262,0.511845 0,0.707107c-0.195262,0.195262 -0.511845,0.195262 -0.707107,0c-0.195262,-0.195262 -0.195262,-0.511845 0,-0.707107c0.195262,-0.195262 0.511845,-0.195262 0.707107,0"></path><path d="M9.35355,13.1464c0.195262,0.195262 0.195262,0.511845 0,0.707107c-0.195262,0.195262 -0.511845,0.195262 -0.707107,0c-0.195262,-0.195262 -0.195262,-0.511845 0,-0.707107c0.195262,-0.195262 0.511845,-0.195262 0.707107,0"></path><path d="M13.3536,13.1464c0.195262,0.195262 0.195262,0.511845 0,0.707107c-0.195262,0.195262 -0.511845,0.195262 -0.707107,0c-0.195262,-0.195262 -0.195262,-0.511845 0,-0.707107c0.195262,-0.195262 0.511845,-0.195262 0.707107,0"></path><path d="M17.3536,13.1464c0.195262,0.195262 0.195262,0.511845 0,0.707107c-0.195262,0.195262 -0.511845,0.195262 -0.707107,0c-0.195262,-0.195262 -0.195262,-0.511845 0,-0.707107c0.195262,-0.195262 0.511845,-0.195262 0.707107,0"></path><path d="M21.3536,13.1464c0.195262,0.195262 0.195262,0.511845 0,0.707107c-0.195262,0.195262 -0.511845,0.195262 -0.707107,0c-0.195262,-0.195262 -0.195262,-0.511845 0,-0.707107c0.195262,-0.195262 0.511845,-0.195262 0.707107,0"></path><path d="M11.8536,16.1464c0.195262,0.195262 0.195262,0.511845 0,0.707107c-0.195262,0.195262 -0.511845,0.195262 -0.707107,0c-0.195262,-0.195262 -0.195262,-0.511845 0,-0.707107c0.195262,-0.195262 0.511845,-0.195262 0.707107,0"></path><path d="M15.3536,16.1464c0.195262,0.195262 0.195262,0.511845 0,0.707107c-0.195262,0.195262 -0.511845,0.195262 -0.707107,0c-0.195262,-0.195262 -0.195262,-0.511845 0,-0.707107c0.195262,-0.195262 0.511845,-0.195262 0.707107,0"></path><path d="M18.8536,16.1464c0.195262,0.195262 0.195262,0.511845 0,0.707107c-0.195262,0.195262 -0.511845,0.195262 -0.707107,0c-0.195262,-0.195262 -0.195262,-0.511845 0,-0.707107c0.195262,-0.195262 0.511845,-0.195262 0.707107,0"></path><path d="M23.3536,10.1464c0.195262,0.195262 0.195262,0.511845 0,0.707107c-0.195262,0.195262 -0.511845,0.195262 -0.707107,0c-0.195262,-0.195262 -0.195262,-0.511845 0,-0.707107c0.195262,-0.195262 0.511845,-0.195262 0.707107,0"></path><path d="M15,20c-6.341,0 -11.5,-5.159 -11.5,-11.5c0,-0.276 0.224,-0.5 0.5,-0.5h22c0.276,0 0.5,0.224 0.5,0.5c0,6.341 -5.159,11.5 -11.5,11.5Zm-10.488,-11c0.261,5.559 4.866,10 10.488,10c5.622,0 10.227,-4.441 10.488,-10h-20.976Z"></path><path d="M20,23h-10c-0.185,0 -0.354,-0.102 -0.44,-0.264c-0.088,-0.163 -0.078,-0.36 0.024,-0.513l2,-3c0.093,-0.14 0.249,-0.223 0.416,-0.223h6.5c0.189,0 0.362,0.107 0.447,0.276l1.5,3c0.077,0.155 0.069,0.339 -0.021,0.486c-0.092,0.148 -0.253,0.238 -0.426,0.238Zm-9.065,-1h8.257l-1,-2h-5.924l-1.333,2Z"></path></g></svg>