<svg xmlns="http://www.w3.org/2000/svg" viewBox="0 0 30 30"><path d="M26 10a.5.5 0 0 1-.057-.997c1.324-.153 2.236-.347 2.7-.84a.5.5 0 0 1 .706-.031.5.5 0 0 1 .03.707c-.734.802-1.985 1.006-3.3 1.16H26zM4 10c-.02 0-.04-.001-.06-.003-1.325-.153-2.576-.357-3.3-1.16a.5.5 0 0 1 .03-.707.5.5 0 0 1 .706.031c.453.494 1.365.688 2.7.84a.5.5 0 0 1-.056.997z"/><circle cx="7" cy="10.5" r=".5"/><circle cx="11" cy="10.5" r=".5"/><circle cx="15" cy="10.5" r=".5"/><circle cx="19" cy="10.5" r=".5"/><circle cx="9" cy="13.5" r=".5"/><circle cx="13" cy="13.5" r=".5"/><circle cx="17" cy="13.5" r=".5"/><circle cx="21" cy="13.5" r=".5"/><circle cx="11.5" cy="16.5" r=".5"/><circle cx="15" cy="16.5" r=".5"/><circle cx="18.5" cy="16.5" r=".5"/><circle cx="23" cy="10.5" r=".5"/><path d="M15 20C8.66 20 3.5 14.84 3.5 8.5A.5.5 0 0 1 4 8h22a.5.5 0 0 1 .5.5C26.5 14.84 21.34 20 15 20zM4.512 9C4.773 14.56 9.378 19 15 19s10.227-4.44 10.488-10H4.512z"/><path d="M20 23H10a.5.5 0 0 1-.416-.777l2-3A.5.5 0 0 1 12 19h6.5a.5.5 0 0 1 .447.276l1.5 3c.077.155.07.34-.02.486A.5.5 0 0 1 20 23zm-9.065-1h8.257l-1-2h-5.924l-1.333 2z"/></svg>