<svg xmlns="http://www.w3.org/2000/svg" viewBox="0 0 30 30"><path d="M5.2 7C3.7 7 2.4 6 2 4.5c-.2-.8-.1-1.7.4-2.4.4-.8 1.2-1.3 2-1.5 1.8-.5 3.6.6 4 2.3 0 .2-.1.5-.4.6-.3 0-.5-.1-.6-.4-.3-1.2-1.6-1.9-2.8-1.6S2.7 3.1 3 4.3s1.6 1.9 2.8 1.6c.2-.1.5.1.6.4.1.2-.1.5-.4.6-.2.1-.5.1-.8.1zm2.73 7.654l.967-.255.358 1.354-.967.255zm1.014 3.794l.967-.255.357 1.354-.967.255zm1.006 3.907l.967-.256.358 1.354-.967.256z"/><path d="M12.3 29.4c-.2 0-.4-.1-.5-.4l-.8-2.7c-.1-.3.1-.5.3-.6.3-.1.5.1.6.3l.8 2.7c.1.3-.1.5-.3.6 0 .1 0 .1-.1.1zM6.882 10.55l.967-.255.46 1.74-.967.255zM5.63 5.968l.967-.255.56 2.127-.967.255z"/><path d="M5.8 11.4c-.3 0-.6-.1-.9-.2a1.59 1.59 0 0 1-.8-1 2.2 2.2 0 0 1 .2-1.4 1.59 1.59 0 0 1 1-.8l2.6-.7c.4-.1.9-.1 1.3.2a1.59 1.59 0 0 1 .8 1c.1.4.1.9-.2 1.3a1.59 1.59 0 0 1-1 .8l-2.6.7c-.1.1-.3.1-.4.1zm2.5-3.1h-.2L5.6 9c-.2 0-.3.2-.4.3-.1.2-.2.4-.1.6.1.4.5.6.9.5l2.6-.7c.3-.1.5-.5.4-.9 0-.2-.2-.3-.3-.4s-.2-.1-.4-.1zm-.5 10.9c-.3 0-.6-.1-.9-.2a1.59 1.59 0 0 1-.8-1c-.1-.4 0-1 .2-1.4a1.59 1.59 0 0 1 1-.8l2.6-.7c.4-.1.9-.1 1.3.2a1.59 1.59 0 0 1 .8 1c.1.4.1.9-.2 1.3a1.59 1.59 0 0 1-1 .8l-2.6.7c-.1 0-.2.1-.4.1zm2.6-3.2h-.2l-2.6.7c-.2 0-.3.2-.4.3s-.1.4-.1.5c0 .2.2.3.3.4.2.1.4.1.5.1l2.6-.7c.2 0 .3-.2.4-.3s.1-.4.1-.5c0-.2-.2-.3-.3-.4-.1 0-.2-.1-.3-.1zm-.5 10.8c-.8 0-1.5-.5-1.7-1.3-.2-.9.3-1.9 1.2-2.1l2.6-.7c.4-.1.9-.1 1.3.2a1.59 1.59 0 0 1 .8 1c.1.4.1.9-.2 1.3a1.59 1.59 0 0 1-1 .8l-2.6.7c-.2.1-.3.1-.4.1zm2.5-3.1h-.2l-2.6.7c-.4.1-.6.5-.5.9s.5.6.9.5l2.6-.7c.2 0 .3-.2.4-.3.1-.2.1-.4.1-.5 0-.2-.2-.3-.3-.4-.1-.2-.3-.2-.4-.2zM8 23.2c-.8 0-1.5-.5-1.7-1.3-.2-.9.3-1.9 1.2-2.1l4.2-1.1c.4-.1.9-.1 1.3.2a1.59 1.59 0 0 1 .8 1c.1.4.1.9-.2 1.3a1.59 1.59 0 0 1-1 .8l-4.2 1.1c-.1.1-.2.1-.4.1zm4.2-3.5H12l-4.2 1.1c-.4.1-.6.5-.5.9s.5.6.9.5l4.2-1.1c.2 0 .3-.2.4-.3.1-.2.1-.4.1-.5s-.2-.3-.3-.4c-.2-.2-.3-.2-.4-.2zm-4.1-4.6c-.8 0-1.5-.5-1.7-1.3-.2-.9.3-1.9 1.2-2.1s1.9.3 2.1 1.2c.1.4.1.9-.2 1.3a1.59 1.59 0 0 1-1 .8c-.1.1-.2.1-.4.1zm0-2.4h-.2c-.4.1-.6.5-.5.9 0 .2.2.3.3.4.2.1.4.1.5.1.2 0 .3-.2.4-.3s.1-.4.1-.5c0-.4-.3-.6-.6-.6zm14.4-6c-.1 0-.1 0 0 0-1-.2-1.7-.6-2.2-1.4a3.12 3.12 0 0 1-.5-2.5c.3-1.8 2-3 3.8-2.6 1.8.3 3 2 2.6 3.8 0 .3-.3.5-.6.4-.3 0-.5-.3-.4-.6.2-1.2-.6-2.4-1.8-2.7-1.2-.2-2.4.6-2.7 1.8-.1.6 0 1.2.4 1.7a2.37 2.37 0 0 0 1.5.9c.3 0 .5.3.4.6-.1.5-.3.6-.5.6zm-1.9 9.264l.25-1.378.984.178-.25 1.378zm-.712 3.818l.25-1.378.984.178-.25 1.378z"/><path d="M19.13 23.705l.25-1.378.984.178-.25 1.378zM18.8 29.8c-.1 0-.1 0 0 0-.3 0-.5-.3-.5-.6l.4-2.8c0-.3.3-.5.6-.4.3 0 .5.3.4.6l-.4 2.8c-.1.2-.3.4-.5.4zm2.452-17.605l.32-1.77.984.18-.32 1.77zm.742-4.268l.393-2.165.984.18-.393 2.165z"/><path d="M23.6 11.4h-.3l-2.6-.5c-.9-.2-1.6-1.1-1.4-2s1.1-1.6 2-1.4l2.6.5c.9.2 1.6 1.1 1.4 2-.2.8-.9 1.4-1.7 1.4zm-2.6-3c-.3 0-.6.2-.7.6s.2.8.6.8l2.6.5c.4.1.8-.2.8-.6.1-.4-.2-.8-.6-.8l-2.6-.5c-.1.1-.1 0-.1 0zm1.1 10.8h-.3l-2.6-.5c-.5-.1-.8-.3-1.1-.7s-.4-.8-.3-1.3.3-.8.7-1.1.8-.4 1.3-.3l2.6.5c.5.1.8.3 1.1.7s.4.8.3 1.3-.3.8-.7 1.1a1.69 1.69 0 0 1-1 .3zm-2.6-2.9c-.1 0-.3 0-.4.1a.55.55 0 0 0-.3.5c-.1.4.2.8.6.8l2.6.5c.2 0 .4 0 .5-.1a.55.55 0 0 0 .3-.5c0-.2 0-.4-.1-.5a.55.55 0 0 0-.5-.3l-2.6-.5h-.1zM20.7 27h-.3l-2.6-.5c-.5-.1-.8-.3-1.1-.7s-.4-.8-.3-1.3.3-.8.7-1.1.8-.4 1.3-.3l2.6.5c.5.1.8.3 1.1.7s.4.8.3 1.3-.3.8-.7 1.1a1.69 1.69 0 0 1-1 .3zm-.1-1c.2 0 .4 0 .5-.1s.3-.3.3-.5 0-.4-.1-.5-.3-.3-.5-.3l-2.6-.5c-.2 0-.4 0-.5.1a.55.55 0 0 0-.3.5c0 .2 0 .4.1.5a.55.55 0 0 0 .5.3l2.6.5zm1.6-2.7h-.3l-4.2-.8c-.5-.1-.8-.3-1.1-.7s-.4-.8-.3-1.3.3-.8.7-1.1.8-.4 1.3-.3l4.2.8c.5.1.8.3 1.1.7s.4.8.3 1.3c-.1.8-.8 1.4-1.7 1.4zm-.1-1c.4.1.8-.2.8-.6 0-.2 0-.4-.1-.5s-.3-.3-.5-.3l-4.2-.8c-.2 0-.4 0-.5.1a.55.55 0 0 0-.3.5c0 .2 0 .4.1.5a.55.55 0 0 0 .5.3l4.2.8zm-.6-7.1h-.3c-.9-.2-1.6-1.1-1.4-2s1.1-1.6 2-1.4 1.6 1.1 1.4 2c-.1.8-.9 1.4-1.7 1.4zm0-2.4c-.3 0-.6.2-.7.6s.2.8.6.8c.4.1.8-.2.8-.6.1-.4-.2-.8-.6-.8h-.1z"/></svg>