<svg xmlns="http://www.w3.org/2000/svg" viewBox="0 0 27 31"><path d="M14.89 30.836a26.81 26.81 0 0 1-2.141-.087c-4.04-.316-9-1.075-11.502-4.166-.26-.315-.29-1.08-.21-5.845l.054-4.74a.48.48 0 0 1 .479-.479.48.48 0 0 1 .479.479l-.054 4.757c-.038 2.25-.082 4.79.034 5.275 2.32 2.8 7.266 3.49 10.793 3.767 2.856.228 8.08.186 10.985-2.668.383-.374.865-.98 1.024-1.432.466-1.367.634-8.973.504-10.658a.48.48 0 0 1 .441-.514.48.48 0 0 1 .514.441c.122 1.58-.005 9.435-.553 11.044-.226.645-.798 1.354-1.26 1.803-2.52 2.477-6.532 3.025-9.59 3.025z"/><path d="M14.082 19.845c-.405 0-.793-.017-1.167-.05-2.902-.002-5.916-.513-8.27-1.4C1.37 17.13 1.18 16.394 1.1 16.117c-1.03-3.923 3.533-5.2 6.258-5.962l.03-.01c3.102-1.326 3.995-2.64 4.425-3.64.564-1.322 2.64-5.638 5.693-5.638h.012c.883.002 1.61.424 2.108 1.22 1.07 1.714.91 4.968-.344 7.96.754.054 1.615.286 2.455.51l.577.154c.016.004.032.01.046.015l.135.05c1.65.613 2.095.776 2.85 1.5 1.505 1.467.992 3.076.5 3.722-.012.017-.027.033-.043.05-1.7 1.736-4.055 2.483-5.68 2.893-2.355.598-4.353.892-6.063.892zm-7.587-1.858c1.965.54 4.27.85 6.44.85.015 0 .028.001.043.002 1.82.164 4.154-.11 6.934-.814 1.503-.38 3.673-1.063 5.203-2.607.135-.2.768-1.28-.426-2.443-.61-.592-.9-.7-2.515-1.3l-.112-.04-.564-.15c-.913-.245-1.934-.52-2.642-.488-.493.935-1.57 2.107-3.272 3.56l-.028.022c-1.3.944-4.01 2.582-5.825 2.96-1.152.273-2.233.422-3.236.446zm-4.442-2.083a1.72 1.72 0 0 1 .193.111c1.776 1.117 4.225 1.316 7.28.592 1.584-.332 4.134-1.826 5.454-2.79 1.7-1.454 2.75-2.615 3.123-3.453l.018-.038c1.378-2.86 1.68-6.17.707-7.73-.322-.516-.748-.768-1.3-.77h-.01c-2.532 0-4.454 4.213-4.813 5.06-.503 1.167-1.52 2.692-4.958 4.154-.02.01-.038.015-.06.02l-.06.017c-3.362.94-6.32 2.015-5.6 4.798-.001 0 .004.01.016.03z"/></svg>