<?xml version="1.0" encoding="utf-8"?>
<!-- Generator: Adobe Illustrator 23.0.1, SVG Export Plug-In . SVG Version: 6.00 Build 0)  -->
<svg version="1.1" id="Ebene_1" xmlns="http://www.w3.org/2000/svg" xmlns:xlink="http://www.w3.org/1999/xlink" x="0px" y="0px"
	 viewBox="0 0 30 30" style="enable-background:new 0 0 30 30;" xml:space="preserve">
<title>np_tin_85823_000000</title>
<desc>Created with Sketch.</desc>
<path d="M5.5,17.2c-1.1,0-2-0.3-2.5-0.8c-0.7-0.7-0.7-1.4-0.6-1.9C2.8,13.3,4.6,12.1,8,11c2-0.6,2.8-1.8,3.7-3.9
	c1.5-4,3.3-6.3,5.4-6.8l0,0c0.9-0.2,1.7,0,2.2,0.5c1,0.9,1.2,2.8,0.8,5.4c-0.6,3.3-2,4.8-3.2,5.8C13.3,15.4,8.6,17.2,5.5,17.2z
	 M17.4,1.3c-2.2,0.5-3.8,3.6-4.7,6.2c-1,2.3-2,3.8-4.3,4.5c-4,1.3-4.8,2.3-4.9,2.8c0,0.1-0.1,0.4,0.3,0.9c1.2,1.3,7.6,0,12.6-4.4
	c1.1-1,2.3-2.2,2.8-5.2c0.5-3-0.1-4.1-0.5-4.5C18.4,1.3,18,1.2,17.4,1.3z"/>
<path d="M26.7,15.6v9.6l0,0c0,1.7-4.8,3.6-11.7,3.6S3.3,26.9,3.3,25.2l0,0v-9.6l-1-0.8v10.5l0,0c0.1,2.9,6.6,4.5,12.7,4.5
	s12.5-1.6,12.7-4.5l0,0V14.7L26.7,15.6z"/>
<path d="M17.5,10.5c-0.2,0.3-0.4,0.6-0.6,1c5.9,0.3,9.8,2,9.8,3.5c0,1.7-4.8,3.6-11.7,3.6c-4.4,0-7.9-0.8-9.9-1.8
	C4,16.7,3,16.3,2.5,15.7c0.9,2.5,6.9,3.9,12.5,3.9c6.1,0,12.7-1.6,12.7-4.6C27.7,12.5,22.8,10.9,17.5,10.5z"/>
</svg>
