<svg id="Layer_1" data-name="Layer 1" xmlns="http://www.w3.org/2000/svg" viewBox="0 0 30 30"><path d="M13.29,27.5a.67.67,0,0,1-.65-.5L7.94,8.64A.67.67,0,0,1,8,8.14a.66.66,0,0,1,.42-.31l3.71-.93-.25-.07C10.55,6.42,9,5.94,8.08,5.65a.67.67,0,0,1-.45-.71.66.66,0,0,1,.6-.59l5.66-.58,8.94-2.29a.68.68,0,0,1,.82.48L29,22.81a.63.63,0,0,1-.07.5.62.62,0,0,1-.41.31h0l-15,3.86Zm-.09-1ZM9,8.72l4.53,17.7,14.41-3.68L22.76,2.53,14.07,4.75l-4.15.43,2.26.69,1.4.43a.67.67,0,0,1,.47.66.68.68,0,0,1-.51.63ZM28,23.06Zm.23-.41ZM8.67,8.8Z"/><circle cx="6.48" cy="6.91" r="0.5"/><path d="M14.78,7.24a.49.49,0,0,1-.48-.38.5.5,0,0,1,.36-.61l1.26-.32a.48.48,0,0,1,.6.36.5.5,0,0,1-.36.61l-1.25.32Z"/><path d="M17.52,6.53a.5.5,0,0,1-.12-1l1.26-.32a.48.48,0,0,1,.6.36.5.5,0,0,1-.36.61l-1.25.32Z"/><path d="M22.4,5.29a.49.49,0,0,1-.48-.38.5.5,0,0,1,.36-.61L23.53,4a.5.5,0,1,1,.25,1l-1.26.32Z"/><path d="M20,5.91a.5.5,0,0,1-.12-1l1.25-.33A.51.51,0,0,1,21.7,5a.5.5,0,0,1-.36.61l-1.26.32A.25.25,0,0,1,20,5.91Z"/><circle cx="6.26" cy="9.03" r="0.5"/><circle cx="4.64" cy="11.89" r="0.5"/><circle cx="8.27" cy="7.1" r="0.5"/><circle cx="7.18" cy="15.72" r="0.5"/><circle cx="4.41" cy="19.92" r="0.5"/><circle cx="6.01" cy="26.28" r="0.5"/><circle cx="7.6" cy="27.05" r="0.5"/></svg>