<svg xmlns="http://www.w3.org/2000/svg" xmlns:xlink="http://www.w3.org/1999/xlink" viewBox="0 0 30 30"><path d="M28.7 10.2H1.3A1.11 1.11 0 0 1 .2 9.1v-6A1.11 1.11 0 0 1 1.3 2h27.4a1.11 1.11 0 0 1 1.1 1.1v6a1.11 1.11 0 0 1-1.1 1.1zM1.3 3.1l-.1 6 27.4.1s.1 0 .1-.1v-6H1.3z"/><path d="M23.7 17.3H6.3C4 17.3 2 15.4 2 13V9.2h25.9v3.9a4.23 4.23 0 0 1-4.2 4.2zM3.1 10.2v2.9a3.33 3.33 0 0 0 3.3 3.3h17.4a3.33 3.33 0 0 0 3.3-3.3v-2.9h-24z"/><use xlink:href="#B"/><use xlink:href="#B" x="2.1"/><use xlink:href="#B" x="4.2"/><path d="M11.9 15.5a.47.47 0 0 1-.5-.5v-3.5a.47.47 0 0 1 .5-.5.47.47 0 0 1 .5.5V15c0 .3-.3.5-.5.5zm2.1 0a.47.47 0 0 1-.5-.5v-3.5a.47.47 0 0 1 .5-.5.47.47 0 0 1 .5.5V15c0 .3-.3.5-.5.5z"/><use xlink:href="#B" x="10.4"/><use xlink:href="#B" x="12.5"/><use xlink:href="#B" x="14.6"/><use xlink:href="#B" x="16.7"/><use xlink:href="#B" x="18.8"/><path d="M15 25.1c-1.7 0-3.2-.8-3.7-2.1-.1-.3 0-.5.3-.6s.5 0 .6.3c.3.8 1.5 1.4 2.8 1.4s2.5-.6 2.8-1.5c.1-.3.4-.4.6-.3.3.1.4.4.3.6-.4 1.3-2 2.2-3.7 2.2zm0 2.7c-2.8 0-5.4-1.4-6.1-3.4-.1-.3 0-.5.3-.6s.5 0 .6.3c.6 1.6 2.8 2.7 5.2 2.7 2.5 0 4.7-1.2 5.2-2.8.1-.3.4-.4.6-.3.3.1.4.4.3.6-.6 2-3.2 3.5-6.1 3.5zM15 8c-1 0-1.9-.8-1.9-1.8A1.97 1.97 0 0 1 15 4.3c1 0 1.9.8 1.9 1.9S16 8 15 8zm0-2.7c-.5 0-.9.4-.9.9 0 .4.4.8.9.8s.9-.4.9-.8c0-.5-.4-.9-.9-.9z"/><defs ><path id="B" d="M5.6 15.5a.47.47 0 0 1-.5-.5v-3.5a.47.47 0 0 1 .5-.5.47.47 0 0 1 .5.5V15a.47.47 0 0 1-.5.5z"/></defs></svg>