<svg xmlns="http://www.w3.org/2000/svg" viewBox="0 0 30 30"><path d="M5.8 23.4c-1.8 0-3.2-.4-4.2-1.3-.7-.6-1.1-1.4-1-2.3.2-2.4 2.6-3.1 4.9-3.7 1.3-.3 2.6-.7 3.6-1.3.6-.6 1.5-7.6 2.1-14V.3l7.5.8-.9 9c-.8 8.5-1.6 10.2-2.1 10.7-.8.7-2.7 1.4-7.3 2.3-.9.2-1.8.3-2.6.3zm6.3-22c-.5 5.2-1.4 13.5-2.5 14.2s-2.5 1.1-3.8 1.5c-2.1.6-4 1.1-4.2 2.8-.1.5.2 1 .6 1.4 1.1 1 3.4 1.3 6 .8 3-.6 6.1-1.3 6.8-2.1.3-.3 1-1.8 1.8-10.1l.8-8-5.5-.5z"/><path d="M11.1 21.8c-.1-1.3.2-2.4 1-3.3 1.5-1.7 4.1-1.8 4.2-1.8v1s-2.3.1-3.5 1.5c-.6.6-.8 1.5-.7 2.5l-1 .1zm-6.2.9l-.9-.4c.4-1-.6-3.2-1.4-4.3l.8-.5c.3.3 2.3 3.4 1.5 5.2zm6.632-17.342l.088-.996 6.375.565-.088.996zM16.4 29.7c-1.8 0-3.2-.4-4.2-1.3-.7-.6-1.1-1.4-1-2.3.2-2.4 2.6-3.1 4.9-3.7 1.3-.3 2.6-.7 3.6-1.3.6-.6 1.5-7.6 2.1-14v-.5l7.5.8-.9 9c-.8 8.5-1.6 10.2-2.1 10.7-.8.7-2.7 1.4-7.3 2.3-.9.2-1.7.3-2.6.3zm6.4-22c-.5 5.2-1.4 13.5-2.5 14.2s-2.5 1.1-3.8 1.5c-2.1.6-4 1.1-4.2 2.8-.1.5.2 1 .6 1.4 1.1 1 3.4 1.3 6 .8 3-.6 6.1-1.3 6.8-2.1.3-.3 1-1.8 1.8-10.1l.8-8-5.5-.5z"/><path d="M21.8 28.1c-.1-1.3.2-2.4 1-3.3 1.5-1.7 4.1-1.8 4.2-1.8v1s-2.3.1-3.5 1.5c-.6.6-.8 1.5-.7 2.5l-1 .1zm-6.2.8l-.9-.4c.4-1-.6-3.2-1.4-4.3l.8-.5c.3.3 2.2 3.4 1.5 5.2zm6.5-17.2l.088-.996 6.375.565-.088.996z"/></svg>