<?xml version="1.0" encoding="UTF-8"?><svg version="1.1" viewBox="0 0 30 30" xmlns="http://www.w3.org/2000/svg" xmlns:xlink="http://www.w3.org/1999/xlink"><g fill="#000"><path d="M15,15c-7.374,0 -15,-2.057 -15,-5.5c0,-3.443 7.626,-5.5 15,-5.5c7.374,0 15,2.057 15,5.5c0,3.443 -7.626,5.5 -15,5.5Zm0,-10c-8.25,0 -14,2.372 -14,4.5c0,2.128 5.75,4.5 14,4.5c8.25,0 14,-2.372 14,-4.5c0,-2.128 -5.75,-4.5 -14,-4.5Z"></path><path d="M23.795,14c-0.215,0 -0.414,-0.139 -0.479,-0.355c-0.08,-0.264 0.07,-0.543 0.334,-0.623c1.517,-0.458 1.85,-0.894 1.85,-1.022c-3.55271e-15,-0.68 -3.706,-2 -10.5,-2c-6.794,0 -10.5,1.32 -10.5,1.999c0,0.129 0.333,0.564 1.85,1.022c0.264,0.08 0.414,0.359 0.334,0.623c-0.079,0.265 -0.357,0.415 -0.623,0.334c-1.724,-0.52 -2.561,-1.167 -2.561,-1.979c0,-2.372 7.522,-2.999 11.5,-2.999c3.978,0 11.5,0.627 11.5,2.999c0,0.812 -0.837,1.459 -2.561,1.979c-0.048,0.015 -0.096,0.022 -0.144,0.022Z"></path><path d="M15,25c-1.663,0 -4.375,-0.306 -4.843,-1.406c-4.734,-2.398 -10.157,-7.477 -10.157,-14.094c0,-0.276 0.224,-0.5 0.5,-0.5c0.276,0 0.5,0.224 0.5,0.5c0,6.256 5.283,11.075 9.808,13.301c0.171,0.084 0.279,0.258 0.279,0.449c0.117,0.188 1.425,0.75 3.913,0.75c2.488,0 3.796,-0.563 3.922,-0.797c0,-0.19 0.099,-0.317 0.27,-0.402c4.524,-2.229 9.808,-7.051 9.808,-13.301c0,-0.276 0.224,-0.5 0.5,-0.5c0.276,0 0.5,0.224 0.5,0.5c0,6.612 -5.423,11.692 -10.157,14.094c-0.468,1.1 -3.18,1.406 -4.843,1.406Z"></path></g></svg>