<?xml version="1.0" encoding="UTF-8"?><svg version="1.1" viewBox="0 0 30 30" xmlns="http://www.w3.org/2000/svg" xmlns:xlink="http://www.w3.org/1999/xlink"><g fill="#000"><path d="M14.5,28.5c-7.9,0 -14.5,-6.8 -14.5,-14.8c0,-0.3 0.2,-0.5 0.5,-0.5c0.3,0 0.5,0.3 0.5,0.5c0,7.3 6.3,13.8 13.5,13.8c7.3,0 13.5,-6.2 13.5,-13.5c0,-0.3 0.2,-0.5 0.5,-0.5c0.3,0 0.5,0.2 0.5,0.5c0,7.9 -6.6,14.5 -14.5,14.5Z"></path><path d="M19.5,15.5h-5c-0.3,0 -0.5,-0.2 -0.5,-0.5c0,-0.3 0.2,-0.5 0.5,-0.5h5c0.3,0 0.5,0.2 0.5,0.5c0,0.3 -0.2,0.5 -0.5,0.5Z"></path><path d="M14.5,18.5c-6.9,0 -14.5,-2 -14.5,-4.8c0,-2.7 7.5,-4.2 14.5,-4.2c1.8,0 3.4,0.1 5.3,0.3c0.3,0 0.5,0.3 0.4,0.6c-0.1,0.3 -0.3,0.5 -0.6,0.4c-1.8,-0.2 -3.4,-0.3 -5.2,-0.3c-8.3,0 -13.4,1.9 -13.4,3.2c0,1.5 5.7,3.8 13.5,3.8c8.1,0 13.5,-2.1 13.5,-3.5c0,-0.7 -1.9,-2 -5.4,-2.7c-0.3,-0.1 -0.4,-0.3 -0.4,-0.6c0.1,-0.3 0.3,-0.4 0.6,-0.4c2.8,0.6 6.2,1.9 6.2,3.7c-3.55271e-15,2.8 -7.5,4.5 -14.5,4.5Z"></path><path d="M2.5,16c-0.3,0 -0.5,-0.2 -0.5,-0.5c0,-2.1 6.3,-3.5 12.2,-3.5c1.2,0 2.3,0 3.4,0.1c0.3,0 0.5,0.3 0.5,0.5c0,0.3 -0.3,0.5 -0.5,0.5c-1.1,-0.1 -2.2,-0.1 -3.4,-0.1c-6.8,0 -11.2,1.8 -11.2,2.5c0,0.3 -0.2,0.5 -0.5,0.5Z"></path><path d="M26.5,16c-0.3,0 -0.5,-0.2 -0.5,-0.5c-0.1,-0.4 -2.1,-1.7 -5.7,-2.1c-0.3,0 -0.5,-0.3 -0.4,-0.6c0,-0.3 0.3,-0.5 0.6,-0.4c3.2,0.4 6.5,1.7 6.5,3.1c-3.55271e-15,0.3 -0.2,0.5 -0.5,0.5Z"></path><path d="M15.5,15.5c-0.1,0 -0.2,0 -0.3,-0.1c-0.2,-0.2 -0.2,-0.5 0,-0.7l11,-12.4c0.4,-0.5 1,-0.7 1.7,-0.7c1.2,0 2.2,1 2.2,2.2c0,0.6 -0.3,1.2 -0.7,1.7l-10.9,10c-0.2,0.2 -0.5,0.2 -0.7,0c-0.2,-0.2 -0.2,-0.5 0,-0.7l10.9,-10c0.2,-0.4 0.3,-0.7 0.3,-1.1c0,-0.7 -0.6,-1.2 -1.2,-1.2c-0.4,0 -0.7,0.1 -0.9,0.4l-11,12.4c-0.1,0.1 -0.3,0.2 -0.4,0.2Z"></path></g></svg>