<svg xmlns="http://www.w3.org/2000/svg" viewBox="0 0 14 25"><path d="M11.002 9.924l-.343-.72c-.852-1.82-.928-2.53-.935-2.632l.218-1.93-1.064-.001-.2 1.867c-.01.135-.004.926 1.034 3.142l.348.728C11.3 12.93 13.346 17.2 12.672 21.4c-.003.017-.005.037-.006.055-.004.068-.098 1.623-1.275 1.623H3.253c-1.164 0-1.27-1.558-1.275-1.623a.53.53 0 0 0-.006-.055c-.674-4.2 1.383-8.47 2.612-11.022l.347-.728c1.04-2.214 1.044-3.006 1.032-3.162l-.207-1.845H4.694l.218 1.93c-.007.1-.084.813-.936 2.632l-.343.717C2.352 12.582.2 17.027.926 21.542c.057.915.612 2.595 2.326 2.595h8.13c1.715 0 2.27-1.68 2.326-2.595.716-4.515-1.425-8.96-2.705-11.618zM3.7 1.028a.5.5 0 0 1 .491-.592h6.307a.5.5 0 0 1 .491.592l-.426 2.27a.5.5 0 0 1-.491.408H4.63a.5.5 0 0 1-.491-.408l-.426-2.27zm1.333 1.678h4.625l.24-1.27H4.805l.24 1.27zM4 15.5a.5.5 0 1 1 0-1h6.5a.5.5 0 1 1 0 1H4z"/></svg>