<svg viewBox="0 0 30 30" xmlns="http://www.w3.org/2000/svg">
    <path
        d="M21 13.2L21 13.2c-0.1-0.3-0.2-0.5-0.3-0.7 -0.9-1.8-0.9-2.5-0.9-2.6l0.2-5.3h0.1c0.2 0 0.4-0.2 0.5-0.4L21 0.9c0.1-0.3-0.2-0.6-0.5-0.6H10.2c-0.3 0-0.5 0.3-0.5 0.6l0.4 3.3c0 0.2 0.3 0.4 0.5 0.4h0.1l0.2 5.3c0 0.1-0.1 0.8-0.9 2.6 -0.1 0.2-0.2 0.5-0.3 0.7 -1.3 2.7-3.4 9.4-2.7 13.9 0.1 0.9 0.6 2.6 2.3 2.6h12.1c1.7 0 2.3-1.7 2.3-2.6C24.4 22.6 22.3 15.9 21 13.2zM19.9 1.3l-0.2 2.3H11l-0.2-2.3H19.9zM10.6 13.7c0.1-0.3 0.2-0.5 0.3-0.7 1-2.2 1-3 1-3.2l-0.2-5.3h7.1l-0.2 5.3c0 0.1 0 0.9 1 3.1 0.1 0.2 0.2 0.5 0.3 0.7 0.4 0.9 0.9 2.4 1.4 4.1H9.2C9.6 16.1 10.2 14.6 10.6 13.7zM22.7 27C22.7 27 22.7 27 22.7 27c0 0.1-0.1 1.7-1.3 1.7H9.3c-1.2 0-1.3-1.6-1.3-1.6 0 0 0 0 0-0.1 -0.4-2.5 0.2-5.1 0.9-8.2 0 0 0 0 0 0 0 0 12.7 0 12.8 0C22.5 21.9 23.1 24.5 22.7 27z" />
</svg>
