<?xml version="1.0" encoding="UTF-8"?><svg version="1.1" viewBox="0 0 30 30" xmlns="http://www.w3.org/2000/svg" xmlns:xlink="http://www.w3.org/1999/xlink"><path d="M11.999,18.5c0,-0.276 -0.224,-0.5 -0.5,-0.5c-0.276,0 -0.5,0.224 -0.5,0.5c0,3.249 1.488,7.681 2.167,9.204c0.083,0.186 0.266,0.296 0.457,0.296c0.068,0 0.138,-0.014 0.203,-0.044c0.253,-0.112 0.366,-0.408 0.254,-0.66c-0.726,-1.627 -2.081,-5.878 -2.081,-8.796Zm7.791,-6.703c-0.13,-0.36 -0.241,-0.66 -0.304,-0.917c-0.117,-0.47 -0.432,-0.819 -0.766,-1.188c-0.726,-0.802 -1.72,-1.901 -1.72,-5.192c0,-0.002 -0.001,-0.003 -0.001,-0.005v-2.495c0,-1.103 -0.897,-2 -2,-2c-1.103,0 -2,0.897 -2,2v2.5c1.77636e-15,0.001 0.001,0.003 0.001,0.004c-0.001,3.288 -0.994,4.386 -1.72,5.188c-0.334,0.369 -0.65,0.718 -0.766,1.188c-0.064,0.257 -0.174,0.557 -0.304,0.917c-0.482,1.331 -1.211,3.344 -1.211,6.703c0,4.298 2.294,10.777 3.232,11.414c0.083,0.056 0.18,0.086 0.281,0.086h4.973c0.101,0 0.199,-0.03 0.284,-0.086c0.937,-0.638 3.232,-7.117 3.232,-11.414c3.55271e-15,-3.359 -0.729,-5.371 -1.211,-6.703Zm-5.791,-9.797c0,-0.551 0.448,-1 1,-1c0.552,0 1,0.449 1,1v2h-2v-2Zm3.283,27h-4.56c-0.705,-0.943 -2.723,-6.592 -2.722,-10.5c0,-3.184 0.692,-5.097 1.151,-6.363c0.144,-0.398 0.264,-0.732 0.334,-1.017c0.056,-0.226 0.267,-0.46 0.536,-0.757c0.751,-0.83 1.868,-2.066 1.971,-5.363h2.016c0.103,3.298 1.22,4.533 1.971,5.363c0.268,0.297 0.48,0.531 0.536,0.757c0.07,0.285 0.19,0.619 0.334,1.017c0.459,1.266 1.151,3.179 1.151,6.363c0,3.919 -2.03,9.591 -2.718,10.5Z" fill="#000"></path></svg>