<svg id="Layer_1" data-name="Layer 1" xmlns="http://www.w3.org/2000/svg" viewBox="0 0 30 30"><title>Zeichenfläche 1</title><path d="M26.11,12.21l-11-.9a1.35,1.35,0,0,1-1.24-1.46l.53-6.47a1.37,1.37,0,0,1,1.47-1.24l1,.08a1.58,1.58,0,0,1,1.6,0A1.58,1.58,0,0,1,20,2.36a1.57,1.57,0,0,1,1.4.12,1.59,1.59,0,0,1,1.41.11,1.59,1.59,0,0,1,1.41.12A1.6,1.6,0,0,1,25.76,3l1.1.09A1.36,1.36,0,0,1,28.1,4.51L27.57,11A1.35,1.35,0,0,1,26.11,12.21ZM15.82,3.14a.36.36,0,0,0-.38.32l-.53,6.47a.35.35,0,0,0,.32.38l11,.91a.36.36,0,0,0,.38-.33l.54-6.47A.37.37,0,0,0,26.78,4l-1.46-.12-.13-.14a.57.57,0,0,0-.38-.18.55.55,0,0,0-.39.11L24.07,4l-.3-.3a.52.52,0,0,0-.37-.18.6.6,0,0,0-.39.11l-.35.26-.3-.31A.64.64,0,0,0,22,3.36a.6.6,0,0,0-.39.12l-.35.25L21,3.42a.56.56,0,0,0-.37-.17.55.55,0,0,0-.39.11l-.35.26-.3-.31a.56.56,0,0,0-.37-.18.55.55,0,0,0-.39.12l-.35.25-.3-.31A.61.61,0,0,0,17.76,3a.56.56,0,0,0-.4.13l-.15.11ZM21.2,9.08l-1.88-.16a1.36,1.36,0,0,1-1.24-1.46V7.35a1.36,1.36,0,0,1,1.47-1.24l1.87.15a1.35,1.35,0,0,1,1.24,1.46v.12A1.36,1.36,0,0,1,21.2,9.08Zm-1.73-2a.36.36,0,0,0-.38.33v.11a.36.36,0,0,0,.33.39l1.87.15a.36.36,0,0,0,.39-.33V7.64a.36.36,0,0,0-.33-.38Z"/><path d="M12.7,20.05l8.05-4.53a2.21,2.21,0,0,1,2.16,0l.22.12,0,.25a8.38,8.38,0,0,0,1,2.82,8.4,8.4,0,0,0,1.86,2.34l.2.16v.25a2.18,2.18,0,0,1-1.12,1.84l-8,4.53a2.21,2.21,0,0,1-3-.84l-2.21-3.92A2.22,2.22,0,0,1,12.7,20.05Zm9.52-3.75a1.25,1.25,0,0,0-1,.09l-8.06,4.54a1.21,1.21,0,0,0-.46,1.65l2.21,3.92a1.21,1.21,0,0,0,1.65.46l8.05-4.53a1.18,1.18,0,0,0,.58-.78,9.91,9.91,0,0,1-1.9-2.45A9.44,9.44,0,0,1,22.22,16.3Zm-7.68,5.2,3.47-2a.67.67,0,0,1,.91.26l.52.92a.67.67,0,0,1-.25.91l-3.47,2a.67.67,0,0,1-.92-.25l-.52-.92A.69.69,0,0,1,14.54,21.5Zm3.67-.93-2.89,1.64.19.35,2.9-1.64Zm2.63-.75,1-.57a.67.67,0,0,1,.91.25l.6,1.06a.67.67,0,0,1-.26.91l-1,.58a.68.68,0,0,1-.92-.26l-.59-1.05A.68.68,0,0,1,20.84,19.82Zm1.22.46-.45.25.27.49.45-.26Z"/><path d="M13.59,15.2l-1.8-5.64-.16-.1a1.68,1.68,0,0,1-.7-.94,1.67,1.67,0,0,1,0-1.17L11,7.18l-.77-2.42a1.36,1.36,0,0,0-1.7-.88l-6.15,2a1.36,1.36,0,0,0-.88,1.7l.16.53.15.09a1.76,1.76,0,0,1,.62.9,1.77,1.77,0,0,1,0,1.09l-.06.16.5,1.57.13.09a1.75,1.75,0,0,1,.58.88,1.72,1.72,0,0,1,0,1.05l-.05.16L4.86,18a1.45,1.45,0,0,0,1.83.89l6.15-2A1.4,1.4,0,0,0,13.59,15.2ZM12.4,16,6.26,17.9a.35.35,0,0,1-.45-.23L4.66,14a2.85,2.85,0,0,0-.07-1.5,2.79,2.79,0,0,0-.81-1.27l-.31-.95a2.72,2.72,0,0,0-.05-1.57,2.74,2.74,0,0,0-.86-1.31l-.07-.21a.36.36,0,0,1,.23-.45L8.87,4.83a.35.35,0,0,1,.45.23L10,7.13a2.79,2.79,0,0,0,0,1.69,2.73,2.73,0,0,0,1,1.39l1.69,5.29A.37.37,0,0,1,12.4,16Z"/><path d="M7.32,11.11a1.14,1.14,0,0,0-1.43-.75,1.16,1.16,0,0,0-.75,1.44l1.27,4a1.14,1.14,0,1,0,2.18-.69Zm0,4.37-1.26-4a.14.14,0,0,1,.09-.18.14.14,0,0,1,.18.09l1.26,4C7.68,15.54,7.41,15.63,7.36,15.48Z"/><path d="M8.82,7A.67.67,0,0,0,8,6.59L6.86,7a.67.67,0,0,0-.44.84L6.79,9a.66.66,0,0,0,.84.43L8.75,9a.67.67,0,0,0,.44-.84ZM7.64,8.33,7.48,7.8,8,7.65l.17.53Z"/></svg>