<?xml version="1.0" encoding="UTF-8"?><svg version="1.1" viewBox="0 0 28 30" xmlns="http://www.w3.org/2000/svg" xmlns:xlink="http://www.w3.org/1999/xlink"><!--Generated by IJSVG (https://github.com/curthard89/IJSVG)--><g transform="matrix(1,0,0,1,-210,0)"><g transform="matrix(1,0,0,1,210.355,0)"><path fill="#000" stroke="none" d="M15.1507,26.879c0,-0.139091 -0.0551111,-0.272935 -0.153526,-0.37136c-0.0984146,-0.0984147 -0.232259,-0.153526 -0.37136,-0.153526c-0.139091,0 -0.272935,0.0551111 -0.37136,0.153526c-0.0984146,0.0984146 -0.153526,0.232259 -0.153526,0.37136c0,0.139101 0.0551111,0.272935 0.153526,0.37136c0.0984147,0.0984146 0.232259,0.154839 0.37136,0.154839c0.139091,0 0.272935,-0.0564246 0.37136,-0.154839c0.0984146,-0.0984146 0.153526,-0.232259 0.153526,-0.37136Z"></path><path fill="#000" stroke="none" d="M13.9538,28.9523c0,-0.139091 -0.0551111,-0.272935 -0.153526,-0.37267c-0.0984146,-0.0984146 -0.232259,-0.153526 -0.37136,-0.153526c-0.139091,0 -0.272935,0.0551111 -0.37136,0.153526c-0.0984146,0.0997281 -0.153526,0.233569 -0.153526,0.37267c0,0.139101 0.0551111,0.272935 0.153526,0.37136c0.0984146,0.0984147 0.232259,0.153526 0.37136,0.153526c0.139091,0 0.272935,-0.0551111 0.37136,-0.153526c0.0984247,-0.0984146 0.153526,-0.232259 0.153526,-0.37136Z"></path><path fill="#000" stroke="none" d="M16.3472,24.8071c0,-0.289993 -0.234882,-0.524876 -0.524876,-0.524876c-0.289993,0 -0.524876,0.234882 -0.524876,0.524876c0,0.289993 0.234882,0.524876 0.524876,0.524876c0.289993,0 0.524876,-0.234882 0.524876,-0.524876Z"></path><path fill="#000" stroke="none" d="M17.5441,26.879c0,-0.289993 -0.234882,-0.524876 -0.524876,-0.524876c-0.289993,0 -0.524876,0.234882 -0.524876,0.524876c0,0.289993 0.234882,0.524876 0.524876,0.524876c0.289993,0 0.524876,-0.234882 0.524876,-0.524876Z"></path><path fill="#000" stroke="none" d="M16.3472,28.9523c0,-0.289994 -0.234882,-0.524876 -0.524876,-0.524876c-0.289993,0 -0.524876,0.234882 -0.524876,0.524876c0,0.289993 0.234882,0.524876 0.524876,0.524876c0.289993,0 0.524876,-0.234882 0.524876,-0.524876Z"></path><path fill="#000" stroke="none" d="M18.7407,28.9523c0,-0.139091 -0.0551111,-0.272935 -0.153526,-0.37136c-0.0984146,-0.0984247 -0.232259,-0.154839 -0.37136,-0.154839c-0.139091,0 -0.272935,0.0564246 -0.37136,0.154839c-0.0984146,0.0984146 -0.153526,0.232259 -0.153526,0.37136c0,0.139101 0.0551111,0.272935 0.153526,0.37136c0.0984146,0.0984147 0.232259,0.153526 0.37136,0.153526c0.139091,0 0.272935,-0.0551111 0.37136,-0.153526c0.0984247,-0.0984146 0.153526,-0.232259 0.153526,-0.37136Z"></path><path fill="#000" stroke="none" d="M12.3437,0.0839801l-2.36851,4.10058l0.200766,3.09544l-4.73312,8.20116l-2.78317,1.3765l-2.3672,4.10058l2.03914,-0.0905406l0.940846,1.81081l2.04045,-0.0879171l0.943466,1.8095l2.04045,-0.0879171l0.940846,1.81081l8.13163,-3.75425l4.73312,-8.19982l2.78317,-1.37519l2.3672,-4.10058l-2.03914,0.0879171l-0.940846,-1.81081l-2.04045,0.0892272l-0.943466,-1.81081l-2.04045,0.0905406l-0.940846,-1.81343l-2.03914,0.0905406l-0.943466,-1.81081l-2.03783,0.0892272l-0.943453,-1.81076Zm-0.0472371,2.18086l0.36743,0.708591l2.03914,-0.0892272l0.943466,1.81081l2.03783,-0.0905406l0.943466,1.81081l2.04045,-0.0879171l0.940846,1.8095l2.04045,-0.0879171l0.942156,1.81081l0.796501,-0.0354295l-1.14818,1.98929l-13.0918,-7.55955l1.14828,-1.98923Zm-1.18755,3.18076l12.1193,6.99521l-1.87511,0.926402l-4.7264,8.18672l-2.6572,1.22688l-9.65234,-5.57292l1.87511,-0.926402l5.05191,-8.75106l-0.135309,-2.08482Zm-7.80343,12.3924l9.49748,5.48222l-3.09544,1.42897l-0.789951,-1.51557l-2.04045,0.0879171l-0.940846,-1.8095l-2.04045,0.0892306l-0.942156,-1.81212l-0.796501,0.036743l1.14831,-1.98789Z"></path><path fill="#000" stroke="none" d="M13.4382,16.3526c0,-0.289994 -0.234882,-0.524876 -0.524876,-0.524876c-0.289993,0 -0.524876,0.234882 -0.524876,0.524876c0,0.289993 0.234882,0.524876 0.524876,0.524876c0.289993,0 0.524876,-0.234882 0.524876,-0.524876Z"></path><path fill="#000" stroke="none" d="M12.2413,18.4259c0,-0.139091 -0.0551111,-0.272935 -0.153526,-0.37136c-0.0984146,-0.0984146 -0.232259,-0.153526 -0.37136,-0.153526c-0.139091,0 -0.272935,0.0551111 -0.37136,0.153526c-0.0984146,0.0984146 -0.153526,0.232259 -0.153526,0.37136c0,0.139091 0.0551112,0.272935 0.153526,0.37136c0.0984146,0.0984146 0.232259,0.153526 0.37136,0.153526c0.139091,0 0.272935,-0.0551111 0.37136,-0.153526c0.0984247,-0.0984146 0.153526,-0.232259 0.153526,-0.37136Z"></path><path fill="#000" stroke="none" d="M11.0447,16.3526c0,-0.139091 -0.0551112,-0.272935 -0.153526,-0.37136c-0.0984146,-0.0984247 -0.232259,-0.153526 -0.37136,-0.153526c-0.139091,0 -0.272935,0.0551111 -0.37136,0.153526c-0.0984146,0.0984146 -0.153526,0.232259 -0.153526,0.37136c0,0.139091 0.0551112,0.272935 0.153526,0.37136c0.0984146,0.0984147 0.232259,0.154839 0.37136,0.154839c0.139091,0 0.272935,-0.0564245 0.37136,-0.154839c0.0984146,-0.0984146 0.153526,-0.232259 0.153526,-0.37136Z"></path><path fill="#000" stroke="none" d="M12.2413,14.2807c0,-0.139091 -0.0551111,-0.272935 -0.153526,-0.37136c-0.0984146,-0.0984247 -0.232259,-0.153526 -0.37136,-0.153526c-0.139091,0 -0.272935,0.0551111 -0.37136,0.153526c-0.0984146,0.0984147 -0.153526,0.232259 -0.153526,0.37136c0,0.139091 0.0551112,0.272935 0.153526,0.37136c0.0984146,0.0984146 0.232259,0.153526 0.37136,0.153526c0.139091,0 0.272935,-0.0551111 0.37136,-0.153526c0.0984147,-0.0984146 0.153526,-0.232259 0.153526,-0.37136Z"></path><path fill="#000" stroke="none" d="M14.6347,14.2807c0,-0.139091 -0.0551111,-0.272935 -0.153526,-0.37136c-0.0984147,-0.0984247 -0.232259,-0.154839 -0.37136,-0.154839c-0.140405,0 -0.272935,0.0564245 -0.37136,0.154839c-0.0984146,0.0984147 -0.154839,0.232259 -0.153526,0.37136c-0.0013121,0.139091 0.0551111,0.272935 0.153526,0.37136c0.0984146,0.0984146 0.230945,0.153526 0.37136,0.153526c0.139091,0 0.272935,-0.0551111 0.37136,-0.153526c0.0984146,-0.0984146 0.153526,-0.232259 0.153526,-0.37136Z"></path><path fill="#000" stroke="none" d="M15.8303,16.3526c0.0013121,-0.139091 -0.053801,-0.272935 -0.152212,-0.37136c-0.0984113,-0.0984247 -0.232259,-0.153526 -0.37267,-0.153526c-0.139091,0 -0.272935,0.0551111 -0.37136,0.153526c-0.0984247,0.0984146 -0.153526,0.232259 -0.153526,0.37136c0,0.140405 0.0551111,0.272935 0.153526,0.37267c0.0984146,0.0984147 0.232259,0.153526 0.37136,0.153526c0.140405,0 0.274249,-0.0551111 0.37267,-0.153526c0.0984146,-0.0997247 0.153526,-0.232259 0.152212,-0.37267Z"></path><path fill="#000" stroke="none" d="M14.6347,18.4259c0,-0.139091 -0.0551111,-0.272935 -0.153526,-0.37136c-0.0984147,-0.0984146 -0.232259,-0.154839 -0.37136,-0.154839c-0.140405,0 -0.272935,0.0564246 -0.37136,0.154839c-0.0984146,0.0984146 -0.154839,0.232259 -0.153526,0.37136c-0.0013121,0.139091 0.0551111,0.272935 0.153526,0.37136c0.0984146,0.0984146 0.230945,0.153526 0.37136,0.153526c0.139091,0 0.272935,-0.0551111 0.37136,-0.153526c0.0984247,-0.0984146 0.153526,-0.232259 0.153526,-0.37136Z"></path><path fill="#000" stroke="none" d="M9.84784,18.4259c0,-0.139091 -0.0551111,-0.272935 -0.153526,-0.37136c-0.0984146,-0.0997281 -0.232259,-0.154839 -0.37136,-0.154839c-0.139091,0 -0.272935,0.0551111 -0.37136,0.154839c-0.0984146,0.0984146 -0.153526,0.232259 -0.153526,0.37136c0,0.139091 0.0551111,0.272935 0.153526,0.37136c0.0984146,0.0984146 0.232259,0.153526 0.37136,0.153526c0.139091,0 0.272935,-0.0551111 0.37136,-0.153526c0.0984247,-0.0984146 0.153526,-0.232259 0.153526,-0.37136Z"></path><path fill="#000" stroke="none" d="M8.6513,16.3526c0,-0.139091 -0.0551111,-0.272935 -0.153526,-0.37136c-0.0984146,-0.0984247 -0.232259,-0.153526 -0.37136,-0.153526c-0.139091,0 -0.272935,0.0551111 -0.37136,0.153526c-0.0984146,0.0984146 -0.153526,0.232259 -0.153526,0.37136c0,0.140405 0.0551111,0.272935 0.153526,0.37267c0.0984146,0.0984147 0.232259,0.153526 0.37136,0.153526c0.139091,0 0.272935,-0.0551111 0.37136,-0.153526c0.0984146,-0.0997247 0.153526,-0.232259 0.153526,-0.37267Z"></path><path fill="#000" stroke="none" d="M9.84784,14.2807c0,-0.139091 -0.0551111,-0.272935 -0.153526,-0.37136c-0.0984146,-0.099728 -0.232259,-0.154839 -0.37136,-0.154839c-0.139091,0 -0.272935,0.0551111 -0.37136,0.154839c-0.0984146,0.0984147 -0.153526,0.232259 -0.153526,0.37136c0,0.139091 0.0551111,0.272935 0.153526,0.37136c0.0984146,0.0984146 0.232259,0.153526 0.37136,0.153526c0.139091,0 0.272935,-0.0551111 0.37136,-0.153526c0.0984146,-0.0984146 0.153526,-0.232259 0.153526,-0.37136Z"></path><path fill="#000" stroke="none" d="M17.0271,14.2807c0.0013121,-0.139091 -0.0538011,-0.272935 -0.152212,-0.37267c-0.0984146,-0.0984147 -0.232259,-0.153526 -0.37267,-0.153526c-0.139091,0 -0.272935,0.0551111 -0.37136,0.153526c-0.0984146,0.099728 -0.153526,0.233569 -0.153526,0.37267c0,0.139091 0.0551111,0.272935 0.153526,0.37136c0.0984147,0.0984146 0.232259,0.154839 0.37136,0.154839c0.140405,0 0.274249,-0.0564246 0.37267,-0.154839c0.0984146,-0.0984146 0.153526,-0.232259 0.152212,-0.37136Z"></path><path fill="#000" stroke="none" d="M18.2237,16.3526c0.0013121,-0.139091 -0.0551111,-0.272935 -0.153526,-0.37136c-0.0984146,-0.0984247 -0.230945,-0.153526 -0.37136,-0.153526c-0.139091,0 -0.272935,0.0551111 -0.37136,0.153526c-0.0984247,0.0984146 -0.153526,0.232259 -0.153526,0.37136c0,0.140405 0.0551111,0.272935 0.153526,0.37267c0.0984146,0.0984147 0.232259,0.153526 0.37136,0.153526c0.140405,0 0.272935,-0.0551111 0.37136,-0.153526c0.0984147,-0.0997247 0.154839,-0.232259 0.153526,-0.37267Z"></path><path fill="#000" stroke="none" d="M17.0271,18.4259c0.0013121,-0.139091 -0.0538011,-0.272935 -0.152212,-0.37267c-0.0984146,-0.0984146 -0.232259,-0.153526 -0.37267,-0.153526c-0.139091,0 -0.272935,0.0551111 -0.37136,0.153526c-0.0984146,0.0997247 -0.153526,0.233569 -0.153526,0.37267c0,0.139091 0.0551111,0.272935 0.153526,0.37136c0.0984147,0.0984247 0.232259,0.154839 0.37136,0.154839c0.140405,0 0.274249,-0.0564246 0.37267,-0.154839c0.0984213,-0.0984146 0.153526,-0.232259 0.152212,-0.37136Z"></path><path fill="#000" stroke="none" d="M19.4202,14.2807c0,-0.139091 -0.0551111,-0.272935 -0.153526,-0.37136c-0.0984146,-0.099728 -0.232259,-0.154839 -0.37136,-0.154839c-0.139101,0 -0.272935,0.0551111 -0.37136,0.154839c-0.0984146,0.0984147 -0.153526,0.232259 -0.153526,0.37136c0,0.139091 0.0551111,0.272935 0.153526,0.37136c0.0984146,0.0984146 0.232259,0.153526 0.37136,0.153526c0.139101,0 0.272935,-0.0551111 0.37136,-0.153526c0.0984147,-0.0984146 0.153526,-0.232259 0.153526,-0.37136Z"></path><path fill="#000" stroke="none" d="M13.4382,20.4979c0,-0.289993 -0.234882,-0.524876 -0.524876,-0.524876c-0.289993,0 -0.524876,0.234882 -0.524876,0.524876c0,0.289994 0.234882,0.524876 0.524876,0.524876c0.289993,0 0.524876,-0.234882 0.524876,-0.524876Z"></path><path fill="#000" stroke="none" d="M15.8303,20.4979c0.0013121,-0.139091 -0.053801,-0.272935 -0.152212,-0.37136c-0.0984147,-0.0984147 -0.232259,-0.153526 -0.37267,-0.153526c-0.139091,0 -0.272935,0.0551111 -0.37136,0.153526c-0.0984146,0.0984146 -0.153526,0.232259 -0.153526,0.37136c0,0.140405 0.0551111,0.272935 0.153526,0.37267c0.0984146,0.0984146 0.232259,0.153526 0.37136,0.153526c0.140405,0 0.274249,-0.0551111 0.37267,-0.153526c0.0984146,-0.0997281 0.153526,-0.232259 0.152212,-0.37267Z"></path></g></g></svg>