<svg id="Ebene_1" data-name="Ebene 1" xmlns="http://www.w3.org/2000/svg" viewBox="0 0 30 30"><title>Zeichenfläche 1</title><g id="Page-1"><g id="Artboard"><g id="np_spice_1747993_000000" data-name="np spice 1747993 000000"><path id="Shape" d="M17.15,26.53a.56.56,0,0,0-.15-.37.54.54,0,0,0-.38-.15.53.53,0,0,0-.37.15.53.53,0,0,0,0,.74.52.52,0,0,0,.75,0A.56.56,0,0,0,17.15,26.53Z"/><path d="M18.4,29.16a.52.52,0,0,0-.9-.37.53.53,0,0,0,0,.74.53.53,0,0,0,.9-.37Z"/><path d="M17.64,24.59a.53.53,0,0,0-.53-.53.52.52,0,0,0-.52.53.52.52,0,0,0,.52.52A.52.52,0,0,0,17.64,24.59Z"/><path d="M20.19,26.47a.53.53,0,0,0-.53-.53.52.52,0,0,0-.52.53.52.52,0,0,0,.52.52A.52.52,0,0,0,20.19,26.47Z"/><path d="M18.34,27.73a.53.53,0,0,0-.9-.38.54.54,0,0,0-.15.38.51.51,0,0,0,.52.52.54.54,0,0,0,.38-.15A.58.58,0,0,0,18.34,27.73Z"/><path d="M13.57.31,11.2,4.41l.2,3.1-4.73,8.2L3.89,17.09l-2.37,4.1,2-.09.94,1.81,2-.09.94,1.81,2-.09,1,1.81L18.6,22.6l4.73-8.2L26.11,13l2.37-4.1-2,.09L25.5,7.2l-2,.09-.94-1.81-2,.09-.95-1.81-2,.09L16.55,2l-2,.08Zm-.05,2.18.37.71,2-.09.94,1.82,2-.1.95,1.82,2-.09.94,1.81,2-.09.94,1.81.8,0-1.15,2L12.38,4.48ZM12.34,5.68l12.12,7-1.88.93-4.73,8.18L15.2,23,5.54,17.44l1.88-.93,5.05-8.75ZM4.53,18.07,14,23.55,10.93,25l-.79-1.52-2,.09-.94-1.81-2,.09L4.18,20l-.8,0Z"/><path d="M14.67,16.58a.52.52,0,0,0-.53-.52.52.52,0,0,0-.52.52.52.52,0,0,0,.52.53A.53.53,0,0,0,14.67,16.58Z"/><path d="M13.47,18.66a.51.51,0,0,0-.53-.53.56.56,0,0,0-.37.15.54.54,0,0,0-.15.38.51.51,0,0,0,.52.52.54.54,0,0,0,.38-.15A.56.56,0,0,0,13.47,18.66Z"/><path d="M12.27,16.58a.51.51,0,0,0-.52-.52.5.5,0,0,0-.37.15.52.52,0,0,0-.16.37.55.55,0,0,0,.53.53.52.52,0,0,0,.37-.16A.5.5,0,0,0,12.27,16.58Z"/><path d="M13.47,14.51a.56.56,0,0,0-.15-.37.54.54,0,0,0-.38-.15.52.52,0,0,0-.37.89.52.52,0,0,0,.37.16.55.55,0,0,0,.38-.16A.56.56,0,0,0,13.47,14.51Z"/><path d="M15.86,14.51a.51.51,0,0,0-.15-.37.52.52,0,0,0-.37-.16.51.51,0,0,0-.37.16.51.51,0,0,0,0,.74.51.51,0,0,0,.37.16.52.52,0,0,0,.37-.16A.51.51,0,0,0,15.86,14.51Z"/><path d="M17.06,16.58a.56.56,0,0,0-.15-.37.54.54,0,0,0-.38-.15.51.51,0,0,0-.52.52.54.54,0,0,0,.15.38.56.56,0,0,0,.37.15.51.51,0,0,0,.53-.53Z"/><path d="M15.86,18.66a.54.54,0,0,0-.15-.38.56.56,0,0,0-.37-.15.54.54,0,0,0-.37.15.55.55,0,0,0-.16.38A.52.52,0,0,0,15,19a.5.5,0,0,0,.37.15.51.51,0,0,0,.52-.52Z"/><path d="M11.08,18.66a.55.55,0,0,0-.16-.38.53.53,0,0,0-.74,0,.54.54,0,0,0-.15.38.52.52,0,0,0,.89.37A.52.52,0,0,0,11.08,18.66Z"/><path d="M9.88,16.58a.56.56,0,0,0-.15-.37.54.54,0,0,0-.38-.15.51.51,0,0,0-.52.52A.54.54,0,0,0,9,17a.56.56,0,0,0,.37.15.51.51,0,0,0,.53-.53Z"/><path d="M11.08,14.51a.52.52,0,0,0-.9-.37.53.53,0,0,0,0,.74.53.53,0,0,0,.9-.37Z"/><path d="M18.25,14.51a.48.48,0,0,0-.15-.37.53.53,0,1,0,0,.74A.48.48,0,0,0,18.25,14.51Z"/><path d="M19.45,16.58a.51.51,0,0,0-.52-.52.54.54,0,0,0-.38.15.56.56,0,0,0-.15.37.51.51,0,0,0,.53.53A.56.56,0,0,0,19.3,17,.54.54,0,0,0,19.45,16.58Z"/><path d="M18.25,18.66a.5.5,0,0,0-.15-.38.53.53,0,0,0-.74,0,.55.55,0,0,0-.16.38.52.52,0,0,0,.16.37.53.53,0,0,0,.74,0A.48.48,0,0,0,18.25,18.66Z"/><path d="M20.65,14.51a.52.52,0,0,0-.16-.37.51.51,0,0,0-.37-.16.52.52,0,0,0-.37.16.53.53,0,0,0,0,.74.52.52,0,0,0,.37.16.51.51,0,0,0,.37-.16A.52.52,0,0,0,20.65,14.51Z"/><path d="M14.67,20.73a.53.53,0,0,0-.53-.53.52.52,0,0,0-.52.53.52.52,0,0,0,.52.52A.52.52,0,0,0,14.67,20.73Z"/><path d="M17.06,20.73a.56.56,0,0,0-.15-.37.55.55,0,0,0-.38-.16.52.52,0,0,0-.37.16.52.52,0,0,0,.37.89.54.54,0,0,0,.38-.15A.56.56,0,0,0,17.06,20.73Z"/></g></g></g></svg>