<svg xmlns="http://www.w3.org/2000/svg" viewBox="0 0 30 30"><path d="M.8 8a.47.47 0 0 1-.5-.5c0-.3.2-.5.4-.5l6.6-.7c.3 0 .5.2.5.4 0 .3-.2.5-.4.5L.8 8z"/><path d="M5.8 29.3L2.6 7.4c0-.3.1-.5.4-.6.3 0 .5.1.6.4l1.6 11-.6-11.1a.47.47 0 0 1 .5-.5.47.47 0 0 1 .5.5l1.2 22.1-1 .1z"/><path d="M6.3 29.8a.47.47 0 0 1-.5-.5l-.1-.7c0-.3.2-.5.4-.5.3 0 .5.2.5.4l.1.7c.1.3-.1.6-.4.6zM27.8 4.7h-.2l-6.3-2.1c-.2-.1-.3-.4-.2-.6.1-.3.4-.4.6-.3l6.3 2c.3.1.4.4.3.6-.1.3-.3.4-.5.4z"/><path d="M18.1 24.4l-.9-.4 6.1-21.3c.1-.3.4-.4.6-.3.3.1.4.4.3.6l-3.1 10.6 4-10.3c.1-.3.4-.4.6-.3.3.1.4.4.3.6l-7.9 20.8z"/><path d="M17.6 24.8h-.2c-.3-.1-.4-.4-.3-.6l.2-.7c.1-.3.4-.4.6-.3.3.1.4.4.3.6l-.2.7c0 .1-.2.3-.4.3zm7.2 4.3c-.1 0-.2 0-.3-.1-.2-.2-.2-.5-.1-.7l4.3-5.1c.2-.2.5-.2.7-.1.2.2.2.5.1.7l-4.3 5.1c-.1.1-.2.2-.4.2z"/><path d="M26.3 27.3c-.1 0-.2 0-.3-.1l-16.3-15 .6-.8 17.6 13.4c.2.2.3.5.1.7s-.5.3-.7.1L18.4 19l8.1 7.5c.2.2.2.5 0 .7 0 .1-.1.1-.2.1z"/><path d="M10.4 12.7c-.1 0-.2 0-.3-.1l-.5-.5c-.2-.2-.2-.5-.1-.7.2-.2.5-.2.7-.1l.5.5c.2.2.2.5.1.7s-.2.2-.4.2z"/></svg>