<?xml version="1.0" encoding="UTF-8"?><svg version="1.1" viewBox="0 0 30 30" xmlns="http://www.w3.org/2000/svg" xmlns:xlink="http://www.w3.org/1999/xlink"><path d="M18.19,6.926c0.247,-0.124 0.347,-0.424 0.224,-0.671c-0.124,-0.248 -0.423,-0.347 -0.671,-0.224l-2.277,1.138v-1.69c0,-0.276 -0.224,-0.5 -0.5,-0.5c-0.276,0 -0.5,0.224 -0.5,0.5v1.69l-2.275,-1.138c-0.244,-0.121 -0.547,-0.024 -0.671,0.224c-0.123,0.247 -0.023,0.547 0.224,0.671l2.722,1.362v2.882l-2.275,-1.138c-0.244,-0.122 -0.547,-0.023 -0.671,0.224c-0.123,0.247 -0.023,0.547 0.224,0.671l2.722,1.362v2.882l-2.275,-1.138c-0.244,-0.121 -0.547,-0.023 -0.671,0.224c-0.123,0.247 -0.023,0.547 0.224,0.671l2.722,1.362v2.191c0,0.276 0.224,0.5 0.5,0.5c0.276,0 0.5,-0.224 0.5,-0.5v-2.192l2.724,-1.361c0.247,-0.124 0.347,-0.424 0.224,-0.671c-0.124,-0.247 -0.423,-0.346 -0.671,-0.224l-2.277,1.138v-2.882l2.724,-1.361c0.247,-0.124 0.347,-0.424 0.224,-0.671c-0.124,-0.248 -0.423,-0.347 -0.671,-0.224l-2.277,1.138v-2.884l2.724,-1.361Zm-3.19,-6.926c-4.687,0 -8.5,4.679 -8.5,10.429c0,4.48 2.127,9.611 4.948,11.935c0.746,0.614 1.207,1.356 1.267,2.028l0.255,3.63c0.082,0.934 0.967,1.978 2.03,1.978c1.056,0 1.884,-1.042 1.966,-1.978l0.318,-3.621c0.063,-0.719 0.501,-1.461 1.2,-2.037c2.813,-2.317 5.016,-7.56 5.016,-11.935c0,-5.75 -3.813,-10.429 -8.5,-10.429Zm2.849,21.594c-0.918,0.756 -1.472,1.722 -1.561,2.721l-0.318,3.621c-0.041,0.469 -0.506,1.065 -0.97,1.065c-0.484,0 -0.993,-0.6 -1.033,-1.057l-0.255,-3.63c-0.085,-0.96 -0.663,-1.927 -1.628,-2.721c-2.57,-2.118 -4.584,-7.022 -4.584,-11.164c0,-5.199 3.364,-9.429 7.5,-9.429c4.136,0 7.5,4.23 7.5,9.43c0,4.111 -2.043,9.015 -4.651,11.164Z" fill="#000"></path></svg>