<?xml version="1.0" encoding="utf-8"?>
<!-- Generator: Adobe Illustrator 23.0.1, SVG Export Plug-In . SVG Version: 6.00 Build 0)  -->
<svg version="1.1" id="Layer_1" xmlns="http://www.w3.org/2000/svg" xmlns:xlink="http://www.w3.org/1999/xlink" x="0px" y="0px"
	 viewBox="0 0 30 30" style="enable-background:new 0 0 30 30;" xml:space="preserve">
<g>
	<path d="M16.9,14.9c-1,0-1.8-0.8-1.8-1.8s0.8-1.8,1.8-1.8s1.8,0.8,1.8,1.8S17.9,14.9,16.9,14.9z M16.9,12.3c-0.4,0-0.8,0.4-0.8,0.8
		s0.4,0.8,0.8,0.8s0.8-0.4,0.8-0.8S17.4,12.3,16.9,12.3z"/>
	<path d="M11,17.9c-0.7,0-1.2-0.6-1.2-1.2c0-0.7,0.6-1.2,1.2-1.2s1.2,0.6,1.2,1.2C12.2,17.4,11.7,17.9,11,17.9z M11,16.5
		c-0.1,0-0.2,0.1-0.2,0.2c0,0.3,0.5,0.3,0.5,0C11.2,16.6,11.1,16.5,11,16.5z"/>
	<path d="M12.4,22.8c-1.1,0-2-0.9-2-2s0.9-2,2-2s2,0.9,2,2S13.5,22.8,12.4,22.8z M12.4,19.7c-0.6,0-1,0.5-1,1s0.5,1,1,1s1-0.5,1-1
		S13,19.7,12.4,19.7z"/>
	<path d="M6.4,21.4c-1.3,0-2.4-1.1-2.4-2.4s1.1-2.4,2.4-2.4s2.4,1.1,2.4,2.4S7.7,21.4,6.4,21.4z M6.4,17.5c-0.8,0-1.4,0.6-1.4,1.4
		c0,0.8,0.6,1.4,1.4,1.4s1.4-0.6,1.4-1.4C7.8,18.1,7.1,17.5,6.4,17.5z"/>
	<g>
		<g>
			<path d="M13.1,1.8c0.2,0,0.3,0,0.5,0.1c0,0,0.1,0,0.1,0C14,2,14.2,2.1,14.4,2.2c0,0,0,0,0,0c0.1,0.1,0.2,0.2,0.4,0.3
				c0.4,0.4,0.6,1,0.7,1.6c0,0.2,0.1,0.4,0.3,0.6c0.1,0.1,0.3,0.2,0.5,0.2c0,0,0,0,0.1,0c0,0,0.1,0,0.1,0c0.4,0,0.8,0.2,1.1,0.5
				c0.1,0.1,0.2,0.3,0.3,0.5c0.1,0.2,0.3,0.4,0.6,0.5c0,0,0.1,0,0.1,0c0.2,0,0.5-0.1,0.6-0.3c0,0,0-0.1,0.1-0.1
				c0.1-0.1,0.3-0.2,0.5-0.2c0.2,0,0.4,0.1,0.6,0.2c0.3,0.3,0.3,0.8,0,1.1c-0.2,0.2-0.4,0.2-0.6,0.2c-0.2,0-0.3-0.1-0.4-0.1
				c0,0-0.1-0.1-0.1-0.2c-0.1-0.2-0.4-0.3-0.6-0.3c0,0-0.1,0-0.1,0c-0.2,0-0.3,0.1-0.5,0.2c-0.1,0.1-0.1,0.1-0.2,0.2
				c-0.3,0.6-0.8,0.9-1.4,0.9c-0.1,0-0.1,0-0.2,0c0,0,0,0-0.1,0c-0.2,0-0.4,0.1-0.5,0.2c-0.2,0.1-0.3,0.3-0.3,0.6
				c-0.1,1.2-1.2,2.2-2.4,2.2c-0.2,0-0.4,0-0.6-0.1c-0.1,0-0.1,0-0.2,0c-0.2,0-0.4,0.1-0.6,0.3c0,0-0.1,0.1-0.1,0.1
				c0,0-0.1,0.1-0.1,0.1c-0.7,0.7-1.7,1.1-2.7,1.1c-0.2,0-0.3,0-0.5,0c0,0-0.1,0-0.1,0c-0.3,0-0.6,0.2-0.7,0.4
				c-0.4,0.9-1.2,1.4-2,1.4c-0.6,0-1.2-0.3-1.7-0.7c-1.1-1.1-0.9-3,0.7-3.7c0.3-0.1,0.5-0.5,0.4-0.8C4.7,7.7,5.1,6.5,6,5.7
				C6.7,5,7.7,4.6,8.7,4.6c0.4,0,0.8,0.1,1.1,0.2c0.1,0,0.1,0,0.2,0c0.2,0,0.3-0.1,0.5-0.1c0.2-0.1,0.3-0.4,0.3-0.6
				c0-0.6,0.3-1.2,0.7-1.6c0.2-0.2,0.4-0.3,0.6-0.4c0,0,0.1,0,0.1,0c0.2-0.1,0.4-0.1,0.7-0.2c0,0,0.1,0,0.1,0
				C13,1.8,13.1,1.8,13.1,1.8 M13.1,0.8c-0.1,0-0.2,0-0.2,0c-0.1,0-0.1,0-0.2,0c-0.3,0-0.6,0.1-0.9,0.3c-0.1,0-0.1,0-0.1,0.1
				c-0.4,0.2-0.6,0.4-0.9,0.6c-0.5,0.5-0.9,1.2-1,2C9.4,3.7,9.1,3.6,8.7,3.6C7.4,3.6,6.2,4.1,5.3,5c-1,1-1.5,2.4-1.4,3.8
				c-0.9,0.5-1.6,1.3-1.8,2.3c-0.2,1.1,0.2,2.2,0.9,3c0.6,0.7,1.5,1,2.4,1c1.2,0,2.3-0.7,2.9-1.8c0.1,0,0.3,0,0.4,0
				c1.3,0,2.5-0.5,3.4-1.4c0.1-0.1,0.1-0.1,0.2-0.2l0,0c0.2,0.1,0.5,0.1,0.7,0.1c1.7,0,3.2-1.3,3.3-2.9c0,0,0,0,0,0
				c0.9,0,1.6-0.4,2.1-1.1l0,0c0.3,0.3,0.7,0.4,1.1,0.4c0.5,0,1-0.2,1.3-0.5c0.7-0.7,0.7-1.8,0-2.5c-0.3-0.3-0.8-0.5-1.3-0.5
				c-0.4,0-0.8,0.1-1.1,0.4c-0.1-0.2-0.2-0.3-0.3-0.4c-0.5-0.5-1.1-0.7-1.8-0.8c-0.1-0.8-0.4-1.5-0.9-2c-0.1-0.1-0.3-0.3-0.4-0.4
				l-0.2-0.2l-0.1,0C14.5,1.1,14.3,1,14,0.9c0,0-0.1,0-0.1,0C13.6,0.9,13.4,0.8,13.1,0.8L13.1,0.8z"/>
		</g>
	</g>
	<g>
		<path d="M24.1,10.7L21.9,8c-0.2-0.3-0.5-0.5-0.7-0.8c-0.1,0.1-0.2,0.3-0.3,0.4c-0.1,0.1-0.3,0.2-0.4,0.3c0.2,0.2,0.5,0.4,0.7,0.7
			l2.1,2.7c0.8,1,1.1,2.2,0.9,3.5c-0.2,1.2-0.8,2.3-1.8,3.1L13,25.2c-1,0.8-2.2,1.1-3.5,0.9c-1.2-0.2-2.3-0.8-3.1-1.8l-2.1-2.7
			c-1.6-2-1.2-5,0.8-6.6l0,0c-0.4,0-0.8-0.1-1.2-0.3c-2,2-2.3,5.2-0.5,7.5L5.7,25c0.9,1.2,2.3,2,3.8,2.1c0.2,0,0.5,0,0.7,0
			c1.3,0,2.5-0.4,3.5-1.2l9.4-7.3c1.2-0.9,2-2.3,2.1-3.8C25.4,13.4,25,11.9,24.1,10.7z"/>
	</g>
	<path d="M26.8,11.7l-2-2.5c-0.5-0.6-1.2-1.1-1.9-1.5c0,0,0,0,0,0l-2-0.8c-0.1,0.3-0.4,0.6-0.8,0.8l2.4,1c0,0,0,0,0,0
		c0.6,0.3,1.1,0.7,1.5,1.2l2,2.5c1.6,2.1,1.2,5.1-0.9,6.7l-10.5,8.1c-1,0.8-2.3,1.1-3.5,1c-1.3-0.2-2.4-0.8-3.2-1.8l-2-2.5l-0.8,0.6
		l2,2.5c0.9,1.2,2.3,2,3.9,2.2c0.2,0,0.5,0,0.7,0c1.3,0,2.5-0.4,3.5-1.2l10.5-8.1C28.3,17.9,28.7,14.2,26.8,11.7z"/>
</g>
<path d="M21,16.9c-0.7,0-1.2-0.6-1.2-1.2c0-0.7,0.6-1.2,1.2-1.2s1.2,0.6,1.2,1.2C22.2,16.4,21.6,16.9,21,16.9z M21,15.5
	c-0.1,0-0.2,0.1-0.2,0.2c0,0.3,0.5,0.3,0.5,0C21.2,15.6,21.1,15.5,21,15.5z"/>
</svg>
