<svg id="Layer_1" data-name="Layer 1" xmlns="http://www.w3.org/2000/svg" viewBox="0 0 30 30"><title>Zeichenfläche 1</title><path d="M22.36,28.71a.51.51,0,0,1-.4-.2l-1-1.42a.5.5,0,1,1,.81-.59l1,1.42a.51.51,0,0,1-.11.7A.53.53,0,0,1,22.36,28.71Z"/><path d="M24.41,28a.58.58,0,0,1-.18,0L21.8,26.89a.5.5,0,1,1,.4-.92L24.63,27a.5.5,0,0,1,.26.66A.49.49,0,0,1,24.41,28Z"/><path d="M21.12,29.74a.5.5,0,0,1-.49-.38l-.47-2a.51.51,0,0,1,.37-.61.5.5,0,0,1,.6.37l.48,2a.52.52,0,0,1-.37.61Z"/><path d="M10.93,8.88h0a23.42,23.42,0,0,1,4,5.15c.11.21.22.4.31.55.37.69.69,1.34,1,1.94a17.68,17.68,0,0,0,1.6,2.87l.81-.6a17,17,0,0,1-1.52-2.7c-.28-.59-.59-1.23-.95-1.89h0s0,0,0,0l-.38-.67A59.54,59.54,0,0,1,11.53,2.34c-.21-.92-.44-1.51-.94-1.58a.67.67,0,0,0-.68.41,4.32,4.32,0,0,0-.29,1.46C9,2,8.11,1.05,7.62.62A.59.59,0,0,0,6.88.54c-.29.2-.58.41.68,4.24C7,4.38,6.39,4,5.74,3.56a.7.7,0,0,0-.9.13.7.7,0,0,0,0,.9l1,1.22c2.8,3.46,8.64,10.66,10,14.67l1-.31c-1.34-4.08-6.79-10.86-9.9-14.7a31.88,31.88,0,0,1,4.11,3.38ZM10.6,2.73a51.51,51.51,0,0,0,2.24,6.69c-.37-.41-.76-.83-1.19-1.26C10.72,7.08,10.5,4.32,10.6,2.73ZM9,5.83c-.44-1.27-.88-2.66-1.13-3.62C8.63,3,9.54,4,9.6,4.07A13.58,13.58,0,0,0,9.92,6.6C9.62,6.34,9.3,6.08,9,5.83Z"/><path d="M23,21.58c-1-1.93-3.48-3.35-5.48-2.66.23.37.48.81.48.81h.53a4.56,4.56,0,0,1,3.6,2.32,3.22,3.22,0,0,1-3.76,4.63,3.16,3.16,0,0,1-1.92-1.55,4.42,4.42,0,0,1,.42-4.63s-.41-1-.41-1c-1.66,1.37-1.88,4.25-.89,6.09a4.23,4.23,0,1,0,7.43-4Z"/><rect x="15.66" y="17.61" width="1.69" height="1" transform="translate(-7.02 11.27) rotate(-31.45)"/></svg>