<svg id="Layer_1" data-name="Layer 1" xmlns="http://www.w3.org/2000/svg" viewBox="0 0 30 30"><title>Zeichenfläche 1</title><path d="M7.42,4.84l.24.46c.09.16,2.16,4,4.65,4.82a5,5,0,0,0,1.62.29,3.18,3.18,0,0,0,1.49-.35,2.9,2.9,0,0,0,.9-.78v4.18c.33-.07.66-.13,1-.17V9.43a3.88,3.88,0,0,0,2,1.65,3.58,3.58,0,0,0,1.19.19A5.76,5.76,0,0,0,23,10.58c2.87-1.45,4.68-6.53,4.76-6.74L28,3.35l-.5-.16c-.22-.06-5.38-1.61-8.25-.16A5.19,5.19,0,0,0,16.84,5.2a4,4,0,0,0-2.35-1.72C12,2.66,8.05,4.53,7.89,4.61Zm12.23-.92c2-1,5.65-.25,7,.09-.52,1.28-2,4.65-4.07,5.68a3.79,3.79,0,0,1-3,.44,3.18,3.18,0,0,1-1.73-1.69C16.92,6.53,17.51,5,19.65,3.92ZM8.81,5.3a12.29,12.29,0,0,1,4.22-1,3.85,3.85,0,0,1,1.15.16,3,3,0,0,1,1.87,1.38,2.45,2.45,0,0,1,0,1.87h0A2.44,2.44,0,0,1,15,9.18a3,3,0,0,1-2.33,0C11,8.63,9.42,6.31,8.81,5.3Z"/><path d="M17.32,20V26.5a.5.5,0,0,1-1,0v-7A4.39,4.39,0,0,0,17.32,20Z"/><path d="M22.23,14.58c-.16-.08-4.11-1.95-6.6-1.13a4,4,0,0,0-2.35,1.72A5.14,5.14,0,0,0,10.92,13c-2.88-1.46-8,.09-8.25.16l-.5.15.17.49c.08.22,1.89,5.29,4.76,6.74a5.65,5.65,0,0,0,2.55.7,3.58,3.58,0,0,0,1.19-.2,3.91,3.91,0,0,0,2-1.64v7.1a.5.5,0,0,0,1,0V19.25a2.87,2.87,0,0,0,.9.77,3.07,3.07,0,0,0,1.49.36,5.24,5.24,0,0,0,1.62-.29c2.49-.82,4.56-4.66,4.65-4.83l.24-.46Zm-10,3.82a3.19,3.19,0,0,1-1.72,1.7,3.84,3.84,0,0,1-3-.45c-2-1-3.55-4.39-4.07-5.68,1.34-.34,4.95-1.11,7-.08S13.2,16.49,12.23,18.4Zm5.27.74a3,3,0,0,1-2.33,0,2.49,2.49,0,0,1-1.12-1.5h0a2.47,2.47,0,0,1,0-1.86,2.91,2.91,0,0,1,1.87-1.38,3.56,3.56,0,0,1,1.15-.16,12.41,12.41,0,0,1,4.21,1C20.7,16.27,19.15,18.6,17.5,19.14Z"/><path d="M26,25H4a.5.5,0,1,1,0-1H26a.5.5,0,0,1,0,1Z"/></svg>