<?xml version="1.0" encoding="UTF-8"?><svg version="1.1" viewBox="0 0 30 30" xmlns="http://www.w3.org/2000/svg" xmlns:xlink="http://www.w3.org/1999/xlink"><g fill="#000"><path d="M8,28c-5.3,0 -8,-7.1 -8,-11c0,-4.1 3,-5.8 7.2,-8.2c0.7,-0.4 1.3,-0.8 2,-1.2c4.5,-2.7 6.3,-2.7 10.6,-2.6c0.8,0 1.7,0 2.7,0c5,0 7.5,1.5 7.5,4.5c0,3.1 -3.1,5.5 -7,5.5c-1.5,0 -3.8,2.9 -6.1,5.6c-2.9,3.6 -6,7.4 -8.9,7.4Zm10,-22.1c-3,1.77636e-15 -4.7,0.3 -8.3,2.5c-0.7,0.5 -1.3,0.9 -2,1.2c-4,2.4 -6.7,3.9 -6.7,7.4c0,3.6 2.3,10 7,10c2.4,0 5.5,-3.7 8.2,-7c2.6,-3.2 4.9,-6 6.8,-6c3.4,0 6,-2 6,-4.5c0,-1 0,-3.5 -6.5,-3.5c-1,0 -1.9,0 -2.7,0c-0.6,0 -1.2,-0.1 -1.8,-0.1Z"></path><path d="M8,30c-5.6,0 -7.2,-4.1 -7.4,-5.7l-0.6,-6.8c0,-0.2 0.2,-0.5 0.5,-0.5c0.2,0 0.5,0.2 0.5,0.5l0.6,6.8c0.1,1.2 1.5,4.7 6.4,4.7c2.5,0 5.8,-3.6 8.7,-6.8c2.9,-3.1 5.3,-5.7 7.3,-5.7c3.5,0 5,-2.5 5,-5v-2c0,-0.3 0.2,-0.5 0.5,-0.5c0.3,0 0.5,0.2 0.5,0.5v2c0,2.9 -1.9,6 -6,6c-1.5,0 -4.1,2.8 -6.5,5.4c-3.3,3.5 -6.6,7.1 -9.5,7.1Z"></path><path d="M16.5,15c-0.1,0 -0.3,0 -0.4,-0.1c-0.9,-0.9 -6.1,-2.9 -7.6,-2.9c-0.3,0 -0.5,-0.2 -0.5,-0.5c0,-0.3 0.2,-0.5 0.5,-0.5c1.7,0 7.2,1.9 8.4,3.1c0.2,0.2 0.2,0.5 0,0.7c-0.1,0.2 -0.3,0.2 -0.4,0.2Z"></path><path d="M23.5,11c-0.1,0 -0.3,0 -0.4,-0.1c-0.7,-0.8 -3.9,-1.9 -6.6,-1.9c-0.3,0 -0.5,-0.2 -0.5,-0.5c0,-0.3 0.2,-0.5 0.5,-0.5c2.9,0 6.4,1.2 7.4,2.1c0.2,0.2 0.2,0.5 0,0.7c-0.1,0.2 -0.3,0.2 -0.4,0.2Z"></path><path d="M2,9c-0.1,0 -0.3,0 -0.4,-0.1c-0.2,-0.2 -0.2,-0.5 0,-0.7c0.9,-0.9 0.6,-2.2 0.2,-3.6c-0.4,-1.5 -0.9,-3.2 0.3,-4.5c0.2,-0.1 0.6,-0.1 0.8,3.60822e-16c0.2,0.1 0.2,0.5 0,0.7c-0.9,0.9 -0.5,2.1 -0.2,3.5c0.4,1.5 0.9,3.3 -0.4,4.6c-4.44089e-16,0.1 -0.2,0.1 -0.3,0.1Z"></path><path d="M6.5,6c-0.2,0 -0.3,-0.1 -0.4,-0.2c-0.2,-0.3 -0.1,-0.6 0.1,-0.7c0.6,-0.4 0.5,-0.8 -0.1,-1.9c-0.5,-0.9 -1.3,-2.2 0.1,-3.1c0.3,-0.2 0.6,-0.1 0.7,0.1c0.2,0.3 0.1,0.6 -0.1,0.7c-0.6,0.4 -0.5,0.7 0.1,1.8c0.5,0.9 1.3,2.2 -0.2,3.2c0,0.1 -0.1,0.1 -0.2,0.1Z"></path><path d="M9.5,4c-0.2,0 -0.4,-0.1 -0.5,-0.3c-0.1,-0.3 0.1,-0.6 0.3,-0.7c0.4,-0.1 0.4,-0.2 0.4,-0.2c0,-0.1 -0.1,-0.4 -0.2,-0.6c-0.1,-0.4 -0.4,-0.9 -0.2,-1.4c0.1,-0.3 0.5,-0.6 1,-0.8c0.3,-0.1 0.5,0.1 0.6,0.3c0.1,0.3 -0.1,0.5 -0.3,0.6c-0.3,0.1 -0.4,0.2 -0.4,0.2c0,0.1 0.1,0.4 0.2,0.6c0.2,0.4 0.4,0.9 0.2,1.4c-0.2,0.4 -0.5,0.6 -1,0.8c1.77636e-15,0.1 1.77636e-15,0.1 -0.1,0.1Z"></path><path d="M8,19c-1.7,0 -3,-0.9 -3,-2c0,-1.1 1.3,-2 3,-2c1.7,0 3,0.9 3,2c0,1.1 -1.3,2 -3,2Zm0,-3c-1.1,0 -2,0.5 -2,1c0,0.5 0.9,1 2,1c1.1,0 2,-0.5 2,-1c0,-0.5 -0.9,-1 -2,-1Z"></path></g></svg>