<svg id="Layer_1" data-name="Layer 1" xmlns="http://www.w3.org/2000/svg" viewBox="0 0 30 30"><title>Zeichenfläche 1</title><path d="M25.27,4.05H11.11a.47.47,0,0,0-.5.44v.06a.54.54,0,0,0,.5.5.08.08,0,0,0,0,.07V25.37a1.07,1.07,0,0,0,1.05,1.05h12a1.07,1.07,0,0,0,1.07-1.07V5.11a.08.08,0,0,0,0-.07h.1a.46.46,0,0,0,.4-.5A.48.48,0,0,0,25.27,4.05Zm-1,21.3a.07.07,0,0,1-.07.07h0l-12-.08.05-20.28,12.07.06Z"/><path d="M16.27,20.18,16,20.1a6.29,6.29,0,0,1-2.65-4.18,2,2,0,0,1,.32-2,1.22,1.22,0,0,1,.76-.33A2.65,2.65,0,0,1,15.62,12a1.34,1.34,0,0,1,.58-.16c1-1.56,1.72-2.11,2.56-1.87.6-.46,2.49-1.77,3.22-1.37l.14.09c.71.34.58,2.59.52,3.32.67.57.64,1.51-.06,3.15a1.47,1.47,0,0,1,.2.57,2.61,2.61,0,0,1-.68,1.89,1.17,1.17,0,0,1,.18.81c-.08.57-.56,1-1.43,1.41a6.54,6.54,0,0,1-4.51.39h-.07Zm.13-1,.14.06a5.46,5.46,0,0,0,3.92-.32c.75-.32.82-.58.83-.62s-.12-.26-.15-.3l-.38-.32.32-.39c.66-.76.73-1.2.72-1.4a.39.39,0,0,0-.1-.23l-.36-.23.19-.38c.41-.91.82-2,.43-2.31a.66.66,0,0,1-.34-.62,9.62,9.62,0,0,0-.08-2.6,9.72,9.72,0,0,0-2.3,1.34.66.66,0,0,1-.71.08c-.42-.2-1.13.83-1.63,1.68l-.22.37-.4-.15a.34.34,0,0,0-.22.06c-.17.1-.49.41-.73,1.39l-.12.51-.5-.14a.39.39,0,0,0-.32.05s-.2.24,0,1a5.62,5.62,0,0,0,2,3.43ZM18.61,10l0,0Zm2.94-.57.06,0-.05,0Z"/><path d="M15.34,22.58A.5.5,0,0,1,15,22a20.32,20.32,0,0,1,2.5-5.92.5.5,0,0,1,.7-.13.49.49,0,0,1,.13.69A19.69,19.69,0,0,0,16,22.23a.5.5,0,0,1-.61.36Z"/><circle cx="6.27" cy="25.92" r="0.5"/><circle cx="9.64" cy="25.43" r="0.5"/><circle cx="7.65" cy="24.49" r="0.5"/><circle cx="8.49" cy="25.92" r="0.5"/><circle cx="4.15" cy="25.39" r="0.5"/></svg>