<?xml version="1.0" encoding="UTF-8"?><svg version="1.1" viewBox="0 0 30 30" xmlns="http://www.w3.org/2000/svg" xmlns:xlink="http://www.w3.org/1999/xlink"><path d="M10.374,20.255c-0.383,0.387 -0.379,1.068 -0.375,1.614v0.13c0,0.643 0.464,1.557 0.557,1.733c0.086,0.164 0.256,0.267 0.442,0.267c0.185,0 0.355,-0.103 0.442,-0.266c0.093,-0.177 0.559,-1.09 0.559,-1.734v-0.13c0.004,-0.547 0.009,-1.227 -0.375,-1.614c-0.334,-0.335 -0.916,-0.335 -1.25,3.55271e-15Zm-2.997,-5c-0.383,0.387 -0.379,1.068 -0.375,1.614v0.13c0,0.643 0.463,1.556 0.556,1.733c0.086,0.164 0.256,0.267 0.442,0.267c0.185,0 0.355,-0.103 0.442,-0.266c0.094,-0.177 0.56,-1.09 0.56,-1.734v-0.13c0.004,-0.547 0.009,-1.227 -0.375,-1.614c-0.334,-0.335 -0.916,-0.335 -1.25,7.10543e-15Zm7.623,4.744c0.186,0 0.356,-0.103 0.442,-0.267c0.093,-0.177 0.556,-1.09 0.556,-1.733v-0.13c0.004,-0.547 0.009,-1.227 -0.375,-1.614c-0.334,-0.335 -0.916,-0.335 -1.25,0c-0.383,0.387 -0.379,1.068 -0.375,1.614v0.13c0,0.644 0.467,1.557 0.56,1.734c0.087,0.163 0.257,0.266 0.442,0.266Zm3.377,0.256c-0.383,0.387 -0.379,1.068 -0.375,1.614v0.13c0,0.643 0.463,1.556 0.556,1.733c0.086,0.164 0.256,0.267 0.442,0.267c0.185,0 0.355,-0.103 0.442,-0.266c0.094,-0.177 0.56,-1.09 0.56,-1.734v-0.13c0.004,-0.547 0.009,-1.227 -0.375,-1.614c-0.334,-0.335 -0.916,-0.335 -1.25,3.55271e-15Zm-2.757,-17.239c0.302,-0.893 1.11,-1.734 2.037,-2.042c0.262,-0.087 0.404,-0.37 0.317,-0.632c-0.087,-0.263 -0.37,-0.402 -0.632,-0.317c-1.33,0.443 -2.443,1.676 -2.758,2.98c-2.867,0.074 -12.584,1.025 -12.584,10.494c0,0.2 0.119,0.38 0.302,0.459c0.182,0.08 0.395,0.041 0.541,-0.096c0.263,-0.248 0.662,-0.458 1.126,-0.654c0.001,0.196 0.007,0.393 0.014,0.595c0.009,0.226 0.017,0.458 0.017,0.696c0,7.037 6.756,15.5 11,15.5c4.244,0 11,-8.463 11,-15.5c0,-0.223 0.007,-0.489 0.016,-0.768c0.009,-0.332 0.018,-0.669 0.018,-0.982c0.467,0.171 0.862,0.366 1.123,0.613c0.145,0.138 0.359,0.176 0.541,0.096c0.183,-0.079 0.302,-0.259 0.302,-0.459c0,-6.285 -4.396,-9.807 -12.38,-9.983Zm9.396,10.687c-0.009,0.29 -0.016,0.565 -0.016,0.796c0,6.819 -6.523,14.5 -10,14.5c-3.477,0 -10,-7.681 -10,-14.5c0,-0.25 -0.009,-0.494 -0.018,-0.731c-0.012,-0.33 -0.015,-0.641 0.001,-0.94c0.279,-0.093 0.567,-0.185 0.86,-0.279c1.843,-0.585 4.072,-1.293 5.464,-2.904c1.1,3.5 2.793,5.354 3.693,5.354c0.919,0 2.643,-1.705 3.712,-5.344c1.385,1.545 3.583,2.094 5.403,2.548c0.311,0.078 0.618,0.155 0.913,0.234c0.012,0.375 -3.55271e-15,0.84 -0.012,1.266Zm0.812,-2.076c-0.103,-0.091 -0.239,-0.142 -0.386,-0.124c-0.009,0.001 -0.015,0.006 -0.024,0.008c-0.34,-0.094 -0.691,-0.184 -1.061,-0.277c-2.053,-0.513 -4.381,-1.094 -5.42,-2.976c-0.1,-0.181 -0.302,-0.284 -0.506,-0.253c-0.204,0.028 -0.371,0.179 -0.418,0.381c-0.949,4.04 -2.636,5.548 -2.99,5.616c-0.357,-0.078 -2.026,-1.684 -3.039,-5.626c-0.051,-0.199 -0.218,-0.346 -0.421,-0.372c-0.021,-0.004 -0.042,-0.005 -0.063,-0.005c-0.181,0 -0.349,0.098 -0.438,0.259c-1.061,1.921 -3.431,2.674 -5.522,3.338c-0.95,0.302 -1.812,0.576 -2.501,0.934c0.649,-7.897 9.253,-8.531 11.961,-8.531c5.233,0 11.427,1.427 11.962,8.051c-0.339,-0.163 -0.722,-0.299 -1.134,-0.423Zm-4.452,3.628c-0.383,0.387 -0.379,1.068 -0.375,1.614v0.13c0,0.644 0.466,1.557 0.559,1.734c0.087,0.163 0.256,0.266 0.442,0.266c0.186,0 0.356,-0.103 0.442,-0.267c0.093,-0.176 0.557,-1.09 0.557,-1.733v-0.13c0.004,-0.547 0.009,-1.227 -0.375,-1.614c-0.334,-0.335 -0.916,-0.335 -1.25,7.10543e-15Zm-7,9c-0.383,0.387 -0.379,1.068 -0.375,1.614v0.13c0,0.644 0.466,1.557 0.559,1.734c0.087,0.163 0.256,0.266 0.442,0.266c0.186,0 0.356,-0.103 0.442,-0.267c0.093,-0.176 0.557,-1.09 0.557,-1.733v-0.13c0.004,-0.547 0.009,-1.227 -0.375,-1.614c-0.334,-0.335 -0.916,-0.335 -1.25,3.55271e-15Z" fill="#000"></path></svg>