<?xml version="1.0" encoding="UTF-8"?><svg version="1.1" viewBox="0 0 30 30" xmlns="http://www.w3.org/2000/svg" xmlns:xlink="http://www.w3.org/1999/xlink"><g fill="#000"><path d="M17.071,30h-5.143c-5.114,0 -6.928,-3.771 -6.928,-7c0,-1.441 0.694,-2.841 1.499,-4.461c1.114,-2.246 2.501,-5.042 2.501,-9.039c0,-0.276 0.224,-0.5 0.5,-0.5c0.276,0 0.5,0.224 0.5,0.5c0,4.232 -1.445,7.144 -2.606,9.483c-0.748,1.508 -1.394,2.81 -1.394,4.017c0,2.9 1.558,6 5.929,6h5.143c4.37,0 5.928,-3.1 5.928,-6c0,-1.207 -0.646,-2.509 -1.394,-4.017c-1.161,-2.339 -2.606,-5.251 -2.606,-9.483c0,-0.276 0.224,-0.5 0.5,-0.5c0.276,0 0.5,0.224 0.5,0.5c0,3.997 1.387,6.793 2.501,9.039c0.805,1.62 1.499,3.02 1.499,4.461c0,3.229 -1.814,7 -6.929,7Z"></path><path d="M8.045,26.006c-0.18,0 -0.354,-0.098 -0.443,-0.268c-0.498,-0.95 -0.602,-2.013 -0.602,-2.738c0,-0.973 0.598,-2.178 1.29,-3.572c0.123,-0.247 0.423,-0.348 0.67,-0.226c0.248,0.123 0.349,0.423 0.226,0.671c-0.61,1.229 -1.186,2.389 -1.186,3.127c0,0.612 0.084,1.504 0.488,2.273c0.128,0.245 0.034,0.547 -0.211,0.676c-0.074,0.038 -0.153,0.057 -0.232,0.057Z"></path><path d="M19.5,10c-0.276,0 -0.5,-0.224 -0.5,-0.5c0,-1.046 -2.268,-2.5 -4.5,-2.5c-2.232,0 -4.5,1.454 -4.5,2.5c0,0.276 -0.224,0.5 -0.5,0.5c-0.276,0 -0.5,-0.224 -0.5,-0.5c0,-1.733 2.776,-3.5 5.5,-3.5c2.724,0 5.5,1.767 5.5,3.5c0,0.276 -0.224,0.5 -0.5,0.5Z"></path><path d="M19.5,10h-10c-0.276,0 -0.5,-0.224 -0.5,-0.5c0,-0.276 0.224,-0.5 0.5,-0.5h10c0.276,0 0.5,0.224 0.5,0.5c0,0.276 -0.224,0.5 -0.5,0.5Z"></path><path d="M15.5,7h-2c-0.276,0 -0.5,-0.224 -0.5,-0.5v-6c0,-0.202 0.122,-0.385 0.309,-0.462c0.187,-0.075 0.402,-0.034 0.545,0.108l2,2c0.093,0.094 0.146,0.221 0.146,0.354v4c0,0.276 -0.224,0.5 -0.5,0.5Zm-1.5,-1h1v-3.293l-1,-1v4.293Z"></path></g></svg>