<?xml version="1.0" encoding="UTF-8"?><svg version="1.1" viewBox="0 0 30 30" xmlns="http://www.w3.org/2000/svg" xmlns:xlink="http://www.w3.org/1999/xlink"><path d="M15,-0.002c-4.767,0 -10,9.169 -10,17.519c0,7.919 2.37,11.65 7.927,12.475c0.365,0.054 0.771,-0.187 1.393,-0.586c0.223,-0.143 0.596,-0.383 0.653,-0.41c0.122,0.026 0.484,0.265 0.702,0.409c0.48,0.318 0.902,0.596 1.286,0.596c0.04,0 0.08,-0.003 0.119,-0.009c5.478,-0.887 7.92,-4.734 7.92,-12.474c0,-8.351 -5.233,-17.52 -10,-17.52Zm-9,17.52c0,-5.315 2.411,-11.304 5.273,-14.403c-2.27,3.435 -4.273,9.166 -4.273,14.383c0,7.247 2.932,10.164 5.202,11.341c-4.389,-0.997 -6.202,-4.354 -6.202,-11.321Zm2,-0.02c0,-6.846 3.514,-13.971 5.883,-15.947c-1.192,3.45 -1.883,11.774 -1.883,15.947c0,7.234 0.858,9.814 1.69,10.89c-2,-0.649 -5.69,-2.926 -5.69,-10.89Zm7.231,10.569c-0.154,-0.033 -0.304,-0.035 -0.465,0.003c-0.813,-0.647 -1.766,-3.014 -1.766,-10.572c0,-7.065 1.238,-14.468 2.003,-16.223c0.763,1.743 1.997,9.137 1.997,16.223c0,7.419 -0.95,9.848 -1.769,10.569Zm1.05,0.322c1.169,-1.556 1.719,-5.059 1.719,-10.891c0,-4.173 -0.691,-12.497 -1.883,-15.947c2.369,1.977 5.883,9.102 5.883,15.947c0,7.876 -3.721,10.208 -5.719,10.891Zm1.439,0.462c2.278,-1.19 5.28,-4.122 5.28,-11.353c0,-5.33 -2.091,-11.193 -4.42,-14.599c2.949,3.001 5.42,9.079 5.42,14.619c0,6.869 -1.905,10.31 -6.28,11.333Z" fill="#000"></path></svg>