<svg xmlns="http://www.w3.org/2000/svg" viewBox="0 0 30 30"><path d="M.5 30a.5.5 0 0 1-.354-.853l15.13-15.13a.5.5 0 0 1 .707.707L.854 29.854A.5.5 0 0 1 .5 30zm17.652-8.826c-.07 0-.142-.015-.2-.046a.5.5 0 0 1-.244-.664l6.997-15.16L9.545 12.3a.501.501 0 1 1-.42-.909l16.392-7.565a.5.5 0 0 1 .664.664l-7.565 16.4a.5.5 0 0 1-.455.29z"/><path d="M29.5 26.217a.5.5 0 0 1-.491-.413l-3.722-21.1L4.195.992A.5.5 0 0 1 3.79.413c.048-.273.313-.452.58-.405L25.805 3.79a.5.5 0 0 1 .405.405l3.782 21.435a.5.5 0 0 1-.405.579.52.52 0 0 1-.088.007z"/><path d="M29.5 26.217c-.1 0-.22-.036-.313-.11l-6.168-4.934h-4.867a.5.5 0 0 1-.464-.314l-2.442-6.105-6.105-2.442a.5.5 0 0 1-.314-.464V6.98L3.892.813A.5.5 0 0 1 3.97.109a.5.5 0 0 1 .703.078L9.717 6.49c.07.09.11.2.11.313v4.705l6 2.396a.5.5 0 0 1 .278.279l2.396 6h4.704a.51.51 0 0 1 .313.109l6.305 5.043a.5.5 0 0 1 .078.703c-.098.124-.244.188-.4.188z"/></svg>