<?xml version="1.0" encoding="UTF-8"?><svg version="1.1" viewBox="0 0 30 30" xmlns="http://www.w3.org/2000/svg" xmlns:xlink="http://www.w3.org/1999/xlink"><defs><path d="" id="a"></path></defs><g fill="#000"><path d="M9.5,26.5c-0.2,0 -0.3,-0.1 -0.4,-0.2l-1,-1.5c-0.1,-0.1 -0.1,-0.3 -0.1,-0.4c0,-0.1 0.1,-0.2 0.2,-0.3l21,-13.5c0.2,-0.2 0.5,-0.1 0.7,0.2c0.2,0.3 0.1,0.5 -0.2,0.7l-20.5,13.1l0.5,0.7l19.6,-10.8c0.2,-0.1 0.5,0 0.7,0.2c0.2,0.2 0,0.5 -0.2,0.7l-20,11c-0.1,0.1 -0.2,0.1 -0.3,0.1Z"></path><path d="M9.5,12.5c-0.2,0 -0.3,-0.1 -0.4,-0.3c-0.1,-0.2 0,-0.5 0.2,-0.7l20,-11c0.2,-0.1 0.5,0 0.7,0.2c0.1,0.2 0,0.5 -0.2,0.7l-20,11c-0.1,0.1 -0.2,0.1 -0.3,0.1Z"></path><path d="M13.5,12.5c-0.2,0 -0.4,-0.1 -0.4,-0.3c-0.1,-0.2 0,-0.5 0.2,-0.7l16,-8c0.2,-0.1 0.5,0 0.7,0.2c0.1,0.2 0,0.5 -0.2,0.7l-16,8c-0.1,0.1 -0.2,0.1 -0.3,0.1Z"></path><path d="M9.5,17.5c-1.3,0 -5.5,-0.1 -5.5,-1.5c0,-1.4 4.2,-1.5 5.5,-1.5c1.3,0 5.5,0.1 5.5,1.5c0,1.4 -4.2,1.5 -5.5,1.5Zm-4.2,-1.5c0.6,0.2 2.1,0.5 4.2,0.5c2.1,0 3.6,-0.3 4.2,-0.5c-0.6,-0.2 -2.1,-0.5 -4.2,-0.5c-2.1,0 -3.6,0.3 -4.2,0.5Z"></path><path d="M9.5,20.5c-5.3,0 -9.5,-2 -9.5,-4.5c0,-2.5 4.2,-4.5 9.5,-4.5c5.3,0 9.5,2 9.5,4.5c0,2.5 -4.2,4.5 -9.5,4.5Zm0,-8c-5.1,0 -8.5,1.8 -8.5,3.5c0,1.7 3.4,3.5 8.5,3.5c5.1,0 8.5,-1.8 8.5,-3.5c0,-1.7 -3.4,-3.5 -8.5,-3.5Z"></path><path d="M9.5,29.5c-4.6,0 -9.5,-1.2 -9.5,-3.5v-10c0,-0.3 0.2,-0.5 0.5,-0.5c0.3,0 0.5,0.2 0.5,0.5v10c0,1 3.2,2.5 8.5,2.5c5.3,0 8.5,-1.5 8.5,-2.5v-4.1l-8.3,4.5c-0.2,0.1 -0.5,0.1 -0.7,-0.2l-1,-1.5c0,0 0,-0.2 0,-0.3c0,-0.1 0.1,-0.2 0.2,-0.3l9.8,-6.3v-1.8c0,-0.3 0.2,-0.5 0.5,-0.5c0.3,0 0.5,0.2 0.5,0.5v2.1c0,0.2 -0.1,0.3 -0.2,0.4l-9.6,6.2l0.5,0.7l8.6,-4.7c0.2,-0.1 0.3,-0.1 0.5,0c0.2,0.1 0.2,0.3 0.2,0.4v5c0,2.2 -4.9,3.4 -9.5,3.4Z"></path></g><use fill="none" stroke="#000" stroke-linecap="round" stroke-linejoin="round" stroke-width="1" xlink:href="#a"></use><use xlink:href="#a" stroke-linecap="round" stroke-width="1" stroke="#000" fill="none" stroke-linejoin="round"></use></svg>