<?xml version="1.0" encoding="UTF-8"?><svg version="1.1" viewBox="0 0 30 30" xmlns="http://www.w3.org/2000/svg" xmlns:xlink="http://www.w3.org/1999/xlink"><path d="M29.171,3.188c-2.331,-2.3 -13.817,2.187 -19.203,7.5c-4.895,4.828 -9.958,11.559 -9.958,14.465c2.13371e-16,0.528 0.154,0.947 0.458,1.247c0.753,0.742 1.967,1.029 3.382,1.029c3.79,0 9.026,-2.059 10.703,-2.943c0.516,-0.272 1.098,-0.558 1.725,-0.868c2.613,-1.287 6.189,-3.051 8.894,-5.718c1.812,-1.788 4.818,-8.342 4.818,-12.164c3.55271e-15,-1.155 -0.275,-2.012 -0.819,-2.548Zm-4.702,14c-2.589,2.554 -5.94,4.206 -8.633,5.534c-0.635,0.313 -1.226,0.605 -1.749,0.88c-2.93,1.544 -10.857,4.117 -12.915,2.086c-0.106,-0.105 -0.161,-0.285 -0.161,-0.535c0,-2.29 4.424,-8.588 9.661,-13.753c4.592,-4.53 12.934,-7.867 16.411,-7.867c0.652,0 1.134,0.118 1.386,0.367c0.34,0.336 0.521,0.971 0.521,1.836c-7.10543e-15,3.468 -2.9,9.854 -4.521,11.452Zm-4.626,-3.617c-0.195,-0.195 -0.512,-0.195 -0.707,0c-0.195,0.195 -0.195,0.512 0,0.707l2,2c0.098,0.097 0.226,0.146 0.354,0.146c0.128,0 0.256,-0.049 0.353,-0.146c0.195,-0.195 0.195,-0.512 0,-0.707l-2,-2Zm0,-5c-0.195,-0.195 -0.512,-0.195 -0.707,0c-0.195,0.195 -0.195,0.512 0,0.707l2,2c0.098,0.097 0.226,0.146 0.354,0.146c0.128,0 0.256,-0.049 0.353,-0.146c0.195,-0.195 0.195,-0.512 0,-0.707l-2,-2Zm5,-3c-0.195,-0.195 -0.512,-0.195 -0.707,0c-0.195,0.195 -0.195,0.512 0,0.707l2,2c0.098,0.097 0.226,0.146 0.354,0.146c0.128,0 0.256,-0.049 0.353,-0.146c0.195,-0.195 0.195,-0.512 0,-0.707l-2,-2Zm-12,9c-0.195,-0.195 -0.512,-0.195 -0.707,0c-0.195,0.195 -0.195,0.512 0,0.707l2,2c0.098,0.097 0.226,0.146 0.354,0.146c0.128,0 0.256,-0.049 0.353,-0.146c0.195,-0.195 0.195,-0.512 0,-0.707l-2,-2Zm-3,5c-0.195,-0.195 -0.512,-0.195 -0.707,0c-0.195,0.195 -0.195,0.512 0,0.707l2,2c0.098,0.097 0.226,0.146 0.354,0.146c0.128,0 0.256,-0.049 0.353,-0.146c0.195,-0.195 0.195,-0.512 0,-0.707l-2,-2Zm-6,3c-0.195,-0.195 -0.512,-0.195 -0.707,0c-0.195,0.195 -0.195,0.512 0,0.707l2,2c0.098,0.097 0.226,0.146 0.354,0.146c0.128,0 0.256,-0.049 0.353,-0.146c0.195,-0.195 0.195,-0.512 0,-0.707l-2,-2Z" fill="#000"></path></svg>