<?xml version="1.0" encoding="UTF-8"?>
<svg viewBox="0 0 30 30" version="1.1" xmlns="http://www.w3.org/2000/svg" xmlns:xlink="http://www.w3.org/1999/xlink">
    <g id="Page-1" stroke="none" stroke-width="1" fill="none" fill-rule="evenodd">
        <g id="Outlines_black-Copy" transform="translate(-570.000000, -114.000000)">
            <g id="Group-3" transform="translate(3.000000, 114.000000)" fill="#000000" fill-rule="nonzero">
                <path d="M585.581951,25.8292683 L585.581951,8.64292683 C585.581951,8.3196382 585.844028,8.05756098 586.167317,8.05756098 L591.622927,8.05756098 L591.622927,4.17073171 L574.670732,4.17073171 L574.670732,8.05756098 L580.126341,8.05756098 C580.44963,8.05756098 580.711707,8.3196382 580.711707,8.64292683 L580.711707,25.8292683 L585.581951,25.8292683 Z M586.752683,26.4146341 C586.752683,26.7379228 586.490606,27 586.167317,27 L580.126341,27 C579.803053,27 579.540976,26.7379228 579.540976,26.4146341 L579.540976,9.22829268 L574.085366,9.22829268 C573.762077,9.22829268 573.5,8.96621546 573.5,8.64292683 L573.5,3.58536585 C573.5,3.26207722 573.762077,3 574.085366,3 L592.208293,3 C592.531581,3 592.793659,3.26207722 592.793659,3.58536585 L592.793659,8.64292683 C592.793659,8.96621546 592.531581,9.22829268 592.208293,9.22829268 L586.752683,9.22829268 L586.752683,26.4146341 Z" id="T-Copy-2"></path>
            </g>
            <g id="Slices" transform="translate(0.000000, 114.000000)"></g>
        </g>
    </g>
</svg>