<?xml version="1.0" encoding="utf-8"?>
<!-- Generator: Adobe Illustrator 23.0.1, SVG Export Plug-In . SVG Version: 6.00 Build 0)  -->
<svg version="1.1" id="Layer_1" xmlns="http://www.w3.org/2000/svg" xmlns:xlink="http://www.w3.org/1999/xlink" x="0px" y="0px"
	 viewBox="0 0 30 30" style="enable-background:new 0 0 30 30;" xml:space="preserve">
<path d="M8.8,29.5c-0.2,0-0.5,0-0.7-0.1c-1.3-0.2-2.4-0.9-3.1-1.9c-0.7-1-1-2.2-0.8-3.5L7.1,7c0.1-0.5,0.6-0.9,1.1-0.8l3.2,0.5
	c0.1-1.2,0.8-4.5,3.4-5.7c3-1.4,6.5-0.2,8.3,2.8c1.4,2.3,1.4,5.2,1.4,8.5c0,3.1,0,6.6,1.2,10.3c0.1,0.3-0.1,0.5-0.3,0.6
	c-0.3,0.1-0.5-0.1-0.6-0.3c-1.2-3.8-1.3-7.4-1.3-10.6c0-3.2,0-5.9-1.3-8c-1.6-2.6-4.5-3.6-7-2.4c-2.2,1-2.7,3.9-2.8,5l3.2,0.5
	c0.3,0,0.5,0.2,0.7,0.4c0.2,0.2,0.2,0.5,0.2,0.7l-3,17.1C13.1,27.8,11.1,29.5,8.8,29.5z M5.2,25.6c0.1,0.5,0.3,0.9,0.6,1.3
	c0.6,0.8,1.4,1.3,2.4,1.5c2,0.3,4-1.1,4.3-3.1l0.6-3.5L5.2,25.6z M5.9,20l-0.7,4.2c0,0.1,0,0.2,0,0.3l8.2-3.9c0,0,0,0,0,0l0.8-4.4
	L5.9,20z M6.9,14.2l-0.8,4.7l8.2-3.8l0.8-4.6L6.9,14.2z M8.1,7.2C8.1,7.2,8.1,7.2,8.1,7.2l-1,5.8l8.2-3.7l0.2-1L8.1,7.2
	C8.1,7.2,8.1,7.2,8.1,7.2z"/>
</svg>
