<svg xmlns="http://www.w3.org/2000/svg" viewBox="0 0 30 30"><path d="M15 17.5c-8.4 0-15-3.5-15-8s6.6-8 15-8 15 3.5 15 8-6.6 8-15 8zm0-15c-7.7 0-14 3.1-14 7s6.3 7 14 7 14-3.1 14-7-6.3-7-14-7z"/><path d="M25 27a.55.55 0 0 1-.5-.3c-.1-.3 0-.5.3-.7 2.7-1.2 4.2-3.1 4.2-5.3V9.5a.47.47 0 0 1 .5-.5.47.47 0 0 1 .5.5v11.3c0 2.6-1.7 4.8-4.8 6.2H25zm-10.6 1.5C6.3 28.3 0 24.8 0 20.5v-11A.47.47 0 0 1 .5 9a.47.47 0 0 1 .5.5v11c0 3.7 6 6.8 13.4 7a.47.47 0 0 1 .5.5c0 .3-.3.5-.5.5z"/><path d="M25.5 28.5H14.4a.47.47 0 0 1-.5-.5.47.47 0 0 1 .5-.5h10.4s-.1-.1-.1-.2c-.3-.2-.7-.6-.7-1.3s.4-1.1.6-1.3c.2-.3.4-.4.4-.7 0-.2 0-.2-.2-.3-.3-.2-.8-.4-.8-1.2s.5-1 .8-1.2c.2-.1.2-.1.2-.3 0-.3-.1-.4-.4-.7-.2-.2-.6-.6-.6-1.3s.4-1.1.6-1.3c.1-.1.1-.1.1-.2H14.4a.47.47 0 0 1-.5-.5.47.47 0 0 1 .5-.5h11.1a.47.47 0 0 1 .5.5c0 .7-.4 1.1-.6 1.3-.3.3-.4.4-.4.7s.1.4.4.7.6.7.6 1.3c0 .8-.5 1-.8 1.2-.2.1-.2.1-.2.3s0 .2.2.3c.3.2.8.4.8 1.2 0 .7-.4 1.1-.6 1.3-.3.3-.4.4-.4.7s.1.4.4.7.6.7.6 1.3a.47.47 0 0 1-.5.5zM15 12.5c-3.4 0-6-1.3-6-3s2.6-3 6-3 6 1.3 6 3-2.6 3-6 3zm0-5c-2.9 0-5 1.1-5 2s2.1 2 5 2 5-1.1 5-2-2.1-2-5-2z"/></svg>