<?xml version="1.0" encoding="UTF-8"?><svg version="1.1" viewBox="0 0 30 30" xmlns="http://www.w3.org/2000/svg" xmlns:xlink="http://www.w3.org/1999/xlink"><path d="M16.5,25.501c-0.276,0 -0.5,0.224 -0.5,0.5c0,0.276 0.224,0.5 0.5,0.5c0.276,0 0.5,-0.224 0.5,-0.5c0,-0.276 -0.223,-0.5 -0.5,-0.5Zm3.112,-10.417c-0.625,-0.219 -1.395,0.004 -1.96,0.568c-0.564,0.564 -0.787,1.334 -0.568,1.96c0.05,0.144 0.163,0.257 0.307,0.307c0.159,0.056 0.328,0.083 0.501,0.083c0.504,0 1.038,-0.231 1.459,-0.651c0.564,-0.564 0.787,-1.334 0.568,-1.96c-0.05,-0.144 -0.164,-0.257 -0.307,-0.307Zm-0.969,1.559c-0.21,0.21 -0.439,0.317 -0.632,0.348c0.031,-0.193 0.138,-0.422 0.348,-0.632c0.21,-0.21 0.439,-0.317 0.632,-0.348c-0.032,0.193 -0.139,0.422 -0.348,0.632Zm-5.143,8.858c-0.276,0 -0.5,0.224 -0.5,0.5c0,0.276 0.224,0.5 0.5,0.5c0.276,0 0.5,-0.224 0.5,-0.5c0,-0.276 -0.223,-0.5 -0.5,-0.5Zm14.213,-23.413c-0.296,-0.297 -0.576,-0.577 -0.815,-0.891c-0.152,-0.2 -0.427,-0.257 -0.645,-0.132c-0.217,0.124 -0.31,0.39 -0.216,0.622c1.756,4.341 0.596,6.16 0.215,6.378c-0.713,0.408 -2.89,0.575 -4.48,0.698c-0.849,0.065 -1.598,0.123 -2.138,0.206c-1.671,-1.259 -3.249,-1.268 -4.704,-0.058c-0.182,-0.088 -0.368,-0.175 -0.535,-0.263c-1.139,-0.599 -2.219,-1.165 -4.04,0.321c-0.54,-0.082 -1.284,-0.139 -2.126,-0.204c-1.589,-0.122 -3.766,-0.29 -4.48,-0.698c-0.584,-0.334 -1.29,-2.102 0.224,-6.4c0.079,-0.225 -0.011,-0.475 -0.217,-0.596c-0.206,-0.122 -0.469,-0.082 -0.628,0.097c-0.215,0.24 -0.447,0.46 -0.682,0.684c-1.147,1.093 -2.446,2.331 -2.446,5.928c0,5.093 3.781,7.045 7.495,7.205c0.026,1.719 0.717,3.537 1.395,5.301c0.531,1.384 1.033,2.691 1.202,3.889c0.097,0.692 0.539,1.179 0.911,1.539c-0.002,0.103 -0.003,0.2 -0.003,0.287c0,1.738 1.682,3 4,3c2.318,0 4,-1.262 4,-3c0,-0.087 -0.001,-0.185 -0.003,-0.287c0.362,-0.35 0.812,-0.839 0.911,-1.54c0.169,-1.198 0.671,-2.505 1.202,-3.889c0.677,-1.764 1.369,-3.581 1.395,-5.3c3.715,-0.16 7.495,-2.112 7.495,-7.206c0,-3.401 -1.216,-4.618 -2.287,-5.691Zm-19.871,11.911c-1.793,-0.028 -6.842,-0.61 -6.842,-6.218c0,-2.46 0.654,-3.634 1.438,-4.504c-1.045,4.183 0.317,5.375 0.814,5.659c0.909,0.52 3.029,0.683 4.9,0.827c0.611,0.047 1.188,0.093 1.657,0.146c-0.179,0.481 -0.338,0.954 -0.472,1.384c-0.39,1.254 -0.712,2.241 -1.495,2.706Zm7.158,14.002c-1.71,0 -3,-0.86 -3,-2c0,-1.265 0.224,-1.855 1.531,-2.001c0.08,0.001 0.214,0.032 0.373,0.064c0.324,0.065 0.727,0.146 1.097,0.146c0.448,0 0.865,-0.089 1.17,-0.154c0.128,-0.028 0.231,-0.054 0.274,-0.058c1.331,0.148 1.555,0.738 1.555,2.003c0,1.14 -1.289,2 -3,2Zm5.177,-8.074c-0.528,1.375 -1.074,2.797 -1.259,4.108c-0.02,0.141 -0.08,0.272 -0.154,0.397c-0.277,-0.669 -0.881,-1.281 -2.209,-1.428c-0.168,-0.018 -0.345,0.02 -0.594,0.074c-0.274,0.059 -0.617,0.132 -0.961,0.132c-0.271,0 -0.62,-0.07 -0.9,-0.126c-0.295,-0.059 -0.492,-0.097 -0.655,-0.08c-1.329,0.148 -1.933,0.76 -2.21,1.429c-0.073,-0.126 -0.133,-0.256 -0.153,-0.397c-0.184,-1.311 -0.731,-2.733 -1.259,-4.108c-0.674,-1.754 -1.36,-3.563 -1.326,-5.155c1.005,-0.682 1.393,-1.896 1.795,-3.182c0.181,-0.581 0.374,-1.182 0.626,-1.784c1.348,-1.134 1.95,-0.831 3.012,-0.273c0.272,0.142 0.558,0.292 0.873,0.427c0.19,0.083 0.405,0.035 0.546,-0.103c1.488,-1.407 2.719,-0.837 3.736,-0.045c0.251,0.6 0.443,1.199 0.624,1.778c0.401,1.286 0.79,2.5 1.794,3.182c0.035,1.591 -0.652,3.4 -1.326,5.154Zm1.982,-5.929c-0.782,-0.467 -1.104,-1.453 -1.494,-2.705c-0.134,-0.431 -0.294,-0.905 -0.473,-1.386c0.469,-0.053 1.046,-0.099 1.657,-0.146c1.871,-0.144 3.991,-0.307 4.9,-0.827c0.625,-0.357 1.776,-1.962 0.937,-5.421c0.718,0.846 1.314,1.977 1.314,4.267c0,5.608 -5.048,6.19 -6.841,6.218Zm-11.768,1.085c-0.144,0.05 -0.257,0.163 -0.307,0.307c-0.22,0.626 0.004,1.396 0.568,1.96c0.42,0.421 0.954,0.652 1.458,0.652c0.173,0 0.342,-0.027 0.502,-0.084c0.144,-0.05 0.257,-0.163 0.307,-0.307c0.22,-0.626 -0.004,-1.396 -0.568,-1.96c-0.565,-0.564 -1.335,-0.786 -1.96,-0.568Zm0.968,1.56c-0.21,-0.21 -0.317,-0.439 -0.348,-0.632c0.193,0.031 0.422,0.138 0.632,0.348c0.21,0.21 0.317,0.439 0.348,0.632c-0.194,-0.031 -0.423,-0.138 -0.632,-0.348Z" fill="#000"></path></svg>