<?xml version="1.0" encoding="UTF-8"?><svg version="1.1" viewBox="0 0 30 30" xmlns="http://www.w3.org/2000/svg" xmlns:xlink="http://www.w3.org/1999/xlink"><g fill="#000"><path d="M8,6c-0.2,0 -0.3,-0.1 -0.4,-0.2c-0.2,-0.3 -0.1,-0.6 0.1,-0.7c0.6,-0.4 0.5,-0.8 -0.1,-1.9c-0.5,-0.9 -1.3,-2.2 0.1,-3.1c0.3,-0.2 0.6,-0.1 0.7,0.1c0.2,0.2 0.1,0.5 -0.1,0.7c-0.6,0.4 -0.5,0.7 0.1,1.8c0.6,0.9 1.4,2.2 -0.1,3.2c-0.1,0.1 -0.2,0.1 -0.3,0.1Z"></path><path d="M13,6c-0.2,0 -0.3,-0.1 -0.4,-0.2c-0.2,-0.2 -0.1,-0.5 0.1,-0.7c0.6,-0.4 0.5,-0.8 -0.1,-1.9c-0.5,-0.9 -1.3,-2.2 0.1,-3.1c0.3,-0.2 0.6,-0.1 0.7,0.1c0.2,0.2 0.1,0.5 -0.1,0.7c-0.6,0.4 -0.5,0.7 0.2,1.8c0.5,0.9 1.3,2.2 -0.2,3.2c-0.1,0.1 -0.2,0.1 -0.3,0.1Z"></path><path d="M18,6c-0.2,0 -0.3,-0.1 -0.4,-0.2c-0.2,-0.2 -0.1,-0.5 0.1,-0.7c0.6,-0.4 0.5,-0.8 -0.1,-1.9c-0.5,-0.9 -1.3,-2.2 0.1,-3.1c0.2,-0.2 0.5,-0.1 0.7,0.1c0.2,0.2 0.1,0.5 -0.1,0.7c-0.6,0.4 -0.5,0.7 0.2,1.8c0.5,0.9 1.3,2.2 -0.2,3.2c-0.1,0.1 -0.2,0.1 -0.3,0.1Z"></path><path d="M18,30h-10.2c-2.3,0 -4.3,-1.9 -4.3,-4.3v-18.2c0,-0.3 0.2,-0.5 0.5,-0.5h18c0.3,0 0.5,0.2 0.5,0.5v18c0,2.4 -2.1,4.5 -4.5,4.5Zm-13.5,-22v17.8c0,1.7 1.5,3.2 3.3,3.2h10.2c1.8,0 3.5,-1.7 3.5,-3.5v-17.5h-17Z"></path><path d="M23.5,21h-1.5c-0.3,0 -0.5,-0.2 -0.5,-0.5c0,-0.3 0.2,-0.5 0.5,-0.5h1.5c0.6,0 2,-0.1 2,-1.5v-4.5c0,-0.6 -0.1,-2 -1.5,-2h-2c-0.3,0 -0.5,-0.2 -0.5,-0.5c0,-0.3 0.2,-0.5 0.5,-0.5h2c1.5,0 2.5,1.2 2.5,3v4.5c0,1.5 -1.2,2.5 -3,2.5Z"></path><path d="M9,15c-0.3,0 -0.5,-0.2 -0.5,-0.5v-7c0,-0.3 0.2,-0.5 0.5,-0.5c0.3,0 0.5,0.2 0.5,0.5v7c0,0.3 -0.2,0.5 -0.5,0.5Z"></path><path d="M11,20h-4c-0.3,0 -0.5,-0.2 -0.5,-0.5v-4c0,-0.1 0.1,-0.3 0.1,-0.4l1,-1c0.1,0 0.3,-0.1 0.4,-0.1h2c0.1,0 0.3,0.1 0.4,0.1l1,1c0.1,0.1 0.1,0.2 0.1,0.4v4c0,0.3 -0.2,0.5 -0.5,0.5Zm-3.5,-1h3v-3.3l-0.7,-0.7h-1.6l-0.7,0.7v3.3Z"></path></g></svg>