<svg xmlns="http://www.w3.org/2000/svg" viewBox="0 0 30 30"><path d="M10.5 30C4.7 30 0 25.3 0 19.5S4.7 9 10.5 9 21 13.7 21 19.5 16.3 30 10.5 30zm0-20C5.262 10 1 14.262 1 19.5S5.262 29 10.5 29s9.5-4.262 9.5-9.5-4.262-9.5-9.5-9.5z"/><path d="M10.5 20c-.1 0-10-.054-10-2a.5.5 0 0 1 .979-.143C2.006 18.273 5.418 19 10.5 19s8.494-.727 9.02-1.143A.5.5 0 0 1 20.5 18c0 1.946-9.9 2-10 2z"/><circle cx="10.5" cy="14.5" r=".5"/><circle cx="10.5" cy="11.5" r=".5"/><circle cx="10.5" cy="17.5" r=".5"/><circle cx="13.5" cy="14.5" r=".5"/><circle cx="7.5" cy="14.5" r=".5"/><circle transform="matrix(.7071 -.7071 .7071 .7071 -5.1777 12.5)" cx="12.5" cy="12.5" r=".5"/><circle transform="matrix(.7071 -.7071 .7071 .7071 -9.1777 10.8431)" cx="8.5" cy="16.5" r=".5"/><circle transform="matrix(.7071 -.7071 .7071 .7071 -8.0061 13.6716)" cx="12.5" cy="16.5" r=".5"/><circle transform="matrix(.7071 -.7071 .7071 .7071 -6.3492 9.6716)" cx="8.5" cy="12.5" r=".5"/><circle cx="10.5" cy="24.5" r=".5"/><circle cx="10.5" cy="21.5" r=".5"/><circle cx="10.5" cy="27.5" r=".5"/><circle cx="13.5" cy="24.5" r=".5"/><circle cx="7.5" cy="24.5" r=".5"/><circle transform="matrix(.7071 -.7071 .7071 .7071 -12.2487 15.4289)" cx="12.5" cy="22.5" r=".5"/><circle transform="matrix(.7071 -.7071 .7071 .7071 -16.2487 13.7721)" cx="8.5" cy="26.5" r=".5"/><circle transform="matrix(.7071 -.7071 .7071 .7071 -15.0772 16.6005)" cx="12.5" cy="26.5" r=".5"/><circle transform="matrix(.7071 -.7071 .7071 .7071 -13.4203 12.6005)" cx="8.5" cy="22.5" r=".5"/><path d="M25.5 30c-2.48 0-4.5-2.02-4.5-4.5s2.02-4.5 4.5-4.5 4.5 2.02 4.5 4.5-2.02 4.5-4.5 4.5zm0-8c-1.93 0-3.5 1.57-3.5 3.5s1.57 3.5 3.5 3.5 3.5-1.57 3.5-3.5-1.57-3.5-3.5-3.5z"/><path d="M25.5 22a.5.5 0 0 1-.5-.5V8a7.01 7.01 0 0 0-7-7 7.01 7.01 0 0 0-7 7v1.5a.5.5 0 1 1-1 0V8a8.01 8.01 0 0 1 8-8 8.01 8.01 0 0 1 8 8v13.5a.5.5 0 0 1-.5.5z"/></svg>