<svg xmlns="http://www.w3.org/2000/svg" viewBox="0 0 30 30"><path d="M15 30A14.98 14.98 0 0 1 0 15 14.98 14.98 0 0 1 15 0a14.98 14.98 0 0 1 15 15 14.98 14.98 0 0 1-15 15zm0-29C7.3 1 1 7.3 1 15s6.3 14 14 14 14-6.3 14-14S22.7 1 15 1zm0 23c-3.1 0-5.9-1.6-7.6-4.1-.1-.2-.1-.5.2-.7.2-.2.5-.1.7.2 1.5 2.3 4 3.7 6.7 3.7 2.8 0 5.3-1.4 6.8-3.7.1-.2.5-.3.7-.2s.3.5.2.7C21 22.4 18.1 24 15 24zM9.5 12A1.54 1.54 0 0 1 8 10.5 1.54 1.54 0 0 1 9.5 9a1.54 1.54 0 0 1 1.5 1.5A1.54 1.54 0 0 1 9.5 12zm0-2a.47.47 0 0 0-.5.5.47.47 0 0 0 .5.5.47.47 0 0 0 .5-.5.47.47 0 0 0-.5-.5zm11 2a1.54 1.54 0 0 1-1.5-1.5A1.54 1.54 0 0 1 20.5 9a1.54 1.54 0 0 1 1.5 1.5 1.54 1.54 0 0 1-1.5 1.5zm0-2a.47.47 0 0 0-.5.5.47.47 0 0 0 .5.5.47.47 0 0 0 .5-.5.47.47 0 0 0-.5-.5z"/><path d="M18 28c-1.7 0-3-1.3-3-3v-1.5a.47.47 0 0 1 .5-.5.47.47 0 0 1 .5.5V25c0 1.1.9 2 2 2s2-.9 2-2v-3.5a.47.47 0 0 1 .5-.5.47.47 0 0 1 .5.5V25c0 1.7-1.3 3-3 3z"/></svg>