<svg xmlns="http://www.w3.org/2000/svg" viewBox="0 0 30 30"><path d="M13.5 5.5C7.9 5.5 2 3.9 2 1a.47.47 0 0 1 .5-.5h22a.47.47 0 0 1 .5.5c0 2.9-5.9 4.5-11.5 4.5zm-10.4-4c.8 1.5 4.8 3 10.4 3s9.6-1.5 10.4-3H3.1zm22.4 28h-23A.47.47 0 0 1 2 29c0-2.9 6.2-4.5 12-4.5s12 1.6 12 4.5a.47.47 0 0 1-.5.5zm-22.4-1h21.7c-.8-1.5-5-3-10.9-3s-10 1.5-10.8 3z"/><path d="M19.8 25.5h-.4a.47.47 0 0 1-.5-.5.47.47 0 0 1 .5-.5h.2c1.5 0 3.4 0 4.9-.6C26.2 23.3 27 22 27 20c0-2.2-.8-3.3-1.7-4.7C24.2 13.7 23 11.9 23 8a.47.47 0 0 1 .5-.5.47.47 0 0 1 .5.5c0 3.6 1.1 5.2 2.2 6.8 1 1.4 1.8 2.7 1.8 5.2 0 2.4-1 4-3.1 4.8-1.6.7-3.5.7-5.1.7zM7.5 26a.47.47 0 0 1-.5-.5v-21a.47.47 0 0 1 .5-.5.47.47 0 0 1 .5.5v21a.47.47 0 0 1-.5.5z"/><path d="M19.5 26a.47.47 0 0 1-.5-.5v-21a.47.47 0 0 1 .5-.5.47.47 0 0 1 .5.5v21a.47.47 0 0 1-.5.5z"/><path d="M21 7.5H6.5A.47.47 0 0 1 6 7a.47.47 0 0 1 .5-.5H21a.47.47 0 0 1 .5.5.47.47 0 0 1-.5.5zm-.5 3h-14A.47.47 0 0 1 6 10a.47.47 0 0 1 .5-.5h14a.47.47 0 0 1 .5.5.47.47 0 0 1-.5.5zm0 3h-14A.47.47 0 0 1 6 13a.47.47 0 0 1 .5-.5h14a.47.47 0 0 1 .5.5.47.47 0 0 1-.5.5zm0 3h-14A.47.47 0 0 1 6 16a.47.47 0 0 1 .5-.5h14a.47.47 0 0 1 .5.5.47.47 0 0 1-.5.5zm.5 3H6.5A.47.47 0 0 1 6 19a.47.47 0 0 1 .5-.5H21a.47.47 0 0 1 .5.5.47.47 0 0 1-.5.5zm-.5 3h-14A.47.47 0 0 1 6 22a.47.47 0 0 1 .5-.5h14a.47.47 0 0 1 .5.5.47.47 0 0 1-.5.5z"/></svg>