<svg xmlns="http://www.w3.org/2000/svg" viewBox="0 0 30 30"><path d="M21.3 28.7l-1-.1c.1-.8-.1-1.5-.5-2-.7-.9-2.1-.9-2.1-.9v-1c.1 0 1.8 0 2.9 1.2.6.7.9 1.7.7 2.8z"/><path d="M4.7 29.7c-1.2 0-2.1-.3-2.6-.7-.4-.4-.6-.9-.6-1.5 0-1.9 2.2-2.6 4.6-3.1 1.3-.3 1.9-1.5 1.8-3.7 0-1.5-.3-13-.3-13V.9a.68.68 0 0 1 .7-.7h13.3a.68.68 0 0 1 .7.7v6.8c0 .1-.3 11.7-.3 13.2 0 .5.1 3.1 1.8 3.5 2.4.5 4.6 1.3 4.6 3.1 0 .6-.2 1.1-.6 1.5-.7.6-1.9.9-3.5.7l-.9-.1c-2.7-.2-4.5-.4-5-.9-1.2-1-1.1-4-1.1-4.4V10.6h-4.5v13.8c0 .3 0 3.3-1.1 4.4-.6.5-2.4.7-5 .9l-.9.1c-.5-.1-.8-.1-1.1-.1zM8.6 7.6l.3 13c.1 3.4-1.4 4.5-2.6 4.7-2.7.6-3.8 1.2-3.8 2.1 0 .3.1.5.3.7.4.4 1.4.6 2.8.4l.9-.1c1.4-.1 4.1-.3 4.4-.6.6-.5.8-2.5.8-3.6V9.6h6.5v14.8c0 1.1.2 3.1.8 3.6.4.3 3 .5 4.4.6l.9.1c1.3.1 2.3 0 2.8-.4.2-.2.3-.4.3-.7 0-.9-1.1-1.6-3.8-2.1-1.9-.4-2.6-2.6-2.6-4.5 0-1.4.3-11.2.3-13V1.2H8.6v6.4z"/><path d="M12.2 25.3s-3.5.1-3.1 3.4" fill="#fff"/><path d="M8.6 28.7c-.1-1.1.1-2 .7-2.7 1-1.2 2.8-1.2 2.9-1.2v1s-1.4 0-2.1.9c-.4.5-.6 1.1-.5 1.9l-1 .1zm-.1-26h13.1v1H8.5z"/><path d="M14.5 3.3h1v6.8h-1z"/></svg>