<?xml version="1.0" encoding="UTF-8"?><svg version="1.1" viewBox="0 0 30 30" xmlns="http://www.w3.org/2000/svg" xmlns:xlink="http://www.w3.org/1999/xlink"><g fill="#000"><path d="M14.5,26c-0.1,0 -0.3,0 -0.4,-0.1l-10,-10c-0.2,-0.2 -0.2,-0.5 0,-0.7c0.2,-0.2 0.5,-0.2 0.7,0l9.7,9.7l6.2,-4.7c0.1,-0.2 0.2,-0.2 0.3,-0.2h2.5c1.8,0 4.5,-1.8 4.5,-5.8c0,-3.8 -1.4,-7.4 -3.9,-9.9c-2.1,-2 -5.9,-3.3 -10.3,-3.3c-4,0 -5.8,2.7 -5.8,4.5v2.5c0,0.1 0,0.2 -0.1,0.3l-6,6.5c-0.2,0.2 -0.5,0.2 -0.7,0c-0.2,-0.2 -0.2,-0.5 0,-0.7l5.8,-6.3v-2.3c0,-2.2 2.1,-5.5 6.8,-5.5c4.7,0 8.8,1.3 11.1,3.6c2.6,2.6 4.1,6.5 4.1,10.6c0,4.6 -3.3,6.8 -5.5,6.8h-2.3l-6.4,4.9c-0.1,0.1 -0.2,0.1 -0.3,0.1Z"></path><path d="M15.8536,5.14645c0.195262,0.195262 0.195262,0.511845 0,0.707107c-0.195262,0.195262 -0.511845,0.195262 -0.707107,0c-0.195262,-0.195262 -0.195262,-0.511845 0,-0.707107c0.195262,-0.195262 0.511845,-0.195262 0.707107,0"></path><path d="M12.8536,9.14645c0.195262,0.195262 0.195262,0.511845 0,0.707107c-0.195262,0.195262 -0.511845,0.195262 -0.707107,0c-0.195262,-0.195262 -0.195262,-0.511845 0,-0.707107c0.195262,-0.195262 0.511845,-0.195262 0.707107,0"></path><path d="M17.8536,10.1464c0.195262,0.195262 0.195262,0.511845 0,0.707107c-0.195262,0.195262 -0.511845,0.195262 -0.707107,0c-0.195262,-0.195262 -0.195262,-0.511845 0,-0.707107c0.195262,-0.195262 0.511845,-0.195262 0.707107,0"></path><path d="M14.5,30c-0.1,0 -0.3,0 -0.4,-0.1l-13,-13c4.44089e-16,-0.1 -0.1,-0.3 -0.1,-0.4v-2c0,-0.3 0.2,-0.5 0.5,-0.5c0.3,0 0.5,0.2 0.5,0.5v1.8l12.5,12.5l6.8,-5.7c0.1,-0.1 0.2,-0.1 0.3,-0.1c3.2,0 6.4,-0.5 6.4,-4.5l0.9,-3.6c-0.2,0.4 -0.9,0.3 -0.9,-0.2c0,-0.3 0.2,-0.5 0.5,-0.5c0.3,0 0.5,0.2 0.5,0.5v3.8c0,5.3 -5.1,5.5 -7.2,5.5l-7,5.9c-0.1,0.1 -0.2,0.1 -0.3,0.1Z"></path></g></svg>