<svg xmlns="http://www.w3.org/2000/svg" viewBox="0 0 30 30"><path d="M21.6 28.2c-.1 0-4.9-.5-6.8-.5s-6 .5-6.1.5c-.7 0-1.1-.5-1.1-1.1V1.6A1.11 1.11 0 0 1 8.7.5c.1 0 4-.3 6-.3s6.8.3 7 .4c.6 0 1 .5 1 1.1v25.5c0 .5-.5 1-1.1 1zm-6.8-1.5c2 0 6.7.5 6.9.5V1.6s0-.1-.1-.1-5-.3-7-.3l-6 .3c-.1 0-.1 0-.1.1v25.5s0 .1.1.1 4.2-.5 6.2-.5z"/><path d="M15.7 29.7h-.2l-7.2-1.6.2-1 7 1.5.2-1.4 1 .1-.2 1.6c0 .2-.2.4-.3.6-.2.2-.3.2-.5.2zm.1-1zm3.1-3.4h-7.5a1.11 1.11 0 0 1-1.1-1.1v-7.4a1.11 1.11 0 0 1 1.1-1.1h7.5a1.11 1.11 0 0 1 1.1 1.1v7.4a1.11 1.11 0 0 1-1.1 1.1zm-7.5-8.5l-.1 7.4 7.6.1s.1 0 .1-.1v-7.4h-7.6zm.4-3.3c-.2 0-.4-.1-.6-.2-.3-.2-.5-.5-.5-.9 0-1.9.7-8.1 7.5-9 .6-.1 1.1.3 1.2.9.3 1.4.6 6.4-7.3 9.2h-.3zm6.6-9.1c-5.9.9-6.7 5.9-6.7 8.1v.1c7.1-2.6 7.1-6.6 6.7-8.2z"/><path d="M11.7 13.4h-.2c-.3-.1-.4-.4-.3-.6 1.1-3.2 6.5-9 6.7-9.2s.5-.2.7 0 .2.5 0 .7c-.1.1-5.5 5.9-6.5 8.9 0 .1-.2.2-.4.2z"/><path d="M17.2 9.9h-3.5a.47.47 0 0 1-.5-.5.47.47 0 0 1 .5-.5h3.5a.47.47 0 0 1 .5.5.47.47 0 0 1-.5.5z"/><path d="M13.7 9.9a.47.47 0 0 1-.5-.5L13 6.3a.47.47 0 0 1 .5-.5.47.47 0 0 1 .5.5l.3 3.1c-.1.2-.3.4-.6.5zm1.6-2.3a.47.47 0 0 1-.5-.5l.1-2.1a.47.47 0 0 1 .5-.5.47.47 0 0 1 .5.5l-.1 2.1a.47.47 0 0 1-.5.5z"/><path d="M18.6 7.8l-3.3-.1a.47.47 0 0 1-.5-.5.47.47 0 0 1 .5-.5l3.3.1a.47.47 0 0 1 .5.5.47.47 0 0 1-.5.5z"/></svg>