<svg id="Layer_1" data-name="Layer 1" xmlns="http://www.w3.org/2000/svg" viewBox="0 0 30 30"><title>Zeichenfläche 1</title><path d="M22,22.8h0L2.71,22.22A.77.77,0,0,1,2,21.43l.11-7a.77.77,0,0,1,.75-.77l19.05-.29h0a.76.76,0,0,1,.77.76c.08,4.42.12,7,.12,7.88a.73.73,0,0,1-.24.54A.77.77,0,0,1,22,22.8ZM21.77,22h0ZM3,21.23l18.81.57c0-1,0-3.5-.12-7.4l-18.59.29Zm-.39-6.76h0Z"/><path d="M2.88,14.74,2.25,14,8.63,8.85a.75.75,0,0,1,.47-.17l17.39-.11A.77.77,0,0,1,27,9.92l-4.8,4.35-.67-.74,4.37-4L9.19,9.68Z"/><path d="M22,22.8a.52.52,0,0,1-.42-.22.5.5,0,0,1,.14-.69l4.7-3.11a.6.6,0,0,0,.28-.54l-.34-9.11a.5.5,0,0,1,.49-.52.47.47,0,0,1,.51.48l.34,9.1A1.61,1.61,0,0,1,27,19.62l-4.7,3.1A.45.45,0,0,1,22,22.8Z"/><path d="M7.91,17.67l-.11,0L5,17a.5.5,0,1,1,.23-1L8,16.68a.5.5,0,0,1,.37.6A.51.51,0,0,1,7.91,17.67Z"/><path d="M12.66,18a.5.5,0,0,1-.13-1l1.83-.49a.49.49,0,0,1,.61.35.48.48,0,0,1-.35.61l-1.83.5Z"/><path d="M19.1,19a.5.5,0,0,1-.48-.37l-.31-1.12a.49.49,0,0,1,.34-.61.5.5,0,0,1,.62.34l.31,1.12a.5.5,0,0,1-.34.62Z"/><path d="M15.52,20.35a.57.57,0,0,1-.18,0L14,19.78a.5.5,0,0,1,.36-.93l1.39.53a.5.5,0,0,1-.18,1Z"/><path d="M7.19,20.48a.5.5,0,0,1-.1-1L9.33,19a.5.5,0,0,1,.21,1l-2.24.49Z"/><path d="M5.38,18.17a.49.49,0,0,1-.3-.1.5.5,0,0,1-.09-.7l.47-.61a.5.5,0,1,1,.79.61L5.78,18A.53.53,0,0,1,5.38,18.17Z"/><path d="M9.65,19.93a.59.59,0,0,1-.25-.07.5.5,0,0,1-.17-.69L9.35,19a.51.51,0,0,1,.69-.18.5.5,0,0,1,.17.69l-.13.21A.5.5,0,0,1,9.65,19.93Z"/><path d="M10.73,17.7a.5.5,0,0,1-.43-.24l-.43-.68a.51.51,0,0,1,.16-.69.49.49,0,0,1,.69.16l.43.68a.51.51,0,0,1-.42.77Z"/><path d="M16.17,17.66h0l-1.68-.12A.5.5,0,0,1,14,17a.5.5,0,0,1,.54-.46l1.68.13a.5.5,0,0,1,0,1Z"/><path d="M19,17.83a.5.5,0,0,1-.27-.08.51.51,0,0,1-.15-.7l.47-.72a.49.49,0,0,1,.69-.15.5.5,0,0,1,.15.69l-.47.73A.51.51,0,0,1,19,17.83Z"/><path d="M20.33,21H18.61a.51.51,0,0,1-.5-.5.5.5,0,0,1,.5-.5h1.72a.5.5,0,0,1,.5.5A.51.51,0,0,1,20.33,21Z"/><path d="M12.65,20.91a.5.5,0,0,1-.49-.43.5.5,0,0,1,.42-.56l2.7-.39a.51.51,0,0,1,.57.43.5.5,0,0,1-.42.56l-2.7.39Z"/><path d="M4.77,19.93a.5.5,0,0,1-.5-.5v-.3a.5.5,0,0,1,1,0v.3A.5.5,0,0,1,4.77,19.93Z"/><path d="M17.88,16.37h-.42a.5.5,0,1,1,0-1h.42a.5.5,0,0,1,0,1Z"/><path d="M12.14,16.07a.5.5,0,0,1-.5-.5V15.4a.5.5,0,1,1,1,0v.17A.5.5,0,0,1,12.14,16.07Z"/></svg>