<?xml version="1.0" encoding="UTF-8"?><svg version="1.1" viewBox="0 0 30 30" xmlns="http://www.w3.org/2000/svg" xmlns:xlink="http://www.w3.org/1999/xlink"><g fill="#000"><path d="M21,30c-0.1,0 -0.3,-0.1 -0.4,-0.1c-0.1,-0.1 -0.1,-0.2 -0.1,-0.4v-19c0,-0.3 0.2,-0.5 0.5,-0.5c2.3,0 5.5,-0.5 5.5,-1.5c0,-0.1 0,-0.1 -0.1,-0.2c-1,-0.9 -5.9,-0.4 -9.1,-0.1c-1.6,0.2 -2.9,0.3 -3.8,0.3c-0.3,-1.77636e-15 -0.5,-0.2 -0.5,-0.5c0,-0.3 0.2,-0.5 0.5,-0.5c0.8,0 2.2,-0.1 3.7,-0.3c4.8,-0.5 8.6,-0.8 9.8,0.3c0.3,0.3 0.4,0.6 0.4,0.9v19c0.1,2.5 -5.3,2.6 -6.4,2.6c0,0 0,0 0,0Zm0.5,-19v18c2.2,-0.1 5,-0.6 5,-1.5v-17.5c-1.4,0.8 -3.8,1 -5,1Z"></path><path d="M13.5,26c-4.4,0 -11,-0.9 -11,-3.5v-18c0,-2.7 5.7,-4.5 11,-4.5c5.3,0 11,1.8 11,4.5v2.5c0,0.3 -0.2,0.5 -0.5,0.5c-0.3,0 -0.5,-0.2 -0.5,-0.5v-2.5c0,-1.6 -4.5,-3.5 -10,-3.5c-5.5,0 -10,1.9 -10,3.5v18c0,1 3.9,2.5 10,2.5c2.8,0 5.5,-0.4 7.3,-1c0.3,-0.1 0.5,0 0.6,0.3c0.1,0.3 0,0.5 -0.3,0.6c-1.9,0.7 -4.7,1.1 -7.6,1.1Z"></path><path d="M13.5,8.5c-3.6,0 -6.6,-1.1 -7.7,-1.5c-0.2,-0.1 -0.4,-0.4 -0.3,-0.7c0.1,-0.2 0.4,-0.4 0.7,-0.3c1.1,0.4 3.9,1.5 7.3,1.5c3.4,0 6.2,-1 7.3,-1.5c0.3,-0.1 0.5,0 0.7,0.3c0.1,0.3 0,0.5 -0.3,0.7c-1.1,0.4 -4.1,1.5 -7.7,1.5Z"></path><path d="M13.5,6c-1.4,0 -3,-0.5 -3,-1.5c0,-1 1.6,-1.5 3,-1.5c1.4,0 3,0.5 3,1.5c0,1 -1.6,1.5 -3,1.5Zm0,-2c-1.2,0 -1.9,0.4 -2,0.5c0.1,0.1 0.8,0.5 2,0.5c1.2,0 1.9,-0.3 2,-0.5c-0.1,-0.2 -0.8,-0.5 -2,-0.5Z"></path></g></svg>