<?xml version="1.0" encoding="utf-8"?>
<!-- Generator: Adobe Illustrator 23.0.1, SVG Export Plug-In . SVG Version: 6.00 Build 0)  -->
<svg version="1.1" id="Layer_1" xmlns="http://www.w3.org/2000/svg" xmlns:xlink="http://www.w3.org/1999/xlink" x="0px" y="0px"
	 viewBox="0 0 30 30" style="enable-background:new 0 0 30 30;" xml:space="preserve">
<g>
	<path d="M4.5,28c-0.7-0.6-0.8-1.6-0.2-2.2l3-3.7c0.6-0.7,1.6-0.8,2.2-0.2s0.8,1.6,0.2,2.2l-3,3.7C6.2,28.4,5.2,28.5,4.5,28z
		 M8.9,22.5c-0.3-0.2-0.6-0.2-0.8,0.1l-3,3.7c-0.2,0.3-0.2,0.6,0.1,0.8c0.3,0.2,0.6,0.2,0.8-0.1l3-3.7C9.2,23.1,9.2,22.7,8.9,22.5z"
		/>
	<rect x="5.4" y="14.1" transform="matrix(0.6296 -0.7769 0.7769 0.6296 -5.6717 17.3102)" width="19.9" height="1"/>
	<g>
		<path d="M26.1,4.3C26,4.1,25.6,4,25.4,4.2l-2.1,1.4l1.6-1.9c0.2-0.2,0.1-0.5-0.1-0.7c-0.2-0.2-0.5-0.1-0.7,0.1l-1.6,1.9l0.9-2.3
			c0.1-0.3,0-0.5-0.3-0.6c-0.3-0.1-0.5,0-0.6,0.3l-2.1,5.3c0,0,0,0,0,0c0,0.1,0,0.2,0,0.3c0,0,0,0,0,0.1c0,0.1,0.1,0.2,0.2,0.2
			c0,0,0.1,0.1,0.1,0.1c0,0,0,0,0,0c0.1,0,0.2,0,0.3,0c0,0,0,0,0,0c0.1,0,0.2-0.1,0.2-0.1c0,0,0,0,0,0L26,5
			C26.2,4.9,26.3,4.6,26.1,4.3z"/>
		<path d="M26.6,6.2c-0.1-0.3-0.4-0.4-0.6-0.3l-4.7,1.3l0.3-4.8c0-0.3-0.2-0.5-0.5-0.5c-0.3,0-0.5,0.2-0.5,0.5l-0.3,5.2l-3.4,1
			c-0.3,0.1-0.4,0.4-0.3,0.6c0,0.1,0.1,0.2,0.2,0.3c0.1,0.1,0.3,0.1,0.5,0.1l3.1-0.9l-0.2,3.2c0,0.2,0.1,0.3,0.2,0.4
			c0.1,0.1,0.2,0.1,0.3,0.1c0.3,0,0.5-0.2,0.5-0.5l0.2-3.5l5-1.4C26.6,6.8,26.7,6.5,26.6,6.2z"/>
		<path d="M22.9,11.3l-0.8-2l1.3,1.1c0.2,0.2,0.5,0.1,0.7-0.1c0.2-0.2,0.1-0.5-0.1-0.7l-1.3-1.1l2.1,0.4c0.3,0,0.5-0.1,0.6-0.4
			c0-0.3-0.1-0.5-0.4-0.6l-3.7-0.6L20,3.7c-0.1-0.3-0.4-0.4-0.6-0.3c-0.3,0.1-0.4,0.4-0.3,0.6l0.8,2L18.5,5
			c-0.2-0.2-0.5-0.1-0.7,0.1c-0.2,0.2-0.1,0.5,0.1,0.7l1.3,1.1L17,6.5c-0.3,0-0.5,0.1-0.6,0.4c0,0.2,0,0.4,0.2,0.5
			c0.1,0.1,0.1,0.1,0.2,0.1l3.7,0.6l1.4,3.5c0,0.1,0.1,0.2,0.2,0.2c0.1,0.1,0.3,0.1,0.5,0.1C22.9,11.8,23,11.5,22.9,11.3z"/>
	</g>
</g>
</svg>
