<?xml version="1.0" encoding="UTF-8"?><svg version="1.1" viewBox="0 0 30 30" xmlns="http://www.w3.org/2000/svg" xmlns:xlink="http://www.w3.org/1999/xlink"><g fill="#000"><path d="M15.5,30c-7.9,0 -15,-6 -15,-12.5c0,-6.7 8.1,-11.5 10.9,-12c0.3,0 0.5,0.1 0.6,0.4c0,0.3 -0.1,0.5 -0.4,0.6c-2.5,0.4 -10.1,5 -10.1,11c0,6 6.7,11.5 14,11.5c7,0 13,-5.3 13,-11.5c0,-6.1 -5.9,-10.1 -9.1,-10.5c-0.2,0 -0.4,-0.3 -0.4,-0.6c0,-0.3 0.3,-0.4 0.6,-0.4c3.5,0.5 9.9,4.8 9.9,11.5c0,6.8 -6.4,12.5 -14,12.5Z"></path><path d="M15.5,28c-6.7,0 -13,-5.1 -13,-10.5c0,-0.3 0.2,-0.5 0.5,-0.5c0.3,0 0.5,0.2 0.5,0.5c0,4.9 5.8,9.5 12,9.5c0.3,0 0.5,0.2 0.5,0.5c0,0.3 -0.2,0.5 -0.5,0.5Z"></path><path d="M15.4,12c-1.3,0 -1.8,-2.2 -2,-3.5c-0.7,0.1 -1.6,0.6 -2.2,0.9c-1,0.5 -1.7,0.9 -2.1,0.4c-0.4,-0.4 -0.4,-1.3 -0.1,-2c0.4,-1 1.8,-2.8 6.4,-2.8c4.2,0 5.5,2.1 5.9,3c0.3,0.7 0.4,1.5 0,1.9c-0.5,0.5 -1.1,0.1 -1.9,-0.4c-0.6,-0.4 -1.3,-0.8 -2,-0.9c-0.2,1.2 -0.7,3.4 -2,3.4Zm-1.5,-4.5c0.3,0 0.5,0.2 0.5,0.5c0,1.4 0.6,3 1,3c0.4,0 1,-1.6 1,-3c0,-0.3 0.2,-0.5 0.5,-0.5c1.1,0 2.2,0.6 3,1.1c0.2,0.1 0.5,0.3 0.7,0.4c0,-0.2 -0.1,-0.7 -0.5,-1.2c-0.5,-0.6 -1.7,-1.8 -4.7,-1.8c-3.7,0 -5,1.2 -5.4,1.9c-0.3,0.5 -0.3,0.9 -0.3,1.1c0.2,-0.1 0.7,-0.3 1,-0.5c0.9,-0.4 2.1,-1 3.2,-1Z"></path><path d="M15,6c-0.3,0 -0.5,-0.2 -0.5,-0.5c0,-3.3 2.8,-5.5 5.5,-5.5c0.3,0 0.5,0.2 0.5,0.5c0,0.3 -0.2,0.5 -0.5,0.5c-2.2,0 -4.5,1.8 -4.5,4.5c0,0.3 -0.2,0.5 -0.5,0.5Z"></path></g></svg>