<svg xmlns="http://www.w3.org/2000/svg" viewBox="0 0 30 30" fill="none" stroke="#000"><g stroke-miterlimit="10"><path d="M16.3 7.9L5.4 9.8 4.2 2.7 15.1.8c.1 0 .2.1.2.2l1.2 6.8s-.1.1-.2.1z"/><path d="M5 7.5l1.7 9.4M4.7 5l10.6-1.8M5 7.5l10.6-1.8" stroke-linecap="round"/><path d="M26.8 19.5l-10.7-2.8 1.9-7 10.7 2.8c.1 0 .2.1.1.2L27 19.3c.1.1-.1.2-.2.2z"/><path d="M16.8 14.3l-3.6 13.5" stroke-linecap="round"/></g><circle cx="22.4" cy="14.3" r="1.6"/><g stroke-miterlimit="10"><path d="M8.1 29.1l3.1-10.6-7-2.1-3 10.6c0 .1 0 .2.1.2l6.6 2c.1 0 .2 0 .2-.1z"/><path d="M9 17.8l13.4 4m-11.1-3.3l-9.8 8.6" stroke-linecap="round"/></g></svg>