<?xml version="1.0" encoding="utf-8"?>
<!-- Generator: Adobe Illustrator 23.0.1, SVG Export Plug-In . SVG Version: 6.00 Build 0)  -->
<svg version="1.1" id="Layer_1" xmlns="http://www.w3.org/2000/svg" xmlns:xlink="http://www.w3.org/1999/xlink" x="0px" y="0px"
	 viewBox="0 0 30 30" style="enable-background:new 0 0 30 30;" xml:space="preserve">
<g>
	<path d="M10.8,29.9c-0.2,0-0.5,0-0.7-0.1l0,0c-1.2-0.4-1.8-1.7-1.4-2.8l8.4-25.8c0.3-0.8,1.1-1.2,1.9-1l0.5,0.1
		c0.4,0.1,0.6,0.5,0.4,0.9l-4.3,13.3c0.9,0.6,1.4,1.7,1,2.8l-3.6,11.1C12.6,29.3,11.7,29.9,10.8,29.9z M10.4,28.8
		C11,29,11.7,28.7,12,28l3.6-11.1c0.2-0.7-0.1-1.5-0.8-1.7L14.3,15l4.5-13.8l-0.2-0.1c-0.3-0.1-0.5,0.1-0.6,0.3L9.6,27.2
		C9.4,27.9,9.7,28.6,10.4,28.8L10.4,28.8z"/>
	<path d="M21,2.8c-0.1,0-0.1,0-0.2,0l-1.7-0.6c-0.3-0.1-0.4-0.4-0.3-0.6s0.4-0.4,0.6-0.3l1.7,0.6c0.3,0.1,0.4,0.4,0.3,0.6
		C21.4,2.6,21.2,2.8,21,2.8z"/>
	<path d="M20.5,4.2c-0.1,0-0.1,0-0.2,0l-1.7-0.6c-0.3-0.1-0.4-0.4-0.3-0.6c0.1-0.3,0.4-0.4,0.6-0.3l1.7,0.6C20.9,3.3,21,3.6,21,3.9
		C20.9,4.1,20.7,4.2,20.5,4.2z"/>
	<path d="M20,5.7c-0.1,0-0.1,0-0.2,0l-1.7-0.6c-0.3-0.1-0.4-0.4-0.3-0.6c0.1-0.3,0.4-0.4,0.6-0.3l1.7,0.6c0.3,0.1,0.4,0.4,0.3,0.6
		C20.4,5.6,20.2,5.7,20,5.7z"/>
	<path d="M19.5,7.1c-0.1,0-0.1,0-0.2,0l-1.7-0.6c-0.3-0.1-0.4-0.4-0.3-0.6c0.1-0.3,0.4-0.4,0.6-0.3l1.7,0.6C20,6.3,20.1,6.5,20,6.8
		C19.9,7,19.7,7.1,19.5,7.1z"/>
</g>
</svg>
