<svg xmlns="http://www.w3.org/2000/svg" viewBox="0 0 30 30"><path d="M21.9 29.8H8.1c-1 0-1.9-.8-1.9-1.9V2C6.2 1 7 .1 8.1.1h13.8c1 0 1.9.8 1.9 1.9v26c0 1-.9 1.8-1.9 1.8zM8.1 1.2c-.5 0-.9.4-.9.8v26c0 .5.4.9.9.9h13.8c.5 0 .9-.4.9-.9V2c0-.5-.4-.9-.9-.9H8.1z"/><path d="M6.9 8.4h16.5v1H6.9z"/><path d="M17.7 28.3s-.1 0 0 0c-.4 0-.5-.3-.5-.6l3.7-23.6c0-.3.3-.5.6-.4.3 0 .5.3.4.6l-3.7 23.6c0 .2-.3.4-.5.4z"/><path d="M16.9 28.3c-.3 0-.5-.2-.5-.4l-2.6-24c0-.3.2-.5.4-.6.3 0 .5.2.6.4l2.6 24c.1.3-.1.6-.5.6zm-7.9.2c-.3 0-.5-.3-.5-.5l1.6-24.1a.47.47 0 0 1 .5-.5c.3 0 .5.3.5.5L9.5 28a.47.47 0 0 1-.5.5z"/><path d="M9.9 28.5a.47.47 0 0 1-.5-.5L7.7 4.1a.47.47 0 0 1 .5-.5.47.47 0 0 1 .5.5L10.4 28c0 .2-.2.4-.5.5zm5.6-.2c-.2 0-.5-.2-.5-.4L11.2 4.1c0-.3.1-.5.4-.6.3 0 .5.1.6.4L16 27.7c0 .2-.2.5-.5.6z"/></svg>