<svg xmlns="http://www.w3.org/2000/svg" viewBox="0 0 30 30"><path d="M20.5 30c-1.3 0-1.7-2.2-2.5-6.5-.5-3-1.3-7.5-2.5-7.5h-1c-1.1 0-1.9 4.5-2.5 7.5-.8 4.3-1.2 6.5-2.5 6.5-1.6 0-2-2.5-2.2-4.4-.3-2.3-.3-5.1-.3-7.4V18c0-2.5-1.4-5.5-2.4-7.9C3.7 8.1 3 6.6 3 5.5 3 3.3 3 0 7.5 0c2.4 0 3.8.9 4.9 1.6.7.5 1.3.9 2.1.9h1c.7 0 1.1-.3 1.6-.8C18 .9 19 0 21.5 0 24.9 0 27 2.1 27 5.5c0 1.1-.7 2.6-1.6 4.6-1 2.4-2.4 5.4-2.4 7.9v.2l-.3 7.4c-.2 1.9-.6 4.4-2.2 4.4zm-6-15h1c2 0 2.7 4 3.5 8.3.4 2.2 1 5.5 1.6 5.7.1 0 .9-.2 1.2-3.5.2-2.2.2-5 .2-7.3V18c0-2.7 1.4-5.8 2.5-8.3C25.3 8 26 6.4 26 5.5c0-1.7-.6-4.5-4.5-4.5-2.1 0-2.9.7-3.7 1.4-.6.5-1.2 1.1-2.3 1.1h-1c-1 0-1.8-.5-2.6-1C10.8 1.8 9.6 1 7.5 1 4.3 1 4 2.9 4 5.5c0 .9.7 2.5 1.5 4.2C6.6 12.2 8 15.3 8 18v.2l.2 7.3c.4 3.3 1.2 3.5 1.3 3.5.6-.2 1.1-3.5 1.5-5.7.8-4.3 1.5-8.3 3.5-8.3zm4-9a.47.47 0 0 1-.5-.5C18 4 19.3 3 20.5 3a.47.47 0 0 1 .5.5.47.47 0 0 1-.5.5c-.7 0-1.5.6-1.5 1.5a.47.47 0 0 1-.5.5z"/></svg>