<svg id="Layer_1" data-name="Layer 1" xmlns="http://www.w3.org/2000/svg" viewBox="0 0 30 30"><title>Zeichenfläche 1</title><path d="M19.56,12.18H10.45a.7.7,0,0,0-.7.7V23.73a.7.7,0,0,0,.7.71h9.11a.71.71,0,0,0,.7-.71V12.88A.7.7,0,0,0,19.56,12.18Zm-.3,11.26H10.75V13.18h8.51Z"/><path d="M22.24,5.42a.6.6,0,0,0,.06-.27V3a.71.71,0,0,0-.7-.7H8.4a.71.71,0,0,0-.7.7V5.15a.45.45,0,0,0,0,.11.83.83,0,0,0-.09.16C5.33,14.58,6.61,27,6.62,27a.71.71,0,0,0,.7.7H22.4a.69.69,0,0,0,.7-.62C23.11,27,25,15.15,22.24,5.42ZM8.56,5.85H21.32c.21.77.39,1.56.55,2.35a47.85,47.85,0,0,1-5.72-.34,29.75,29.75,0,0,0-4.64-.24,23.87,23.87,0,0,0-3.41.43C8.23,7.3,8.38,6.56,8.56,5.85ZM8.7,3.27H21.3V4.85H8.7ZM22.15,26.73H7.6A80.11,80.11,0,0,1,7.92,9.11a21.9,21.9,0,0,1,3.64-.49A29.18,29.18,0,0,1,16,8.85a48.8,48.8,0,0,0,5.67.36h.35A61.91,61.91,0,0,1,22.15,26.73Z"/></svg>