<svg id="Ebene_1" data-name="Ebene 1" xmlns="http://www.w3.org/2000/svg" viewBox="0 0 30 30"><path d="M22.48,13.59A3.62,3.62,0,0,0,21,10.53L17.72,8.38,20.4,4.8A.5.5,0,0,0,20.19,4,15.26,15.26,0,0,0,15,3,14,14,0,0,0,9.79,4a.51.51,0,0,0-.27.34.49.49,0,0,0,.08.42l2.68,3.58L9.05,10.53a3.45,3.45,0,0,0-1.55,2.6v11.1a3.51,3.51,0,0,0,3.5,3.5l8,0a3.5,3.5,0,0,0,3.5-3.5V13.62S22.49,13.59,22.48,13.59ZM10.8,4.73A13.21,13.21,0,0,1,15,4a14.05,14.05,0,0,1,4.19.74L16.75,8h-3.5Zm8.18,22-8,0a2.51,2.51,0,0,1-2.5-2.5V13.42a2.64,2.64,0,0,1,1.11-2.06L13.15,9h.21l-.84,3.38a.48.48,0,0,0,.36.6L13,13a.49.49,0,0,0,.48-.38L14.39,9h1.26L17,12.68a.51.51,0,0,0,.47.32l.18,0a.51.51,0,0,0,.29-.65L16.72,9h.13l3.54,2.36a2.76,2.76,0,0,1,1.09,2.43v10.4A2.5,2.5,0,0,1,19,26.69Z"/></svg>