<svg viewBox="0 0 30 30" xmlns="http://www.w3.org/2000/svg">
    <path
        d="M29.5,8.1,21.7.3a.48.48,0,0,0-.7,0L7.7,16.5A3.38,3.38,0,0,0,7.4,21l1.4,1.4a3.38,3.38,0,0,0,4.5-.3L29.5,8.9A.61.61,0,0,0,29.5,8.1ZM12.7,21.4a2.42,2.42,0,0,1-3.5,0l-.7-.7a2.42,2.42,0,0,1,0-3.5L20.1,3l6.8,6.8Zm15-12.2L20.8,2.3l.7-.8,7.1,7.1Z" />
    <path style="fill:none;stroke:#000;"
        d="M7.6,23.5,6.5,22.4a.65.65,0,0,1,.1-.9l.9-.9,1.9,1.9-.9.9A.65.65,0,0,1,7.6,23.5Z" />
    <path
        d="M3.8,29.7a1,1,0,0,1,0-2c1.2,0,1.3-.3,1.4-2a6.48,6.48,0,0,1,.9-3.2c.4-.4,1.9.8,1.5,1.3s-.4,1.2-.5,2C7.1,27.3,7,29.7,3.8,29.7Z" />
</svg>