<?xml version="1.0" encoding="UTF-8"?><svg version="1.1" viewBox="0 0 30 30" xmlns="http://www.w3.org/2000/svg" xmlns:xlink="http://www.w3.org/1999/xlink"><g fill="#000"><path d="M14.641,4.989c-0.158,0 -0.313,-0.074 -0.41,-0.213l-2.383,-3.404l-2.377,3.396c-0.158,0.226 -0.471,0.282 -0.697,0.123c-0.226,-0.158 -0.281,-0.47 -0.123,-0.696l2.787,-3.981c0.188,-0.268 0.632,-0.268 0.819,0l2.793,3.989c0.158,0.226 0.104,0.538 -0.123,0.696c-0.087,0.061 -0.187,0.09 -0.286,0.09Z"></path><path d="M11.848,22.435c-5.142,0 -9.326,-4.184 -9.326,-9.326c0,-0.276 0.224,-0.5 0.5,-0.5c0.276,0 0.5,0.224 0.5,0.5c0,4.59 3.735,8.326 8.326,8.326c4.591,0 8.326,-3.735 8.326,-8.326c0,-0.276 0.224,-0.5 0.5,-0.5c0.276,0 0.5,0.224 0.5,0.5c0,5.142 -4.184,9.326 -9.326,9.326Z"></path><path d="M11.848,22.435c-5.142,0 -9.326,-4.184 -9.326,-9.326c0,-4.934 3.677,-12.508 3.833,-12.829c0.082,-0.166 0.249,-0.274 0.434,-0.28c0.183,0.003 0.359,0.092 0.45,0.253l5.043,8.9c0.136,0.24 0.052,0.545 -0.188,0.682c-0.241,0.135 -0.545,0.051 -0.682,-0.188l-4.564,-8.055c-0.966,2.142 -3.326,7.759 -3.326,11.517c0,4.59 3.735,8.326 8.326,8.326c4.591,0 8.326,-3.735 8.326,-8.326c0,-0.276 0.224,-0.5 0.5,-0.5c0.276,0 0.5,0.224 0.5,0.5c0,5.142 -4.184,9.326 -9.326,9.326Z"></path><path d="M11.848,22.435c-5.142,0 -9.326,-4.184 -9.326,-9.326c0,-0.276 0.224,-0.5 0.5,-0.5c0.276,0 0.5,0.224 0.5,0.5c0,2.254 0.9,4.302 2.361,5.803l10.573,-18.659c0.091,-0.161 0.275,-0.254 0.45,-0.253c0.186,0.006 0.353,0.114 0.434,0.28c0.156,0.32 3.833,7.895 3.833,12.829c0.001,5.142 -4.183,9.326 -9.325,9.326Zm-5.206,-2.833c1.427,1.146 3.238,1.833 5.206,1.833c4.591,0 8.326,-3.735 8.326,-8.326c0,-3.758 -2.36,-9.375 -3.327,-11.517l-10.205,18.01Z"></path><path d="M11.586,30c-0.073,0 -0.146,-0.016 -0.215,-0.049c-0.214,-0.056 -0.371,-0.252 -0.371,-0.483v-7.5c0,-0.276 0.224,-0.5 0.5,-0.5c0.276,0 0.5,0.224 0.5,0.5v5.862c5.374,-8.143 14.736,-7.696 14.833,-7.688c0.167,0.01 0.318,0.103 0.402,0.247c0.084,0.144 0.091,0.321 0.018,0.471c-0.044,0.091 -4.499,8.963 -15.485,9.105c-0.058,0.023 -0.119,0.035 -0.182,0.035Zm14.346,-8.851c-2.401,0.109 -9.356,1.028 -13.452,7.794c8.048,-0.41 12.192,-5.806 13.452,-7.794Z"></path></g></svg>