<?xml version="1.0" encoding="UTF-8"?>
<svg viewBox="0 0 30 30" version="1.1" xmlns="http://www.w3.org/2000/svg" xmlns:xlink="http://www.w3.org/1999/xlink">
    <g id="Page-1" stroke="none" stroke-width="1" fill="none" fill-rule="evenodd">
        <g id="Outlines_black-Copy" transform="translate(-600.000000, -114.000000)">
            <g id="Group-3" transform="translate(3.000000, 114.000000)" fill="#000000" fill-rule="nonzero">
                <path d="M604.650527,15.1725791 C604.650527,22.5089986 607.431666,25.8494727 613.394535,25.8494727 C619.318348,25.8494727 622.000479,22.5542821 622.000479,15.1725791 L622.000479,4.15052733 L617.421381,4.15052733 L617.421381,15.8628955 C617.421381,20.0345045 616.195659,21.8916587 613.394535,21.8916587 C610.608368,21.8916587 609.436721,20.0609609 609.436721,15.8628955 L609.436721,4.15052733 L604.650527,4.15052733 L604.650527,15.1725791 Z M613.394535,27 C606.744842,27 603.5,23.1025645 603.5,15.1725791 L603.5,3.57526366 C603.5,3.25755431 603.757554,3 604.075264,3 L610.011985,3 C610.329694,3 610.587248,3.25755431 610.587248,3.57526366 L610.587248,15.8628955 C610.587248,19.5042357 611.378862,20.7411314 613.394535,20.7411314 C615.43529,20.7411314 616.270853,19.4751268 616.270853,15.8628955 L616.270853,3.57526366 C616.270853,3.25755431 616.528408,3 616.846117,3 L622.575743,3 C622.893452,3 623.151007,3.25755431 623.151007,3.57526366 L623.151007,15.1725791 C623.151007,23.1435127 620.012005,27 613.394535,27 Z" id="U-Copy-2"></path>
            </g>
            <g id="Slices" transform="translate(0.000000, 114.000000)"></g>
        </g>
    </g>
</svg>