<svg xmlns="http://www.w3.org/2000/svg" viewBox="0 0 30 30"><path d="M29 14h-.3a.55.55 0 0 1-.5-.3c-.6-1.3-2.5-2.7-4.3-2.7s-3.3 1.4-3.9 2.7a.55.55 0 0 1-.5.3H19a.55.55 0 0 1-.5-.3C18 12.4 16.7 11 15 11c-1.9 0-3.3.9-4 2.7a.55.55 0 0 1-.5.3h-.6a.55.55 0 0 1-.5-.3c-.5-1.3-2-2.7-3.8-2.7-1.7 0-3.3 1.4-3.8 2.7a.55.55 0 0 1-.5.3H1a.47.47 0 0 1-.5-.5C.5 6.8 7.3 1 15 1s14.5 5.8 14.5 12.5a.47.47 0 0 1-.5.5zm-14-4c2.1 0 3.5 1.5 4.3 2.9.8-1.5 2.6-2.9 4.6-2.9 1.7 0 3.4 1 4.5 2.1C27.5 6.6 21.7 2 15 2 8.4 2 2.5 6.5 1.6 12c.9-1.1 2.4-2 4-2 2.1 0 3.8 1.4 4.6 2.9 1-1.9 2.6-2.9 4.8-2.9z"/><path d="M9.9 14a.47.47 0 0 1-.5-.5c0-4.2 2.1-12.3 5.3-12.3a.47.47 0 0 1 .5.5c0 .3-.2.6-.4.6-2.2 0-4.3 7.1-4.3 11.3-.1.2-.3.4-.6.4z"/><path d="M19 14a.47.47 0 0 1-.5-.5C18.5 9 17 2.3 14.9 2.3a.47.47 0 0 1-.5-.5.47.47 0 0 1 .5-.5c3.2 0 4.6 8.1 4.6 12.3 0 .2-.2.4-.5.4z"/><path d="M15 2a.47.47 0 0 1-.5-.5v-1A.47.47 0 0 1 15 0a.47.47 0 0 1 .5.5v1a.47.47 0 0 1-.5.5zm-2.5 28c-1.7 0-3-1.3-3-3 0-1.6.7-2.2.8-2.3.2-.2.5-.1.7.1s.1.5-.1.7c0 0-.4.4-.4 1.5s.9 2 2 2 2-1 2-2.1V11a.47.47 0 0 1 .5-.5.47.47 0 0 1 .5.5v15.9c0 1.7-1.4 3.1-3 3.1z"/></svg>