<?xml version="1.0" encoding="UTF-8"?>
<svg viewBox="0 0 30 30" version="1.1" xmlns="http://www.w3.org/2000/svg" xmlns:xlink="http://www.w3.org/1999/xlink">
    <g id="Page-1" stroke="none" stroke-width="1" fill="none" fill-rule="evenodd">
        <g id="Outlines_black-Copy" transform="translate(-630.000000, -114.000000)">
            <g id="Group-3" transform="translate(3.000000, 114.000000)" fill="#000000" fill-rule="nonzero">
                <path d="M644.980262,25.8292683 L651.377861,4.17073171 L646.444601,4.17073171 L644.229995,13.7000331 C644.026458,14.5261541 643.847772,15.3016707 643.563618,16.5732772 C643.527975,16.7328438 643.527975,16.7328438 643.492341,16.8925088 C643.038082,18.9280181 642.836521,19.7982421 642.542695,20.9409021 C642.476165,21.1996269 642.242913,21.3804878 641.975772,21.3804878 L641.835284,21.3804878 C641.568142,21.3804878 641.334891,21.1996269 641.268361,20.9409021 C641.004167,19.9134804 640.829385,19.149848 640.420637,17.2900431 C640.341663,16.9308031 640.307604,16.776228 640.262397,16.5723193 C640.00104,15.3934458 639.802948,14.5508171 639.580155,13.6963053 L637.299384,4.17073171 L632.15222,4.17073171 L638.549818,25.8292683 L644.980262,25.8292683 Z M642.349717,16.6375123 C642.385368,16.4777708 642.385368,16.4777708 642.421065,16.3179619 C642.706938,15.0386621 642.887183,14.2563804 643.091454,13.4274953 L645.409503,3.45286118 C645.471128,3.1876862 645.707433,3 645.979674,3 L652.161138,3 C652.552217,3 652.833311,3.37613195 652.722525,3.7511909 L645.97911,26.5804592 C645.90562,26.829253 645.677144,27 645.417723,27 L638.112357,27 C637.852936,27 637.62446,26.829253 637.55097,26.5804592 L630.807556,3.7511909 C630.696769,3.37613195 630.977863,3 631.368943,3 L637.761138,3 C638.03192,3 638.26736,3.18572165 638.330413,3.44906057 L640.71584,13.4122408 C640.94012,14.2719782 641.14116,15.1271474 641.405377,16.3189198 C641.45078,16.5237141 641.485002,16.6790311 641.564078,17.0387373 C641.701533,17.6641582 641.812252,18.1643425 641.908667,18.5916137 C642.030151,18.0642976 642.16998,17.4429036 642.349717,16.6375123 Z" id="V-Copy-2"></path>
            </g>
            <g id="Slices" transform="translate(0.000000, 114.000000)"></g>
        </g>
    </g>
</svg>