<?xml version="1.0" encoding="utf-8"?>
<!-- Generator: Adobe Illustrator 23.0.1, SVG Export Plug-In . SVG Version: 6.00 Build 0)  -->
<svg version="1.1" id="Layer_1" xmlns="http://www.w3.org/2000/svg" xmlns:xlink="http://www.w3.org/1999/xlink" x="0px" y="0px"
	 viewBox="0 0 30 30" style="enable-background:new 0 0 30 30;" xml:space="preserve">
<path d="M3.6,27.5c-1.9,0-3.4-1.5-3.4-3.4s1.5-3.4,3.4-3.4S7,22.3,7,24.1S5.4,27.5,3.6,27.5z M3.6,21.8c-1.3,0-2.4,1.1-2.4,2.4
	s1.1,2.4,2.4,2.4S6,25.4,6,24.1S4.9,21.8,3.6,21.8z"/>
<g>
	<path d="M20.6,27.5H7.2c-0.3,0-0.5-0.2-0.6-0.4c-0.1-0.3,0-0.5,0.2-0.7c1-0.9,1.4-2.2,1.1-3.6c-0.3-1.4-1.4-2.4-2.8-2.7
		c-0.8-0.2-1.6-0.1-2.4,0.3c-0.3,0.2-0.7,0.1-1-0.2c-0.2-0.3-0.2-0.7,0-1c1.8-2.5,5.3-3.9,9.9-3.9c6.6,0,11.5,3.6,11.5,8.5
		c0,0.7-0.1,1.5-0.3,2.2C22.5,26.9,21.6,27.5,20.6,27.5z M8,26.5h12.7c0.5,0,1-0.3,1.2-0.8c0.2-0.6,0.3-1.3,0.3-1.9
		c0-4.3-4.5-7.5-10.5-7.5c-3.8,0-6.8,1-8.6,2.9c0.7-0.2,1.5-0.2,2.3-0.1c1.7,0.4,3.1,1.7,3.5,3.5C9.2,24,8.8,25.4,8,26.5z"/>
</g>
<path d="M27.2,24.3l-1-0.1c0,0,0.2-3.2,0.1-5.7c-0.2-7.4-3.1-12.1-9.5-15.1c-3.1-1.5-4.9-0.5-5.6,0.8C10.5,5.5,11,7.6,13,8.6
	c0.2,0.1,0.5,0.2,0.9,0.4c2.6,1.2,5.4,2.6,6,4.2c0.7,2.1-1,4.7-1.1,4.8l-0.8-0.6c0,0,1.5-2.3,1-3.9c-0.5-1.4-3.8-2.9-5.4-3.7
	c-0.4-0.2-0.7-0.3-0.9-0.4C10,8.2,9.4,5.5,10.3,3.7c0.8-1.7,3.1-3,6.9-1.2c6.7,3.2,9.9,8.3,10.1,16C27.4,21.1,27.2,24.3,27.2,24.3z"
	/>
<path d="M28.9,27.5h-4.7c-0.4,0-0.7-0.3-0.7-0.7v-0.4c0-1.4,1.1-2.5,2.5-2.5h1.1c1.4,0,2.5,1.1,2.5,2.5v0.4
	C29.6,27.2,29.3,27.5,28.9,27.5z M24.5,26.5h4.1v-0.1c0-0.8-0.7-1.5-1.5-1.5H26c-0.8,0-1.5,0.7-1.5,1.5V26.5z"/>
</svg>
