<svg id="Layer_1" data-name="Layer 1" xmlns="http://www.w3.org/2000/svg" viewBox="0 0 30 30"><title>Zeichenfläche 1</title><path d="M26.18,23.44A8.52,8.52,0,0,1,22,21.93l-.05,0a5.35,5.35,0,0,0-.77-1.55,9.12,9.12,0,0,0-1.4-1.55,10.35,10.35,0,0,0,1.92-.38c2.79-.88,4.21-4.05,4.27-4.19l.17-.4-.37-.23c-.12-.07-3.1-1.87-5.89-1a10.17,10.17,0,0,0-1.17.46c1.53-2.34,4.42-6.91,4.51-8.26s-.68-1.44-.91-1.48a1.78,1.78,0,0,0-1.81,1.31.5.5,0,0,0,1,.28.9.9,0,0,1,.52-.57.25.25,0,0,1,.17,0s.09.12.07.43c-.06.9-2.29,4.6-4.15,7.47,0-.16,0-.32,0-.48.11-2.92-2.41-5.32-2.52-5.42L15.25,6l-.34.27c-.12.09-2.8,2.3-2.91,5.22A9.51,9.51,0,0,0,12.07,13C10.13,10.1,7.46,5.77,7.4,4.78c0-.3,0-.42.07-.43a.4.4,0,0,1,.18,0A.91.91,0,0,1,8.16,5a.51.51,0,0,0,.62.34.49.49,0,0,0,.34-.62A1.78,1.78,0,0,0,7.31,3.36c-.23,0-1,.27-.9,1.48.08,1.37,3,6,4.56,8.35-.25-.11-.49-.22-.75-.31-2.77-.94-5.79.79-5.91.87L3.93,14l.17.4c.05.13,1.4,3.34,4.17,4.28a9.91,9.91,0,0,0,1.93.44,10.58,10.58,0,0,0-1,.92,5.8,5.8,0,0,0-1.13,1.9l0,0a8.52,8.52,0,0,1-4.22,1.51.5.5,0,0,0,0,1h0a9.17,9.17,0,0,0,3.84-1.12,9.42,9.42,0,0,0-.11,2.46l0,.43.44,0c.15,0,3.62.07,5.61-2.08A9.24,9.24,0,0,0,15.15,22a9.63,9.63,0,0,0,1.06,1.89c1.71,2.38,5.17,2.72,5.32,2.74l.43,0,.1-.43a9.75,9.75,0,0,0,.14-3,9.11,9.11,0,0,0,3.93,1.17h0a.5.5,0,0,0,0-1Zm-6-9.88a4.28,4.28,0,0,1,1.06-.18,7.7,7.7,0,0,1,3.61.86,6.74,6.74,0,0,1-3.45,3.22,7.48,7.48,0,0,1-3,.35h0s0,0-.08,0l.91-.89a.71.71,0,0,0,.18-.72.69.69,0,0,0-.57-.47l-1.62-.24h0c0-.09.08-.19.13-.28A7.45,7.45,0,0,1,20.14,13.56ZM16.86,20.1l-1.84-1-1.85,1,.35-2.05L12,16.59l2.06-.3L15,14.42l.92,1.87,2.07.3-1.5,1.46Zm-3.69-9.61a7.73,7.73,0,0,1,2-3.11,6.76,6.76,0,0,1,1.88,4.32,7.55,7.55,0,0,1-.66,2.91.81.81,0,0,0-.12.14l-.66-1.32a.72.72,0,0,0-1.25,0L13.63,15a1.27,1.27,0,0,0-.07-.12,7.5,7.5,0,0,1-.57-3.3A4.61,4.61,0,0,1,13.17,10.49ZM7.63,17.22A7.7,7.7,0,0,1,5.22,14.4a6.73,6.73,0,0,1,4.68-.57,7.51,7.51,0,0,1,2.81,1.64h.06l-1.49.22a.7.7,0,0,0-.39,1.19L12,18l-.35.15a7.56,7.56,0,0,1-3.06-.41A4.11,4.11,0,0,1,7.63,17.22ZM13,23.46a4.17,4.17,0,0,1-.83.69A7.59,7.59,0,0,1,8.57,25.2,6.68,6.68,0,0,1,10,20.69a8,8,0,0,1,2-1.6h.1a2.3,2.3,0,0,0,.28-.06l-.26,1.51a.7.7,0,0,0,1,.74l1.58-.83v0l0,.13A7.31,7.31,0,0,1,13,23.46Zm8.22,2.12A6.72,6.72,0,0,1,17,23.33a7.65,7.65,0,0,1-1.26-2.68l1.18.62a.61.61,0,0,0,.32.08.72.72,0,0,0,.42-.13.7.7,0,0,0,.27-.69l-.31-1.82.22.06H18a7.52,7.52,0,0,1,2.31,2.16,4.21,4.21,0,0,1,.52.95A7.8,7.8,0,0,1,21.17,25.58Z"/></svg>