<?xml version="1.0" encoding="UTF-8"?><svg version="1.1" viewBox="0 0 28 30" xmlns="http://www.w3.org/2000/svg" xmlns:xlink="http://www.w3.org/1999/xlink"><!--Generated by IJSVG (https://github.com/curthard89/IJSVG)--><g transform="matrix(1,0,0,1,-331,-60)"><g transform="matrix(1,0,0,1,331.519,60.0992)"><path fill="#000" stroke="none" d="M16.2535,5.14063c-1.13924,0.623914 -1.86015,1.0284 -2.31706,1.28513v-1.61501c0.418329,-0.25674 1.59463,-0.917953 2.35413,-1.32244c0.189873,-0.110441 0.22844,-0.32989 0.151306,-0.513466c-0.11422,-0.183591 -0.34118,-0.220881 -0.531038,-0.1463c-0.949367,0.513466 -1.55757,0.880647 -1.97438,1.10154v-1.61501c0.304094,-0.183591 1.02501,-0.588077 1.67028,-0.955258c0.189873,-0.110441 0.22844,-0.32989 0.151306,-0.513466c-0.11422,-0.183591 -0.34118,-0.220881 -0.531038,-0.1463c-0.56962,0.32989 -0.987949,0.550772 -1.29053,0.734362v-1.06424c0,-0.220881 -0.151306,-0.367181 -0.379747,-0.367181c-0.22844,-2.47198e-17 -0.379747,0.1463 -0.379747,0.367181v1.06424c-0.304094,-0.18359 -0.720911,-0.404487 -1.29053,-0.734362c-0.189873,-0.110441 -0.418329,-0.0372909 -0.531038,0.1463c-0.11422,0.183591 -0.0385671,0.404487 0.151306,0.513466c0.645266,0.367181 1.3677,0.771668 1.67028,0.955258v1.61501c-0.418329,-0.220881 -1.02501,-0.588077 -1.97438,-1.10154c-0.189874,-0.110441 -0.418329,-0.0372909 -0.531038,0.1463c-0.11422,0.183591 -0.0385671,0.404487 0.151306,0.513466c0.759494,0.440323 1.93732,1.10154 2.35413,1.32244v1.61501c-0.455392,-0.25674 -1.17782,-0.66122 -2.31706,-1.32244c-0.189873,-0.110441 -0.418329,-0.0372909 -0.531038,0.1463c-0.11422,0.183591 -0.0385671,0.404487 0.151306,0.513466c0.873722,0.477629 2.2399,1.24783 2.69681,1.54187v0.697056c-0.683848,0.0731498 -1.32911,0.404487 -1.74744,0.880647c-0.455393,0.477629 -0.645266,1.10154 -0.56962,1.72546l0.189873,2.53296l1.13924,14.1365c0,0.588077 0.34118,1.72546 1.3677,1.72546c1.02501,0 1.32911,-1.10154 1.3677,-1.68962l1.3677,-16.6693c0.0756532,-0.623914 -0.11422,-1.24783 -0.56962,-1.72546c-0.455392,-0.477629 -1.06359,-0.771668 -1.74744,-0.880647v-0.697056c0.455392,-0.294031 1.82309,-1.0284 2.69681,-1.50603c0.189873,-0.110441 0.228441,-0.32989 0.151306,-0.513466c-0.152787,-0.218014 -0.379747,-0.291164 -0.56962,-0.180723l-9.11e-05,-9.18e-05Zm-2.08861,22.0683c0,0 -0.0385671,0.991095 -0.608203,0.991095c-0.531038,0 -0.608203,-0.991095 -0.608203,-1.0284l-0.228441,-2.64341h1.67028l-0.225433,2.68072Zm0.265527,-3.41508h-1.78451l-0.189873,-2.38668h2.16425l-0.189873,2.38668Zm0.265527,-3.12104h-2.27848l-0.189873,-2.38668h2.69681l-0.228456,2.38668Zm0.265527,-3.08516h-2.80952l-0.189873,-2.38668h3.18927l-0.189873,2.38668Zm0.267008,-3.12104h-3.30349l-0.152787,-1.43142l-0.0756531,-0.991095h3.68324l-0.151306,2.42251Zm-0.0771342,-5.10308c0.304094,0.32989 0.455392,0.734362 0.379747,1.17469l-0.0756532,0.807504h-3.79747l-0.0756532,-0.84481c-0.0385671,-0.404487 0.0756532,-0.807505 0.379747,-1.13885c0.379747,-0.404487 0.949367,-0.66122 1.59463,-0.66122c0.645266,0.00143458 1.21489,0.222317 1.59463,0.662652l1.52e-05,3.671e-05Z"></path><path fill="#000" stroke="none" d="M9.11392,17.038c0,-0.683848 -0.304094,-1.32911 -0.798076,-1.67028c0.11422,-0.265527 0.151306,-0.531038 0.151306,-0.798076c0,-0.759494 -0.379747,-1.48041 -0.987949,-1.78451c0,-0.11422 0.0385671,-0.189873 0.0385671,-0.304094c0,-0.949367 -0.56962,-1.70886 -1.29053,-1.89873c-0.11422,-0.987949 -0.798076,-1.74744 -1.67028,-1.74744c-0.835139,0 -1.55757,0.759494 -1.67028,1.70886c-0.798076,0.151306 -1.40476,0.949367 -1.40476,1.93732c0,0.151306 0,0.304094 0.0385671,0.455392c-0.455392,0.34118 -0.759494,0.987949 -0.759494,1.63322c0,0.265527 0.0385671,0.531038 0.151306,0.798076c-0.493975,0.34118 -0.798076,0.987949 -0.798076,1.67028c4.16334e-17,0.798076 0.418329,1.48041 0.987949,1.78451c-0.189873,0.304094 -0.379747,0.720911 -0.379747,1.21489c0,0.798076 0.455392,1.55757 1.3677,2.27848c1.97438,1.55757 2.16425,3.37914 2.16425,3.8362v0.0756532v0.0385671v2.27848c0,0.22844 0.151306,0.379747 0.379747,0.379747c0.228441,0 0.379747,-0.151306 0.379747,-0.379747v-2.27848v-0.0756532c0,-0.34118 0.151306,-2.27848 2.20284,-3.87304c0.910785,-0.720911 1.3677,-1.48041 1.3677,-2.27848c0,-0.531038 -0.189873,-0.949367 -0.418329,-1.25347c0.568139,-0.304094 0.947886,-0.949367 0.947886,-1.74744l-3.798e-05,-0.0002202Zm-1.67028,1.21489c-0.228441,0 -0.379747,0.151306 -0.379747,0.379747c0,0.151306 0.11422,0.304094 0.265527,0.379747c0.151306,0.151306 0.493975,0.56962 0.493975,1.06359c0,0.531038 -0.379747,1.10066 -1.06359,1.67028c-0.835139,0.645266 -1.3677,1.32911 -1.74744,1.97438v-2.88668l1.40476,-1.40476c0.151306,-0.151306 0.151306,-0.379747 0,-0.531038c-0.151306,-0.151306 -0.379747,-0.151306 -0.531038,0l-0.873722,0.873721v-1.63322l1.40476,-1.40476c0.151306,-0.151306 0.151306,-0.379747 0,-0.531038c-0.151306,-0.151306 -0.379747,-0.151306 -0.531038,0l-0.873722,0.873722v-1.74744l1.40476,-1.40476c0.151306,-0.151306 0.151306,-0.379747 0,-0.531038c-0.151306,-0.151306 -0.379747,-0.151306 -0.531038,0l-0.873722,0.796595v-1.86015c0,-0.22844 -0.151306,-0.379747 -0.379747,-0.379747c-0.228441,0 -0.379747,0.151306 -0.379747,0.379747v1.86015l-0.835139,-0.873722c-0.151306,-0.151306 -0.379747,-0.151306 -0.531038,0c-0.151306,0.151306 -0.151306,0.379747 0,0.531038l1.3677,1.3677v1.74744l-0.83662,-0.798076c-0.151306,-0.151306 -0.379747,-0.151306 -0.531038,0c-0.151306,0.151306 -0.151306,0.379747 0,0.531038l1.3677,1.3677v1.63322l-0.83662,-0.798076c-0.151306,-0.151306 -0.379747,-0.151306 -0.531038,0c-0.151306,0.151306 -0.151306,0.379747 0,0.531038l1.3677,1.3677v2.8481c-0.379747,-0.645266 -0.910785,-1.29053 -1.67028,-1.93732c-0.720911,-0.56962 -1.06359,-1.10066 -1.06359,-1.67028c0,-0.683848 0.56962,-1.13924 0.56962,-1.13924c0.11422,-0.11422 0.189873,-0.265527 0.11422,-0.418329c-0.0756532,-0.151306 -0.189873,-0.265526 -0.34118,-0.265526c-0.493975,0 -0.910785,-0.531038 -0.910785,-1.21489c0,-0.531038 0.265527,-1.02501 0.683848,-1.17782c0.11422,-0.0385671 0.189873,-0.11422 0.228441,-0.22844c0.0385671,-0.11422 0.0385671,-0.228441 -0.0385671,-0.34118c-0.151306,-0.22844 -0.228441,-0.493975 -0.228441,-0.759494c0,-0.493975 0.228441,-0.949367 0.608203,-1.13924c0.189873,-0.0756532 0.265527,-0.304094 0.189873,-0.455392c-0.117186,-0.0756532 -0.117186,-0.265527 -0.117186,-0.416848c0,-0.645266 0.418329,-1.21489 0.910785,-1.21489h0.0756532c0.11422,0 0.228441,-0.0385671 0.304094,-0.11422c0.0756532,-0.0756531 0.11422,-0.189873 0.11422,-0.304094v-0.0756532c0,-0.645266 0.418329,-1.21489 0.910785,-1.21489c0.493975,0 0.910785,0.531038 0.910785,1.21489v0.0756532c0,0.11422 0.0385671,0.189873 0.11422,0.265526c0.0756532,0.0756532 0.189873,0.11422 0.304094,0.11422c0.493975,0 0.910785,0.531038 0.910785,1.21489c0,0.151306 -0.0385671,0.304094 -0.0756532,0.418329c-0.0385671,0.11422 0,0.189873 0.0385671,0.304094c0.0385671,0.0756531 0.151306,0.151306 0.228441,0.189873c0.418329,0.11422 0.759494,0.608203 0.759494,1.17782c0,0.265526 -0.0756532,0.531038 -0.22844,0.759494c-0.0756532,0.11422 -0.0756532,0.22844 -0.0385671,0.34118c0.0385671,0.11422 0.11422,0.189873 0.22844,0.22844c0.379747,0.151306 0.683848,0.608203 0.683848,1.13924c-0.0756532,0.720911 -0.493975,1.25199 -0.986468,1.25199l-7.215e-05,-3.79e-05Z"></path><path fill="#000" stroke="none" d="M26.7334,17.038c0,-0.683848 -0.304094,-1.32911 -0.798076,-1.67028c0.11422,-0.265527 0.151306,-0.531038 0.151306,-0.798076c0,-0.759494 -0.379747,-1.48041 -0.987949,-1.78451c0,-0.11422 0.0385671,-0.189873 0.0385671,-0.304094c0,-0.949367 -0.56962,-1.70886 -1.29053,-1.89873c-0.11422,-0.987949 -0.798076,-1.74744 -1.67028,-1.74744c-0.835139,0 -1.55757,0.759494 -1.67028,1.70886c-0.798076,0.151306 -1.40476,0.949367 -1.40476,1.93732c0,0.151306 0,0.304094 0.0385671,0.455392c-0.455392,0.34118 -0.759494,0.987949 -0.759494,1.63322c0,0.265527 0.0385671,0.531038 0.151306,0.798076c-0.493975,0.34118 -0.798076,0.987949 -0.798076,1.67028c0,0.798076 0.418329,1.48041 0.987949,1.78451c-0.189873,0.304094 -0.379747,0.720911 -0.379747,1.21489c0,0.798076 0.455392,1.55757 1.3677,2.27848c1.97438,1.55757 2.16425,3.37914 2.16425,3.8362v0.0756532v0.0385671v2.27848c0,0.22844 0.151306,0.379747 0.379747,0.379747c0.22844,0 0.379747,-0.151306 0.379747,-0.379747v-2.27848v-0.0756532c0,-0.34118 0.151306,-2.27848 2.20284,-3.87304c0.910785,-0.720911 1.3677,-1.48041 1.3677,-2.27848c0,-0.531038 -0.189873,-0.949367 -0.418329,-1.25347c0.568139,-0.304094 0.947886,-0.949367 0.947886,-1.74744l-3.8e-05,-0.0002202Zm-1.67028,1.21489c-0.22844,0 -0.379747,0.151306 -0.379747,0.379747c0,0.151306 0.11422,0.304094 0.265527,0.379747c0.151306,0.151306 0.493975,0.56962 0.493975,1.06359c0,0.531038 -0.379747,1.10066 -1.06359,1.67028c-0.835139,0.645266 -1.3677,1.32911 -1.74744,1.97438v-2.88668l1.40476,-1.40476c0.151306,-0.151306 0.151306,-0.379747 0,-0.531038c-0.151306,-0.151306 -0.379747,-0.151306 -0.531038,0l-0.873722,0.873721v-1.63322l1.40476,-1.40476c0.151306,-0.151306 0.151306,-0.379747 0,-0.531038c-0.151306,-0.151306 -0.379747,-0.151306 -0.531038,0l-0.873722,0.873722v-1.74744l1.40476,-1.40476c0.151306,-0.151306 0.151306,-0.379747 0,-0.531038c-0.151306,-0.151306 -0.379747,-0.151306 -0.531038,0l-0.910785,0.796595v-1.86015c0,-0.22844 -0.151306,-0.379747 -0.379747,-0.379747c-0.228441,0 -0.379747,0.151306 -0.379747,0.379747v1.86015l-0.835139,-0.835139c-0.151306,-0.151306 -0.379747,-0.151306 -0.531038,0c-0.151306,0.151306 -0.151306,0.379747 0,0.531038l1.3677,1.3677v1.74744l-0.835139,-0.835139c-0.151306,-0.151306 -0.379747,-0.151306 -0.531038,0c-0.151291,0.151306 -0.151306,0.379747 0,0.531038l1.3677,1.3677v1.63322l-0.835139,-0.835139c-0.151306,-0.151306 -0.379747,-0.151306 -0.531038,0c-0.151306,0.151306 -0.151306,0.379747 0,0.531038l1.3677,1.3677v2.8481c-0.379747,-0.645266 -0.910785,-1.29053 -1.67028,-1.93732c-0.720911,-0.56962 -1.06359,-1.10066 -1.06359,-1.67028c0,-0.683848 0.56962,-1.13924 0.56962,-1.13924c0.11422,-0.11422 0.189873,-0.265527 0.11422,-0.418329c-0.0756532,-0.151306 -0.189873,-0.265526 -0.34118,-0.265526c-0.493975,0 -0.910785,-0.531038 -0.910785,-1.21489c0,-0.531038 0.265527,-1.02501 0.683848,-1.17782c0.11422,-0.0385671 0.189873,-0.11422 0.22844,-0.22844c0.0385671,-0.11422 0.0385671,-0.228441 -0.0385671,-0.34118c-0.151306,-0.22844 -0.228441,-0.493975 -0.228441,-0.759494c0,-0.493975 0.228441,-0.949367 0.608203,-1.13924c0.189873,-0.0756532 0.265527,-0.304094 0.189873,-0.455392c-0.0385671,-0.151306 -0.0756532,-0.34118 -0.0756532,-0.493975c0,-0.645266 0.418329,-1.21489 0.910785,-1.21489h0.0756532c0.11422,0 0.228441,-0.0385671 0.304094,-0.11422c0.0756531,-0.0756531 0.11422,-0.189873 0.11422,-0.304094v-0.0756532c0,-0.645266 0.418329,-1.21489 0.910785,-1.21489c0.493975,0 0.910785,0.531038 0.910785,1.21489v0.0756532c0,0.11422 0.0385671,0.189873 0.11422,0.265527c0.0756532,0.0756531 0.189873,0.11422 0.304094,0.11422c0.493975,0 0.910785,0.531038 0.910785,1.21489c0,0.151306 -0.0385671,0.304094 -0.0756532,0.418329c-0.0385671,0.11422 0,0.189873 0.0385671,0.304094c0.0385671,0.0756531 0.151306,0.151306 0.22844,0.189873c0.418329,0.11422 0.759494,0.608203 0.759494,1.17782c0,0.265527 -0.0756532,0.531038 -0.22844,0.759494c-0.0756532,0.11422 -0.0756532,0.228441 -0.0385671,0.34118c0.0385671,0.11422 0.11422,0.189873 0.228441,0.228441c0.379747,0.151306 0.683848,0.608202 0.683848,1.13924c-0.0830696,0.833658 -0.499899,1.36473 -0.993873,1.36473l-9.88e-05,-0.0001139Z"></path></g></g></svg>