<svg id="Ebene_1" data-name="Ebene 1" xmlns="http://www.w3.org/2000/svg" viewBox="0 0 30 30"><g id="Page-1"><g id="Artboard"><g id="np_vegetables_712835_000000" data-name="np vegetables 712835 000000"><path id="Shape" d="M17.77,5.64c-1.14.62-1.86,1-2.31,1.28V5.31c.41-.26,1.59-.92,2.35-1.32A.4.4,0,0,0,18,3.47a.42.42,0,0,0-.53-.14c-.95.51-1.56.88-2,1.1V2.81l1.67-.95a.41.41,0,0,0,.15-.52.42.42,0,0,0-.53-.14c-.57.33-1,.55-1.29.73V.87A.36.36,0,0,0,15.08.5a.35.35,0,0,0-.38.37V1.93L13.41,1.2a.4.4,0,0,0-.54.14.38.38,0,0,0,.16.52l1.67,1V4.43c-.42-.22-1-.59-2-1.1a.39.39,0,0,0-.53.14.37.37,0,0,0,.15.52c.76.44,1.94,1.1,2.36,1.32V6.92c-.46-.25-1.18-.66-2.32-1.32a.38.38,0,0,0-.53.15.36.36,0,0,0,.15.51c.87.48,2.24,1.25,2.7,1.54v.7A2.71,2.71,0,0,0,13,9.38a2.08,2.08,0,0,0-.57,1.73l.19,2.53,1.14,14.13c0,.59.34,1.73,1.37,1.73s1.32-1.1,1.36-1.69l1.37-16.67a2.06,2.06,0,0,0-.57-1.72,3,3,0,0,0-1.75-.89V7.84c.46-.3,1.83-1,2.7-1.51a.39.39,0,0,0,.15-.51.42.42,0,0,0-.57-.18ZM15.68,27.71s0,1-.6,1-.61-1-.61-1L14.24,25h1.67ZM16,24.29H14.16L14,21.9h2.16Zm.26-3.12H13.94l-.19-2.39h2.69Zm.27-3.09H13.67l-.19-2.38h3.19ZM16.75,15H13.44l-.15-1.43-.07-1H16.9Zm-.08-5.1A1.36,1.36,0,0,1,17.05,11l-.08.8H13.18L13.1,11a1.45,1.45,0,0,1,.38-1.14,2.16,2.16,0,0,1,1.6-.66,2,2,0,0,1,1.59.66Z"/><path d="M10.63,17.53a2,2,0,0,0-.8-1.67,1.86,1.86,0,0,0,.16-.79,2,2,0,0,0-1-1.79c0-.11,0-.19,0-.3a1.9,1.9,0,0,0-1.29-1.9A1.82,1.82,0,0,0,6.08,9.33,1.82,1.82,0,0,0,4.41,11,1.89,1.89,0,0,0,3,13a1.71,1.71,0,0,0,0,.45,2.09,2.09,0,0,0-.76,1.64,2,2,0,0,0,.15.79,2.06,2.06,0,0,0-.8,1.67,2,2,0,0,0,1,1.79,2.28,2.28,0,0,0-.38,1.21,3,3,0,0,0,1.37,2.28,5.18,5.18,0,0,1,2.16,3.84V29a.38.38,0,1,0,.76,0V26.69a5.26,5.26,0,0,1,2.21-3.88,3,3,0,0,0,1.36-2.27,2.15,2.15,0,0,0-.41-1.26,1.93,1.93,0,0,0,.94-1.74ZM9,18.75a.36.36,0,0,0-.38.38.47.47,0,0,0,.27.38,1.64,1.64,0,0,1,.49,1.06,2.41,2.41,0,0,1-1.06,1.67,6.77,6.77,0,0,0-1.75,2V21.33l1.41-1.4a.37.37,0,0,0,0-.53.35.35,0,0,0-.53,0l-.88.87V18.64l1.41-1.41a.37.37,0,1,0-.53-.53l-.88.87V15.83l1.41-1.41a.37.37,0,0,0-.53-.53l-.88.8V12.83a.38.38,0,0,0-.76,0v1.86l-.83-.88a.37.37,0,0,0-.53,0,.35.35,0,0,0,0,.53l1.36,1.37v1.75l-.83-.8a.37.37,0,0,0-.53,0,.35.35,0,0,0,0,.53l1.36,1.37v1.63l-.83-.79a.37.37,0,0,0-.53.53l1.36,1.36v2.85A7.77,7.77,0,0,0,4.1,22.2,2.2,2.2,0,0,1,3,20.53a1.59,1.59,0,0,1,.57-1.13A.36.36,0,0,0,3.72,19a.41.41,0,0,0-.34-.27,1.09,1.09,0,0,1-.91-1.21,1.22,1.22,0,0,1,.69-1.18.34.34,0,0,0,.22-.23.37.37,0,0,0,0-.34A1.33,1.33,0,0,1,3.12,15a1.27,1.27,0,0,1,.6-1.14.35.35,0,0,0,.19-.46c-.11-.07-.11-.26-.11-.41,0-.65.42-1.22.91-1.22h.07a.47.47,0,0,0,.31-.11.47.47,0,0,0,.11-.31v-.07c0-.65.42-1.22.91-1.22s.91.54.91,1.22v.07a.34.34,0,0,0,.12.27.4.4,0,0,0,.3.11c.5,0,.91.54.91,1.22a1.75,1.75,0,0,1-.07.42.4.4,0,0,0,0,.3c0,.08.15.15.22.19A1.21,1.21,0,0,1,9.3,15a1.37,1.37,0,0,1-.22.76.38.38,0,0,0,.19.57A1.22,1.22,0,0,1,10,17.5c-.08.72-.49,1.25-1,1.25Z"/><path d="M28.25,17.53a2,2,0,0,0-.8-1.67,1.86,1.86,0,0,0,.16-.79,2,2,0,0,0-1-1.79c0-.11,0-.19,0-.3a1.9,1.9,0,0,0-1.29-1.9A1.82,1.82,0,0,0,23.7,9.33,1.82,1.82,0,0,0,22,11,1.89,1.89,0,0,0,20.62,13a1.71,1.71,0,0,0,0,.45,2.09,2.09,0,0,0-.76,1.64,2,2,0,0,0,.15.79,2.06,2.06,0,0,0-.8,1.67,2,2,0,0,0,1,1.79,2.28,2.28,0,0,0-.38,1.21,3,3,0,0,0,1.37,2.28,5.18,5.18,0,0,1,2.16,3.84V29a.38.38,0,0,0,.76,0V26.69a5.26,5.26,0,0,1,2.21-3.88,3,3,0,0,0,1.36-2.27,2.09,2.09,0,0,0-.42-1.26,1.91,1.91,0,0,0,.95-1.74Zm-1.67,1.22a.36.36,0,0,0-.38.38.47.47,0,0,0,.27.38A1.64,1.64,0,0,1,27,20.57a2.41,2.41,0,0,1-1.06,1.67,6.77,6.77,0,0,0-1.75,2V21.33l1.41-1.4a.37.37,0,0,0,0-.53.36.36,0,0,0-.54,0l-.87.87V18.64l1.41-1.41a.37.37,0,0,0,0-.53.38.38,0,0,0-.54,0l-.87.87V15.83l1.41-1.41a.37.37,0,0,0,0-.53.38.38,0,0,0-.54,0l-.91.8V12.83a.36.36,0,0,0-.38-.38.36.36,0,0,0-.38.38v1.86l-.83-.84a.37.37,0,0,0-.53.53l1.37,1.37V17.5l-.84-.84a.37.37,0,0,0-.53.53l1.37,1.37v1.63l-.84-.83a.37.37,0,0,0-.53.53l1.37,1.37v2.85a7.6,7.6,0,0,0-1.67-1.94,2.23,2.23,0,0,1-1.07-1.67,1.63,1.63,0,0,1,.57-1.14.36.36,0,0,0,.12-.42.41.41,0,0,0-.34-.26c-.5,0-.91-.54-.91-1.22a1.23,1.23,0,0,1,.68-1.18.38.38,0,0,0,.19-.57A1.38,1.38,0,0,1,20.7,15a1.26,1.26,0,0,1,.61-1.14.34.34,0,0,0,.19-.45,2.09,2.09,0,0,1-.08-.49c0-.65.42-1.22.92-1.22h.07a.38.38,0,0,0,.42-.42v-.07c0-.65.42-1.22.91-1.22s.91.53.91,1.22v.07a.34.34,0,0,0,.12.27.42.42,0,0,0,.3.11c.49,0,.91.53.91,1.22a1.36,1.36,0,0,1-.08.42.46.46,0,0,0,0,.3.62.62,0,0,0,.23.19,1.2,1.2,0,0,1,.76,1.18,1.33,1.33,0,0,1-.23.76.41.41,0,0,0,0,.34.37.37,0,0,0,.23.23,1.22,1.22,0,0,1,.69,1.14c-.09.83-.5,1.36-1,1.36Z"/></g></g></g></svg>