<?xml version="1.0" encoding="UTF-8"?>
<svg viewBox="0 0 30 30" version="1.1" xmlns="http://www.w3.org/2000/svg" xmlns:xlink="http://www.w3.org/1999/xlink">
    <g id="Page-1" stroke="none" stroke-width="1" fill="none" fill-rule="evenodd">
        <g id="Outlines_black-Copy" transform="translate(-660.000000, -114.000000)">
            <g id="Group-3" transform="translate(3.000000, 114.000000)" fill="#000000" fill-rule="nonzero">
                <path d="M668.619022,25.8292683 L670.21738,17.238371 C670.34575,16.5965205 670.466521,15.9033044 670.590691,15.1103392 C670.665596,14.6319832 670.738223,14.1415167 670.830753,13.4962298 C670.816676,13.5943994 671.004535,12.2766598 671.055066,11.9301618 C671.09701,11.6425446 671.343645,11.4292683 671.634305,11.4292683 L671.774793,11.4292683 C672.070006,11.4292683 672.319021,11.6490945 672.355638,11.9420284 C672.592826,13.8395323 672.874134,15.6504524 673.192393,17.2417999 L674.856631,25.8292683 L681.534272,25.8292683 L685.132921,4.17073171 L680.579415,4.17073171 L679.381284,13.621738 C679.325378,14.1488462 679.265398,14.7030802 679.191189,15.3803996 C679.149258,15.7631048 679.004043,17.0818841 678.994705,17.1668678 C678.825876,18.7032055 678.715282,19.735103 678.608877,20.7839597 C678.578556,21.0828367 678.326911,21.3102439 678.0265,21.3102439 L677.886012,21.3102439 C677.60142,21.3102439 677.358065,21.1055587 677.309303,20.8251753 C677.250748,20.4884856 677.203903,20.2186382 677.09853,19.6112822 C676.572069,16.5768188 676.338151,15.2488447 676.049725,13.6848506 L673.972699,4.17073171 L669.857842,4.17073171 L667.785136,13.6631995 C667.59885,14.7032979 667.409056,15.7758279 667.153266,17.2306349 C667.047918,17.8300471 667.047918,17.8300471 666.942556,18.4300271 C666.731796,19.6301879 666.638118,20.1629773 666.521007,20.826606 C666.471645,21.1063275 666.228592,21.3102439 665.944549,21.3102439 L665.804061,21.3102439 C665.503981,21.3102439 665.2525,21.0833225 665.221772,20.7848195 C665.119527,19.7915794 665.033287,18.9964214 664.835882,17.2066123 C664.638165,15.4139823 664.551722,14.6169453 664.450659,13.6336123 L663.251139,4.17073171 L658.282489,4.17073171 L662.081063,25.8292683 L668.619022,25.8292683 Z M671.366869,17.4602388 L669.681015,26.5217022 C669.629436,26.7989416 669.387521,27 669.105524,27 L661.589427,27 C661.30515,27 661.061969,26.7957574 661.012861,26.5157549 L657.008959,3.68648657 C656.946125,3.32822455 657.221794,3 657.585524,3 L663.766988,3 C664.061815,3 664.310631,3.21926697 664.347707,3.5117536 L665.613667,13.5000585 C665.715365,14.4879883 665.801229,15.2799485 665.9964,17.0496436 C666.256208,15.571977 666.446195,14.4983531 666.637043,13.4351494 L668.814604,3.46051523 C668.873295,3.19166869 669.111321,3 669.3865,3 L674.444061,3 C674.719239,3 674.957265,3.19166869 675.015957,3.46051523 L677.19726,13.4537283 C677.39917,14.547405 677.573183,15.5189216 677.83414,17.0102432 C677.857621,16.7968475 677.988079,15.6119747 678.027421,15.2528931 C678.101495,14.5768077 678.161339,14.0238392 678.218464,13.4863877 L679.482854,3.5117536 C679.51993,3.21926697 679.768746,3 680.063573,3 L685.823573,3 C686.185175,3 686.460291,3.32459927 686.401022,3.68131127 L682.607852,26.5105796 C682.560932,26.7929683 682.316663,27 682.030402,27 L674.373817,27 C674.09347,27 673.852482,26.8012315 673.799143,26.526005 L672.043721,17.4679704 C671.923918,16.8689544 671.809351,16.2399223 671.700365,15.5876407 C671.590057,16.2744535 671.481129,16.8891733 671.366869,17.4602388 Z" id="W-Copy-2"></path>
            </g>
            <g id="Slices" transform="translate(0.000000, 114.000000)"></g>
        </g>
    </g>
</svg>