<svg id="Layer_1" data-name="Layer 1" xmlns="http://www.w3.org/2000/svg" viewBox="0 0 30 30"><title>Zeichenfläche 1</title><path d="M11.7,13.5a.55.55,0,0,0-.6-.4l-1,.2-.3-1.4a.51.51,0,1,0-1,.2l.3,1.4-1.2.3-.3-1.5a.44.44,0,0,0-.6-.4.55.55,0,0,0-.4.6L7,13.9l-1.2.2a.55.55,0,0,0-.4.6c0,.2.3.4.5.4H6l3.4-.7.1.3c0,.2.3.4.5.4h.1a.55.55,0,0,0,.4-.6l-.1-.3,1-.2A.38.38,0,0,0,11.7,13.5Z"/><path d="M25.1,15.6a.55.55,0,0,0-.6-.4l-2.1.5-.1-.7a.51.51,0,0,0-1,.2l.1.7-2.3.5a.55.55,0,0,0-.4.6.66.66,0,0,0,.5.4h.1l2.3-.5.2,1.2-1.4.3a.51.51,0,0,0,.2,1l1.9-.4a.43.43,0,0,0,.4-.4h0v-.2h0l-.3-1.7,2.1-.5C25,16.1,25.2,15.8,25.1,15.6Z"/><path d="M17.3,20.6a.49.49,0,0,0-.6.3l-.5,1.6-1.1-.4,1-3.3a.5.5,0,0,0-.9-.4v.1l-1.6,5.2a.47.47,0,0,0,.9.3l.3-1,2.1.7a.47.47,0,0,0,.3-.9h0l.5-1.6A.62.62,0,0,0,17.3,20.6Z"/><path d="M27.33,15.18a3,3,0,0,0-1.68-2.65A3,3,0,0,0,23,7.67a3,3,0,0,0-4.73-3,3,3,0,0,0-5.6-.23A3,3,0,0,0,7.69,7.2a3,3,0,0,0-3.08,4.74,3,3,0,0,0-.26,5.53A3,3,0,0,0,7,22.33a3,3,0,0,0,4.73,3,3,3,0,0,0,5.6.23,3,3,0,0,0,4.94-2.76,3,3,0,0,0,3.08-4.74A3,3,0,0,0,27.33,15.18ZM21,5.38A2,2,0,0,1,21.81,8c-.13.33-.13.53.07.7s.4.11.65.07a2,2,0,0,1,2,3.44l-.18.14-8.65,2,2.68-8.51A2,2,0,0,1,21,5.38ZM9.67,5a2,2,0,0,1,2.69.61c.28.32.51.35.69.29s.28-.15.33-.53a2,2,0,0,1,4,.17.76.76,0,0,1,0,.16l-2.63,8.36L8.94,7.82s0,0,0-.05A2,2,0,0,1,9.67,5Zm-6,9.8a2,2,0,0,1,1.82-2.05s.55-.08.61-.39.05-.31-.32-.62A2,2,0,0,1,8.05,8.38l.07,0,5.93,6.32-8.7,2a.55.55,0,0,0-.17,0A2,2,0,0,1,3.67,14.8ZM9,24.62A2,2,0,0,1,8.19,22c.18-.49,0-.66-.06-.77s-.25-.16-.66,0a2,2,0,0,1-2-3.44.42.42,0,0,0,.14-.06l8.71-2L11.63,24.1l0,0A2,2,0,0,1,9,24.62ZM20.33,25a2,2,0,0,1-2.69-.61c-.28-.33-.48-.39-.66-.34s-.23.17-.36.58a2,2,0,0,1-4-.17v-.08L15.23,16l5.86,6.24A2,2,0,0,1,20.33,25Zm4.18-7.75c-.48.05-.69.16-.72.4s.1.36.43.61A2,2,0,0,1,22,21.62l-.12-.05L16,15.32l8.88-2a2,2,0,0,1-.34,4Z"/></svg>