<svg xmlns="http://www.w3.org/2000/svg" viewBox="0 0 30 30"><path d="M6.5 24c-.1 0-.2 0-.2-.1-.2 0-.3-.2-.3-.4v-7c0-.2.1-.4.3-.4.2-.1.4-.1.5 0l3 2c.1.1.2.2.2.4v3c0 .2-.1.3-.2.4l-3 2c-.1.1-.2.1-.3.1zm.5-6.6v5.1l2-1.3v-2.5l-2-1.3z"/><path d="M21.5 26c-.1 0-.3-.1-.4-.1L17.3 22H9.5a.47.47 0 0 1-.5-.5.47.47 0 0 1 .5-.5h8c.1 0 .3.1.4.1l3.6 3.6 7.3-8.2L20 9.2 13.2 16l.5.7c.3.3.4.8.2 1.2s-.5.8-1 .8l-3.4.3c-.2 0-.5-.2-.5-.5 0-.2.2-.5.5-.5l3.4-.3c.1 0 .1-.1.2-.1 0 0 0-.1-.1-.2l-.8-1c-.2-.2-.1-.5 0-.7l7.5-7.5c.2-.2.5-.2.7 0l9.5 8c.1.1.2.2.2.3s0 .3-.1.4l-8 9c-.2 0-.3.1-.5.1z"/><path d="M12.5 16.5c-.1 0-.2 0-.3-.1l-1.3-1c-.6-.6-.9-1.4-.9-2.2s.3-1.6.9-2.1l5.8-5.8c.8-.8 2-1.3 3.1-1.3s2.3.5 3.1 1.3l2.2 2.9c.5.5.8 1.3.8 2.1 0 .7-.2 1.3-.6 1.8 0 .2-.2.4-.5.4h-.1a.55.55 0 0 1-.5-.3c-.1-.2 0-.4.1-.5.4-.4.6-.9.6-1.4s-.2-1-.6-1.4L22.2 6c-1.3-1.3-3.5-1.3-4.8 0l-5.8 5.8c-.4.4-.6.9-.6 1.4s.2 1 .6 1.4l1.2 1c.2.2.3.5.1.7a.76.76 0 0 1-.4.2zM.5 26a.47.47 0 0 1-.5-.5V23c0-3.6 2.4-6 6-6a.47.47 0 0 1 .5.5.47.47 0 0 1-.5.5c-3.1 0-5 1.9-5 5v2.5a.47.47 0 0 1-.5.5zm2 0a.47.47 0 0 1-.5-.5v-2C2 21.3 3.5 20 6.1 20a.47.47 0 0 1 .5.5.47.47 0 0 1-.5.5c-1.4 0-3.1.4-3.1 2.5v2a.47.47 0 0 1-.5.5zm2 0a.47.47 0 0 1-.5-.5v-2c0-.4.2-1.4 2.1-1.5a.47.47 0 0 1 .5.5.47.47 0 0 1-.5.5c-.2 0-1.1.1-1.1.5v2a.47.47 0 0 1-.5.5z"/></svg>