<svg xmlns="http://www.w3.org/2000/svg" viewBox="0 0 30 30"><path d="M14.9 24c-2.3 0-4.5-.9-6-2.4s-2.3-3.4-2.3-5.5c0-2.3 1.1-4.5 3-6 0-.1.1-.2.1-.3.3-1.3 1-4.8 3-4.8h4.6c2.1 0 2.8 3.5 3 4.8 0 .1.1.2.2.3 1.8 1.4 2.9 3.5 3 5.7.1 2-.7 3.9-2.1 5.4-1.6 1.7-4 2.8-6.4 2.8h-.1zM12.7 6c-.6 0-1.4.7-2 4-.1.3-.3.7-.6.9-1.7 1.3-2.6 3.2-2.6 5.2 0 1.8.7 3.5 2 4.8 1.4 1.4 3.4 2.2 5.5 2.1 2.1 0 4.2-.9 5.6-2.5 1.3-1.3 1.9-3 1.9-4.7-.1-1.9-1-3.7-2.6-5-.3-.2-.5-.5-.6-.9-.7-3.3-1.5-4-2-4h-4.6zM15 30a.47.47 0 0 1-.5-.5v-4a.47.47 0 0 1 .5-.5.47.47 0 0 1 .5.5v4a.47.47 0 0 1-.5.5zm-7-2c-.1 0-.2 0-.3-.1-.2-.2-.3-.5-.1-.7l2-3c.2-.2.5-.3.7-.1s.3.5.1.7l-2 3c-.1.1-.2.2-.4.2zm-5-5.5c-.2 0-.4-.1-.4-.3-.1-.2 0-.5.2-.7l3-1.5c.2-.1.5 0 .7.2.1.2 0 .5-.2.7l-3 1.5c-.1.1-.2.1-.3.1z"/><path d="M18 6a.47.47 0 0 1-.5-.5V1.9c0-.1-.1-.3-.1-.4l-.4-.4c-.2 0-.3-.1-.4-.1h-3.2c-.1 0-.3.1-.4.1l-.4.4c-.1.1-.1.2-.1.4v3.6a.47.47 0 0 1-.5.5.47.47 0 0 1-.5-.5V1.9c0-.4.2-.8.4-1.1l.4-.4c.3-.2.7-.4 1.1-.4h3.2c.4 0 .8.2 1.1.4l.4.4c.3.3.4.7.4 1.1v3.6a.47.47 0 0 1-.5.5zm4 22c-.2 0-.3-.1-.4-.2l-2-3c-.2-.2-.1-.5.1-.7s.5-.1.7.1l2 3c.2.2.1.5-.1.7-.1.1-.2.1-.3.1zm5-5.5c-.1 0-.2 0-.2-.1l-3-1.5c-.2-.1-.3-.4-.2-.7.1-.2.4-.3.7-.2l3 1.5c.2.1.3.4.2.7a.55.55 0 0 1-.5.3z"/></svg>