<?xml version="1.0" encoding="utf-8"?>
<!-- Generator: Adobe Illustrator 23.0.1, SVG Export Plug-In . SVG Version: 6.00 Build 0)  -->
<svg version="1.1" id="Layer_1" xmlns="http://www.w3.org/2000/svg" xmlns:xlink="http://www.w3.org/1999/xlink" x="0px" y="0px"
	 viewBox="0 0 30 30" style="enable-background:new 0 0 30 30;" xml:space="preserve">
<g>
	<g>
		<path d="M19.4,29.7H10c-0.3,0-0.5-0.2-0.6-0.4c-2-4.7-0.9-16.9-0.2-20c0.7-3.1,5.2-7.8,6.1-8.6c0.2-0.2,0.5-0.3,0.8-0.1l3.7,2.2
			C19.8,2.7,20,2.9,20,3.1c0.1,0.2,0,0.4-0.1,0.6l-2,3.3c0.6,0.7,2.2,2.8,3.2,4.6c1.9,3.6-0.5,15.2-0.9,17.5
			C20.1,29.4,19.8,29.7,19.4,29.7z M19.1,28.9C19.1,28.9,19.1,28.9,19.1,28.9C19.1,28.9,19.1,28.9,19.1,28.9z M10.2,28.7h9
			c1.1-5,2.4-13.9,1-16.6c-1.1-2.1-3.3-4.7-3.3-4.8L16.7,7l2.3-3.7l-3.2-1.9c-1,1-5,5.3-5.6,8C9.4,12.4,8.4,24.1,10.2,28.7z
			 M19.1,3.1C19.1,3.1,19.1,3.1,19.1,3.1L19.1,3.1z"/>
		<rect x="14.5" y="3" transform="matrix(0.4227 -0.9063 0.9063 0.4227 3.1788 17.0865)" width="1" height="6.1"/>
	</g>
	<path d="M11.5,24.9c-0.2,0-0.5-0.2-0.5-0.4c-1.3-7.5,0.5-15,0.6-15.3c0.1-0.3,0.3-0.4,0.6-0.4c0.3,0.1,0.4,0.3,0.4,0.6
		c0,0.1-1.8,7.5-0.6,14.9C12,24.6,11.8,24.8,11.5,24.9C11.5,24.9,11.5,24.9,11.5,24.9z"/>
</g>
</svg>
