<svg xmlns="http://www.w3.org/2000/svg" viewBox="0 0 30 30"><path d="M11.5 8.8c-4.4 0-8-2.1-8.4-5 0-.1 0-.4.3-.6 1.5-1.1 17-2.6 18.1-2.1l.3.1.1.3c.4 3.3-3.5 6.6-8.7 7.2-.6.1-1.2.1-1.7.1zM4.1 3.9c.5 2.6 4.5 4.3 9 3.8S21 4.6 20.9 2c-2.1-.2-15 1.1-16.8 1.9zm10.5 25.3c-1.9 0-3.7-.5-5.1-1.4-1.7-1.1-2.7-2.7-2.9-4.5 0-.1 0-.4.3-.6 1.6-1.1 14.8-1.8 16.1-1.3.3.1.4.4.4.5.2 1.8-.6 3.5-2.1 4.9s-3.5 2.2-5.7 2.4h-1zm-7-5.8c.2 1.4 1 2.6 2.4 3.5 1.5 1 3.4 1.4 5.4 1.2s3.8-.9 5.1-2.1c1.2-1.1 1.8-2.4 1.8-3.8-1.8-.3-13.1.4-14.7 1.2zm14.7-1.5z"/><path d="M22.4 24.6v-1c3-.1 5.4-2.1 5.8-4.7-1.6-.6-10.8-1.6-12.3-1.1-.1 1.3.4 2.6 1.3 3.6l-.9.6a6.31 6.31 0 0 1-1.5-4.5c0-.5.1-1.2 6-.7 8.4.7 8.3 1.6 8.3 1.9-.2 3.2-3.1 5.8-6.7 5.9zm-.5-10.5c-.7 0-1.4-.1-2.1-.2-3.3-.7-6-2.9-6.8-5.6l1-.3c.7 2.3 3 4.2 6 4.9 3.9.8 7.5-.8 8.3-3.7-1.1-.5-5.7-1.7-9.8-2.5l.2-1c1.5.3 10 2.1 10.6 3l.1.4c-.7 3-3.9 5-7.5 5zM1.8 20c-.4 0-.5-.2-.5-.3-1.2-2.7.2-6 3.2-7.4s6.5-.4 7.7 2.3c.2.4.4 1-4.1 3.1-4 1.9-5.6 2.3-6.3 2.3zm5.5-7.3c-.8 0-1.6.2-2.4.5C2.5 14.4 1.2 16.9 2 19c1.5-.3 8.1-3.2 9.1-4.2-.7-1.3-2.2-2.1-3.8-2.1z"/></svg>