<svg xmlns="http://www.w3.org/2000/svg" viewBox="0 0 30 30"><path d="M15.7 16.1h-.2l-1-.1v-.3c-.1-.1-.4-.5-.6-.8L11.6 12c-1.4-1.9-1.5-5.5-.9-6.5.2-.4.5-.5.7-.5.5 0 .8.5.8.6.5.9.7 1.2.9 1.3.1-.1.2-.3.3-.5.2-.4.4-.9.8-1.1.2-.1.4-.5.6-.8.4-.6.7-1.2 1.3-1.1s.7.8.8 1.5l.1 2.7 1.7-4 .1-.3.7-.2.2.3c.4.5.5 6.4-1.2 9.5-1.6 2.6-2.3 3.2-2.8 3.2zm-.4-.9h.3c.1-.1.7-.8 1.9-2.9 1-1.8 1.3-4.6 1.3-6.5-.3.8-.8 1.8-1.3 3-.2.4-.5.6-.9.5s-.6-.4-.6-.8c0-1.3 0-2.6-.2-3.5 0-.1 0-.3-.1-.3-.1.1-.1.2-.2.3-.2.3-.5.8-.8 1-.2.1-.3.5-.5.8-.2.5-.5 1.1-1.1 1.1-.5 0-1-.4-1.7-1.6-.2 1.1-.1 3.7 1 5.1l2.3 2.8c.3.4.5.8.6 1zm.5-1.4c-.4 0-.8-.4-1-.7-.1-.1-.2-.3-.3-.5-.4-.8-1.2-2.1-1.5-3.2-.1-.3.1-.5.3-.6.3-.1.5.1.6.3.3 1 1 2.2 1.4 3 .1.2.2.3.2.4l.5-2c.1-.3.3-.4.6-.4.3.1.4.3.4.6l-.6 2.4c0 .5-.3.7-.6.7z"/><path d="M29.8 20.6a.47.47 0 0 0-.5-.5h-1.1l-2.1-3.7c-.3-.7-1-1.2-1.8-1.2H6.2c-.8 0-1.5.5-1.8 1.2L2 20.2H.7a.47.47 0 0 0-.5.5.47.47 0 0 0 .5.5H2l2.4 4.5c.3.7 1 1.2 1.8 1.2h18.2c.8 0 1.5-.5 1.8-1.3l2.2-4.5h1c.2 0 .4-.2.4-.5zm-2.3.1l-1.2 2.5v-4.5l1.2 2zM4.3 23.4l-1.4-2.7 1.4-2.3v5zm21 1.6c0 .5-.4.9-.9.9H6.2c-.5 0-.9-.4-.9-.9v-8c0-.5.4-.9.9-.9h18.2c.5 0 .9.4.9.9v8z"/></svg>