<svg viewBox="0 0 30 30" xmlns="http://www.w3.org/2000/svg">
    <path
        d="M23.5 4.5c0-2.1-1-3-3.1-3H9.5c-2.3 0-3.3 1.1-3 3.5v0.8l2.9 4.9c0 0.1 0.1 0.2 0.1 0.2l0 17.5c0 0.3-1 0.3-1 0l0-17.4L5.6 6.3c0-0.1-0.1-0.2-0.1-0.3l0-0.9c-0.3-3 1.1-4.6 4-4.6h10.9c2.7 0 4.1 1.4 4.1 4v1.9l-1 0V5c0-0.3 0.2-0.5 0.5-0.5s0.5 0.2 0.5 0.5v1.4c0 0 0 0-1 0V4.5zM20.9 6.5c0 0.4 0 0.9 0 0.9 -0.1 1.6-1.8 2.4-4.5 2.3 -2.3-0.1-4.3-1.2-4.5-2.8 0 0 0 0 0-0.4H6.3l-2 3.8L9 10.7l16.7-0.2 -2-4H20.9zM20.9 5.5H24c0.2 0 0.4 0.1 0.4 0.3l2.5 5c0 0.1 0.1 0.1 0.1 0.2v18c0 0.3-0.2 0.5-0.5 0.5H9c-0.1 0-0.2 0-0.2-0.1l-5.5-3C3.1 26.4 3 26.2 3 26V11c0-0.1 0-0.2 0.1-0.2l2.5-5C5.6 5.6 5.8 5.5 6 5.5h5.9c0-0.4 0-1.3 0-1.5l1 0.4c0 0.4 0 2.4 0 2.4 0.1 1 1.6 1.7 3.5 1.9 2.2 0.2 3.4-0.3 3.5-1.4 0 0 0-2.5 0-2.9l1 0.4C20.9 5 20.9 5.1 20.9 5.5zM26 11.5L9 11.7l-5-0.4v14.5l5.1 2.8H26V11.5z" />
    <path
        d="M16.1 7c-2.4-0.2-4.4-1.5-4.2-3s2.3-2.3 4.7-2.1C19.5 2 21 3.3 20.9 4.8S18.5 7.2 16.1 7zM16.2 6.1c2 0.2 3.6-0.5 3.7-1.4 0-1.2-1.4-1.9-3.3-2S13 3.2 12.9 4.1C12.8 4.9 14.2 5.9 16.2 6.1z" />
</svg>
