<?xml version="1.0" encoding="UTF-8"?><svg version="1.1" viewBox="0 0 25 28" xmlns="http://www.w3.org/2000/svg" xmlns:xlink="http://www.w3.org/1999/xlink"><!--Generated by IJSVG (https://github.com/curthard89/IJSVG)--><g transform="matrix(1,0,0,1,-243,-31)"><path fill="#000" stroke="none" d="M23.2836,17.5426c-0.247918,-0.184722 -0.516507,-0.318391 -0.796009,-0.397382c0.967369,-1.0804 1.22015,-2.45243 0.669604,-3.72244c-0.408333,-0.941827 -1.18611,-1.59566 -2.01737,-1.74757c0.0911462,-0.252778 0.122743,-0.504342 0.0911462,-0.759547c-0.148263,-1.18247 -1.54585,-1.94444 -3.16462,-2.82672c-0.967369,-0.527427 -1.96632,-1.07187 -2.68091,-1.71111c-3.15964,-2.82918 -3.69444,-5.18062 -3.69818,-5.20147l-0.241839,-1.17637l-0.655044,1.00626c-0.0121529,0.0194444 -1.2894,1.9651 -3.50124,4.0712c-1.47778,1.40728 -2.17535,3.06737 -1.9651,4.67507c0.0802076,0.613729 0.297743,1.1946 0.616156,1.69288c-0.227257,-0.0170137 -0.447222,-0.02309 -0.655044,-0.0036456c-1.67708,0.155556 -3.2228,1.46928 -3.67733,3.12449c-0.358493,1.30642 -0.00607631,2.58611 0.968582,3.62507c-1.16667,0.393742 -2.49496,1.39272 -2.56909,3.48289c-0.0583333,1.62363 0.358493,2.87292 1.27117,3.81951c1.7099,1.77308 5.1016,2.49984 11.7093,2.50591h0.0546871c8.2628,0 11.5805,-1.53975 11.8247,-5.48333c0.140971,-2.3054 -0.436271,-4.11849 -1.58349,-4.97404l-6.53e-05,0.0003789Zm-16.9811,-7.91871c-0.168924,-1.28697 0.424138,-2.64808 1.66737,-3.83164c1.44374,-1.3757 2.49132,-2.6651 3.08439,-3.45489c0.450862,1.03541 1.46807,2.8 3.67391,4.77369c0.799649,0.714591 1.84965,1.28819 2.86683,1.84237c1.2651,0.689049 2.57273,1.40243 2.65782,2.08298c0.0352427,0.286807 -0.160415,0.633173 -0.580907,1.03056c-0.0170141,0.0109375 -0.0315965,0.0206597 -0.0486111,0.0315965c-0.550511,0.367018 -1.38177,0.922382 -3.22156,1.34895c-2.12918,0.493391 -4.64738,-0.341507 -6.86871,-1.07794c-0.663538,-0.219965 -1.2894,-0.426564 -1.87637,-0.590613c-0.714591,-0.40712 -1.23228,-1.22743 -1.35383,-2.15469l-0.00032667,-0.00036089Zm-3.74298,5.20396c0.348787,-1.27363 1.53368,-2.28474 2.81702,-2.40262c0.075348,-0.0072918 0.153126,-0.0097222 0.233333,-0.0097222c0.923627,0 2.23247,0.433844 3.61044,0.892018c2.3455,0.778991 5.00329,1.66006 7.40351,1.10348c2.01373,-0.46788 2.97257,-1.10712 3.54604,-1.48994c0.253994,-0.17014 0.438729,-0.292883 0.559036,-0.297743c0.583333,-0.0255208 1.20677,0.46424 1.52152,1.19218c0.419284,0.967369 0.171354,2.0295 -0.662325,2.84253c-6.86622,6.69511 -15.0705,3.29467 -17.6531,1.42066c-1.21893,-0.887164 -1.70747,-2.04045 -1.3757,-3.2508l0.00018667,-3.73e-05Zm21.3208,7.62844c-0.173784,2.81338 -2.04773,4.55716 -10.8379,4.55716h-0.0546871c-6.22596,-0.0060763 -9.51564,-0.664751 -10.9984,-2.20329c-0.727938,-0.754693 -1.04393,-1.74029 -0.995307,-3.10016c0.0789942,-2.21667 1.95661,-2.64566 2.52171,-2.72465c2.05626,1.4401 5.17471,2.62985 8.59818,2.62985c3.05399,0 6.34853,-0.951564 9.34298,-3.5084c0.426564,-0.134895 0.851916,-0.0583333 1.23595,0.226041c0.862836,0.644093 1.30763,2.18506 1.18732,4.12347l0.0001183,-1.87e-05Z" transform="matrix(1,0,0,1,242.971,30.9982)"></path></g></svg>