<svg xmlns="http://www.w3.org/2000/svg" viewBox="0 0 25 30"><path d="M21 4.5c0-2.055-.962-3-3.064-3H7c-2.33 0-3.268 1.077-3 3.518v.844l2.93 4.88a.5.5 0 0 1 .071.243V28.5c.008.276-.992.304-1 .028l.003-17.383L3.07 6.257A.5.5 0 0 1 3 6l.003-.927C2.674 2.1 4.07.5 7 .5h10.936C20.586.5 22 1.888 22 4.5v1.9h-1V5.018a.5.5 0 1 1 1 0v1.37c0 0 0 0-1 0V4.5zm-2.64 2l-.004.652c-.14 1.636-2.136 2.822-4.492 2.822-2.326 0-4.303-1.155-4.486-2.762-.003-.028-.006-.318-.008-.71H3.81l-1.776 3.55 4.467.45h16.69l-2-4h-2.83zm.002-1H21.5a.5.5 0 0 1 .447.276l2.496 4.99A.5.5 0 0 1 24.5 11v18a.5.5 0 0 1-.5.5H6.5a.5.5 0 0 1-.239-.061l-5.5-3A.5.5 0 0 1 .5 26V11a.5.5 0 0 1 .053-.224l2.5-5A.5.5 0 0 1 3.5 5.5h5.866l-.002-1.13h1l.007 2.727c.114 1 1.616 1.876 3.493 1.876 1.9 0 3.4-.897 3.496-1.907a1701.44 1701.44 0 0 0 .004-2.696h1l-.001 1.13zm5.137 6l-17.05-.002-4.895-.5-.055.1v14.585L6.627 28.5H23.5v-17z"/><path d="M13.864 6.974c-2.45 0-4.5-1.097-4.5-2.568s2.05-2.568 4.5-2.568 4.5 1.097 4.5 2.568-2.05 2.568-4.5 2.568zm0-.856c1.968 0 3.5-.82 3.5-1.712s-1.532-1.712-3.5-1.712-3.5.82-3.5 1.712 1.532 1.712 3.5 1.712z"/></svg>