<?xml version="1.0" encoding="utf-8"?>
<!-- Generator: Adobe Illustrator 23.0.1, SVG Export Plug-In . SVG Version: 6.00 Build 0)  -->
<svg version="1.1" id="Ebene_1" xmlns="http://www.w3.org/2000/svg" xmlns:xlink="http://www.w3.org/1999/xlink" x="0px" y="0px"
	 viewBox="0 0 30 30" style="enable-background:new 0 0 30 30;" xml:space="preserve">
<style type="text/css">
	.st0{fill:#FFFFFF;stroke:#000000;stroke-linecap:round;stroke-miterlimit:10;}
</style>
<title>np_whipped-cream_622615_000000</title>
<desc>Created with Sketch.</desc>
<g id="Page-1">
	<g id="Artboard" transform="translate(-243.000000, -31.000000)">
		<g id="np_whipped-cream_622615_000000" transform="translate(242.971237, 30.998201)">
			<path id="Shape" d="M25.8,18.5c-0.2-0.2-0.5-0.3-0.8-0.4c1-1.1,1.2-2.5,0.7-3.7c-0.4-0.9-1.2-1.6-2-1.7c0.1-0.3,0.1-0.5,0.1-0.8
				c-0.1-1.2-1.5-1.9-3.2-2.8c-1-0.5-2-1.1-2.7-1.7c-3.2-2.8-3.4-4.4-3.7-5.2C13.9,1.4,13.3,2,13.3,2c0,0-1.3,2-3.5,4.1
				c-1.5,1.4-2.2,3.1-2,4.7c0.1,0.6,0.3,1.2,0.6,1.7c-0.2,0-0.4,0-0.7,0c-1.7,0.2-3.2,1.5-3.7,3.1c-0.4,1.3,0,2.6,1,3.6
				c-1.2,0.4-2.5,1.4-2.6,3.5c-0.1,1.6,0.4,2.9,1.3,3.8C5.5,28.3,8.9,29,15.5,29h0.1c8.3,0,11.6-1.5,11.8-5.5
				C27.5,21.2,26.9,19.4,25.8,18.5L25.8,18.5z M8.8,10.6C8.6,9.3,9.2,8,10.5,6.8c1.4-1.4,2.5-2.7,3.1-3.5c0.5,1,1.5,2.8,3.7,4.8
				c0.8,0.7,1.8,1.3,2.9,1.8c1.3,0.7,2.6,1.4,2.7,2.1c0,0.3-0.2,0.6-0.6,1c0,0,0,0,0,0c-0.6,0.4-1.4,0.9-3.2,1.3
				c-2.1,0.5-4.6-0.3-6.9-1.1c-0.7-0.2-1.3-0.4-1.9-0.6C9.4,12.4,8.9,11.6,8.8,10.6L8.8,10.6z M5.1,15.8c0.3-1.3,1.5-2.3,2.8-2.4
				c0.1,0,0.2,0,0.2,0c0.9,0,2.2,0.4,3.6,0.9c2.3,0.8,5,1.7,7.4,1.1c2-0.5,3-1.1,3.5-1.5c0.3-0.2,0.4-0.3,0.6-0.3
				c0.6,0,1.2,0.5,1.5,1.2c0.4,1,0.2,2-0.7,2.8C17.2,24.4,9,21,6.4,19.1C5.2,18.2,4.7,17,5.1,15.8L5.1,15.8z M26.4,23.5
				c-0.2,2.8-2,4.6-10.8,4.6h-0.1c-6.2,0-9.5-0.7-11-2.2c-0.7-0.8-1-1.7-1-3.1c0.1-2.2,2-2.6,2.5-2.7c2.1,1.4,5.2,2.6,8.6,2.6
				c3.1,0,6.3-1,9.3-3.5c0.4-0.1,0.9-0.1,1.2,0.2C26.1,20,26.5,21.5,26.4,23.5L26.4,23.5z"/>
		</g>
	</g>
</g>
<path class="st0" d="M8,15.5c0,0-1.3,2.7,2.1,3.4"/>
<path class="st0" d="M24.8,23c0,0-0.1,3-3.9,3.1"/>
<path class="st0" d="M12.5,7.2c0,0-3.3,2.1-1.6,4.2"/>
</svg>
