<?xml version="1.0" encoding="UTF-8"?><svg version="1.1" viewBox="0 0 30 30" xmlns="http://www.w3.org/2000/svg" xmlns:xlink="http://www.w3.org/1999/xlink"><g fill="#000"><path d="M18.5,30h-6.8c-1,0 -1.8,-0.8 -1.8,-1.8v-10.7c0,-3.6 0.8,-6.1 1.5,-8.3c0.5,-1.7 1,-3.1 1,-4.7c0,-0.8 -0.3,-1.1 -0.4,-1.1c0.1,-0.1 1.77636e-15,-0.3 1.77636e-15,-0.4v-1c0,-1 0.5,-2 1.5,-2h2.5c1,0 1.5,1 1.5,2v1c0,0.1 -0.1,0.3 -0.2,0.4c0,0 -0.3,0.4 -0.3,1.1c0,1.6 0.6,3 1.2,4.7c0.8,2.2 1.8,4.7 1.8,8.3v10.5c0,1 -0.5,2 -1.5,2Zm-5.5,-27.2c0.2,0.3 0.5,0.8 0.5,1.7c0,1.8 -0.5,3.4 -1.1,5c-0.7,2.1 -1.4,4.5 -1.4,8v10.8c0,0.4 0.3,0.8 0.8,0.8h6.8c0.3,0 0.5,-0.6 0.5,-1v-10.6c0,-3.4 -0.9,-5.8 -1.7,-7.9c-0.8,-1.7 -1.4,-3.3 -1.4,-5.1c0,-0.9 0.3,-1.4 0.5,-1.7v-0.8c0,-0.4 -0.2,-1 -0.5,-1h-2.5c-0.3,0 -0.5,0.6 -0.5,1v0.8Z"></path><path d="M19.5,18h-9c-0.3,0 -0.5,-0.2 -0.5,-0.5c0,-0.3 0.2,-0.5 0.5,-0.5h9c0.3,0 0.5,0.2 0.5,0.5c0,0.3 -0.2,0.5 -0.5,0.5Z"></path><path d="M19,26h-8.5c-0.3,0 -0.5,-0.2 -0.5,-0.5c0,-0.3 0.2,-0.5 0.5,-0.5h8.5c0.3,0 0.5,0.2 0.5,0.5c0,0.3 -0.2,0.5 -0.5,0.5Z"></path></g></svg>