<?xml version="1.0" encoding="UTF-8"?><svg version="1.1" viewBox="0 0 30 30" xmlns="http://www.w3.org/2000/svg" xmlns:xlink="http://www.w3.org/1999/xlink"><defs><path d="" id="a"></path></defs><g stroke-linecap="round" stroke-width="1" stroke="#000" fill="none" stroke-linejoin="round"><use xlink:href="#a"></use><use xlink:href="#a"></use></g><path fill="#000" d="M15,20c-3.6,0 -6.5,-3.1 -6.5,-6.9l1,-11.6c0,-0.3 0.2,-0.5 0.5,-0.5h10c0.3,0 0.5,0.2 0.5,0.5l1,11.6c0,0 0,0 0,0c0,3.8 -2.9,6.9 -6.5,6.9Zm-4.5,-18l-1,11.1c0,3.2 2.5,5.9 5.5,5.9c3,0 5.5,-2.6 5.5,-5.9l-1,-11.1h-9Z"></path><g fill="#000"><path d="M15,28.5c-0.3,0 -0.5,-0.2 -0.5,-0.5v-8.5c0,-0.3 0.2,-0.5 0.5,-0.5c0.3,0 0.5,0.2 0.5,0.5v8.5c0,0.3 -0.2,0.5 -0.5,0.5Z"></path><path d="M20,29h-10c-0.3,0 -0.5,-0.2 -0.5,-0.5c0,-0.3 0.2,-0.5 0.5,-0.5h10c0.3,0 0.5,0.2 0.5,0.5c0,0.3 -0.2,0.5 -0.5,0.5Z"></path><path d="M20.5,12h-11c-0.3,0 -0.5,-0.2 -0.5,-0.5c0,-0.3 0.2,-0.5 0.5,-0.5h11c0.3,0 0.5,0.2 0.5,0.5c0,0.3 -0.2,0.5 -0.5,0.5Z"></path></g></svg>