<svg xmlns="http://www.w3.org/2000/svg" xmlns:xlink="http://www.w3.org/1999/xlink" viewBox="0 0 30 30"><path d="M13.5 10h-8A1.5 1.5 0 0 1 4 8.5v-3A1.5 1.5 0 0 1 5.5 4h8A1.5 1.5 0 0 1 15 5.5v3a1.5 1.5 0 0 1-1.5 1.5zm-8-5a.5.5 0 0 0-.5.5v3a.5.5 0 0 0 .5.5h8a.5.5 0 0 0 .5-.5v-3a.5.5 0 0 0-.5-.5h-8z"/><path d="M4.11 27C1.938 27 .05 24.946.007 22.583.002 22.556 0 22.528 0 22.5c0-1.293.57-2.042 1.188-2.658l3.614-3.526c.17-.17.198-.265.198-.425V9.5a.5.5 0 1 1 1 0v6.39c0 .45-.148.8-.496 1.137L1.9 20.554c-.627.627-.875 1.142-.9 1.873a.6.6 0 0 1 .005.074c0 1.832 1.467 3.5 3.078 3.5.852 0 1.68-.336 2.243-.898l5.516-5.417c.735-.734 1.158-1.58 1.158-2.318V9.5a.5.5 0 1 1 1 0v7.868c0 1.37-.91 2.486-1.453 3.028L7.03 25.813C6.278 26.566 5.21 27 4.11 27z"/><use xlink:href="#B"/><path d="M10.436 22.1a.5.5 0 0 1-.354-.146 4.28 4.28 0 0 1-1.256-3.03 4.29 4.29 0 0 1 4.283-4.282.5.5 0 1 1 0 1c-1.8 0-3.283 1.472-3.283 3.282a3.26 3.26 0 0 0 .963 2.323.5.5 0 0 1 0 .708c-.097.098-.225.146-.353.146zM28.5 10h-8A1.5 1.5 0 0 1 19 8.5v-3A1.5 1.5 0 0 1 20.5 4h8A1.5 1.5 0 0 1 30 5.5v3a1.5 1.5 0 0 1-1.5 1.5zm-8-5a.5.5 0 0 0-.5.5v3a.5.5 0 0 0 .5.5h8a.5.5 0 0 0 .5-.5v-3a.5.5 0 0 0-.5-.5h-8z"/><path d="M19.23 27a4.08 4.08 0 0 1-4.09-3.996c-.003-.023-.005-.046-.005-.07a4.04 4.04 0 0 1 1.189-2.875l3.537-3.625c.1-.1.14-.256.14-.542V9.565a.5.5 0 1 1 1 0V15.9c0 .38-.05.866-.428 1.245l-3.537 3.625c-.568.568-.885 1.313-.9 2.11l.004.062c0 1.69 1.38 3.066 3.074 3.066.844 0 1.646-.327 2.217-.898l5.48-5.415c.692-.69 1.1-1.538 1.1-2.32V9.565a.5.5 0 1 1 1 0v7.803c0 1.045-.505 2.148-1.385 3.028l-5.48 5.415C21.38 26.566 20.32 27 19.23 27z"/><use xlink:href="#B" x="15.13"/><path d="M25.566 22.11a.5.5 0 0 1-.354-.146c-.8-.8-1.256-1.886-1.256-3.03a4.29 4.29 0 0 1 4.283-4.282.5.5 0 1 1 0 1c-1.8 0-3.283 1.472-3.283 3.282a3.26 3.26 0 0 0 .963 2.323.5.5 0 0 1 0 .708c-.096.098-.225.146-.353.146z"/><defs ><path id="B" d="M6.6 25.944a.5.5 0 0 1-.474-.342c-.313-.938-.98-1.95-1.878-2.85s-1.915-1.568-2.854-1.88a.5.5 0 0 1-.317-.632c.087-.262.37-.4.632-.317 1.084.36 2.237 1.114 3.246 2.122s1.76 2.157 2.12 3.24a.5.5 0 0 1-.316.632c-.054.02-.107.027-.16.027z"/></defs></svg>