<svg id="Layer_1" data-name="Layer 1" xmlns="http://www.w3.org/2000/svg" viewBox="0 0 30 30"><path d="M10.3,18.87a.69.69,0,0,0-.81.06l-7.11,6a11.55,11.55,0,0,0,6.26,3.77v0h0l2-9A.68.68,0,0,0,10.3,18.87ZM7.89,27.43a11,11,0,0,1-4-2.43l5.61-4.73Z"/><path d="M27.74,9.68A11.11,11.11,0,0,0,10.09,3.77a11.52,11.52,0,0,0-1.5.51A11.08,11.08,0,0,0,2.27,17.19,10.9,10.9,0,0,0,4.7,21.75l.32.37,6.75-5.7L9.88,25l.48.12a11,11,0,0,0,6-.23,15,15,0,0,0,1.39-.56,10.87,10.87,0,0,0,2.06-1.3A11,11,0,0,0,27.74,9.68ZM17.34,23.46a10,10,0,0,1-6.27.83l1.86-8.52a.69.69,0,0,0-.32-.75.71.71,0,0,0-.81.07L5.13,20.71a9.86,9.86,0,0,1-1.89-3.77,10,10,0,1,1,14.1,6.52Zm4.22-2.11a11,11,0,0,0-9-18,9.66,9.66,0,0,1,2-.73,10,10,0,0,1,7,18.69Z"/></svg>