<?xml version="1.0" encoding="UTF-8"?>
<svg viewBox="0 0 30 30" version="1.1" xmlns="http://www.w3.org/2000/svg" xmlns:xlink="http://www.w3.org/1999/xlink">
    <g id="Page-1" stroke="none" stroke-width="1" fill="none" fill-rule="evenodd">
        <g id="Outlines_black-Copy" transform="translate(-690.000000, -114.000000)">
            <g id="Group-3" transform="translate(3.000000, 114.000000)" fill="#000000" fill-rule="nonzero">
                <path d="M699.15664,25.8292683 L700.6925,22.1176099 C701.426231,20.3356915 701.751127,19.5118483 702.156394,18.3539412 C702.238568,18.1191587 702.460149,17.9619512 702.708897,17.9619512 L702.849385,17.9619512 C703.088744,17.9619512 703.303988,18.1076786 703.392883,18.3299177 C704.065028,20.0102795 704.501689,21.0437097 704.999146,22.1010404 L706.670421,25.8292683 L712.053499,25.8292683 L706.338194,15.2429651 C706.246621,15.0733458 706.244423,14.869516 706.332318,14.6979617 L711.725899,4.17073171 L706.633045,4.17073171 L705.429956,7.5256921 C704.871904,8.92082313 704.454175,10.0347665 704.036907,11.2865724 C703.95723,11.5256019 703.733539,11.6868293 703.48158,11.6868293 L703.341092,11.6868293 C703.106929,11.6868293 702.895297,11.5472799 702.803056,11.3320503 C702.798368,11.3211119 701.516746,8.24521944 701.184843,7.53270888 L699.789306,4.17073171 L694.405423,4.17073171 L699.78516,14.411676 C699.874818,14.5823511 699.874688,14.7862296 699.784812,14.9567901 L694.055602,25.8292683 L699.15664,25.8292683 Z M701.774663,22.5643035 L700.088809,26.6384498 C699.998255,26.8572892 699.784756,27 699.547921,27 L693.085482,27 C692.644861,27 692.362206,26.5315586 692.567616,26.1417465 L698.605505,14.6834803 L692.918488,3.8575923 C692.713728,3.46780902 692.996409,3 693.436702,3 L700.180116,3 C700.416715,3 700.630049,3.14242948 700.720755,3.36094966 L702.255931,7.06074997 C702.449758,7.47609336 702.967115,8.69684207 703.366152,9.64582085 C703.656888,8.83701615 703.967207,8.03062691 704.33543,7.11075436 L705.670064,3.38782753 C705.75346,3.15519709 705.973965,3 706.221092,3 L712.683531,3 C713.121199,3 713.404069,3.46276282 713.2045,3.85228215 L707.514663,14.9577472 L713.549844,26.1365471 C713.7604,26.5265543 713.477965,27 713.034751,27 L706.291336,27 C706.060684,27 705.851534,26.8645536 705.757184,26.6540815 L703.935345,22.5897349 C703.564698,21.8021109 703.226684,21.0259743 702.804184,19.9965456 C702.541047,20.6892586 702.23807,21.4388874 701.774663,22.5643035 Z" id="X-Copy-2"></path>
            </g>
            <g id="Slices" transform="translate(0.000000, 114.000000)"></g>
        </g>
    </g>
</svg>