<?xml version="1.0" encoding="UTF-8"?>
<svg viewBox="0 0 30 30" version="1.1" xmlns="http://www.w3.org/2000/svg" xmlns:xlink="http://www.w3.org/1999/xlink">
    <g id="Page-1" stroke="none" stroke-width="1" fill="none" fill-rule="evenodd">
        <g id="Outlines_black-Copy" transform="translate(-720.000000, -114.000000)">
            <g id="Group-3" transform="translate(3.000000, 114.000000)" fill="#000000" fill-rule="nonzero">
                <path d="M734.424978,25.8292683 L734.424978,18.5473171 L734.478564,18.3026482 L740.980572,4.17073171 L735.98645,4.17073171 L734.43947,8.55381817 C734.239563,9.13001993 734.079877,9.57902119 733.720954,10.5797819 C733.185044,12.0740254 732.947252,12.749633 732.650549,13.6397431 C732.570872,13.8787726 732.347181,14.04 732.095222,14.04 L731.954734,14.04 C731.702775,14.04 731.479084,13.8787726 731.399408,13.6397431 C731.239604,13.1603313 731.076712,12.6788877 730.871933,12.079081 C730.807038,11.8889995 730.455827,10.8629986 730.356297,10.5710577 C730.086448,9.77954767 729.879071,9.16155138 729.681764,8.55677275 L728.13375,4.17073171 L722.99914,4.17073171 L729.501149,18.3026482 L729.554734,18.5473171 L729.554734,25.8292683 L734.424978,25.8292683 Z M735.59571,26.4146341 C735.59571,26.7379228 735.333633,27 735.010344,27 L728.969369,27 C728.64608,27 728.384003,26.7379228 728.384003,26.4146341 L728.384003,18.6755195 L721.553686,3.83003474 C721.375255,3.44222084 721.658574,3 722.085466,3 L728.547905,3 C728.79609,3 729.017298,3.15650824 729.099899,3.39054432 L730.790211,8.18025262 C730.990162,8.79260462 731.196046,9.4061469 731.4644,10.193274 C731.563641,10.4843666 731.91474,11.510043 731.979873,11.7008214 C731.99631,11.7489635 732.012478,11.7963496 732.028399,11.8430395 C732.185104,11.396933 732.37016,10.878245 732.618954,10.1845498 C732.976519,9.18757393 733.135271,8.74119958 733.334447,8.16712969 L735.020301,3.39054432 C735.102902,3.15650824 735.32411,3 735.572295,3 L741.894247,3 C742.321139,3 742.604458,3.44222084 742.426027,3.83003474 L735.59571,18.6755195 L735.59571,26.4146341 Z M728.384003,18.5473171 L728.437588,18.791986 L728.384003,18.6755195 L728.384003,18.5473171 Z" id="Y-Copy-2"></path>
            </g>
            <g id="Slices" transform="translate(0.000000, 114.000000)"></g>
        </g>
    </g>
</svg>