<?xml version="1.0" encoding="UTF-8"?><svg version="1.1" viewBox="0 0 30 30" xmlns="http://www.w3.org/2000/svg" xmlns:xlink="http://www.w3.org/1999/xlink"><g fill="#000"><path d="M12.6,30h-7.1c-1.5,0 -2.5,-1.2 -2.5,-3v-15c0,-3.5 1.4,-4.4 2.5,-5.2c0.9,-0.7 1.5,-1.1 1.5,-2.8c0,-0.3 -0.1,-0.7 -0.3,-0.9c-0.1,-0.1 -0.2,-0.3 -0.2,-0.4v-0.7c0,-1.2 1,-2 2.5,-2c1,0 2.5,0.6 2.5,2v0.7c0,0.2 -0.1,0.3 -0.2,0.4c-0.2,0.2 -0.3,0.6 -0.3,0.9c0,1.7 0.6,2.1 1.5,2.8c1.1,0.8 2.5,1.7 2.5,5.2v15c0,1.9 -0.9,3 -2.4,3Zm-5.1,-27.6c0.2,0.2 0.5,0.9 0.5,1.6c0,2.2 -1,2.9 -2,3.6c-1,0.7 -2,1.5 -2,4.4v15c0,0.6 0.1,2 1.5,2h7.1c0.3,0 1.4,0 1.4,-2v-15c0,-2.9 -1,-3.7 -2,-4.4c-1,-0.7 -2,-1.4 -2,-3.6c0,-0.7 0.3,-1.4 0.5,-1.6v-0.4c0,-0.7 -1.1,-1 -1.5,-1c-0.4,0 -1.5,0.1 -1.5,1v0.4Z"></path><path d="M14.5,21h-11c-0.3,0 -0.5,-0.2 -0.5,-0.5v-5c0,-0.3 0.2,-0.5 0.5,-0.5h1.6c-0.1,-0.3 -0.1,-0.7 -0.1,-1c0,-2.2 1.8,-4 4,-4c2.2,0 4,1.8 4,4c0,0.3 0,0.7 -0.1,1h1.6c0.3,0 0.5,0.2 0.5,0.5v5c0,0.3 -0.2,0.5 -0.5,0.5Zm-10.5,-1h10v-4h-1.8c-0.2,0 -0.3,-0.1 -0.4,-0.2c-0.1,-0.1 -0.1,-0.3 0,-0.5c0.2,-0.4 0.3,-0.8 0.3,-1.3c0,-1.7 -1.3,-3 -3,-3c-1.7,0 -3,1.3 -3,3c0,0.4 0.1,0.9 0.3,1.3c0.1,0.2 0.1,0.3 0,0.5c-0.2,0.1 -0.4,0.2 -0.5,0.2h-1.9v4Z"></path><path d="M23.5,30h-3c-0.3,0 -0.5,-0.2 -0.5,-0.5c0,-3.5 -2,-7.8 -2.9,-8.6c-0.1,-0.2 -0.1,-0.4 -0.1,-0.6c0.1,-0.2 0.3,-0.3 0.5,-0.3h9c0.2,0 0.4,0.1 0.5,0.3c0.1,0.2 0,0.4 -0.1,0.5c-0.9,0.9 -2.9,5.2 -2.9,8.7c0,0.3 -0.2,0.5 -0.5,0.5Zm-2.5,-1h2c0.1,-2.9 1.5,-6.3 2.5,-8h-7c1,1.7 2.3,5.1 2.5,8Z"></path><path d="M24.5,24h-5c-0.3,0 -0.5,-0.2 -0.5,-0.5c0,-0.3 0.2,-0.5 0.5,-0.5h5c0.3,0 0.5,0.2 0.5,0.5c0,0.3 -0.2,0.5 -0.5,0.5Z"></path></g></svg>