<?xml version="1.0" encoding="utf-8"?>
<svg version="1.1" id="Ebene_1" xmlns="http://www.w3.org/2000/svg" xmlns:xlink="http://www.w3.org/1999/xlink" x="0px" y="0px"
	 viewBox="0 0 30 30" style="enable-background:new 0 0 30 30;" xml:space="preserve">
<g>
	<g>
		<path d="M15,11.6c-5.7,0-10.2-2.1-10.2-4.7c0-2.7,4.5-4.7,10.2-4.7s10.2,2.1,10.2,4.7C25.2,9.5,20.7,11.6,15,11.6z M15,3.1
			C9.5,3.1,5.8,5,5.8,6.8c0,1.8,3.7,3.7,9.2,3.7s9.2-1.9,9.2-3.7C24.2,5,20.5,3.1,15,3.1z"/>
	</g>
	<path d="M25.3,14H4.7c-1.1,0-2.2-0.5-2.8-1.5C1.2,11.7,1,10.5,1.4,9.4l2.5-7.5c0.3-1,1.3-1.7,2.4-1.7h17.5c1.1,0,2,0.7,2.4,1.7
		l2.5,7.5c0.4,1.1,0.2,2.2-0.5,3.2C27.5,13.5,26.4,14,25.3,14z M6.2,1.2c-0.6,0-1.2,0.4-1.4,1L2.3,9.7c-0.3,0.8-0.1,1.6,0.3,2.3
		c0.5,0.7,1.2,1,2,1h20.6c0.8,0,1.6-0.4,2-1c0.5-0.7,0.6-1.5,0.3-2.3l-2.5-7.5c-0.2-0.6-0.8-1-1.4-1H6.2z"/>
	<path d="M24,13.4c0,0-1,10.6-1.1,11.5c-0.1,0.6-1.7,3.8-7.9,3.8c-6.1,0-7.8-3.2-7.9-3.8C7,24.1,6,13.4,6,13.4l-1,0.1
		c0,0,1,10.6,1.1,11.5c0.1,1.3,2.4,4.7,8.9,4.7v0c0,0,0,0,0,0s0,0,0,0v0c6.4,0,8.7-3.4,8.9-4.7C24,24.2,25,13.5,25,13.5L24,13.4z"/>
</g>
</svg>
