<?xml version="1.0" encoding="UTF-8"?><svg version="1.1" viewBox="0 0 28 28" xmlns="http://www.w3.org/2000/svg" xmlns:xlink="http://www.w3.org/1999/xlink"><!--Generated by IJSVG (https://github.com/curthard89/IJSVG)--><g transform="matrix(1,0,0,1,-31,-61)"><g transform="matrix(1,0,0,1,31,61.2)"><path fill="#000" stroke="none" d="M5.21702,7.21324c0.277924,0.558304 0.793949,1.0902 1.54295,1.57557c0.81388,0.530068 1.88144,0.975843 3.08343,1.28467c1.31586,0.338799 2.74046,0.511014 4.23372,0.511014c1.49408,0 2.91965,-0.172197 4.23718,-0.510975c1.20116,-0.309709 2.26901,-0.755604 3.08405,-1.28501c0.749637,-0.486906 1.26525,-1.01881 1.54043,-1.57477c0.244472,-0.492601 0.285153,-0.984583 0.125062,-1.48476c-0.159199,-0.499792 -0.51294,-0.988459 -1.0617,-1.45077c-0.534147,-0.449346 -1.22536,-0.850629 -2.05547,-1.19054c-0.812046,-0.332715 -1.72627,-0.592896 -2.71618,-0.772713c-1.0106,-0.182304 -2.07135,-0.274971 -3.15247,-0.274971c-1.0801,0 -2.13995,0.0926457 -3.15012,0.274873c-0.989904,0.179816 -1.90434,0.439933 -2.71868,0.772876c-0.8274,0.338642 -1.51985,0.740736 -2.05531,1.19048c-0.550012,0.46268 -0.904323,0.951255 -1.06342,1.45049c-0.15836,0.499601 -0.117095,0.991387 0.126537,1.48455Zm-0.987421,-1.75785c0.214996,-0.674963 0.669807,-1.30219 1.34313,-1.8686c0.611849,-0.513901 1.38468,-0.962669 2.29452,-1.33505c0.874645,-0.357598 1.8494,-0.634873 2.89977,-0.825672c1.06425,-0.191983 2.17775,-0.289317 3.31101,-0.289317c1.13427,0 2.24866,0.0973523 3.31336,0.289415c1.05053,0.190829 2.02527,0.468233 2.89764,0.825666c0.91235,0.373586 1.68404,0.821592 2.29481,1.33539c0.671782,0.565951 1.12578,1.19312 1.34044,1.86701c0.232204,0.725485 0.171464,1.46005 -0.176209,2.1606c-0.353571,0.714346 -0.98126,1.36186 -1.85771,1.93114c-0.902207,0.586023 -2.05959,1.06931 -3.35083,1.40224c-1.39303,0.358191 -2.89407,0.539505 -4.4624,0.539505c-1.56758,0 -3.06775,-0.18135 -4.4587,-0.539484c-1.29214,-0.331984 -2.44981,-0.815389 -3.3505,-1.402c-0.874935,-0.566967 -1.50296,-1.21432 -1.86008,-1.93171c-0.346603,-0.70159 -0.408041,-1.43446 -0.178233,-2.15914Z"></path><path fill="#000" stroke="none" d="M3.09042,12.8836c-0.621031,-0.173928 -1.15452,-0.425102 -1.58706,-0.750528c-0.450862,-0.341594 -0.767464,-0.747868 -0.930574,-1.20703c-0.170865,-0.481632 -0.160397,-0.988742 0.0273847,-1.48799l2.7686,-7.35011c0.126866,-0.335463 0.373335,-0.635537 0.723391,-0.898079c0.297224,-0.222659 0.661838,-0.413961 1.08621,-0.571864c0.404588,-0.151357 0.850471,-0.268771 1.32465,-0.349237c0.484304,-0.0821501 0.982899,-0.123779 1.48456,-0.123779h12.1845c0.501087,0 1.00058,0.041684 1.48459,0.123785c0.474146,0.080461 0.920029,0.197875 1.32387,0.348954c0.427111,0.158925 0.793048,0.350521 1.08751,0.571883c0.350242,0.261853 0.596592,0.562138 0.723965,0.898941l2.76748,7.34955c0.188202,0.50037 0.197222,1.00751 0.0234813,1.48872c-0.164394,0.46075 -0.481002,0.867031 -0.932009,1.20687c-0.4283,0.322997 -0.962225,0.573886 -1.58609,0.749874c-0.458547,0.128608 -0.955271,0.210013 -1.48129,0.244422l-0.917172,9.30782c-0.0703728,0.712907 -0.339322,1.39906 -0.794311,2.03504c-0.449158,0.630192 -1.06539,1.19069 -1.83139,1.67137c-0.780266,0.489093 -1.67999,0.870708 -2.67664,1.13661c-1.04269,0.278738 -2.14775,0.419966 -3.28425,0.419966c-1.13622,0 -2.24124,-0.141161 -3.28604,-0.419963c-0.99713,-0.266531 -1.89816,-0.6486 -2.67594,-1.13673c-0.766499,-0.480997 -1.38331,-1.04158 -1.83164,-1.6706c-0.456246,-0.637741 -0.725558,-1.32417 -0.794784,-2.03577l-0.917158,-9.30768c-0.52701,-0.0343562 -1.02416,-0.115724 -1.48384,-0.244435Zm20.8565,-10.4762c-0.0610972,-0.161555 -0.198466,-0.328999 -0.420699,-0.49515c-0.221,-0.166136 -0.510687,-0.31781 -0.861448,-0.448326c-0.349342,-0.130689 -0.739962,-0.233551 -1.15922,-0.304698c-0.43385,-0.0735919 -0.882812,-0.111059 -1.33351,-0.111059h-12.1845c-0.451254,0 -0.899322,0.0374106 -1.33348,0.111054c-0.419292,0.0711526 -0.809913,0.174015 -1.16,0.304982c-0.348143,0.129542 -0.636786,0.280984 -0.860202,0.448351c-0.221615,0.166211 -0.359496,0.334081 -0.420084,0.494289l-2.76831,7.34935c-0.113893,0.302807 -0.119833,0.590546 -0.0215289,0.867645c0.100614,0.283234 0.307728,0.54901 0.62363,0.788355c0.336498,0.253167 0.768547,0.45658 1.28639,0.601607c0.49828,0.139518 1.05645,0.216096 1.66027,0.228138c0.22878,0.0045625 0.417992,0.179514 0.440431,0.407237l0.955668,9.69849c0.0534433,0.549366 0.263989,1.08601 0.630917,1.5989c0.376678,0.528498 0.905972,1.00954 1.57669,1.43043c0.698665,0.438478 1.51647,0.785257 2.42889,1.02914c0.967652,0.258214 1.9944,0.389377 3.05298,0.389377c1.05877,0 2.08543,-0.131208 3.0512,-0.389383c0.912196,-0.243368 1.72868,-0.589676 2.42979,-1.02915c0.66993,-0.420398 1.19864,-0.901293 1.57624,-1.43107c0.365758,-0.511257 0.576132,-1.04797 0.630506,-1.59881l0.955613,-9.69794c0.0224383,-0.227713 0.211636,-0.402661 0.440406,-0.407236c0.602365,-0.0120473 1.1604,-0.0886948 1.65674,-0.227902c0.520814,-0.146918 0.953737,-0.350346 1.28696,-0.601643c0.316446,-0.238449 0.523175,-0.50373 0.625585,-0.790748c0.100092,-0.277229 0.0950167,-0.563072 -0.0186728,-0.86538l-2.76722,-7.34886Z"></path><path fill="#000" stroke="none" d="M4.96774,13.1106c-0.249419,0 -0.451613,-0.202194 -0.451613,-0.451613c0,-0.249419 0.202194,-0.451613 0.451613,-0.451613h18.0645c0.249419,0 0.451613,0.202194 0.451613,0.451613c0,0.249419 -0.202194,0.451613 -0.451613,0.451613h-18.0645Z"></path></g></g></svg>