<?xml version="1.0" encoding="UTF-8"?>
<svg viewBox="0 0 30 30" version="1.1" xmlns="http://www.w3.org/2000/svg" xmlns:xlink="http://www.w3.org/1999/xlink">
    <g id="Page-1" stroke="none" stroke-width="1" fill="none" fill-rule="evenodd">
        <g id="Outlines_black-Copy" transform="translate(-750.000000, -114.000000)">
            <g id="Group-3" transform="translate(3.000000, 114.000000)" fill="#000000" fill-rule="nonzero">
                <path d="M770.242699,25.8292683 L770.242699,21.942439 L761.415382,21.942439 C760.948768,21.942439 760.669721,21.4231917 760.927211,21.034054 L770.172456,7.06191672 L770.172456,4.17073171 L755.468065,4.17073171 L755.468065,8.05756098 L763.311968,8.05756098 C763.778582,8.05756098 764.057629,8.57680835 763.80014,8.96594603 L754.554895,22.9380833 L754.554895,25.8292683 L770.242699,25.8292683 Z M770.828065,20.7717073 C771.151354,20.7717073 771.413431,21.0337845 771.413431,21.3570732 L771.413431,26.4146341 C771.413431,26.7379228 771.151354,27 770.828065,27 L753.969529,27 C753.64624,27 753.384163,26.7379228 753.384163,26.4146341 L753.384163,22.7619512 C753.384163,22.6470737 753.417965,22.5347353 753.481357,22.438932 L762.222725,9.22829268 L754.882699,9.22829268 C754.559411,9.22829268 754.297334,8.96621546 754.297334,8.64292683 L754.297334,3.58536585 C754.297334,3.26207722 754.559411,3 754.882699,3 L770.757821,3 C771.08111,3 771.343187,3.26207722 771.343187,3.58536585 L771.343187,7.23804878 C771.343187,7.35292634 771.309386,7.46526466 771.245993,7.56106798 L762.504625,20.7717073 L770.828065,20.7717073 Z" id="Z-Copy-2"></path>
            </g>
            <g id="Slices" transform="translate(0.000000, 114.000000)"></g>
        </g>
    </g>
</svg>