<?xml version="1.0" encoding="UTF-8"?>
<svg viewBox="0 0 30 30" version="1.1" xmlns="http://www.w3.org/2000/svg" xmlns:xlink="http://www.w3.org/1999/xlink">
    <g id="Page-1" stroke="none" stroke-width="1" fill="none" fill-rule="evenodd">
        <g id="Outlines_black-Copy" transform="translate(-780.000000, -114.000000)">
            <g id="Group-3" transform="translate(3.000000, 114.000000)" fill="#000000" fill-rule="nonzero">
                <path d="M790.0068,18.5674794 C790.284478,17.4912891 790.572673,16.2382373 790.922201,14.6179522 C791.020959,14.1601416 791.120925,13.6906375 791.250761,13.0763614 C791.240365,13.1255482 791.496235,11.9133013 791.565195,11.5882052 C791.620671,11.3266765 791.851564,11.1396226 792.118912,11.1396226 L792.254761,11.1396226 C792.515263,11.1396226 792.742128,11.317416 792.804392,11.5703666 C793.010163,12.4063104 793.174294,13.121735 793.543286,14.7665782 C793.98888,16.752886 794.186766,17.6061666 794.434798,18.5674794 L794.808383,20.0957813 C794.895535,20.4523096 794.62556,20.7962264 794.258535,20.7962264 L790.183063,20.7962264 C789.816038,20.7962264 789.546063,20.4523096 789.633215,20.0957813 L790.0068,18.5674794 Z M790.904132,19.6641509 L793.537488,19.6641509 L793.336868,18.8433272 C793.086482,17.8730787 792.887045,17.0131085 792.438665,15.0143811 C792.352754,14.6314183 792.278016,14.2991442 792.211323,14.00423 C792.146168,14.3105648 792.0873,14.5855819 792.02882,14.8566723 C791.676753,16.4887311 791.385806,17.7538579 791.105638,18.8398072 L790.904132,19.6641509 Z M792.191881,11.7211386 L792.118912,11.7391001 L792.118912,12.2716981 L792.254761,12.2716981 L792.254761,11.7344768 L792.191881,11.7211386 Z M787.593639,28.8679245 L788.578826,24.6193073 C788.638315,24.3627594 788.866878,24.1811321 789.130233,24.1811321 L795.311365,24.1811321 C795.57472,24.1811321 795.803283,24.3627594 795.862772,24.6193073 L796.847959,28.8679245 L801.815149,28.8679245 L795.435468,7.9245283 L789.209903,7.9245283 L782.830223,28.8679245 L787.593639,28.8679245 Z M788.594848,29.5618248 C788.535358,29.8183727 788.306795,30 788.043441,30 L782.066082,30 C781.685915,30 781.41383,29.6326902 781.524609,29.2690212 L788.249137,7.19354952 C788.321719,6.95527724 788.541529,6.79245283 788.79061,6.79245283 L795.854761,6.79245283 C796.103843,6.79245283 796.323653,6.95527724 796.396234,7.19354952 L803.120763,29.2690212 C803.231542,29.6326902 802.959457,30 802.57929,30 L796.398158,30 C796.134803,30 795.90624,29.8183727 795.84675,29.5618248 L794.861564,25.3132075 L789.580034,25.3132075 L788.594848,29.5618248 Z M788.383063,5.29811321 C789.606755,5.29811321 790.466082,4.42316243 790.466082,3.21509434 C790.466082,2.00702625 789.606755,1.13207547 788.383063,1.13207547 C787.159371,1.13207547 786.300044,2.00702625 786.300044,3.21509434 C786.300044,4.42316243 787.159371,5.29811321 788.383063,5.29811321 Z M788.383063,6.43018868 C786.529532,6.43018868 785.167969,5.04387016 785.167969,3.21509434 C785.167969,1.38631852 786.529532,0 788.383063,0 C790.236595,0 791.598158,1.38631852 791.598158,3.21509434 C791.598158,5.04387016 790.236595,6.43018868 788.383063,6.43018868 Z M796.126459,5.29811321 C797.350152,5.29811321 798.209478,4.42316243 798.209478,3.21509434 C798.209478,2.00702625 797.350152,1.13207547 796.126459,1.13207547 C794.902767,1.13207547 794.043441,2.00702625 794.043441,3.21509434 C794.043441,4.42316243 794.902767,5.29811321 796.126459,5.29811321 Z M796.126459,6.43018868 C794.272928,6.43018868 792.911365,5.04387016 792.911365,3.21509434 C792.911365,1.38631852 794.272928,0 796.126459,0 C797.979991,0 799.341554,1.38631852 799.341554,3.21509434 C799.341554,5.04387016 797.979991,6.43018868 796.126459,6.43018868 Z" id="Ä-Copy-2"></path>
            </g>
            <g id="Slices" transform="translate(0.000000, 114.000000)"></g>
        </g>
    </g>
</svg>