<?xml version="1.0" encoding="UTF-8"?>
<svg viewBox="0 0 30 30" version="1.1" xmlns="http://www.w3.org/2000/svg" xmlns:xlink="http://www.w3.org/1999/xlink">
    <g id="Page-1" stroke="none" stroke-width="1" fill="none" fill-rule="evenodd">
        <g id="Outlines_black-Copy" transform="translate(-810.000000, -114.000000)">
            <g id="Group-3" transform="translate(3.000000, 114.000000)" fill="#000000" fill-rule="nonzero">
                <path d="M822.177587,28.8830975 C828.011293,28.8830975 831.738273,24.7869361 831.738273,18.0491437 C831.738273,11.3782915 828.046156,7.41623232 822.177587,7.41623232 C816.297239,7.41623232 812.616902,11.3569699 812.616902,18.0491437 C812.616902,24.7869361 816.343882,28.8830975 822.177587,28.8830975 Z M822.177587,30 C815.702261,30 811.5,25.3814773 811.5,18.0491437 C811.5,10.7565397 815.662681,6.29932986 822.177587,6.29932986 C828.681304,6.29932986 832.855175,10.7783664 832.855175,18.0491437 C832.855175,25.3814773 828.652914,30 822.177587,30 Z M822.177587,25.0409531 C819.200342,25.0409531 817.397245,22.2844948 817.397245,18.0491437 C817.397245,13.8565953 819.177127,11.2583768 822.177587,11.2583768 C825.178048,11.2583768 826.95793,13.8565953 826.95793,18.0491437 C826.95793,22.2844948 825.154833,25.0409531 822.177587,25.0409531 Z M822.177587,23.9240506 C824.413841,23.9240506 825.841028,21.7422595 825.841028,18.0491437 C825.841028,14.4033477 824.451721,12.3752792 822.177587,12.3752792 C819.903454,12.3752792 818.514147,14.4033477 818.514147,18.0491437 C818.514147,21.7422595 819.941334,23.9240506 822.177587,23.9240506 Z M818.357781,5.2271035 C819.565072,5.2271035 820.412882,4.36387954 820.412882,3.17200298 C820.412882,1.98012642 819.565072,1.11690246 818.357781,1.11690246 C817.15049,1.11690246 816.302681,1.98012642 816.302681,3.17200298 C816.302681,4.36387954 817.15049,5.2271035 818.357781,5.2271035 Z M818.357781,6.34400596 C816.529092,6.34400596 815.185778,4.97626803 815.185778,3.17200298 C815.185778,1.36773793 816.529092,0 818.357781,0 C820.18647,0 821.529784,1.36773793 821.529784,3.17200298 C821.529784,4.97626803 820.18647,6.34400596 818.357781,6.34400596 Z M825.997394,5.2271035 C827.204685,5.2271035 828.052494,4.36387954 828.052494,3.17200298 C828.052494,1.98012642 827.204685,1.11690246 825.997394,1.11690246 C824.790103,1.11690246 823.942293,1.98012642 823.942293,3.17200298 C823.942293,4.36387954 824.790103,5.2271035 825.997394,5.2271035 Z M825.997394,6.34400596 C824.168705,6.34400596 822.825391,4.97626803 822.825391,3.17200298 C822.825391,1.36773793 824.168705,0 825.997394,0 C827.826083,0 829.169397,1.36773793 829.169397,3.17200298 C829.169397,4.97626803 827.826083,6.34400596 825.997394,6.34400596 Z" id="Ö-Copy-2"></path>
            </g>
            <g id="Slices" transform="translate(0.000000, 114.000000)"></g>
        </g>
    </g>
</svg>