<?xml version="1.0" encoding="UTF-8"?>
<svg viewBox="0 0 30 30" version="1.1" xmlns="http://www.w3.org/2000/svg" xmlns:xlink="http://www.w3.org/1999/xlink">
    <g id="Page-1" stroke="none" stroke-width="1" fill="none" fill-rule="evenodd">
        <g id="Outlines_black-Copy" transform="translate(-840.000000, -114.000000)">
            <g id="Group-3" transform="translate(3.000000, 114.000000)" fill="#000000" fill-rule="nonzero">
                <path d="M844.616902,18.5182427 C844.616902,25.6402509 847.316761,28.8830975 853.105361,28.8830975 C858.856047,28.8830975 861.459792,25.6842109 861.459792,18.5182427 L861.459792,7.8183172 L857.01452,7.8183172 L857.01452,19.1883842 C857.01452,23.2380754 855.82462,25.0409531 853.105361,25.0409531 C850.400621,25.0409531 849.263217,23.2637586 849.263217,19.1883842 L849.263217,7.8183172 L844.616902,7.8183172 L844.616902,18.5182427 Z M853.105361,30 C846.650009,30 843.5,26.2164695 843.5,18.5182427 L843.5,7.25986597 C843.5,6.95144187 843.750027,6.70141474 844.058451,6.70141474 L849.821668,6.70141474 C850.130092,6.70141474 850.380119,6.95144187 850.380119,7.25986597 L850.380119,19.1883842 C850.380119,22.723304 851.148597,23.9240506 853.105361,23.9240506 C855.086474,23.9240506 855.897617,22.6950458 855.897617,19.1883842 L855.897617,7.25986597 C855.897617,6.95144187 856.147644,6.70141474 856.456069,6.70141474 L862.018243,6.70141474 C862.326667,6.70141474 862.576694,6.95144187 862.576694,7.25986597 L862.576694,18.5182427 C862.576694,26.2562209 859.529432,30 853.105361,30 Z M849.218541,5.2271035 C850.425832,5.2271035 851.273641,4.36387954 851.273641,3.17200298 C851.273641,1.98012642 850.425832,1.11690246 849.218541,1.11690246 C848.011249,1.11690246 847.16344,1.98012642 847.16344,3.17200298 C847.16344,4.36387954 848.011249,5.2271035 849.218541,5.2271035 Z M849.218541,6.34400596 C847.389852,6.34400596 846.046538,4.97626803 846.046538,3.17200298 C846.046538,1.36773793 847.389852,0 849.218541,0 C851.04723,0 852.390544,1.36773793 852.390544,3.17200298 C852.390544,4.97626803 851.04723,6.34400596 849.218541,6.34400596 Z M856.858153,5.2271035 C858.065445,5.2271035 858.913254,4.36387954 858.913254,3.17200298 C858.913254,1.98012642 858.065445,1.11690246 856.858153,1.11690246 C855.650862,1.11690246 854.803053,1.98012642 854.803053,3.17200298 C854.803053,4.36387954 855.650862,5.2271035 856.858153,5.2271035 Z M856.858153,6.34400596 C855.029464,6.34400596 853.68615,4.97626803 853.68615,3.17200298 C853.68615,1.36773793 855.029464,0 856.858153,0 C858.686842,0 860.030156,1.36773793 860.030156,3.17200298 C860.030156,4.97626803 858.686842,6.34400596 856.858153,6.34400596 Z" id="Ü-Copy-2"></path>
            </g>
            <g id="Slices" transform="translate(0.000000, 114.000000)"></g>
        </g>
    </g>
</svg>