<svg xmlns="http://www.w3.org/2000/svg" viewBox="0 0 117 117"><g fill="none"><g fill="#ffffff"><path d="M58.5 117C26.2 117 0 90.8 0 58.5 0 26.2 26.2 0 58.5 0 90.8 0 117 26.2 117 58.5 117 90.8 90.8 117 58.5 117ZM58.5 5.1C29 5.1 5.1 29 5.1 58.5 5.1 88 29 111.9 58.5 111.9 88 111.9 111.9 88 111.9 58.5 111.9 29 88 5.1 58.5 5.1Z"/><path d="M88.5 61L27.5 61C26.1 61 25 59.9 25 58.5 25 57.1 26.1 56 27.5 56L88.5 56C89.9 56 91 57.1 91 58.5 91 59.9 89.9 61 88.5 61Z"/><path d="M58.5 91C57.1 91 56 89.9 56 88.5L56 27.5C56 26.1 57.1 25 58.5 25 59.9 25 61 26.1 61 27.5L61 88.5C61 89.9 59.9 91 58.5 91Z"/></g></g></svg>