<?xml version="1.0" encoding="UTF-8"?>
<svg viewBox="0 0 30 30" version="1.1" xmlns="http://www.w3.org/2000/svg" xmlns:xlink="http://www.w3.org/1999/xlink">
    <g id="Interface_Icons-/checkOn_30px" stroke="none" stroke-width="1" fill="none" fill-rule="evenodd">
        <g id="check-1" fill="#000000" fill-rule="nonzero">
            <path d="M15,30 C6.72931034,30 0,23.2706897 0,15 C0,6.72931034 6.72931034,0 15,0 C23.2706897,0 30,6.72931034 30,15 C30,23.2706897 23.2706897,30 15,30 Z M15,1.03448276 C7.29931034,1.03448276 1.03448276,7.29931034 1.03448276,15 C1.03448276,22.7006897 7.29931034,28.9655172 15,28.9655172 C22.7006897,28.9655172 28.9655172,22.7006897 28.9655172,15 C28.9655172,7.29931034 22.7006897,1.03448276 15,1.03448276 Z" id="Shape"></path>
            <path d="M13.591,21.727 C13.463,21.727 13.335,21.678 13.237,21.581 L6.873,15.218 C6.678,15.023 6.678,14.706 6.873,14.511 C7.068,14.316 7.385,14.316 7.58,14.511 L13.59,20.521 L23.419,10.693 C23.614,10.498 23.931,10.498 24.126,10.693 C24.321,10.888 24.321,11.205 24.126,11.4 L13.944,21.581 C13.847,21.678 13.719,21.727 13.591,21.727 Z" id="Shape"></path>
        </g>
    </g>
</svg>