<?xml version="1.0" encoding="UTF-8"?>
<svg viewBox="0 0 24 24" version="1.1" xmlns="http://www.w3.org/2000/svg" xmlns:xlink="http://www.w3.org/1999/xlink">
    <g id="Interface_Icons/chevronDown_24px" stroke="none" stroke-width="1" fill="none" fill-rule="evenodd">
        <path d="M12,14.5857864 L12.7071068,15.2928932 C13.0976311,15.6834175 13.0976311,16.3165825 12.7071068,16.7071068 C12.3165825,17.0976311 11.6834175,17.0976311 11.2928932,16.7071068 L5.29289322,10.7071068 C4.90236893,10.3165825 4.90236893,9.68341751 5.29289322,9.29289322 C5.68341751,8.90236893 6.31658249,8.90236893 6.70710678,9.29289322 L12,14.5857864 L17.2928932,9.29289322 C17.6834175,8.90236893 18.3165825,8.90236893 18.7071068,9.29289322 C19.0976311,9.68341751 19.0976311,10.3165825 18.7071068,10.7071068 L12.7071068,16.7071068 C12.3165825,17.0976311 11.6834175,17.0976311 11.2928932,16.7071068 C10.9023689,16.3165825 10.9023689,15.6834175 11.2928932,15.2928932 L12,14.5857864 Z" id="Combined-Shape" fill="#000000" fill-rule="nonzero"></path>
    </g>
</svg>