<?xml version="1.0" encoding="UTF-8"?>
<svg viewBox="0 0 24 24" version="1.1" xmlns="http://www.w3.org/2000/svg" xmlns:xlink="http://www.w3.org/1999/xlink">
    <g id="Interface_Icons/chevronThinDown_24px" stroke="none" stroke-width="1" fill="none" fill-rule="evenodd">
        <path d="M5.58885677,10.3312724 C5.39359462,10.1360102 5.39359462,9.81942775 5.58885677,9.62416561 C5.78411891,9.42890346 6.1007014,9.42890346 6.29596355,9.62416561 L12.3389652,15.6671672 C12.5342273,15.8624294 12.5342273,16.1790119 12.3389652,16.374274 C12.143703,16.5695361 11.8271205,16.5695361 11.6318584,16.374274 L5.58885677,10.3312724 Z" id="Line-3" fill="#000000" fill-rule="nonzero"></path>
        <path d="M11.6422015,10.3312724 C11.4469393,10.1360102 11.4469393,9.81942775 11.6422015,9.62416561 C11.8374636,9.42890346 12.1540461,9.42890346 12.3493083,9.62416561 L18.3923099,15.6671672 C18.587572,15.8624294 18.587572,16.1790119 18.3923099,16.374274 C18.1970477,16.5695361 17.8804653,16.5695361 17.6852031,16.374274 L11.6422015,10.3312724 Z" id="Line-3" fill="#000000" fill-rule="nonzero" transform="translate(15.017256, 12.999220) scale(-1, 1) translate(-15.017256, -12.999220) "></path>
    </g>
</svg>