<?xml version="1.0" encoding="UTF-8"?>
<svg viewBox="0 0 24 24" version="1.1" xmlns="http://www.w3.org/2000/svg" xmlns:xlink="http://www.w3.org/1999/xlink">
    <g id="Interface_Icons/chevronThinRight_24px" stroke="none" stroke-width="1" fill="none" fill-rule="evenodd">
        <g id="Group" transform="translate(20.000000, 12.000000) rotate(-90.000000) translate(-20.000000, -12.000000) translate(13.000000, 8.000000)" fill="#000000" fill-rule="nonzero">
            <path d="M0.588856767,1.33127239 C0.393594621,1.13601024 0.393594621,0.819427751 0.588856767,0.624165605 C0.784118913,0.428903459 1.1007014,0.428903459 1.29596355,0.624165605 L7.33896516,6.66716722 C7.53422731,6.86242936 7.53422731,7.17901185 7.33896516,7.374274 C7.14370302,7.56953615 6.82712053,7.56953615 6.63185838,7.374274 L0.588856767,1.33127239 Z" id="Line-3"></path>
            <path d="M6.64220149,1.33127239 C6.44693935,1.13601024 6.44693935,0.819427751 6.64220149,0.624165605 C6.83746364,0.428903459 7.15404613,0.428903459 7.34930827,0.624165605 L13.3923099,6.66716722 C13.587572,6.86242936 13.587572,7.17901185 13.3923099,7.374274 C13.1970477,7.56953615 12.8804653,7.56953615 12.6852031,7.374274 L6.64220149,1.33127239 Z" id="Line-3" transform="translate(10.017256, 3.999220) scale(-1, 1) translate(-10.017256, -3.999220) "></path>
        </g>
    </g>
</svg>