<?xml version="1.0" encoding="UTF-8"?>
<svg viewBox="0 0 30 30" version="1.1" xmlns="http://www.w3.org/2000/svg" xmlns:xlink="http://www.w3.org/1999/xlink">
    <g id="Interface_Icons/delete_30px" stroke="none" stroke-width="1" fill="none" fill-rule="evenodd">
        <g id="fail-copy" fill="#000000" fill-rule="nonzero">
            <path d="M15,29 C22.7319865,29 29,22.7319865 29,15 C29,7.2680135 22.7319865,1 15,1 C7.2680135,1 1,7.2680135 1,15 C1,22.7319865 7.2680135,29 15,29 Z M15,30 C6.71572875,30 0,23.2842712 0,15 C0,6.71572875 6.71572875,0 15,0 C23.2842712,0 30,6.71572875 30,15 C30,23.2842712 23.2842712,30 15,30 Z" id="Oval"></path>
            <g id="Cross" transform="translate(8.130435, 8.130435)">
                <polygon id="Shape" points="0.646446609 1.35355339 1.35355339 0.646446609 13.0926838 12.385577 12.385577 13.0926838"></polygon>
                <polygon id="Shape" points="1.35355339 13.0926838 0.646446609 12.385577 12.385577 0.646446609 13.0926838 1.35355339"></polygon>
            </g>
        </g>
    </g>
</svg>