<?xml version="1.0" encoding="UTF-8"?>
<svg viewBox="0 0 30 30" version="1.1" xmlns="http://www.w3.org/2000/svg" xmlns:xlink="http://www.w3.org/1999/xlink">
    <g id="Interface_Icons-/duplicate_30px" stroke="none" stroke-width="1" fill="none" fill-rule="evenodd">
        <g id="Group" transform="translate(2.000000, 2.000000)" fill="#000000" fill-rule="nonzero">
            <path d="M25.9494508,2.58396774 C25.9494508,1.30834211 24.9153518,0.274243211 23.6397262,0.274243211 L9.31943413,0.274243211 C8.04380851,0.274243211 7.00970961,1.30834211 7.00970961,2.58396774 L7.00970961,16.9042597 C7.00970961,18.1798855 8.04380851,19.2139843 9.31943413,19.2139843 L23.6397262,19.2139843 C24.9153518,19.2139843 25.9494508,18.1798855 25.9494508,16.9042597 L25.9494508,2.58396774 Z M24.4096344,16.9042597 C24.4096344,17.3294684 24.0649348,17.674168 23.6397262,17.674168 L9.31943413,17.674168 C8.8942256,17.674168 8.54952596,17.3294684 8.54952596,16.9042597 L8.54952596,2.58396774 C8.54952596,2.1587592 8.8942256,1.81405957 9.31943413,1.81405957 L23.6397262,1.81405957 C24.0649348,1.81405957 24.4096344,2.1587592 24.4096344,2.58396774 L24.4096344,16.9042597 Z" id="Shape"></path>
            <path d="M2.77521465,8.35827905 L3.62211364,8.35827905 C4.04732219,8.35827905 4.39202182,8.01357942 4.39202182,7.58837088 C4.39202182,7.16316233 4.04732219,6.8184627 3.62211364,6.8184627 L2.77521465,6.8184627 C1.49958902,6.8184627 0.465490123,7.8525616 0.465490123,9.12818722 L0.465490123,23.4484793 C0.465490123,24.7241049 1.49958902,25.7582038 2.77521465,25.7582038 L17.0955066,25.7582038 C18.3711324,25.7582038 19.4052312,24.7241049 19.4052312,23.4484793 L19.4052312,22.5245895 C19.4052312,22.0993809 19.0605316,21.7546813 18.6353231,21.7546813 C18.2101145,21.7546813 17.8654149,22.0993809 17.8654149,22.5245895 L17.8654149,23.4484793 C17.8654149,23.8736879 17.5207153,24.2183875 17.0955066,24.2183875 L2.77521465,24.2183875 C2.35000611,24.2183875 2.00530648,23.8736879 2.00530648,23.4484793 L2.00530648,9.12818722 C2.00530648,8.70297868 2.35000611,8.35827905 2.77521465,8.35827905 Z" id="Shape"></path>
        </g>
    </g>
</svg>