<?xml version="1.0" encoding="UTF-8"?>
<svg viewBox="0 0 40 40" version="1.1" xmlns="http://www.w3.org/2000/svg" xmlns:xlink="http://www.w3.org/1999/xlink">
    <g id="Interface_Icons/edit_40px" stroke="none" stroke-width="1" fill="none" fill-rule="evenodd">
        <path d="M17.8634522,24.6342459 L11.6555705,19.244866 C11.2385215,18.8828044 10.6069276,18.9273805 10.244866,19.3444295 C9.88280443,19.7614785 9.92738054,20.3930724 10.3444295,20.755134 L17.2659757,26.7640825 C17.4574595,26.9303194 17.6941714,27.0108332 17.929257,27.0089309 C18.1967112,27.0110947 18.4643476,26.9066056 18.6629707,26.6972791 L30.5238105,14.1972791 C30.9039577,13.7966464 30.887351,13.1636992 30.4867183,12.783552 C30.0860856,12.4034048 29.4531384,12.4200116 29.0729912,12.8206443 L17.8634522,24.6342459 Z M20,40 C8.954305,40 0,31.045695 0,20 C0,8.954305 8.954305,0 20,0 C31.045695,0 40,8.954305 40,20 C40,31.045695 31.045695,40 20,40 Z" id="Combined-Shape" fill="#000000"></path>
    </g>
</svg>