<?xml version="1.0" encoding="UTF-8"?>
<svg viewBox="0 0 24 24" version="1.1" xmlns="http://www.w3.org/2000/svg" xmlns:xlink="http://www.w3.org/1999/xlink">
    <g id="Interface_Icons/edit_24px" stroke="none" stroke-width="1" fill="none" fill-rule="evenodd">
        <path d="M0.500415824,24 C0.369418142,24 0.241420407,23.9489489 0.146422088,23.8538539 C0.0174243706,23.7257257 -0.0305747801,23.5375375 0.0194243352,23.3623624 L2.01938895,16.3553554 C2.04238854,16.2732733 2.08538778,16.1991993 2.1463867,16.1391392 L17.5611139,0.708708902 C18.5080972,-0.237237036 20.1540681,-0.235235034 21.0960514,0.708708902 L23.268013,2.88188206 C23.7400046,3.35535553 24,3.98398415 24,4.65265281 C24,5.32032048 23.7400046,5.9489491 23.268013,6.42242257 L7.8542857,21.8518519 C7.79428676,21.9119119 7.71928809,21.955956 7.63828952,21.978979 L0.638413382,23.980981 C0.592414196,23.993994 0.54641501,24 0.500415824,24 Z M2.94537256,16.7547548 L1.22740296,22.7707708 L7.2382966,21.0520521 L22.5610255,5.71371387 C23.1460151,5.12812828 23.1460151,4.17517534 22.5610255,3.58958976 L20.3890639,1.4164166 C19.8240739,0.849850042 18.8350914,0.848849041 18.2681014,1.4164166 L2.94537256,16.7547548 Z M7.50029196,21.4974975 L7.51029178,21.4974975 L7.50029196,21.4974975 Z" id="Shape" fill="#000000" fill-rule="nonzero"></path>
        <path d="M7.50070839,22 C7.37269772,22 7.24468706,21.9509939 7.14667889,21.8539817 L2.14626219,16.8533567 C1.95124594,16.6583323 1.95124594,16.3412927 2.14626219,16.1462683 C2.34127844,15.9512439 2.65830486,15.9512439 2.85332111,16.1462683 L7.85373781,21.1468934 C8.04875406,21.3419177 8.04875406,21.6589574 7.85373781,21.8539817 C7.75672973,21.9509939 7.62871906,22 7.50070839,22 Z" id="Shape" fill="#000000" fill-rule="nonzero"></path>
    </g>
</svg>