<?xml version="1.0" encoding="UTF-8"?>
<svg viewBox="0 0 24 24" version="1.1" xmlns="http://www.w3.org/2000/svg" xmlns:xlink="http://www.w3.org/1999/xlink">
    <g id="Interface_Icons/escape_24px" stroke="none" stroke-width="1" fill="none" fill-rule="evenodd">
        <g id="Group-3" transform="translate(6.000000, 4.000000)" fill="#000000" fill-rule="nonzero">
            <path d="M0.847580719,1.70710678 C0.457056427,1.31658249 0.457056427,0.683417511 0.847580719,0.292893219 C1.23810501,-0.0976310729 1.87126999,-0.0976310729 2.26179428,0.292893219 L16.4039299,14.4350288 C16.7944542,14.8255531 16.7944542,15.4587181 16.4039299,15.8492424 C16.0134056,16.2397667 15.3802406,16.2397667 14.9897163,15.8492424 L0.847580719,1.70710678 Z" id="Line-9" transform="translate(8.625755, 8.071068) scale(-1, 1) translate(-8.625755, -8.071068) "></path>
            <path d="M0.847580719,1.70710678 C0.457056427,1.31658249 0.457056427,0.683417511 0.847580719,0.292893219 C1.23810501,-0.0976310729 1.87126999,-0.0976310729 2.26179428,0.292893219 L16.4039299,14.4350288 C16.7944542,14.8255531 16.7944542,15.4587181 16.4039299,15.8492424 C16.0134056,16.2397667 15.3802406,16.2397667 14.9897163,15.8492424 L0.847580719,1.70710678 Z" id="Line-9"></path>
        </g>
    </g>
</svg>