<svg xmlns="http://www.w3.org/2000/svg" viewBox="0 0 224.67 72.9">
    <g id="Ebene_2" data-name="Ebene 2">
        <g id="Layer_1" data-name="Layer 1">
            <path class="cls-1" style="fill:#618f30" d="M12.9,31.81h-.15a1,1,0,0,1-.77-.66L9.3,22.57.68,19.94A1,1,0,0,1,0,19.18a.94.94,0,0,1,.4-.94L7.77,13l-.12-9a1,1,0,0,1,.53-.87,1,1,0,0,1,1,.08L16.43,8.6,25,5.69A1,1,0,0,1,26.2,6.9l-2.9,8.52,5.4,7.17a1,1,0,0,1,.09,1,1,1,0,0,1-.87.53l-9-.08L13.69,31.4A1,1,0,0,1,12.9,31.81ZM8.6,4.07l.18,9.47L1,19.06l9.12,2.71,2.82,9,5.46-7.74,9.55.08L22.19,15.6l3.06-9-9,3.14Z"/>
            <path class="cls-2" style="fill:#e98868" d="M168.32,69.86a.5.5,0,0,1,0-1,19.22,19.22,0,0,0,2.9-.28.5.5,0,0,1,.58.41.48.48,0,0,1-.41.57,19.93,19.93,0,0,1-3,.3ZM162.41,69l-.15,0a20.46,20.46,0,0,1-2.84-1.17.5.5,0,0,1,.45-.9A18.18,18.18,0,0,0,162.56,68a.51.51,0,0,1,.33.63A.51.51,0,0,1,162.41,69ZM177,67.79a.5.5,0,0,1-.46-.29.5.5,0,0,1,.25-.66,28.34,28.34,0,0,0,2.63-1.34.49.49,0,0,1,.68.18.51.51,0,0,1-.18.69c-.9.51-1.82,1-2.72,1.38A.51.51,0,0,1,177,67.79Zm-22.3-3.33a.5.5,0,0,1-.33-.12c-.74-.66-1.47-1.38-2.17-2.14a.5.5,0,1,1,.73-.68c.69.74,1.39,1.44,2.1,2.07a.5.5,0,0,1-.33.87ZM184.62,63a.5.5,0,0,1-.39-.18.5.5,0,0,1,.07-.7,26,26,0,0,0,2.18-2,.5.5,0,1,1,.73.69,29.24,29.24,0,0,1-2.27,2.07A.56.56,0,0,1,184.62,63Zm-35.73-5.37a.47.47,0,0,1-.41-.22c-.55-.81-1.1-1.67-1.62-2.56a.5.5,0,0,1,.17-.68.51.51,0,0,1,.69.17c.51.87,1.05,1.72,1.58,2.51a.5.5,0,0,1-.13.7A.46.46,0,0,1,148.89,57.64Zm-4.41-7.83a.51.51,0,0,1-.45-.29c-.42-.88-.83-1.79-1.24-2.74a.5.5,0,1,1,.92-.4c.4.94.81,1.85,1.22,2.72a.49.49,0,0,1-.23.66A.59.59,0,0,1,144.48,49.81Z"/>
            <path class="cls-2" style="fill:#e98868" d="M189.91,59.29a.72.72,0,0,1-.68-.48L182.8,40.66l-17.36-6a.91.91,0,0,1-.63-.81.93.93,0,0,1,.48-.91L223.59.09a.73.73,0,0,1,.78,0,.72.72,0,0,1,.29.72l-9.14,51.09a1,1,0,0,1-.47.66.92.92,0,0,1-.81,0l-21.41-8.48-2.21,14.51a.71.71,0,0,1-.64.61Zm.26-.81h0Zm33.4-57.23L165.78,33.79l17.8,6.08.08.23,6.14,17.34L192,42.77l22.57,8.95Z"/>
            <path class="cls-2" style="fill:#e98868" d="M192.43,43.4a.54.54,0,0,1-.3-.1.5.5,0,0,1-.1-.7l31.38-42a.5.5,0,0,1,.8.6l-31.38,42A.51.51,0,0,1,192.43,43.4Z"/>
            <path class="cls-2" style="fill:#e98868" d="M183.19,40.77a.52.52,0,0,1-.36-.16.49.49,0,0,1,0-.7L223.33.61a.51.51,0,0,1,.71,0,.51.51,0,0,1,0,.71L183.54,40.62A.49.49,0,0,1,183.19,40.77Z"/>
            <rect class="cls-2" style="fill:#e98868" x="186.5" y="51.69" width="14.97" height="1" transform="matrix(0.51, -0.86, 0.86, 0.51, 49.52, 191.77)"/>
            <path class="cls-1" style="fill:#618f30" d="M98.37,55.18a.93.93,0,0,1-.6-.21l-7-5.65-8.64,2.56a1,1,0,0,1-1-.26,1,1,0,0,1-.2-1h0l3.19-8.39-5.15-7.4a1,1,0,0,1,0-1,1,1,0,0,1,.89-.49l9,.45,5.46-7.13a1,1,0,0,1,1.69.33l2.39,8.68,8.52,3a1,1,0,0,1,.21,1.71l-7.54,4.9-.19,9a1,1,0,0,1-1,.94Zm-7.43-7,7.45,6,.14-9.47,8-5.19-9-3.09L95,27.25l-5.72,7.56-9.53-.48,5.48,7.76-3.35,8.84Z"/>
            <path class="cls-1" style="fill:#618f30" d="M80.31,22.17a.8.8,0,0,1-.58-.26l-3.81-4.15-5.6.81a.79.79,0,0,1-.8-1.18l2.79-4.93L69.85,7.4a.79.79,0,0,1,.87-1.13l5.53,1.1,4.08-3.94a.8.8,0,0,1,.82-.18.79.79,0,0,1,.52.66l.63,5.61,5,2.63a.8.8,0,0,1,.42.72.78.78,0,0,1-.47.7l-5.15,2.37-1,5.57a.8.8,0,0,1-.56.63A.91.91,0,0,1,80.31,22.17Zm-4-5.47,3.89,4.23,1-5.68,5.25-2.41-5.08-2.69-.64-5.71-4.16,4L70.92,7.33l2.52,5.17-2.84,5Z"/>
            <path class="cls-1" style="fill:#618f30" d="M140.78,41.86a1.19,1.19,0,0,1-.67-.22l-10.57-7.48-12.16,4.41a1.15,1.15,0,0,1-1.5-1.43l3.84-12.29-8-10.16a1.14,1.14,0,0,1-.14-1.21,1.18,1.18,0,0,1,1-.66l12.94-.11L132.77,2a1.15,1.15,0,0,1,1.11-.5,1.16,1.16,0,0,1,1,.77L139,14.52l12.46,3.56a1.15,1.15,0,0,1,.37,2l-10.38,7.67.5,12.88a1.15,1.15,0,0,1-.6,1.06A1.25,1.25,0,0,1,140.78,41.86ZM129.69,33l11,7.79a.17.17,0,0,0,.17,0,.16.16,0,0,0,.08-.14l-.52-13.41,10.81-8a.17.17,0,0,0,.06-.15.16.16,0,0,0-.12-.12l-13-3.7L133.88,2.62a.14.14,0,0,0-.13-.1.13.13,0,0,0-.15.06L126.1,13.7l-13.47.12a.17.17,0,0,0-.15.09.16.16,0,0,0,0,.16l8.34,10.57-4,12.8a.12.12,0,0,0,0,.15.13.13,0,0,0,.16,0Z"/>
            <path class="cls-1" style="fill:#618f30" d="M43,72.9h-.17a1.14,1.14,0,0,1-.94-.79l-4-12.31L25.47,56.14a1.16,1.16,0,0,1-.36-2l10.4-7.65-.37-13a1.17,1.17,0,0,1,1.84-1l10.44,7.59,12.12-4.36A1.16,1.16,0,0,1,61,37.2L57.09,49.53,65,59.8A1.15,1.15,0,0,1,64,61.66l-12.87,0L43.9,72.4A1.15,1.15,0,0,1,43,72.9ZM36.3,33.3l-.07,0a.17.17,0,0,0-.09.15l.39,13.47-10.82,8a.15.15,0,0,0-.06.16.12.12,0,0,0,.1.12L38.62,59,42.8,71.79a.15.15,0,0,0,.12.11.14.14,0,0,0,.15-.07L50.63,60.7l13.41,0a.15.15,0,0,0,.14-.09.18.18,0,0,0,0-.17L56,49.73l4.1-12.84a.13.13,0,0,0,0-.16.16.16,0,0,0-.16,0L47.26,41.23l-10.87-7.9Z"/>
        </g>
    </g>
</svg>
