<?xml version="1.0" encoding="UTF-8"?>
<svg viewBox="0 0 60 60" version="1.1" xmlns="http://www.w3.org/2000/svg" xmlns:xlink="http://www.w3.org/1999/xlink">
    <g id="Interface_Icons/floatingButton_60px" stroke="none" stroke-width="1" fill="none" fill-rule="evenodd">
        <path d="M30,60 C13.4582609,60 0,46.5417391 0,30 C0,13.4582609 13.4582609,0 30,0 C46.5417391,0 60,13.4582609 60,30 C60,46.5417391 46.5417391,60 30,60 Z" id="Shape" fill="#FD653D" fill-rule="nonzero"></path>
        <path d="M44.7692308,31 L15.2307692,31 C14.5513846,31 14,30.552 14,30 C14,29.448 14.5513846,29 15.2307692,29 L44.7692308,29 C45.4486154,29 46,29.448 46,30 C46,30.552 45.4486154,31 44.7692308,31 Z" id="Shape" fill="#FFFFFF" fill-rule="nonzero"></path>
        <path d="M30,46 C29.448,46 29,45.4486154 29,44.7692308 L29,15.2307692 C29,14.5513846 29.448,14 30,14 C30.552,14 31,14.5513846 31,15.2307692 L31,44.7692308 C31,45.4486154 30.552,46 30,46 Z" id="Shape" fill="#FFFFFF" fill-rule="nonzero"></path>
    </g>
</svg>