<svg xmlns="http://www.w3.org/2000/svg" xmlns:xlink="http://www.w3.org/1999/xlink" viewBox="0 0 119 40">
  <defs>
    <linearGradient id="icon_google_store-a" x1="58.917%" x2="90.81%" y1="9.59%" y2="60.851%">
      <stop offset="0%" stop-color="#FF177B"/>
      <stop offset="100%" stop-color="#FFEC73"/>
    </linearGradient>
    <linearGradient id="icon_google_store-b" x1="37.103%" x2="0%" y1="-44.035%" y2="101.06%">
      <stop offset="0%" stop-color="#064AA2"/>
      <stop offset="100%" stop-color="#63FFD4"/>
    </linearGradient>
    <path id="icon_google_store-c" d="M11.12,10.16 L0.4,0 C0.149902603,0.0580949482 0,0.245170399 0,0.56 L0,10.16 L0,20 C0,20.2671094 0.107677726,20.4260329 0.24,20.48 L11.12,10.16 Z"/>
    <path id="icon_google_store-e" d="M0.442749645,10.3028158 L6.63891584,6.8990468 C8.16473776,6.0535671 9.37566808,5.38256744 9.37566808,5.38256744 L13.8816159,2.95557371 L10.8817624,0.0406371881 L0.00188932426,10.3619214 C0.123155558,10.4009222 0.336890883,10.3796043 0.503638601,10.2973054"/>
    <linearGradient id="icon_google_store-f" x1="78.645%" x2="2.495%" y1="50%" y2="100%">
      <stop offset="0%" stop-color="#FF4521"/>
      <stop offset="100%" stop-color="#8A33DB"/>
    </linearGradient>
    <linearGradient id="icon_google_store-h" x1="0%" x2="64.224%" y1="-24.186%" y2="100%">
      <stop offset="0%" stop-color="#00A3B5"/>
      <stop offset="100%" stop-color="#D6FFA1"/>
    </linearGradient>
    <path id="icon_google_store-i" d="M0.650321906,0.171749941 C0.443952852,0.0612237737 0.238909331,0.0296062052 0.0730427928,0.0742926456 L10.801943,10.2490722 L13.7701577,7.44016124 L9.296,4.96180465 C9.296,4.96180465 5.07896134,2.62536984 2.53268862,1.2145843 L0.650321906,0.171749941 Z"/>
  </defs>
  <g fill="none" fill-rule="evenodd">
    <rect width="118.16" height="40" fill="#000" fill-rule="nonzero" rx="5"/>
    <g transform="translate(4.8 14.24)">
      <path fill="url(#icon_google_store-a)" fill-rule="nonzero" d="M9.61434024,4.96180465 C9.61434024,4.96180465 1.46190871,0.444979845 0.983103736,0.179612403 C0.503502074,-0.0857550384 0.0262904564,0.0752186046 0.0262904564,0.629860465 L0.0262904564,10.2723411 L0.0262904564,20.1108589 C0.0262904564,20.5260434 0.36726971,20.7061426 0.78393361,20.4758387 C1.19980083,20.2455349 9.61434024,15.5828775 9.61434024,15.5828775 C9.61434024,15.5828775 10.7574408,14.9498869 11.328991,14.6333916 C12.2488267,14.1240337 14.0884979,13.1053178 14.0884979,13.1053178 C14.0884979,13.1053178 17.8846805,11.0015038 18.3897759,10.7225891 C18.8940747,10.4428775 18.8454772,10.059569 18.4200498,9.83882792 C17.9938258,9.61888376 14.0884979,7.44016124 14.0884979,7.44016124 L9.61434024,4.96180465 Z"/>
      <g transform="translate(0 .08)">
        <path fill="url(#icon_google_store-b)" fill-rule="nonzero" d="M11.12,10.16 L0.4,0 C0.149902603,0.0580949482 0,0.245170399 0,0.56 L0,10.16 L0,20 C0,20.2671094 0.107677726,20.4260329 0.24,20.48 L11.12,10.16 Z"/>
        <mask id="icon_google_store-d" fill="#fff">
          <use xlink:href="#icon_google_store-c"/>
        </mask>
        <path d="M14.08,7.36 L9.6,4.88 C9.58431048,4.91608736 1.43505838,0.390966577 0.96,0.16 C0.477025508,-0.140743099 0,0.0205262021 0,0.56 L0,10.24 C0,10.2363776 0,19.6762202 0,20.08 C0,20.5089127 0.340846273,20.6893427 0.72,20.48 C1.17305271,20.227889 9.58431048,15.5566678 9.6,15.52 L14.08,13.04 C14.0567233,13.0745576 17.8514254,10.9668796 18.32,10.72 C18.8604259,10.4072272 18.8118474,10.0232147 18.4,9.84 C17.960528,9.58172 14.0567233,7.39899591 14.08,7.36" mask="url(#icon_google_store-d)"/>
      </g>
      <g transform="translate(.239 10.2)">
        <mask id="icon_google_store-g" fill="#fff">
          <use xlink:href="#icon_google_store-e"/>
        </mask>
        <path fill="url(#icon_google_store-f)" fill-rule="nonzero" d="M9.36132784,-5.24031008 C9.34563832,-5.20422271 1.19638618,-9.72934352 0.721327801,-9.96031008 C0.238353309,-10.2610532 -0.238672199,-10.0997838 -0.238672199,-9.56031008 L-0.238672199,0.119689922 C-0.238672199,0.116067494 -0.238672199,9.55591016 -0.238672199,9.95968992 C-0.238672199,10.3886026 0.102174074,10.5690326 0.481327801,10.3596899 C0.934380512,10.1075789 9.34563832,5.4363577 9.36132784,5.39968992 L13.8413278,2.91968992 C13.8180511,2.95424752 17.6127532,0.846569526 18.0813278,0.599689922 C18.6217537,0.28691715 18.5731751,-0.0970953936 18.1613278,-0.280310078 C17.7218558,-0.538590065 13.8180511,-2.72131417 13.8413278,-2.76031008 L9.36132784,-5.24031008 Z" mask="url(#icon_google_store-g)"/>
      </g>
      <g transform="translate(.318)">
        <path fill="url(#icon_google_store-h)" fill-rule="nonzero" d="M0.650321906,0.171749941 C0.443952852,0.0612237737 0.238909331,0.0296062052 0.0730427928,0.0742926456 L10.801943,10.2490722 L13.7701577,7.44016124 L9.296,4.96180465 C9.296,4.96180465 5.07896134,2.62536984 2.53268862,1.2145843 L0.650321906,0.171749941 Z"/>
        <mask id="icon_google_store-j" fill="#fff">
          <use xlink:href="#icon_google_store-i"/>
        </mask>
        <path d="M13.7616598,7.44 L9.28165976,4.96 C9.26597024,4.99608736 1.11671813,0.470966577 0.641659751,0.24 C0.158685259,-0.0607430992 -0.318340249,0.100526202 -0.318340249,0.64 L-0.318340249,10.32 C-0.318340249,10.3163776 -0.318340249,19.7562202 -0.318340249,20.16 C-0.318340249,20.5889127 0.0225060242,20.7693427 0.401659751,20.56 C0.854712462,20.307889 9.26597024,15.6366678 9.28165976,15.6 L13.7616598,13.12 C13.738383,13.1545576 17.5330851,11.0468796 18.0016598,10.8 C18.5420857,10.4872272 18.4935071,10.1032147 18.0816598,9.92 C17.6421878,9.66172 13.738383,7.47899591 13.7616598,7.44" mask="url(#icon_google_store-j)"/>
      </g>
    </g>
    <g fill="#FFF" fill-rule="nonzero" transform="translate(27.76 16.08)">
      <path d="M53.1692216,11.8295841 L52.2833258,12.6704294 C52.0785928,12.7836096 51.8749575,12.915009 51.6718711,13.0083135 C51.0565742,13.2893314 50.4308486,13.36 49.874831,13.36 C49.283136,13.36 48.3555252,13.3213531 47.4092523,12.6328868 C46.0946796,11.7014973 45.52,10.1004129 45.52,8.70526096 C45.52,5.81668371 47.857689,4.4 49.7645057,4.4 C50.4308486,4.4 51.1153046,4.56783782 51.6718711,4.9217327 C52.5972864,5.53732208 52.836599,6.33731222 52.9694285,6.76574034 L48.6151464,8.53521472 L47.1891506,8.64673856 C47.6507605,11.0152394 49.2436165,12.3927242 51.0038815,12.3927242 C51.8831907,12.3927242 52.5358116,12.1039768 53.134642,11.8063959 C53.134642,11.8063959 53.2548472,11.7434568 53.1692216,11.8295841 L53.1692216,11.8295841 Z M50.5087597,7.07820287 C50.858217,6.94814266 51.04,6.83586846 51.04,6.57463641 C51.04,5.82540065 50.2124806,4.96 49.2248838,4.96 C48.4934109,4.96 47.12,5.54360352 47.12,7.57009726 C47.12,7.88635479 47.1568992,8.22317736 47.1753488,8.56 L50.5087597,7.07820287 L50.5087597,7.07820287 Z"/>
      <path d="M44.0820897,11.7282512 C44.0820897,12.4502863 44.2101076,12.5626396 44.8168251,12.619367 C45.1330403,12.6568181 45.4481614,12.6733406 45.76,12.7107917 L45.0772377,13.12 L41.823722,13.12 C42.2504484,12.5626396 42.3237578,12.5070137 42.3237578,12.1358072 L42.3237578,11.7210914 L42.3166458,0.670815213 L40.88,0.670815213 L42.2630314,0 L44.9032646,0 C44.3310134,0.333755352 44.1597758,0.536982621 44.0864664,1.18742003 L44.0820897,11.7282512"/>
      <path d="M39.0343291 5.3118208C39.4576253 5.66259936 40.3408122 6.40710897 40.3408122 7.81903399 40.3408122 9.19516528 39.5712325 9.84385784 38.7950986 10.457858 38.5569603 10.6996034 38.2784042 10.9617236 38.2784042 11.3670187 38.2784042 11.7783713 38.5569603 12.0013938 38.7574115 12.167697L39.4232154 12.6858801C40.2326668 13.3747717 40.9705676 14.0063934 40.9705676 15.289461 40.9705676 17.0372964 39.2926763 18.8 36.1220518 18.8 33.4511898 18.8 32.16 17.5174831 32.16 16.1424531 32.16 15.4733857 32.4904441 14.5256778 33.5806364 13.8764346 34.7232629 13.1721242 36.2711613 13.0779591 37.1002754 13.0228918 36.8413821 12.6858801 36.5458941 12.3328988 36.5458941 11.756895 36.5458941 11.4419102 36.6398385 11.2541308 36.7305058 11.0327604 36.5289622 11.0520339 36.3257801 11.0718582 36.1411684 11.0718582 34.1863595 11.0718582 33.0814201 9.60156176 33.0814201 8.15274168 33.0814201 7.29809754 33.4681216 6.349839 34.2622798 5.66259936 35.3131466 4.79033367 36.566103 4.64 37.5618048 4.64L41.36 4.64 40.1791403 5.3118208 39.0343291 5.3118208 39.0343291 5.3118208zM37.7376085 13.5401819C37.5850894 13.52 37.4936882 13.52 37.3097843 13.52 37.1412976 13.52 36.1375351 13.5570002 35.3600734 13.8227293 34.9487675 13.9757758 33.76 14.4281878 33.76 15.7719695 33.76 17.1129481 35.0434725 18.08 37.0289731 18.08 38.8129503 18.08 39.76 17.209373 39.76 16.0371379 39.76 15.0723285 39.1471708 14.5632948 37.7376085 13.5401819L37.7376085 13.5401819zM38.2588171 9.96122272C38.6830183 9.53357456 38.72 8.94288208 38.72 8.60746104 38.72 7.27510917 37.9330523 5.2 36.4075595 5.2 35.9316927 5.2 35.4161251 5.44099813 35.123535 5.81374922 34.812998 6.19967561 34.72 6.70033687 34.72 7.18178415 34.72 8.42245792 35.4367913 10.48 37.0134058 10.48 37.473501 10.48 37.9684025 10.254373 38.2588171 9.96122272L38.2588171 9.96122272zM27.546949 13.36C24.6109186 13.36 23.04 11.0438963 23.04 8.946816 23.04 6.49652578 25.0148691 4.4 27.8239124 4.4 30.5393574 4.4 32.24 6.55363822 32.24 8.81484744 32.24 11.0233802 30.5590623 13.36 27.546949 13.36L27.546949 13.36zM29.8430757 11.8452316C30.2912514 11.2446783 30.4 10.495099 30.4 9.76442584 30.4 8.11179232 29.6222833 4.96 27.3237348 4.96 26.7124362 4.96 26.0967438 5.2018895 25.6529619 5.59669764 24.9290702 6.25341372 24.8 7.07861834 24.8 7.88825306 24.8 9.74218312 25.7051393 12.8 27.9515104 12.8 28.6765006 12.8 29.4163202 12.4446726 29.8430757 11.8452316L29.8430757 11.8452316zM17.7066365 13.36C14.7688352 13.36 13.2 11.0438963 13.2 8.946816 13.2 6.49652578 15.1762395 4.4 17.985358 4.4 20.7002917 4.4 22.4 6.55363822 22.4 8.81484744 22.4 11.0233802 20.7205523 13.36 17.7066365 13.36L17.7066365 13.36zM20.0039015 11.8452316C20.4490001 11.2446783 20.56 10.495099 20.56 9.76442584 20.56 8.11179232 19.7797037 4.96 17.4822255 4.96 16.868429 4.96 16.2590286 5.2018895 15.8139299 5.59669764 15.0885841 6.25341372 14.96 7.07861834 14.96 7.88825306 14.96 9.74218312 15.8694299 12.8 18.1130566 12.8 18.836754 12.8 19.5758375 12.4446726 20.0039015 11.8452316L20.0039015 11.8452316zM11.9819988 12.8064327L9.49511696 13.3795902C8.48750112 13.5394768 7.5826807 13.68 6.62453858 13.68 1.82778116 13.68 0 10.1265341 0 7.34539238 0 3.94904686 2.5896773.8 7.02472645.8 7.96307906.8 8.86570064.938863448 9.68806472 1.16458571 10.9914238 1.53304411 11.6010507 1.98725484 11.9819988 2.25336369L10.5373646 3.63425282 9.92828736 3.77145655 10.3625572 3.07492634C9.77436896 2.49678966 8.69309208 1.42958808 6.64102983 1.42958808 3.89743411 1.42958808 1.82778116 3.52858382 1.82778116 6.59298484 1.82778116 9.88421456 4.19097852 12.9801503 7.98121945 12.9801503 9.09492912 12.9801503 9.6682752 12.7549813 10.1888493 12.5447498L10.1888493 9.72322152 7.56289119 9.8654044 8.95475344 9.11299688 12.64 9.11299688 12.189239 9.54950392C12.0677534 9.6535132 12.0512621 9.68892056 12.0171802 9.82833728 11.9990398 9.98767064 11.9819988 10.4944393 11.9819988 10.6725828L11.9819988 12.8064327M58.536193 11.9151819L58.536193 16.64 57.6 16.64 57.6 4.61713824 58.536193 4.61713824 58.536193 5.98648342C59.1460622 5.10143897 60.2604994 4.4 61.5548262 4.4 63.8763875 4.4 65.44 6.16514147 65.44 8.95935328 65.44 11.7348747 63.8763875 13.5368472 61.5548262 13.5368472 60.332894 13.5368472 59.2382008 12.9052223 58.536193 11.9151819L58.536193 11.9151819zM64.48 9.03138952C64.48 6.90321342 63.3806658 5.28 61.4313706 5.28 60.2208369 5.28 59.0631505 6.23992908 58.56 7.07708946L58.56 10.9662466C59.0631505 11.8050735 60.2208369 12.8 61.4313706 12.8 63.3806658 12.8 64.48 11.1628987 64.48 9.03138952L64.48 9.03138952z"/>
      <polygon points="66.72 1.28 67.68 1.28 67.68 13.36 66.72 13.36"/>
      <path d="M78.1170617 15.8080877C78.3172576 15.8977117 78.6589618 15.9526958 78.8756122 15.9526958 79.4482272 15.9526958 79.8469735 15.7179138 80.205132 14.8887543L80.887992 13.3376542 77.2 4.56 78.2443095 4.56 81.4079528 12.1664938 84.5408816 4.56 85.6 4.56 81.1019 15.17962C80.6351424 16.2738026 79.9007248 16.8 78.8920666 16.8 78.5893046 16.8 78.1900098 16.7461156 77.9563565 16.6740865L78.1170617 15.8080877M75.475 13.348081C75.4121174 13.044597 75.3646797 12.7770445 75.3299288 12.5537156 75.3012455 12.3309395 75.2846975 12.1031882 75.2846975 11.8715674 74.9620106 12.3464178 74.5047331 12.7416657 73.9205872 13.0528888 73.3358897 13.3663232 72.780427 13.52 72.0186655 13.52 71.1013523 13.52 70.3892349 13.2939071 69.88121 12.8350879 69.3748398 12.3768214 69.12 11.7560334 69.12 10.9705128 69.12 10.1860977 69.4890214 9.54927872 70.2248577 9.06226696 70.9606939 8.573044 71.9116548 8.32981456 73.0887722 8.32981456L75.2846975 8.32981456 75.2846975 7.24246818C75.2846975 6.61615226 75.0717794 6.12361256 74.6464946 5.76650746 74.2195552 5.40884956 73.620516 5.22808583 72.8438612 5.22808583 72.1339502 5.22808583 71.5580783 5.39337132 71.1195552 5.71509758 70.6848932 6.04345739 70.4659074 6.45031398 70.4659074 6.9406425L69.5022598 6.9406425 69.4824022 6.89365499C69.4476513 6.23251303 69.7493772 5.65263183 70.3908897 5.15180022 71.0296442 4.6515214 71.8664235 4.4 72.8962634 4.4 73.9227936 4.4 74.7535054 4.64765184 75.379573 5.14184992 76.005089 5.63107286 76.3189502 6.33809674 76.3189502 7.26236877L76.3189502 11.5796921C76.3189502 11.8898097 76.3338434 12.1894242 76.3724555 12.4812995 76.4121708 12.7737278 76.475605 13.0656031 76.56 13.348081L75.475 13.348081 75.475 13.348081zM72.131944 12.72C72.9310829 12.72 73.5053606 12.5399722 74.0923143 12.1838062 74.6754101 11.8298626 75.0722239 11.3681247 75.28 10.8091496L75.28 9.12 73.075479 9.12C72.233352 9.12 71.5361722 9.3078068 70.9877976 9.68675416 70.4383208 10.0645902 70.16 10.521883 70.16 11.0536318 70.16 11.5553758 70.3363617 11.9565489 70.6868805 12.2604846 71.0385016 12.5677543 71.5190872 12.72 72.131944 12.72L72.131944 12.72z"/>
    </g>
    <g fill="#FFF" fill-rule="nonzero" transform="translate(27.44 6.32)">
      <path d="M0.0033976834,2.90488058 C0.0033976834,1.18167528 1.37945946,0.0732046332 3.09058153,0.0732046332 C4.23739153,0.0732046332 4.98741959,0.582321818 5.45474053,1.20577246 L4.61708979,1.65746657 C4.29966425,1.24678896 3.74361846,0.92737304 3.09058153,0.92737304 C1.92668787,0.92737304 1.06203391,1.74770285 1.06203391,2.90488058 C1.06203391,4.045139 1.92668787,4.8823881 3.09058153,4.8823881 C3.6907142,4.8823881 4.21975678,4.62808586 4.48427806,4.39019022 L4.48427806,3.54473782 L2.72025173,3.54473782 L2.72025173,2.69928542 L5.50764478,2.69928542 L5.50764478,4.74293204 C4.93451534,5.3422855 4.10513088,5.7442471 3.09058153,5.7442471 C1.37945946,5.7442471 0.0033976834,4.62039527 0.0033976834,2.90488058"/>
      <polyline points="6.842 5.661 6.842 .157 10.928 .157 10.928 1.007 7.888 1.007 7.888 2.426 10.866 2.426 10.866 3.276 7.888 3.276 7.888 4.811 10.928 4.811 10.928 5.661 6.842 5.661"/>
      <polyline points="13.708 5.661 13.708 1.007 11.929 1.007 11.929 .157 16.516 .157 16.516 1.007 14.738 1.007 14.738 5.661 13.708 5.661"/>
      <polygon points="20.186 .157 21.186 .157 21.186 5.661 20.186 5.661"/>
      <polyline points="24.049 5.661 24.049 1.007 22.271 1.007 22.271 .157 26.857 .157 26.857 1.007 25.08 1.007 25.08 5.661 24.049 5.661"/>
      <path d="M30.2767567,2.90898259 C30.2767567,1.27313458 31.5354071,0.0732046332 33.321051,0.0732046332 C35.096657,0.0732046332 36.3647877,1.27313458 36.3647877,2.90898259 C36.3647877,4.54431716 35.096657,5.7442471 33.321051,5.7442471 C31.5354071,5.7442471 30.2767567,4.54431716 30.2767567,2.90898259 L30.2767567,2.90898259 Z M35.2806178,2.86702702 C35.2806178,1.74457464 34.509422,0.907181464 33.3210492,0.907181464 C32.1238121,0.907181464 31.3609266,1.74457464 31.3609266,2.86702702 C31.3609266,3.98084126 32.1238121,4.82687258 33.3210492,4.82687258 C34.509422,4.82687258 35.2806178,3.98084126 35.2806178,2.86702702 L35.2806178,2.86702702 Z"/>
      <polyline points="41.625 5.661 38.562 1.725 38.562 5.661 37.532 5.661 37.532 .157 38.589 .157 41.59 3.969 41.59 .157 42.62 .157 42.62 5.661 41.625 5.661"/>
    </g>
  </g>
</svg>
