<?xml version="1.0" encoding="UTF-8"?>
<svg viewBox="0 0 30 30" version="1.1"  xmlns="http://www.w3.org/2000/svg" xmlns:xlink="http://www.w3.org/1999/xlink">
<path
    d="M11.37 20.1a7.27 7.27 0 0 1 1.536-2.506l.555-13.773c0-.147.097-.276.233-.276h.233c.117 0 .214.13.214.276l-.532 13.112a7.5 7.5 0 0 1 2.274-1.283l.786-11.258c.02-.147.136-.276.253-.276h.233c.136 0 .233.13.214.276l-.777 11.046a7.64 7.64 0 0 1 1.822-.219h.094l.902-11.527a.73.73 0 0 0-.525-.773L17.7 2.56c-4.123-1.197-4.298-1.197-8.888-.313l-.817.166c-2.003-.295-4.103-.405-5.95.737a.72.72 0 0 0-.37.681l1.07 15.505c.02.387.37.7.797.7h.467c.233-.037.447-.147.467-.405L3.405 3.867c0-.147.078-.276.214-.276h.233c.136 0 .233.13.253.276l1.09 15.836c.058.203.292.313.642.33h1.01c.233-.018.467-.147.467-.405l-.642-15.1c-.02-.147.078-.258.214-.258h.233c.117 0 .233.1.233.258l.642 15.173c.04.203.292.313.642.33h.875c.37-.018.564-.147.603-.313V4.217c0-.147.097-.276.233-.276h.233c.136 0 .233.13.233.276v15.468c-.02.258.175.368.408.405h.146zm-.328 1.27H3.852c-.525 0-.953.405-.953.884v1.197c0 .48.428.884.953.884h7.327c-.15-.58-.23-1.186-.23-1.812a7.2 7.2 0 0 1 .092-1.153zm.694 4.42H2.083c-.447 0-.797-.33-.797-.755v-3.59L.002 2.542c-.02-.276.117-.534.35-.68C2.53.48 5.02.608 7.41.976l.992-.203c5.523-1.086 5.62-1.086 10.58.368l1.44.424a.73.73 0 0 1 .564.792l-.995 13.016c3.366.708 5.9 3.636 5.9 7.14 0 4.034-3.343 7.304-7.466 7.304-2.923 0-5.454-1.643-6.68-4.037zm6.7 2.56c3.3 0 5.976-2.617 5.976-5.846s-2.676-5.846-5.976-5.846-5.976 2.617-5.976 5.846 2.676 5.846 5.976 5.846zm-1.062-4.056l4.243-4.088c.217-.21.566-.21.782 0s.22.56 0 .77l-4.634 4.464c-.105.1-.246.156-.39.156s-.285-.055-.39-.156l-2.896-2.8c-.22-.212-.22-.56 0-.77s.566-.21.782 0l2.505 2.413z"
    fill="#000000" fill-rule="evenodd" />
</svg>