<svg xmlns="http://www.w3.org/2000/svg" viewBox="0 0 119 40">
  <g fill="none">
    <rect width="118.16" height="40" fill="#000" rx="5"/>
    <path fill="#FFF" d="M15.4672613 12.0443384C15.4415165 9.18310864 17.810043 7.79111105 17.9183489 7.72630503 16.5769533 5.77058392 14.4978344 5.5033701 13.7672132 5.48206402 12.0210019 5.29829902 10.3271682 6.52694996 9.43763904 6.52694996 8.53035496 6.52694996 7.16055117 5.49981908 5.68421698 5.5300027 3.78442434 5.55929858 2.0071417 6.65922525 1.03238828 8.36726312-.979261304 11.8499204.521042224 16.9678197 2.44835522 19.7828862 3.4124556 21.1624553 4.53901488 22.7009322 6.01357355 22.6467793 7.4561731 22.5881875 7.99503952 21.7270666 9.73592424 21.7270666 11.4608294 21.7270666 11.966849 22.6467793 13.4707035 22.6112691 15.0189458 22.5881875 15.9936992 21.2272613 16.9240649 19.8352637 18.0381957 18.2568378 18.4856234 16.6988303 18.5033785 16.6189326 18.4678684 16.6073918 15.497445 15.4737304 15.4672613 12.0443384M12.6264499 3.63021006C13.4023465 2.65989542 13.9332231 1.33980586 13.7858561.000185725018 12.6628478.0498999249 11.2584216.776970098 10.4496782 1.72597866 9.7341488 2.56224253 9.09496616 3.93293403 9.26008832 5.22195222 10.5215862 5.3160541 11.8168186 4.5854329 12.6264499 3.63021006" transform="translate(10.4 7.04)"/>
    <path fill="#FFF" d="M10.042317 12.0488102L8.0262287 12.0488102 6.92186326 8.57858152 3.08321683 8.57858152 2.03122885 12.0488102.06840571 12.0488102 3.87242975.234585725 6.2214257.234585725 10.042317 12.0488102 10.042317 12.0488102zM6.58895567 7.12266566L5.5902329 4.03860977C5.48459023 3.7225695 5.28573343 2.98040751 4.99455026 1.81212382L4.95904012 1.81212382C4.84185665 2.31459234 4.65454065 3.05675432 4.39797986 4.03860977L3.41612442 7.12266566 6.58895567 7.12266566 6.58895567 7.12266566zM19.8058308 7.68461367C19.8058308 9.13342752 19.412556 10.2786296 18.6251186 11.1193322 17.9202422 11.8677085 17.0440294 12.2414527 15.9991435 12.2414527 14.8708087 12.2414527 14.0594019 11.8393004 13.5666987 11.0323324L13.5666987 15.5021716 11.6740081 15.5021716 11.6740081 6.32990173C11.6740081 5.41995432 11.6500388 4.48692532 11.6038756 3.52992698L13.2684135 3.52992698 13.3740562 4.8810879 13.4095663 4.8810879C14.0407591 3.86283456 14.9986452 3.35415177 16.2841124 3.35415177 17.2890494 3.35415177 18.1279766 3.75097761 18.7991182 4.54551706 19.4693722 5.34183201 19.8058308 6.38760571 19.8058308 7.68461367L19.8058308 7.68461367zM17.8776301 7.75385846C17.8776301 6.92469662 17.6912018 6.24112637 17.3165698 5.70314771 16.9073154 5.14297521 16.3577959 4.86155733 15.6688992 4.86155733 15.2019408 4.86155733 14.7775946 5.01780195 14.3985238 5.32674019 14.0185653 5.63656619 13.7699943 6.04226957 13.6536986 6.54562585 13.5951068 6.77910503 13.565811 6.96997205 13.565811 7.12089016L13.565811 8.54307136C13.565811 9.16094784 13.7557902 9.68383472 14.1357488 10.1117319 14.5157073 10.5378537 15.0092982 10.7518022 15.6165217 10.7518022 16.3293878 10.7518022 16.8842338 10.4757109 17.2810597 9.92796696 17.6787733 9.37844752 17.8776301 8.65404056 17.8776301 7.75385846L17.8776301 7.75385846zM29.603967 7.68461367C29.603967 9.13342752 29.2106921 10.2786296 28.4232547 11.1193322 27.7174906 11.8677085 26.8421656 12.2414527 25.7963919 12.2414527 24.6689449 12.2414527 23.8575381 11.8393004 23.3639471 11.0323324L23.3639471 15.5021716 21.4712565 15.5021716 21.4712565 6.32990173C21.4712565 5.41995432 21.4472871 4.48692532 21.401124 3.52992698L23.0656619 3.52992698 23.1713046 4.8810879 23.2068147 4.8810879C23.8371198 3.86283456 24.7950058 3.35415177 26.0813608 3.35415177 27.0854101 3.35415177 27.925225 3.75097761 28.5972544 4.54551706 29.2666206 5.34183201 29.603967 6.38760571 29.603967 7.68461367L29.603967 7.68461367zM27.6748784 7.75385846C27.6748784 6.92469662 27.4875624 6.24112637 27.1129304 5.70314771 26.7045638 5.14297521 26.1559321 4.86155733 25.4670353 4.86155733 25.000077 4.86155733 24.5757307 5.01780195 24.1948845 5.32674019 23.8158137 5.63656619 23.5672426 6.04226957 23.450947 6.54562585 23.393243 6.77910503 23.3621716 6.96997205 23.3621716 7.12089016L23.3621716 8.54307136C23.3621716 9.16094784 23.5530386 9.68383472 23.9312216 10.1117319 24.3111802 10.5369659 24.8047711 10.7518022 25.4137701 10.7518022 26.127524 10.7518022 26.6823699 10.4757109 27.078308 9.92796696 27.4760216 9.37844752 27.6748784 8.65404056 27.6748784 7.75385846L27.6748784 7.75385846zM40.558846 8.73571392C40.558846 9.74065096 40.2081834 10.558272 39.5086335 11.1894648 38.7398389 11.8783615 37.6665449 12.2236977 36.2905268 12.2236977 35.0192637 12.2236977 34.0001226 11.9786777 33.231328 11.48775L33.6689906 9.91021184C34.4990402 10.4011396 35.410763 10.6470474 36.4032715 10.6470474 37.1170254 10.6470474 37.6718714 10.4854762 38.0678094 10.1649971 38.465523 9.84274256 38.6652676 9.4139576 38.6652676 8.87775448 38.6652676 8.39747976 38.5001454 7.99443967 38.1734522 7.6668586 37.845871 7.34105304 37.3043414 7.03566582 36.5444243 6.75691119 34.4759586 5.98545334 33.4408378 4.8562308 33.4408378 3.37279459 33.4408378 2.4033677 33.8065923 1.609716 34.535438.989176256 35.2651714.369524267 36.2328228.059698272 37.4366166.059698272 38.5116862.059698272 39.4074296.247014275 40.1185202.620758527L39.6435721 2.16367423C38.9742058 1.80147078 38.2187276 1.62036905 37.3735862 1.62036905 36.7059955 1.62036905 36.1813331 1.78460346 35.8075889 2.11129677 35.4924364 2.4033677 35.331753 2.75935687 35.331753 3.18192758 35.331753 3.6479982 35.5137425 4.03505875 35.8768337 4.33778272 36.1910984 4.61831285 36.7645872 4.92281232 37.593749 5.24950563 38.6111146 5.65964778 39.3577154 6.1372592 39.8371023 6.68589091 40.3191525 7.23452262 40.558846 7.91898062 40.558846 8.73571392M46.8326005 4.95033268L44.7463796 4.95033268 44.7463796 9.08637656C44.7463796 10.1383646 45.1139095 10.6630269 45.850745 10.6630269 46.1889791 10.6630269 46.4695093 10.6346188 46.6914476 10.5751393L46.7438251 12.0124123C46.3709686 12.1517896 45.8800409 12.2219222 45.2728174 12.2219222 44.5244412 12.2219222 43.941187 11.9928818 43.5186164 11.5374642 43.0978212 11.0811588 42.8874236 10.316803 42.8874236 9.24084568L42.8874236 4.94678166 41.6454563 4.94678166 41.6454563 3.52637596 42.8874236 3.52637596 42.8874236 1.96659294 44.7463796 1.40553268 44.7463796 3.52637596 46.8326005 3.52637596 46.8326005 4.95033268M56.2268087 7.71923606C56.2268087 9.02867256 55.8530645 10.1037422 55.1046882 10.9444448 54.3225773 11.8091167 53.2821302 12.2414527 51.9851222 12.2414527 50.7333896 12.2414527 49.7382179 11.8268718 48.9960559 10.99771 48.2538939 10.1685482 47.882813 9.12277448 47.882813 7.86127663 47.882813 6.54118708 48.2672102 5.45990323 49.0306783 4.6192006 49.7959218 3.77849797 50.8274915 3.35681502 52.1244994 3.35681502 53.3753442 3.35681502 54.3785058 3.77317145 55.1393106 4.60144553 55.865493 5.40663802 56.2268087 6.44442194 56.2268087 7.71923606L56.2268087 7.71923606zM54.2648734 7.76273598C54.2648734 6.9824006 54.0962002 6.31303441 53.7579661 5.75286191 53.3611402 5.07639369 52.7920902 4.73904734 52.0570302 4.73904734 51.2997764 4.73904734 50.7165223 5.07639369 50.321472 5.75286191 49.9814623 6.31303441 49.813677 6.9939414 49.813677 7.79824613 49.813677 8.57946928 49.9814623 9.25061096 50.321472 9.80812024 50.7307264 10.4854762 51.3015519 10.8237103 52.0419384 10.8237103 52.7645698 10.8237103 53.3318443 10.4774864 53.7428742 9.79214064 54.0899858 9.21865184 54.2648734 8.54484688 54.2648734 7.76273598L54.2648734 7.76273598zM62.3816042 5.19446491C62.1942882 5.15984253 61.9936559 5.14297521 61.7850338 5.14297521 61.1192186 5.14297521 60.6043216 5.39243396 60.2421181 5.89667798 59.9269656 6.34055477 59.7698332 6.90161502 59.7698332 7.578971L59.7698332 12.0488102 57.8771426 12.0488102 57.8771426 6.21271826C57.8771426 5.23175056 57.8584998 4.33600722 57.8221018 3.53081473L59.4706602 3.53081473 59.539905 5.16073028 59.5922825 5.16073028C59.7929148 4.60055778 60.1071796 4.14869121 60.5386278 3.81134486 60.9611985 3.50595762 61.4157283 3.35415177 61.9066561 3.35415177 62.0815435 3.35415177 62.2395636 3.36746807 62.3798287 3.38877415L62.3816042 5.19446491M70.8463345 7.38632847C70.8463345 7.72545034 70.8241406 8.01130698 70.7770897 8.24478616L65.0999056 8.24478616C65.120324 9.08637656 65.3964154 9.73088568 65.9228532 10.1747624 66.4013524 10.5707006 67.0210043 10.7695574 67.7800337 10.7695574 68.6207363 10.7695574 69.3877554 10.6363943 70.0775399 10.3665172L70.3740496 11.6803925C69.5679694 12.0310551 68.6154098 12.2068303 67.5181463 12.2068303 66.197169 12.2068303 65.1602729 11.8179943 64.4056823 11.0420977 63.653755 10.2653133 63.2755721 9.22042736 63.2755721 7.9136541 63.2755721 6.62996243 63.625347 5.56021938 64.3284478 4.70708821 65.0635078 3.79625304 66.056904 3.34083546 67.306861 3.34083546 68.5346242 3.34083546 69.4641022 3.79625304 70.0944072 4.70708821 70.5951002 5.42883186 70.8463345 6.32368746 70.8463345 7.38632847L70.8463345 7.38632847zM69.0415315 6.89540075C69.0548478 6.33345274 68.9305623 5.8505148 68.6740015 5.44037266 68.3464204 4.91304703 67.8421764 4.65027198 67.1665959 4.65027198 66.5469439 4.65027198 66.0435877 4.90683276 65.6600782 5.42172982 65.3449256 5.83098422 65.1576096 6.32368746 65.0999056 6.89362525L69.0415315 6.89540075 69.0415315 6.89540075z" transform="translate(36.72 17.44)"/>
    <g fill="#FFF" transform="translate(37.44 7.28)">
      <path d="M4.956345 6.16621548L3.96472426 6.16621548 3.42230684 4.46084087 1.5358305 4.46084087 1.01827018 6.16621548.0532820436 6.16621548 1.92289106.359419384 3.0769707.359419384 4.956345 6.16621548 4.956345 6.16621548zM3.25896018 3.7453115L2.76803246 2.2290284C2.71654275 2.07367153 2.62155312 1.71235582 2.47507378 1.135316L2.4573187 1.135316C2.39695146 1.38477475 2.31083937 1.74697821 2.18122734 2.2290284L1.69917716 3.7453115 3.25896018 3.7453115 3.25896018 3.7453115zM9.63125528 1.97956965L8.04572742 6.16621548 7.14110654 6.16621548 5.60706837 1.97956965 6.60667889 1.97956965 7.32220826 4.19362705C7.44294275 4.56382029 7.54592216 4.91714621 7.62315673 5.25271706L7.64890158 5.25271706C7.71814636 4.95176859 7.82112577 4.59844267 7.94985004 4.19362705L8.65650184 1.97956965 9.63125528 1.97956965M13.0064944 6.16621548L12.9372496 5.68416529 12.9115047 5.68416529C12.6274236 6.0721136 12.2137304 6.26120511 11.6881803 6.26120511 10.9389163 6.26120511 10.4044886 5.735655 10.4044886 5.02900315 10.4044886 3.995658 11.300232 3.46123035 12.8511375 3.46123035L12.8511375 3.38399579C12.8511375 2.83270082 12.5581788 2.55660946 11.981139 2.55660946 11.5674458 2.55660946 11.2052424 2.66047663 10.8874266 2.86732322L10.6983351 2.25566101C11.0862834 2.01419204 11.5683336 1.89345755 12.1373836 1.89345755 13.231096 1.89345755 13.7832787 2.47049737 13.7832787 3.62546476L13.7832787 5.16749271C13.7832787 5.59006341 13.8010338 5.91764448 13.843646 6.16710323L13.0064944 6.16621548 13.0064944 6.16621548zM12.8768823 4.08088234C11.8426494 4.08088234 11.3259769 4.33122885 11.3259769 4.92513598 11.3259769 5.36457401 11.5931907 5.57941037 11.9633839 5.57941037 12.4374443 5.57941037 12.8768823 5.21809466 12.8768823 4.72716694L12.8768823 4.08088234 12.8768823 4.08088234zM15.8552956 1.28978512C15.5454696 1.28978512 15.3040006 1.04831615 15.3040006.729612622 15.3040006.410909091 15.5534594.178317656 15.8730506.178317656 16.1917542.178317656 16.4500905.410909091 16.441213.729612622 16.441213 1.06607122 16.2006317 1.28978512 15.8552956 1.28978512L15.8552956 1.28978512zM15.4078678 1.97956965L16.3382335 1.97956965 16.3382335 6.16621548 15.4078678 6.16621548 15.4078678 1.97956965z"/>
      <polygon points="17.991 .058 18.922 .058 18.922 6.166 17.991 6.166"/>
      <path d="M22.8756508 6.16621548L22.8055182 5.68416529 22.7806611 5.68416529C22.49658 6.0721136 22.0828869 6.26120511 21.5573367 6.26120511 20.8080727 6.26120511 20.273645 5.735655 20.273645 5.02900315 20.273645 3.995658 21.1693884 3.46123035 22.7202939 3.46123035L22.7202939 3.38399579C22.7202939 2.83270082 22.4273352 2.55660946 21.8502954 2.55660946 21.4366022 2.55660946 21.0743988 2.66047663 20.756583 2.86732322L20.5666038 2.25477326C20.9545521 2.01330428 21.4366022 1.8925698 22.0056523 1.8925698 23.0993647 1.8925698 23.6524352 2.46960962 23.6524352 3.62457701L23.6524352 5.16660496C23.6524352 5.58917566 23.6701902 5.91675673 23.7110269 6.16621548L22.8756508 6.16621548 22.8756508 6.16621548zM22.7460388 4.08088234C21.7118058 4.08088234 21.1951333 4.33122885 21.1951333 4.92513598 21.1951333 5.36457401 21.4623471 5.57941037 21.8325403 5.57941037 22.3066007 5.57941037 22.7460388 5.21809466 22.7460388 4.72716694L22.7460388 4.08088234 22.7460388 4.08088234zM27.420949 6.26120511C26.8270419 6.26120511 26.3884917 6.0108586 26.1035228 5.51993088L26.0857677 5.51993088 26.0325025 6.16621548 25.2406263 6.16621548C25.2654834 5.83064463 25.274361 5.4506861 25.274361 5.03788069L25.274361.0584709241 26.2065022.0584709241 26.2065022 2.59211961 26.2233695 2.59211961C26.4994609 2.12693674 26.9468886 1.8943453 27.5585509 1.8943453 28.5670389 1.8943453 29.2736907 2.75635402 29.2736907 4.01341307 29.2736907 5.3130843 28.4889166 6.26120511 27.420949 6.26120511L27.420949 6.26120511zM27.2318575 2.62496649C26.6965422 2.62496649 26.2065022 3.09014936 26.2065022 3.73643396L26.2065022 4.46883066C26.2065022 5.04587047 26.6468279 5.51993088 27.2149902 5.51993088 27.9118768 5.51993088 28.3273454 4.95176859 28.3273454 4.04714771 28.3264577 3.20289406 27.8950094 2.62496649 27.2318575 2.62496649L27.2318575 2.62496649z"/>
      <polygon points="30.651 .058 31.58 .058 31.58 6.166 30.651 6.166"/>
      <path d="M36.6438209 4.29660646L33.8509482 4.29660646C33.869591 5.0893704 34.3933656 5.5367982 35.1683745 5.5367982 35.5829554 5.5367982 35.9620262 5.46755342 36.297597 5.33882915L36.4423008 5.98511375C36.0463627 6.15733794 35.5811798 6.24345004 35.0387624 6.24345004 33.7284382 6.24345004 32.9534293 5.41606371 32.9534293 4.13325981 32.9534293 2.84956814 33.747081 1.88458002 34.9348953 1.88458002 36.001975 1.88458002 36.67578 2.67734395 36.67578 3.87492352 36.6784433 4.03827018 36.6704535 4.18474951 36.6438209 4.29660646L36.6438209 4.29660646zM35.7915774 3.63345454C35.7915774 2.98716994 35.4631086 2.53086462 34.8683138 2.53086462 34.3338861 2.53086462 33.9130909 2.99604748 33.8509482 3.63345454L35.7915774 3.63345454 35.7915774 3.63345454zM42.2828315 6.26120511C41.0595071 6.26120511 40.2667432 5.34770669 40.2667432 4.10751495 40.2667432 2.81494575 41.0763745 1.89345755 42.3529641 1.89345755 43.5576457 1.89345755 44.3690525 2.76345605 44.3690525 4.03915793 44.3690525 5.34770669 43.5327886 6.26120511 42.2828315 6.26120511L42.2828315 6.26120511zM42.3183417 2.57347678C41.6463122 2.57347678 41.2157518 3.20200631 41.2157518 4.08088234 41.2157518 4.94289106 41.6551898 5.57142058 42.3094642 5.57142058 42.9637386 5.57142058 43.4031766 4.89939114 43.4031766 4.06312727 43.4031766 3.21088385 42.9726161 2.57347678 42.3183417 2.57347678L42.3183417 2.57347678zM49.3706561 6.16621548L48.4420658 6.16621548 48.4420658 3.76217882C48.4420658 3.02179234 48.1570969 2.65071134 47.5969244 2.65071134 47.0456294 2.65071134 46.665671 3.12477175 46.665671 3.67606672L46.665671 6.16621548 45.7370807 6.16621548 45.7370807 3.17626146C45.7370807 2.80606822 45.7264277 2.40924238 45.7015706 1.9786819L46.5200794 1.9786819 46.5635793 2.62496649 46.5902118 2.62496649C46.8378951 2.1775387 47.3474657 1.8925698 47.9165157 1.8925698 48.7936162 1.8925698 49.3706561 2.56459925 49.3706561 3.65831165L49.3706561 6.16621548M55.4579822 2.67734395L54.4344024 2.67734395 54.4344024 4.71029962C54.4344024 5.22785995 54.6146164 5.48619624 54.9759321 5.48619624 55.1392787 5.48619624 55.2786561 5.46844118 55.3896253 5.44269632L55.4153701 6.14934816C55.2342684 6.21859294 54.9919117 6.25321533 54.6927387 6.25321533 53.9585665 6.25321533 53.5217918 5.8483997 53.5217918 4.78842194L53.5217918 2.67734395 52.911905 2.67734395 52.911905 1.97956965 53.5217918 1.97956965 53.5217918 1.21255056 54.4344024.9364592 54.4344024 1.9786819 55.4579822 1.9786819 55.4579822 2.67734395M60.3850146 6.16621548L59.4537611 6.16621548 59.4537611 3.77993389C59.4537611 3.03066987 59.1687922 2.6515991 58.6095074 2.6515991 58.1274573 2.6515991 57.6800294 2.97918017 57.6800294 3.64233208L57.6800294 6.16621548 56.7487759 6.16621548 56.7487759.0584709241 57.6800294.0584709241 57.6800294 2.57347678 57.6977846 2.57347678C57.9898554 2.11717145 58.4133139 1.8925698 58.9557314 1.8925698 59.8425971 1.8925698 60.3850146 2.58146657 60.3850146 3.67606672L60.3850146 6.16621548M65.138935 4.29660646L62.34695 4.29660646C62.364705 5.0893704 62.8884796 5.5367982 63.6643762 5.5367982 64.079845 5.5367982 64.4580279 5.46755342 64.7918233 5.33882915L64.9374149 5.98511375C64.5423646 6.15733794 64.0762939 6.24345004 63.5329887 6.24345004 62.2235522 6.24345004 61.4485434 5.41606371 61.4485434 4.13325981 61.4485434 2.84956814 62.2413073 1.88458002 63.4291216 1.88458002 64.4970891 1.88458002 65.1700063 2.67734395 65.1700063 3.87492352 65.1735574 4.03827018 65.1646798 4.18474951 65.138935 4.29660646L65.138935 4.29660646zM64.2858038 3.63345454C64.2858038 2.98716994 63.9591105 2.53086462 63.3643155 2.53086462 62.8298879 2.53086462 62.408205 2.99604748 62.34695 3.63345454L64.2858038 3.63345454 64.2858038 3.63345454z"/>
    </g>
  </g>
</svg>
