<svg
    xmlns="http://www.w3.org/2000/svg" viewBox="0 0 226.4 208.47">
    <g id="Ebene_2" data-name="Ebene 2">
        <g id="Layer_1" data-name="Layer 1">
            <path style="fill:#e98868" d="M106.18,136.33l-1.58-1.22c3.45-4.47,3.49-9.79.14-16.25C101.59,112.77,91,107.56,85.42,107a4.62,4.62,0,0,1-3.7-2.42l-10-19.33.4-.5a3.88,3.88,0,0,0-4.83-5.86,3.86,3.86,0,0,0-1.75,1.9l-.33.74-.79-.16A3.87,3.87,0,1,0,63.84,89l.65,0,10,19.33a4.63,4.63,0,0,1-.16,4.42c-2.77,4.88-4.6,16.54-1.45,22.62l-1.77.92c-3.57-6.88-1.47-19.32,1.49-24.53a2.64,2.64,0,0,0,.11-2.51L63.29,91a5.88,5.88,0,0,1-2.37-11.09A5.72,5.72,0,0,1,64,79.31a5.7,5.7,0,0,1,2.31-2.18,5.88,5.88,0,0,1,7.7,8.32l9.44,18.22A2.66,2.66,0,0,0,85.61,105c6,.58,17.34,6,20.91,12.92C110.21,125.06,110.1,131.25,106.18,136.33Z"/>
            <path style="fill:#618f30" d="M201.77,114.41a7.18,7.18,0,1,1,7.18-7.18A7.19,7.19,0,0,1,201.77,114.41Zm0-12.36a5.18,5.18,0,1,0,5.18,5.18A5.19,5.19,0,0,0,201.77,102.05Z"/>
            <path style="fill:#618f30" d="M114.37,208.47A72.43,72.43,0,0,1,63,187.21a74.17,74.17,0,0,1-21.92-51.48l0-1h146.6l0,1a74.17,74.17,0,0,1-21.92,51.48A72.39,72.39,0,0,1,114.37,208.47ZM43.11,136.71a72.18,72.18,0,0,0,21.31,49.08,70.66,70.66,0,0,0,99.9,0,72.18,72.18,0,0,0,21.31-49.08Z"/>
            <path style="fill:#618f30" d="M135.24,147.19H42.93a1,1,0,0,1,0-2h92.31a1,1,0,0,1,0,2Z"/>
            <path style="fill:#618f30" d="M184.89,147.19H172.61a1,1,0,0,1,0-2h12.28a1,1,0,0,1,0,2Z"/>
            <path style="fill:#e98868" d="M166.62,120.46A3.14,3.14,0,0,1,165,120l-.17-.11a3.13,3.13,0,0,1-1.23-3.79l23.92-60.69a12.4,12.4,0,0,1,7.86-7.1,16.64,16.64,0,0,1,13.42,2.14,16.42,16.42,0,0,1,7.43,11.1,12.59,12.59,0,0,1-2.72,10.2l-44.55,47.74A3.14,3.14,0,0,1,166.62,120.46Zm-.6-2.17a1.12,1.12,0,0,0,1.42-.19L212,70.41a10.53,10.53,0,0,0,2.25-8.56,14.85,14.85,0,0,0-18.3-11.64,10.4,10.4,0,0,0-6.6,5.95l-23.9,60.66a1.13,1.13,0,0,0,.44,1.36Z"/>
            <path style="fill:#e98868" d="M211.13,54.12a1,1,0,0,1-.38-1.92c5.44-2.28,10.6-8.79,12.54-11.44-2.36-.29-7.85.47-14.17,11.06l-1.74-1c2.54-4.67,8.46-17.09,8.53-23.62-3.12,3.25-10.28,11.82-10.34,22.15a1,1,0,0,1-1,1h0a1,1,0,0,1-1-1c.08-14.06,12-24.6,12.45-25l1.22-1.07.41,1.58C218.76,29.1,216,37,213.34,43.09c6.64-6.31,11.76-4,12-3.83l1,.5-.63,1c-.27.41-6.82,10.22-14.25,13.33A.91.91,0,0,1,211.13,54.12Z"/>
            <path style="fill:#e98868" d="M196.48,63.89a.94.94,0,0,1-.53-.16l-8.43-5.32a1,1,0,1,1,1.06-1.69L197,62a1,1,0,0,1-.53,1.85Z"/>
            <path style="fill:#e98868" d="M205.89,79.24a1,1,0,0,1-.53-.15l-8.16-5.15a1,1,0,0,1-.31-1.38,1,1,0,0,1,1.38-.31l8.16,5.15a1,1,0,0,1-.54,1.84Z"/>
            <path style="fill:#e98868" d="M187.64,85.31a1,1,0,0,1-.53-.15l-8-5a1,1,0,1,1,1.07-1.69l8,5a1,1,0,0,1,.31,1.38A1,1,0,0,1,187.64,85.31Z"/>
            <path style="fill:#e98868" d="M185.31,91.82a1,1,0,0,1-.54-.15l-6.25-4A1,1,0,0,1,179.59,86l6.25,4a1,1,0,0,1-.53,1.84Z"/>
            <path style="fill:#e98868" d="M177.82,103.07a1,1,0,0,1-.53-.15l-5.62-3.55a1,1,0,1,1,1.06-1.69l5.63,3.55a1,1,0,0,1-.54,1.84Z"/>
            <path style="fill:#618f30" d="M57.4,44.46c-4.32,0-6.68-2-8-4.05-4.18-6.61-.82-20.07,7.18-28.81l.65-.71.74.62c.67.57,16.3,14,14.26,23.93-.77,3.71-3.82,6.42-9.07,8A19.82,19.82,0,0,1,57.4,44.46Zm.05-30.78c-6.87,8-9.89,20-6.32,25.66,2.53,4,7.64,3.41,11.48,2.22,4.5-1.38,7.09-3.58,7.7-6.52C71.88,27.36,60.49,16.44,57.45,13.68Z"/>
            <path style="fill:#618f30" d="M72.21,66.22a1,1,0,0,1-.8-.39C56.59,46.16,57.24,22.51,57.25,22.27a1,1,0,0,1,1-1,1,1,0,0,1,1,1c0,.23-.62,23.19,13.76,42.28a1,1,0,0,1-.2,1.4A1,1,0,0,1,72.21,66.22Z"/>
            <path style="fill:#618f30" d="M39.94,124.61l-1-.14c-.88-.11-21.4-2.89-25.3-12.17-1.35-3.21-.59-6.75,2.25-10.52C21,95,26,95.61,28.55,96.61c7.37,2.91,12.74,15.52,11.5,27ZM25.33,98c-2.68,0-5.36,1.69-7.85,5-2.38,3.16-3.06,6-2,8.53,3,7.15,18.5,10.13,22.67,10.81.72-10.2-4-21.38-10.33-23.86A6.69,6.69,0,0,0,25.33,98Z"/>
            <path style="fill:#618f30" d="M33.32,116.08a1,1,0,0,1-.88-.54c-.09-.16-8.92-16.46-31.73-23.3a1,1,0,1,1,.58-1.92c23.65,7.1,32.55,23.59,32.92,24.29a1,1,0,0,1-.89,1.47Z"/>
            <path style="fill:#e98868" d="M96,60.78a2.84,2.84,0,0,1-.58-.05,4.05,4.05,0,0,1-3.16-3.81,21.7,21.7,0,0,1,10-42,21.71,21.71,0,0,1-2.59,43.25A4.18,4.18,0,0,1,96,60.78Zm3.61-44A19.71,19.71,0,0,0,93,55.09a1.76,1.76,0,0,1,1.16,1.57,1.86,1.86,0,0,0,3.66.63,1.75,1.75,0,0,1,1.61-1.08h.13a19.71,19.71,0,0,0,0-39.42ZM120,40.05h0Z"/>
            <path style="fill:#e98868" d="M102.53,16.79l-1-.13c-.24,0-5.81-.82-8.34-4.78-1.35-2.12-1.57-4.69-.65-7.65A1.91,1.91,0,0,1,94.91,3h0c3.5,1,9.15,4,7.77,12.84ZM94.45,4.92a6.88,6.88,0,0,0,.45,5.87c1.46,2.3,4.39,3.3,5.93,3.68C101.38,8.33,97.74,5.88,94.45,4.92Zm-.08,0Z"/>
            <path style="fill:#e98868" d="M102.26,16.27a1,1,0,0,1-.24,0,1,1,0,0,1-.73-1.22,8,8,0,0,1,8.84-6.41A1,1,0,0,1,111,9.73a1,1,0,0,1-1.12.86,6.09,6.09,0,0,0-6.64,4.92A1,1,0,0,1,102.26,16.27Z"/>
            <circle style="fill:#e98868" cx="110.33" cy="46.9" r="1.15"/>
            <circle style="fill:#e98868" cx="104.18" cy="46.3" r="1.15"/>
            <circle style="fill:#e98868" cx="109.74" cy="41.62" r="1.15"/>
            <path style="fill:#618f30" d="M134.14,128.38a22.24,22.24,0,0,1-11.7-3.25,17.49,17.49,0,0,1-8.34-12.07c-1.67-10.16,6.37-20,17.93-21.88s22.32,4.82,24,15h0c1.67,10.17-6.37,20-17.93,21.88A24,24,0,0,1,134.14,128.38ZM136,92.86a22.2,22.2,0,0,0-3.6.29c-10.47,1.72-17.77,10.51-16.28,19.59a15.56,15.56,0,0,0,7.42,10.69,20.73,20.73,0,0,0,14.28,2.65c10.47-1.72,17.77-10.51,16.28-19.59C152.73,98.47,145,92.86,136,92.86Z"/>
            <path style="fill:#618f30" d="M133.47,93.07a1,1,0,0,1-1-.91,7.62,7.62,0,0,1,5.94-8.51,1,1,0,1,1,.4,1.95A5.7,5.7,0,0,0,134.47,92a1,1,0,0,1-.91,1.09Z"/>
            <path style="fill:#618f30" d="M134.1,104.39c-1.53,0-2.89-1.78-4.57-6a11.61,11.61,0,0,1-7,3.78,2.49,2.49,0,0,1-1.94-.42c-.43-.37-1.09-1,1.24-6a1,1,0,1,1,1.81.84,25.94,25.94,0,0,0-1.38,3.55,9.69,9.69,0,0,0,6-3.43,1.72,1.72,0,0,1,1.59-.64,1.66,1.66,0,0,1,1.32,1.06c1.89,4.83,2.84,5.15,2.94,5.17.53-.26,1.44-3,1.76-6.33a1.69,1.69,0,0,1,.69-1.2,1.74,1.74,0,0,1,1.36-.3,32.75,32.75,0,0,1,5.52,2.65c.83.44,1.63.87,2.22,1.17-.22-1.63-.75-3.35-1.28-3.71A1,1,0,1,1,145.52,93c1.7,1.12,2.15,4.91,2.22,5.66a1.65,1.65,0,0,1-.66,1.57,1.7,1.7,0,0,1-1.76.19c-.65-.31-1.69-.87-2.79-1.46-1.52-.81-3.71-2-4.67-2.35-.28,2.46-1.11,7.37-3.43,7.75Zm-11.95-3.65h0Zm23.61-1.84v0Z"/>
            <path style="fill:#618f30" d="M133.77,124.68c-6.52,0-12-3.12-13.65-7.86a1,1,0,1,1,1.89-.65c1.44,4.2,6.75,6.87,12.94,6.47a1,1,0,0,1,1.06.94,1,1,0,0,1-.94,1.06C134.64,124.67,134.2,124.68,133.77,124.68Z"/>
            <path style="fill:#e98868" d="M72.39,106.63a2.16,2.16,0,0,1-.83-.17l.75-1.86c.38.17,1.28-1.06,1.82-1.79a17.84,17.84,0,0,1,1.15-1.45c1.73-1.89,5.75-1,6.2-.84L81,102.46c-1.36-.33-3.57-.47-4.25.25-.33.37-.68.84-1,1.29C74.85,105.2,73.78,106.63,72.39,106.63Z"/>
            <path style="fill:#e98868" d="M68,83.92a1,1,0,0,1-.89-.54,3.83,3.83,0,0,0-2.27-1.92,3.93,3.93,0,0,0-3,.25,4,4,0,0,0-1.21,1,1,1,0,0,1-1.54-1.27,5.75,5.75,0,0,1,1.83-1.49,5.88,5.88,0,0,1,7.94,2.52,1,1,0,0,1-.43,1.34A1,1,0,0,1,68,83.92Z"/>
            <rect style="fill:#e98868" x="136.28" y="58.07" width="25.66" height="2" transform="translate(42.88 179.23) rotate(-70.13)"/>
            <path style="fill:#e98868" d="M150.34,65.92a15.92,15.92,0,0,1-3.56-.42l-.17,0a1,1,0,0,1,.36-2l.26.06c4.66,1.08,8.67-.18,11.58-3.63a1,1,0,0,1,1.53,1.29A12.77,12.77,0,0,1,150.34,65.92Z"/>
            <path style="fill:#e98868" d="M147.44,65.71a1,1,0,0,1-.49-.13l-.16-.08a13.11,13.11,0,0,1-7.68-12,1,1,0,0,1,1-1h0a1,1,0,0,1,1,1c0,4.53,2.31,8.05,6.58,10.2l.24.13a1,1,0,0,1-.49,1.87Z"/>
            <path style="fill:#e98868" d="M153.31,57.71a15.92,15.92,0,0,1-3.56-.42l-.17,0a1,1,0,0,1-.8-1.16,1,1,0,0,1,1.16-.81l.26.06c4.66,1.08,8.67-.18,11.58-3.63A1,1,0,0,1,163.31,53,12.77,12.77,0,0,1,153.31,57.71Z"/>
            <path style="fill:#e98868" d="M150.41,57.5a1,1,0,0,1-.5-.13l-.15-.08a13.09,13.09,0,0,1-7.68-12,1,1,0,0,1,1-1h0a1,1,0,0,1,1,1c0,4.52,2.31,8,6.58,10.2l.24.12a1,1,0,0,1-.49,1.87Z"/>
            <path style="fill:#e98868" d="M146.48,72.26a12.89,12.89,0,0,1-1.77-.1l-.53-.17c-.21-.11-20.55-13.12-12.25-36.09,4-11,13.39-17.14,25.14-16.37l.69,0,.25.68c.23.73-.28,1.12-1,1.7-2.06,1.59-7.52,5.81-6.91,13.07.15,1.8,1.36,4.1,2.44,6.13a27.55,27.55,0,0,1,1.76,3.74,25.24,25.24,0,0,1,3.8-1.79c2.13-.87,4.53-1.86,5.8-3.15,5.11-5.19,3.62-11.85,3.06-14.36-.21-.93-.35-1.54.29-2l.58-.38.62.42c9.41,7,12.67,17.64,8.72,28.57C170.91,69.46,153,72.26,146.48,72.26Zm-1.42-2.07c1.44.07,23.25.59,30.2-18.62,3.39-9.38,1.19-18.24-6-24.65.58,3.4.91,9.51-3.93,14.44-1.56,1.58-4.16,2.65-6.47,3.6-1.81.75-3.87,1.59-4.31,2.34l-.05,0a1.28,1.28,0,0,1-.89,1.06l-.64.16-.41-.54a1.32,1.32,0,0,1,0-1.44c0-.92-1-2.77-1.83-4.42-1.16-2.19-2.48-4.69-2.67-6.9-.57-6.93,3.69-11.47,6.33-13.72-9.74.23-17.16,5.64-20.59,15.11C126.4,57.08,143.89,69.41,145.06,70.19Zm7.87-23.73,1.4.83a.34.34,0,0,0,0-.1l-1.3-.77Z"/>
            <path style="fill:#618f30" d="M120.48,83.15A7.18,7.18,0,1,1,127.66,76,7.19,7.19,0,0,1,120.48,83.15Zm0-12.36A5.18,5.18,0,1,0,125.66,76,5.18,5.18,0,0,0,120.48,70.79Z"/>
            <path style="fill:#618f30" d="M44.18,95.65a7.18,7.18,0,1,1,7.18-7.18A7.19,7.19,0,0,1,44.18,95.65Zm0-12.36a5.18,5.18,0,1,0,5.18,5.18A5.19,5.19,0,0,0,44.18,83.29Z"/>
            <path style="fill:#e98868" d="M34.18,58.14a7.26,7.26,0,0,1-2.63-.5,7.18,7.18,0,1,1,9.21-9.56,7.18,7.18,0,0,1-6.58,10.06Zm0-12.37a5.18,5.18,0,1,0,4.75,3.11h0a5.21,5.21,0,0,0-2.86-2.75A5.16,5.16,0,0,0,34.18,45.77Z"/>
            <path style="fill:#618f30" d="M129.23,14.36a7.18,7.18,0,1,1,7.18-7.18A7.19,7.19,0,0,1,129.23,14.36Zm0-12.36a5.18,5.18,0,1,0,5.18,5.18A5.18,5.18,0,0,0,129.23,2Z"/>
        </g>
    </g>
</svg>
