<svg xmlns="http://www.w3.org/2000/svg" width="100%" height="100%" viewBox="0 0 28 28" fill-rule="evenodd" stroke-linejoin="round" stroke-miterlimit="1.41421"><path d="M13.998.926c7.177 0 13.08 5.903 13.08 13.076s-5.902 13.075-13.075 13.075S.926 21.175.926 14.002C.934 6.83 6.83.934 13.998.926m0-.926c-7.68 0-14 6.32-14 14.002s6.32 14 14 14S28 21.683 28 14.002 21.678 0 13.998 0zm0 21.555a.93.93 0 0 1-.926-.926v-8.75a.93.93 0 0 1 .926-.926.93.93 0 0 1 .926.926v8.75a.93.93 0 0 1-.926.926z" fill-rule="nonzero"/><circle cx="13.998" cy="7.448" r="1.312"/></svg>