<svg xmlns="http://www.w3.org/2000/svg" viewBox="0 0 222.8 68.4"><g fill="#e98868"><path d="M14 36.6a.47.47 0 0 1-.5-.5c-.2-5.2-3-6.6-4.7-7.1v-.5l.2-.4-.1.5.2-.5c3.3.8 5.3 3.7 5.5 8 0 .3-.3.5-.6.5z"/><path d="M17.1 55c-.6 0-1-.3-1.3-.5-.4-.2-.8-.5-1.6-.5s-1.2.3-1.6.5c-.4.3-.9.6-1.7.5-4.1-.3-8.9-5.1-9.2-11.7-.2-6.9 3.3-8.2 6.4-8.6 2.3-.3 4.7.4 6.1.9 1.3-.5 3.8-1.2 6.1-.9 3.1.3 6.6 1.6 6.4 8.6-.2 6.5-5 11.4-9.2 11.7h-.4zm-3-2c1.2 0 1.7.4 2.2.7.4.2.6.4 1 .3 3.8-.3 8.1-4.9 8.3-10.7.2-6.1-2.5-7.2-5.5-7.5-2.2-.2-4.6.5-5.8.9l-.2.1-.2-.1c-1.2-.5-3.6-1.2-5.8-.9-3 .3-5.7 1.5-5.5 7.5.2 5.8 4.5 10.5 8.3 10.7.5.1.7-.1 1-.3.5-.3 1.1-.6 2.2-.7zm5.6-1.4c-.2 0-.3-.1-.4-.2-.1-.2-.1-.5.2-.7 4.2-2.6 3.8-9.2 3.8-9.3a.47.47 0 0 1 .5-.5.47.47 0 0 1 .5.5c0 .3.4 7.4-4.3 10.2h-.3z"/></g><g fill="#618f30"><path d="M33.2 39.1h-.3l-.2-.1C32.2 38.6 20 29 20 16c0-3.6 2.3-13 13-13s13.1 9.4 13.1 13c0 13-12.2 22.6-12.7 23l-.2.1zM33.1 4C23.1 4 21 12.6 21 16c0 11.6 10.1 20.5 12 22 1.9-1.6 12-10.4 12-22 .1-3.4-2.1-12-11.9-12z"/><circle cx="33" cy="16.3" r="4"/><path d="M208.1 47.4h-.3l-.2-.1c-.5-.4-12.7-10.1-12.7-23 0-3.6 2.3-13 13-13s13.1 9.4 13.1 13c0 13-12.2 22.6-12.7 23l-.2.1zm-.2-35.2c-9.9 0-12.1 8.7-12.1 12 0 11.6 10.1 20.5 12 22 1.9-1.6 12-10.4 12-22 .1-3.3-2-11.9-11.9-12z"/><circle cx="208.5" cy="24.5" r="4"/></g><g fill="#e98868"><path d="M101.1 36.7H79.4c-.6 0-1.2-.5-1.2-1.2V10.3c0-.6.5-1.2 1.2-1.2h21.7c.6 0 1.2.5 1.2 1.2v25.2c0 .6-.5 1.2-1.2 1.2zM79.4 10.1c-.1 0-.2.1-.2.2v25.2c0 .1.1.2.2.2h21.7c.1 0 .2-.1.2-.2V10.3c0-.1-.1-.2-.2-.2H79.4z"/><path d="M92.9 9.7h1v26.4h-1zm5.7-3.3H83.2V2.6c0-.6.5-1.1 1.2-1.1h13.1c.6 0 1.2.5 1.2 1.1v3.8zm-14.4-1h13.5V2.6s-.1-.1-.2-.1H84.3c-.1 0-.2.1-.2.1l.1 2.8z"/><path d="M78.462 9.573l5.05-4.25.644.765-5.05 4.25zM97.477 6.22l.728-.686 3.772 4.002-.728.686z"/><path d="M93.066 9.25l4.46-3.862.655.756-4.46 3.862zM170.6 50l-7.4-6.2L176 28.5l7.4 6.2L170.6 50zm-6-6.3l5.8 4.9L182 34.8l-5.8-4.9-11.6 13.8z"/><path d="M182.3 35.1l-6.5-5.4 8.9-10.6 6.5 5.4-8.9 10.6zm-5.1-5.5l5 4.2 7.6-9-5-4.2-7.6 9z"/><path d="M181.1 33h-1l.1-2.9 2-.4.2-2.6 2.3-.4.3-2.7 1 .1-.3 3.5-2.3.3-.2 2.6-2.1.5z"/><path d="M182.82 22.23l.642-.766 5.442 4.56-.642.766z"/></g><path d="M115.8 65.1h-.1l-2.9-.8c-.3-.1-.4-.4-.3-.6.1-.3.4-.4.6-.3l2.9.8c.3.1.4.4.3.6a.55.55 0 0 1-.5.3zm-8.7-2.5h-.1l-2.9-.8c-.3-.1-.4-.4-.3-.6.1-.3.4-.4.6-.3l2.9.8c.3.1.4.4.3.6-.1.1-.3.3-.5.3zM98.5 60h-.1l-2.9-.8c-.3-.1-.4-.4-.3-.6.1-.3.4-.4.6-.3l2.9.8c.3.1.4.4.3.6a.55.55 0 0 1-.5.3zm-8.7-2.5h-.1l-2.9-.8c-.3-.1-.4-.4-.3-.6.1-.3.4-.4.6-.3l2.9.8c.3.1.4.4.3.6 0 .2-.2.3-.5.3zM81.2 55h-.1l-2.9-.8c-.3-.1-.4-.4-.3-.6.1-.3.4-.4.6-.3l2.9.8c.3.1.4.4.3.6-.1.1-.3.3-.5.3zm-8.6-2.5h-.1l-2.9-.8c-.3-.1-.4-.4-.3-.6.1-.3.4-.4.6-.3l2.9.8c.3.1.4.4.3.6-.1.1-.3.3-.5.3zm-8.7-2.6h-.1l-2.9-.8c-.3-.1-.4-.4-.3-.6.1-.3.3-.4.6-.3l2.9.8c.3.1.4.4.3.6a.55.55 0 0 1-.5.3zm-8.6-2.5h-.1l-2.9-.8c-.3-.1-.4-.4-.3-.6.1-.3.4-.4.6-.3l2.9.8c.3.1.4.4.3.6a.55.55 0 0 1-.5.3zm-8.6-2.5h-.1l-3-.9c-.3-.1-.4-.4-.3-.6.1-.3.4-.4.6-.3l2.9.8c.3.1.4.4.3.6 0 .2-.2.4-.4.4zM38 42.4h-.1l-2.9-.9c-.3-.1-.4-.4-.3-.6.1-.3.4-.4.6-.3l2.9.8c.3.1.4.4.3.6s-.3.4-.5.4zm84.6 23.2c-.2 0-.4-.2-.5-.4-.1-.3.1-.5.4-.6l2.9-.6c.3-.1.5.1.6.4s-.1.5-.4.6l-2.9.6h-.1zm8.9-1.8c-.2 0-.4-.2-.5-.4-.1-.3.1-.5.4-.6l2.9-.6c.3-.1.5.1.6.4s-.1.5-.4.6l-2.9.6h-.1zm8.8-1.8c-.2 0-.4-.2-.5-.4-.1-.3.1-.5.4-.6l2.9-.6c.3-.1.5.1.6.4s-.1.5-.4.6l-2.9.6h-.1zm8.8-1.8c-.2 0-.4-.2-.5-.4-.1-.3.1-.5.4-.6l2.9-.6c.3-.1.5.1.6.4s-.1.5-.4.6l-2.9.6h-.1zm8.8-1.8c-.2 0-.4-.2-.5-.4-.1-.3.1-.5.4-.6l2.9-.6c.3-.1.5.1.6.4s-.1.5-.4.6l-2.9.6h-.1zm8.8-1.8c-.2 0-.4-.2-.5-.4-.1-.3.1-.5.4-.6l2.9-.6c.3-.1.5.1.6.4s-.1.5-.4.6l-2.9.6h-.1zm8.8-1.9c-.2 0-.4-.2-.5-.4-.1-.3.1-.5.4-.6l2.9-.6c.3-.1.5.1.6.4s-.1.5-.4.6l-2.9.6h-.1zm8.8-1.8c-.2 0-.4-.2-.5-.4-.1-.3.1-.5.4-.6l2.9-.6c.3-.1.5.1.6.4s-.1.5-.4.6l-2.9.6h-.1zm8.9-1.8c-.2 0-.4-.2-.5-.4-.1-.3.1-.5.4-.6l2.9-.6c.3-.1.5.1.6.4s-.1.5-.4.6l-2.9.6h-.1zm8.8-1.8c-.2 0-.4-.2-.5-.4-.1-.3.1-.5.4-.6l2.9-.6c.3-.1.5.1.6.4s-.1.5-.4.6l-2.9.6h-.1z" fill="#618f30"/><g fill="#618f30"><path d="M119.2 65.8h-.3l-.2-.1c-.5-.4-12.7-10-12.7-23 0-3.6 2.3-13 13-13s13.1 9.4 13.1 13c0 13-12.2 22.6-12.7 23l-.2.1zm-.1-35.1c-9.9 0-12.1 8.7-12.1 12 0 11.6 10.1 20.5 12 22 1.9-1.6 12-10.4 12-22 .1-3.4-2.1-12-11.9-12z"/><circle cx="119" cy="42.9" r="4"/></g></svg>