<?xml version="1.0" encoding="UTF-8"?>
<svg viewBox="0 0 30 30" version="1.1" xmlns="http://www.w3.org/2000/svg" xmlns:xlink="http://www.w3.org/1999/xlink">
    <g id="Interface_Icons/menu_30px" stroke="none" stroke-width="1" fill="none" fill-rule="evenodd">
        <path d="M7,8 L29,8 C29.5522847,8 30,8.44771525 30,9 C30,9.55228475 29.5522847,10 29,10 L7,10 C6.44771525,10 6,9.55228475 6,9 C6,8.44771525 6.44771525,8 7,8 Z" id="Rectangle-13" fill="#000000" fill-rule="nonzero" transform="translate(18.000000, 9.000000) scale(-1, 1) translate(-18.000000, -9.000000) "></path>
        <path d="M7,14 L29,14 C29.5522847,14 30,14.4477153 30,15 C30,15.5522847 29.5522847,16 29,16 L7,16 C6.44771525,16 6,15.5522847 6,15 C6,14.4477153 6.44771525,14 7,14 Z" id="Rectangle-13-Copy" fill="#000000" fill-rule="nonzero" transform="translate(18.000000, 15.000000) scale(-1, 1) translate(-18.000000, -15.000000) "></path>
        <path d="M7,20 L29,20 C29.5522847,20 30,20.4477153 30,21 C30,21.5522847 29.5522847,22 29,22 L7,22 C6.44771525,22 6,21.5522847 6,21 C6,20.4477153 6.44771525,20 7,20 Z" id="Rectangle-13-Copy" fill="#000000" fill-rule="nonzero" transform="translate(18.000000, 21.000000) scale(-1, 1) translate(-18.000000, -21.000000) "></path>
    </g>
</svg>