<svg xmlns="http://www.w3.org/2000/svg" viewBox="0 0 40 40">
  <path fill="#063B3A" d="M13.92,23.12 C15.7,23.12 16.82,21.48 16.82,18.7 C16.82,16.1 15.7,14.54 13.92,14.54 C12.14,14.54 11.02,16.1 11.02,18.7 C11.02,21.48 12.14,23.12 13.92,23.12 Z M18.22,28.92 C15.46,28.92 13.5,27.42 12.58,25.38 C9.8,24.8 8,22.38 8,18.7 C8,14.44 10.4,12 13.92,12 C17.44,12 19.84,14.46 19.84,18.7 C19.84,22.2 18.22,24.56 15.7,25.28 C16.3,26.2 17.46,26.56 18.56,26.56 C19.12,26.56 19.62,26.46 20,26.34 L20.52,28.48 C20.04,28.72 19.22,28.92 18.22,28.92 Z M22.3,25.28 L22.3,12.24 L27,12.24 C29.76,12.24 32.02,13.2 32.02,16.3 C32.02,18.22 31.1,19.44 29.7,20.06 L32.66,25.28 L29.36,25.28 L26.86,20.58 L25.24,20.58 L25.24,25.28 L22.3,25.28 Z M25.24,18.24 L26.76,18.24 C28.3,18.24 29.14,17.58 29.14,16.3 C29.14,15.02 28.3,14.58 26.76,14.58 L25.24,14.58 L25.24,18.24 Z M32,2 L32,-7.81597009e-14 L34,-7.81597009e-14 C37.3137085,-7.88258347e-14 40,2.6862915 40,6 L40,8 L38,8 L38,6 C38,3.790861 36.209139,2 34,2 L32,2 Z M8,2 L6,2 C3.790861,2 2,3.790861 2,6 L2,8 L-2.48689958e-14,8 L-2.48689958e-14,6 C-2.48689958e-14,2.6862915 2.6862915,-2.19824159e-14 6,-2.13162821e-14 L8,-2.13162821e-14 L8,2 Z M32,38 L34,38 C36.209139,38 38,36.209139 38,34 L38,32 L40,32 L40,34 C40,37.3137085 37.3137085,40 34,40 L32,40 L32,38 Z M2,38 L8,38 L8,40 L-6.50146603e-13,40 L-6.50146603e-13,32 L2,32 L2,38 Z"/>
</svg>
