<svg xmlns="http://www.w3.org/2000/svg" viewBox="0 0 17 16">
  <g fill="none" fill-rule="evenodd" transform="translate(0 1)">
    <path fill="#FFF" d="M6.98923319 12.4393425C7.57502036 13.0251297 7.57502036 13.9748806 6.98923319 14.5606618 6.40344602 15.1464489 5.45369512 15.1464489 4.86791395 14.5606618 4.28212678 13.9748746 4.28212678 13.0251237 4.86791395 12.4393425 5.45370112 11.8535553 6.40345202 11.8535553 6.98923319 12.4393425M13.9892332 12.4393425C14.5750204 13.0251297 14.5750204 13.9748806 13.9892332 14.5606618 13.403446 15.1464489 12.4536951 15.1464489 11.867914 14.5606618 11.2821268 13.9748746 11.2821268 13.0251237 11.867914 12.4393425 12.4537011 11.8535553 13.403452 11.8535553 13.9892332 12.4393425"/>
    <path stroke="#FFF" stroke-linecap="round" stroke-linejoin="round" d="M-8.8817842e-16,0 L2.85714286,0 L4.77142857,8.92644532 L4.77142859,8.9264454 C4.90624073,9.55991769 5.50812859,10.0121251 6.20000002,9.99975212 L13.1428572,9.99975212 L13.1428571,9.99975212 C13.8347257,10.0121267 14.4366142,9.55991769 14.5714285,8.9264454 L15.7142857,3.33325076 L3.57142851,3.33325076"/>
  </g>
</svg>
