<?xml version="1.0" encoding="UTF-8"?>
<svg viewBox="0 0 40 40" version="1.1" xmlns="http://www.w3.org/2000/svg" xmlns:xlink="http://www.w3.org/1999/xlink">
    <g id="Interface_Icons/submit_40px" stroke="none" stroke-width="1" fill="none" fill-rule="evenodd">
        <path d="M19,15.1642136 L19,27.25 C19,27.8022847 19.4477153,28.25 20,28.25 C20.5522847,28.25 21,27.8022847 21,27.25 L21,15.1642136 L25.2928932,19.4571068 C25.6834175,19.8476311 26.3165825,19.8476311 26.7071068,19.4571068 C27.0976311,19.0665825 27.0976311,18.4334175 26.7071068,18.0428932 L20.7071068,12.0428932 C20.3165825,11.6523689 19.6834175,11.6523689 19.2928932,12.0428932 L13.2928932,18.0428932 C12.9023689,18.4334175 12.9023689,19.0665825 13.2928932,19.4571068 C13.6834175,19.8476311 14.3165825,19.8476311 14.7071068,19.4571068 L19,15.1642136 Z M20,40 C8.954305,40 0,31.045695 0,20 C0,8.954305 8.954305,0 20,0 C31.045695,0 40,8.954305 40,20 C40,31.045695 31.045695,40 20,40 Z" id="Combined-Shape" fill="#000000"></path>
    </g>
</svg>