<?xml version="1.0" encoding="UTF-8"?>
<svg viewBox="0 0 30 30" version="1.1" xmlns="http://www.w3.org/2000/svg" xmlns:xlink="http://www.w3.org/1999/xlink">
    <g id="Interface_Icons/trash_30px" stroke="none" stroke-width="1" fill="none" fill-rule="evenodd">
        <g id="np_trash_1533154_000000" transform="translate(1.000000, 0.000000)" fill="#000000" fill-rule="nonzero">
            <path d="M28.2002141,4.2204402 L19.5283605,4.2204402 L19.5283605,2.76216301 C19.5283605,2.05025148 19.2465962,1.36684711 18.7430133,0.86327186 C18.2379417,0.359696608 17.5559953,0.0764283353 16.8426258,0.0764283353 L12.3163955,0.0764283353 C10.8326422,0.0764283353 9.63066087,1.27990604 9.63066087,2.76216301 L9.63066087,4.2204402 L0.958807279,4.2204402 C0.534653039,4.2204402 0.191454515,4.56365024 0.191454515,4.98779297 C0.180963268,5.19461756 0.257400811,5.39694546 0.404275967,5.54232044 C0.549654785,5.6891956 0.751982689,5.76563161 0.958803442,5.7551419 L3.37627159,5.7551419 L3.37627159,24.0952566 C3.37627159,25.6209841 3.98175129,27.0852467 5.06233745,28.1641447 C6.14142728,29.2432345 7.60419349,29.8502105 9.13122549,29.8502105 L20.0660024,29.8502105 C21.5917299,29.8502105 23.0559924,29.2432345 24.1348904,28.1641447 C25.2137884,27.0850549 25.8209563,25.6207923 25.8209563,24.0952566 L25.8209563,5.7551419 L28.1994429,5.7551419 C28.4062675,5.76563314 28.6085954,5.6891956 28.7539704,5.54232044 C28.9008455,5.39694163 28.9772815,5.19461372 28.9667918,4.98779297 C28.9667918,4.78396489 28.8858591,4.58911484 28.7419805,4.4452362 C28.5981018,4.30135755 28.4032671,4.22042486 28.1994237,4.22042486 L28.2002141,4.2204402 Z M11.1657501,2.76216301 C11.1657501,2.12671819 11.6797997,1.61113386 12.3167792,1.61113386 L16.8430095,1.61113386 C17.479989,1.61113386 17.9940386,2.12671819 17.9940386,2.76216301 L17.9940386,4.2204402 L11.1657501,4.2204402 L11.1657501,2.76216301 Z M24.2870987,24.0953372 C24.2870987,26.4258643 22.3971855,28.3157774 20.0666585,28.3157774 L9.13188157,28.3157774 C6.80135449,28.3157774 4.91144137,26.4258643 4.91144137,24.0953372 L4.91144137,5.75522247 L24.2870987,5.75522247 L24.2870987,24.0953372 Z" id="Shape"></path>
            <path d="M9.32371976,23.9034223 C9.52754784,23.9034223 9.72239789,23.8224896 9.86627654,23.6786109 C10.0101552,23.5347323 10.0910879,23.3398976 10.0910879,23.1360542 L10.0910879,10.0910572 C10.0910879,9.66690294 9.74787784,9.32370442 9.32373511,9.32370442 C8.89959238,9.32370442 8.55638235,9.66691445 8.55638235,10.0910572 L8.55638235,23.1360542 C8.55638235,23.3398823 8.63731504,23.5347323 8.78119369,23.6786109 C8.92507233,23.8224896 9.11990703,23.9034223 9.32375046,23.9034223 L9.32371976,23.9034223 Z" id="Shape"></path>
            <path d="M14.5797025,23.9034223 C14.7835306,23.9034223 14.9783807,23.8224896 15.1222593,23.6786109 C15.2661379,23.5347323 15.3470706,23.3398976 15.3470706,23.1360542 L15.3470706,10.0910572 C15.3470706,9.66690294 15.0038606,9.32370442 14.5797179,9.32370442 C14.1555751,9.32370442 13.8123651,9.66691445 13.8123651,10.0910572 L13.8123651,23.1360542 C13.8123651,23.3398823 13.8932978,23.5347323 14.0371764,23.6786109 C14.1810551,23.8224896 14.3758898,23.9034223 14.5797332,23.9034223 L14.5797025,23.9034223 Z" id="Shape"></path>
            <path d="M19.8356853,23.9034223 C20.0395134,23.9034223 20.2343634,23.8224896 20.3782421,23.6786109 C20.5221207,23.5347323 20.6030534,23.3398976 20.6030534,23.1360542 L20.6030534,10.0910572 C20.6030534,9.66690294 20.2598434,9.32370442 19.8357006,9.32370442 C19.4115579,9.32370442 19.0683479,9.66691445 19.0683479,10.0910572 L19.0683479,23.1360542 C19.0683479,23.3398823 19.1492806,23.5347323 19.2931592,23.6786109 C19.4370378,23.8224896 19.6318726,23.9034223 19.835716,23.9034223 L19.8356853,23.9034223 Z" id="Shape"></path>
        </g>
    </g>
</svg>