<svg xmlns="http://www.w3.org/2000/svg" viewBox="0 0 24 24">
  <path d="M5.42344208,17 L15,17 C17.7614237,17 20,14.7614237 20,12 C20,9.23857625 17.7614237,7 15,7 L3,7 C2.44771525,7 2,6.55228475 2,6 C2,5.44771525 2.44771525,5 3,5 L15,5 C18.8659932,5 22,8.13400675 22,12 C22,15.8659932 18.8659932,19 15,19 L5.42026825,19 L7.71474838,21.2944801 C8.10527267,21.6850044 8.10527267,22.3181694 7.71474838,22.7086937 C7.32422409,23.099218 6.69105911,23.099218 6.30053482,22.7086937 L2.30053482,18.7086937 C1.91001053,18.3181694 1.91001053,17.6850044 2.30053482,17.2944801 L6.30053482,13.2944801 C6.69105911,12.9039558 7.32422409,12.9039558 7.71474838,13.2944801 C8.10527267,13.6850044 8.10527267,14.3181694 7.71474838,14.7086937 L5.42344208,17 Z"/>
</svg>
