<?xml version="1.0" encoding="UTF-8"?>
<svg viewBox="0 0 41 40" version="1.1" xmlns="http://www.w3.org/2000/svg" xmlns:xlink="http://www.w3.org/1999/xlink">
    <g id="Interface_Icons/addUser_40px" stroke="none" stroke-width="1" fill="none" fill-rule="evenodd">
        <g id="add" transform="translate(0.244141, 0.000000)" fill="#000000" fill-rule="nonzero">
            <path d="M20,40 C8.97217391,40 0,31.0278261 0,20 C0,8.97217391 8.97217391,0 20,0 C31.0278261,0 40,8.97217391 40,20 C40,31.0278261 31.0278261,40 20,40 Z M20,1.73913043 C9.93043478,1.73913043 1.73913043,9.93043478 1.73913043,20 C1.73913043,30.0695652 9.93043478,38.2608696 20,38.2608696 C30.0695652,38.2608696 38.2608696,30.0695652 38.2608696,20 C38.2608696,9.93043478 30.0695652,1.73913043 20,1.73913043 Z" id="Shape"></path>
            <path d="M31.1153846,21 L9.88461538,21 C9.39630769,21 9,20.552 9,20 C9,19.448 9.39630769,19 9.88461538,19 L31.1153846,19 C31.6036923,19 32,19.448 32,20 C32,20.552 31.6036923,21 31.1153846,21 Z" id="Shape"></path>
            <path d="M20,32 C19.448,32 19,31.6036923 19,31.1153846 L19,9.88461538 C19,9.39630769 19.448,9 20,9 C20.552,9 21,9.39630769 21,9.88461538 L21,31.1153846 C21,31.6036923 20.552,32 20,32 Z" id="Shape"></path>
        </g>
    </g>
</svg>